#N canvas 1512 -73 1920 1027 12;
#X obj 279 1589 bng 15 250 50 0 empty empty empty 17 7 0 10 #fcfcfc #000000 #000000;
#X obj 279 1640 bng 15 250 50 0 empty empty empty 17 7 0 10 #fcfcfc #000000 #000000;
#X obj 305 1640 bng 15 250 50 0 empty empty empty 17 7 0 10 #fcfcfc #000000 #000000;
#X obj 331 1640 bng 15 250 50 0 empty empty empty 17 7 0 10 #fcfcfc #000000 #000000;
#X obj 357 1640 bng 15 250 50 0 empty empty empty 17 7 0 10 #fcfcfc #000000 #000000;
#X obj 279 1743 bng 15 250 50 0 empty empty empty 17 7 0 10 #fcfcfc #000000 #000000;
#X obj 311 1742 bng 15 250 50 0 empty empty empty 17 7 0 10 #fcfcfc #000000 #000000;
#X obj 343 1742 bng 15 250 50 0 empty empty empty 17 7 0 10 #fcfcfc #000000 #000000;
#X obj 279 1793 bng 15 250 50 0 empty empty empty 17 7 0 10 #fcfcfc #000000 #000000;
#X obj 13 4 cnv 9 1250 9 empty empty INTELLIGENT\ PATCHING 0 28 0 48 #0ca1c9 #000000 0;
#X text 39 48 Key commands and patching mechanics for faster/automated patching, f 84;
#X text 39 68 N.B.: MOD is to be substituted by your OS modifer key - CMD for Mac \, CTRL for Windows and Linux, f 119;
#X text 132 268 ->;
#X obj 11 172 cnv 2 1250 1 empty empty MOD+K 8 12 0 16 #7c7c7c #000000 0;
#X text 39 215 Select both objects you want to connect \, and with each press of MOD K an outlet will connect to an inlet \, moving from left to right, f 113;
#X text 39 145 These methods will connect as many outlets of one object to all available inlets of another object, f 105;
#X obj 21 253 unpack 4 4 4 4;
#X obj 21 288 pack 4 4 4 4;
#X obj 171 253 unpack 4 4 4 4;
#X obj 171 288 pack 4 4 4 4;
#X text 456 267 ->;
#X obj 355 288 pack 4 4 4 4;
#X obj 355 253 unpack 3 3 3;
#X obj 485 288 pack 4 4 4 4;
#X obj 485 253 unpack 3 3 3;
#X text 761 265 ->;
#X obj 660 253 unpack 4 4 4 4;
#X obj 660 288 pack 3 3 3;
#X obj 790 253 unpack 4 4 4 4;
#X obj 790 288 pack 3 3 3;
#X text 130 419 ->;
#X obj 11 340 cnv 2 1250 1 empty empty SHIFT\ WHILE\ DRAGGING\ A\ PATCH\ CABLE 8 12 0 18 #7c7c7c #000000 0;
#X obj 19 404 unpack 4 4 4 4;
#X obj 19 439 pack 4 4 4 4;
#X obj 169 404 unpack 4 4 4 4;
#X obj 169 439 pack 4 4 4 4;
#X obj 11 108 cnv 9 1250 9 empty empty MULTIPLE\ INLETS\ TO\ MULTIPLE\ OUTLETS 8 24 0 24 #0eb8e6 #000000 0;
#X text 132 1275 ->;
#X obj 21 1260 unpack 4 4 4 4;
#X obj 21 1305 pack 4 4 4 4;
#X obj 171 1260 unpack 4 4 4 4;
#X obj 171 1305 pack 4 4 4 4;
#X obj 11 1188 cnv 2 1250 1 empty empty MOD+D 8 12 0 18 #202020 #000000 0;
#X text 402 1276 ->;
#X obj 301 1305 pack 4 4 4 4;
#X obj 301 1260 unpack 3 3 3;
#X obj 431 1305 pack 4 4 4 4;
#X obj 431 1260 unpack 3 3 3;
#X text 667 1274 ->;
#X obj 566 1260 unpack 4 4 4 4;
#X obj 566 1305 pack 3 3 3;
#X obj 696 1260 unpack 4 4 4 4;
#X obj 696 1305 pack 3 3 3;
#X text 411 1403 ->;
#X obj 300 1389 unpack 4 4 4 4;
#X obj 300 1434 pack 4 4 4 4;
#X obj 440 1389 unpack 4 4 4 4;
#X obj 440 1434 pack 4 4 4 4;
#X text 134 1404 ->;
#X obj 23 1389 unpack 4 4 4 4;
#X obj 23 1434 pack 4 4 4 4;
#X obj 163 1389 unpack 4 4 4 4;
#X obj 163 1434 pack 4 4 4 4;
#X text 675 1404 ->;
#X obj 564 1389 unpack 4 4 4 4;
#X obj 564 1434 pack 4 4 4 4;
#X obj 704 1389 unpack 4 4 4 4;
#X obj 704 1434 pack 4 4 4 4;
#X text 955 1404 ->;
#X obj 844 1389 unpack 4 4 4 4;
#X obj 844 1434 pack 4 4 4 4;
#X obj 999 1389 unpack 4 4 4 4;
#X obj 999 1434 pack 4 4 4 4;
#X text 39 195 Auto-connect outlets to inlets for two selected objects;
#X text 130 544 ->;
#X obj 19 529 unpack 4 4 4 4;
#X obj 19 564 pack 4 4 4 4;
#X obj 169 529 unpack 4 4 4 4;
#X obj 169 564 pack 4 4 4 4;
#X msg 19 655 1;
#X msg 46 655 2;
#X msg 73 655 3;
#X msg 100 655 4;
#X obj 19 689 pack f f f f;
#X text 126 672 ->;
#X msg 159 655 1;
#X msg 186 655 2;
#X msg 213 655 3;
#X msg 240 655 4;
#X obj 159 689 pack f f f f;
#X obj 159 739 t b b b, f 10;
#X obj 159 775 bng 15 250 50 0 empty empty empty 17 7 0 10 #fcfcfc #000000 #000000;
#X obj 192 775 bng 15 250 50 0 empty empty empty 17 7 0 10 #fcfcfc #000000 #000000;
#X obj 226 775 bng 15 250 50 0 empty empty empty 17 7 0 10 #fcfcfc #000000 #000000;
#X obj 19 775 bng 15 250 50 0 empty empty empty 17 7 0 10 #fcfcfc #000000 #000000;
#X obj 52 775 bng 15 250 50 0 empty empty empty 17 7 0 10 #fcfcfc #000000 #000000;
#X obj 86 775 bng 15 250 50 0 empty empty empty 17 7 0 10 #fcfcfc #000000 #000000;
#X text 123 747 ->;
#X msg 19 989 1;
#X msg 46 989 2;
#X msg 73 989 3;
#X msg 100 989 4;
#X obj 19 1023 pack f f f f;
#X text 126 1006 ->;
#X msg 159 989 1;
#X msg 186 989 2;
#X msg 213 989 3;
#X msg 240 989 4;
#X obj 159 1023 pack f f f f;
#X obj 169 1155 bng 15 250 50 0 empty empty empty 17 7 0 10 #fcfcfc #000000 #000000;
#X obj 203 1155 bng 15 250 50 0 empty empty empty 17 7 0 10 #fcfcfc #000000 #000000;
#X obj 237 1155 bng 15 250 50 0 empty empty empty 17 7 0 10 #fcfcfc #000000 #000000;
#X text 133 1127 ->;
#X obj 169 1119 t b b b b, f 15;
#X obj 271 1155 bng 15 250 50 0 empty empty empty 17 7 0 10 #fcfcfc #000000 #000000;
#X obj 19 1155 bng 15 250 50 0 empty empty empty 17 7 0 10 #fcfcfc #000000 #000000;
#X obj 53 1155 bng 15 250 50 0 empty empty empty 17 7 0 10 #fcfcfc #000000 #000000;
#X obj 87 1155 bng 15 250 50 0 empty empty empty 17 7 0 10 #fcfcfc #000000 #000000;
#X obj 19 1119 t b b b b, f 15;
#X obj 121 1155 bng 15 250 50 0 empty empty empty 17 7 0 10 #fcfcfc #000000 #000000;
#X text 49 365 With two (or more) SELECTED OBJECTS \, hold shift+drag patch cable from outlet to inlet, f 113;
#X text 456 417 ->;
#X obj 355 438 pack 4 4 4 4;
#X obj 355 403 unpack 3 3 3;
#X obj 485 438 pack 4 4 4 4;
#X obj 485 403 unpack 3 3 3;
#X text 761 415 ->;
#X obj 660 403 unpack 4 4 4 4;
#X obj 660 438 pack 3 3 3;
#X obj 790 403 unpack 4 4 4 4;
#X obj 790 438 pack 3 3 3;
#X text 460 544 ->;
#X obj 349 529 unpack 4 4 4 4;
#X obj 349 564 pack 4 4 4 4;
#X obj 499 529 unpack 4 4 4 4;
#X obj 499 564 pack 4 4 4 4;
#X text 770 544 ->;
#X obj 659 529 unpack 4 4 4 4;
#X obj 659 564 pack 4 4 4 4;
#X obj 809 529 unpack 4 4 4 4;
#X obj 809 564 pack 4 4 4 4;
#X text 49 465 Unlike MOD+K \, you can from an inlet other than the left-most inlet. This will connect all outlets to the right of the outlet you are dragging from to connect to all of the inlets to the right of the connecting object's inlet until all all inlets are connected to available outlets (inlets without available outlets will not connect to anything)., f 116;
#X msg 349 655 1;
#X msg 376 655 2;
#X msg 403 655 3;
#X msg 430 655 4;
#X text 456 672 ->;
#X msg 489 655 1;
#X msg 516 655 2;
#X msg 543 655 3;
#X msg 570 655 4;
#X obj 489 689 pack f f f;
#X obj 349 689 pack f f f;
#X obj 349 775 bng 15 250 50 0 empty empty empty 17 7 0 10 #fcfcfc #000000 #000000;
#X obj 382 775 bng 15 250 50 0 empty empty empty 17 7 0 10 #fcfcfc #000000 #000000;
#X obj 416 775 bng 15 250 50 0 empty empty empty 17 7 0 10 #fcfcfc #000000 #000000;
#X text 453 747 ->;
#X obj 349 739 t b b b b, f 10;
#X obj 19 739 t b b b, f 10;
#X msg 669 655 1;
#X msg 696 655 2;
#X msg 723 655 3;
#X text 776 672 ->;
#X msg 809 655 1;
#X msg 836 655 2;
#X msg 863 655 3;
#X obj 809 689 pack f f f f;
#X obj 669 689 pack f f f f;
#X obj 489 775 bng 15 250 50 0 empty empty empty 17 7 0 10 #fcfcfc #000000 #000000;
#X obj 522 775 bng 15 250 50 0 empty empty empty 17 7 0 10 #fcfcfc #000000 #000000;
#X obj 556 775 bng 15 250 50 0 empty empty empty 17 7 0 10 #fcfcfc #000000 #000000;
#X obj 489 739 t b b b b, f 10;
#X obj 669 775 bng 15 250 50 0 empty empty empty 17 7 0 10 #fcfcfc #000000 #000000;
#X obj 702 775 bng 15 250 50 0 empty empty empty 17 7 0 10 #fcfcfc #000000 #000000;
#X obj 736 775 bng 15 250 50 0 empty empty empty 17 7 0 10 #fcfcfc #000000 #000000;
#X text 773 747 ->;
#X obj 669 739 t b b, f 10;
#X obj 809 775 bng 15 250 50 0 empty empty empty 17 7 0 10 #fcfcfc #000000 #000000;
#X obj 842 775 bng 15 250 50 0 empty empty empty 17 7 0 10 #fcfcfc #000000 #000000;
#X obj 876 775 bng 15 250 50 0 empty empty empty 17 7 0 10 #fcfcfc #000000 #000000;
#X obj 809 739 t b b, f 10;
#X text 49 595 Works with multiple objects to a single object. DOES NOT work with multiple objects to multiple objects. WHEN CONNECTING TO THE LEFTMOST INLET/OBJECT OR FROM THE LEFTMOST OUTLET \, any patch cable without corresponding inlet will be dropped or an inlet without a patch cable will be ignored (see next section for connecting to inlets/outlets other than the leftmost), f 118;
#X obj 169 895 bng 15 250 50 0 empty empty empty 17 7 0 10 #fcfcfc #000000 #000000;
#X obj 202 895 bng 15 250 50 0 empty empty empty 17 7 0 10 #fcfcfc #000000 #000000;
#X obj 236 895 bng 15 250 50 0 empty empty empty 17 7 0 10 #fcfcfc #000000 #000000;
#X obj 169 859 t b b b, f 10;
#X obj 19 895 bng 15 250 50 0 empty empty empty 17 7 0 10 #fcfcfc #000000 #000000;
#X obj 52 895 bng 15 250 50 0 empty empty empty 17 7 0 10 #fcfcfc #000000 #000000;
#X obj 86 895 bng 15 250 50 0 empty empty empty 17 7 0 10 #fcfcfc #000000 #000000;
#X obj 19 859 t b b b, f 10;
#X msg 369 859 1;
#X msg 396 859 2;
#X msg 423 859 3;
#X msg 450 859 4;
#X obj 369 893 pack f f f f;
#X text 476 876 ->;
#X msg 509 859 1;
#X msg 536 859 2;
#X msg 563 859 3;
#X msg 590 859 4;
#X obj 509 893 pack f f f f;
#X text 39 797 When connecting from a single object from an inlet other than the leftmost outlet to the leftmost object \, all outlets to the right will be connected to all objects from left to right until all objects are connected. When connecting multiple objects to a single object other than the leftmost inlet from the leftmost object's outlet \, all inlets to the right will be connected to all objects from left to right., f 119;
#X text 123 867 ->;
#X msg 319 989 1;
#X msg 346 989 2;
#X msg 373 989 3;
#X msg 400 989 4;
#X obj 319 1023 pack f f f f;
#X text 426 1006 ->;
#X msg 459 989 1;
#X msg 486 989 2;
#X msg 513 989 3;
#X msg 540 989 4;
#X obj 459 1023 pack f f f f;
#X obj 479 1155 bng 15 250 50 0 empty empty empty 17 7 0 10 #fcfcfc #000000 #000000;
#X obj 513 1155 bng 15 250 50 0 empty empty empty 17 7 0 10 #fcfcfc #000000 #000000;
#X obj 547 1155 bng 15 250 50 0 empty empty empty 17 7 0 10 #fcfcfc #000000 #000000;
#X text 443 1127 ->;
#X obj 479 1119 t b b b b, f 15;
#X obj 581 1155 bng 15 250 50 0 empty empty empty 17 7 0 10 #fcfcfc #000000 #000000;
#X obj 329 1155 bng 15 250 50 0 empty empty empty 17 7 0 10 #fcfcfc #000000 #000000;
#X obj 363 1155 bng 15 250 50 0 empty empty empty 17 7 0 10 #fcfcfc #000000 #000000;
#X obj 397 1155 bng 15 250 50 0 empty empty empty 17 7 0 10 #fcfcfc #000000 #000000;
#X obj 329 1119 t b b b b, f 15;
#X obj 431 1155 bng 15 250 50 0 empty empty empty 17 7 0 10 #fcfcfc #000000 #000000;
#X msg 599 989 1;
#X msg 626 989 2;
#X msg 653 989 3;
#X msg 680 989 4;
#X text 706 1006 ->;
#X msg 739 989 1;
#X msg 766 989 2;
#X msg 793 989 3;
#X msg 820 989 4;
#X text 49 928 Only when connecting multiple objects to a single object and connecting from an object OTHER than the leftmost object \, all objects to the LEFT of the first connected object will connect to all outlets to the right of the first connected inlet \, and then all remaining objects to the RIGHT of the first connected object will get connected, f 116;
#X obj 599 1023 pack f f f f f;
#X obj 739 1023 pack f f f f f;
#X msg 879 989 1;
#X msg 906 989 2;
#X msg 933 989 3;
#X msg 960 989 4;
#X text 986 1006 ->;
#X msg 1019 989 1;
#X msg 1046 989 2;
#X msg 1073 989 3;
#X msg 1100 989 4;
#X obj 879 1023 pack f f f f f;
#X obj 1019 1023 pack f f f f f;
#X text 49 1048 This happens in reverse for a single object connecting to multiple objects. When connecting to an object other than the leftmost object \, all objects to the left of that object will be connected to all inlets to the right of the first connected inlet \, before all other objects to the right of that first connected object are connected, f 116;
#X obj 799 1155 bng 15 250 50 0 empty empty empty 17 7 0 10 #fcfcfc #000000 #000000;
#X obj 833 1155 bng 15 250 50 0 empty empty empty 17 7 0 10 #fcfcfc #000000 #000000;
#X obj 867 1155 bng 15 250 50 0 empty empty empty 17 7 0 10 #fcfcfc #000000 #000000;
#X text 763 1127 ->;
#X obj 799 1119 t b b b b, f 15;
#X obj 901 1155 bng 15 250 50 0 empty empty empty 17 7 0 10 #fcfcfc #000000 #000000;
#X obj 649 1155 bng 15 250 50 0 empty empty empty 17 7 0 10 #fcfcfc #000000 #000000;
#X obj 683 1155 bng 15 250 50 0 empty empty empty 17 7 0 10 #fcfcfc #000000 #000000;
#X obj 717 1155 bng 15 250 50 0 empty empty empty 17 7 0 10 #fcfcfc #000000 #000000;
#X obj 649 1119 t b b b b, f 15;
#X obj 751 1155 bng 15 250 50 0 empty empty empty 17 7 0 10 #fcfcfc #000000 #000000;
#X obj 1089 1155 bng 15 250 50 0 empty empty empty 17 7 0 10 #fcfcfc #000000 #000000;
#X obj 1123 1155 bng 15 250 50 0 empty empty empty 17 7 0 10 #fcfcfc #000000 #000000;
#X obj 1157 1155 bng 15 250 50 0 empty empty empty 17 7 0 10 #fcfcfc #000000 #000000;
#X text 1053 1127 ->;
#X obj 1191 1155 bng 15 250 50 0 empty empty empty 17 7 0 10 #fcfcfc #000000 #000000;
#X obj 939 1155 bng 15 250 50 0 empty empty empty 17 7 0 10 #fcfcfc #000000 #000000;
#X obj 973 1155 bng 15 250 50 0 empty empty empty 17 7 0 10 #fcfcfc #000000 #000000;
#X obj 1007 1155 bng 15 250 50 0 empty empty empty 17 7 0 10 #fcfcfc #000000 #000000;
#X obj 939 1119 t b b b b, f 15;
#X obj 1041 1155 bng 15 250 50 0 empty empty empty 17 7 0 10 #fcfcfc #000000 #000000;
#X obj 1089 1119 t b b b b b, f 15;
#X obj 33 1946 bng 15 250 50 0 empty empty empty 17 7 0 10 #fcfcfc #000000 #000000;
#X obj 33 1997 bng 15 250 50 0 empty empty empty 17 7 0 10 #fcfcfc #000000 #000000;
#X obj 59 1997 bng 15 250 50 0 empty empty empty 17 7 0 10 #fcfcfc #000000 #000000;
#X obj 85 1997 bng 15 250 50 0 empty empty empty 17 7 0 10 #fcfcfc #000000 #000000;
#X obj 111 1997 bng 15 250 50 0 empty empty empty 17 7 0 10 #fcfcfc #000000 #000000;
#X obj 193 1946 bng 15 250 50 0 empty empty empty 17 7 0 10 #fcfcfc #000000 #000000;
#X obj 193 1997 bng 15 250 50 0 empty empty empty 17 7 0 10 #fcfcfc #000000 #000000;
#X obj 219 1997 bng 15 250 50 0 empty empty empty 17 7 0 10 #fcfcfc #000000 #000000;
#X obj 245 1997 bng 15 250 50 0 empty empty empty 17 7 0 10 #fcfcfc #000000 #000000;
#X obj 271 1997 bng 15 250 50 0 empty empty empty 17 7 0 10 #fcfcfc #000000 #000000;
#X text 134 1964 ->;
#X obj 189 1969 t a a a a;
#X text 19 1218 The duplicate key command works for patch cords between two objects - select the patch cable then hit MOD+D, f 154;
#X text 19 1338 Will always duplicate from left to right \, so all outlets to the left of the selected cable will be connected \, all inlets of the selected cable will be connected \, until all inlets/outlets of one of the two objects are connected., f 156;
#X obj 11 1478 cnv 9 1250 9 empty empty CABLE\ FAN\ OUT/IN 8 24 0 24 #0eb8e6 #000000 0;
#X obj 11 1528 cnv 2 1250 1 empty empty FAN\ OUT 8 12 0 18 #202020 #000000 0;
#X text 19 1558 Drag cable from outlet to first object \, press shift while still dragging cable \, move to next object and repeat until all objects are connected, f 118;
#X obj 69 1589 bng 15 250 50 0 empty empty empty 17 7 0 10 #fcfcfc #000000 #000000;
#X obj 69 1640 bng 15 250 50 0 empty empty empty 17 7 0 10 #fcfcfc #000000 #000000;
#X obj 95 1640 bng 15 250 50 0 empty empty empty 17 7 0 10 #fcfcfc #000000 #000000;
#X obj 121 1640 bng 15 250 50 0 empty empty empty 17 7 0 10 #fcfcfc #000000 #000000;
#X obj 147 1640 bng 15 250 50 0 empty empty empty 17 7 0 10 #fcfcfc #000000 #000000;
#X text 194 1604 ->;
#X obj 11 1678 cnv 2 1250 1 empty empty FAN\ IN 8 12 0 18 #202020 #000000 0;
#X obj 59 1743 bng 15 250 50 0 empty empty empty 17 7 0 10 #fcfcfc #000000 #000000;
#X obj 91 1742 bng 15 250 50 0 empty empty empty 17 7 0 10 #fcfcfc #000000 #000000;
#X obj 123 1742 bng 15 250 50 0 empty empty empty 17 7 0 10 #fcfcfc #000000 #000000;
#X obj 59 1793 bng 15 250 50 0 empty empty empty 17 7 0 10 #fcfcfc #000000 #000000;
#X text 194 1764 ->;
#X text 19 1708 Select all *SOURCE* objects \, drag a cable from one of the source objects \, press shift while hovering over the inlet of the destination object., f 120;
#X obj 11 1828 cnv 2 1250 1 empty empty TRIGGERIZE 8 12 0 18 #202020 #000000 0;
#X text 21 1850 For any single object that fans out to multiple objects \, select the source object and hit MOD-T to replace the fan with a [trigger] object. The objects will be connected to outlets from right to left based on the order that they were originally connected - if the rightmost object was connected first \, then it will be connected to the rightmost outlet of [trigger] \, which is the outlet that will output the incoming message first. If any other object was connected first \, then that object will be connected to the rightmost outlet \, the second object connected will connect to the next object to the left \, and so on., f 122;
#X obj 403 1946 bng 15 250 50 0 empty empty empty 17 7 0 10 #fcfcfc #000000 #000000;
#X obj 403 1997 bng 15 250 50 0 empty empty empty 17 7 0 10 #fcfcfc #000000 #000000;
#X obj 429 1997 bng 15 250 50 0 empty empty empty 17 7 0 10 #fcfcfc #000000 #000000;
#X obj 455 1997 bng 15 250 50 0 empty empty empty 17 7 0 10 #fcfcfc #000000 #000000;
#X text 504 1964 ->;
#X obj 553 1946 bng 15 250 50 0 empty empty empty 17 7 0 10 #fcfcfc #000000 #000000;
#X obj 553 1997 bng 15 250 50 0 empty empty empty 17 7 0 10 #fcfcfc #000000 #000000;
#X obj 579 1997 bng 15 250 50 0 empty empty empty 17 7 0 10 #fcfcfc #000000 #000000;
#X obj 605 1997 bng 15 250 50 0 empty empty empty 17 7 0 10 #fcfcfc #000000 #000000;
#X obj 549 1969 t a a a;
#X text 109 2018 1st;
#X text 79 2018 2nd;
#X text 51 2018 3rd;
#X text 25 2018 4th;
#X text 427 2018 1st;
#X text 395 2018 2nd;
#X text 454 2018 3rd;
#N canvas 106 101 450 300 all-shift-drag-behaviors 0;
#X msg 885 698 1, f 1;
#X msg 912 698 2, f 1;
#X msg 939 698 3, f 1;
#X msg 966 698 4, f 1;
#X obj 885 732 pack f f f f f;
#X msg 994 698 5, f 1;
#X msg 503 729 1, f 1;
#X msg 530 729 2, f 1;
#X msg 557 729 3, f 1;
#X msg 584 729 4, f 1;
#X obj 503 763 pack f f f f f;
#X msg 612 729 5, f 1;
#X text 941 682 *;
#X text 649 731 comment;
#X text 492 689 CONNECTING TO ANY OTHER INLET;
#X text 1239 624 Dragging any object "out of order" from left to right (i.e. the third object from the left connecting to inlet 2) will cause all selected objects to the LEFT of the object initially connected to connect to all remaining inlets TO THE RIGHT of the intially connected inlet - all inlets to LEFT of the initally connected inlet will remain disconnected, f 32;
#X msg 169 45 1, f 1;
#X msg 196 45 2, f 1;
#X msg 224 45 3, f 1;
#X msg 252 45 4, f 1;
#X obj 169 79 pack f f f f f, f 19;
#X msg 280 45 5, f 1;
#X msg 169 130 1, f 1;
#X msg 196 130 2, f 1;
#X msg 224 130 3, f 1;
#X msg 252 130 4, f 1;
#X obj 169 164 pack f f f f f, f 19;
#X msg 280 130 5, f 1;
#X text 193 113 *;
#X msg 169 216 1, f 1;
#X msg 196 216 2, f 1;
#X msg 224 216 3, f 1;
#X msg 252 216 4, f 1;
#X obj 169 250 pack f f f f f, f 19;
#X msg 280 216 5, f 1;
#X text 193 199 *;
#X msg 165 301 1, f 1;
#X msg 192 301 2, f 1;
#X msg 220 301 3, f 1;
#X msg 248 301 4, f 1;
#X obj 165 335 pack f f f f f, f 19;
#X msg 276 301 5, f 1;
#X text 189 284 *;
#X msg 168 385 1, f 1;
#X msg 195 385 2, f 1;
#X msg 223 385 3, f 1;
#X msg 251 385 4, f 1;
#X obj 168 419 pack f f f f f, f 19;
#X msg 279 385 5, f 1;
#X text 192 368 *;
#X msg 19 45 1, f 1;
#X msg 46 45 2, f 1;
#X msg 74 45 3, f 1;
#X msg 102 45 4, f 1;
#X obj 19 79 pack f f f f f, f 19;
#X msg 130 45 5, f 1;
#X msg 19 129 1, f 1;
#X msg 46 129 2, f 1;
#X msg 74 129 3, f 1;
#X msg 102 129 4, f 1;
#X obj 19 163 pack f f f f f, f 19;
#X msg 130 129 5, f 1;
#X msg 19 213 1, f 1;
#X msg 46 213 2, f 1;
#X msg 74 213 3, f 1;
#X msg 102 213 4, f 1;
#X obj 19 247 pack f f f f f, f 19;
#X msg 130 213 5, f 1;
#X msg 19 303 1, f 1;
#X msg 46 303 2, f 1;
#X msg 74 303 3, f 1;
#X msg 102 303 4, f 1;
#X obj 19 337 pack f f f f f, f 19;
#X msg 130 303 5, f 1;
#X msg 19 383 1, f 1;
#X msg 46 383 2, f 1;
#X msg 74 383 3, f 1;
#X msg 102 383 4, f 1;
#X obj 19 417 pack f f f f f, f 19;
#X msg 130 383 5, f 1;
#X msg 332 46 1, f 1;
#X msg 359 46 2, f 1;
#X msg 387 46 3, f 1;
#X msg 415 46 4, f 1;
#X obj 332 80 pack f f f f f, f 19;
#X msg 443 46 5, f 1;
#X msg 332 130 1, f 1;
#X msg 359 130 2, f 1;
#X msg 387 130 3, f 1;
#X msg 415 130 4, f 1;
#X obj 332 164 pack f f f f f, f 19;
#X msg 443 130 5, f 1;
#X msg 332 214 1, f 1;
#X msg 359 214 2, f 1;
#X msg 387 214 3, f 1;
#X msg 415 214 4, f 1;
#X obj 332 248 pack f f f f f, f 19;
#X msg 443 214 5, f 1;
#X msg 332 304 1, f 1;
#X msg 359 304 2, f 1;
#X msg 387 304 3, f 1;
#X msg 415 304 4, f 1;
#X obj 332 338 pack f f f f f, f 19;
#X msg 443 304 5, f 1;
#X msg 332 384 1, f 1;
#X msg 359 384 2, f 1;
#X msg 387 384 3, f 1;
#X msg 415 384 4, f 1;
#X obj 332 418 pack f f f f f, f 19;
#X msg 443 384 5, f 1;
#X text 193 23 *;
#X text 18 23 *;
#X text 18 113 *;
#X text 18 193 *;
#X text 18 283 *;
#X text 18 363 *;
#X msg 492 46 1, f 1;
#X msg 519 46 2, f 1;
#X msg 547 46 3, f 1;
#X msg 575 46 4, f 1;
#X obj 492 80 pack f f f f f, f 19;
#X msg 603 46 5, f 1;
#X msg 492 130 1, f 1;
#X msg 519 130 2, f 1;
#X msg 547 130 3, f 1;
#X msg 575 130 4, f 1;
#X obj 492 164 pack f f f f f, f 19;
#X msg 603 130 5, f 1;
#X msg 492 214 1, f 1;
#X msg 519 214 2, f 1;
#X msg 547 214 3, f 1;
#X msg 575 214 4, f 1;
#X obj 492 248 pack f f f f f, f 19;
#X msg 603 214 5, f 1;
#X msg 493 304 1, f 1;
#X msg 520 304 2, f 1;
#X msg 548 304 3, f 1;
#X msg 576 304 4, f 1;
#X obj 493 338 pack f f f f f, f 19;
#X msg 604 304 5, f 1;
#X msg 492 384 1, f 1;
#X msg 519 384 2, f 1;
#X msg 547 384 3, f 1;
#X msg 575 384 4, f 1;
#X obj 492 418 pack f f f f f, f 19;
#X msg 603 384 5, f 1;
#X msg 642 46 1, f 1;
#X msg 669 46 2, f 1;
#X msg 697 46 3, f 1;
#X msg 725 46 4, f 1;
#X obj 642 80 pack f f f f f, f 19;
#X msg 753 46 5, f 1;
#X msg 642 130 1, f 1;
#X msg 669 130 2, f 1;
#X msg 697 130 3, f 1;
#X msg 725 130 4, f 1;
#X obj 642 164 pack f f f f f, f 19;
#X msg 753 130 5, f 1;
#X msg 642 214 1, f 1;
#X msg 669 214 2, f 1;
#X msg 697 214 3, f 1;
#X msg 725 214 4, f 1;
#X obj 642 248 pack f f f f f, f 19;
#X msg 753 214 5, f 1;
#X msg 642 304 1, f 1;
#X msg 669 304 2, f 1;
#X msg 697 304 3, f 1;
#X msg 725 304 4, f 1;
#X obj 642 338 pack f f f f f, f 19;
#X msg 753 304 5, f 1;
#X msg 642 384 1, f 1;
#X msg 669 384 2, f 1;
#X msg 697 384 3, f 1;
#X msg 725 384 4, f 1;
#X obj 642 418 pack f f f f f, f 19;
#X msg 753 384 5, f 1;
#X text 386 23 *;
#X text 386 103 *;
#X text 386 193 *;
#X text 386 283 *;
#X text 386 363 *;
#X msg 31 492 1, f 1;
#X msg 58 492 2, f 1;
#X msg 86 492 3, f 1;
#X msg 114 492 4, f 1;
#X obj 31 526 pack f f f f f, f 19;
#X msg 142 492 5, f 1;
#X msg 31 576 1, f 1;
#X msg 58 576 2, f 1;
#X msg 86 576 3, f 1;
#X msg 114 576 4, f 1;
#X obj 31 610 pack f f f f f, f 19;
#X msg 142 576 5, f 1;
#X msg 31 660 1, f 1;
#X msg 58 660 2, f 1;
#X msg 86 660 3, f 1;
#X msg 114 660 4, f 1;
#X obj 31 694 pack f f f f f, f 19;
#X msg 142 660 5, f 1;
#X msg 31 750 1, f 1;
#X msg 58 750 2, f 1;
#X msg 86 750 3, f 1;
#X msg 114 750 4, f 1;
#X obj 31 784 pack f f f f f, f 19;
#X msg 142 750 5, f 1;
#X msg 31 830 1, f 1;
#X msg 58 830 2, f 1;
#X msg 86 830 3, f 1;
#X msg 114 830 4, f 1;
#X obj 31 864 pack f f f f f, f 19;
#X msg 142 830 5, f 1;
#X obj 799 49 unpack f f f f f, f 20;
#X msg 799 84 1, f 1;
#X msg 828 84 2, f 1;
#X msg 857 84 3, f 1;
#X msg 886 84 4, f 1;
#X msg 916 84 5, f 1;
#X obj 799 129 unpack f f f f f, f 20;
#X msg 799 164 1, f 1;
#X msg 828 164 2, f 1;
#X msg 857 164 3, f 1;
#X msg 886 164 4, f 1;
#X msg 916 164 5, f 1;
#X obj 799 219 unpack f f f f f, f 20;
#X msg 799 254 1, f 1;
#X msg 828 254 2, f 1;
#X msg 857 254 3, f 1;
#X msg 886 254 4, f 1;
#X msg 916 254 5, f 1;
#X obj 799 309 unpack f f f f f, f 20;
#X msg 799 344 1, f 1;
#X msg 828 344 2, f 1;
#X msg 857 344 3, f 1;
#X msg 886 344 4, f 1;
#X msg 916 344 5, f 1;
#X obj 799 389 unpack f f f f f, f 20;
#X msg 799 424 1, f 1;
#X msg 828 424 2, f 1;
#X msg 857 424 3, f 1;
#X msg 886 424 4, f 1;
#X msg 916 424 5, f 1;
#X obj 949 49 unpack f f f f f, f 20;
#X msg 949 84 1, f 1;
#X msg 978 84 2, f 1;
#X msg 1007 84 3, f 1;
#X msg 1036 84 4, f 1;
#X msg 1066 84 5, f 1;
#X obj 949 129 unpack f f f f f, f 20;
#X msg 949 164 1, f 1;
#X msg 978 164 2, f 1;
#X msg 1007 164 3, f 1;
#X msg 1036 164 4, f 1;
#X msg 1066 164 5, f 1;
#X obj 949 219 unpack f f f f f, f 20;
#X msg 949 254 1, f 1;
#X msg 978 254 2, f 1;
#X msg 1007 254 3, f 1;
#X msg 1036 254 4, f 1;
#X msg 1066 254 5, f 1;
#X obj 949 309 unpack f f f f f, f 20;
#X msg 949 344 1, f 1;
#X msg 978 344 2, f 1;
#X msg 1007 344 3, f 1;
#X msg 1036 344 4, f 1;
#X msg 1066 344 5, f 1;
#X obj 949 389 unpack f f f f f, f 20;
#X msg 949 424 1, f 1;
#X msg 978 424 2, f 1;
#X msg 1007 424 3, f 1;
#X msg 1036 424 4, f 1;
#X msg 1066 424 5, f 1;
#X obj 1109 49 unpack f f f f f, f 20;
#X msg 1109 84 1, f 1;
#X msg 1138 84 2, f 1;
#X msg 1167 84 3, f 1;
#X msg 1196 84 4, f 1;
#X msg 1226 84 5, f 1;
#X obj 1109 129 unpack f f f f f, f 20;
#X msg 1109 164 1, f 1;
#X msg 1138 164 2, f 1;
#X msg 1167 164 3, f 1;
#X msg 1196 164 4, f 1;
#X msg 1226 164 5, f 1;
#X obj 1109 219 unpack f f f f f, f 20;
#X msg 1109 254 1, f 1;
#X msg 1138 254 2, f 1;
#X msg 1167 254 3, f 1;
#X msg 1196 254 4, f 1;
#X msg 1226 254 5, f 1;
#X obj 1109 309 unpack f f f f f, f 20;
#X msg 1109 344 1, f 1;
#X msg 1138 344 2, f 1;
#X msg 1167 344 3, f 1;
#X msg 1196 344 4, f 1;
#X msg 1226 344 5, f 1;
#X obj 1109 389 unpack f f f f f, f 20;
#X msg 1109 424 1, f 1;
#X msg 1138 424 2, f 1;
#X msg 1167 424 3, f 1;
#X msg 1196 424 4, f 1;
#X msg 1226 424 5, f 1;
#X obj 174 493 unpack f f f f f, f 20;
#X msg 174 518 1, f 1;
#X msg 203 518 2, f 1;
#X msg 232 518 3, f 1;
#X msg 261 518 4, f 1;
#X msg 291 518 5, f 1;
#X obj 174 573 unpack f f f f f, f 20;
#X msg 174 598 1, f 1;
#X msg 203 598 2, f 1;
#X msg 232 598 3, f 1;
#X msg 261 598 4, f 1;
#X msg 291 598 5, f 1;
#X obj 174 663 unpack f f f f f, f 20;
#X msg 174 688 1, f 1;
#X msg 203 688 2, f 1;
#X msg 232 688 3, f 1;
#X msg 261 688 4, f 1;
#X msg 291 688 5, f 1;
#X obj 174 753 unpack f f f f f, f 20;
#X msg 174 778 1, f 1;
#X msg 203 778 2, f 1;
#X msg 232 778 3, f 1;
#X msg 261 778 4, f 1;
#X msg 291 778 5, f 1;
#X obj 174 833 unpack f f f f f, f 20;
#X msg 174 858 1, f 1;
#X msg 203 858 2, f 1;
#X msg 232 858 3, f 1;
#X msg 261 858 4, f 1;
#X msg 291 858 5, f 1;
#X obj 1259 49 unpack f f f f f, f 20;
#X msg 1259 84 1, f 1;
#X msg 1288 84 2, f 1;
#X msg 1317 84 3, f 1;
#X msg 1346 84 4, f 1;
#X msg 1376 84 5, f 1;
#X obj 1259 129 unpack f f f f f, f 20;
#X msg 1259 164 1, f 1;
#X msg 1288 164 2, f 1;
#X msg 1317 164 3, f 1;
#X msg 1346 164 4, f 1;
#X msg 1376 164 5, f 1;
#X obj 1259 219 unpack f f f f f, f 20;
#X msg 1259 254 1, f 1;
#X msg 1288 254 2, f 1;
#X msg 1317 254 3, f 1;
#X msg 1346 254 4, f 1;
#X msg 1376 254 5, f 1;
#X obj 1259 309 unpack f f f f f, f 20;
#X msg 1259 344 1, f 1;
#X msg 1288 344 2, f 1;
#X msg 1317 344 3, f 1;
#X msg 1346 344 4, f 1;
#X msg 1376 344 5, f 1;
#X obj 1259 389 unpack f f f f f, f 20;
#X msg 1259 424 1, f 1;
#X msg 1288 424 2, f 1;
#X msg 1317 424 3, f 1;
#X msg 1346 424 4, f 1;
#X msg 1376 424 5, f 1;
#X obj 1419 49 unpack f f f f f, f 20;
#X msg 1419 84 1, f 1;
#X msg 1448 84 2, f 1;
#X msg 1477 84 3, f 1;
#X msg 1506 84 4, f 1;
#X msg 1536 84 5, f 1;
#X obj 1419 129 unpack f f f f f, f 20;
#X msg 1419 164 1, f 1;
#X msg 1448 164 2, f 1;
#X msg 1477 164 3, f 1;
#X msg 1506 164 4, f 1;
#X msg 1536 164 5, f 1;
#X obj 1419 219 unpack f f f f f, f 20;
#X msg 1419 254 1, f 1;
#X msg 1448 254 2, f 1;
#X msg 1477 254 3, f 1;
#X msg 1506 254 4, f 1;
#X msg 1536 254 5, f 1;
#X obj 1419 309 unpack f f f f f, f 20;
#X msg 1419 344 1, f 1;
#X msg 1448 344 2, f 1;
#X msg 1477 344 3, f 1;
#X msg 1506 344 4, f 1;
#X msg 1536 344 5, f 1;
#X obj 1419 389 unpack f f f f f, f 20;
#X msg 1419 424 1, f 1;
#X msg 1448 424 2, f 1;
#X msg 1477 424 3, f 1;
#X msg 1506 424 4, f 1;
#X msg 1536 424 5, f 1;
#X text 574 25 *;
#X text 574 105 *;
#X text 574 195 *;
#X text 574 285 *;
#X text 574 365 *;
#X text 754 25 *;
#X text 754 105 *;
#X text 754 195 *;
#X text 754 285 *;
#X text 754 365 *;
#X text 796 25 *;
#X text 796 105 *;
#X text 796 195 *;
#X text 796 285 *;
#X text 796 365 *;
#X text 976 25 *;
#X text 976 105 *;
#X text 976 195 *;
#X text 976 285 *;
#X text 976 365 *;
#X text 1166 25 *;
#X text 1166 105 *;
#X text 1166 195 *;
#X text 1166 285 *;
#X text 1166 365 *;
#X text 1346 25 *;
#X text 1346 105 *;
#X text 1346 195 *;
#X text 1346 285 *;
#X text 1346 365 *;
#X text 1526 25 *;
#X text 1526 105 *;
#X text 1526 195 *;
#X text 1526 285 *;
#X text 1526 365 *;
#X connect 0 0 4 1;
#X connect 1 0 4 2;
#X connect 2 0 4 0;
#X connect 3 0 4 3;
#X connect 5 0 4 4;
#X connect 6 0 10 1;
#X connect 7 0 10 2;
#X connect 8 0 10 3;
#X connect 9 0 10 4;
#X connect 16 0 20 1;
#X connect 17 0 20 0;
#X connect 18 0 20 2;
#X connect 19 0 20 3;
#X connect 21 0 20 4;
#X connect 22 0 26 2;
#X connect 23 0 26 1;
#X connect 24 0 26 3;
#X connect 25 0 26 4;
#X connect 29 0 33 3;
#X connect 30 0 33 2;
#X connect 31 0 33 4;
#X connect 36 0 40 4;
#X connect 37 0 40 3;
#X connect 44 0 47 4;
#X connect 50 0 54 0;
#X connect 51 0 54 1;
#X connect 52 0 54 2;
#X connect 53 0 54 3;
#X connect 55 0 54 4;
#X connect 56 0 60 1;
#X connect 57 0 60 2;
#X connect 58 0 60 3;
#X connect 59 0 60 4;
#X connect 62 0 66 2;
#X connect 63 0 66 3;
#X connect 64 0 66 4;
#X connect 68 0 72 3;
#X connect 69 0 72 4;
#X connect 74 0 78 4;
#X connect 80 0 84 1;
#X connect 81 0 84 2;
#X connect 82 0 84 0;
#X connect 83 0 84 3;
#X connect 85 0 84 4;
#X connect 86 0 90 2;
#X connect 87 0 90 3;
#X connect 88 0 90 1;
#X connect 89 0 90 4;
#X connect 92 0 96 3;
#X connect 93 0 96 4;
#X connect 94 0 96 2;
#X connect 98 0 102 4;
#X connect 100 0 102 3;
#X connect 106 0 108 4;
#X connect 116 0 120 1;
#X connect 117 0 120 2;
#X connect 118 0 120 3;
#X connect 119 0 120 0;
#X connect 121 0 120 4;
#X connect 122 0 126 2;
#X connect 123 0 126 3;
#X connect 124 0 126 4;
#X connect 125 0 126 1;
#X connect 128 0 132 3;
#X connect 129 0 132 4;
#X connect 131 0 132 2;
#X connect 134 0 138 4;
#X connect 137 0 138 3;
#X connect 143 0 144 4;
#X connect 146 0 150 1;
#X connect 147 0 150 2;
#X connect 148 0 150 3;
#X connect 149 0 150 4;
#X connect 151 0 150 0;
#X connect 152 0 156 2;
#X connect 153 0 156 3;
#X connect 154 0 156 4;
#X connect 157 0 156 1;
#X connect 158 0 162 3;
#X connect 159 0 162 4;
#X connect 163 0 162 2;
#X connect 164 0 168 4;
#X connect 169 0 168 3;
#X connect 175 0 174 4;
#X connect 211 0 212 0;
#X connect 211 1 213 0;
#X connect 211 2 214 0;
#X connect 211 3 215 0;
#X connect 211 4 216 0;
#X connect 217 0 219 0;
#X connect 217 1 218 0;
#X connect 217 2 220 0;
#X connect 217 3 221 0;
#X connect 217 4 222 0;
#X connect 223 0 226 0;
#X connect 223 1 224 0;
#X connect 223 2 225 0;
#X connect 223 3 227 0;
#X connect 223 4 228 0;
#X connect 229 0 233 0;
#X connect 229 1 230 0;
#X connect 229 2 231 0;
#X connect 229 3 232 0;
#X connect 229 4 234 0;
#X connect 235 0 240 0;
#X connect 235 1 236 0;
#X connect 235 2 237 0;
#X connect 235 3 238 0;
#X connect 235 4 239 0;
#X connect 241 1 242 0;
#X connect 241 2 243 0;
#X connect 241 3 244 0;
#X connect 241 4 245 0;
#X connect 247 1 249 0;
#X connect 247 2 248 0;
#X connect 247 3 250 0;
#X connect 247 4 251 0;
#X connect 253 1 256 0;
#X connect 253 2 254 0;
#X connect 253 3 255 0;
#X connect 253 4 257 0;
#X connect 259 1 263 0;
#X connect 259 2 260 0;
#X connect 259 3 261 0;
#X connect 259 4 262 0;
#X connect 265 1 270 0;
#X connect 265 2 266 0;
#X connect 265 3 267 0;
#X connect 265 4 268 0;
#X connect 271 2 272 0;
#X connect 271 3 273 0;
#X connect 271 4 274 0;
#X connect 277 2 279 0;
#X connect 277 3 278 0;
#X connect 277 4 280 0;
#X connect 283 2 286 0;
#X connect 283 3 284 0;
#X connect 283 4 285 0;
#X connect 289 2 293 0;
#X connect 289 3 290 0;
#X connect 289 4 291 0;
#X connect 295 2 300 0;
#X connect 295 3 296 0;
#X connect 295 4 297 0;
#X connect 331 3 332 0;
#X connect 331 4 333 0;
#X connect 337 3 339 0;
#X connect 337 4 338 0;
#X connect 343 3 346 0;
#X connect 343 4 344 0;
#X connect 349 3 353 0;
#X connect 349 4 350 0;
#X connect 355 3 360 0;
#X connect 355 4 356 0;
#X connect 361 4 362 0;
#X connect 367 4 369 0;
#X connect 373 4 376 0;
#X connect 379 4 383 0;
#X connect 385 4 390 0;
#X restore 919 939 pd all-shift-drag-behaviors;
#X obj 11 2058 cnv 9 1250 9 empty empty OBJECTS\ INTO\ AND\ OUT\ OF\ DATA\ FLOW 8 24 0 24 #0eb8e6 #000000 0;
#X obj 11 2108 cnv 2 1250 1 empty empty INTO\ DATA\ FLOW 8 12 0 18 #202020 #000000 0;
#X floatatom 39 2189 5 0 0 0 - - - 12;
#X floatatom 39 2259 5 0 0 0 - - - 12;
#X obj 83 2217 + 1;
#X floatatom 205 2191 5 0 0 0 - - - 12;
#X floatatom 205 2261 5 0 0 0 - - - 12;
#X obj 249 2219 + 1;
#X text 139 2218 ->;
#X floatatom 395 2191 5 0 0 0 - - - 12;
#X floatatom 395 2261 5 0 0 0 - - - 12;
#X obj 439 2219 + 1;
#X text 495 2220 ->;
#X floatatom 525 2191 5 0 0 0 - - - 12;
#X floatatom 525 2261 5 0 0 0 - - - 12;
#X obj 526 2219 + 1;
#X floatatom 38 2461 5 0 0 0 - - - 12;
#X floatatom 38 2531 5 0 0 0 - - - 12;
#X obj 39 2489 + 1;
#X floatatom 158 2461 5 0 0 0 - - - 12;
#X floatatom 158 2531 5 0 0 0 - - - 12;
#X obj 159 2489 + 1;
#X text 109 2488 ->;
#X floatatom 399 2459 5 0 0 0 - - - 12;
#X floatatom 399 2529 5 0 0 0 - - - 12;
#X obj 400 2487 + 1;
#X text 470 2486 ->;
#X floatatom 518 2461 5 0 0 0 - - - 12;
#X floatatom 518 2531 5 0 0 0 - - - 12;
#X obj 539 2491 + 1;
#X text 19 2138 Description tbd, f 118;
#X obj 11 2368 cnv 2 1250 1 empty empty OUT\ OF\ DATA\ FLOW 8 12 0 18 #202020 #000000 0;
#X floatatom 777 2480 5 0 0 0 - - - 12;
#X floatatom 835 2476 5 0 0 0 - - - 12;
#X obj 786 2428 t f f;
#X text 793 1925 TO ADD;
#X text 749 1948 - triggerize will add an empty trigger between two control objects;
#X text 749 1968 - triggerize will add an empty signal subpatch between two signal objects;
#X text 749 1998 - triggerize will add an outlet to the left of a trigger that has both outlets connected;
#X text 749 2028 - triggerize will remove a non-connected outlet from a trigger object;
#X connect 0 0 1 0;
#X connect 0 0 2 0;
#X connect 0 0 3 0;
#X connect 0 0 4 0;
#X connect 5 0 8 0;
#X connect 6 0 8 0;
#X connect 7 0 8 0;
#X connect 18 0 19 0;
#X connect 18 1 19 1;
#X connect 18 2 19 2;
#X connect 18 3 19 3;
#X connect 24 0 23 0;
#X connect 24 1 23 1;
#X connect 24 2 23 2;
#X connect 28 0 29 0;
#X connect 28 1 29 1;
#X connect 28 2 29 2;
#X connect 34 0 35 0;
#X connect 34 1 35 1;
#X connect 34 2 35 2;
#X connect 34 3 35 3;
#X connect 38 0 39 0;
#X connect 40 0 41 0;
#X connect 40 1 41 1;
#X connect 40 2 41 2;
#X connect 40 3 41 3;
#X connect 45 0 44 0;
#X connect 47 0 46 0;
#X connect 47 1 46 1;
#X connect 47 2 46 2;
#X connect 49 0 50 0;
#X connect 51 0 52 0;
#X connect 51 1 52 1;
#X connect 51 2 52 2;
#X connect 54 1 55 0;
#X connect 56 1 57 0;
#X connect 56 2 57 1;
#X connect 56 3 57 2;
#X connect 59 1 60 1;
#X connect 61 1 62 1;
#X connect 61 2 62 2;
#X connect 61 3 62 3;
#X connect 64 2 65 0;
#X connect 66 2 67 0;
#X connect 66 3 67 1;
#X connect 69 0 70 1;
#X connect 71 0 72 1;
#X connect 71 1 72 2;
#X connect 71 2 72 3;
#X connect 77 1 78 0;
#X connect 77 2 78 1;
#X connect 77 3 78 2;
#X connect 85 0 89 0;
#X connect 86 0 89 1;
#X connect 87 0 89 2;
#X connect 88 0 89 3;
#X connect 90 0 91 0;
#X connect 90 1 92 0;
#X connect 90 2 93 0;
#X connect 104 0 108 1;
#X connect 105 0 108 0;
#X connect 106 0 108 2;
#X connect 107 0 108 3;
#X connect 113 0 110 0;
#X connect 113 1 109 0;
#X connect 113 2 111 0;
#X connect 113 3 114 0;
#X connect 125 0 124 0;
#X connect 125 1 124 1;
#X connect 125 2 124 2;
#X connect 129 0 130 0;
#X connect 129 1 130 1;
#X connect 129 2 130 2;
#X connect 134 1 135 1;
#X connect 134 2 135 2;
#X connect 134 3 135 3;
#X connect 139 1 140 2;
#X connect 139 2 140 3;
#X connect 147 0 151 0;
#X connect 148 0 151 1;
#X connect 149 0 151 2;
#X connect 163 0 166 0;
#X connect 164 0 166 1;
#X connect 165 0 166 2;
#X connect 171 0 168 0;
#X connect 171 1 169 0;
#X connect 171 2 170 0;
#X connect 180 0 177 0;
#X connect 180 1 178 0;
#X connect 185 1 182 0;
#X connect 185 2 183 0;
#X connect 196 0 200 1;
#X connect 197 0 200 2;
#X connect 198 0 200 3;
#X connect 209 0 213 1;
#X connect 210 0 213 2;
#X connect 211 0 213 0;
#X connect 212 0 213 3;
#X connect 218 0 216 0;
#X connect 218 1 214 0;
#X connect 218 2 215 0;
#X connect 218 3 219 0;
#X connect 230 0 236 2;
#X connect 231 0 236 1;
#X connect 232 0 236 3;
#X connect 233 0 236 4;
#X connect 242 0 247 3;
#X connect 243 0 247 2;
#X connect 244 0 247 4;
#X connect 253 1 250 0;
#X connect 253 2 249 0;
#X connect 253 3 251 0;
#X connect 270 1 262 0;
#X connect 270 2 260 0;
#X connect 270 3 261 0;
#X connect 270 4 264 0;
#X connect 271 0 275 0;
#X connect 271 0 274 0;
#X connect 271 0 273 0;
#X connect 271 0 272 0;
#X connect 276 0 282 0;
#X connect 282 0 277 0;
#X connect 282 1 278 0;
#X connect 282 2 279 0;
#X connect 282 3 280 0;
#X connect 303 0 305 0;
#X connect 303 0 304 0;
#X connect 303 0 306 0;
#X connect 308 0 312 0;
#X connect 312 0 311 0;
#X connect 312 1 309 0;
#X connect 312 2 310 0;
#X connect 323 0 324 0;
#X connect 326 0 328 0;
#X connect 328 0 327 0;
#X connect 330 0 331 0;
#X connect 334 0 336 0;
#X connect 336 0 335 0;
#X connect 337 0 339 0;
#X connect 339 0 338 0;
#X connect 340 0 341 0;
#X connect 344 0 346 0;
#X connect 346 0 345 0;
#X connect 348 0 349 0;
#X connect 355 0 353 0;
#X connect 355 1 354 0;
