#N canvas 39 38 1313 815 10;
#X declare -path templates;
#X obj 7 18 01-ABSTR-GOP-TEMPLATE-1x1;
#X obj 320 1426 tdh.util.audioOut~;
#X text 28 171 1x1;
#X obj 8 199 01-ABSTR-GOP-TEMPLATE-1x2;
#X obj 135 18 01-ABSTR-GOP-TEMPLATE-2x1;
#X text 32 508 1x2;
#X text 208 177 2x1;
#X obj 132 201 01-ABSTR-GOP-TEMPLATE-2x2;
#X text 196 512 2x2;
#X obj 351 19 01-ABSTR-GOP-TEMPLATE-3x1;
#X obj 351 196 01-ABSTR-GOP-TEMPLATE-3x2;
#X obj 347 518 01-ABSTR-GOP-TEMPLATE-3x3;
#X obj 1711 260 tdh.util.4chmixer~;
#X obj 419 1114 tdh.synth.1oscil.ui~;
#A saved 4 7 3349.75 2.66193 70.3704 100 326.531 1;
#X obj 1193 1426 tdh.util.clock.ui;
#X obj 1589 2315 bng 16 250 50 0 empty empty empty 0 -8 0 10 #fcfcfc #000000 #000000;
#X obj 625 1113 tdh.util.clockdiv.ui;
#X text 455 983 3x3;
#X obj 1100 220 01-ABSTR-GOP-TEMPLATE-5x2;
#X text 465 497 3x2;
#X text 490 173 3x1;
#X obj 1139 25 01-ABSTR-GOP-TEMPLATE-5x1;
#X obj 681 196 01-ABSTR-GOP-TEMPLATE-4x2;
#X text 828 503 4x2;
#X text 1292 510 5x2;
#X obj 1916 764 tdh.util.meter~;
#X obj 1853 767 tdh.util.meter~;
#X obj 95 1113 tdh.seq.gesture;
#X obj 1307 1426 tdh.sigproc.freeze.ui~;
#X obj 753 1115 tdh.sigproc.granulate.ui~;
#A saved 0 0 0 0 0 0 0 0 0 0 0 -1 1 0 0;
#X obj 851 5 declare -path templates;
#X obj 95 1426 tdh.sigproc.mmfilt.ui~;
#X obj 433 1426 tdh.util.audioIn.ui~;
#X obj 544 1426 tdh.util.audioInUtility.ui~;
#X obj 664 1426 tdh.sigproc.delay.ui~;
#A saved 183 0.460317 0 0 0 0 1;
#X obj 881 1426 tdh.util.audiofileSm.ui~;
#X obj 1081 1113 tdh.util.audioFile.ui~;
#X obj 92 1591 tdh.seq.stepSequencer.ui;
#X obj 1591 1113 tdh.util.4chmixer~;
#X obj 1419 1426 tdh.util.recorder.ui~;
#X obj 2100 1112 tdh.util.channelstripMn~;
