#N canvas 1213 -423 2560 1387 10;
#X obj 1800 1161 tdh.util.audioOut~;
#X obj 1443 825 tdh.util.4chMixer~;
#X obj 30 7 tdh.util.audioIn~;
#X obj 1443 1095 throw~ \$0-outL;
#X obj 1880 1095 throw~ \$0-outR;
#X obj 1800 1123 catch~ \$0-outL;
#X obj 1831 1142 catch~ \$0-outR;
#X floatatom 997 278 5 0 0 0 - - - 0;
#X floatatom 1062 272 5 0 0 0 - - - 0;
#X floatatom 1130 275 5 0 0 0 - - - 0;
#X floatatom 1185 274 5 0 0 0 - - - 0;
#X floatatom 1250 268 5 0 0 0 - - - 0;
#X floatatom 1318 271 5 0 0 0 - - - 0;
#X obj 709 693 tdh.synth.1oscil~;
#A saved 1 4 261.626 0 0 0 0 0;
#X connect 1 0 3 0;
#X connect 1 1 4 0;
#X connect 5 0 0 0;
#X connect 6 0 0 1;
