#N canvas 1724 -112 2560 1387 10;
#X declare -path templates;
#X obj 7 18 01-ABSTR-GOP-TEMPLATE-1x1;
#X obj 235 1429 tdh.util.audioOut~;
#X text 28 171 1x1;
#X obj 8 199 01-ABSTR-GOP-TEMPLATE-1x2;
#X obj 135 18 01-ABSTR-GOP-TEMPLATE-2x1;
#X text 32 508 1x2;
#X text 208 177 2x1;
#X obj 132 201 01-ABSTR-GOP-TEMPLATE-2x2;
#X text 196 512 2x2;
#X obj 351 19 01-ABSTR-GOP-TEMPLATE-3x1;
#X obj 351 196 01-ABSTR-GOP-TEMPLATE-3x2;
#X obj 347 518 01-ABSTR-GOP-TEMPLATE-3x3;
#X obj 1711 260 tdh.util.4chmixer~;
#X obj 329 1114 tdh.synth.1oscil.ui~;
#A saved 7 9 15804.3 100 55.5556 61.1111 244.898 1;
#X obj 1103 1426 tdh.util.clock.ui;
#X obj 825 1113 tdh.util.clockdiv.ui;
#X text 455 983 3x3;
#X obj 1102 197 01-ABSTR-GOP-TEMPLATE-5x2;
#X text 465 497 3x2;
#X text 490 173 3x1;
#X obj 1139 25 01-ABSTR-GOP-TEMPLATE-5x1;
#X obj 681 196 01-ABSTR-GOP-TEMPLATE-4x2;
#X text 828 503 4x2;
#X text 1293 533 5x2;
#X obj 1916 764 tdh.util.meter~;
#X obj 1853 767 tdh.util.meter~;
#X obj 5 1113 tdh.seq.gesture;
#A saved 1 2 3 4 0 5 6 7 8 0 9 10 11 12 0 13 14 3 16 1 1;
#X obj 1217 1426 tdh.sigproc.freeze.ui~;
#X obj 953 1115 tdh.sigproc.granulate.ui~;
#A saved 0 29 30 3.3 4.7 29 20 34 36 21 21 -0.62 0.59 66.6423 1;
#X obj 851 5 declare -path templates;
#X obj 10 1429 tdh.sigproc.mmfilt.ui~;
#X obj 348 1429 tdh.util.audioIn.ui~;
#X obj 459 1429 tdh.util.audioInUtility.ui~;
#X obj 579 1429 tdh.sigproc.delay.ui~;
#A saved 183 0.460317 0 0 0 0 1;
#X obj 1281 1113 tdh.util.audioFile.ui~;
#X obj 2 1591 tdh.seq.stepSequencer.ui;
#X obj 1791 1113 tdh.util.4chmixer~;
#X obj 1329 1426 tdh.util.recorder.ui~;
#X obj 2300 1112 tdh.util.channelstripMn~;
#X obj 2409 1112 tdh.util.channelStripSt~;
#X obj 737 1593 tdh.util.dataTable;
#X floatatom 1105 1901 5 0 0 0 - - - 0;
#X obj 1158 1617 tdh.util.slewData;
#X floatatom 1157 1751 5 0 0 0 - - - 0;
#X floatatom 1294 1595 5 0 0 0 - - - 0;
#X floatatom 1297 1800 5 0 0 0 - - - 0;
#X msg 1331 1595 myRemote;
#X msg 1298 1699 myRemote;
#X obj 1549 1595 osc~ 440;
#X obj 1294 1616 tdh.util.remoteControlSend;
#X obj 1297 1720 tdh.util.remoteControlReceive;
#X text 2461 2134 comment;
#X obj 1550 1616 tdh.util.remoteSignalSend;
#X msg 1412 1595 symbol remoteCtrl;
#X msg 1384 1699 symbol remoteCtrl;
#X msg 1668 1594 symbol remoteSig;
#X msg 1605 1595 mySig;
#X obj 1550 1720 tdh.util.remoteSignalReceive;
#X msg 1613 1699 symbol remoteSig;
#X msg 1550 1699 mySig;
#X obj 557 1112 tdh.synth.lfoscil~;
#A saved 6 7 30.8677 100 100 100 332.659 0 1;
#X obj 2162 1747 tdh.util.audioOutSm~;
#X obj 1996 1479 tdh.util.audioFileSm.ui2~;
#A saved 1 0 3248.83 100 /Users/houldcroftt/Library/CloudStorage/OneDrive-EasternConnecticutStateUniversity/00\ TDH\ DOC/MaxMSP/Pd/tdh-Pd.Library/tdh.pd-abstr/tdh.lib.dependencies/bell.aiff 0 0 1;
#X obj 1363 1944 bng 25 250 50 0 empty empty empty 17 7 0 10 #e4e4e4 #4d4d4d #373737;
#X obj 789 1429 tdh.math.random.ui;
#A saved 10 22 1 616.553 1;
#X connect 40 0 41 0;
#X connect 41 0 42 0;
#X connect 42 0 43 0;
#X connect 44 0 49 0;
#X connect 46 0 49 1;
#X connect 47 0 50 0;
#X connect 48 0 52 0;
#X connect 50 0 45 0;
#X connect 53 0 49 1;
#X connect 54 0 50 0;
#X connect 55 0 52 1;
#X connect 56 0 52 1;
#X connect 58 0 57 0;
#X connect 59 0 57 0;
#X connect 62 0 61 0;
#X connect 62 1 61 1;
