#N canvas 345 143 715 631 12;
#N canvas 102 101 450 300 box 1;
#X coords 0 0 1 1 621 251 2 0 0;
#X restore 9 59 pd box;
#N canvas 131 130 450 300 box 1;
#X coords 0 0 1 1 621 241 2 0 0;
#X restore 9 369 pd box;
#N canvas 160 159 450 300 box 1;
#X coords 0 0 1 1 621 41 2 0 0;
#X restore 9 319 pd box;
#X obj 9 9 cnv 15 631 41 empty empty TDH.LIB\ GUIDE 2 20 0 32 #cecece #373737 0;
#N canvas 0 22 450 300 tdh.ac 1;
#X obj 9 9 cnv 15 500 40 empty empty TDH.LIB\ -\ ALGORITHMIC\ COMPOSITION 2 20 0 32 #b7b7b7 #373737 0;
#X obj 34 429 tdh.lib/tdh.ac.eventCreation;
#X text 49 398 tdh.ac.eventCreation.ui;
#X obj 19 99 tdh.ac.eventCreation.ui;
#A saved 0 0 0 0 0;
#X obj 309 99 tdh.lib/tdh.ac.euclidianRhythm.ui;
#A saved 0 0 0 0;
#X text 269 258 tdh.lib/tdh.ac.euclidianRhythm.ui;
#X obj 279 289 tdh.lib/tdh.ac.euclidianRhythm;
#A saved 0 0 0 0;
#X restore 19 399 pd tdh.ac;
#N canvas 0 22 450 300 tdh.ctrl 0;
#X obj 9 9 cnv 15 500 40 empty empty TDH.LIB\ -\ CONTROLLER\ MODULES 2 20 0 32 #b7b7b7 #373737 0;
#X obj 29 89 tdh.lib/tdh.ctrl.button.ui;
#A saved 0 0;
#X text 29 238 tdh.ctrl.button.ui;
#X obj 209 89 tdh.lib/tdh.ctrl.slider.ui;
#A saved 0 0 100 0 0;
#X text 189 238 tdh.ctrl.slider.ui;
#X restore 19 459 pd tdh.ctrl;
#N canvas 0 22 450 300 tdh.math 0;
#X obj 9 9 cnv 15 500 40 empty empty TDH.LIB\ -\ MATHEMATICS 2 20 0 32 #b7b7b7 #373737 0;
#N canvas 0 22 450 300 tdh.math-all 0;
#N canvas 0 22 450 300 box1 0;
#X coords 0 0 1 1 491 941 2 0 0;
#X restore 9 59 pd box1;
#N canvas 0 22 450 300 box1 0;
#X coords 0 0 1 1 491 941 2 0 0;
#X restore 509 59 pd box1;
#X obj 19 69 tdh.lib/tdh.math.bpm2ms;
#X obj 19 129 tdh.lib/tdh.math.cartopol~;
#X obj 19 189 tdh.lib/tdh.math.dbfs2lin;
#X obj 19 249 tdh.lib/tdh.math.divide.ui;
#A saved 0 1;
#X obj 21 337 tdh.lib/tdh.math.fftNorm~;
#X obj 19 369 tdh.lib/tdh.math.float.ui;
#A saved 0 0;
#X obj 19 449 tdh.lib/tdh.math.freq2midi.ui;
#X obj 19 529 tdh.lib/tdh.math.lin2dbfs;
#X obj 19 159 tdh.lib/tdh.math.db2dbfs;
#X obj 9 9 cnv 15 991 41 empty empty TDH.LIB\ -\ MATHEMATICS\ -\ ALL 2 20 0 32 #b7b7b7 #373737 0;
#X obj 19 559 tdh.lib/tdh.math.midi2freq.ui;
#X obj 20 648 tdh.lib/tdh.math.minus.ui;
#A saved 0 1;
#X text 86 667 tdh.lib/tdh.math.minus.ui;
#X obj 19 739 tdh.lib/tdh.math.ms2bpm;
#X obj 19 799 tdh.lib/tdh.math.ms2samp~;
#X obj 19 829 tdh.lib/tdh.math.msbpm2notedur;
#X obj 19 859 tdh.lib/tdh.math.multiply.ui;
#A saved 0 1;
#X text 71 876 tdh.lib/tdh.math.multiply.ui;
#X obj 19 949 tdh.lib/tdh.math.pitchFreqConversions;
#X obj 529 69 tdh.lib/tdh.math.plus.ui;
#A saved 0 1;
#X text 599 88 tdh.lib/tdh.math.plus.ui;
#X obj 525 152 tdh.lib/tdh.math.probabilityTable.ui;
#A saved 50 30 20 10 5 0 0 0 5 0;
#X text 745 271 tdh.lib/tdh.math.probabilityTable.ui;
#X obj 525 472 tdh.lib/tdh.math.randomDistributions.ui;
#A saved 0 0 0 10 0 0;
#X text 745 531 tdh.lib/tdh.math.randomDistributions.ui;
#X obj 529 629 tdh.lib/tdh.math.samp2ms~;
#X obj 529 659 tdh.lib/tdh.math.scale;
#X obj 529 689 tdh.lib/tdh.math.scale.ui;
#A saved 0 0 0 0 0;
#X text 649 718 tdh.lib/tdh.math.scale.ui;
#X obj 529 849 tdh.lib/tdh.math.timeConversions;
#X obj 529 879 tdh.lib/tdh.math.valueClamp;
#X obj 529 909 tdh.lib/tdh.math.valueClamp.ui;
#A saved 0 0 0;
#X text 130 388 tdh.lib/tdh.math.float.ui;
#X text 136 467 tdh.lib/tdh.math.freq2midi.ui;
#X text 126 587 tdh.lib/tdh.math.midi2freq.ui;
#X text 94 269 tdh.lib/tdh.math.divide.ui;
#X obj 19 99 tdh.lib/tdh.math.bpm2bps;
#X obj 19 769 tdh.lib/tdh.math.ms2bps;
#X obj 19 219 tdh.lib/tdh.math.dbfs2db;
#X text 739 928 tdh.lib/tdh.math.valueClamp.ui;
#X restore 19 89 pd tdh.math-all;
#N canvas 0 22 450 300 tdh.math-timeConversions 0;
#X obj 19 69 tdh.lib/tdh.math.bpm2ms;
#X obj 9 9 cnv 15 991 41 empty empty TDH.LIB\ -\ MATHEMATICS\ -\ TIME\ CONVERSIONS 2 20 0 32 #b7b7b7 #373737 0;
#X obj 19 129 tdh.lib/tdh.math.ms2bpm;
#X obj 19 189 tdh.lib/tdh.math.ms2samp~;
#X obj 19 279 tdh.lib/tdh.math.msbpm2notedur;
#X obj 19 219 tdh.lib/tdh.math.samp2ms~;
#X obj 19 249 tdh.lib/tdh.math.timeConversions;
#X obj 19 99 tdh.lib/tdh.math.bpm2bps;
#X obj 19 159 tdh.lib/tdh.math.ms2bps;
#X restore 19 169 pd tdh.math-timeConversions;
#N canvas 0 22 450 300 tdh.math-pitchConversions 0;
#X obj 9 9 cnv 15 991 41 empty empty TDH.LIB\ -\ MATHEMATICS\ -\ ALL 2 20 0 32 #b7b7b7 #373737 0;
#X obj 19 239 tdh.lib/tdh.math.pitchFreqConversions;
#X obj 19 59 tdh.lib/tdh.math.freq2midi.ui;
#X obj 19 149 tdh.lib/tdh.math.midi2freq.ui;
#X text 139 78 tdh.lib/tdh.math.freq2midi.ui;
#X text 129 178 tdh.lib/tdh.math.midi2freq.ui;
#X restore 19 199 pd tdh.math-pitchConversions;
#N canvas 0 22 450 300 tdh.math-fftTools 0;
#X obj 9 69 tdh.lib/tdh.math.cartopol~;
#X obj 9 99 tdh.lib/tdh.math.fftNorm~;
#X obj 9 9 cnv 15 991 41 empty empty TDH.LIB\ -\ MATHEMATICS\ -\ FFT\ TOOLS 2 20 0 32 #b7b7b7 #373737 0;
#X restore 19 319 pd tdh.math-fftTools;
#N canvas 0 22 450 300 tdh.math-mathOperators 0;
#X obj 29 339 tdh.lib/tdh.math.divide.ui;
#A saved 0 1;
#X obj 29 429 tdh.lib/tdh.math.float.ui;
#A saved 0 0;
#X obj 9 9 cnv 15 991 41 empty empty TDH.LIB\ -\ MATHEMATICS\ -\ OPERATORS 2 20 0 32 #b7b7b7 #373737 0;
#X obj 29 159 tdh.lib/tdh.math.minus.ui;
#A saved 0 1;
#X text 95 178 tdh.lib/tdh.math.minus.ui;
#X obj 29 249 tdh.lib/tdh.math.multiply.ui;
#A saved 0 1;
#X text 86 267 tdh.lib/tdh.math.multiply.ui;
#X obj 29 69 tdh.lib/tdh.math.plus.ui;
#A saved 0 1;
#X text 99 88 tdh.lib/tdh.math.plus.ui;
#X text 143 449 tdh.lib/tdh.math.float.ui;
#X text 99 358 tdh.lib/tdh.math.divide.ui;
#X restore 19 139 pd tdh.math-mathOperators;
#N canvas 0 22 450 300 tdh.math-probabilityAndRandom 0;
#X obj 9 9 cnv 15 991 41 empty empty TDH.LIB\ -\ MATHEMATICS\ -\ PROBABILITY\ AND\ RANDOM 2 20 0 32 #b7b7b7 #373737 0;
#X obj 19 59 tdh.lib/tdh.math.probabilityTable.ui;
#A saved 50 30 20 10 5 0 0 0 5 0;
#X text 239 178 tdh.lib/tdh.math.probabilityTable.ui;
#X obj 19 369 tdh.lib/tdh.math.randomDistributions.ui;
#A saved 0 0 0 10 0 0;
#X text 239 428 tdh.lib/tdh.math.randomDistributions.ui;
#X restore 19 289 pd tdh.math-probabilityAndRandom;
#N canvas 0 22 450 300 tdh.math-gainAndVolumeConversions 0;
#X obj 19 69 tdh.lib/tdh.math.dbfs2lin;
#X obj 19 129 tdh.lib/tdh.math.lin2dbfs;
#X obj 9 9 cnv 15 991 41 empty empty TDH.LIB\ -\ MATHEMATICS\ -\ GAIN\ AND\ VOLUME\ UNIT\ CONVERSIONS 2 20 0 32 #b7b7b7 #373737 0;
#X obj 19 99 tdh.lib/tdh.math.dbfs2db;
#X restore 19 229 pd tdh.math-gainAndVolumeConversions;
#N canvas 0 22 450 300 tdh.math-scalingAndRange 0;
#X obj 9 9 cnv 15 991 41 empty empty TDH.LIB\ -\ MATHEMATICS\ -\ SCALING\ AND\ RANGE 2 20 0 32 #b7b7b7 #373737 0;
#X obj 9 69 tdh.lib/tdh.math.scale;
#X obj 9 99 tdh.lib/tdh.math.scale.ui;
#A saved 0 0 0 0 0;
#X text 129 128 tdh.lib/tdh.math.scale.ui;
#X obj 9 269 tdh.lib/tdh.math.valueClamp;
#X obj 9 299 tdh.lib/tdh.math.valueClamp.ui;
#A saved 0 0 0;
#X text 229 314 tdh.lib/tdh.math.valueClamp.ui;
#X restore 19 259 pd tdh.math-scalingAndRange;
#X obj 19 69 cnv 10 10 10 empty empty All\ Objects\ Alphabetic 0 6 0 16 #ffffff #373737 0;
#X obj 19 119 cnv 10 10 10 empty empty Categories 0 6 0 16 #ffffff #373737 0;
#X restore 19 519 pd tdh.math;
#N canvas 0 22 450 300 tdh.midi 0;
#X obj 9 9 cnv 15 500 40 empty empty TDH.LIB\ -\ MIDI 2 20 0 32 #b7b7b7 #373737 0;
#X obj 19 59 tdh.lib/tdh.midi.makeNote.ui;
#A saved 0 0 0 0;
#X text 139 100 tdh.lib/tdh.midi.makeNote;
#X restore 19 579 pd tdh.midi;
#N canvas 0 22 450 300 tdh.seq 0;
#X obj 9 9 cnv 15 500 40 empty empty TDH.LIB\ -\ EVENT\ SEQUENCING 2 20 0 32 #b7b7b7 #373737 0;
#X obj 9 59 tdh.lib/tdh.seq.gesture.ui;
#A saved 0 0 0 0 0 0 0 0 0 0 0 0 0 0 0 0 0 0 0 0 0;
#X obj 9 369 tdh.lib/tdh.seq.row.ui;
#A saved 0 0 0 0 0 0 0 0;
#X text 219 418 tdh.lib/tdh.seq.row.ui;
#X text 319 158 tdh.lib/tdh.seq.gesture.ui;
#X obj 9 529 tdh.lib/tdh.seq.stepSequencer.ui;
#A saved 0 120 0 16 0 0 100 0 0 0 0 0 0 0 0 0 0 0 0 0 0 0 0 0 0 0 0 0 0 0 0 0 0 0 0 0 0 0 0 0 0 0 0 0 0 0 0 0 0 0 0 0 0 0 0 0 0 0 0 0 0 0 0 0 0 0 0 0 0 0 0 0;
#X text 719 648 tdh.lib/tdh.seq.stepSequencer.ui;
#X restore 369 399 pd tdh.seq;
#N canvas 0 22 450 300 tdh.sigproc 0;
#X obj 9 9 cnv 15 500 40 empty empty TDH.LIB\ -\ SIGNAL\ PROCESSORS 2 20 0 32 #b7b7b7 #373737 0;
#X obj 9 59 tdh.lib/tdh.sigproc.delay.ui~;
#A saved 0 0 0 0 0 0 0;
#X text 219 118 tdh.lib/tdh.sigproc.delay.ui~;
#X obj 9 379 tdh.lib/tdh.sigproc.freeze.ui~;
#A saved 0 0 0;
#X text 119 418 tdh.lib/tdh.sigproc.freeze.ui~;
#X obj 9 539 tdh.lib/tdh.sigproc.granulate.ui~;
#A saved 0 0 0 0 0 0 0 0 0 0 0 -1 1 0 0;
#X text 319 608 tdh.lib/tdh.sigproc.granulate.ui~;
#X obj 599 59 tdh.lib/tdh.sigproc.mmfilt.ui~;
#A saved 0 0 0 0 0;
#X text 850 119 tdh.lib/tdh.sigproc.mmfilt.ui~;
#X obj 599 219 tdh.lib/tdh.sigproc.waveRectifier.ui~;
#A saved -1 0 0 1;
#X text 819 328 tdh.lib/tdh.sigproc.waveRectifier.ui~;
#X obj 9 219 tdh.lib/tdh.sigproc.multiTapDelay.ui~;
#A saved 0 0 0 0 0 0 0 0 0 0;
#X text 324 271 tdh.lib/tdh.sigproc.multiTapDelay.ui~;
#X obj 599 529 tdh.lib/tdh.sigproc.softClipDistortion.ui~;
#A saved 0 0 0;
#X text 709 578 tdh.lib/tdh.sigproc.softClipDistortion.ui~;
#X restore 369 459 pd tdh.sigproc;
#N canvas 0 22 450 300 tdh.synth 0;
#X obj 9 9 cnv 15 500 40 empty empty TDH.LIB\ -\ SYNTHESIS 2 20 0 32 #b7b7b7 #373737 0;
#X obj 19 79 tdh.lib/tdh.synth.1oscil~;
#A saved 0 4 261.626 0 0 0 0 0;
#X obj 19 109 tdh.lib/tdh.synth.1oscil.ui~;
#A saved 0 4 261.626 0 0 0 0 0;
#X text 229 178 tdh.lib/tdh.synth.1oscil.ui~;
#X obj 19 419 tdh.lib/tdh.synth.beep~;
#X obj 19 449 tdh.lib/tdh.synth.beep.ui~;
#A saved 440 0 500 0 25 0;
#X text 179 498 tdh.lib/tdh.synth.beep.ui~;
#X obj 409 79 tdh.lib/tdh.synth.LFOscil.ui~;
#A saved 0 0 1 0 0 0 0 0 0;
#X text 619 128 tdh.lib/tdh.synth.LFOscil.ui~;
#X obj 409 399 tdh.lib/tdh.synth.oscilaPulse~;
#X obj 409 427 tdh.lib/tdh.synth.oscilaSaw~;
#X obj 409 457 tdh.lib/tdh.synth.oscilaTri~;
#X obj 409 487 tdh.lib/tdh.synth.oscilaVarTri~;
#X obj 629 399 tdh.lib/tdh.synth.oscilPulse~;
#X obj 629 427 tdh.lib/tdh.synth.oscilSaw~;
#X obj 629 457 tdh.lib/tdh.synth.oscilTri~;
#X obj 406 528 tdh.lib/tdh.synth.simpleSynth.ui~;
#X text 535 583 tdh.lib/tdh.synth.simpleSynth.ui~;
#X restore 369 519 pd tdh.synth;
#N canvas 0 22 450 300 tdh.util 0;
#X obj 9 9 cnv 15 500 40 empty empty TDH.LIB\ -\ UTILITIES 2 20 0 32 #b7b7b7 #373737 0;
#X restore 369 579 pd tdh.util;
#X text 19 68 TDH.LIB is a library of Pure Data (Pd) abstractions developed by Travis Houldcroft. These abstractions include tools \, snippets and algorithms I use on a regular basis that I pre-built to be more efficient (or so I wouldn't forget how to make them!) \, and modules with full GUIs and parameter saving that I use for performance/composition and also port over to my library for beginning sound experiments \, the SOUND ART TOOLKIT., f 84;
#X text 19 158 This library doesn't break any new ground or revolutionize Pd \, but someone may find it useful \, and I find it helpful when I teach Pd. I have tried to make the programming clean and have put a push on commenting the code \, so that beginners can use the code to learn or can hack together new algorithms from it., f 84;
#X text 19 238 While I originally strived to make this code as Vanilla as possible \, I eventually needed to rely on ELSE and CYCLONE \, therfore to use these objects \, you need to install them via Dekken (Help > Find Externals) on Vanilla \, while in Plug Data they should already be installed. All of these abstractions should work equally well in Vanilla and in PlugData., f 84;
#X obj 19 439 cnv 10 10 10 empty empty Controller\ Modules 0 6 0 14 #ffffff #373737 0;
#X obj 19 379 cnv 10 10 10 empty empty Algorithmic\ Composition\ Modules 0 6 0 14 #ffffff #373737 0;
#X obj 19 499 cnv 10 10 10 empty empty Mathematics\ and\ Number\ Handling\ Modules 0 6 0 14 #ffffff #373737 0;
#X obj 19 559 cnv 10 10 10 empty empty MIDI\ Generation\ and\ Processing\ Modules 0 6 0 14 #ffffff #373737 0;
#X obj 369 379 cnv 10 10 10 empty empty Event\ Sequencing\ Modules 0 6 0 14 #ffffff #373737 0;
#X obj 369 439 cnv 10 10 10 empty empty Signal\ Processing\ Modules 0 6 0 14 #ffffff #373737 0;
#X obj 369 499 cnv 10 10 10 empty empty Synthesizer\ and\ Synthesis\ Modules 0 6 0 14 #ffffff #373737 0;
#X obj 369 559 cnv 10 10 10 empty empty Utility\ and\ Tool\ Modules 0 6 0 14 #ffffff #373737 0;
#N canvas 0 22 450 300 links 0;
#X msg 339 99 browse https://github.com/thouldcroft/tdh.lib;
#X msg 629 99 browse https://github.com/thouldcroft/tdh.satk;
#X obj 185 186 pdcontrol;
#X obj 78 74 r \$0-tdhWeb;
#X obj 339 69 r \$0-tdhlibGit;
#X obj 629 69 r \$0-satkGit;
#X msg 79 109 browse https://travishouldcroft.com/;
#X connect 0 0 2 0;
#X connect 1 0 2 0;
#X connect 3 0 6 0;
#X connect 4 0 0 0;
#X connect 5 0 1 0;
#X connect 6 0 2 0;
#X restore 559 329 pd links;
#X obj 19 329 bng 16 250 50 0 \$0-tdhWeb \$0-tdhWeb-r travishouldcroft.com 24 8 0 12 #c6feff #000000 #000000;
#X obj 189 329 bng 16 250 50 0 \$0-tdhlibGit \$0-tdhlibGit-r TDH.LIB\ on\ Github 24 8 0 12 #c6feff #000000 #000000;
#X obj 339 329 bng 16 250 50 0 \$0-satkGit \$0-satkGit-r SOUND\ ART\ TOOLKIT\ on\ Github 24 8 0 12 #c6feff #000000 #000000;
