#N canvas 2720 -473 1280 1395 12;
#X obj 669 671 tdh.util.spectrograph~;
#X obj 198 215 tdh.synth.oscil-tri~;
#X obj 444 220 tdh.synth.oscil-saw~;
#X obj 686 216 tdh.synth.oscil-pulse~;
#X obj 279 269 tgl 15 0 empty empty empty 17 7 0 10 #fcfcfc #000000
#000000 0 1;
#X obj 195 342 *~;
#X obj 387 262 tgl 15 0 empty empty empty 17 7 0 10 #fcfcfc #000000
#000000 0 1;
#X obj 303 335 *~;
#X obj 321 523 tdh.util.antiAliasFilter~ 15000 512 1 8;
#X connect 1 0 5 0;
#X connect 1 0 7 0;
#X connect 4 0 5 1;
#X connect 6 0 7 1;
