#N canvas 125 48 1227 802 10;
#X obj 26 117 cnv 1 198 2 empty \$0-inletBorder-r empty 1 7 0 10 #404040 #404040 0;
#X obj 26 104 cnv 10 198 14 empty \$0-inletBar-r P/F/Bng 0 6 0 8 #dfdfdf #404040 0;
#X obj 113 104 cnv 10 5 12 empty empty Tempo 0 6 0 8 #dfdfdf #404040 0;
#X obj 188 104 cnv 10 5 12 empty empty Note\ Div 0 6 0 8 #dfdfdf #404040 0;
#X obj 26 367 cnv 1 198 2 empty \$0-moduleNameBorder-r empty 1 7 0 10 #404040 #404040 0;
#X obj 26 368 cnv 12 198 14 empty \$0-moduleName-r Event\ Creation 1 7 0 10 #dcdcdc #404040 0;
#X obj 26 382 cnv 1 198 2 empty \$0-outletBorder-r empty 1 7 0 10 #404040 #404040 0;
#X obj 26 383 cnv 10 198 14 empty \$0-outletBar-r Pch/Frq 0 6 0 8 #dfdfdf #404040 0;
#X obj 114 383 cnv 10 5 12 empty empty Dur 0 6 0 8 #dfdfdf #404040 0;
#X obj 204 383 cnv 10 5 12 empty empty Gate 0 6 0 8 #dfdfdf #404040 0;
#X text 18 47 Travis Houldcroft || travishouldcroft.com;
#X obj 1 2 cnv 15 700 40 empty \$0-abstrPatchTitleBar tdh.ac.eventCreation.ui 9 20 0 18 #3c50fc #a0a0a0 0;
#X obj 1 75 cnv 2 700 2 empty \$0-abstrPatchSecDivider empty 9 20 0 18 #a0a0a0 #202020 0;
#N canvas 582 38 770 815 abstr-init 0;
#X obj 3 56 cnv 5 5 5 empty empty | 0 0 0 14 #fcfcfc #404040 0;
#X obj 176 122 loadbang;
#X obj 176 148 del 10;
#N canvas 1280 23 1414 755 abstr-cnv-set 0;
#X text 121 406 \$0-abstrPatchSecDivider;
#X text 120 1003 \$0-abstrPatchSecLabelNotes;
#X text 120 1139 \$0-abstrPatchSecLabelRevHist;
#N canvas 1440 23 349 258 canvas-ctrl 0;
#X obj 291 1 inlet;
#N canvas 1440 270 1089 459 graph 0;
#X floatatom 180 241 5 0 0 0 Lbl-Sz - - 0;
#X floatatom 273 241 5 0 29 0 Lbl-Clr - - 0;
#N canvas 32 23 1408 389 label-properties 0;
#X floatatom 314 72 3 18 100 0 - - - 0;
#X msg 314 99 size \$1;
#X obj 400 121 pack 100 60, f 18;
#X obj 491 93 t b f;
#X floatatom 491 68 4 18 100 0 - - - 0;
#X floatatom 400 68 4 18 100 0 - - - 0;
#X msg 400 148 vis_size \$1 \$2;
#X text 442 41 w/x;
#X text 532 41 h/y;
#X floatatom 589 116 4 0 3 0 - - - 0;
#X obj 721 135 t b f;
#X floatatom 721 116 5 5 50 0 - - - 0;
#X msg 589 185 label_font \$1 \$2;
#X text 632 41 type;
#X text 760 40 size;
#X obj 589 64 vradio 15 1 0 3 empty empty empty 0 -8 0 10 #fcfcfc #000000 #000000 0;
#X text 605 63 DejaVu Sans Mono;
#X text 605 78 Helvetica;
#X text 606 93 Times;
#X floatatom 817 71 4 -100 250 0 - - - 0;
#X obj 889 98 t b f;
#X floatatom 889 71 5 -150 150 0 - - - 0;
#X msg 817 148 label_pos \$1 \$2;
#X text 856 41 x;
#X text 929 41 y;
#X obj 817 126 pack 17 20, f 17;
#X obj 589 164 pack 0 25, f 24;
#X msg 973 129 label \$1;
#X floatatom 1191 70 3 0 29 1 bgColor - - 0;
#X floatatom 1295 70 3 0 29 1 lblColor - - 0;
#X obj 1295 92 t b f;
#X msg 1191 145 color \$1 \$2 \$3;
#X obj 1191 124 pack 1 22 22, f 14;
#X text 1170 18 Color Presets (0-29):;
#X obj 24 42 inlet;
#X obj 8 42 cnv 14 14 14 empty empty 0 4 8 0 12 #606060 #dcdcdc 0;
#X symbolatom 24 210 10 0 0 0 - - - 0;
#X obj 588 330 send, f 13;
#X obj 400 42 inlet;
#X obj 314 42 inlet;
#X obj 491 42 inlet;
#X obj 155 42 cnv 14 14 14 empty empty 1 4 8 0 12 #606060 #dcdcdc 0;
#X obj 297 42 cnv 14 14 14 empty empty 2 4 8 0 12 #606060 #dcdcdc 0;
#X obj 384 42 cnv 14 14 14 empty empty 3 4 8 0 12 #606060 #dcdcdc 0;
#X obj 721 42 inlet;
#X obj 589 42 inlet;
#X obj 817 42 inlet;
#X obj 476 42 cnv 14 14 14 empty empty 4 4 8 0 12 #606060 #dcdcdc 0;
#X obj 573 42 cnv 14 14 14 empty empty 5 4 8 0 12 #606060 #dcdcdc 0;
#X obj 703 42 cnv 14 14 14 empty empty 6 4 8 0 12 #606060 #dcdcdc 0;
#X text 315 18 Size;
#X text 421 18 Visible Size;
#X text 635 18 Label Font;
#X text 824 18 Label Offset;
#X obj 889 42 inlet;
#X obj 800 42 cnv 14 14 14 empty empty 7 4 8 0 12 #606060 #dcdcdc 0;
#X msg 1052 89 symbol my\ label;
#X symbolatom 973 92 10 0 0 0 - - - 0;
#X obj 973 42 inlet;
#X obj 872 42 cnv 14 14 14 empty empty 8 4 8 0 12 #606060 #dcdcdc 0;
#X msg 973 70 symbol \$1;
#X text 1007 18 Label Text;
#X obj 1191 42 inlet;
#X obj 958 42 cnv 14 14 14 empty empty 9 4 8 0 12 #606060 #dcdcdc 0;
#X obj 1295 42 inlet;
#X obj 1174 42 cnv 14 14 14 empty empty 10 0 8 0 12 #606060 #dcdcdc 0;
#X text 0 18 Canvas Name;
#X obj 284 2 cnv 5 1 260 empty empty empty 20 12 0 14 #7c7c7c #404040 0;
#X obj 738 322 cnv 2 700 40 empty \$0-test_canvas tdh.ac.eventCreation.ui 20 15 0 16 #a0a0a0 #202020 0;
#X obj 415 328 s \$0-test_canvas;
#X obj 210 187 spigot;
#X obj 170 88 tgl 15 0 empty empty empty 17 7 0 10 #fcfcfc #000000 #000000 0 1;
#X obj 249 134 == 1;
#X obj 101 135 == 0;
#X obj 144 134 list append \$0;
#X msg 144 157 symbol \$2-\$1;
#X msg 24 136 symbol \$1;
#X obj 24 167 spigot;
#X obj 170 42 inlet;
#X obj 1279 42 cnv 14 14 14 empty empty 11 0 8 0 12 #606060 #dcdcdc 0;
#X text 136 18 Add "\$0" option;
#X obj 374 2 cnv 5 1 260 empty empty empty 20 12 0 14 #7c7c7c #404040 0;
#X obj 561 2 cnv 5 1 260 empty empty empty 20 12 0 14 #7c7c7c #404040 0;
#X obj 791 2 cnv 5 1 260 empty empty empty 20 12 0 14 #7c7c7c #404040 0;
#X obj 944 2 cnv 5 1 260 empty empty empty 20 12 0 14 #7c7c7c #404040 0;
#X obj 1164 2 cnv 5 1 260 empty empty empty 20 12 0 14 #7c7c7c #404040 0;
#X connect 0 0 1 0;
#X connect 1 0 37 0;
#X connect 1 0 69 0;
#X connect 2 0 6 0;
#X connect 3 0 2 0;
#X connect 3 1 2 1;
#X connect 4 0 3 0;
#X connect 5 0 2 0;
#X connect 6 0 37 0;
#X connect 6 0 69 0;
#X connect 9 0 26 0;
#X connect 10 0 26 0;
#X connect 10 1 26 1;
#X connect 11 0 10 0;
#X connect 12 0 37 0;
#X connect 12 0 69 0;
#X connect 15 0 9 0;
#X connect 19 0 25 0;
#X connect 20 0 25 0;
#X connect 20 1 25 1;
#X connect 21 0 20 0;
#X connect 22 0 37 0;
#X connect 22 0 69 0;
#X connect 25 0 22 0;
#X connect 26 0 12 0;
#X connect 27 0 37 0;
#X connect 27 0 69 0;
#X connect 28 0 32 0;
#X connect 29 0 30 0;
#X connect 30 0 32 0;
#X connect 30 1 32 2;
#X connect 31 0 37 0;
#X connect 31 0 69 0;
#X connect 32 0 31 0;
#X connect 34 0 74 0;
#X connect 34 0 76 0;
#X connect 36 0 37 1;
#X connect 38 0 5 0;
#X connect 39 0 0 0;
#X connect 40 0 4 0;
#X connect 44 0 11 0;
#X connect 45 0 15 0;
#X connect 46 0 19 0;
#X connect 54 0 21 0;
#X connect 56 0 27 0;
#X connect 57 0 27 0;
#X connect 58 0 60 0;
#X connect 60 0 57 0;
#X connect 62 0 28 0;
#X connect 64 0 29 0;
#X connect 70 0 36 0;
#X connect 71 0 72 0;
#X connect 71 0 73 0;
#X connect 72 0 70 1;
#X connect 73 0 77 1;
#X connect 74 0 75 0;
#X connect 75 0 70 0;
#X connect 76 0 77 0;
#X connect 77 0 36 0;
#X connect 78 0 71 0;
#X restore 6 354 pd label-properties;
#X f 45;
#X floatatom 273 219 5 0 29 0 BG-Clr - - 0;
#X floatatom 180 174 5 0 0 0 Vis-Sz-W - - 0;
#X floatatom 181 198 5 0 0 0 Vis-Sz-H - - 0;
#X floatatom 271 150 5 0 0 0 Lbl-X - - 0;
#X floatatom 272 174 5 0 0 0 Lbl-Y - - 0;
#X floatatom 180 150 5 0 0 0 Size - - 0;
#X symbolatom 214 127 10 0 0 0 CnvReceiveSymbol - - 0;
#X floatatom 181 219 5 0 2 0 Lbl-Fon - - 0;
#X symbolatom 274 195 10 0 0 0 Lbl-Txt - - 0;
#X obj 295 128 tgl 15 0 empty empty Append_0 20 7 0 10 #fcfcfc #fc8000 #000000 0 1;
#X text 194 103 Label Properties;
#X obj 28 18 inlet;
#X obj 414 223 cnv 15 500 30 empty \$0-myCanvas This\ is\ my\ label? 9 13 0 18 #e0e0e0 #606060 0;
#X obj 28 54 route doll rec size visw vish lblfon lblsz lblx lbly bgclr lblclr, f 66;
#X obj 56 93 symbol;
#X text 6 4 _;
#X text 479 173 dollarsign0-myCanvas;
#X msg 74 18 doll 1 \, rec myCanvas \, size 15 \, visw 50 \, vish 60 \, lblfon 0 \, lblsz 18 \, lblx 9 \, lbly 13 \, bgclr 10 \, lblclr 21, f 106;
#N canvas 240 66 752 410 \$0-how-to-set-values-externally 0;
#X text 112 49 doll [0/1] - toggle on appending "\$0-" at the start of the recieve symbol, f 85;
#X text 112 102 visw [float] - the visible width of the canvas in pixels, f 85;
#X text 112 85 size [float] - the size of the clickable/dragable portion of the canvas in pixels, f 85;
#X text 112 122 vish [float] - the visible height of the canvas in pixels, f 85;
#X text 111 141 lblfon [0/1/2] - font designation for the canvas' label \, with [0] for Menlo \, [1] for, f 89;
#X text 131 155 Helvetica \, [2] for Times. Note that these fonts may be different on Windows or Linux, f 84;
#X text 111 173 lblsz [float] - font size designation for the canvas' label, f 85;
#X text 111 213 lbly [float] - y offset in pixels from the top left corner of the canvas, f 85;
#X text 111 193 lblx [float] - x offset (horizontal) in pixels from the top left corner of the canvas, f 85;
#X text 4 29 To set the values for your canvas object externally \, send messages with the following signifiers to the 0 (leftmost) inlet:, f 124;
#X msg 31 336 doll 1 \, rec myCanvas \, size 15 \, visw 500 \, vish 30 \, lblfon 0 \, lblsz 18 \, lblx 9 \, lbly 13 \, bgclr 10 \, lblclr 21, f 106;
#X text 111 67 rec [symbol] - receive symbol for the canvas, f 85;
#X obj 90 241 cnv 5 5 5 empty \$0-canvas-format-helper-boldstatement1 Please\ note\ that\ the\ $-0\ designation\ (1\ or\ 0)\ MUST\ be\ sent\ first\,\ followed\ by\ the\ canvas\  1 9 0 12 #fcfcfc #fc0400 0;
#N canvas 2423 143 808 250 init 0;
#X msg 30 102 label \$1;
#X msg 419 120 label \$1;
#X obj 29 147 s \$0-canvas-format-helper-boldstatement1;
#X obj 418 164 s \$0-canvas-format-helper-boldstatement2;
#X obj 233 15 loadbang;
#X msg 420 51 symbol receive\ symbol!\ Failure\ to\ do\ so\ will\ cause\ incorrect\ parameter\ dispatching!;
#X msg 26 43 symbol Please\\\ note\\\ that\\\ the\\\ $-0\\\ designation\\\ (1\\\ or\\\ 0)\\\ MUST\\\ be\\\ sent\\\ first\\\,\\\ followed\\\ by\\\ the\\\ canvas\\\ ;
#X connect 0 0 2 0;
#X connect 1 0 3 0;
#X connect 4 0 5 0;
#X connect 4 0 6 0;
#X connect 5 0 1 0;
#X connect 6 0 0 0;
#X restore 659 9 pd init;
#X obj 90 257 cnv 5 5 5 empty \$0-canvas-format-helper-boldstatement2 receive\ symbol!\ Failure\ to\ do\ so\ will\ cause\ incorrect\ parameter\ dispatching! 1 9 0 12 #fcfcfc #fc0400 0;
#X msg 112 362 symbol this\ is\ my\ label!;
#X text 296 357 The label parameter must be sent separately to Inlet 1 (rightmost inlet). The message must be prepended with the "symbol" identifier \, and the escape character () needs to be set in the message:, f 68;
#X text 102 286 All parameters EXCEPT label can be sent in a single message to Inlet 0 (leftmost inlet) like below (and this can be copied and pasted for easy initializing formatting)., f 89;
#X restore 326 378 pd \$0-how-to-set-values-externally;
#X msg 326 336 vis 1;
#X obj 326 357 s pd-\$0-how-to-set-values-externally;
#X obj 120 263 bng 15 250 50 0 empty empty empty 17 7 0 10 #fcfcfc #000000 #000000;
#X text 141 263 How to set canvas values externally;
#X text 891 18 All left-inlet messages;
#X text 984 47 Label text;
#X msg 636 48 symbol This\ is\ my\ label?;
#X obj 587 47 inlet;
#X obj 632 184 cnv 5 5 5 empty empty ↴ -3 3 0 24 #fcfcfc #606060 0;
#X connect 0 0 2 6;
#X connect 1 0 2 11;
#X connect 3 0 2 10;
#X connect 4 0 2 3;
#X connect 5 0 2 4;
#X connect 6 0 2 7;
#X connect 7 0 2 8;
#X connect 8 0 2 2;
#X connect 9 0 2 0;
#X connect 10 0 2 5;
#X connect 11 0 2 9;
#X connect 12 0 2 1;
#X connect 14 0 16 0;
#X connect 16 0 12 0;
#X connect 16 1 17 0;
#X connect 16 2 8 0;
#X connect 16 3 4 0;
#X connect 16 4 5 0;
#X connect 16 5 10 0;
#X connect 16 6 0 0;
#X connect 16 7 6 0;
#X connect 16 8 7 0;
#X connect 16 9 3 0;
#X connect 16 10 1 0;
#X connect 17 0 9 0;
#X connect 20 0 16 0;
#X connect 22 0 23 0;
#X connect 24 0 22 0;
#X connect 28 0 11 0;
#X connect 29 0 11 0;
#X coords 0 -1 1 1 300 190 2 100 100;
#X restore 25 27 pd graph;
#X obj 25 1 inlet;
#X connect 0 0 1 1;
#X connect 2 0 1 0;
#X restore 343 345 pd canvas-ctrl;
#N canvas 673 23 349 258 canvas-ctrl 0;
#X obj 291 1 inlet;
#N canvas 248 270 1089 459 graph 0;
#X floatatom 180 241 5 0 0 0 Lbl-Sz - - 0;
#X floatatom 273 241 5 0 29 0 Lbl-Clr - - 0;
#N canvas 32 23 1408 389 label-properties 0;
#X floatatom 314 72 3 18 100 0 - - - 0;
#X msg 314 99 size \$1;
#X obj 400 121 pack 100 60, f 18;
#X obj 491 93 t b f;
#X floatatom 491 68 4 18 100 0 - - - 0;
#X floatatom 400 68 4 18 100 0 - - - 0;
#X msg 400 148 vis_size \$1 \$2;
#X text 442 41 w/x;
#X text 532 41 h/y;
#X floatatom 589 116 4 0 3 0 - - - 0;
#X obj 721 135 t b f;
#X floatatom 721 116 5 5 50 0 - - - 0;
#X msg 589 185 label_font \$1 \$2;
#X text 632 41 type;
#X text 760 40 size;
#X obj 589 64 vradio 15 1 0 3 empty empty empty 0 -8 0 10 #fcfcfc #000000 #000000 0;
#X text 605 63 DejaVu Sans Mono;
#X text 605 78 Helvetica;
#X text 606 93 Times;
#X floatatom 817 71 4 -100 250 0 - - - 0;
#X obj 889 98 t b f;
#X floatatom 889 71 5 -150 150 0 - - - 0;
#X msg 817 148 label_pos \$1 \$2;
#X text 856 41 x;
#X text 929 41 y;
#X obj 817 126 pack 17 20, f 17;
#X obj 589 164 pack 0 25, f 24;
#X msg 973 129 label \$1;
#X floatatom 1191 70 3 0 29 1 bgColor - - 0;
#X floatatom 1295 70 3 0 29 1 lblColor - - 0;
#X obj 1295 92 t b f;
#X msg 1191 145 color \$1 \$2 \$3;
#X obj 1191 124 pack 1 22 22, f 14;
#X text 1170 18 Color Presets (0-29):;
#X obj 24 42 inlet;
#X obj 8 42 cnv 14 14 14 empty empty 0 4 8 0 12 #606060 #dcdcdc 0;
#X symbolatom 24 210 10 0 0 0 - - - 0;
#X obj 588 330 send, f 13;
#X obj 400 42 inlet;
#X obj 314 42 inlet;
#X obj 491 42 inlet;
#X obj 155 42 cnv 14 14 14 empty empty 1 4 8 0 12 #606060 #dcdcdc 0;
#X obj 297 42 cnv 14 14 14 empty empty 2 4 8 0 12 #606060 #dcdcdc 0;
#X obj 384 42 cnv 14 14 14 empty empty 3 4 8 0 12 #606060 #dcdcdc 0;
#X obj 721 42 inlet;
#X obj 589 42 inlet;
#X obj 817 42 inlet;
#X obj 476 42 cnv 14 14 14 empty empty 4 4 8 0 12 #606060 #dcdcdc 0;
#X obj 573 42 cnv 14 14 14 empty empty 5 4 8 0 12 #606060 #dcdcdc 0;
#X obj 703 42 cnv 14 14 14 empty empty 6 4 8 0 12 #606060 #dcdcdc 0;
#X text 315 18 Size;
#X text 421 18 Visible Size;
#X text 635 18 Label Font;
#X text 824 18 Label Offset;
#X obj 889 42 inlet;
#X obj 800 42 cnv 14 14 14 empty empty 7 4 8 0 12 #606060 #dcdcdc 0;
#X msg 1052 89 symbol my\ label;
#X symbolatom 973 92 10 0 0 0 - - - 0;
#X obj 973 42 inlet;
#X obj 872 42 cnv 14 14 14 empty empty 8 4 8 0 12 #606060 #dcdcdc 0;
#X msg 973 70 symbol \$1;
#X text 1007 18 Label Text;
#X obj 1191 42 inlet;
#X obj 958 42 cnv 14 14 14 empty empty 9 4 8 0 12 #606060 #dcdcdc 0;
#X obj 1295 42 inlet;
#X obj 1174 42 cnv 14 14 14 empty empty 10 0 8 0 12 #606060 #dcdcdc 0;
#X text 0 18 Canvas Name;
#X obj 284 2 cnv 5 1 260 empty empty empty 20 12 0 14 #7c7c7c #404040 0;
#X obj 738 322 cnv 2 700 40 empty \$0-test_canvas tdh.ac.eventCreation.ui 20 15 0 16 #a0a0a0 #202020 0;
#X obj 415 328 s \$0-test_canvas;
#X obj 210 187 spigot;
#X obj 170 88 tgl 15 0 empty empty empty 17 7 0 10 #fcfcfc #000000 #000000 0 1;
#X obj 249 134 == 1;
#X obj 101 135 == 0;
#X obj 144 134 list append \$0;
#X msg 144 157 symbol \$2-\$1;
#X msg 24 136 symbol \$1;
#X obj 24 167 spigot;
#X obj 170 42 inlet;
#X obj 1279 42 cnv 14 14 14 empty empty 11 0 8 0 12 #606060 #dcdcdc 0;
#X text 136 18 Add "\$0" option;
#X obj 374 2 cnv 5 1 260 empty empty empty 20 12 0 14 #7c7c7c #404040 0;
#X obj 561 2 cnv 5 1 260 empty empty empty 20 12 0 14 #7c7c7c #404040 0;
#X obj 791 2 cnv 5 1 260 empty empty empty 20 12 0 14 #7c7c7c #404040 0;
#X obj 944 2 cnv 5 1 260 empty empty empty 20 12 0 14 #7c7c7c #404040 0;
#X obj 1164 2 cnv 5 1 260 empty empty empty 20 12 0 14 #7c7c7c #404040 0;
#X connect 0 0 1 0;
#X connect 1 0 37 0;
#X connect 1 0 69 0;
#X connect 2 0 6 0;
#X connect 3 0 2 0;
#X connect 3 1 2 1;
#X connect 4 0 3 0;
#X connect 5 0 2 0;
#X connect 6 0 37 0;
#X connect 6 0 69 0;
#X connect 9 0 26 0;
#X connect 10 0 26 0;
#X connect 10 1 26 1;
#X connect 11 0 10 0;
#X connect 12 0 37 0;
#X connect 12 0 69 0;
#X connect 15 0 9 0;
#X connect 19 0 25 0;
#X connect 20 0 25 0;
#X connect 20 1 25 1;
#X connect 21 0 20 0;
#X connect 22 0 37 0;
#X connect 22 0 69 0;
#X connect 25 0 22 0;
#X connect 26 0 12 0;
#X connect 27 0 37 0;
#X connect 27 0 69 0;
#X connect 28 0 32 0;
#X connect 29 0 30 0;
#X connect 30 0 32 0;
#X connect 30 1 32 2;
#X connect 31 0 37 0;
#X connect 31 0 69 0;
#X connect 32 0 31 0;
#X connect 34 0 74 0;
#X connect 34 0 76 0;
#X connect 36 0 37 1;
#X connect 38 0 5 0;
#X connect 39 0 0 0;
#X connect 40 0 4 0;
#X connect 44 0 11 0;
#X connect 45 0 15 0;
#X connect 46 0 19 0;
#X connect 54 0 21 0;
#X connect 56 0 27 0;
#X connect 57 0 27 0;
#X connect 58 0 60 0;
#X connect 60 0 57 0;
#X connect 62 0 28 0;
#X connect 64 0 29 0;
#X connect 70 0 36 0;
#X connect 71 0 72 0;
#X connect 71 0 73 0;
#X connect 72 0 70 1;
#X connect 73 0 77 1;
#X connect 74 0 75 0;
#X connect 75 0 70 0;
#X connect 76 0 77 0;
#X connect 77 0 36 0;
#X connect 78 0 71 0;
#X restore 6 354 pd label-properties;
#X f 45;
#X floatatom 273 219 5 0 29 0 BG-Clr - - 0;
#X floatatom 180 174 5 0 0 0 Vis-Sz-W - - 0;
#X floatatom 181 198 5 0 0 0 Vis-Sz-H - - 0;
#X floatatom 271 150 5 0 0 0 Lbl-X - - 0;
#X floatatom 272 174 5 0 0 0 Lbl-Y - - 0;
#X floatatom 180 150 5 0 0 0 Size - - 0;
#X symbolatom 214 127 10 0 0 0 CnvReceiveSymbol - - 0;
#X floatatom 181 219 5 0 2 0 Lbl-Fon - - 0;
#X symbolatom 274 195 10 0 0 0 Lbl-Txt - - 0;
#X obj 295 128 tgl 15 0 empty empty Append_0 20 7 0 10 #fcfcfc #fc8000 #000000 0 1;
#X text 194 103 Label Properties;
#X obj 28 18 inlet;
#X obj 414 223 cnv 15 500 30 empty \$0-myCanvas This\ is\ my\ label? 9 13 0 18 #e0e0e0 #606060 0;
#X obj 28 54 route doll rec size visw vish lblfon lblsz lblx lbly bgclr lblclr, f 66;
#X obj 56 93 symbol;
#X text 6 4 _;
#X text 479 173 dollarsign0-myCanvas;
#X msg 74 18 doll 1 \, rec myCanvas \, size 15 \, visw 50 \, vish 60 \, lblfon 0 \, lblsz 18 \, lblx 9 \, lbly 13 \, bgclr 10 \, lblclr 21, f 106;
#N canvas 240 66 752 410 \$0-how-to-set-values-externally 0;
#X text 112 49 doll [0/1] - toggle on appending "\$0-" at the start of the recieve symbol, f 85;
#X text 112 102 visw [float] - the visible width of the canvas in pixels, f 85;
#X text 112 85 size [float] - the size of the clickable/dragable portion of the canvas in pixels, f 85;
#X text 112 122 vish [float] - the visible height of the canvas in pixels, f 85;
#X text 111 141 lblfon [0/1/2] - font designation for the canvas' label \, with [0] for Menlo \, [1] for, f 89;
#X text 131 155 Helvetica \, [2] for Times. Note that these fonts may be different on Windows or Linux, f 84;
#X text 111 173 lblsz [float] - font size designation for the canvas' label, f 85;
#X text 111 213 lbly [float] - y offset in pixels from the top left corner of the canvas, f 85;
#X text 111 193 lblx [float] - x offset (horizontal) in pixels from the top left corner of the canvas, f 85;
#X text 4 29 To set the values for your canvas object externally \, send messages with the following signifiers to the 0 (leftmost) inlet:, f 124;
#X msg 31 336 doll 1 \, rec myCanvas \, size 15 \, visw 500 \, vish 30 \, lblfon 0 \, lblsz 18 \, lblx 9 \, lbly 13 \, bgclr 10 \, lblclr 21, f 106;
#X text 111 67 rec [symbol] - receive symbol for the canvas, f 85;
#X obj 90 241 cnv 5 5 5 empty \$0-canvas-format-helper-boldstatement1 Please\ note\ that\ the\ $-0\ designation\ (1\ or\ 0)\ MUST\ be\ sent\ first\,\ followed\ by\ the\ canvas\  1 9 0 12 #fcfcfc #fc0400 0;
#N canvas 2423 143 808 250 init 0;
#X msg 30 102 label \$1;
#X msg 419 120 label \$1;
#X obj 29 147 s \$0-canvas-format-helper-boldstatement1;
#X obj 418 164 s \$0-canvas-format-helper-boldstatement2;
#X obj 233 15 loadbang;
#X msg 420 51 symbol receive\ symbol!\ Failure\ to\ do\ so\ will\ cause\ incorrect\ parameter\ dispatching!;
#X msg 26 43 symbol Please\\\ note\\\ that\\\ the\\\ $-0\\\ designation\\\ (1\\\ or\\\ 0)\\\ MUST\\\ be\\\ sent\\\ first\\\,\\\ followed\\\ by\\\ the\\\ canvas\\\ ;
#X connect 0 0 2 0;
#X connect 1 0 3 0;
#X connect 4 0 5 0;
#X connect 4 0 6 0;
#X connect 5 0 1 0;
#X connect 6 0 0 0;
#X restore 659 9 pd init;
#X obj 90 257 cnv 5 5 5 empty \$0-canvas-format-helper-boldstatement2 receive\ symbol!\ Failure\ to\ do\ so\ will\ cause\ incorrect\ parameter\ dispatching! 1 9 0 12 #fcfcfc #fc0400 0;
#X msg 112 362 symbol this\ is\ my\ label!;
#X text 296 357 The label parameter must be sent separately to Inlet 1 (rightmost inlet). The message must be prepended with the "symbol" identifier \, and the escape character () needs to be set in the message:, f 68;
#X text 102 286 All parameters EXCEPT label can be sent in a single message to Inlet 0 (leftmost inlet) like below (and this can be copied and pasted for easy initializing formatting)., f 89;
#X restore 326 378 pd \$0-how-to-set-values-externally;
#X msg 326 336 vis 1;
#X obj 326 357 s pd-\$0-how-to-set-values-externally;
#X obj 120 263 bng 15 250 50 0 empty empty empty 17 7 0 10 #fcfcfc #000000 #000000;
#X text 141 263 How to set canvas values externally;
#X text 891 18 All left-inlet messages;
#X text 984 47 Label text;
#X msg 636 48 symbol This\ is\ my\ label?;
#X obj 587 47 inlet;
#X obj 632 184 cnv 5 5 5 empty empty ↴ -3 3 0 24 #fcfcfc #606060 0;
#X connect 0 0 2 6;
#X connect 1 0 2 11;
#X connect 3 0 2 10;
#X connect 4 0 2 3;
#X connect 5 0 2 4;
#X connect 6 0 2 7;
#X connect 7 0 2 8;
#X connect 8 0 2 2;
#X connect 9 0 2 0;
#X connect 10 0 2 5;
#X connect 11 0 2 9;
#X connect 12 0 2 1;
#X connect 14 0 16 0;
#X connect 16 0 12 0;
#X connect 16 1 17 0;
#X connect 16 2 8 0;
#X connect 16 3 4 0;
#X connect 16 4 5 0;
#X connect 16 5 10 0;
#X connect 16 6 0 0;
#X connect 16 7 6 0;
#X connect 16 8 7 0;
#X connect 16 9 3 0;
#X connect 16 10 1 0;
#X connect 17 0 9 0;
#X connect 20 0 16 0;
#X connect 22 0 23 0;
#X connect 24 0 22 0;
#X connect 28 0 11 0;
#X connect 29 0 11 0;
#X coords 0 -1 1 1 300 190 2 100 100;
#X restore 25 27 pd graph;
#X obj 25 1 inlet;
#X connect 0 0 1 1;
#X connect 2 0 1 0;
#X restore 343 465 pd canvas-ctrl;
#N canvas 2452 418 349 258 canvas-ctrl 0;
#X obj 291 1 inlet;
#N canvas 1417 303 1089 459 graph 0;
#X floatatom 180 241 5 0 0 0 Lbl-Sz - - 0;
#X floatatom 273 241 5 0 29 0 Lbl-Clr - - 0;
#N canvas 32 23 1408 389 label-properties 0;
#X floatatom 314 72 3 18 100 0 - - - 0;
#X msg 314 99 size \$1;
#X obj 400 121 pack 100 60, f 18;
#X obj 491 93 t b f;
#X floatatom 491 68 4 18 100 0 - - - 0;
#X floatatom 400 68 4 18 100 0 - - - 0;
#X msg 400 148 vis_size \$1 \$2;
#X text 442 41 w/x;
#X text 532 41 h/y;
#X floatatom 589 116 4 0 3 0 - - - 0;
#X obj 721 135 t b f;
#X floatatom 721 116 5 5 50 0 - - - 0;
#X msg 589 185 label_font \$1 \$2;
#X text 632 41 type;
#X text 760 40 size;
#X obj 589 64 vradio 15 1 0 3 empty empty empty 0 -8 0 10 #fcfcfc #000000 #000000 0;
#X text 605 63 DejaVu Sans Mono;
#X text 605 78 Helvetica;
#X text 606 93 Times;
#X floatatom 817 71 4 -100 250 0 - - - 0;
#X obj 889 98 t b f;
#X floatatom 889 71 5 -150 150 0 - - - 0;
#X msg 817 148 label_pos \$1 \$2;
#X text 856 41 x;
#X text 929 41 y;
#X obj 817 126 pack 17 20, f 17;
#X obj 589 164 pack 0 25, f 24;
#X msg 973 129 label \$1;
#X floatatom 1191 70 3 0 29 1 bgColor - - 0;
#X floatatom 1295 70 3 0 29 1 lblColor - - 0;
#X obj 1295 92 t b f;
#X msg 1191 145 color \$1 \$2 \$3;
#X obj 1191 124 pack 1 22 22, f 14;
#X text 1170 18 Color Presets (0-29):;
#X obj 24 42 inlet;
#X obj 8 42 cnv 14 14 14 empty empty 0 4 8 0 12 #606060 #dcdcdc 0;
#X symbolatom 24 210 10 0 0 0 - - - 0;
#X obj 588 330 send, f 13;
#X obj 400 42 inlet;
#X obj 314 42 inlet;
#X obj 491 42 inlet;
#X obj 155 42 cnv 14 14 14 empty empty 1 4 8 0 12 #606060 #dcdcdc 0;
#X obj 297 42 cnv 14 14 14 empty empty 2 4 8 0 12 #606060 #dcdcdc 0;
#X obj 384 42 cnv 14 14 14 empty empty 3 4 8 0 12 #606060 #dcdcdc 0;
#X obj 721 42 inlet;
#X obj 589 42 inlet;
#X obj 817 42 inlet;
#X obj 476 42 cnv 14 14 14 empty empty 4 4 8 0 12 #606060 #dcdcdc 0;
#X obj 573 42 cnv 14 14 14 empty empty 5 4 8 0 12 #606060 #dcdcdc 0;
#X obj 703 42 cnv 14 14 14 empty empty 6 4 8 0 12 #606060 #dcdcdc 0;
#X text 315 18 Size;
#X text 421 18 Visible Size;
#X text 635 18 Label Font;
#X text 824 18 Label Offset;
#X obj 889 42 inlet;
#X obj 800 42 cnv 14 14 14 empty empty 7 4 8 0 12 #606060 #dcdcdc 0;
#X msg 1052 89 symbol my\ label;
#X symbolatom 973 92 10 0 0 0 - - - 0;
#X obj 973 42 inlet;
#X obj 872 42 cnv 14 14 14 empty empty 8 4 8 0 12 #606060 #dcdcdc 0;
#X msg 973 70 symbol \$1;
#X text 1007 18 Label Text;
#X obj 1191 42 inlet;
#X obj 958 42 cnv 14 14 14 empty empty 9 4 8 0 12 #606060 #dcdcdc 0;
#X obj 1295 42 inlet;
#X obj 1174 42 cnv 14 14 14 empty empty 10 0 8 0 12 #606060 #dcdcdc 0;
#X text 0 18 Canvas Name;
#X obj 284 2 cnv 5 1 260 empty empty empty 20 12 0 14 #7c7c7c #404040 0;
#X obj 738 322 cnv 2 700 40 empty \$0-test_canvas tdh.ac.eventCreation.ui 20 15 0 16 #a0a0a0 #202020 0;
#X obj 415 328 s \$0-test_canvas;
#X obj 210 187 spigot;
#X obj 170 88 tgl 15 0 empty empty empty 17 7 0 10 #fcfcfc #000000 #000000 0 1;
#X obj 249 134 == 1;
#X obj 101 135 == 0;
#X obj 144 134 list append \$0;
#X msg 144 157 symbol \$2-\$1;
#X msg 24 136 symbol \$1;
#X obj 24 167 spigot;
#X obj 170 42 inlet;
#X obj 1279 42 cnv 14 14 14 empty empty 11 0 8 0 12 #606060 #dcdcdc 0;
#X text 136 18 Add "\$0" option;
#X obj 374 2 cnv 5 1 260 empty empty empty 20 12 0 14 #7c7c7c #404040 0;
#X obj 561 2 cnv 5 1 260 empty empty empty 20 12 0 14 #7c7c7c #404040 0;
#X obj 791 2 cnv 5 1 260 empty empty empty 20 12 0 14 #7c7c7c #404040 0;
#X obj 944 2 cnv 5 1 260 empty empty empty 20 12 0 14 #7c7c7c #404040 0;
#X obj 1164 2 cnv 5 1 260 empty empty empty 20 12 0 14 #7c7c7c #404040 0;
#X connect 0 0 1 0;
#X connect 1 0 37 0;
#X connect 1 0 69 0;
#X connect 2 0 6 0;
#X connect 3 0 2 0;
#X connect 3 1 2 1;
#X connect 4 0 3 0;
#X connect 5 0 2 0;
#X connect 6 0 37 0;
#X connect 6 0 69 0;
#X connect 9 0 26 0;
#X connect 10 0 26 0;
#X connect 10 1 26 1;
#X connect 11 0 10 0;
#X connect 12 0 37 0;
#X connect 12 0 69 0;
#X connect 15 0 9 0;
#X connect 19 0 25 0;
#X connect 20 0 25 0;
#X connect 20 1 25 1;
#X connect 21 0 20 0;
#X connect 22 0 37 0;
#X connect 22 0 69 0;
#X connect 25 0 22 0;
#X connect 26 0 12 0;
#X connect 27 0 37 0;
#X connect 27 0 69 0;
#X connect 28 0 32 0;
#X connect 29 0 30 0;
#X connect 30 0 32 0;
#X connect 30 1 32 2;
#X connect 31 0 37 0;
#X connect 31 0 69 0;
#X connect 32 0 31 0;
#X connect 34 0 74 0;
#X connect 34 0 76 0;
#X connect 36 0 37 1;
#X connect 38 0 5 0;
#X connect 39 0 0 0;
#X connect 40 0 4 0;
#X connect 44 0 11 0;
#X connect 45 0 15 0;
#X connect 46 0 19 0;
#X connect 54 0 21 0;
#X connect 56 0 27 0;
#X connect 57 0 27 0;
#X connect 58 0 60 0;
#X connect 60 0 57 0;
#X connect 62 0 28 0;
#X connect 64 0 29 0;
#X connect 70 0 36 0;
#X connect 71 0 72 0;
#X connect 71 0 73 0;
#X connect 72 0 70 1;
#X connect 73 0 77 1;
#X connect 74 0 75 0;
#X connect 75 0 70 0;
#X connect 76 0 77 0;
#X connect 77 0 36 0;
#X connect 78 0 71 0;
#X restore 6 354 pd label-properties;
#X f 45;
#X floatatom 273 219 5 0 29 0 BG-Clr - - 0;
#X floatatom 180 174 5 0 0 0 Vis-Sz-W - - 0;
#X floatatom 181 198 5 0 0 0 Vis-Sz-H - - 0;
#X floatatom 271 150 5 0 0 0 Lbl-X - - 0;
#X floatatom 272 174 5 0 0 0 Lbl-Y - - 0;
#X floatatom 180 150 5 0 0 0 Size - - 0;
#X symbolatom 214 127 10 0 0 0 CnvReceiveSymbol - - 0;
#X floatatom 181 219 5 0 2 0 Lbl-Fon - - 0;
#X symbolatom 274 195 10 0 0 0 Lbl-Txt - - 0;
#X obj 295 128 tgl 15 0 empty empty Append_0 20 7 0 10 #fcfcfc #fc8000 #000000 0 1;
#X text 194 103 Label Properties;
#X obj 28 18 inlet;
#X obj 414 223 cnv 15 500 30 empty \$0-myCanvas This\ is\ my\ label? 9 13 0 18 #e0e0e0 #606060 0;
#X obj 28 54 route doll rec size visw vish lblfon lblsz lblx lbly bgclr lblclr, f 66;
#X obj 56 93 symbol;
#X text 6 4 _;
#X text 479 173 dollarsign0-myCanvas;
#X msg 74 18 doll 1 \, rec myCanvas \, size 15 \, visw 50 \, vish 60 \, lblfon 0 \, lblsz 18 \, lblx 9 \, lbly 13 \, bgclr 10 \, lblclr 21, f 106;
#N canvas 240 66 752 410 \$0-how-to-set-values-externally 0;
#X text 112 49 doll [0/1] - toggle on appending "\$0-" at the start of the recieve symbol, f 85;
#X text 112 102 visw [float] - the visible width of the canvas in pixels, f 85;
#X text 112 85 size [float] - the size of the clickable/dragable portion of the canvas in pixels, f 85;
#X text 112 122 vish [float] - the visible height of the canvas in pixels, f 85;
#X text 111 141 lblfon [0/1/2] - font designation for the canvas' label \, with [0] for Menlo \, [1] for, f 89;
#X text 131 155 Helvetica \, [2] for Times. Note that these fonts may be different on Windows or Linux, f 84;
#X text 111 173 lblsz [float] - font size designation for the canvas' label, f 85;
#X text 111 213 lbly [float] - y offset in pixels from the top left corner of the canvas, f 85;
#X text 111 193 lblx [float] - x offset (horizontal) in pixels from the top left corner of the canvas, f 85;
#X text 4 29 To set the values for your canvas object externally \, send messages with the following signifiers to the 0 (leftmost) inlet:, f 124;
#X msg 31 336 doll 1 \, rec myCanvas \, size 15 \, visw 500 \, vish 30 \, lblfon 0 \, lblsz 18 \, lblx 9 \, lbly 13 \, bgclr 10 \, lblclr 21, f 106;
#X text 111 67 rec [symbol] - receive symbol for the canvas, f 85;
#X obj 90 241 cnv 5 5 5 empty \$0-canvas-format-helper-boldstatement1 Please\ note\ that\ the\ $-0\ designation\ (1\ or\ 0)\ MUST\ be\ sent\ first\,\ followed\ by\ the\ canvas\  1 9 0 12 #fcfcfc #fc0400 0;
#N canvas 2423 143 808 250 init 0;
#X msg 30 102 label \$1;
#X msg 419 120 label \$1;
#X obj 29 147 s \$0-canvas-format-helper-boldstatement1;
#X obj 418 164 s \$0-canvas-format-helper-boldstatement2;
#X obj 233 15 loadbang;
#X msg 420 51 symbol receive\ symbol!\ Failure\ to\ do\ so\ will\ cause\ incorrect\ parameter\ dispatching!;
#X msg 26 43 symbol Please\\\ note\\\ that\\\ the\\\ $-0\\\ designation\\\ (1\\\ or\\\ 0)\\\ MUST\\\ be\\\ sent\\\ first\\\,\\\ followed\\\ by\\\ the\\\ canvas\\\ ;
#X connect 0 0 2 0;
#X connect 1 0 3 0;
#X connect 4 0 5 0;
#X connect 4 0 6 0;
#X connect 5 0 1 0;
#X connect 6 0 0 0;
#X restore 659 9 pd init;
#X obj 90 257 cnv 5 5 5 empty \$0-canvas-format-helper-boldstatement2 receive\ symbol!\ Failure\ to\ do\ so\ will\ cause\ incorrect\ parameter\ dispatching! 1 9 0 12 #fcfcfc #fc0400 0;
#X msg 112 362 symbol this\ is\ my\ label!;
#X text 296 357 The label parameter must be sent separately to Inlet 1 (rightmost inlet). The message must be prepended with the "symbol" identifier \, and the escape character () needs to be set in the message:, f 68;
#X text 102 286 All parameters EXCEPT label can be sent in a single message to Inlet 0 (leftmost inlet) like below (and this can be copied and pasted for easy initializing formatting)., f 89;
#X restore 326 378 pd \$0-how-to-set-values-externally;
#X msg 326 336 vis 1;
#X obj 326 357 s pd-\$0-how-to-set-values-externally;
#X obj 120 263 bng 15 250 50 0 empty empty empty 17 7 0 10 #fcfcfc #000000 #000000;
#X text 141 263 How to set canvas values externally;
#X text 891 18 All left-inlet messages;
#X text 984 47 Label text;
#X msg 636 48 symbol This\ is\ my\ label?;
#X obj 587 47 inlet;
#X obj 632 184 cnv 5 5 5 empty empty ↴ -3 3 0 24 #fcfcfc #606060 0;
#X connect 0 0 2 6;
#X connect 1 0 2 11;
#X connect 3 0 2 10;
#X connect 4 0 2 3;
#X connect 5 0 2 4;
#X connect 6 0 2 7;
#X connect 7 0 2 8;
#X connect 8 0 2 2;
#X connect 9 0 2 0;
#X connect 10 0 2 5;
#X connect 11 0 2 9;
#X connect 12 0 2 1;
#X connect 14 0 16 0;
#X connect 16 0 12 0;
#X connect 16 1 17 0;
#X connect 16 2 8 0;
#X connect 16 3 4 0;
#X connect 16 4 5 0;
#X connect 16 5 10 0;
#X connect 16 6 0 0;
#X connect 16 7 6 0;
#X connect 16 8 7 0;
#X connect 16 9 3 0;
#X connect 16 10 1 0;
#X connect 17 0 9 0;
#X connect 20 0 16 0;
#X connect 22 0 23 0;
#X connect 24 0 22 0;
#X connect 28 0 11 0;
#X connect 29 0 11 0;
#X coords 0 -1 1 1 300 190 2 100 100;
#X restore 25 27 pd graph;
#X obj 25 1 inlet;
#X connect 0 0 1 1;
#X connect 2 0 1 0;
#X restore 343 595 pd canvas-ctrl;
#N canvas 673 23 349 258 canvas-ctrl 0;
#X obj 291 1 inlet;
#N canvas 248 270 1089 459 graph 0;
#X floatatom 180 241 5 0 0 0 Lbl-Sz - - 0;
#X floatatom 273 241 5 0 29 0 Lbl-Clr - - 0;
#N canvas 32 23 1408 389 label-properties 0;
#X floatatom 314 72 3 18 100 0 - - - 0;
#X msg 314 99 size \$1;
#X obj 400 121 pack 100 60, f 18;
#X obj 491 93 t b f;
#X floatatom 491 68 4 18 100 0 - - - 0;
#X floatatom 400 68 4 18 100 0 - - - 0;
#X msg 400 148 vis_size \$1 \$2;
#X text 442 41 w/x;
#X text 532 41 h/y;
#X floatatom 589 116 4 0 3 0 - - - 0;
#X obj 721 135 t b f;
#X floatatom 721 116 5 5 50 0 - - - 0;
#X msg 589 185 label_font \$1 \$2;
#X text 632 41 type;
#X text 760 40 size;
#X obj 589 64 vradio 15 1 0 3 empty empty empty 0 -8 0 10 #fcfcfc #000000 #000000 0;
#X text 605 63 DejaVu Sans Mono;
#X text 605 78 Helvetica;
#X text 606 93 Times;
#X floatatom 817 71 4 -100 250 0 - - - 0;
#X obj 889 98 t b f;
#X floatatom 889 71 5 -150 150 0 - - - 0;
#X msg 817 148 label_pos \$1 \$2;
#X text 856 41 x;
#X text 929 41 y;
#X obj 817 126 pack 17 20, f 17;
#X obj 589 164 pack 0 25, f 24;
#X msg 973 129 label \$1;
#X floatatom 1191 70 3 0 29 1 bgColor - - 0;
#X floatatom 1295 70 3 0 29 1 lblColor - - 0;
#X obj 1295 92 t b f;
#X msg 1191 145 color \$1 \$2 \$3;
#X obj 1191 124 pack 1 22 22, f 14;
#X text 1170 18 Color Presets (0-29):;
#X obj 24 42 inlet;
#X obj 8 42 cnv 14 14 14 empty empty 0 4 8 0 12 #606060 #dcdcdc 0;
#X symbolatom 24 210 10 0 0 0 - - - 0;
#X obj 588 330 send, f 13;
#X obj 400 42 inlet;
#X obj 314 42 inlet;
#X obj 491 42 inlet;
#X obj 155 42 cnv 14 14 14 empty empty 1 4 8 0 12 #606060 #dcdcdc 0;
#X obj 297 42 cnv 14 14 14 empty empty 2 4 8 0 12 #606060 #dcdcdc 0;
#X obj 384 42 cnv 14 14 14 empty empty 3 4 8 0 12 #606060 #dcdcdc 0;
#X obj 721 42 inlet;
#X obj 589 42 inlet;
#X obj 817 42 inlet;
#X obj 476 42 cnv 14 14 14 empty empty 4 4 8 0 12 #606060 #dcdcdc 0;
#X obj 573 42 cnv 14 14 14 empty empty 5 4 8 0 12 #606060 #dcdcdc 0;
#X obj 703 42 cnv 14 14 14 empty empty 6 4 8 0 12 #606060 #dcdcdc 0;
#X text 315 18 Size;
#X text 421 18 Visible Size;
#X text 635 18 Label Font;
#X text 824 18 Label Offset;
#X obj 889 42 inlet;
#X obj 800 42 cnv 14 14 14 empty empty 7 4 8 0 12 #606060 #dcdcdc 0;
#X msg 1052 89 symbol my\ label;
#X symbolatom 973 92 10 0 0 0 - - - 0;
#X obj 973 42 inlet;
#X obj 872 42 cnv 14 14 14 empty empty 8 4 8 0 12 #606060 #dcdcdc 0;
#X msg 973 70 symbol \$1;
#X text 1007 18 Label Text;
#X obj 1191 42 inlet;
#X obj 958 42 cnv 14 14 14 empty empty 9 4 8 0 12 #606060 #dcdcdc 0;
#X obj 1295 42 inlet;
#X obj 1174 42 cnv 14 14 14 empty empty 10 0 8 0 12 #606060 #dcdcdc 0;
#X text 0 18 Canvas Name;
#X obj 284 2 cnv 5 1 260 empty empty empty 20 12 0 14 #7c7c7c #404040 0;
#X obj 738 322 cnv 2 700 40 empty \$0-test_canvas tdh.ac.eventCreation.ui 20 15 0 16 #a0a0a0 #202020 0;
#X obj 415 328 s \$0-test_canvas;
#X obj 210 187 spigot;
#X obj 170 88 tgl 15 0 empty empty empty 17 7 0 10 #fcfcfc #000000 #000000 0 1;
#X obj 249 134 == 1;
#X obj 101 135 == 0;
#X obj 144 134 list append \$0;
#X msg 144 157 symbol \$2-\$1;
#X msg 24 136 symbol \$1;
#X obj 24 167 spigot;
#X obj 170 42 inlet;
#X obj 1279 42 cnv 14 14 14 empty empty 11 0 8 0 12 #606060 #dcdcdc 0;
#X text 136 18 Add "\$0" option;
#X obj 374 2 cnv 5 1 260 empty empty empty 20 12 0 14 #7c7c7c #404040 0;
#X obj 561 2 cnv 5 1 260 empty empty empty 20 12 0 14 #7c7c7c #404040 0;
#X obj 791 2 cnv 5 1 260 empty empty empty 20 12 0 14 #7c7c7c #404040 0;
#X obj 944 2 cnv 5 1 260 empty empty empty 20 12 0 14 #7c7c7c #404040 0;
#X obj 1164 2 cnv 5 1 260 empty empty empty 20 12 0 14 #7c7c7c #404040 0;
#X connect 0 0 1 0;
#X connect 1 0 37 0;
#X connect 1 0 69 0;
#X connect 2 0 6 0;
#X connect 3 0 2 0;
#X connect 3 1 2 1;
#X connect 4 0 3 0;
#X connect 5 0 2 0;
#X connect 6 0 37 0;
#X connect 6 0 69 0;
#X connect 9 0 26 0;
#X connect 10 0 26 0;
#X connect 10 1 26 1;
#X connect 11 0 10 0;
#X connect 12 0 37 0;
#X connect 12 0 69 0;
#X connect 15 0 9 0;
#X connect 19 0 25 0;
#X connect 20 0 25 0;
#X connect 20 1 25 1;
#X connect 21 0 20 0;
#X connect 22 0 37 0;
#X connect 22 0 69 0;
#X connect 25 0 22 0;
#X connect 26 0 12 0;
#X connect 27 0 37 0;
#X connect 27 0 69 0;
#X connect 28 0 32 0;
#X connect 29 0 30 0;
#X connect 30 0 32 0;
#X connect 30 1 32 2;
#X connect 31 0 37 0;
#X connect 31 0 69 0;
#X connect 32 0 31 0;
#X connect 34 0 74 0;
#X connect 34 0 76 0;
#X connect 36 0 37 1;
#X connect 38 0 5 0;
#X connect 39 0 0 0;
#X connect 40 0 4 0;
#X connect 44 0 11 0;
#X connect 45 0 15 0;
#X connect 46 0 19 0;
#X connect 54 0 21 0;
#X connect 56 0 27 0;
#X connect 57 0 27 0;
#X connect 58 0 60 0;
#X connect 60 0 57 0;
#X connect 62 0 28 0;
#X connect 64 0 29 0;
#X connect 70 0 36 0;
#X connect 71 0 72 0;
#X connect 71 0 73 0;
#X connect 72 0 70 1;
#X connect 73 0 77 1;
#X connect 74 0 75 0;
#X connect 75 0 70 0;
#X connect 76 0 77 0;
#X connect 77 0 36 0;
#X connect 78 0 71 0;
#X restore 6 354 pd label-properties;
#X f 45;
#X floatatom 273 219 5 0 29 0 BG-Clr - - 0;
#X floatatom 180 174 5 0 0 0 Vis-Sz-W - - 0;
#X floatatom 181 198 5 0 0 0 Vis-Sz-H - - 0;
#X floatatom 271 150 5 0 0 0 Lbl-X - - 0;
#X floatatom 272 174 5 0 0 0 Lbl-Y - - 0;
#X floatatom 180 150 5 0 0 0 Size - - 0;
#X symbolatom 214 127 10 0 0 0 CnvReceiveSymbol - - 0;
#X floatatom 181 219 5 0 2 0 Lbl-Fon - - 0;
#X symbolatom 274 195 10 0 0 0 Lbl-Txt - - 0;
#X obj 295 128 tgl 15 0 empty empty Append_0 20 7 0 10 #fcfcfc #fc8000 #000000 0 1;
#X text 194 103 Label Properties;
#X obj 28 18 inlet;
#X obj 414 223 cnv 15 500 30 empty \$0-myCanvas This\ is\ my\ label? 9 13 0 18 #e0e0e0 #606060 0;
#X obj 28 54 route doll rec size visw vish lblfon lblsz lblx lbly bgclr lblclr, f 66;
#X obj 56 93 symbol;
#X text 6 4 _;
#X text 479 173 dollarsign0-myCanvas;
#X msg 74 18 doll 1 \, rec myCanvas \, size 15 \, visw 50 \, vish 60 \, lblfon 0 \, lblsz 18 \, lblx 9 \, lbly 13 \, bgclr 10 \, lblclr 21, f 106;
#N canvas 240 66 752 410 \$0-how-to-set-values-externally 0;
#X text 112 49 doll [0/1] - toggle on appending "\$0-" at the start of the recieve symbol, f 85;
#X text 112 102 visw [float] - the visible width of the canvas in pixels, f 85;
#X text 112 85 size [float] - the size of the clickable/dragable portion of the canvas in pixels, f 85;
#X text 112 122 vish [float] - the visible height of the canvas in pixels, f 85;
#X text 111 141 lblfon [0/1/2] - font designation for the canvas' label \, with [0] for Menlo \, [1] for, f 89;
#X text 131 155 Helvetica \, [2] for Times. Note that these fonts may be different on Windows or Linux, f 84;
#X text 111 173 lblsz [float] - font size designation for the canvas' label, f 85;
#X text 111 213 lbly [float] - y offset in pixels from the top left corner of the canvas, f 85;
#X text 111 193 lblx [float] - x offset (horizontal) in pixels from the top left corner of the canvas, f 85;
#X text 4 29 To set the values for your canvas object externally \, send messages with the following signifiers to the 0 (leftmost) inlet:, f 124;
#X msg 31 336 doll 1 \, rec myCanvas \, size 15 \, visw 500 \, vish 30 \, lblfon 0 \, lblsz 18 \, lblx 9 \, lbly 13 \, bgclr 10 \, lblclr 21, f 106;
#X text 111 67 rec [symbol] - receive symbol for the canvas, f 85;
#X obj 90 241 cnv 5 5 5 empty \$0-canvas-format-helper-boldstatement1 Please\ note\ that\ the\ $-0\ designation\ (1\ or\ 0)\ MUST\ be\ sent\ first\,\ followed\ by\ the\ canvas\  1 9 0 12 #fcfcfc #fc0400 0;
#N canvas 2423 143 808 250 init 0;
#X msg 30 102 label \$1;
#X msg 419 120 label \$1;
#X obj 29 147 s \$0-canvas-format-helper-boldstatement1;
#X obj 418 164 s \$0-canvas-format-helper-boldstatement2;
#X obj 233 15 loadbang;
#X msg 420 51 symbol receive\ symbol!\ Failure\ to\ do\ so\ will\ cause\ incorrect\ parameter\ dispatching!;
#X msg 26 43 symbol Please\\\ note\\\ that\\\ the\\\ $-0\\\ designation\\\ (1\\\ or\\\ 0)\\\ MUST\\\ be\\\ sent\\\ first\\\,\\\ followed\\\ by\\\ the\\\ canvas\\\ ;
#X connect 0 0 2 0;
#X connect 1 0 3 0;
#X connect 4 0 5 0;
#X connect 4 0 6 0;
#X connect 5 0 1 0;
#X connect 6 0 0 0;
#X restore 659 9 pd init;
#X obj 90 257 cnv 5 5 5 empty \$0-canvas-format-helper-boldstatement2 receive\ symbol!\ Failure\ to\ do\ so\ will\ cause\ incorrect\ parameter\ dispatching! 1 9 0 12 #fcfcfc #fc0400 0;
#X msg 112 362 symbol this\ is\ my\ label!;
#X text 296 357 The label parameter must be sent separately to Inlet 1 (rightmost inlet). The message must be prepended with the "symbol" identifier \, and the escape character () needs to be set in the message:, f 68;
#X text 102 286 All parameters EXCEPT label can be sent in a single message to Inlet 0 (leftmost inlet) like below (and this can be copied and pasted for easy initializing formatting)., f 89;
#X restore 326 378 pd \$0-how-to-set-values-externally;
#X msg 326 336 vis 1;
#X obj 326 357 s pd-\$0-how-to-set-values-externally;
#X obj 120 263 bng 15 250 50 0 empty empty empty 17 7 0 10 #fcfcfc #000000 #000000;
#X text 141 263 How to set canvas values externally;
#X text 891 18 All left-inlet messages;
#X text 984 47 Label text;
#X msg 636 48 symbol This\ is\ my\ label?;
#X obj 587 47 inlet;
#X obj 632 184 cnv 5 5 5 empty empty ↴ -3 3 0 24 #fcfcfc #606060 0;
#X connect 0 0 2 6;
#X connect 1 0 2 11;
#X connect 3 0 2 10;
#X connect 4 0 2 3;
#X connect 5 0 2 4;
#X connect 6 0 2 7;
#X connect 7 0 2 8;
#X connect 8 0 2 2;
#X connect 9 0 2 0;
#X connect 10 0 2 5;
#X connect 11 0 2 9;
#X connect 12 0 2 1;
#X connect 14 0 16 0;
#X connect 16 0 12 0;
#X connect 16 1 17 0;
#X connect 16 2 8 0;
#X connect 16 3 4 0;
#X connect 16 4 5 0;
#X connect 16 5 10 0;
#X connect 16 6 0 0;
#X connect 16 7 6 0;
#X connect 16 8 7 0;
#X connect 16 9 3 0;
#X connect 16 10 1 0;
#X connect 17 0 9 0;
#X connect 20 0 16 0;
#X connect 22 0 23 0;
#X connect 24 0 22 0;
#X connect 28 0 11 0;
#X connect 29 0 11 0;
#X coords 0 -1 1 1 300 190 2 100 100;
#X restore 25 27 pd graph;
#X obj 25 1 inlet;
#X connect 0 0 1 1;
#X connect 2 0 1 0;
#X restore 343 1075 pd canvas-ctrl;
#N canvas 673 23 349 258 canvas-ctrl 0;
#X obj 291 1 inlet;
#N canvas 248 270 1089 459 graph 0;
#X floatatom 180 241 5 0 0 0 Lbl-Sz - - 0;
#X floatatom 273 241 5 0 29 0 Lbl-Clr - - 0;
#N canvas 32 23 1408 389 label-properties 0;
#X floatatom 314 72 3 18 100 0 - - - 0;
#X msg 314 99 size \$1;
#X obj 400 121 pack 100 60, f 18;
#X obj 491 93 t b f;
#X floatatom 491 68 4 18 100 0 - - - 0;
#X floatatom 400 68 4 18 100 0 - - - 0;
#X msg 400 148 vis_size \$1 \$2;
#X text 442 41 w/x;
#X text 532 41 h/y;
#X floatatom 589 116 4 0 3 0 - - - 0;
#X obj 721 135 t b f;
#X floatatom 721 116 5 5 50 0 - - - 0;
#X msg 589 185 label_font \$1 \$2;
#X text 632 41 type;
#X text 760 40 size;
#X obj 589 64 vradio 15 1 0 3 empty empty empty 0 -8 0 10 #fcfcfc #000000 #000000 0;
#X text 605 63 DejaVu Sans Mono;
#X text 605 78 Helvetica;
#X text 606 93 Times;
#X floatatom 817 71 4 -100 250 0 - - - 0;
#X obj 889 98 t b f;
#X floatatom 889 71 5 -150 150 0 - - - 0;
#X msg 817 148 label_pos \$1 \$2;
#X text 856 41 x;
#X text 929 41 y;
#X obj 817 126 pack 17 20, f 17;
#X obj 589 164 pack 0 25, f 24;
#X msg 973 129 label \$1;
#X floatatom 1191 70 3 0 29 1 bgColor - - 0;
#X floatatom 1295 70 3 0 29 1 lblColor - - 0;
#X obj 1295 92 t b f;
#X msg 1191 145 color \$1 \$2 \$3;
#X obj 1191 124 pack 1 22 22, f 14;
#X text 1170 18 Color Presets (0-29):;
#X obj 24 42 inlet;
#X obj 8 42 cnv 14 14 14 empty empty 0 4 8 0 12 #606060 #dcdcdc 0;
#X symbolatom 24 210 10 0 0 0 - - - 0;
#X obj 588 330 send, f 13;
#X obj 400 42 inlet;
#X obj 314 42 inlet;
#X obj 491 42 inlet;
#X obj 155 42 cnv 14 14 14 empty empty 1 4 8 0 12 #606060 #dcdcdc 0;
#X obj 297 42 cnv 14 14 14 empty empty 2 4 8 0 12 #606060 #dcdcdc 0;
#X obj 384 42 cnv 14 14 14 empty empty 3 4 8 0 12 #606060 #dcdcdc 0;
#X obj 721 42 inlet;
#X obj 589 42 inlet;
#X obj 817 42 inlet;
#X obj 476 42 cnv 14 14 14 empty empty 4 4 8 0 12 #606060 #dcdcdc 0;
#X obj 573 42 cnv 14 14 14 empty empty 5 4 8 0 12 #606060 #dcdcdc 0;
#X obj 703 42 cnv 14 14 14 empty empty 6 4 8 0 12 #606060 #dcdcdc 0;
#X text 315 18 Size;
#X text 421 18 Visible Size;
#X text 635 18 Label Font;
#X text 824 18 Label Offset;
#X obj 889 42 inlet;
#X obj 800 42 cnv 14 14 14 empty empty 7 4 8 0 12 #606060 #dcdcdc 0;
#X msg 1052 89 symbol my\ label;
#X symbolatom 973 92 10 0 0 0 - - - 0;
#X obj 973 42 inlet;
#X obj 872 42 cnv 14 14 14 empty empty 8 4 8 0 12 #606060 #dcdcdc 0;
#X msg 973 70 symbol \$1;
#X text 1007 18 Label Text;
#X obj 1191 42 inlet;
#X obj 958 42 cnv 14 14 14 empty empty 9 4 8 0 12 #606060 #dcdcdc 0;
#X obj 1295 42 inlet;
#X obj 1174 42 cnv 14 14 14 empty empty 10 0 8 0 12 #606060 #dcdcdc 0;
#X text 0 18 Canvas Name;
#X obj 284 2 cnv 5 1 260 empty empty empty 20 12 0 14 #7c7c7c #404040 0;
#X obj 738 322 cnv 2 700 40 empty \$0-test_canvas tdh.ac.eventCreation.ui 20 15 0 16 #a0a0a0 #202020 0;
#X obj 415 328 s \$0-test_canvas;
#X obj 210 187 spigot;
#X obj 170 88 tgl 15 0 empty empty empty 17 7 0 10 #fcfcfc #000000 #000000 0 1;
#X obj 249 134 == 1;
#X obj 101 135 == 0;
#X obj 144 134 list append \$0;
#X msg 144 157 symbol \$2-\$1;
#X msg 24 136 symbol \$1;
#X obj 24 167 spigot;
#X obj 170 42 inlet;
#X obj 1279 42 cnv 14 14 14 empty empty 11 0 8 0 12 #606060 #dcdcdc 0;
#X text 136 18 Add "\$0" option;
#X obj 374 2 cnv 5 1 260 empty empty empty 20 12 0 14 #7c7c7c #404040 0;
#X obj 561 2 cnv 5 1 260 empty empty empty 20 12 0 14 #7c7c7c #404040 0;
#X obj 791 2 cnv 5 1 260 empty empty empty 20 12 0 14 #7c7c7c #404040 0;
#X obj 944 2 cnv 5 1 260 empty empty empty 20 12 0 14 #7c7c7c #404040 0;
#X obj 1164 2 cnv 5 1 260 empty empty empty 20 12 0 14 #7c7c7c #404040 0;
#X connect 0 0 1 0;
#X connect 1 0 37 0;
#X connect 1 0 69 0;
#X connect 2 0 6 0;
#X connect 3 0 2 0;
#X connect 3 1 2 1;
#X connect 4 0 3 0;
#X connect 5 0 2 0;
#X connect 6 0 37 0;
#X connect 6 0 69 0;
#X connect 9 0 26 0;
#X connect 10 0 26 0;
#X connect 10 1 26 1;
#X connect 11 0 10 0;
#X connect 12 0 37 0;
#X connect 12 0 69 0;
#X connect 15 0 9 0;
#X connect 19 0 25 0;
#X connect 20 0 25 0;
#X connect 20 1 25 1;
#X connect 21 0 20 0;
#X connect 22 0 37 0;
#X connect 22 0 69 0;
#X connect 25 0 22 0;
#X connect 26 0 12 0;
#X connect 27 0 37 0;
#X connect 27 0 69 0;
#X connect 28 0 32 0;
#X connect 29 0 30 0;
#X connect 30 0 32 0;
#X connect 30 1 32 2;
#X connect 31 0 37 0;
#X connect 31 0 69 0;
#X connect 32 0 31 0;
#X connect 34 0 74 0;
#X connect 34 0 76 0;
#X connect 36 0 37 1;
#X connect 38 0 5 0;
#X connect 39 0 0 0;
#X connect 40 0 4 0;
#X connect 44 0 11 0;
#X connect 45 0 15 0;
#X connect 46 0 19 0;
#X connect 54 0 21 0;
#X connect 56 0 27 0;
#X connect 57 0 27 0;
#X connect 58 0 60 0;
#X connect 60 0 57 0;
#X connect 62 0 28 0;
#X connect 64 0 29 0;
#X connect 70 0 36 0;
#X connect 71 0 72 0;
#X connect 71 0 73 0;
#X connect 72 0 70 1;
#X connect 73 0 77 1;
#X connect 74 0 75 0;
#X connect 75 0 70 0;
#X connect 76 0 77 0;
#X connect 77 0 36 0;
#X connect 78 0 71 0;
#X restore 6 354 pd label-properties;
#X f 45;
#X floatatom 273 219 5 0 29 0 BG-Clr - - 0;
#X floatatom 180 174 5 0 0 0 Vis-Sz-W - - 0;
#X floatatom 181 198 5 0 0 0 Vis-Sz-H - - 0;
#X floatatom 271 150 5 0 0 0 Lbl-X - - 0;
#X floatatom 272 174 5 0 0 0 Lbl-Y - - 0;
#X floatatom 180 150 5 0 0 0 Size - - 0;
#X symbolatom 214 127 10 0 0 0 CnvReceiveSymbol - - 0;
#X floatatom 181 219 5 0 2 0 Lbl-Fon - - 0;
#X symbolatom 274 195 10 0 0 0 Lbl-Txt - - 0;
#X obj 295 128 tgl 15 0 empty empty Append_0 20 7 0 10 #fcfcfc #fc8000 #000000 0 1;
#X text 194 103 Label Properties;
#X obj 28 18 inlet;
#X obj 414 223 cnv 15 500 30 empty \$0-myCanvas This\ is\ my\ label? 9 13 0 18 #e0e0e0 #606060 0;
#X obj 28 54 route doll rec size visw vish lblfon lblsz lblx lbly bgclr lblclr, f 66;
#X obj 56 93 symbol;
#X text 6 4 _;
#X text 479 173 dollarsign0-myCanvas;
#X msg 74 18 doll 1 \, rec myCanvas \, size 15 \, visw 50 \, vish 60 \, lblfon 0 \, lblsz 18 \, lblx 9 \, lbly 13 \, bgclr 10 \, lblclr 21, f 106;
#N canvas 240 66 752 410 \$0-how-to-set-values-externally 0;
#X text 112 49 doll [0/1] - toggle on appending "\$0-" at the start of the recieve symbol, f 85;
#X text 112 102 visw [float] - the visible width of the canvas in pixels, f 85;
#X text 112 85 size [float] - the size of the clickable/dragable portion of the canvas in pixels, f 85;
#X text 112 122 vish [float] - the visible height of the canvas in pixels, f 85;
#X text 111 141 lblfon [0/1/2] - font designation for the canvas' label \, with [0] for Menlo \, [1] for, f 89;
#X text 131 155 Helvetica \, [2] for Times. Note that these fonts may be different on Windows or Linux, f 84;
#X text 111 173 lblsz [float] - font size designation for the canvas' label, f 85;
#X text 111 213 lbly [float] - y offset in pixels from the top left corner of the canvas, f 85;
#X text 111 193 lblx [float] - x offset (horizontal) in pixels from the top left corner of the canvas, f 85;
#X text 4 29 To set the values for your canvas object externally \, send messages with the following signifiers to the 0 (leftmost) inlet:, f 124;
#X msg 31 336 doll 1 \, rec myCanvas \, size 15 \, visw 500 \, vish 30 \, lblfon 0 \, lblsz 18 \, lblx 9 \, lbly 13 \, bgclr 10 \, lblclr 21, f 106;
#X text 111 67 rec [symbol] - receive symbol for the canvas, f 85;
#X obj 90 241 cnv 5 5 5 empty \$0-canvas-format-helper-boldstatement1 Please\ note\ that\ the\ $-0\ designation\ (1\ or\ 0)\ MUST\ be\ sent\ first\,\ followed\ by\ the\ canvas\  1 9 0 12 #fcfcfc #fc0400 0;
#N canvas 2423 143 808 250 init 0;
#X msg 30 102 label \$1;
#X msg 419 120 label \$1;
#X obj 29 147 s \$0-canvas-format-helper-boldstatement1;
#X obj 418 164 s \$0-canvas-format-helper-boldstatement2;
#X obj 233 15 loadbang;
#X msg 420 51 symbol receive\ symbol!\ Failure\ to\ do\ so\ will\ cause\ incorrect\ parameter\ dispatching!;
#X msg 26 43 symbol Please\\\ note\\\ that\\\ the\\\ $-0\\\ designation\\\ (1\\\ or\\\ 0)\\\ MUST\\\ be\\\ sent\\\ first\\\,\\\ followed\\\ by\\\ the\\\ canvas\\\ ;
#X connect 0 0 2 0;
#X connect 1 0 3 0;
#X connect 4 0 5 0;
#X connect 4 0 6 0;
#X connect 5 0 1 0;
#X connect 6 0 0 0;
#X restore 659 9 pd init;
#X obj 90 257 cnv 5 5 5 empty \$0-canvas-format-helper-boldstatement2 receive\ symbol!\ Failure\ to\ do\ so\ will\ cause\ incorrect\ parameter\ dispatching! 1 9 0 12 #fcfcfc #fc0400 0;
#X msg 112 362 symbol this\ is\ my\ label!;
#X text 296 357 The label parameter must be sent separately to Inlet 1 (rightmost inlet). The message must be prepended with the "symbol" identifier \, and the escape character () needs to be set in the message:, f 68;
#X text 102 286 All parameters EXCEPT label can be sent in a single message to Inlet 0 (leftmost inlet) like below (and this can be copied and pasted for easy initializing formatting)., f 89;
#X restore 326 378 pd \$0-how-to-set-values-externally;
#X msg 326 336 vis 1;
#X obj 326 357 s pd-\$0-how-to-set-values-externally;
#X obj 120 263 bng 15 250 50 0 empty empty empty 17 7 0 10 #fcfcfc #000000 #000000;
#X text 141 263 How to set canvas values externally;
#X text 891 18 All left-inlet messages;
#X text 984 47 Label text;
#X msg 636 48 symbol This\ is\ my\ label?;
#X obj 587 47 inlet;
#X obj 632 184 cnv 5 5 5 empty empty ↴ -3 3 0 24 #fcfcfc #606060 0;
#X connect 0 0 2 6;
#X connect 1 0 2 11;
#X connect 3 0 2 10;
#X connect 4 0 2 3;
#X connect 5 0 2 4;
#X connect 6 0 2 7;
#X connect 7 0 2 8;
#X connect 8 0 2 2;
#X connect 9 0 2 0;
#X connect 10 0 2 5;
#X connect 11 0 2 9;
#X connect 12 0 2 1;
#X connect 14 0 16 0;
#X connect 16 0 12 0;
#X connect 16 1 17 0;
#X connect 16 2 8 0;
#X connect 16 3 4 0;
#X connect 16 4 5 0;
#X connect 16 5 10 0;
#X connect 16 6 0 0;
#X connect 16 7 6 0;
#X connect 16 8 7 0;
#X connect 16 9 3 0;
#X connect 16 10 1 0;
#X connect 17 0 9 0;
#X connect 20 0 16 0;
#X connect 22 0 23 0;
#X connect 24 0 22 0;
#X connect 28 0 11 0;
#X connect 29 0 11 0;
#X coords 0 -1 1 1 300 190 2 100 100;
#X restore 25 27 pd graph;
#X obj 25 1 inlet;
#X connect 0 0 1 1;
#X connect 2 0 1 0;
#X restore 343 1251 pd canvas-ctrl;
#X obj 438 191 inlet;
#X obj 692 171 inlet;
#X text 735 170 Width;
#X obj 692 196 f 501;
#X msg 692 219 visw \$1;
#X text 481 189 Abstraction Name;
#X text 459 344 <-- Open to actively control canvas values \, or to see how to set values externally (as is done here), f 103;
#X obj 438 216 symbol;
#X obj 3 15 cnv 5 5 5 empty empty | 0 0 0 14 #fcfcfc #404040 0;
#X text 51 6 This is where the canvases get set. A VERY long list of values get sent to the subpatch [pd canvas-ctrl]. These properties can be addessed singularly through a key symbol (such as "size") and then a value., f 187;
#X text 51 47 [pd canvas-ctrl] also has a GUI which you can access by clicking on the object box. This is a good way to figure out canvas values., f 132;
#X text 51 104 Note that the canvas LABEL cannot be set with this list \, and must be set via the right inlet., f 95;
#X text 51 75 You can also click on the object box [pd how-to-use-canvas-ctrl] to see how to set canvas values with a message (currently the only way to save canvas values), f 160;
#X obj 343 279 loadbang;
#X obj 343 409 loadbang;
#X obj 692 244 s \$0-width;
#X obj 448 369 r \$0-width;
#X obj 450 465 r \$0-width;
#X obj 451 595 r \$0-width;
#X obj 343 527 loadbang;
#X obj 452 1075 r \$0-width;
#X obj 343 999 loadbang;
#X obj 453 1225 r \$0-width;
#X obj 343 1147 loadbang;
#X obj 3 985 cnv 5 5 5 empty empty | 0 0 0 14 #fcfcfc #404040 0;
#X obj 89 269 cnv 15 1200 1 empty empty Title 0 -15 0 18 #606060 #404040 0;
#X text 137 276 Canvas receive name:;
#X obj 88 398 cnv 15 1200 1 empty empty Section-Divider 0 -15 0 18 #606060 #404040 0;
#X obj 88 518 cnv 15 1200 1 empty empty Arguments 0 -15 0 18 #606060 #404040 0;
#X obj 88 987 cnv 15 1200 1 empty empty Notes 0 -15 0 18 #606060 #404040 0;
#X obj 88 1128 cnv 15 1200 1 empty empty Rev-History 0 -15 0 18 #606060 #404040 0;
#X obj 52 139 cnv 15 180 18 empty empty empty 20 12 0 14 #c4c4fc #404040 0;
#N canvas 1440 152 910 549 how-to-use-canvas-ctrl 0;
#X text 112 139 doll [0/1] - toggle on appending "\$0-" at the start of the recieve symbol, f 85;
#X text 112 192 visw [float] - the visible width of the canvas in pixels, f 85;
#X text 112 175 size [float] - the size of the clickable/dragable portion of the canvas in pixels, f 85;
#X text 112 212 vish [float] - the visible height of the canvas in pixels, f 85;
#X text 111 231 lblfon [0/1/2] - font designation for the canvas' label \, with [0] for Menlo \, [1] for, f 89;
#X text 131 245 Helvetica \, [2] for Times. Note that these fonts may be different on Windows or Linux, f 84;
#X text 111 263 lblsz [float] - font size designation for the canvas' label, f 85;
#X text 111 303 lbly [float] - y offset in pixels from the top left corner of the canvas, f 85;
#X text 111 283 lblx [float] - x offset (horizontal) in pixels from the top left corner of the canvas, f 85;
#X text 4 119 To set the values for your canvas object externally \, send messages with the following signifiers to the 0 (leftmost) inlet:, f 124;
#X msg 31 426 doll 1 \, rec myCanvas \, size 15 \, visw 500 \, vish 30 \, lblfon 0 \, lblsz 18 \, lblx 9 \, lbly 13 \, bgclr 10 \, lblclr 21, f 106;
#X text 111 157 rec [symbol] - receive symbol for the canvas, f 85;
#X obj 90 331 cnv 5 5 5 empty \$0-canvas-format-helper-boldstatement1 Please\ note\ that\ the\ $-0\ designation\ (1\ or\ 0)\ MUST\ be\ sent\ first\,\ followed\ by\ the\ canvas\  1 9 0 12 #fcfcfc #fc0400 0;
#N canvas 632 143 808 250 init 0;
#X msg 126 74 label \$1;
#X msg 489 71 label \$1;
#X obj 126 97 s \$0-canvas-format-helper-boldstatement1;
#X obj 489 94 s \$0-canvas-format-helper-boldstatement2;
#X obj 26 17 loadbang;
#X msg 489 41 symbol receive\ symbol!\ Failure\ to\ do\ so\ will\ cause\ incorrect\ parameter\ dispatching!;
#X msg 126 43 symbol Please\\\ note\\\ that\\\ the\\\ $-0\\\ designation\\\ (1\\\ or\\\ 0)\\\ MUST\\\ be\\\ sent\\\ first\\\,\\\ followed\\\ by\\\ the\\\ canvas\\\ ;
#X obj 98 203 s \$0-canvas-format-helper-title;
#X msg 54 180 label \$1;
#X msg 54 148 symbol Using\ [pd\ canvas-ctrl]\ and\ setting\ values\ externally;
#X connect 0 0 2 0;
#X connect 1 0 3 0;
#X connect 4 0 5 0;
#X connect 4 0 6 0;
#X connect 5 0 1 0;
#X connect 6 0 0 0;
#X connect 8 0 7 0;
#X connect 9 0 8 0;
#X restore 704 13 pd init;
#X obj 90 347 cnv 5 5 5 empty \$0-canvas-format-helper-boldstatement2 receive\ symbol!\ Failure\ to\ do\ so\ will\ cause\ incorrect\ parameter\ dispatching! 1 9 0 12 #fcfcfc #fc0400 0;
#X msg 112 452 symbol this\ is\ my\ label!;
#X text 296 447 The label parameter must be sent separately to Inlet 1 (rightmost inlet). The message must be prepended with the "symbol" identifier \, and the escape character () needs to be set in the message:, f 68;
#X text 102 376 All parameters EXCEPT label can be sent in a single message to Inlet 0 (leftmost inlet) like below (and this can be copied and pasted for easy initializing formatting)., f 89;
#X obj 148 18 cnv 5 5 5 empty \$0-canvas-format-helper-title Using\ [pd\ canvas-ctrl]\ and\ setting\ values\ externally 1 9 0 12 #fcfcfc #fc0400 0;
#X text 6 43 By inserting a canvas into your patch \, giving it a RECEIVE NAME (via properties) \, inserting the [canvas-ctrl] object into your patch \, and finally telling [canvas-ctrl] the receive name via the message [rec "receive name"( to the left inlet (type the text between "[(" into a message box \, no quotes \, substituting "receive name" for your name. *IF* your receive name has "\$0-" as a prefix (common practice for [send] and [receive] names) \, you need to FIRST send [canvas-ctrl] the message [doll 1( which tells the object that the canbas name has "\$0-" at the start of its receive name., f 123;
#X restore 52 140 pd how-to-use-canvas-ctrl;
#X text 268 140 Click here to explore how to change the canvas properties with a message, f 72;
#X obj 244 145 cnv 5 5 5 empty empty ⟵ -3 3 0 30 #fcfcfc #9c00fc 0;
#X text 131 301 \$0-abstrPatchTitleBar;
#X msg 343 1028 doll 1 \, rec abstrPatchSecLabelNotes \, size 2 \, visw 501 \, vish 3 \, lblfon 0 \, lblsz 16 \, lblx 20 \, lbly 15 \, bgclr 1 \, lblclr 12, f 123;
#X text 127 539 \$0-abstrPatchSecLabelArgs;
#X msg 343 1179 doll 1 \, rec abstrPatchSecLabelRevHist \, size 2 \, visw 501 \, vish 3 \, lblfon 0 \, lblsz 16 \, lblx 20 \, lbly 15 \, bgclr 1 \, lblclr 12, f 123;
#X msg 438 1202 symbol Revision\ History;
#X msg 438 1052 symbol Notes;
#N canvas 673 23 349 258 canvas-ctrl 0;
#X obj 291 1 inlet;
#N canvas 248 270 1089 459 graph 0;
#X floatatom 180 241 5 0 0 0 Lbl-Sz - - 0;
#X floatatom 273 241 5 0 29 0 Lbl-Clr - - 0;
#N canvas 32 23 1408 389 label-properties 0;
#X floatatom 314 72 3 18 100 0 - - - 0;
#X msg 314 99 size \$1;
#X obj 400 121 pack 100 60, f 18;
#X obj 491 93 t b f;
#X floatatom 491 68 4 18 100 0 - - - 0;
#X floatatom 400 68 4 18 100 0 - - - 0;
#X msg 400 148 vis_size \$1 \$2;
#X text 442 41 w/x;
#X text 532 41 h/y;
#X floatatom 589 116 4 0 3 0 - - - 0;
#X obj 721 135 t b f;
#X floatatom 721 116 5 5 50 0 - - - 0;
#X msg 589 185 label_font \$1 \$2;
#X text 632 41 type;
#X text 760 40 size;
#X obj 589 64 vradio 15 1 0 3 empty empty empty 0 -8 0 10 #fcfcfc #000000 #000000 0;
#X text 605 63 DejaVu Sans Mono;
#X text 605 78 Helvetica;
#X text 606 93 Times;
#X floatatom 817 71 4 -100 250 0 - - - 0;
#X obj 889 98 t b f;
#X floatatom 889 71 5 -150 150 0 - - - 0;
#X msg 817 148 label_pos \$1 \$2;
#X text 856 41 x;
#X text 929 41 y;
#X obj 817 126 pack 17 20, f 17;
#X obj 589 164 pack 0 25, f 24;
#X msg 973 129 label \$1;
#X floatatom 1191 70 3 0 29 1 bgColor - - 0;
#X floatatom 1295 70 3 0 29 1 lblColor - - 0;
#X obj 1295 92 t b f;
#X msg 1191 145 color \$1 \$2 \$3;
#X obj 1191 124 pack 1 22 22, f 14;
#X text 1170 18 Color Presets (0-29):;
#X obj 24 42 inlet;
#X obj 8 42 cnv 14 14 14 empty empty 0 4 8 0 12 #606060 #dcdcdc 0;
#X symbolatom 24 210 10 0 0 0 - - - 0;
#X obj 588 330 send, f 13;
#X obj 400 42 inlet;
#X obj 314 42 inlet;
#X obj 491 42 inlet;
#X obj 155 42 cnv 14 14 14 empty empty 1 4 8 0 12 #606060 #dcdcdc 0;
#X obj 297 42 cnv 14 14 14 empty empty 2 4 8 0 12 #606060 #dcdcdc 0;
#X obj 384 42 cnv 14 14 14 empty empty 3 4 8 0 12 #606060 #dcdcdc 0;
#X obj 721 42 inlet;
#X obj 589 42 inlet;
#X obj 817 42 inlet;
#X obj 476 42 cnv 14 14 14 empty empty 4 4 8 0 12 #606060 #dcdcdc 0;
#X obj 573 42 cnv 14 14 14 empty empty 5 4 8 0 12 #606060 #dcdcdc 0;
#X obj 703 42 cnv 14 14 14 empty empty 6 4 8 0 12 #606060 #dcdcdc 0;
#X text 315 18 Size;
#X text 421 18 Visible Size;
#X text 635 18 Label Font;
#X text 824 18 Label Offset;
#X obj 889 42 inlet;
#X obj 800 42 cnv 14 14 14 empty empty 7 4 8 0 12 #606060 #dcdcdc 0;
#X msg 1052 89 symbol my\ label;
#X symbolatom 973 92 10 0 0 0 - - - 0;
#X obj 973 42 inlet;
#X obj 872 42 cnv 14 14 14 empty empty 8 4 8 0 12 #606060 #dcdcdc 0;
#X msg 973 70 symbol \$1;
#X text 1007 18 Label Text;
#X obj 1191 42 inlet;
#X obj 958 42 cnv 14 14 14 empty empty 9 4 8 0 12 #606060 #dcdcdc 0;
#X obj 1295 42 inlet;
#X obj 1174 42 cnv 14 14 14 empty empty 10 0 8 0 12 #606060 #dcdcdc 0;
#X text 0 18 Canvas Name;
#X obj 284 2 cnv 5 1 260 empty empty empty 20 12 0 14 #7c7c7c #404040 0;
#X obj 738 322 cnv 2 700 40 empty \$0-test_canvas tdh.ac.eventCreation.ui 20 15 0 16 #a0a0a0 #202020 0;
#X obj 415 328 s \$0-test_canvas;
#X obj 210 187 spigot;
#X obj 170 88 tgl 15 0 empty empty empty 17 7 0 10 #fcfcfc #000000 #000000 0 1;
#X obj 249 134 == 1;
#X obj 101 135 == 0;
#X obj 144 134 list append \$0;
#X msg 144 157 symbol \$2-\$1;
#X msg 24 136 symbol \$1;
#X obj 24 167 spigot;
#X obj 170 42 inlet;
#X obj 1279 42 cnv 14 14 14 empty empty 11 0 8 0 12 #606060 #dcdcdc 0;
#X text 136 18 Add "\$0" option;
#X obj 374 2 cnv 5 1 260 empty empty empty 20 12 0 14 #7c7c7c #404040 0;
#X obj 561 2 cnv 5 1 260 empty empty empty 20 12 0 14 #7c7c7c #404040 0;
#X obj 791 2 cnv 5 1 260 empty empty empty 20 12 0 14 #7c7c7c #404040 0;
#X obj 944 2 cnv 5 1 260 empty empty empty 20 12 0 14 #7c7c7c #404040 0;
#X obj 1164 2 cnv 5 1 260 empty empty empty 20 12 0 14 #7c7c7c #404040 0;
#X connect 0 0 1 0;
#X connect 1 0 37 0;
#X connect 1 0 69 0;
#X connect 2 0 6 0;
#X connect 3 0 2 0;
#X connect 3 1 2 1;
#X connect 4 0 3 0;
#X connect 5 0 2 0;
#X connect 6 0 37 0;
#X connect 6 0 69 0;
#X connect 9 0 26 0;
#X connect 10 0 26 0;
#X connect 10 1 26 1;
#X connect 11 0 10 0;
#X connect 12 0 37 0;
#X connect 12 0 69 0;
#X connect 15 0 9 0;
#X connect 19 0 25 0;
#X connect 20 0 25 0;
#X connect 20 1 25 1;
#X connect 21 0 20 0;
#X connect 22 0 37 0;
#X connect 22 0 69 0;
#X connect 25 0 22 0;
#X connect 26 0 12 0;
#X connect 27 0 37 0;
#X connect 27 0 69 0;
#X connect 28 0 32 0;
#X connect 29 0 30 0;
#X connect 30 0 32 0;
#X connect 30 1 32 2;
#X connect 31 0 37 0;
#X connect 31 0 69 0;
#X connect 32 0 31 0;
#X connect 34 0 74 0;
#X connect 34 0 76 0;
#X connect 36 0 37 1;
#X connect 38 0 5 0;
#X connect 39 0 0 0;
#X connect 40 0 4 0;
#X connect 44 0 11 0;
#X connect 45 0 15 0;
#X connect 46 0 19 0;
#X connect 54 0 21 0;
#X connect 56 0 27 0;
#X connect 57 0 27 0;
#X connect 58 0 60 0;
#X connect 60 0 57 0;
#X connect 62 0 28 0;
#X connect 64 0 29 0;
#X connect 70 0 36 0;
#X connect 71 0 72 0;
#X connect 71 0 73 0;
#X connect 72 0 70 1;
#X connect 73 0 77 1;
#X connect 74 0 75 0;
#X connect 75 0 70 0;
#X connect 76 0 77 0;
#X connect 77 0 36 0;
#X connect 78 0 71 0;
#X restore 6 354 pd label-properties;
#X f 45;
#X floatatom 273 219 5 0 29 0 BG-Clr - - 0;
#X floatatom 180 174 5 0 0 0 Vis-Sz-W - - 0;
#X floatatom 181 198 5 0 0 0 Vis-Sz-H - - 0;
#X floatatom 271 150 5 0 0 0 Lbl-X - - 0;
#X floatatom 272 174 5 0 0 0 Lbl-Y - - 0;
#X floatatom 180 150 5 0 0 0 Size - - 0;
#X symbolatom 214 127 10 0 0 0 CnvReceiveSymbol - - 0;
#X floatatom 181 219 5 0 2 0 Lbl-Fon - - 0;
#X symbolatom 274 195 10 0 0 0 Lbl-Txt - - 0;
#X obj 295 128 tgl 15 0 empty empty Append_0 20 7 0 10 #fcfcfc #fc8000 #000000 0 1;
#X text 194 103 Label Properties;
#X obj 28 18 inlet;
#X obj 414 223 cnv 15 500 30 empty \$0-myCanvas This\ is\ my\ label? 9 13 0 18 #e0e0e0 #606060 0;
#X obj 28 54 route doll rec size visw vish lblfon lblsz lblx lbly bgclr lblclr, f 66;
#X obj 56 93 symbol;
#X text 6 4 _;
#X text 479 173 dollarsign0-myCanvas;
#X msg 74 18 doll 1 \, rec myCanvas \, size 15 \, visw 50 \, vish 60 \, lblfon 0 \, lblsz 18 \, lblx 9 \, lbly 13 \, bgclr 10 \, lblclr 21, f 106;
#N canvas 240 66 752 410 \$0-how-to-set-values-externally 0;
#X text 112 49 doll [0/1] - toggle on appending "\$0-" at the start of the recieve symbol, f 85;
#X text 112 102 visw [float] - the visible width of the canvas in pixels, f 85;
#X text 112 85 size [float] - the size of the clickable/dragable portion of the canvas in pixels, f 85;
#X text 112 122 vish [float] - the visible height of the canvas in pixels, f 85;
#X text 111 141 lblfon [0/1/2] - font designation for the canvas' label \, with [0] for Menlo \, [1] for, f 89;
#X text 131 155 Helvetica \, [2] for Times. Note that these fonts may be different on Windows or Linux, f 84;
#X text 111 173 lblsz [float] - font size designation for the canvas' label, f 85;
#X text 111 213 lbly [float] - y offset in pixels from the top left corner of the canvas, f 85;
#X text 111 193 lblx [float] - x offset (horizontal) in pixels from the top left corner of the canvas, f 85;
#X text 4 29 To set the values for your canvas object externally \, send messages with the following signifiers to the 0 (leftmost) inlet:, f 124;
#X msg 31 336 doll 1 \, rec myCanvas \, size 15 \, visw 500 \, vish 30 \, lblfon 0 \, lblsz 18 \, lblx 9 \, lbly 13 \, bgclr 10 \, lblclr 21, f 106;
#X text 111 67 rec [symbol] - receive symbol for the canvas, f 85;
#X obj 90 241 cnv 5 5 5 empty \$0-canvas-format-helper-boldstatement1 Please\ note\ that\ the\ $-0\ designation\ (1\ or\ 0)\ MUST\ be\ sent\ first\,\ followed\ by\ the\ canvas\  1 9 0 12 #fcfcfc #fc0400 0;
#N canvas 2423 143 808 250 init 0;
#X msg 30 102 label \$1;
#X msg 419 120 label \$1;
#X obj 29 147 s \$0-canvas-format-helper-boldstatement1;
#X obj 418 164 s \$0-canvas-format-helper-boldstatement2;
#X obj 233 15 loadbang;
#X msg 420 51 symbol receive\ symbol!\ Failure\ to\ do\ so\ will\ cause\ incorrect\ parameter\ dispatching!;
#X msg 26 43 symbol Please\\\ note\\\ that\\\ the\\\ $-0\\\ designation\\\ (1\\\ or\\\ 0)\\\ MUST\\\ be\\\ sent\\\ first\\\,\\\ followed\\\ by\\\ the\\\ canvas\\\ ;
#X connect 0 0 2 0;
#X connect 1 0 3 0;
#X connect 4 0 5 0;
#X connect 4 0 6 0;
#X connect 5 0 1 0;
#X connect 6 0 0 0;
#X restore 659 9 pd init;
#X obj 90 257 cnv 5 5 5 empty \$0-canvas-format-helper-boldstatement2 receive\ symbol!\ Failure\ to\ do\ so\ will\ cause\ incorrect\ parameter\ dispatching! 1 9 0 12 #fcfcfc #fc0400 0;
#X msg 112 362 symbol this\ is\ my\ label!;
#X text 296 357 The label parameter must be sent separately to Inlet 1 (rightmost inlet). The message must be prepended with the "symbol" identifier \, and the escape character () needs to be set in the message:, f 68;
#X text 102 286 All parameters EXCEPT label can be sent in a single message to Inlet 0 (leftmost inlet) like below (and this can be copied and pasted for easy initializing formatting)., f 89;
#X restore 326 378 pd \$0-how-to-set-values-externally;
#X msg 326 336 vis 1;
#X obj 326 357 s pd-\$0-how-to-set-values-externally;
#X obj 120 263 bng 15 250 50 0 empty empty empty 17 7 0 10 #fcfcfc #000000 #000000;
#X text 141 263 How to set canvas values externally;
#X text 891 18 All left-inlet messages;
#X text 984 47 Label text;
#X msg 636 48 symbol This\ is\ my\ label?;
#X obj 587 47 inlet;
#X obj 632 184 cnv 5 5 5 empty empty ↴ -3 3 0 24 #fcfcfc #606060 0;
#X connect 0 0 2 6;
#X connect 1 0 2 11;
#X connect 3 0 2 10;
#X connect 4 0 2 3;
#X connect 5 0 2 4;
#X connect 6 0 2 7;
#X connect 7 0 2 8;
#X connect 8 0 2 2;
#X connect 9 0 2 0;
#X connect 10 0 2 5;
#X connect 11 0 2 9;
#X connect 12 0 2 1;
#X connect 14 0 16 0;
#X connect 16 0 12 0;
#X connect 16 1 17 0;
#X connect 16 2 8 0;
#X connect 16 3 4 0;
#X connect 16 4 5 0;
#X connect 16 5 10 0;
#X connect 16 6 0 0;
#X connect 16 7 6 0;
#X connect 16 8 7 0;
#X connect 16 9 3 0;
#X connect 16 10 1 0;
#X connect 17 0 9 0;
#X connect 20 0 16 0;
#X connect 22 0 23 0;
#X connect 24 0 22 0;
#X connect 28 0 11 0;
#X connect 29 0 11 0;
#X coords 0 -1 1 1 300 190 2 100 100;
#X restore 25 27 pd graph;
#X obj 25 1 inlet;
#X connect 0 0 1 1;
#X connect 2 0 1 0;
#X restore 343 725 pd canvas-ctrl;
#X obj 451 725 r \$0-width;
#X obj 343 657 loadbang;
#X obj 88 648 cnv 15 1200 1 empty empty Inlets 0 -15 0 18 #606060 #404040 0;
#X text 127 669 \$0-abstrPatchSecLabelArgs;
#N canvas 673 23 349 258 canvas-ctrl 0;
#X obj 291 1 inlet;
#N canvas 248 270 1089 459 graph 0;
#X floatatom 180 241 5 0 0 0 Lbl-Sz - - 0;
#X floatatom 273 241 5 0 29 0 Lbl-Clr - - 0;
#N canvas 32 23 1408 389 label-properties 0;
#X floatatom 314 72 3 18 100 0 - - - 0;
#X msg 314 99 size \$1;
#X obj 400 121 pack 100 60, f 18;
#X obj 491 93 t b f;
#X floatatom 491 68 4 18 100 0 - - - 0;
#X floatatom 400 68 4 18 100 0 - - - 0;
#X msg 400 148 vis_size \$1 \$2;
#X text 442 41 w/x;
#X text 532 41 h/y;
#X floatatom 589 116 4 0 3 0 - - - 0;
#X obj 721 135 t b f;
#X floatatom 721 116 5 5 50 0 - - - 0;
#X msg 589 185 label_font \$1 \$2;
#X text 632 41 type;
#X text 760 40 size;
#X obj 589 64 vradio 15 1 0 3 empty empty empty 0 -8 0 10 #fcfcfc #000000 #000000 0;
#X text 605 63 DejaVu Sans Mono;
#X text 605 78 Helvetica;
#X text 606 93 Times;
#X floatatom 817 71 4 -100 250 0 - - - 0;
#X obj 889 98 t b f;
#X floatatom 889 71 5 -150 150 0 - - - 0;
#X msg 817 148 label_pos \$1 \$2;
#X text 856 41 x;
#X text 929 41 y;
#X obj 817 126 pack 17 20, f 17;
#X obj 589 164 pack 0 25, f 24;
#X msg 973 129 label \$1;
#X floatatom 1191 70 3 0 29 1 bgColor - - 0;
#X floatatom 1295 70 3 0 29 1 lblColor - - 0;
#X obj 1295 92 t b f;
#X msg 1191 145 color \$1 \$2 \$3;
#X obj 1191 124 pack 1 22 22, f 14;
#X text 1170 18 Color Presets (0-29):;
#X obj 24 42 inlet;
#X obj 8 42 cnv 14 14 14 empty empty 0 4 8 0 12 #606060 #dcdcdc 0;
#X symbolatom 24 210 10 0 0 0 - - - 0;
#X obj 588 330 send, f 13;
#X obj 400 42 inlet;
#X obj 314 42 inlet;
#X obj 491 42 inlet;
#X obj 155 42 cnv 14 14 14 empty empty 1 4 8 0 12 #606060 #dcdcdc 0;
#X obj 297 42 cnv 14 14 14 empty empty 2 4 8 0 12 #606060 #dcdcdc 0;
#X obj 384 42 cnv 14 14 14 empty empty 3 4 8 0 12 #606060 #dcdcdc 0;
#X obj 721 42 inlet;
#X obj 589 42 inlet;
#X obj 817 42 inlet;
#X obj 476 42 cnv 14 14 14 empty empty 4 4 8 0 12 #606060 #dcdcdc 0;
#X obj 573 42 cnv 14 14 14 empty empty 5 4 8 0 12 #606060 #dcdcdc 0;
#X obj 703 42 cnv 14 14 14 empty empty 6 4 8 0 12 #606060 #dcdcdc 0;
#X text 315 18 Size;
#X text 421 18 Visible Size;
#X text 635 18 Label Font;
#X text 824 18 Label Offset;
#X obj 889 42 inlet;
#X obj 800 42 cnv 14 14 14 empty empty 7 4 8 0 12 #606060 #dcdcdc 0;
#X msg 1052 89 symbol my\ label;
#X symbolatom 973 92 10 0 0 0 - - - 0;
#X obj 973 42 inlet;
#X obj 872 42 cnv 14 14 14 empty empty 8 4 8 0 12 #606060 #dcdcdc 0;
#X msg 973 70 symbol \$1;
#X text 1007 18 Label Text;
#X obj 1191 42 inlet;
#X obj 958 42 cnv 14 14 14 empty empty 9 4 8 0 12 #606060 #dcdcdc 0;
#X obj 1295 42 inlet;
#X obj 1174 42 cnv 14 14 14 empty empty 10 0 8 0 12 #606060 #dcdcdc 0;
#X text 0 18 Canvas Name;
#X obj 284 2 cnv 5 1 260 empty empty empty 20 12 0 14 #7c7c7c #404040 0;
#X obj 738 322 cnv 2 700 40 empty \$0-test_canvas tdh.ac.eventCreation.ui 20 15 0 16 #a0a0a0 #202020 0;
#X obj 415 328 s \$0-test_canvas;
#X obj 210 187 spigot;
#X obj 170 88 tgl 15 0 empty empty empty 17 7 0 10 #fcfcfc #000000 #000000 0 1;
#X obj 249 134 == 1;
#X obj 101 135 == 0;
#X obj 144 134 list append \$0;
#X msg 144 157 symbol \$2-\$1;
#X msg 24 136 symbol \$1;
#X obj 24 167 spigot;
#X obj 170 42 inlet;
#X obj 1279 42 cnv 14 14 14 empty empty 11 0 8 0 12 #606060 #dcdcdc 0;
#X text 136 18 Add "\$0" option;
#X obj 374 2 cnv 5 1 260 empty empty empty 20 12 0 14 #7c7c7c #404040 0;
#X obj 561 2 cnv 5 1 260 empty empty empty 20 12 0 14 #7c7c7c #404040 0;
#X obj 791 2 cnv 5 1 260 empty empty empty 20 12 0 14 #7c7c7c #404040 0;
#X obj 944 2 cnv 5 1 260 empty empty empty 20 12 0 14 #7c7c7c #404040 0;
#X obj 1164 2 cnv 5 1 260 empty empty empty 20 12 0 14 #7c7c7c #404040 0;
#X connect 0 0 1 0;
#X connect 1 0 37 0;
#X connect 1 0 69 0;
#X connect 2 0 6 0;
#X connect 3 0 2 0;
#X connect 3 1 2 1;
#X connect 4 0 3 0;
#X connect 5 0 2 0;
#X connect 6 0 37 0;
#X connect 6 0 69 0;
#X connect 9 0 26 0;
#X connect 10 0 26 0;
#X connect 10 1 26 1;
#X connect 11 0 10 0;
#X connect 12 0 37 0;
#X connect 12 0 69 0;
#X connect 15 0 9 0;
#X connect 19 0 25 0;
#X connect 20 0 25 0;
#X connect 20 1 25 1;
#X connect 21 0 20 0;
#X connect 22 0 37 0;
#X connect 22 0 69 0;
#X connect 25 0 22 0;
#X connect 26 0 12 0;
#X connect 27 0 37 0;
#X connect 27 0 69 0;
#X connect 28 0 32 0;
#X connect 29 0 30 0;
#X connect 30 0 32 0;
#X connect 30 1 32 2;
#X connect 31 0 37 0;
#X connect 31 0 69 0;
#X connect 32 0 31 0;
#X connect 34 0 74 0;
#X connect 34 0 76 0;
#X connect 36 0 37 1;
#X connect 38 0 5 0;
#X connect 39 0 0 0;
#X connect 40 0 4 0;
#X connect 44 0 11 0;
#X connect 45 0 15 0;
#X connect 46 0 19 0;
#X connect 54 0 21 0;
#X connect 56 0 27 0;
#X connect 57 0 27 0;
#X connect 58 0 60 0;
#X connect 60 0 57 0;
#X connect 62 0 28 0;
#X connect 64 0 29 0;
#X connect 70 0 36 0;
#X connect 71 0 72 0;
#X connect 71 0 73 0;
#X connect 72 0 70 1;
#X connect 73 0 77 1;
#X connect 74 0 75 0;
#X connect 75 0 70 0;
#X connect 76 0 77 0;
#X connect 77 0 36 0;
#X connect 78 0 71 0;
#X restore 6 354 pd label-properties;
#X f 45;
#X floatatom 273 219 5 0 29 0 BG-Clr - - 0;
#X floatatom 180 174 5 0 0 0 Vis-Sz-W - - 0;
#X floatatom 181 198 5 0 0 0 Vis-Sz-H - - 0;
#X floatatom 271 150 5 0 0 0 Lbl-X - - 0;
#X floatatom 272 174 5 0 0 0 Lbl-Y - - 0;
#X floatatom 180 150 5 0 0 0 Size - - 0;
#X symbolatom 214 127 10 0 0 0 CnvReceiveSymbol - - 0;
#X floatatom 181 219 5 0 2 0 Lbl-Fon - - 0;
#X symbolatom 274 195 10 0 0 0 Lbl-Txt - - 0;
#X obj 295 128 tgl 15 0 empty empty Append_0 20 7 0 10 #fcfcfc #fc8000 #000000 0 1;
#X text 194 103 Label Properties;
#X obj 28 18 inlet;
#X obj 414 223 cnv 15 500 30 empty \$0-myCanvas This\ is\ my\ label? 9 13 0 18 #e0e0e0 #606060 0;
#X obj 28 54 route doll rec size visw vish lblfon lblsz lblx lbly bgclr lblclr, f 66;
#X obj 56 93 symbol;
#X text 6 4 _;
#X text 479 173 dollarsign0-myCanvas;
#X msg 74 18 doll 1 \, rec myCanvas \, size 15 \, visw 50 \, vish 60 \, lblfon 0 \, lblsz 18 \, lblx 9 \, lbly 13 \, bgclr 10 \, lblclr 21, f 106;
#N canvas 240 66 752 410 \$0-how-to-set-values-externally 0;
#X text 112 49 doll [0/1] - toggle on appending "\$0-" at the start of the recieve symbol, f 85;
#X text 112 102 visw [float] - the visible width of the canvas in pixels, f 85;
#X text 112 85 size [float] - the size of the clickable/dragable portion of the canvas in pixels, f 85;
#X text 112 122 vish [float] - the visible height of the canvas in pixels, f 85;
#X text 111 141 lblfon [0/1/2] - font designation for the canvas' label \, with [0] for Menlo \, [1] for, f 89;
#X text 131 155 Helvetica \, [2] for Times. Note that these fonts may be different on Windows or Linux, f 84;
#X text 111 173 lblsz [float] - font size designation for the canvas' label, f 85;
#X text 111 213 lbly [float] - y offset in pixels from the top left corner of the canvas, f 85;
#X text 111 193 lblx [float] - x offset (horizontal) in pixels from the top left corner of the canvas, f 85;
#X text 4 29 To set the values for your canvas object externally \, send messages with the following signifiers to the 0 (leftmost) inlet:, f 124;
#X msg 31 336 doll 1 \, rec myCanvas \, size 15 \, visw 500 \, vish 30 \, lblfon 0 \, lblsz 18 \, lblx 9 \, lbly 13 \, bgclr 10 \, lblclr 21, f 106;
#X text 111 67 rec [symbol] - receive symbol for the canvas, f 85;
#X obj 90 241 cnv 5 5 5 empty \$0-canvas-format-helper-boldstatement1 Please\ note\ that\ the\ $-0\ designation\ (1\ or\ 0)\ MUST\ be\ sent\ first\,\ followed\ by\ the\ canvas\  1 9 0 12 #fcfcfc #fc0400 0;
#N canvas 2423 143 808 250 init 0;
#X msg 30 102 label \$1;
#X msg 419 120 label \$1;
#X obj 29 147 s \$0-canvas-format-helper-boldstatement1;
#X obj 418 164 s \$0-canvas-format-helper-boldstatement2;
#X obj 233 15 loadbang;
#X msg 420 51 symbol receive\ symbol!\ Failure\ to\ do\ so\ will\ cause\ incorrect\ parameter\ dispatching!;
#X msg 26 43 symbol Please\\\ note\\\ that\\\ the\\\ $-0\\\ designation\\\ (1\\\ or\\\ 0)\\\ MUST\\\ be\\\ sent\\\ first\\\,\\\ followed\\\ by\\\ the\\\ canvas\\\ ;
#X connect 0 0 2 0;
#X connect 1 0 3 0;
#X connect 4 0 5 0;
#X connect 4 0 6 0;
#X connect 5 0 1 0;
#X connect 6 0 0 0;
#X restore 659 9 pd init;
#X obj 90 257 cnv 5 5 5 empty \$0-canvas-format-helper-boldstatement2 receive\ symbol!\ Failure\ to\ do\ so\ will\ cause\ incorrect\ parameter\ dispatching! 1 9 0 12 #fcfcfc #fc0400 0;
#X msg 112 362 symbol this\ is\ my\ label!;
#X text 296 357 The label parameter must be sent separately to Inlet 1 (rightmost inlet). The message must be prepended with the "symbol" identifier \, and the escape character () needs to be set in the message:, f 68;
#X text 102 286 All parameters EXCEPT label can be sent in a single message to Inlet 0 (leftmost inlet) like below (and this can be copied and pasted for easy initializing formatting)., f 89;
#X restore 326 378 pd \$0-how-to-set-values-externally;
#X msg 326 336 vis 1;
#X obj 326 357 s pd-\$0-how-to-set-values-externally;
#X obj 120 263 bng 15 250 50 0 empty empty empty 17 7 0 10 #fcfcfc #000000 #000000;
#X text 141 263 How to set canvas values externally;
#X text 891 18 All left-inlet messages;
#X text 984 47 Label text;
#X msg 636 48 symbol This\ is\ my\ label?;
#X obj 587 47 inlet;
#X obj 632 184 cnv 5 5 5 empty empty ↴ -3 3 0 24 #fcfcfc #606060 0;
#X connect 0 0 2 6;
#X connect 1 0 2 11;
#X connect 3 0 2 10;
#X connect 4 0 2 3;
#X connect 5 0 2 4;
#X connect 6 0 2 7;
#X connect 7 0 2 8;
#X connect 8 0 2 2;
#X connect 9 0 2 0;
#X connect 10 0 2 5;
#X connect 11 0 2 9;
#X connect 12 0 2 1;
#X connect 14 0 16 0;
#X connect 16 0 12 0;
#X connect 16 1 17 0;
#X connect 16 2 8 0;
#X connect 16 3 4 0;
#X connect 16 4 5 0;
#X connect 16 5 10 0;
#X connect 16 6 0 0;
#X connect 16 7 6 0;
#X connect 16 8 7 0;
#X connect 16 9 3 0;
#X connect 16 10 1 0;
#X connect 17 0 9 0;
#X connect 20 0 16 0;
#X connect 22 0 23 0;
#X connect 24 0 22 0;
#X connect 28 0 11 0;
#X connect 29 0 11 0;
#X coords 0 -1 1 1 300 190 2 100 100;
#X restore 25 27 pd graph;
#X obj 25 1 inlet;
#X connect 0 0 1 1;
#X connect 2 0 1 0;
#X restore 343 865 pd canvas-ctrl;
#X obj 451 865 r \$0-width;
#X obj 343 797 loadbang;
#X obj 88 788 cnv 15 1200 1 empty empty Outlets 0 -15 0 18 #606060 #404040 0;
#X text 127 809 \$0-abstrPatchSecLabelArgs;
#X msg 438 702 symbol Inlets;
#X msg 343 679 doll 1 \, rec abstrPatchSecLabelInlets \, size 2 \, visw 501 \, vish 3 \, lblfon 0 \, lblsz 16 \, lblx 20 \, lbly 15 \, bgclr 1 \, lblclr 12, f 123;
#X msg 343 548 doll 1 \, rec abstrPatchSecLabelArgs \, size 2 \, visw 501 \, vish 3 \, lblfon 0 \, lblsz 16 \, lblx 20 \, lbly 15 \, bgclr 1 \, lblclr 12, f 123;
#X msg 438 572 symbol Arguments;
#X msg 343 819 doll 1 \, rec abstrPatchSecLabelOutlets \, size 2 \, visw 501 \, vish 3 \, lblfon 0 \, lblsz 16 \, lblx 20 \, lbly 15 \, bgclr 1 \, lblclr 12, f 123;
#X msg 438 842 symbol Outlets;
#X msg 343 309 doll 1 \, rec abstrPatchTitleBar \, size 15 \, visw 501 \, vish 40 \, lblfon 0 \, lblsz 18 \, lblx 9 \, lbly 20 \, bgclr 18 \, lblclr 1, f 123;
#X msg 343 433 doll 1 \, rec abstrPatchSecDivider \, size 2 \, visw 501 \, vish 2 \, lblfon 0 \, lblsz 18 \, lblx 9 \, lbly 20 \, bgclr 1 \, lblclr 12, f 123;
#X connect 8 0 15 0;
#X connect 9 0 11 0;
#X connect 11 0 12 0;
#X connect 12 0 23 0;
#X connect 15 0 3 1;
#X connect 21 0 65 0;
#X connect 22 0 66 0;
#X connect 24 0 3 0;
#X connect 25 0 4 0;
#X connect 26 0 5 0;
#X connect 27 0 61 0;
#X connect 27 0 62 0;
#X connect 28 0 6 0;
#X connect 29 0 44 0;
#X connect 29 0 48 0;
#X connect 30 0 7 0;
#X connect 31 0 46 0;
#X connect 31 0 47 0;
#X connect 44 0 6 0;
#X connect 46 0 7 0;
#X connect 47 0 7 1;
#X connect 48 0 6 1;
#X connect 50 0 49 0;
#X connect 51 0 60 0;
#X connect 51 0 59 0;
#X connect 55 0 54 0;
#X connect 56 0 63 0;
#X connect 56 0 64 0;
#X connect 59 0 49 1;
#X connect 60 0 49 0;
#X connect 61 0 5 0;
#X connect 62 0 5 1;
#X connect 63 0 54 0;
#X connect 64 0 54 1;
#X connect 65 0 3 0;
#X connect 66 0 4 0;
#X restore 176 208 pd abstr-cnv-set;
#X f 32;
#X obj 147 176 cnv 5 5 5 empty empty ⟶ -3 3 0 30 #fcfcfc #000000 0;
#X obj 441 179 cnv 5 5 5 empty empty ⟵ -3 3 0 30 #fcfcfc #000000 0;
#X text 461 168 EDIT HERE to change patch WIDTH, f 16;
#X text 16 47 This subpatch (and nested subpatches) helps set the uniform titles and graphics for ABSTRACTIONS., f 84;
#X text 13 80 The two most commonly changed fields \, DISPLAY NAME and WIDTH can be changed by editing the [message( boxes below. Text in [message( objects get saved to the patch., f 84;
#X obj 21 480 loadbang;
#X obj 21 501 del 10;
#X text 288 504 EDIT HERE text after "label" to change the display name shown on the module, f 20;
#X text 10 161 EDIT HERE text after "symbol" to change the abstraction patch's main display name, f 20;
#X obj 18 259 cnv 5 5 5 empty empty GOP\ Module\ Label\ +\ Width\ --------------------------------- 0 0 0 14 #ffffff #404040 0;
#X obj 40 393 s \$0-inletBorder-r;
#X obj 216 388 s \$0-inletBar-r;
#X obj 41 413 s \$0-moduleNameBorder-r;
#X obj 263 519 cnv 5 5 5 empty empty ⟵ -3 3 0 30 #fcfcfc #000000 0;
#X obj 20 461 cnv 5 5 5 empty empty Module\ Name 0 0 0 12 #ffffff #0400ff 0;
#X obj 42 432 s \$0-outletBorder-r;
#X obj 217 430 s \$0-outletBar-r;
#X obj 17 298 loadbang;
#X msg 203 366 vis_size \$1 14;
#X obj 15 26 cnv 5 5 5 empty empty Object\ Title\ Bar\ ------------------------------------------------ 0 0 0 14 #ffffff #404040 0;
#X obj 50 315 cnv 5 5 5 empty empty ⟵ -3 3 0 30 #fcfcfc #000000 0;
#X obj 16 286 cnv 5 5 5 empty empty Module\ Width 0 0 0 12 #ffffff #0400ff 0;
#X msg 17 368 vis_size \$1 2;
#X obj 217 410 s \$0-moduleName-r;
#X obj 21 542 s \$0-moduleName-r;
#X msg 405 178 700;
#X obj 18 600 loadbang;
#X text 82 316 EDIT HERE to set the GOP label width;
#X obj 17 585 cnv 5 5 5 empty empty Module\ Specific\ Initializations\ --------------------------------- 0 0 0 14 #ffffff #404040 0;
#X obj 17 339 - 2;
#X msg 17 317 200;
#X msg 176 176 symbol tdh.ac.eventCreation.ui;
#X msg 21 522 label Event\ Creation;
#X connect 1 0 2 0;
#X connect 2 0 35 0;
#X connect 2 0 29 0;
#X connect 9 0 10 0;
#X connect 10 0 36 0;
#X connect 21 0 34 0;
#X connect 22 0 15 0;
#X connect 22 0 20 0;
#X connect 22 0 27 0;
#X connect 26 0 14 0;
#X connect 26 0 16 0;
#X connect 26 0 19 0;
#X connect 29 0 3 1;
#X connect 33 0 26 0;
#X connect 33 0 22 0;
#X connect 34 0 33 0;
#X connect 35 0 3 0;
#X connect 36 0 28 0;
#X restore 610 50 pd abstr-init;
#X obj 614 21 cnv 8 83 16 empty empty tdh.lib 14 8 0 14 #dfdfdf #131255 0;
#N canvas 727 144 713 522 reference 0;
#X text 18 48 Travis Houldcroft || travishouldcroft.com;
#X obj 1 2 cnv 15 700 40 empty \$0-abstrPatchTitleBar tdh.ac.eventCreation.ui 9 20 0 18 #3c50fc #a0a0a0 0;
#X obj 1 362 cnv 2 700 3 empty \$0-abstrPatchSecLabelNotes Notes 20 15 0 16 #a0a0a0 #202020 0;
#X obj 1 485 cnv 2 700 2 empty \$0-abstrPatchSecDivider empty 9 20 0 18 #a0a0a0 #202020 0;
#X obj 1 422 cnv 2 700 3 empty \$0-abstrPatchSecLabelRevHist Revision\ History 20 15 0 16 #a0a0a0 #202020 0;
#X obj 1 262 cnv 2 700 3 empty \$0-abstrPatchSecLabelArgs Arguments 20 15 0 16 #a0a0a0 #202020 0;
#X text 24 453 21/09/30 - ver 0.1, f 21;
#X obj 1 72 cnv 2 700 3 empty \$0-abstrPatchSecLabelInlets Inlets 20 15 0 16 #a0a0a0 #202020 0;
#X obj 1 172 cnv 2 700 3 empty \$0-abstrPatchSecLabelOutlets Outlets 20 15 0 16 #a0a0a0 #202020 0;
#X obj 125 121 cnv 14 18 14 empty empty 10 2 8 0 12 #606060 #dcdcdc 0;
#X obj 125 81 cnv 14 18 14 empty empty 1 2 8 0 12 #606060 #dcdcdc 0;
#X obj 125 101 cnv 14 18 14 empty empty 2 2 8 0 12 #606060 #dcdcdc 0;
#X text 227 271 Description;
#X text 177 271 (type);
#X text 227 291 Description;
#X text 177 291 (type);
#X text 227 311 Description;
#X text 177 311 (type);
#X text 197 80 Description;
#X text 147 80 (type);
#X text 197 100 Description;
#X text 147 100 (type);
#X text 197 120 Description;
#X text 147 120 (type);
#X text 197 180 Description;
#X text 147 180 (type);
#X text 197 200 Description;
#X text 147 200 (type);
#X text 197 220 Description;
#X text 147 220 (type);
#X text 147 271 \$1 -;
#X text 147 291 \$2 -;
#X text 147 311 \$3 -;
#X obj 125 181 cnv 14 18 14 empty empty 1 2 8 0 12 #9f9f9f #ffffff 0;
#X obj 126 272 cnv 14 18 14 empty empty 1 2 8 0 12 #dfdfdf #606060 0;
#X obj 126 292 cnv 14 18 14 empty empty 2 2 8 0 12 #dfdfdf #606060 0;
#X obj 126 312 cnv 14 18 14 empty empty 3 2 8 0 12 #dfdfdf #606060 0;
#X obj 125 201 cnv 14 18 14 empty empty 1 2 8 0 12 #9f9f9f #ffffff 0;
#X obj 125 221 cnv 14 18 14 empty empty 1 2 8 0 12 #9f9f9f #ffffff 0;
#X restore 526 50 pd reference;
#X obj 442 134 inlet;
#X obj 282 138 inlet;
#X obj 264 138 cnv 14 18 14 empty empty 1 2 8 0 12 #606060 #dcdcdc 0;
#X obj 424 134 cnv 14 18 14 empty empty 2 2 8 0 12 #606060 #dcdcdc 0;
#X floatatom 99 219 5 0 0 1 BPM \$0-bpm-r \$0-bpm-s 0;
#X floatatom 39 219 5 0 0 1 MS \$0-ms-r \$0-ms-s 0;
#X obj 159 159 vradio 16 1 0 10 \$0-noteDiv-s \$0-noteDiv-r Division 0 -8 0 10 #c6feff #000000 #000000 0;
#X obj 179 162 cnv 5 9 9 empty empty 1/16 0 4 0 10 #ffffff #373737 0;
#X obj 179 178 cnv 5 9 9 empty empty 1/8 0 4 0 10 #ffffff #373737 0;
#X obj 179 194 cnv 5 9 9 empty empty 1/8\ dot 0 4 0 10 #ffffff #373737 0;
#X obj 179 211 cnv 5 9 9 empty empty 1/4 0 4 0 10 #ffffff #373737 0;
#X obj 179 227 cnv 5 9 9 empty empty 1/4\ dot 0 4 0 10 #ffffff #373737 0;
#X obj 179 243 cnv 5 9 9 empty empty 1/2 0 4 0 10 #ffffff #373737 0;
#X obj 179 259 cnv 5 9 9 empty empty 1/2\ dot 0 4 0 10 #ffffff #373737 0;
#X obj 179 275 cnv 5 9 9 empty empty 1 0 4 0 10 #ffffff #373737 0;
#X obj 179 291 cnv 5 9 9 empty empty 1\ dot 0 4 0 10 #ffffff #373737 0;
#X obj 179 307 cnv 5 9 9 empty empty 1\ d.dot 0 4 0 10 #ffffff #373737 0;
#X floatatom 39 259 5 0 0 1 Event\ Dur. \$0-dur-r \$0-dur-s 0;
#X floatatom 39 169 5 0 0 1 Pch/Freq \$0-pitch-r \$0-pitch-s 0;
#X obj 262 224 cnv 14 14 14 empty empty S 6 8 0 8 #fcc4c4 #7c7c7c 0;
#X obj 9 149 cnv 6 6 6 empty empty empty -1 2 0 14 #ffc7c6 #9f9f9f 0;
#X obj 239 159 cnv 6 6 6 empty empty empty -1 2 0 14 #06d834 #9f9f9f 0;
#X obj 9 209 cnv 6 6 6 empty empty empty -1 2 0 14 #fc32e3 #9f9f9f 0;
#X obj 9 179 cnv 6 6 6 empty empty empty -1 2 0 14 #fc6007 #9f9f9f 0;
#X obj 9 269 cnv 6 6 6 empty empty empty -1 2 0 14 #e3c6ff #9f9f9f 0;
#X obj 9 239 cnv 6 6 6 empty empty empty -1 2 0 14 #faff00 #9f9f9f 0;
#X obj 282 224 s \$0-pitch-r;
#X obj 419 229 cnv 14 14 14 empty empty S 6 8 0 8 #fc6007 #e0e0e0 0;
#X obj 442 164 route bpm BPM ms MS, f 54;
#X obj 439 229 s \$0-bpm-r;
#X obj 659 229 cnv 14 14 14 empty empty S 6 8 0 8 #fc32e3 #e0e0e0 0;
#X obj 679 229 s \$0-ms-r;
#X obj 282 164 route float bang;
#X obj 301 194 cnv 14 14 14 empty empty S 6 8 0 8 #73defc #7c7c7c 0;
#X obj 839 139 inlet;
#X obj 821 139 cnv 14 18 14 empty empty 2 2 8 0 12 #606060 #dcdcdc 0;
#X obj 819 169 cnv 14 14 14 empty empty S 6 8 0 8 #06d834 #ffffff 0;
#X obj 839 169 s \$0-noteDiv-r;
#N canvas 152 186 745 575 savestate4 0;
#X obj 138 164 savestate, f 17;
#X text 20 152 On patch load \, [savestate] sends out a list of all the saved GUI parameters, f 18;
#X text 405 127 On patch save \, [savestate] will output "bang" which is used to create a list of all parameters. Parameters are temporarily stored in the [f] objects to be retrieved at patch save. This list is sent to [savestate] to be stored., f 37;
#X obj 175 295 s \$0-embed-r;
#X obj 175 271 list trim;
#X text 275 248 EMBED parameter needs to be loaded first \, as it determines if the [savestate] values actually get reported to their parameters, f 24;
#X obj 124 251 cnv 5 5 5 empty empty * 0 0 0 24 #ffffff #ff0400 0;
#X obj 138 418 spigot;
#X obj 138 376 list store;
#X obj 138 330 t b l, f 10;
#X obj 138 355 delay 5;
#X obj 171 398 r \$0-embed-s;
#X text 5 334 Delay the remaining paramters 5 msec to make sure the [spigot] has time to be opened if the EMBED paramter is set to "on" \, then the parameters get reported to the GUI, f 18;
#X obj 441 253 cnv 5 5 5 empty empty * 0 0 0 24 #ffffff #ff0400 0;
#X text 448 245 CHANGE THE [list split] ARGUMENT TO THE NUMBER OF POSSIBLE PARAMETERS IN THE PATCH (NOT COUNTING THE EMBED PARAMETER) TO CORRECTLY IMPLEMENT THE EMBED SWITCH, f 24;
#N canvas 134 35 989 773 savestateStoreParams 0;
#X obj 29 6 inlet;
#X obj 189 209 f;
#X obj 209 179 r \$0-embed-s;
#X obj 29 91 f;
#X obj 68 121 f;
#X obj 146 181 f;
#X obj 107 151 f;
#X text 309 38 [f] objects are constantly updated with the current value for each parameter \, when the [savestate] object sends out a "bang" when the patch is saved \, this bang causes all of the [f] objects to report their values. These values are packed into a list and saved inside the [savestate] object., f 21;
#X obj 29 272 outlet;
#X obj 29 33 t b b b b b, f 30;
#X obj 29 249 pack f f f f f, f 30;
#X obj 44 61 r \$0-pitch-s;
#X obj 83 91 r \$0-bpm-s;
#X obj 122 121 r \$0-ms-s;
#X obj 161 151 r \$0-noteDiv-s;
#X connect 0 0 9 0;
#X connect 1 0 10 4;
#X connect 2 0 1 1;
#X connect 3 0 10 0;
#X connect 4 0 10 1;
#X connect 5 0 10 3;
#X connect 6 0 10 2;
#X connect 9 0 3 0;
#X connect 9 1 4 0;
#X connect 9 2 6 0;
#X connect 9 3 5 0;
#X connect 9 4 1 0;
#X connect 10 0 8 0;
#X connect 11 0 3 1;
#X connect 12 0 4 1;
#X connect 13 0 6 1;
#X connect 14 0 5 1;
#X restore 237 186 pd savestateStoreParams;
#N canvas 1633 -329 926 649 savestateOutputParameters 0;
#X obj 30 6 inlet;
#X text 70 4 list of all the stored paramters;
#X obj 30 33 unpack f f f f, f 23;
#X obj 36 65 s \$0-pitch-r;
#X obj 75 95 s \$0-bpm-r;
#X obj 114 125 s \$0-ms-r;
#X obj 153 155 s \$0-noteDiv-r;
#X connect 0 0 2 0;
#X connect 2 0 3 0;
#X connect 2 1 4 0;
#X connect 2 2 5 0;
#X connect 2 3 6 0;
#X restore 138 456 pd savestateOutputParameters;
#X obj 124 459 cnv 10 5 5 empty empty • -1 5 0 22 #ffffff #fc0400 0;
#X obj 226 189 cnv 10 5 5 empty empty • -1 5 0 22 #ffffff #fc0400 0;
#X obj 138 247 list split 4;
#X text 19 8 This subpatch saves the values of each GUI control on save of the module's parent patch., f 88;
#N canvas 0 22 450 300 savestateDetails 0;
#X text 9 8 The [savestate] object works by sending a "bang" out its right outlet when the patch it resides in is saved. We use that "bang" to develop a list of parameters to save \, this list is then sent to the left inlet of [savestate] and is stored after the patch is closed. When the patch is opened \, that list is output on load \, and we distribute the parameters to the objects in the patch., f 130;
#X text 9 78 All parameters whose values are configured to be received in the [savestateStoreParams] subpatch will have their values compiled into a list at patch save - facilated by [savestate]'s "bang" message \, and stored. When the patch is opened \, that list will be distributed to all the correct objects as long as the [send] objects in [savestateOutputParameters] are configured to correctly send the parameters to the objects in the same order as they were stored in the list at save., f 131;
#X text 4 262 For tdh.lib modules \, it is convention that all GUIs with both a slider and numberbox only store the numberbox value \, as it will automatically update the slider value., f 132;
#X text 9 158 This subpatch facilitates an additional feature for saving parameters \, in that it relies on an external [toggle] that will activate or deactivate parameter loading. All parameters are saved regardless of the toggle's state \, but parameters are only loaded at patch open when the [toggle] is checked., f 131;
#X text 9 218 The [toggle]'s state is saved with the patch as the last element in the parameter list \, and at patch open \, this list item is trimmed off the list and used to open or close a [spigot] \, determining if the parameters are reported to their objects or not., f 131;
#X restore 419 39 pd savestateDetails;
#X text 99 38 About how [savestate] and this patch works --->;
#X connect 0 0 19 0;
#X connect 0 1 15 0;
#X connect 4 0 3 0;
#X connect 7 0 16 0;
#X connect 8 0 7 0;
#X connect 9 0 10 0;
#X connect 9 1 8 1;
#X connect 10 0 8 0;
#X connect 11 0 7 1;
#X connect 15 0 0 0;
#X connect 19 0 9 0;
#X connect 19 1 4 0;
#X restore 599 89 pd savestate4;
#X obj 39 289 tgl 16 0 \$0-gate-s \$0-gate-r Gate 24 8 0 10 #c6feff #000000 #000000 0 1;
#X obj 39 329 tgl 16 0 \$0-embed-s \$0-embed-r Embed 20 8 0 10 #c6feff #000000 #000000 0 1;
#X obj 321 194 s \$0-bang-r;
#X obj 309 895 spigot, f 11;
#X obj 309 745 t b b;
#X obj 350 795 v \$0-busy;
#X text 379 843 When an event is playing/busy \, all incoming event triggers get ignored., f 20;
#X obj 1989 999 v \$0-busy;
#X msg 1989 969 0;
#X obj 349 1251 cnv 14 18 14 empty empty 2 2 8 0 12 #9f9f9f #ffffff 0;
#X obj 369 1249 outlet eventLen;
#X obj 435 775 cnv 10 28 14 empty empty INIT 2 8 0 10 #9c00ff #bbbbbb 0;
#X msg 438 825 1;
#X obj 435 795 loadbang;
#X text 465 813 initialize as "not busy", f 12;
#X obj 1519 999 s \$0-gate;
#X obj 309 1155 s \$0-gate;
#X obj 519 1219 r \$0-gate;
#X obj 519 1250 outlet gate;
#X obj 1499 999 cnv 14 14 14 empty empty S 6 8 0 8 #ff8300 #dfdfdf 0;
#X obj 499 1219 cnv 14 14 14 empty empty R 6 8 0 8 #ff8300 #dfdfdf 0;
#X obj 439 399 s \$0-beatDur;
#X msg 1519 969 1;
#X text 1589 958 When we generate a new event \, set the status to "busy" \, output a "1" at the Gate outlet;
#X obj 330 795 cnv 12 18 14 empty empty VAR 3 8 0 8 #ffe3c6 #7c7c7c 0;
#X obj 1969 999 cnv 12 20 14 empty empty VAR 3 8 0 8 #ffe3c6 #7c7c7c 0;
#X obj 309 975 t b b;
#X obj 309 1065 pipe;
#X obj 409 1155 v \$0-busy;
#X obj 389 1155 cnv 12 18 14 empty empty VAR 3 8 0 8 #ffe3c6 #7c7c7c 0;
#X obj 289 1155 cnv 14 14 14 empty empty S 6 8 0 8 #ff8300 #dfdfdf 0;
#X msg 309 1125 0;
#X msg 410 1129 1;
#X obj 309 1095 t b b;
#X obj 499 1250 cnv 14 18 14 empty empty 3 2 8 0 12 #9f9f9f #ffffff 0;
#X obj 149 775 spigot, f 11;
#X obj 129 1251 cnv 14 18 14 empty empty 2 2 8 0 12 #9f9f9f #ffffff 0;
#X obj 149 1249 outlet;
#X text 209 1243 pitch or frequency;
#X obj 39 489 cnv 14 14 14 empty empty R 6 8 0 8 #fcc4c4 #7c7c7c 0;
#X obj 59 489 r \$0-pitch-s;
#X obj 149 605 f;
#X obj 59 515 t b f, f 20;
#X obj 39 575 cnv 14 14 14 empty empty R 6 8 0 8 #73defc #7c7c7c 0;
#X obj 59 575 r \$0-bang-s;
#X obj 39 545 cnv 14 14 14 empty empty S 6 8 0 8 #73defc #7c7c7c 0;
#X obj 59 545 s \$0-bang-r;
#X obj 149 685 t f b;
#X obj 419 279 cnv 14 14 14 empty empty R 6 8 0 8 #fc6007 #e0e0e0 0;
#X obj 439 309 tdh.lib/tdh.math.bpm2ms;
#X obj 439 279 r \$0-bpm-s;
#X obj 739 279 cnv 14 14 14 empty empty S 6 8 0 8 #fc32e3 #e0e0e0 0;
#X obj 759 279 r \$0-ms-s;
#X obj 739 959 cnv 14 14 14 empty empty S 6 8 0 8 #06d834 #ffffff 0;
#X obj 759 959 r \$0-noteDiv-s;
#X obj 39 139 bng 16 250 50 0 \$0-bang-s \$0-bang-r Create\ Event 22 8 0 10 #c6feff #000000 #000000;
#X obj 39 199 cnv 10 10 10 empty empty Tempo 0 5 0 10 #ffffff #373737 0;
#X text 1292 1013 <-;
#X text 1299 1078 determine note lengths based on a clock pulse, f 16;
#X text 1284 1091 <-;
#X obj 689 1159 cnv 14 14 14 empty empty S 6 8 0 8 #f8fc00 #7c7c7c 0;
#X obj 709 1159 s \$0-dur-r;
#X obj 759 399 s \$0-beatDur;
#X obj 549 399 cnv 14 14 14 empty empty S 6 8 0 8 #fc32e3 #e0e0e0 0;
#X obj 569 399 s \$0-ms-r;
#X msg 569 369 set \$1;
#X obj 909 339 tdh.lib/tdh.math.ms2bpm;
#X msg 909 369 set \$1;
#X obj 889 399 cnv 14 14 14 empty empty S 6 8 0 8 #fc6007 #e0e0e0 0;
#X obj 909 399 s \$0-bpm-r;
#X obj 354 1005 cnv 14 14 14 empty empty S 6 8 0 8 #f8fc00 #7c7c7c 0;
#X obj 374 1005 r \$0-dur-s;
#X obj 334 1035 f;
#X obj 709 1119 f;
#X obj 766 1119 f;
#X obj 822 1119 f;
#X obj 879 1119 f;
#X obj 935 1119 f;
#X obj 877 1047 cnv 14 14 14 empty empty R 6 8 0 8 #fcc4c4 #7c7c7c 0;
#X obj 991 1119 f;
#X obj 1047 1119 f;
#X obj 1103 1119 f;
#X obj 1160 1119 f;
#X obj 1216 1119 f;
#X obj 902 1049 r \$0-beatDur;
#X obj 709 1019 sel 0 1 2 3 4 5 6 7 8 9, f 95;
#X obj 1126 1089 * 4;
#X obj 1014 1089 * 2;
#X obj 958 1089 * 1.5;
#X obj 789 1089 * 0.5;
#X obj 732 1089 * 0.25;
#X obj 845 1089 * 0.75;
#X obj 1070 1089 * 3;
#X obj 1183 1089 * 5;
#X obj 1239 1089 * 6;
#X text 1314 994 report a metric note duration based on the note length chosen by inlet 3 or radio button, f 24;
#X obj 309 925 t b b b b, f 282;
#X obj 709 989 f;
#X text 869 958 When an event is to be created \, generate an event duration based on a chosen metric decision and a central clock/pulse length in ms, f 62;
#X obj 349 1220 cnv 14 14 14 empty empty R 6 8 0 8 #f8fc00 #7c7c7c 0;
#X obj 369 1220 r \$0-dur-r;
#X text 429 1028 Wait the event duration length \, then set status to "not busy" and set the gate to 0, f 17;
#X connect 16 0 44 0;
#X connect 17 0 48 0;
#X connect 44 0 45 0;
#X connect 44 1 45 0;
#X connect 44 2 47 0;
#X connect 44 3 47 0;
#X connect 44 4 47 0;
#X connect 48 0 42 0;
#X connect 48 1 57 0;
#X connect 50 0 53 0;
#X connect 58 0 151 0;
#X connect 59 0 58 0;
#X connect 59 1 60 0;
#X connect 60 0 58 1;
#X connect 60 0 90 1;
#X connect 63 0 62 0;
#X connect 67 0 60 0;
#X connect 68 0 67 0;
#X connect 72 0 73 0;
#X connect 77 0 70 0;
#X connect 81 0 82 0;
#X connect 81 1 127 0;
#X connect 82 0 88 0;
#X connect 86 0 71 0;
#X connect 87 0 83 0;
#X connect 88 0 86 0;
#X connect 88 1 87 0;
#X connect 90 0 92 0;
#X connect 95 0 97 0;
#X connect 96 0 102 0;
#X connect 97 0 101 0;
#X connect 97 1 96 1;
#X connect 99 0 96 0;
#X connect 102 0 90 0;
#X connect 102 1 59 0;
#X connect 104 0 76 0;
#X connect 104 0 120 0;
#X connect 105 0 104 0;
#X connect 107 0 121 0;
#X connect 107 0 117 0;
#X connect 109 0 152 1;
#X connect 120 0 119 0;
#X connect 121 0 122 0;
#X connect 122 0 124 0;
#X connect 126 0 127 1;
#X connect 127 0 82 1;
#X connect 128 0 116 0;
#X connect 129 0 116 0;
#X connect 130 0 116 0;
#X connect 131 0 116 0;
#X connect 132 0 116 0;
#X connect 134 0 116 0;
#X connect 135 0 116 0;
#X connect 136 0 116 0;
#X connect 137 0 116 0;
#X connect 138 0 116 0;
#X connect 139 0 145 0;
#X connect 139 0 144 0;
#X connect 139 0 146 0;
#X connect 139 0 143 0;
#X connect 139 0 142 0;
#X connect 139 0 147 0;
#X connect 139 0 141 0;
#X connect 139 0 148 0;
#X connect 139 0 149 0;
#X connect 139 0 131 1;
#X connect 140 0 128 0;
#X connect 140 1 129 0;
#X connect 140 2 130 0;
#X connect 140 3 131 0;
#X connect 140 4 132 0;
#X connect 140 5 134 0;
#X connect 140 6 135 0;
#X connect 140 7 136 0;
#X connect 140 8 137 0;
#X connect 140 9 138 0;
#X connect 141 0 136 1;
#X connect 142 0 134 1;
#X connect 143 0 132 1;
#X connect 144 0 129 1;
#X connect 145 0 128 1;
#X connect 146 0 130 1;
#X connect 147 0 135 1;
#X connect 148 0 137 1;
#X connect 149 0 138 1;
#X connect 151 0 81 0;
#X connect 151 1 152 0;
#X connect 151 2 77 0;
#X connect 151 3 63 0;
#X connect 152 0 140 0;
#X connect 155 0 65 0;
#X coords 0 -1 1 1 200 300 2 25 100;
