#N canvas 294 99 959 560 10;
#X obj 367 49 inlet;
#X obj 596 133 * 4;
#X obj 495 133 * 2;
#X obj 596 207 outlet;
#X obj 495 207 outlet;
#X obj 367 207 outlet;
#X obj 244 207 outlet;
#X obj 181 207 outlet;
#X obj 545 207 outlet;
#X obj 441 207 outlet;
#X obj 440 133 * 1.5;
#X obj 244 133 * 0.5;
#X obj 182 133 * 0.25;
#X obj 304 207 outlet;
#X obj 304 133 * 0.75;
#X obj 545 133 * 3;
#X obj 646 207 outlet;
#X obj 646 133 * 5;
#X obj 696 207 outlet;
#X obj 696 133 * 6;
#X connect 0 0 1 0;
#X connect 0 0 2 0;
#X connect 0 0 5 0;
#X connect 0 0 11 0;
#X connect 0 0 12 0;
#X connect 0 0 14 0;
#X connect 0 0 10 0;
#X connect 0 0 17 0;
#X connect 0 0 19 0;
#X connect 0 0 15 0;
#X connect 1 0 3 0;
#X connect 2 0 4 0;
#X connect 10 0 9 0;
#X connect 11 0 6 0;
#X connect 12 0 7 0;
#X connect 14 0 13 0;
#X connect 15 0 8 0;
#X connect 17 0 16 0;
#X connect 19 0 18 0;
