#N canvas 1530 -345 812 758 12;
#X obj 167 91 metro 150;
#X obj 167 115 t b b;
#X obj 167 139 f 0;
#X obj 240 126 + 1;
#X obj 240 149 expr if($f1 == 5 \, 0 \, $f1);
#X obj 167 64 tgl 15 0 empty empty empty 17 7 0 10 -262144 -1 -1 1
1;
#X obj 167 176 sel 0 1 2 3 4;
#X obj 167 365 outlet~;
#X obj 167 287 -~ 0.5;
#X obj 167 312 *~ 2;
#X obj 167 262 phasor~ 220;
#X obj 167 337 lop~ 3000;
#X obj 167 239 mtof;
#X msg 167 206 60;
#X msg 202 206 62;
#X msg 240 205 64;
#X msg 279 205 65;
#X msg 315 204 67;
#X obj 167 33 inlet;
#X obj 220 32 loadbang;
#X msg 220 56 1;
#X connect 0 0 1 0;
#X connect 1 0 2 0;
#X connect 2 0 3 0;
#X connect 2 0 6 0;
#X connect 3 0 4 0;
#X connect 4 0 2 1;
#X connect 5 0 0 0;
#X connect 6 0 13 0;
#X connect 6 1 14 0;
#X connect 6 2 15 0;
#X connect 6 3 16 0;
#X connect 6 4 17 0;
#X connect 8 0 9 0;
#X connect 9 0 11 0;
#X connect 10 0 8 0;
#X connect 11 0 7 0;
#X connect 12 0 10 0;
#X connect 13 0 12 0;
#X connect 14 0 12 0;
#X connect 15 0 12 0;
#X connect 16 0 12 0;
#X connect 17 0 12 0;
#X connect 18 0 5 0;
#X connect 19 0 20 0;
#X connect 20 0 5 0;
