#N canvas 416 106 500 536 10;
#X text 16 34 Travis Houldcroft || travishouldcroft.com;
#X text 18 220 All waveform generating code is an implementation of code discussed in "Making Voltage Controlled Oscillators in Pure Data" by Alexandros Drymonitis (drymonitis.me).;
#X obj 21 378 phasor~;
#X obj 21 450 -~ 1;
#X obj 21 495 outlet~;
#X text 109 268 Frequency;
#X obj 0 0 cnv 15 500 30 empty empty tdh.synth.oscil-saw~ 20 12 0 14 #e0e0e0 #404040 0;
#X obj 0 58 cnv 15 500 8 empty empty Inlets 20 15 0 14 #e0e0e0 #404040 0;
#X text 20 87 0;
#X text 42 87 -;
#X obj 0 128 cnv 15 500 8 empty empty Outlets 20 15 0 14 #e0e0e0 #404040 0;
#X text 20 157 0;
#X text 42 157 -;
#X text 64 157 (sig) waveform;
#X text 64 87 (float) oscillator frequency;
#X obj 0 188 cnv 15 500 8 empty empty Note 20 15 0 14 #e0e0e0 #404040 0;
#X text 67 408 <-- Produces phasor from 0 to 2;
#X text 58 449 <-- Produces a from -1 to 1;
#X obj 21 409 *~ 2;
#X obj 21 273 inlet~;
#X obj 99 299 loadbang;
#X obj 99 325 f \$1;
#X obj 99 351 sig~;
#X connect 2 0 18 0;
#X connect 3 0 4 0;
#X connect 18 0 3 0;
#X connect 19 0 2 0;
#X connect 20 0 21 0;
#X connect 21 0 22 0;
#X connect 22 0 2 0;
