#N canvas 27 23 1413 855 10;
#X floatatom 148 43 0 0 0 0 - - -;
#X obj 136 425 *~;
#X obj 342 341 line~;
#X floatatom 342 45 0 0 0 0 - - -;
#X obj 342 315 pack 0 200;
#X obj 342 19 r window;
#X obj 148 17 r transpose;
#X obj 148 99 exp;
#X floatatom 148 125 6 0 0 0 - - -;
#X obj 148 215 /;
#X obj 196 149 * 0.001;
#X obj 480 402 line~;
#X obj 480 377 pack 0 200;
#X floatatom 480 326 0 0 0 0 - - -;
#X obj 480 300 r delay;
#X obj 136 451 +~;
#X obj 63 477 cos~;
#X obj 63 504 *~;
#X obj 217 537 +~;
#X obj 232 343 wrap~;
#X obj 327 397 *~;
#X obj 327 449 +~;
#X obj 232 476 cos~;
#X obj 232 503 *~;
#X msg 520 47 \; transpose 0 \; window 100 \; delay 0;
#X obj 520 21 loadbang;
#X obj 196 176 t b f;
#X floatatom 148 241 6 0 0 0 - - -;
#X obj 232 316 +~ 0.5;
#X obj 63 425 -~ 0.5;
#X obj 63 451 *~ 0.5;
#X obj 232 396 -~ 0.5;
#X obj 232 448 *~ 0.5;
#X obj 148 152 - 1;
#X obj 148 73 * 0.05776;
#X obj 148 178 * -1;
#X text 101 119 speed;
#X text 94 133 change;
#X text 76 232 tape head;
#X obj 148 272 phasor~;
#X obj 480 353 max 1.5;
#X text 483 259 delay;
#X text 480 277 (msec);
#X obj 342 72 max 1;
#X text 76 245 rotation freq, f 9;
#X text 375 45 <= window (msec);
#X text 39 28 transposition;
#X text 38 41 (halftones) =>;
#X obj 217 561 outlet~;
#X text 559 -73 (from Pure Data/3.audio.examples/G09.pitchshift.pd)
;
#X obj 191 -24 s transpose;
#X obj 350 -24 s window;
#X obj 438 -24 s delay;
#X obj 19 -130 inlet;
#X text 21 -324 Travis Houldcroft || travishouldcroft.com;
#X obj 4 -370 cnv 15 501 40 empty \$0-abstrPatchTitleBar Pitch-Shift
9 20 0 18 -166441 -33289 0;
#X obj 4 -300 cnv 2 501 3 empty \$0-abstrPatchSecLabelNotes Notes 20
15 0 16 -166441 -33289 0;
#X obj 4 -147 cnv 1 501 1 empty \$0-abstrPatchSecDivider empty 9 20
0 18 -166441 -33289 0;
#X obj 4 -220 cnv 2 501 3 empty \$0-abstrPatchSecLabelRevHist Revison\ History
20 15 0 16 -166441 -33289 0;
#X obj 3 -130 cnv 14 14 14 empty empty 0 4 8 0 12 -99865 -228856 0
;
#N canvas 770 428 541 151 abstr-init 0;
#X obj 3 11 cnv 5 5 5 empty empty | 0 0 0 14 -262144 -66577 0;
#X obj 215 6 loadbang;
#X text 39 75 Enter Abstraction name here:;
#X obj 215 32 del 10;
#X text 147 106 Enter patch width here:;
#N canvas 1331 100 1250 684 abstr-cnv-set 0;
#X text -3 43 [cnv] names:;
#N canvas 673 23 349 258 canvas-ctrl 0;
#X obj 291 1 inlet;
#N canvas 248 270 1089 459 graph 0;
#X floatatom 180 241 5 0 0 0 Lbl-Sz - -;
#X floatatom 273 241 5 0 29 0 Lbl-Clr - -;
#N canvas 32 23 1408 389 label-properties 0;
#X floatatom 314 72 3 18 100 0 - - -;
#X msg 314 99 size \$1;
#X obj 400 121 pack 100 60, f 18;
#X obj 491 93 t b f;
#X floatatom 491 68 4 18 100 0 - - -;
#X floatatom 400 68 4 18 100 0 - - -;
#X msg 400 148 vis_size \$1 \$2;
#X text 442 41 w/x;
#X text 532 41 h/y;
#X floatatom 589 116 4 0 3 0 - - -;
#X obj 721 135 t b f;
#X floatatom 721 116 5 5 50 0 - - -;
#X msg 589 185 label_font \$1 \$2;
#X text 632 41 type;
#X text 760 40 size;
#X obj 589 64 vradio 15 1 0 3 empty empty empty 0 -8 0 10 -262144 -1
-1 0;
#X text 605 63 DejaVu Sans Mono;
#X text 605 78 Helvetica;
#X text 606 93 Times;
#X floatatom 817 71 4 -100 250 0 - - -;
#X obj 889 98 t b f;
#X floatatom 889 71 5 -150 150 0 - - -;
#X msg 817 148 label_pos \$1 \$2;
#X text 856 41 x;
#X text 929 41 y;
#X obj 817 126 pack 17 20, f 17;
#X obj 589 164 pack 0 25, f 24;
#X msg 973 129 label \$1;
#X floatatom 1191 70 3 0 29 1 bgColor - -;
#X floatatom 1295 70 3 0 29 1 lblColor - -;
#X obj 1295 92 t b f;
#X msg 1191 145 color \$1 \$2 \$3;
#X obj 1191 124 pack 1 22 22, f 14;
#X text 1170 18 Color Presets (0-29):;
#X obj 24 42 inlet;
#X obj 8 42 cnv 14 14 14 empty empty 0 4 8 0 12 -99865 -228856 0;
#X symbolatom 24 210 10 0 0 0 - - -;
#X obj 588 330 send, f 13;
#X obj 400 42 inlet;
#X obj 314 42 inlet;
#X obj 491 42 inlet;
#X obj 155 42 cnv 14 14 14 empty empty 1 4 8 0 12 -99865 -228856 0
;
#X obj 297 42 cnv 14 14 14 empty empty 2 4 8 0 12 -99865 -228856 0
;
#X obj 384 42 cnv 14 14 14 empty empty 3 4 8 0 12 -99865 -228856 0
;
#X obj 721 42 inlet;
#X obj 589 42 inlet;
#X obj 817 42 inlet;
#X obj 476 42 cnv 14 14 14 empty empty 4 4 8 0 12 -99865 -228856 0
;
#X obj 573 42 cnv 14 14 14 empty empty 5 4 8 0 12 -99865 -228856 0
;
#X obj 703 42 cnv 14 14 14 empty empty 6 4 8 0 12 -99865 -228856 0
;
#X text 315 18 Size;
#X text 421 18 Visible Size;
#X text 635 18 Label Font;
#X text 824 18 Label Offset;
#X obj 889 42 inlet;
#X obj 800 42 cnv 14 14 14 empty empty 7 4 8 0 12 -99865 -228856 0
;
#X msg 1052 89 symbol my\ label;
#X symbolatom 973 92 10 0 0 0 - - -;
#X obj 973 42 inlet;
#X obj 872 42 cnv 14 14 14 empty empty 8 4 8 0 12 -99865 -228856 0
;
#X msg 973 70 symbol \$1;
#X text 1007 18 Label Text;
#X obj 1191 42 inlet;
#X obj 958 42 cnv 14 14 14 empty empty 9 4 8 0 12 -99865 -228856 0
;
#X obj 1295 42 inlet;
#X obj 1174 42 cnv 14 14 14 empty empty 10 0 8 0 12 -99865 -228856
0;
#X text 0 18 Canvas Name;
#X obj 284 2 cnv 5 1 260 empty empty empty 20 12 0 14 -128992 -66577
0;
#X obj 738 322 cnv 2 501 60 empty \$0-test_canvas Pitch-Shift 20 15
0 16 -166441 -33289 0;
#X obj 415 328 s \$0-test_canvas;
#X obj 210 187 spigot;
#X obj 170 88 tgl 15 0 empty empty empty 17 7 0 10 -262144 -1 -1 1
1;
#X obj 249 134 == 1;
#X obj 101 135 == 0;
#X obj 144 134 list append \$0;
#X msg 144 157 symbol \$2-\$1;
#X msg 24 136 symbol \$1;
#X obj 24 167 spigot;
#X obj 170 42 inlet;
#X obj 1279 42 cnv 14 14 14 empty empty 11 0 8 0 12 -99865 -228856
0;
#X text 136 18 Add "\$0" option;
#X obj 374 2 cnv 5 1 260 empty empty empty 20 12 0 14 -128992 -66577
0;
#X obj 561 2 cnv 5 1 260 empty empty empty 20 12 0 14 -128992 -66577
0;
#X obj 791 2 cnv 5 1 260 empty empty empty 20 12 0 14 -128992 -66577
0;
#X obj 944 2 cnv 5 1 260 empty empty empty 20 12 0 14 -128992 -66577
0;
#X obj 1164 2 cnv 5 1 260 empty empty empty 20 12 0 14 -128992 -66577
0;
#X connect 0 0 1 0;
#X connect 1 0 37 0;
#X connect 1 0 69 0;
#X connect 2 0 6 0;
#X connect 3 0 2 0;
#X connect 3 1 2 1;
#X connect 4 0 3 0;
#X connect 5 0 2 0;
#X connect 6 0 37 0;
#X connect 6 0 69 0;
#X connect 9 0 26 0;
#X connect 10 0 26 0;
#X connect 10 1 26 1;
#X connect 11 0 10 0;
#X connect 12 0 37 0;
#X connect 12 0 69 0;
#X connect 15 0 9 0;
#X connect 19 0 25 0;
#X connect 20 0 25 0;
#X connect 20 1 25 1;
#X connect 21 0 20 0;
#X connect 22 0 37 0;
#X connect 22 0 69 0;
#X connect 25 0 22 0;
#X connect 26 0 12 0;
#X connect 27 0 37 0;
#X connect 27 0 69 0;
#X connect 28 0 32 0;
#X connect 29 0 30 0;
#X connect 30 0 32 0;
#X connect 30 1 32 2;
#X connect 31 0 37 0;
#X connect 31 0 69 0;
#X connect 32 0 31 0;
#X connect 34 0 74 0;
#X connect 34 0 76 0;
#X connect 36 0 37 1;
#X connect 38 0 5 0;
#X connect 39 0 0 0;
#X connect 40 0 4 0;
#X connect 44 0 11 0;
#X connect 45 0 15 0;
#X connect 46 0 19 0;
#X connect 54 0 21 0;
#X connect 56 0 27 0;
#X connect 57 0 27 0;
#X connect 58 0 60 0;
#X connect 60 0 57 0;
#X connect 62 0 28 0;
#X connect 64 0 29 0;
#X connect 70 0 36 0;
#X connect 71 0 72 0;
#X connect 71 0 73 0;
#X connect 72 0 70 1;
#X connect 73 0 77 1;
#X connect 74 0 75 0;
#X connect 75 0 70 0;
#X connect 76 0 77 0;
#X connect 77 0 36 0;
#X connect 78 0 71 0;
#X restore 6 354 pd label-properties;
#X f 45;
#X floatatom 273 219 5 0 29 0 BG-Clr - -;
#X floatatom 180 174 5 0 0 0 Vis-Sz-W - -;
#X floatatom 181 198 5 0 0 0 Vis-Sz-H - -;
#X floatatom 271 150 5 0 0 0 Lbl-X - -;
#X floatatom 272 174 5 0 0 0 Lbl-Y - -;
#X floatatom 180 150 5 0 0 0 Size - -;
#X symbolatom 214 127 10 0 0 0 CnvReceiveSymbol - -;
#X floatatom 181 219 5 0 2 0 Lbl-Fon - -;
#X symbolatom 274 195 10 0 0 0 Lbl-Txt - -;
#X obj 295 128 tgl 15 0 empty empty Append_0 20 7 0 10 -262144 -260097
-1 1 1;
#X text 194 103 Label Properties;
#X obj 28 18 inlet;
#X obj 414 223 cnv 15 500 30 empty \$0-myCanvas This\\\ is\\\ my\\\ label?
9 13 0 18 -233017 -99865 0;
#X obj 28 54 route doll rec size visw vish lblfon lblsz lblx lbly bgclr
lblclr, f 66;
#X obj 56 93 symbol;
#X text 6 4 _;
#X text 479 173 dollarsign0-myCanvas;
#X msg 74 18 doll 1 \, rec myCanvas \, size 15 \, visw 50 \, vish 60
\, lblfon 0 \, lblsz 18 \, lblx 9 \, lbly 13 \, bgclr 10 \, lblclr
21, f 106;
#N canvas 240 66 752 410 \$0-how-to-set-values-externally 0;
#X text 112 49 doll [0/1] - toggle on appending "\$0-" at the start
of the recieve symbol, f 85;
#X text 112 102 visw [float] - the visible width of the canvas in pixels
, f 85;
#X text 112 85 size [float] - the size of the clickable/dragable portion
of the canvas in pixels, f 85;
#X text 112 122 vish [float] - the visible height of the canvas in
pixels, f 85;
#X text 111 141 lblfon [0/1/2] - font designation for the canvas' label
\, with [0] for Menlo \, [1] for, f 89;
#X text 131 155 Helvetica \, [2] for Times. Note that these fonts may
be different on Windows or Linux, f 84;
#X text 111 173 lblsz [float] - font size designation for the canvas'
label, f 85;
#X text 111 213 lbly [float] - y offset in pixels from the top left
corner of the canvas, f 85;
#X text 111 193 lblx [float] - x offset (horizontal) in pixels from
the top left corner of the canvas, f 85;
#X text 4 29 To set the values for your canvas object externally \,
send messages with the following signifiers to the 0 (leftmost) inlet:
, f 124;
#X msg 31 336 doll 1 \, rec myCanvas \, size 15 \, visw 500 \, vish
30 \, lblfon 0 \, lblsz 18 \, lblx 9 \, lbly 13 \, bgclr 10 \, lblclr
21, f 106;
#X text 111 67 rec [symbol] - receive symbol for the canvas, f 85
;
#X obj 90 241 cnv 5 5 5 empty \$0-canvas-format-helper-boldstatement1
Please\ note\ that\ the\ $-0\ designation\ (1\ or\ 0)\ MUST\ be\ sent\ first\,\ followed\ by\ the\ canvas\ 
1 9 0 12 -262144 -258113 0;
#N canvas 2423 143 808 250 init 0;
#X msg 30 102 label \$1;
#X msg 419 120 label \$1;
#X obj 29 147 s \$0-canvas-format-helper-boldstatement1;
#X obj 418 164 s \$0-canvas-format-helper-boldstatement2;
#X obj 233 15 loadbang;
#X msg 420 51 symbol receive\ symbol!\ Failure\ to\ do\ so\ will\ cause\ incorrect\ parameter\ dispatching!
;
#X msg 26 43 symbol Please\\\ note\\\ that\\\ the\\\ $-0\\\ designation\\\ (1\\\ or\\\ 0)\\\ MUST\\\ be\\\ sent\\\ first\\\,\\\ followed\\\ by\\\ the\\\ canvas\\\ 
;
#X connect 0 0 2 0;
#X connect 1 0 3 0;
#X connect 4 0 5 0;
#X connect 4 0 6 0;
#X connect 5 0 1 0;
#X connect 6 0 0 0;
#X restore 659 9 pd init;
#X obj 90 257 cnv 5 5 5 empty \$0-canvas-format-helper-boldstatement2
receive\ symbol!\ Failure\ to\ do\ so\ will\ cause\ incorrect\ parameter\ dispatching!
1 9 0 12 -262144 -258113 0;
#X msg 112 362 symbol this\ is\ my\ label!;
#X text 296 357 The label parameter must be sent separately to Inlet
1 (rightmost inlet). The message must be prepended with the "symbol"
identifier \, and the escape character () needs to be set in the message:
, f 68;
#X text 102 286 All parameters EXCEPT label can be sent in a single
message to Inlet 0 (leftmost inlet) like below (and this can be copied
and pasted for easy initializing formatting)., f 89;
#X restore 326 378 pd \$0-how-to-set-values-externally;
#X msg 326 336 vis 1;
#X obj 326 357 s pd-\$0-how-to-set-values-externally;
#X obj 120 263 bng 15 250 50 0 empty empty empty 17 7 0 10 -262144
-1 -1;
#X text 141 263 How to set canvas values externally;
#X text 891 18 All left-inlet messages;
#X text 984 47 Label text;
#X msg 636 48 symbol This\ is\ my\ label?;
#X obj 587 47 inlet;
#X obj 632 184 cnv 5 5 5 empty empty ↴ -3 3 0 24 -262144 -99865 0
;
#X connect 0 0 2 6;
#X connect 1 0 2 11;
#X connect 3 0 2 10;
#X connect 4 0 2 3;
#X connect 5 0 2 4;
#X connect 6 0 2 7;
#X connect 7 0 2 8;
#X connect 8 0 2 2;
#X connect 9 0 2 0;
#X connect 10 0 2 5;
#X connect 11 0 2 9;
#X connect 12 0 2 1;
#X connect 14 0 16 0;
#X connect 16 0 12 0;
#X connect 16 1 17 0;
#X connect 16 2 8 0;
#X connect 16 3 4 0;
#X connect 16 4 5 0;
#X connect 16 5 10 0;
#X connect 16 6 0 0;
#X connect 16 7 6 0;
#X connect 16 8 7 0;
#X connect 16 9 3 0;
#X connect 16 10 1 0;
#X connect 17 0 9 0;
#X connect 20 0 16 0;
#X connect 22 0 23 0;
#X connect 24 0 22 0;
#X connect 28 0 11 0;
#X connect 29 0 11 0;
#X coords 0 -1 1 1 300 190 2 100 100;
#X restore 25 27 pd graph;
#X obj 25 1 inlet;
#X connect 0 0 1 1;
#X connect 2 0 1 0;
#X restore 313 109 pd canvas-ctrl;
#X msg 408 496 symbol Arguments;
#X msg 313 473 doll 1 \, rec helpPatchSecLabelArgs \, size 2 \, visw
501 \, vish 3 \, lblfon 0 \, lblsz 16 \, lblx 20 \, lbly 15 \, bgclr
1 \, lblclr 12, f 123;
#X text 113 582 \$0-helpPatchSecLabelArgs;
#X msg 313 583 doll 1 \, rec helpPatchSecLabelNotes \, size 2 \, visw
501 \, vish 3 \, lblfon 0 \, lblsz 16 \, lblx 20 \, lbly 15 \, bgclr
1 \, lblclr 12, f 123;
#X msg 408 606 symbol Notes;
#N canvas 673 23 349 258 canvas-ctrl 0;
#X obj 291 1 inlet;
#N canvas 248 270 1089 459 graph 0;
#X floatatom 180 241 5 0 0 0 Lbl-Sz - -;
#X floatatom 273 241 5 0 29 0 Lbl-Clr - -;
#N canvas 32 23 1408 389 label-properties 0;
#X floatatom 314 72 3 18 100 0 - - -;
#X msg 314 99 size \$1;
#X obj 400 121 pack 100 60, f 18;
#X obj 491 93 t b f;
#X floatatom 491 68 4 18 100 0 - - -;
#X floatatom 400 68 4 18 100 0 - - -;
#X msg 400 148 vis_size \$1 \$2;
#X text 442 41 w/x;
#X text 532 41 h/y;
#X floatatom 589 116 4 0 3 0 - - -;
#X obj 721 135 t b f;
#X floatatom 721 116 5 5 50 0 - - -;
#X msg 589 185 label_font \$1 \$2;
#X text 632 41 type;
#X text 760 40 size;
#X obj 589 64 vradio 15 1 0 3 empty empty empty 0 -8 0 10 -262144 -1
-1 0;
#X text 605 63 DejaVu Sans Mono;
#X text 605 78 Helvetica;
#X text 606 93 Times;
#X floatatom 817 71 4 -100 250 0 - - -;
#X obj 889 98 t b f;
#X floatatom 889 71 5 -150 150 0 - - -;
#X msg 817 148 label_pos \$1 \$2;
#X text 856 41 x;
#X text 929 41 y;
#X obj 817 126 pack 17 20, f 17;
#X obj 589 164 pack 0 25, f 24;
#X msg 973 129 label \$1;
#X floatatom 1191 70 3 0 29 1 bgColor - -;
#X floatatom 1295 70 3 0 29 1 lblColor - -;
#X obj 1295 92 t b f;
#X msg 1191 145 color \$1 \$2 \$3;
#X obj 1191 124 pack 1 22 22, f 14;
#X text 1170 18 Color Presets (0-29):;
#X obj 24 42 inlet;
#X obj 8 42 cnv 14 14 14 empty empty 0 4 8 0 12 -99865 -228856 0;
#X symbolatom 24 210 10 0 0 0 - - -;
#X obj 588 330 send, f 13;
#X obj 400 42 inlet;
#X obj 314 42 inlet;
#X obj 491 42 inlet;
#X obj 155 42 cnv 14 14 14 empty empty 1 4 8 0 12 -99865 -228856 0
;
#X obj 297 42 cnv 14 14 14 empty empty 2 4 8 0 12 -99865 -228856 0
;
#X obj 384 42 cnv 14 14 14 empty empty 3 4 8 0 12 -99865 -228856 0
;
#X obj 721 42 inlet;
#X obj 589 42 inlet;
#X obj 817 42 inlet;
#X obj 476 42 cnv 14 14 14 empty empty 4 4 8 0 12 -99865 -228856 0
;
#X obj 573 42 cnv 14 14 14 empty empty 5 4 8 0 12 -99865 -228856 0
;
#X obj 703 42 cnv 14 14 14 empty empty 6 4 8 0 12 -99865 -228856 0
;
#X text 315 18 Size;
#X text 421 18 Visible Size;
#X text 635 18 Label Font;
#X text 824 18 Label Offset;
#X obj 889 42 inlet;
#X obj 800 42 cnv 14 14 14 empty empty 7 4 8 0 12 -99865 -228856 0
;
#X msg 1052 89 symbol my\ label;
#X symbolatom 973 92 10 0 0 0 - - -;
#X obj 973 42 inlet;
#X obj 872 42 cnv 14 14 14 empty empty 8 4 8 0 12 -99865 -228856 0
;
#X msg 973 70 symbol \$1;
#X text 1007 18 Label Text;
#X obj 1191 42 inlet;
#X obj 958 42 cnv 14 14 14 empty empty 9 4 8 0 12 -99865 -228856 0
;
#X obj 1295 42 inlet;
#X obj 1174 42 cnv 14 14 14 empty empty 10 0 8 0 12 -99865 -228856
0;
#X text 0 18 Canvas Name;
#X obj 284 2 cnv 5 1 260 empty empty empty 20 12 0 14 -128992 -66577
0;
#X obj 738 322 cnv 2 501 60 empty \$0-test_canvas Pitch-Shift 20 15
0 16 -166441 -33289 0;
#X obj 415 328 s \$0-test_canvas;
#X obj 210 187 spigot;
#X obj 170 88 tgl 15 0 empty empty empty 17 7 0 10 -262144 -1 -1 1
1;
#X obj 249 134 == 1;
#X obj 101 135 == 0;
#X obj 144 134 list append \$0;
#X msg 144 157 symbol \$2-\$1;
#X msg 24 136 symbol \$1;
#X obj 24 167 spigot;
#X obj 170 42 inlet;
#X obj 1279 42 cnv 14 14 14 empty empty 11 0 8 0 12 -99865 -228856
0;
#X text 136 18 Add "\$0" option;
#X obj 374 2 cnv 5 1 260 empty empty empty 20 12 0 14 -128992 -66577
0;
#X obj 561 2 cnv 5 1 260 empty empty empty 20 12 0 14 -128992 -66577
0;
#X obj 791 2 cnv 5 1 260 empty empty empty 20 12 0 14 -128992 -66577
0;
#X obj 944 2 cnv 5 1 260 empty empty empty 20 12 0 14 -128992 -66577
0;
#X obj 1164 2 cnv 5 1 260 empty empty empty 20 12 0 14 -128992 -66577
0;
#X connect 0 0 1 0;
#X connect 1 0 37 0;
#X connect 1 0 69 0;
#X connect 2 0 6 0;
#X connect 3 0 2 0;
#X connect 3 1 2 1;
#X connect 4 0 3 0;
#X connect 5 0 2 0;
#X connect 6 0 37 0;
#X connect 6 0 69 0;
#X connect 9 0 26 0;
#X connect 10 0 26 0;
#X connect 10 1 26 1;
#X connect 11 0 10 0;
#X connect 12 0 37 0;
#X connect 12 0 69 0;
#X connect 15 0 9 0;
#X connect 19 0 25 0;
#X connect 20 0 25 0;
#X connect 20 1 25 1;
#X connect 21 0 20 0;
#X connect 22 0 37 0;
#X connect 22 0 69 0;
#X connect 25 0 22 0;
#X connect 26 0 12 0;
#X connect 27 0 37 0;
#X connect 27 0 69 0;
#X connect 28 0 32 0;
#X connect 29 0 30 0;
#X connect 30 0 32 0;
#X connect 30 1 32 2;
#X connect 31 0 37 0;
#X connect 31 0 69 0;
#X connect 32 0 31 0;
#X connect 34 0 74 0;
#X connect 34 0 76 0;
#X connect 36 0 37 1;
#X connect 38 0 5 0;
#X connect 39 0 0 0;
#X connect 40 0 4 0;
#X connect 44 0 11 0;
#X connect 45 0 15 0;
#X connect 46 0 19 0;
#X connect 54 0 21 0;
#X connect 56 0 27 0;
#X connect 57 0 27 0;
#X connect 58 0 60 0;
#X connect 60 0 57 0;
#X connect 62 0 28 0;
#X connect 64 0 29 0;
#X connect 70 0 36 0;
#X connect 71 0 72 0;
#X connect 71 0 73 0;
#X connect 72 0 70 1;
#X connect 73 0 77 1;
#X connect 74 0 75 0;
#X connect 75 0 70 0;
#X connect 76 0 77 0;
#X connect 77 0 36 0;
#X connect 78 0 71 0;
#X restore 6 354 pd label-properties;
#X f 45;
#X floatatom 273 219 5 0 29 0 BG-Clr - -;
#X floatatom 180 174 5 0 0 0 Vis-Sz-W - -;
#X floatatom 181 198 5 0 0 0 Vis-Sz-H - -;
#X floatatom 271 150 5 0 0 0 Lbl-X - -;
#X floatatom 272 174 5 0 0 0 Lbl-Y - -;
#X floatatom 180 150 5 0 0 0 Size - -;
#X symbolatom 214 127 10 0 0 0 CnvReceiveSymbol - -;
#X floatatom 181 219 5 0 2 0 Lbl-Fon - -;
#X symbolatom 274 195 10 0 0 0 Lbl-Txt - -;
#X obj 295 128 tgl 15 0 empty empty Append_0 20 7 0 10 -262144 -260097
-1 1 1;
#X text 194 103 Label Properties;
#X obj 28 18 inlet;
#X obj 414 223 cnv 15 500 30 empty \$0-myCanvas This\\\ is\\\ my\\\ label?
9 13 0 18 -233017 -99865 0;
#X obj 28 54 route doll rec size visw vish lblfon lblsz lblx lbly bgclr
lblclr, f 66;
#X obj 56 93 symbol;
#X text 6 4 _;
#X text 479 173 dollarsign0-myCanvas;
#X msg 74 18 doll 1 \, rec myCanvas \, size 15 \, visw 50 \, vish 60
\, lblfon 0 \, lblsz 18 \, lblx 9 \, lbly 13 \, bgclr 10 \, lblclr
21, f 106;
#N canvas 240 66 752 410 \$0-how-to-set-values-externally 0;
#X text 112 49 doll [0/1] - toggle on appending "\$0-" at the start
of the recieve symbol, f 85;
#X text 112 102 visw [float] - the visible width of the canvas in pixels
, f 85;
#X text 112 85 size [float] - the size of the clickable/dragable portion
of the canvas in pixels, f 85;
#X text 112 122 vish [float] - the visible height of the canvas in
pixels, f 85;
#X text 111 141 lblfon [0/1/2] - font designation for the canvas' label
\, with [0] for Menlo \, [1] for, f 89;
#X text 131 155 Helvetica \, [2] for Times. Note that these fonts may
be different on Windows or Linux, f 84;
#X text 111 173 lblsz [float] - font size designation for the canvas'
label, f 85;
#X text 111 213 lbly [float] - y offset in pixels from the top left
corner of the canvas, f 85;
#X text 111 193 lblx [float] - x offset (horizontal) in pixels from
the top left corner of the canvas, f 85;
#X text 4 29 To set the values for your canvas object externally \,
send messages with the following signifiers to the 0 (leftmost) inlet:
, f 124;
#X msg 31 336 doll 1 \, rec myCanvas \, size 15 \, visw 500 \, vish
30 \, lblfon 0 \, lblsz 18 \, lblx 9 \, lbly 13 \, bgclr 10 \, lblclr
21, f 106;
#X text 111 67 rec [symbol] - receive symbol for the canvas, f 85
;
#X obj 90 241 cnv 5 5 5 empty \$0-canvas-format-helper-boldstatement1
Please\ note\ that\ the\ $-0\ designation\ (1\ or\ 0)\ MUST\ be\ sent\ first\,\ followed\ by\ the\ canvas\ 
1 9 0 12 -262144 -258113 0;
#N canvas 2423 143 808 250 init 0;
#X msg 30 102 label \$1;
#X msg 419 120 label \$1;
#X obj 29 147 s \$0-canvas-format-helper-boldstatement1;
#X obj 418 164 s \$0-canvas-format-helper-boldstatement2;
#X obj 233 15 loadbang;
#X msg 420 51 symbol receive\ symbol!\ Failure\ to\ do\ so\ will\ cause\ incorrect\ parameter\ dispatching!
;
#X msg 26 43 symbol Please\\\ note\\\ that\\\ the\\\ $-0\\\ designation\\\ (1\\\ or\\\ 0)\\\ MUST\\\ be\\\ sent\\\ first\\\,\\\ followed\\\ by\\\ the\\\ canvas\\\ 
;
#X connect 0 0 2 0;
#X connect 1 0 3 0;
#X connect 4 0 5 0;
#X connect 4 0 6 0;
#X connect 5 0 1 0;
#X connect 6 0 0 0;
#X restore 659 9 pd init;
#X obj 90 257 cnv 5 5 5 empty \$0-canvas-format-helper-boldstatement2
receive\ symbol!\ Failure\ to\ do\ so\ will\ cause\ incorrect\ parameter\ dispatching!
1 9 0 12 -262144 -258113 0;
#X msg 112 362 symbol this\ is\ my\ label!;
#X text 296 357 The label parameter must be sent separately to Inlet
1 (rightmost inlet). The message must be prepended with the "symbol"
identifier \, and the escape character () needs to be set in the message:
, f 68;
#X text 102 286 All parameters EXCEPT label can be sent in a single
message to Inlet 0 (leftmost inlet) like below (and this can be copied
and pasted for easy initializing formatting)., f 89;
#X restore 326 378 pd \$0-how-to-set-values-externally;
#X msg 326 336 vis 1;
#X obj 326 357 s pd-\$0-how-to-set-values-externally;
#X obj 120 263 bng 15 250 50 0 empty empty empty 17 7 0 10 -262144
-1 -1;
#X text 141 263 How to set canvas values externally;
#X text 891 18 All left-inlet messages;
#X text 984 47 Label text;
#X msg 636 48 symbol This\ is\ my\ label?;
#X obj 587 47 inlet;
#X obj 632 184 cnv 5 5 5 empty empty ↴ -3 3 0 24 -262144 -99865 0
;
#X connect 0 0 2 6;
#X connect 1 0 2 11;
#X connect 3 0 2 10;
#X connect 4 0 2 3;
#X connect 5 0 2 4;
#X connect 6 0 2 7;
#X connect 7 0 2 8;
#X connect 8 0 2 2;
#X connect 9 0 2 0;
#X connect 10 0 2 5;
#X connect 11 0 2 9;
#X connect 12 0 2 1;
#X connect 14 0 16 0;
#X connect 16 0 12 0;
#X connect 16 1 17 0;
#X connect 16 2 8 0;
#X connect 16 3 4 0;
#X connect 16 4 5 0;
#X connect 16 5 10 0;
#X connect 16 6 0 0;
#X connect 16 7 6 0;
#X connect 16 8 7 0;
#X connect 16 9 3 0;
#X connect 16 10 1 0;
#X connect 17 0 9 0;
#X connect 20 0 16 0;
#X connect 22 0 23 0;
#X connect 24 0 22 0;
#X connect 28 0 11 0;
#X connect 29 0 11 0;
#X coords 0 -1 1 1 300 190 2 100 100;
#X restore 25 27 pd graph;
#X obj 25 1 inlet;
#X connect 0 0 1 1;
#X connect 2 0 1 0;
#X restore 313 189 pd canvas-ctrl;
#N canvas 673 23 349 258 canvas-ctrl 0;
#X obj 291 1 inlet;
#N canvas 248 270 1089 459 graph 0;
#X floatatom 180 241 5 0 0 0 Lbl-Sz - -;
#X floatatom 273 241 5 0 29 0 Lbl-Clr - -;
#N canvas 32 23 1408 389 label-properties 0;
#X floatatom 314 72 3 18 100 0 - - -;
#X msg 314 99 size \$1;
#X obj 400 121 pack 100 60, f 18;
#X obj 491 93 t b f;
#X floatatom 491 68 4 18 100 0 - - -;
#X floatatom 400 68 4 18 100 0 - - -;
#X msg 400 148 vis_size \$1 \$2;
#X text 442 41 w/x;
#X text 532 41 h/y;
#X floatatom 589 116 4 0 3 0 - - -;
#X obj 721 135 t b f;
#X floatatom 721 116 5 5 50 0 - - -;
#X msg 589 185 label_font \$1 \$2;
#X text 632 41 type;
#X text 760 40 size;
#X obj 589 64 vradio 15 1 0 3 empty empty empty 0 -8 0 10 -262144 -1
-1 0;
#X text 605 63 DejaVu Sans Mono;
#X text 605 78 Helvetica;
#X text 606 93 Times;
#X floatatom 817 71 4 -100 250 0 - - -;
#X obj 889 98 t b f;
#X floatatom 889 71 5 -150 150 0 - - -;
#X msg 817 148 label_pos \$1 \$2;
#X text 856 41 x;
#X text 929 41 y;
#X obj 817 126 pack 17 20, f 17;
#X obj 589 164 pack 0 25, f 24;
#X msg 973 129 label \$1;
#X floatatom 1191 70 3 0 29 1 bgColor - -;
#X floatatom 1295 70 3 0 29 1 lblColor - -;
#X obj 1295 92 t b f;
#X msg 1191 145 color \$1 \$2 \$3;
#X obj 1191 124 pack 1 22 22, f 14;
#X text 1170 18 Color Presets (0-29):;
#X obj 24 42 inlet;
#X obj 8 42 cnv 14 14 14 empty empty 0 4 8 0 12 -99865 -228856 0;
#X symbolatom 24 210 10 0 0 0 - - -;
#X obj 588 330 send, f 13;
#X obj 400 42 inlet;
#X obj 314 42 inlet;
#X obj 491 42 inlet;
#X obj 155 42 cnv 14 14 14 empty empty 1 4 8 0 12 -99865 -228856 0
;
#X obj 297 42 cnv 14 14 14 empty empty 2 4 8 0 12 -99865 -228856 0
;
#X obj 384 42 cnv 14 14 14 empty empty 3 4 8 0 12 -99865 -228856 0
;
#X obj 721 42 inlet;
#X obj 589 42 inlet;
#X obj 817 42 inlet;
#X obj 476 42 cnv 14 14 14 empty empty 4 4 8 0 12 -99865 -228856 0
;
#X obj 573 42 cnv 14 14 14 empty empty 5 4 8 0 12 -99865 -228856 0
;
#X obj 703 42 cnv 14 14 14 empty empty 6 4 8 0 12 -99865 -228856 0
;
#X text 315 18 Size;
#X text 421 18 Visible Size;
#X text 635 18 Label Font;
#X text 824 18 Label Offset;
#X obj 889 42 inlet;
#X obj 800 42 cnv 14 14 14 empty empty 7 4 8 0 12 -99865 -228856 0
;
#X msg 1052 89 symbol my\ label;
#X symbolatom 973 92 10 0 0 0 - - -;
#X obj 973 42 inlet;
#X obj 872 42 cnv 14 14 14 empty empty 8 4 8 0 12 -99865 -228856 0
;
#X msg 973 70 symbol \$1;
#X text 1007 18 Label Text;
#X obj 1191 42 inlet;
#X obj 958 42 cnv 14 14 14 empty empty 9 4 8 0 12 -99865 -228856 0
;
#X obj 1295 42 inlet;
#X obj 1174 42 cnv 14 14 14 empty empty 10 0 8 0 12 -99865 -228856
0;
#X text 0 18 Canvas Name;
#X obj 284 2 cnv 5 1 260 empty empty empty 20 12 0 14 -128992 -66577
0;
#X obj 738 322 cnv 2 501 60 empty \$0-test_canvas Pitch-Shift 20 15
0 16 -166441 -33289 0;
#X obj 415 328 s \$0-test_canvas;
#X obj 210 187 spigot;
#X obj 170 88 tgl 15 0 empty empty empty 17 7 0 10 -262144 -1 -1 1
1;
#X obj 249 134 == 1;
#X obj 101 135 == 0;
#X obj 144 134 list append \$0;
#X msg 144 157 symbol \$2-\$1;
#X msg 24 136 symbol \$1;
#X obj 24 167 spigot;
#X obj 170 42 inlet;
#X obj 1279 42 cnv 14 14 14 empty empty 11 0 8 0 12 -99865 -228856
0;
#X text 136 18 Add "\$0" option;
#X obj 374 2 cnv 5 1 260 empty empty empty 20 12 0 14 -128992 -66577
0;
#X obj 561 2 cnv 5 1 260 empty empty empty 20 12 0 14 -128992 -66577
0;
#X obj 791 2 cnv 5 1 260 empty empty empty 20 12 0 14 -128992 -66577
0;
#X obj 944 2 cnv 5 1 260 empty empty empty 20 12 0 14 -128992 -66577
0;
#X obj 1164 2 cnv 5 1 260 empty empty empty 20 12 0 14 -128992 -66577
0;
#X connect 0 0 1 0;
#X connect 1 0 37 0;
#X connect 1 0 69 0;
#X connect 2 0 6 0;
#X connect 3 0 2 0;
#X connect 3 1 2 1;
#X connect 4 0 3 0;
#X connect 5 0 2 0;
#X connect 6 0 37 0;
#X connect 6 0 69 0;
#X connect 9 0 26 0;
#X connect 10 0 26 0;
#X connect 10 1 26 1;
#X connect 11 0 10 0;
#X connect 12 0 37 0;
#X connect 12 0 69 0;
#X connect 15 0 9 0;
#X connect 19 0 25 0;
#X connect 20 0 25 0;
#X connect 20 1 25 1;
#X connect 21 0 20 0;
#X connect 22 0 37 0;
#X connect 22 0 69 0;
#X connect 25 0 22 0;
#X connect 26 0 12 0;
#X connect 27 0 37 0;
#X connect 27 0 69 0;
#X connect 28 0 32 0;
#X connect 29 0 30 0;
#X connect 30 0 32 0;
#X connect 30 1 32 2;
#X connect 31 0 37 0;
#X connect 31 0 69 0;
#X connect 32 0 31 0;
#X connect 34 0 74 0;
#X connect 34 0 76 0;
#X connect 36 0 37 1;
#X connect 38 0 5 0;
#X connect 39 0 0 0;
#X connect 40 0 4 0;
#X connect 44 0 11 0;
#X connect 45 0 15 0;
#X connect 46 0 19 0;
#X connect 54 0 21 0;
#X connect 56 0 27 0;
#X connect 57 0 27 0;
#X connect 58 0 60 0;
#X connect 60 0 57 0;
#X connect 62 0 28 0;
#X connect 64 0 29 0;
#X connect 70 0 36 0;
#X connect 71 0 72 0;
#X connect 71 0 73 0;
#X connect 72 0 70 1;
#X connect 73 0 77 1;
#X connect 74 0 75 0;
#X connect 75 0 70 0;
#X connect 76 0 77 0;
#X connect 77 0 36 0;
#X connect 78 0 71 0;
#X restore 6 354 pd label-properties;
#X f 45;
#X floatatom 273 219 5 0 29 0 BG-Clr - -;
#X floatatom 180 174 5 0 0 0 Vis-Sz-W - -;
#X floatatom 181 198 5 0 0 0 Vis-Sz-H - -;
#X floatatom 271 150 5 0 0 0 Lbl-X - -;
#X floatatom 272 174 5 0 0 0 Lbl-Y - -;
#X floatatom 180 150 5 0 0 0 Size - -;
#X symbolatom 214 127 10 0 0 0 CnvReceiveSymbol - -;
#X floatatom 181 219 5 0 2 0 Lbl-Fon - -;
#X symbolatom 274 195 10 0 0 0 Lbl-Txt - -;
#X obj 295 128 tgl 15 0 empty empty Append_0 20 7 0 10 -262144 -260097
-1 1 1;
#X text 194 103 Label Properties;
#X obj 28 18 inlet;
#X obj 414 223 cnv 15 500 30 empty \$0-myCanvas This\\\ is\\\ my\\\ label?
9 13 0 18 -233017 -99865 0;
#X obj 28 54 route doll rec size visw vish lblfon lblsz lblx lbly bgclr
lblclr, f 66;
#X obj 56 93 symbol;
#X text 6 4 _;
#X text 479 173 dollarsign0-myCanvas;
#X msg 74 18 doll 1 \, rec myCanvas \, size 15 \, visw 50 \, vish 60
\, lblfon 0 \, lblsz 18 \, lblx 9 \, lbly 13 \, bgclr 10 \, lblclr
21, f 106;
#N canvas 240 66 752 410 \$0-how-to-set-values-externally 0;
#X text 112 49 doll [0/1] - toggle on appending "\$0-" at the start
of the recieve symbol, f 85;
#X text 112 102 visw [float] - the visible width of the canvas in pixels
, f 85;
#X text 112 85 size [float] - the size of the clickable/dragable portion
of the canvas in pixels, f 85;
#X text 112 122 vish [float] - the visible height of the canvas in
pixels, f 85;
#X text 111 141 lblfon [0/1/2] - font designation for the canvas' label
\, with [0] for Menlo \, [1] for, f 89;
#X text 131 155 Helvetica \, [2] for Times. Note that these fonts may
be different on Windows or Linux, f 84;
#X text 111 173 lblsz [float] - font size designation for the canvas'
label, f 85;
#X text 111 213 lbly [float] - y offset in pixels from the top left
corner of the canvas, f 85;
#X text 111 193 lblx [float] - x offset (horizontal) in pixels from
the top left corner of the canvas, f 85;
#X text 4 29 To set the values for your canvas object externally \,
send messages with the following signifiers to the 0 (leftmost) inlet:
, f 124;
#X msg 31 336 doll 1 \, rec myCanvas \, size 15 \, visw 500 \, vish
30 \, lblfon 0 \, lblsz 18 \, lblx 9 \, lbly 13 \, bgclr 10 \, lblclr
21, f 106;
#X text 111 67 rec [symbol] - receive symbol for the canvas, f 85
;
#X obj 90 241 cnv 5 5 5 empty \$0-canvas-format-helper-boldstatement1
Please\ note\ that\ the\ $-0\ designation\ (1\ or\ 0)\ MUST\ be\ sent\ first\,\ followed\ by\ the\ canvas\ 
1 9 0 12 -262144 -258113 0;
#N canvas 2423 143 808 250 init 0;
#X msg 30 102 label \$1;
#X msg 419 120 label \$1;
#X obj 29 147 s \$0-canvas-format-helper-boldstatement1;
#X obj 418 164 s \$0-canvas-format-helper-boldstatement2;
#X obj 233 15 loadbang;
#X msg 420 51 symbol receive\ symbol!\ Failure\ to\ do\ so\ will\ cause\ incorrect\ parameter\ dispatching!
;
#X msg 26 43 symbol Please\\\ note\\\ that\\\ the\\\ $-0\\\ designation\\\ (1\\\ or\\\ 0)\\\ MUST\\\ be\\\ sent\\\ first\\\,\\\ followed\\\ by\\\ the\\\ canvas\\\ 
;
#X connect 0 0 2 0;
#X connect 1 0 3 0;
#X connect 4 0 5 0;
#X connect 4 0 6 0;
#X connect 5 0 1 0;
#X connect 6 0 0 0;
#X restore 659 9 pd init;
#X obj 90 257 cnv 5 5 5 empty \$0-canvas-format-helper-boldstatement2
receive\ symbol!\ Failure\ to\ do\ so\ will\ cause\ incorrect\ parameter\ dispatching!
1 9 0 12 -262144 -258113 0;
#X msg 112 362 symbol this\ is\ my\ label!;
#X text 296 357 The label parameter must be sent separately to Inlet
1 (rightmost inlet). The message must be prepended with the "symbol"
identifier \, and the escape character () needs to be set in the message:
, f 68;
#X text 102 286 All parameters EXCEPT label can be sent in a single
message to Inlet 0 (leftmost inlet) like below (and this can be copied
and pasted for easy initializing formatting)., f 89;
#X restore 326 378 pd \$0-how-to-set-values-externally;
#X msg 326 336 vis 1;
#X obj 326 357 s pd-\$0-how-to-set-values-externally;
#X obj 120 263 bng 15 250 50 0 empty empty empty 17 7 0 10 -262144
-1 -1;
#X text 141 263 How to set canvas values externally;
#X text 891 18 All left-inlet messages;
#X text 984 47 Label text;
#X msg 636 48 symbol This\ is\ my\ label?;
#X obj 587 47 inlet;
#X obj 632 184 cnv 5 5 5 empty empty ↴ -3 3 0 24 -262144 -99865 0
;
#X connect 0 0 2 6;
#X connect 1 0 2 11;
#X connect 3 0 2 10;
#X connect 4 0 2 3;
#X connect 5 0 2 4;
#X connect 6 0 2 7;
#X connect 7 0 2 8;
#X connect 8 0 2 2;
#X connect 9 0 2 0;
#X connect 10 0 2 5;
#X connect 11 0 2 9;
#X connect 12 0 2 1;
#X connect 14 0 16 0;
#X connect 16 0 12 0;
#X connect 16 1 17 0;
#X connect 16 2 8 0;
#X connect 16 3 4 0;
#X connect 16 4 5 0;
#X connect 16 5 10 0;
#X connect 16 6 0 0;
#X connect 16 7 6 0;
#X connect 16 8 7 0;
#X connect 16 9 3 0;
#X connect 16 10 1 0;
#X connect 17 0 9 0;
#X connect 20 0 16 0;
#X connect 22 0 23 0;
#X connect 24 0 22 0;
#X connect 28 0 11 0;
#X connect 29 0 11 0;
#X coords 0 -1 1 1 300 190 2 100 100;
#X restore 25 27 pd graph;
#X obj 25 1 inlet;
#X connect 0 0 1 1;
#X connect 2 0 1 0;
#X restore 313 289 pd canvas-ctrl;
#N canvas 673 23 349 258 canvas-ctrl 0;
#X obj 291 1 inlet;
#N canvas 248 270 1089 459 graph 0;
#X floatatom 180 241 5 0 0 0 Lbl-Sz - -;
#X floatatom 273 241 5 0 29 0 Lbl-Clr - -;
#N canvas 32 23 1408 389 label-properties 0;
#X floatatom 314 72 3 18 100 0 - - -;
#X msg 314 99 size \$1;
#X obj 400 121 pack 100 60, f 18;
#X obj 491 93 t b f;
#X floatatom 491 68 4 18 100 0 - - -;
#X floatatom 400 68 4 18 100 0 - - -;
#X msg 400 148 vis_size \$1 \$2;
#X text 442 41 w/x;
#X text 532 41 h/y;
#X floatatom 589 116 4 0 3 0 - - -;
#X obj 721 135 t b f;
#X floatatom 721 116 5 5 50 0 - - -;
#X msg 589 185 label_font \$1 \$2;
#X text 632 41 type;
#X text 760 40 size;
#X obj 589 64 vradio 15 1 0 3 empty empty empty 0 -8 0 10 -262144 -1
-1 0;
#X text 605 63 DejaVu Sans Mono;
#X text 605 78 Helvetica;
#X text 606 93 Times;
#X floatatom 817 71 4 -100 250 0 - - -;
#X obj 889 98 t b f;
#X floatatom 889 71 5 -150 150 0 - - -;
#X msg 817 148 label_pos \$1 \$2;
#X text 856 41 x;
#X text 929 41 y;
#X obj 817 126 pack 17 20, f 17;
#X obj 589 164 pack 0 25, f 24;
#X msg 973 129 label \$1;
#X floatatom 1191 70 3 0 29 1 bgColor - -;
#X floatatom 1295 70 3 0 29 1 lblColor - -;
#X obj 1295 92 t b f;
#X msg 1191 145 color \$1 \$2 \$3;
#X obj 1191 124 pack 1 22 22, f 14;
#X text 1170 18 Color Presets (0-29):;
#X obj 24 42 inlet;
#X obj 8 42 cnv 14 14 14 empty empty 0 4 8 0 12 -99865 -228856 0;
#X symbolatom 24 210 10 0 0 0 - - -;
#X obj 588 330 send, f 13;
#X obj 400 42 inlet;
#X obj 314 42 inlet;
#X obj 491 42 inlet;
#X obj 155 42 cnv 14 14 14 empty empty 1 4 8 0 12 -99865 -228856 0
;
#X obj 297 42 cnv 14 14 14 empty empty 2 4 8 0 12 -99865 -228856 0
;
#X obj 384 42 cnv 14 14 14 empty empty 3 4 8 0 12 -99865 -228856 0
;
#X obj 721 42 inlet;
#X obj 589 42 inlet;
#X obj 817 42 inlet;
#X obj 476 42 cnv 14 14 14 empty empty 4 4 8 0 12 -99865 -228856 0
;
#X obj 573 42 cnv 14 14 14 empty empty 5 4 8 0 12 -99865 -228856 0
;
#X obj 703 42 cnv 14 14 14 empty empty 6 4 8 0 12 -99865 -228856 0
;
#X text 315 18 Size;
#X text 421 18 Visible Size;
#X text 635 18 Label Font;
#X text 824 18 Label Offset;
#X obj 889 42 inlet;
#X obj 800 42 cnv 14 14 14 empty empty 7 4 8 0 12 -99865 -228856 0
;
#X msg 1052 89 symbol my\ label;
#X symbolatom 973 92 10 0 0 0 - - -;
#X obj 973 42 inlet;
#X obj 872 42 cnv 14 14 14 empty empty 8 4 8 0 12 -99865 -228856 0
;
#X msg 973 70 symbol \$1;
#X text 1007 18 Label Text;
#X obj 1191 42 inlet;
#X obj 958 42 cnv 14 14 14 empty empty 9 4 8 0 12 -99865 -228856 0
;
#X obj 1295 42 inlet;
#X obj 1174 42 cnv 14 14 14 empty empty 10 0 8 0 12 -99865 -228856
0;
#X text 0 18 Canvas Name;
#X obj 284 2 cnv 5 1 260 empty empty empty 20 12 0 14 -128992 -66577
0;
#X obj 738 322 cnv 2 501 60 empty \$0-test_canvas Pitch-Shift 20 15
0 16 -166441 -33289 0;
#X obj 415 328 s \$0-test_canvas;
#X obj 210 187 spigot;
#X obj 170 88 tgl 15 0 empty empty empty 17 7 0 10 -262144 -1 -1 1
1;
#X obj 249 134 == 1;
#X obj 101 135 == 0;
#X obj 144 134 list append \$0;
#X msg 144 157 symbol \$2-\$1;
#X msg 24 136 symbol \$1;
#X obj 24 167 spigot;
#X obj 170 42 inlet;
#X obj 1279 42 cnv 14 14 14 empty empty 11 0 8 0 12 -99865 -228856
0;
#X text 136 18 Add "\$0" option;
#X obj 374 2 cnv 5 1 260 empty empty empty 20 12 0 14 -128992 -66577
0;
#X obj 561 2 cnv 5 1 260 empty empty empty 20 12 0 14 -128992 -66577
0;
#X obj 791 2 cnv 5 1 260 empty empty empty 20 12 0 14 -128992 -66577
0;
#X obj 944 2 cnv 5 1 260 empty empty empty 20 12 0 14 -128992 -66577
0;
#X obj 1164 2 cnv 5 1 260 empty empty empty 20 12 0 14 -128992 -66577
0;
#X connect 0 0 1 0;
#X connect 1 0 37 0;
#X connect 1 0 69 0;
#X connect 2 0 6 0;
#X connect 3 0 2 0;
#X connect 3 1 2 1;
#X connect 4 0 3 0;
#X connect 5 0 2 0;
#X connect 6 0 37 0;
#X connect 6 0 69 0;
#X connect 9 0 26 0;
#X connect 10 0 26 0;
#X connect 10 1 26 1;
#X connect 11 0 10 0;
#X connect 12 0 37 0;
#X connect 12 0 69 0;
#X connect 15 0 9 0;
#X connect 19 0 25 0;
#X connect 20 0 25 0;
#X connect 20 1 25 1;
#X connect 21 0 20 0;
#X connect 22 0 37 0;
#X connect 22 0 69 0;
#X connect 25 0 22 0;
#X connect 26 0 12 0;
#X connect 27 0 37 0;
#X connect 27 0 69 0;
#X connect 28 0 32 0;
#X connect 29 0 30 0;
#X connect 30 0 32 0;
#X connect 30 1 32 2;
#X connect 31 0 37 0;
#X connect 31 0 69 0;
#X connect 32 0 31 0;
#X connect 34 0 74 0;
#X connect 34 0 76 0;
#X connect 36 0 37 1;
#X connect 38 0 5 0;
#X connect 39 0 0 0;
#X connect 40 0 4 0;
#X connect 44 0 11 0;
#X connect 45 0 15 0;
#X connect 46 0 19 0;
#X connect 54 0 21 0;
#X connect 56 0 27 0;
#X connect 57 0 27 0;
#X connect 58 0 60 0;
#X connect 60 0 57 0;
#X connect 62 0 28 0;
#X connect 64 0 29 0;
#X connect 70 0 36 0;
#X connect 71 0 72 0;
#X connect 71 0 73 0;
#X connect 72 0 70 1;
#X connect 73 0 77 1;
#X connect 74 0 75 0;
#X connect 75 0 70 0;
#X connect 76 0 77 0;
#X connect 77 0 36 0;
#X connect 78 0 71 0;
#X restore 6 354 pd label-properties;
#X f 45;
#X floatatom 273 219 5 0 29 0 BG-Clr - -;
#X floatatom 180 174 5 0 0 0 Vis-Sz-W - -;
#X floatatom 181 198 5 0 0 0 Vis-Sz-H - -;
#X floatatom 271 150 5 0 0 0 Lbl-X - -;
#X floatatom 272 174 5 0 0 0 Lbl-Y - -;
#X floatatom 180 150 5 0 0 0 Size - -;
#X symbolatom 214 127 10 0 0 0 CnvReceiveSymbol - -;
#X floatatom 181 219 5 0 2 0 Lbl-Fon - -;
#X symbolatom 274 195 10 0 0 0 Lbl-Txt - -;
#X obj 295 128 tgl 15 0 empty empty Append_0 20 7 0 10 -262144 -260097
-1 1 1;
#X text 194 103 Label Properties;
#X obj 28 18 inlet;
#X obj 414 223 cnv 15 500 30 empty \$0-myCanvas This\\\ is\\\ my\\\ label?
9 13 0 18 -233017 -99865 0;
#X obj 28 54 route doll rec size visw vish lblfon lblsz lblx lbly bgclr
lblclr, f 66;
#X obj 56 93 symbol;
#X text 6 4 _;
#X text 479 173 dollarsign0-myCanvas;
#X msg 74 18 doll 1 \, rec myCanvas \, size 15 \, visw 50 \, vish 60
\, lblfon 0 \, lblsz 18 \, lblx 9 \, lbly 13 \, bgclr 10 \, lblclr
21, f 106;
#N canvas 240 66 752 410 \$0-how-to-set-values-externally 0;
#X text 112 49 doll [0/1] - toggle on appending "\$0-" at the start
of the recieve symbol, f 85;
#X text 112 102 visw [float] - the visible width of the canvas in pixels
, f 85;
#X text 112 85 size [float] - the size of the clickable/dragable portion
of the canvas in pixels, f 85;
#X text 112 122 vish [float] - the visible height of the canvas in
pixels, f 85;
#X text 111 141 lblfon [0/1/2] - font designation for the canvas' label
\, with [0] for Menlo \, [1] for, f 89;
#X text 131 155 Helvetica \, [2] for Times. Note that these fonts may
be different on Windows or Linux, f 84;
#X text 111 173 lblsz [float] - font size designation for the canvas'
label, f 85;
#X text 111 213 lbly [float] - y offset in pixels from the top left
corner of the canvas, f 85;
#X text 111 193 lblx [float] - x offset (horizontal) in pixels from
the top left corner of the canvas, f 85;
#X text 4 29 To set the values for your canvas object externally \,
send messages with the following signifiers to the 0 (leftmost) inlet:
, f 124;
#X msg 31 336 doll 1 \, rec myCanvas \, size 15 \, visw 500 \, vish
30 \, lblfon 0 \, lblsz 18 \, lblx 9 \, lbly 13 \, bgclr 10 \, lblclr
21, f 106;
#X text 111 67 rec [symbol] - receive symbol for the canvas, f 85
;
#X obj 90 241 cnv 5 5 5 empty \$0-canvas-format-helper-boldstatement1
Please\ note\ that\ the\ $-0\ designation\ (1\ or\ 0)\ MUST\ be\ sent\ first\,\ followed\ by\ the\ canvas\ 
1 9 0 12 -262144 -258113 0;
#N canvas 2423 143 808 250 init 0;
#X msg 30 102 label \$1;
#X msg 419 120 label \$1;
#X obj 29 147 s \$0-canvas-format-helper-boldstatement1;
#X obj 418 164 s \$0-canvas-format-helper-boldstatement2;
#X obj 233 15 loadbang;
#X msg 420 51 symbol receive\ symbol!\ Failure\ to\ do\ so\ will\ cause\ incorrect\ parameter\ dispatching!
;
#X msg 26 43 symbol Please\\\ note\\\ that\\\ the\\\ $-0\\\ designation\\\ (1\\\ or\\\ 0)\\\ MUST\\\ be\\\ sent\\\ first\\\,\\\ followed\\\ by\\\ the\\\ canvas\\\ 
;
#X connect 0 0 2 0;
#X connect 1 0 3 0;
#X connect 4 0 5 0;
#X connect 4 0 6 0;
#X connect 5 0 1 0;
#X connect 6 0 0 0;
#X restore 659 9 pd init;
#X obj 90 257 cnv 5 5 5 empty \$0-canvas-format-helper-boldstatement2
receive\ symbol!\ Failure\ to\ do\ so\ will\ cause\ incorrect\ parameter\ dispatching!
1 9 0 12 -262144 -258113 0;
#X msg 112 362 symbol this\ is\ my\ label!;
#X text 296 357 The label parameter must be sent separately to Inlet
1 (rightmost inlet). The message must be prepended with the "symbol"
identifier \, and the escape character () needs to be set in the message:
, f 68;
#X text 102 286 All parameters EXCEPT label can be sent in a single
message to Inlet 0 (leftmost inlet) like below (and this can be copied
and pasted for easy initializing formatting)., f 89;
#X restore 326 378 pd \$0-how-to-set-values-externally;
#X msg 326 336 vis 1;
#X obj 326 357 s pd-\$0-how-to-set-values-externally;
#X obj 120 263 bng 15 250 50 0 empty empty empty 17 7 0 10 -262144
-1 -1;
#X text 141 263 How to set canvas values externally;
#X text 891 18 All left-inlet messages;
#X text 984 47 Label text;
#X msg 636 48 symbol This\ is\ my\ label?;
#X obj 587 47 inlet;
#X obj 632 184 cnv 5 5 5 empty empty ↴ -3 3 0 24 -262144 -99865 0
;
#X connect 0 0 2 6;
#X connect 1 0 2 11;
#X connect 3 0 2 10;
#X connect 4 0 2 3;
#X connect 5 0 2 4;
#X connect 6 0 2 7;
#X connect 7 0 2 8;
#X connect 8 0 2 2;
#X connect 9 0 2 0;
#X connect 10 0 2 5;
#X connect 11 0 2 9;
#X connect 12 0 2 1;
#X connect 14 0 16 0;
#X connect 16 0 12 0;
#X connect 16 1 17 0;
#X connect 16 2 8 0;
#X connect 16 3 4 0;
#X connect 16 4 5 0;
#X connect 16 5 10 0;
#X connect 16 6 0 0;
#X connect 16 7 6 0;
#X connect 16 8 7 0;
#X connect 16 9 3 0;
#X connect 16 10 1 0;
#X connect 17 0 9 0;
#X connect 20 0 16 0;
#X connect 22 0 23 0;
#X connect 24 0 22 0;
#X connect 28 0 11 0;
#X connect 29 0 11 0;
#X coords 0 -1 1 1 300 190 2 100 100;
#X restore 25 27 pd graph;
#X obj 25 1 inlet;
#X connect 0 0 1 1;
#X connect 2 0 1 0;
#X restore 313 399 pd canvas-ctrl;
#N canvas 673 23 349 258 canvas-ctrl 0;
#X obj 291 1 inlet;
#N canvas 248 270 1089 459 graph 0;
#X floatatom 180 241 5 0 0 0 Lbl-Sz - -;
#X floatatom 273 241 5 0 29 0 Lbl-Clr - -;
#N canvas 32 23 1408 389 label-properties 0;
#X floatatom 314 72 3 18 100 0 - - -;
#X msg 314 99 size \$1;
#X obj 400 121 pack 100 60, f 18;
#X obj 491 93 t b f;
#X floatatom 491 68 4 18 100 0 - - -;
#X floatatom 400 68 4 18 100 0 - - -;
#X msg 400 148 vis_size \$1 \$2;
#X text 442 41 w/x;
#X text 532 41 h/y;
#X floatatom 589 116 4 0 3 0 - - -;
#X obj 721 135 t b f;
#X floatatom 721 116 5 5 50 0 - - -;
#X msg 589 185 label_font \$1 \$2;
#X text 632 41 type;
#X text 760 40 size;
#X obj 589 64 vradio 15 1 0 3 empty empty empty 0 -8 0 10 -262144 -1
-1 0;
#X text 605 63 DejaVu Sans Mono;
#X text 605 78 Helvetica;
#X text 606 93 Times;
#X floatatom 817 71 4 -100 250 0 - - -;
#X obj 889 98 t b f;
#X floatatom 889 71 5 -150 150 0 - - -;
#X msg 817 148 label_pos \$1 \$2;
#X text 856 41 x;
#X text 929 41 y;
#X obj 817 126 pack 17 20, f 17;
#X obj 589 164 pack 0 25, f 24;
#X msg 973 129 label \$1;
#X floatatom 1191 70 3 0 29 1 bgColor - -;
#X floatatom 1295 70 3 0 29 1 lblColor - -;
#X obj 1295 92 t b f;
#X msg 1191 145 color \$1 \$2 \$3;
#X obj 1191 124 pack 1 22 22, f 14;
#X text 1170 18 Color Presets (0-29):;
#X obj 24 42 inlet;
#X obj 8 42 cnv 14 14 14 empty empty 0 4 8 0 12 -99865 -228856 0;
#X symbolatom 24 210 10 0 0 0 - - -;
#X obj 588 330 send, f 13;
#X obj 400 42 inlet;
#X obj 314 42 inlet;
#X obj 491 42 inlet;
#X obj 155 42 cnv 14 14 14 empty empty 1 4 8 0 12 -99865 -228856 0
;
#X obj 297 42 cnv 14 14 14 empty empty 2 4 8 0 12 -99865 -228856 0
;
#X obj 384 42 cnv 14 14 14 empty empty 3 4 8 0 12 -99865 -228856 0
;
#X obj 721 42 inlet;
#X obj 589 42 inlet;
#X obj 817 42 inlet;
#X obj 476 42 cnv 14 14 14 empty empty 4 4 8 0 12 -99865 -228856 0
;
#X obj 573 42 cnv 14 14 14 empty empty 5 4 8 0 12 -99865 -228856 0
;
#X obj 703 42 cnv 14 14 14 empty empty 6 4 8 0 12 -99865 -228856 0
;
#X text 315 18 Size;
#X text 421 18 Visible Size;
#X text 635 18 Label Font;
#X text 824 18 Label Offset;
#X obj 889 42 inlet;
#X obj 800 42 cnv 14 14 14 empty empty 7 4 8 0 12 -99865 -228856 0
;
#X msg 1052 89 symbol my\ label;
#X symbolatom 973 92 10 0 0 0 - - -;
#X obj 973 42 inlet;
#X obj 872 42 cnv 14 14 14 empty empty 8 4 8 0 12 -99865 -228856 0
;
#X msg 973 70 symbol \$1;
#X text 1007 18 Label Text;
#X obj 1191 42 inlet;
#X obj 958 42 cnv 14 14 14 empty empty 9 4 8 0 12 -99865 -228856 0
;
#X obj 1295 42 inlet;
#X obj 1174 42 cnv 14 14 14 empty empty 10 0 8 0 12 -99865 -228856
0;
#X text 0 18 Canvas Name;
#X obj 284 2 cnv 5 1 260 empty empty empty 20 12 0 14 -128992 -66577
0;
#X obj 738 322 cnv 2 501 60 empty \$0-test_canvas Pitch-Shift 20 15
0 16 -166441 -33289 0;
#X obj 415 328 s \$0-test_canvas;
#X obj 210 187 spigot;
#X obj 170 88 tgl 15 0 empty empty empty 17 7 0 10 -262144 -1 -1 0
1;
#X obj 249 134 == 1;
#X obj 101 135 == 0;
#X obj 144 134 list append \$0;
#X msg 144 157 symbol \$2-\$1;
#X msg 24 136 symbol \$1;
#X obj 24 167 spigot;
#X obj 170 42 inlet;
#X obj 1279 42 cnv 14 14 14 empty empty 11 0 8 0 12 -99865 -228856
0;
#X text 136 18 Add "\$0" option;
#X obj 374 2 cnv 5 1 260 empty empty empty 20 12 0 14 -128992 -66577
0;
#X obj 561 2 cnv 5 1 260 empty empty empty 20 12 0 14 -128992 -66577
0;
#X obj 791 2 cnv 5 1 260 empty empty empty 20 12 0 14 -128992 -66577
0;
#X obj 944 2 cnv 5 1 260 empty empty empty 20 12 0 14 -128992 -66577
0;
#X obj 1164 2 cnv 5 1 260 empty empty empty 20 12 0 14 -128992 -66577
0;
#X connect 0 0 1 0;
#X connect 1 0 37 0;
#X connect 1 0 69 0;
#X connect 2 0 6 0;
#X connect 3 0 2 0;
#X connect 3 1 2 1;
#X connect 4 0 3 0;
#X connect 5 0 2 0;
#X connect 6 0 37 0;
#X connect 6 0 69 0;
#X connect 9 0 26 0;
#X connect 10 0 26 0;
#X connect 10 1 26 1;
#X connect 11 0 10 0;
#X connect 12 0 37 0;
#X connect 12 0 69 0;
#X connect 15 0 9 0;
#X connect 19 0 25 0;
#X connect 20 0 25 0;
#X connect 20 1 25 1;
#X connect 21 0 20 0;
#X connect 22 0 37 0;
#X connect 22 0 69 0;
#X connect 25 0 22 0;
#X connect 26 0 12 0;
#X connect 27 0 37 0;
#X connect 27 0 69 0;
#X connect 28 0 32 0;
#X connect 29 0 30 0;
#X connect 30 0 32 0;
#X connect 30 1 32 2;
#X connect 31 0 37 0;
#X connect 31 0 69 0;
#X connect 32 0 31 0;
#X connect 34 0 74 0;
#X connect 34 0 76 0;
#X connect 36 0 37 1;
#X connect 38 0 5 0;
#X connect 39 0 0 0;
#X connect 40 0 4 0;
#X connect 44 0 11 0;
#X connect 45 0 15 0;
#X connect 46 0 19 0;
#X connect 54 0 21 0;
#X connect 56 0 27 0;
#X connect 57 0 27 0;
#X connect 58 0 60 0;
#X connect 60 0 57 0;
#X connect 62 0 28 0;
#X connect 64 0 29 0;
#X connect 70 0 36 0;
#X connect 71 0 72 0;
#X connect 71 0 73 0;
#X connect 72 0 70 1;
#X connect 73 0 77 1;
#X connect 74 0 75 0;
#X connect 75 0 70 0;
#X connect 76 0 77 0;
#X connect 77 0 36 0;
#X connect 78 0 71 0;
#X restore 6 354 pd label-properties;
#X f 45;
#X floatatom 273 219 5 0 29 0 BG-Clr - -;
#X floatatom 180 174 5 0 0 0 Vis-Sz-W - -;
#X floatatom 181 198 5 0 0 0 Vis-Sz-H - -;
#X floatatom 271 150 5 0 0 0 Lbl-X - -;
#X floatatom 272 174 5 0 0 0 Lbl-Y - -;
#X floatatom 180 150 5 0 0 0 Size - -;
#X symbolatom 214 127 10 0 0 0 CnvReceiveSymbol - -;
#X floatatom 181 219 5 0 2 0 Lbl-Fon - -;
#X symbolatom 274 195 10 0 0 0 Lbl-Txt - -;
#X obj 295 128 tgl 15 0 empty empty Append_0 20 7 0 10 -262144 -260097
-1 0 1;
#X text 194 103 Label Properties;
#X obj 28 18 inlet;
#X obj 414 223 cnv 15 500 30 empty \$0-myCanvas This\\\ is\\\ my\\\ label?
9 13 0 18 -233017 -99865 0;
#X obj 28 54 route doll rec size visw vish lblfon lblsz lblx lbly bgclr
lblclr, f 66;
#X obj 56 93 symbol;
#X text 6 4 _;
#X text 479 173 dollarsign0-myCanvas;
#X msg 74 18 doll 1 \, rec myCanvas \, size 15 \, visw 50 \, vish 60
\, lblfon 0 \, lblsz 18 \, lblx 9 \, lbly 13 \, bgclr 10 \, lblclr
21, f 106;
#N canvas 240 66 752 410 \$0-how-to-set-values-externally 0;
#X text 112 49 doll [0/1] - toggle on appending "\$0-" at the start
of the recieve symbol, f 85;
#X text 112 102 visw [float] - the visible width of the canvas in pixels
, f 85;
#X text 112 85 size [float] - the size of the clickable/dragable portion
of the canvas in pixels, f 85;
#X text 112 122 vish [float] - the visible height of the canvas in
pixels, f 85;
#X text 111 141 lblfon [0/1/2] - font designation for the canvas' label
\, with [0] for Menlo \, [1] for, f 89;
#X text 131 155 Helvetica \, [2] for Times. Note that these fonts may
be different on Windows or Linux, f 84;
#X text 111 173 lblsz [float] - font size designation for the canvas'
label, f 85;
#X text 111 213 lbly [float] - y offset in pixels from the top left
corner of the canvas, f 85;
#X text 111 193 lblx [float] - x offset (horizontal) in pixels from
the top left corner of the canvas, f 85;
#X text 4 29 To set the values for your canvas object externally \,
send messages with the following signifiers to the 0 (leftmost) inlet:
, f 124;
#X msg 31 336 doll 1 \, rec myCanvas \, size 15 \, visw 500 \, vish
30 \, lblfon 0 \, lblsz 18 \, lblx 9 \, lbly 13 \, bgclr 10 \, lblclr
21, f 106;
#X text 111 67 rec [symbol] - receive symbol for the canvas, f 85
;
#X obj 90 241 cnv 5 5 5 empty \$0-canvas-format-helper-boldstatement1
Please\ note\ that\ the\ $-0\ designation\ (1\ or\ 0)\ MUST\ be\ sent\ first\,\ followed\ by\ the\ canvas\ 
1 9 0 12 -262144 -258113 0;
#N canvas 2423 143 808 250 init 0;
#X msg 30 102 label \$1;
#X msg 419 120 label \$1;
#X obj 29 147 s \$0-canvas-format-helper-boldstatement1;
#X obj 418 164 s \$0-canvas-format-helper-boldstatement2;
#X obj 233 15 loadbang;
#X msg 420 51 symbol receive\ symbol!\ Failure\ to\ do\ so\ will\ cause\ incorrect\ parameter\ dispatching!
;
#X msg 26 43 symbol Please\\\ note\\\ that\\\ the\\\ $-0\\\ designation\\\ (1\\\ or\\\ 0)\\\ MUST\\\ be\\\ sent\\\ first\\\,\\\ followed\\\ by\\\ the\\\ canvas\\\ 
;
#X connect 0 0 2 0;
#X connect 1 0 3 0;
#X connect 4 0 5 0;
#X connect 4 0 6 0;
#X connect 5 0 1 0;
#X connect 6 0 0 0;
#X restore 659 9 pd init;
#X obj 90 257 cnv 5 5 5 empty \$0-canvas-format-helper-boldstatement2
receive\ symbol!\ Failure\ to\ do\ so\ will\ cause\ incorrect\ parameter\ dispatching!
1 9 0 12 -262144 -258113 0;
#X msg 112 362 symbol this\ is\ my\ label!;
#X text 296 357 The label parameter must be sent separately to Inlet
1 (rightmost inlet). The message must be prepended with the "symbol"
identifier \, and the escape character () needs to be set in the message:
, f 68;
#X text 102 286 All parameters EXCEPT label can be sent in a single
message to Inlet 0 (leftmost inlet) like below (and this can be copied
and pasted for easy initializing formatting)., f 89;
#X restore 326 378 pd \$0-how-to-set-values-externally;
#X msg 326 336 vis 1;
#X obj 326 357 s pd-\$0-how-to-set-values-externally;
#X obj 120 263 bng 15 250 50 0 empty empty empty 17 7 0 10 -262144
-1 -1;
#X text 141 263 How to set canvas values externally;
#X text 891 18 All left-inlet messages;
#X text 984 47 Label text;
#X msg 636 48 symbol This\ is\ my\ label?;
#X obj 587 47 inlet;
#X obj 632 184 cnv 5 5 5 empty empty ↴ -3 3 0 24 -262144 -99865 0
;
#X connect 0 0 2 6;
#X connect 1 0 2 11;
#X connect 3 0 2 10;
#X connect 4 0 2 3;
#X connect 5 0 2 4;
#X connect 6 0 2 7;
#X connect 7 0 2 8;
#X connect 8 0 2 2;
#X connect 9 0 2 0;
#X connect 10 0 2 5;
#X connect 11 0 2 9;
#X connect 12 0 2 1;
#X connect 14 0 16 0;
#X connect 16 0 12 0;
#X connect 16 1 17 0;
#X connect 16 2 8 0;
#X connect 16 3 4 0;
#X connect 16 4 5 0;
#X connect 16 5 10 0;
#X connect 16 6 0 0;
#X connect 16 7 6 0;
#X connect 16 8 7 0;
#X connect 16 9 3 0;
#X connect 16 10 1 0;
#X connect 17 0 9 0;
#X connect 20 0 16 0;
#X connect 22 0 23 0;
#X connect 24 0 22 0;
#X connect 28 0 11 0;
#X connect 29 0 11 0;
#X coords 0 -1 1 1 300 190 2 100 100;
#X restore 25 27 pd graph;
#X obj 25 1 inlet;
#X connect 0 0 1 1;
#X connect 2 0 1 0;
#X restore 313 529 pd canvas-ctrl;
#N canvas 673 23 349 258 canvas-ctrl 0;
#X obj 291 1 inlet;
#N canvas 248 270 1089 459 graph 0;
#X floatatom 180 241 5 0 0 0 Lbl-Sz - -;
#X floatatom 273 241 5 0 29 0 Lbl-Clr - -;
#N canvas 32 23 1408 389 label-properties 0;
#X floatatom 314 72 3 18 100 0 - - -;
#X msg 314 99 size \$1;
#X obj 400 121 pack 100 60, f 18;
#X obj 491 93 t b f;
#X floatatom 491 68 4 18 100 0 - - -;
#X floatatom 400 68 4 18 100 0 - - -;
#X msg 400 148 vis_size \$1 \$2;
#X text 442 41 w/x;
#X text 532 41 h/y;
#X floatatom 589 116 4 0 3 0 - - -;
#X obj 721 135 t b f;
#X floatatom 721 116 5 5 50 0 - - -;
#X msg 589 185 label_font \$1 \$2;
#X text 632 41 type;
#X text 760 40 size;
#X obj 589 64 vradio 15 1 0 3 empty empty empty 0 -8 0 10 -262144 -1
-1 0;
#X text 605 63 DejaVu Sans Mono;
#X text 605 78 Helvetica;
#X text 606 93 Times;
#X floatatom 817 71 4 -100 250 0 - - -;
#X obj 889 98 t b f;
#X floatatom 889 71 5 -150 150 0 - - -;
#X msg 817 148 label_pos \$1 \$2;
#X text 856 41 x;
#X text 929 41 y;
#X obj 817 126 pack 17 20, f 17;
#X obj 589 164 pack 0 25, f 24;
#X msg 973 129 label \$1;
#X floatatom 1191 70 3 0 29 1 bgColor - -;
#X floatatom 1295 70 3 0 29 1 lblColor - -;
#X obj 1295 92 t b f;
#X msg 1191 145 color \$1 \$2 \$3;
#X obj 1191 124 pack 1 22 22, f 14;
#X text 1170 18 Color Presets (0-29):;
#X obj 24 42 inlet;
#X obj 8 42 cnv 14 14 14 empty empty 0 4 8 0 12 -99865 -228856 0;
#X symbolatom 24 210 10 0 0 0 - - -;
#X obj 588 330 send, f 13;
#X obj 400 42 inlet;
#X obj 314 42 inlet;
#X obj 491 42 inlet;
#X obj 155 42 cnv 14 14 14 empty empty 1 4 8 0 12 -99865 -228856 0
;
#X obj 297 42 cnv 14 14 14 empty empty 2 4 8 0 12 -99865 -228856 0
;
#X obj 384 42 cnv 14 14 14 empty empty 3 4 8 0 12 -99865 -228856 0
;
#X obj 721 42 inlet;
#X obj 589 42 inlet;
#X obj 817 42 inlet;
#X obj 476 42 cnv 14 14 14 empty empty 4 4 8 0 12 -99865 -228856 0
;
#X obj 573 42 cnv 14 14 14 empty empty 5 4 8 0 12 -99865 -228856 0
;
#X obj 703 42 cnv 14 14 14 empty empty 6 4 8 0 12 -99865 -228856 0
;
#X text 315 18 Size;
#X text 421 18 Visible Size;
#X text 635 18 Label Font;
#X text 824 18 Label Offset;
#X obj 889 42 inlet;
#X obj 800 42 cnv 14 14 14 empty empty 7 4 8 0 12 -99865 -228856 0
;
#X msg 1052 89 symbol my\ label;
#X symbolatom 973 92 10 0 0 0 - - -;
#X obj 973 42 inlet;
#X obj 872 42 cnv 14 14 14 empty empty 8 4 8 0 12 -99865 -228856 0
;
#X msg 973 70 symbol \$1;
#X text 1007 18 Label Text;
#X obj 1191 42 inlet;
#X obj 958 42 cnv 14 14 14 empty empty 9 4 8 0 12 -99865 -228856 0
;
#X obj 1295 42 inlet;
#X obj 1174 42 cnv 14 14 14 empty empty 10 0 8 0 12 -99865 -228856
0;
#X text 0 18 Canvas Name;
#X obj 284 2 cnv 5 1 260 empty empty empty 20 12 0 14 -128992 -66577
0;
#X obj 738 322 cnv 2 501 60 empty \$0-test_canvas Pitch-Shift 20 15
0 16 -166441 -33289 0;
#X obj 415 328 s \$0-test_canvas;
#X obj 210 187 spigot;
#X obj 170 88 tgl 15 0 empty empty empty 17 7 0 10 -262144 -1 -1 0
1;
#X obj 249 134 == 1;
#X obj 101 135 == 0;
#X obj 144 134 list append \$0;
#X msg 144 157 symbol \$2-\$1;
#X msg 24 136 symbol \$1;
#X obj 24 167 spigot;
#X obj 170 42 inlet;
#X obj 1279 42 cnv 14 14 14 empty empty 11 0 8 0 12 -99865 -228856
0;
#X text 136 18 Add "\$0" option;
#X obj 374 2 cnv 5 1 260 empty empty empty 20 12 0 14 -128992 -66577
0;
#X obj 561 2 cnv 5 1 260 empty empty empty 20 12 0 14 -128992 -66577
0;
#X obj 791 2 cnv 5 1 260 empty empty empty 20 12 0 14 -128992 -66577
0;
#X obj 944 2 cnv 5 1 260 empty empty empty 20 12 0 14 -128992 -66577
0;
#X obj 1164 2 cnv 5 1 260 empty empty empty 20 12 0 14 -128992 -66577
0;
#X connect 0 0 1 0;
#X connect 1 0 37 0;
#X connect 1 0 69 0;
#X connect 2 0 6 0;
#X connect 3 0 2 0;
#X connect 3 1 2 1;
#X connect 4 0 3 0;
#X connect 5 0 2 0;
#X connect 6 0 37 0;
#X connect 6 0 69 0;
#X connect 9 0 26 0;
#X connect 10 0 26 0;
#X connect 10 1 26 1;
#X connect 11 0 10 0;
#X connect 12 0 37 0;
#X connect 12 0 69 0;
#X connect 15 0 9 0;
#X connect 19 0 25 0;
#X connect 20 0 25 0;
#X connect 20 1 25 1;
#X connect 21 0 20 0;
#X connect 22 0 37 0;
#X connect 22 0 69 0;
#X connect 25 0 22 0;
#X connect 26 0 12 0;
#X connect 27 0 37 0;
#X connect 27 0 69 0;
#X connect 28 0 32 0;
#X connect 29 0 30 0;
#X connect 30 0 32 0;
#X connect 30 1 32 2;
#X connect 31 0 37 0;
#X connect 31 0 69 0;
#X connect 32 0 31 0;
#X connect 34 0 74 0;
#X connect 34 0 76 0;
#X connect 36 0 37 1;
#X connect 38 0 5 0;
#X connect 39 0 0 0;
#X connect 40 0 4 0;
#X connect 44 0 11 0;
#X connect 45 0 15 0;
#X connect 46 0 19 0;
#X connect 54 0 21 0;
#X connect 56 0 27 0;
#X connect 57 0 27 0;
#X connect 58 0 60 0;
#X connect 60 0 57 0;
#X connect 62 0 28 0;
#X connect 64 0 29 0;
#X connect 70 0 36 0;
#X connect 71 0 72 0;
#X connect 71 0 73 0;
#X connect 72 0 70 1;
#X connect 73 0 77 1;
#X connect 74 0 75 0;
#X connect 75 0 70 0;
#X connect 76 0 77 0;
#X connect 77 0 36 0;
#X connect 78 0 71 0;
#X restore 6 354 pd label-properties;
#X f 45;
#X floatatom 273 219 5 0 29 0 BG-Clr - -;
#X floatatom 180 174 5 0 0 0 Vis-Sz-W - -;
#X floatatom 181 198 5 0 0 0 Vis-Sz-H - -;
#X floatatom 271 150 5 0 0 0 Lbl-X - -;
#X floatatom 272 174 5 0 0 0 Lbl-Y - -;
#X floatatom 180 150 5 0 0 0 Size - -;
#X symbolatom 214 127 10 0 0 0 CnvReceiveSymbol - -;
#X floatatom 181 219 5 0 2 0 Lbl-Fon - -;
#X symbolatom 274 195 10 0 0 0 Lbl-Txt - -;
#X obj 295 128 tgl 15 0 empty empty Append_0 20 7 0 10 -262144 -260097
-1 0 1;
#X text 194 103 Label Properties;
#X obj 28 18 inlet;
#X obj 414 223 cnv 15 500 30 empty \$0-myCanvas This\\\ is\\\ my\\\ label?
9 13 0 18 -233017 -99865 0;
#X obj 28 54 route doll rec size visw vish lblfon lblsz lblx lbly bgclr
lblclr, f 66;
#X obj 56 93 symbol;
#X text 6 4 _;
#X text 479 173 dollarsign0-myCanvas;
#X msg 74 18 doll 1 \, rec myCanvas \, size 15 \, visw 50 \, vish 60
\, lblfon 0 \, lblsz 18 \, lblx 9 \, lbly 13 \, bgclr 10 \, lblclr
21, f 106;
#N canvas 240 66 752 410 \$0-how-to-set-values-externally 0;
#X text 112 49 doll [0/1] - toggle on appending "\$0-" at the start
of the recieve symbol, f 85;
#X text 112 102 visw [float] - the visible width of the canvas in pixels
, f 85;
#X text 112 85 size [float] - the size of the clickable/dragable portion
of the canvas in pixels, f 85;
#X text 112 122 vish [float] - the visible height of the canvas in
pixels, f 85;
#X text 111 141 lblfon [0/1/2] - font designation for the canvas' label
\, with [0] for Menlo \, [1] for, f 89;
#X text 131 155 Helvetica \, [2] for Times. Note that these fonts may
be different on Windows or Linux, f 84;
#X text 111 173 lblsz [float] - font size designation for the canvas'
label, f 85;
#X text 111 213 lbly [float] - y offset in pixels from the top left
corner of the canvas, f 85;
#X text 111 193 lblx [float] - x offset (horizontal) in pixels from
the top left corner of the canvas, f 85;
#X text 4 29 To set the values for your canvas object externally \,
send messages with the following signifiers to the 0 (leftmost) inlet:
, f 124;
#X msg 31 336 doll 1 \, rec myCanvas \, size 15 \, visw 500 \, vish
30 \, lblfon 0 \, lblsz 18 \, lblx 9 \, lbly 13 \, bgclr 10 \, lblclr
21, f 106;
#X text 111 67 rec [symbol] - receive symbol for the canvas, f 85
;
#X obj 90 241 cnv 5 5 5 empty \$0-canvas-format-helper-boldstatement1
Please\ note\ that\ the\ $-0\ designation\ (1\ or\ 0)\ MUST\ be\ sent\ first\,\ followed\ by\ the\ canvas\ 
1 9 0 12 -262144 -258113 0;
#N canvas 2423 143 808 250 init 0;
#X msg 30 102 label \$1;
#X msg 419 120 label \$1;
#X obj 29 147 s \$0-canvas-format-helper-boldstatement1;
#X obj 418 164 s \$0-canvas-format-helper-boldstatement2;
#X obj 233 15 loadbang;
#X msg 420 51 symbol receive\ symbol!\ Failure\ to\ do\ so\ will\ cause\ incorrect\ parameter\ dispatching!
;
#X msg 26 43 symbol Please\\\ note\\\ that\\\ the\\\ $-0\\\ designation\\\ (1\\\ or\\\ 0)\\\ MUST\\\ be\\\ sent\\\ first\\\,\\\ followed\\\ by\\\ the\\\ canvas\\\ 
;
#X connect 0 0 2 0;
#X connect 1 0 3 0;
#X connect 4 0 5 0;
#X connect 4 0 6 0;
#X connect 5 0 1 0;
#X connect 6 0 0 0;
#X restore 659 9 pd init;
#X obj 90 257 cnv 5 5 5 empty \$0-canvas-format-helper-boldstatement2
receive\ symbol!\ Failure\ to\ do\ so\ will\ cause\ incorrect\ parameter\ dispatching!
1 9 0 12 -262144 -258113 0;
#X msg 112 362 symbol this\ is\ my\ label!;
#X text 296 357 The label parameter must be sent separately to Inlet
1 (rightmost inlet). The message must be prepended with the "symbol"
identifier \, and the escape character () needs to be set in the message:
, f 68;
#X text 102 286 All parameters EXCEPT label can be sent in a single
message to Inlet 0 (leftmost inlet) like below (and this can be copied
and pasted for easy initializing formatting)., f 89;
#X restore 326 378 pd \$0-how-to-set-values-externally;
#X msg 326 336 vis 1;
#X obj 326 357 s pd-\$0-how-to-set-values-externally;
#X obj 120 263 bng 15 250 50 0 empty empty empty 17 7 0 10 -262144
-1 -1;
#X text 141 263 How to set canvas values externally;
#X text 891 18 All left-inlet messages;
#X text 984 47 Label text;
#X msg 636 48 symbol This\ is\ my\ label?;
#X obj 587 47 inlet;
#X obj 632 184 cnv 5 5 5 empty empty ↴ -3 3 0 24 -262144 -99865 0
;
#X connect 0 0 2 6;
#X connect 1 0 2 11;
#X connect 3 0 2 10;
#X connect 4 0 2 3;
#X connect 5 0 2 4;
#X connect 6 0 2 7;
#X connect 7 0 2 8;
#X connect 8 0 2 2;
#X connect 9 0 2 0;
#X connect 10 0 2 5;
#X connect 11 0 2 9;
#X connect 12 0 2 1;
#X connect 14 0 16 0;
#X connect 16 0 12 0;
#X connect 16 1 17 0;
#X connect 16 2 8 0;
#X connect 16 3 4 0;
#X connect 16 4 5 0;
#X connect 16 5 10 0;
#X connect 16 6 0 0;
#X connect 16 7 6 0;
#X connect 16 8 7 0;
#X connect 16 9 3 0;
#X connect 16 10 1 0;
#X connect 17 0 9 0;
#X connect 20 0 16 0;
#X connect 22 0 23 0;
#X connect 24 0 22 0;
#X connect 28 0 11 0;
#X connect 29 0 11 0;
#X coords 0 -1 1 1 300 190 2 100 100;
#X restore 25 27 pd graph;
#X obj 25 1 inlet;
#X connect 0 0 1 1;
#X connect 2 0 1 0;
#X restore 313 639 pd canvas-ctrl;
#X obj 313 -35 loadbang;
#X text 114 475 \$0-helpPatchSecLabelNotes;
#X msg 407 66 symbol \$1;
#X obj 407 -35 inlet;
#X obj 662 -35 inlet;
#X text 705 -36 Width;
#X obj 662 -11 f 501;
#X msg 663 14 visw \$1;
#X text 453 -33 Abstraction Name;
#X text 429 109 <-- Open to actively control canvas values \, or to
see how to set values externally (as is done here), f 103;
#X text 115 43 \$0-abstrPatchTitleBar;
#X msg 313 43 doll 1 \, rec abstrPatchTitleBar \, size 15 \, visw 501
\, vish 40 \, lblfon 0 \, lblsz 18 \, lblx 9 \, lbly 20 \, bgclr 1
\, lblclr 12, f 123;
#X text 114 147 \$0-abstrPatchSecDivider;
#X msg 313 147 doll 1 \, rec abstrPatchSecDivider \, size 1 \, visw
501 \, vish 1 \, lblfon 0 \, lblsz 18 \, lblx 9 \, lbly 20 \, bgclr
1 \, lblclr 12, f 123;
#X text 113 233 \$0-abstrPatchSecLabelNotes;
#X msg 313 233 doll 1 \, rec abstrPatchSecLabelNotes \, size 2 \, visw
501 \, vish 3 \, lblfon 0 \, lblsz 16 \, lblx 20 \, lbly 15 \, bgclr
1 \, lblclr 12, f 123;
#X text 112 346 \$0-abstrPatchSecLabelRevHist;
#X msg 313 343 doll 1 \, rec abstrPatchSecLabelRevHist \, size 2 \,
visw 501 \, vish 3 \, lblfon 0 \, lblsz 16 \, lblx 20 \, lbly 15 \,
bgclr 1 \, lblclr 12, f 123;
#X msg 408 256 symbol Notes;
#X msg 408 366 symbol Revison\ History;
#X connect 2 0 10 1;
#X connect 3 0 10 0;
#X connect 5 0 11 0;
#X connect 6 0 11 1;
#X connect 12 0 23 0;
#X connect 12 0 25 0;
#X connect 12 0 27 0;
#X connect 12 0 30 0;
#X connect 12 0 29 0;
#X connect 12 0 31 0;
#X connect 12 0 14 0;
#X connect 14 0 1 1;
#X connect 15 0 14 0;
#X connect 16 0 18 0;
#X connect 18 0 19 0;
#X connect 19 0 1 0;
#X connect 19 0 7 0;
#X connect 19 0 8 0;
#X connect 19 0 9 0;
#X connect 19 0 10 0;
#X connect 19 0 11 0;
#X connect 23 0 1 0;
#X connect 25 0 7 0;
#X connect 27 0 8 0;
#X connect 29 0 9 0;
#X connect 30 0 8 1;
#X connect 31 0 9 1;
#X restore 215 132 pd abstr-cnv-set;
#X msg 309 106 501;
#X msg 215 74 symbol Pitch-Shifter;
#X connect 1 0 3 0;
#X connect 3 0 7 0;
#X connect 3 0 6 0;
#X connect 6 0 5 1;
#X connect 7 0 5 0;
#X restore 383 -322 pd abstr-init;
#X text 55 -130 Hint;
#X obj 191 -130 inlet;
#X obj 175 -130 cnv 14 14 14 empty empty 1 4 8 0 12 -99865 -228856
0;
#X text 227 -130 Hint;
#X obj 349 -130 inlet;
#X obj 333 -130 cnv 14 14 14 empty empty 2 4 8 0 12 -99865 -228856
0;
#X text 385 -130 Hint;
#X obj 439 -130 inlet;
#X obj 423 -130 cnv 14 14 14 empty empty 3 4 8 0 12 -99865 -228856
0;
#X text 475 -130 Hint;
#X text 23 -268 Dependencies: [list], f 74;
#X text 23 -248 TO DO: [list], f 74;
#X obj 940 302 cnv 14 14 14 empty empty 0 4 8 0 12 -99865 -228856 0
;
#X text 1002 302 Hint;
#X obj 1040 302 cnv 14 14 14 empty empty 1 4 8 0 12 -99865 -228856
0;
#X text 1102 302 Hint;
#X obj 1140 302 cnv 14 14 14 empty empty 2 4 8 0 12 -99865 -228856
0;
#X text 1202 302 Hint;
#X obj 1240 302 cnv 14 14 14 empty empty 3 4 8 0 12 -99865 -228856
0;
#X text 1302 302 Hint;
#X obj 956 302 outlet;
#X obj 1057 302 outlet;
#X obj 1156 302 outlet;
#X obj 1256 302 outlet;
#X text 27 -189 21/06/04 - ver 0.1, f 73;
#X obj 136 477 vd~ \$0-del;
#X obj 327 478 vd~ \$0-del;
#X obj 617 48 cnv 10 10 10 empty \$0-vari-tab-1 empty 2 10 0 14 -258113
-66577 0;
#X obj 618 66 cnv 10 10 10 empty \$0-vari-tab-1 empty 2 10 0 14 -4034
-66577 0;
#X obj 617 83 cnv 10 10 10 empty \$0-vari-tab-1 empty 2 10 0 14 -4032
-66577 0;
#X obj 327 21 cnv 14 14 14 empty empty R 6 8 0 8 -4034 -128992 0;
#X obj 133 18 cnv 14 14 14 empty empty R 6 8 0 8 -258113 -99865 0;
#X obj 465 303 cnv 14 14 14 empty empty R 6 8 0 8 -4032 -128992 0;
#X obj 336 -24 cnv 14 14 14 empty empty S 6 8 0 8 -4034 -128992 0;
#X obj 176 -23 cnv 14 14 14 empty empty S 6 8 0 8 -258113 -99865 0
;
#X obj 423 -23 cnv 14 14 14 empty empty S 6 8 0 8 -4032 -128992 0;
#X obj 20 -24 delwrite~ \$0-del 5000;
#X connect 0 0 34 0;
#X connect 1 0 15 0;
#X connect 2 0 1 1;
#X connect 2 0 20 1;
#X connect 3 0 43 0;
#X connect 4 0 2 0;
#X connect 5 0 3 0;
#X connect 6 0 0 0;
#X connect 7 0 8 0;
#X connect 8 0 33 0;
#X connect 9 0 27 0;
#X connect 10 0 26 0;
#X connect 11 0 15 1;
#X connect 11 0 21 1;
#X connect 12 0 11 0;
#X connect 13 0 40 0;
#X connect 14 0 13 0;
#X connect 15 0 86 0;
#X connect 16 0 17 0;
#X connect 17 0 18 0;
#X connect 18 0 48 0;
#X connect 19 0 20 0;
#X connect 19 0 31 0;
#X connect 20 0 21 0;
#X connect 21 0 87 0;
#X connect 22 0 23 0;
#X connect 23 0 18 1;
#X connect 25 0 24 0;
#X connect 26 0 9 0;
#X connect 26 1 9 1;
#X connect 27 0 39 0;
#X connect 28 0 19 0;
#X connect 29 0 30 0;
#X connect 30 0 16 0;
#X connect 31 0 32 0;
#X connect 32 0 22 0;
#X connect 33 0 35 0;
#X connect 34 0 7 0;
#X connect 35 0 9 0;
#X connect 39 0 1 0;
#X connect 39 0 29 0;
#X connect 39 0 28 0;
#X connect 40 0 12 0;
#X connect 43 0 10 0;
#X connect 43 0 4 0;
#X connect 53 0 97 0;
#X connect 62 0 50 0;
#X connect 65 0 51 0;
#X connect 68 0 52 0;
#X connect 86 0 17 1;
#X connect 87 0 23 1;
