#N canvas 1352 25 2560 1387 10;
#X declare -path tdh.lib;
#X obj 129 401 makefilename sound%d.wav;
#X floatatom 129 356 5 0 0 0 - - - 0;
#X msg 284 438 start;
#X msg 391 438 stop;
#X msg 129 432 open \$1;
#X obj 468 505 timer;
#X obj 168 -12 bng 15 250 50 0 \$0-rec-start empty Start 17 7 0 10 #ffc7c6 #ff0400 #000000;
#X obj 557 432 tgl 15 0 empty empty empty 17 7 0 10 #fcfcfc #000000 #000000 0 1;
#X msg 557 404 1;
#X obj 168 13 bng 15 250 50 0 \$0-rec-stop empty Stop 17 7 0 10 #c6feff #0400ff #000000;
#X floatatom 468 560 5 0 0 0 msec - - 0;
#X obj 578 530 / 1000;
#X floatatom 578 560 5 0 0 0 sec - - 0;
#X msg 604 404 0;
#X obj 557 457 metro 30;
#X obj 284 259 r \$0-rec-start;
#X obj 441 355 t b b;
#X floatatom 251 16 5 0 0 1 sec - - 8;
#X obj 468 598 s \$0-rec-time-ms;
#X obj 578 600 s \$0-rec-time-s;
#X obj 340 -28 r \$0-rec-time-s;
#X obj 440 296 r \$0-rec-stop;
#X obj 340 10 r \$0-rec-filenumber;
#N canvas 0 22 450 300 counter 0;
#X obj 171 31 inlet;
#X obj 171 122 f 0;
#X obj 208 122 + 1;
#X obj 171 177 outlet;
#X obj 217 31 loadbang;
#X msg 217 60 0;
#X connect 0 0 1 0;
#X connect 1 0 2 0;
#X connect 1 0 3 0;
#X connect 2 0 1 1;
#X connect 4 0 5 0;
#X connect 5 0 1 1;
#X restore 129 329 pd counter;
#X floatatom 252 55 5 0 0 1 - - - 8;
#X obj 151 378 s \$0-rec-filenumber;
#X text 5 -32 _;
#X obj 129 600 writesf~ 2;
#X obj 17 249 inlet~;
#X obj 68 249 inlet~;
#X obj 17 660 outlet~;
#X obj 68 660 outlet~;
#X text 105 -52 In Ch1;
#X text 160 -52 In Ch2;
#X text 228 -52 Start;
#X text 287 -52 Stop;
#X text 105 126 Thru Ch1;
#X text 264 125 Thru Ch2;
#X obj 228 244 inlet;
#X obj 228 269 bng 15 250 50 0 empty empty empty 17 7 0 10 #fcfcfc #000000 #000000;
#X obj 393 246 inlet;
#X obj 393 271 bng 15 250 50 0 empty empty empty 17 7 0 10 #fcfcfc #000000 #000000;
#X text 17 232 In Ch1;
#X text 68 232 In Ch2;
#X text 98 186 Start;
#X text 267 188 Stop;
#X obj 284 284 t b b b;
#X obj 107 95 cnv 15 210 30 empty empty Sound\ Recorder\ to\ Disk 10 12 0 14 #e0e0e0 #404040 0;
#X text 0 720 _;
#X obj 166 -36 cnv 2 50 2 empty empty Ctrl 1 8 0 11 #dfdfdf #404040 0;
#X obj 248 39 cnv 2 60 2 empty empty Take 1 8 0 11 #e0e0e0 #404040 0;
#X obj 459 11 cnv 14 14 14 empty empty R 6 8 0 8 #fce0c4 #7c7c7c 0;
#X obj 523 296 cnv 14 14 14 empty empty R 6 8 0 8 #fcc4c4 #7c7c7c 0;
#X obj 373 259 cnv 14 14 14 empty empty R 6 8 0 8 #b8b8b8 #404040 0;
#X obj 435 -28 cnv 14 14 14 empty empty R 6 8 0 8 #fcfcc4 #7c7c7c 0;
#X obj 270 378 cnv 14 14 14 empty empty S 6 8 0 8 #fce0c4 #7c7c7c 0;
#X obj 673 600 cnv 14 14 14 empty empty S 6 8 0 8 #fcfcc4 #7c7c7c 0;
#X obj 92 -6 cnv 5 5 5 empty empty empty 2 10 0 14 #b8b8b8 #404040 0;
#X obj 93 18 cnv 5 5 5 empty empty empty 2 10 0 14 #fcc4c4 #404040 0;
#X obj 450 86 declare -path tdh.lib;
#X obj 111 -21 tdh.util.meterSm~;
#X obj 129 -21 tdh.util.meterSm~;
#X obj 248 -1 cnv 2 60 2 empty empty Rec\ Time 1 8 0 11 #dfdfdf #404040 0;
#X obj 107 -36 cnv 2 50 2 empty empty Input 2 8 0 11 #dfdfdf #404040 0;
#X text 282 53 #;
#X obj 106 86 cnv 5 5 5 empty empty All\ files\ written\ to\ abstraction\ directory. 0 5 0 8 #ffffff #404040 0;
#X obj 114 75 cnv 5 5 5 empty empty 1 0 5 0 6 #ffffff #404040 0;
#X obj 133 75 cnv 5 5 5 empty empty 2 0 5 0 6 #ffffff #404040 0;
#X obj 248 -36 cnv 2 60 2 empty empty Rec\ Status 1 8 0 11 #dfdfdf #404040 0;
#X obj 251 -20 tgl 16 0 \$0-status-s \$0-status-r empty 0 -8 0 10 #c6ffc7 #ff0400 #000000 0 1;
#X obj 296 329 s \$0-status-r;
#X msg 295 309 1, f 1;
#X obj 636 404 s \$0-status-r;
#X msg 635 384 0, f 1;
#X connect 0 0 4 0;
#X connect 1 0 0 0;
#X connect 2 0 27 0;
#X connect 3 0 27 0;
#X connect 4 0 27 0;
#X connect 5 0 10 0;
#X connect 5 0 11 0;
#X connect 7 0 14 0;
#X connect 8 0 7 0;
#X connect 10 0 18 0;
#X connect 11 0 12 0;
#X connect 12 0 19 0;
#X connect 13 0 7 0;
#X connect 14 0 5 1;
#X connect 15 0 46 0;
#X connect 16 0 8 0;
#X connect 16 1 5 0;
#X connect 20 0 17 0;
#X connect 21 0 3 0;
#X connect 21 0 13 0;
#X connect 21 0 73 0;
#X connect 22 0 24 0;
#X connect 23 0 1 0;
#X connect 23 0 25 0;
#X connect 28 0 27 0;
#X connect 28 0 30 0;
#X connect 28 0 60 0;
#X connect 29 0 27 1;
#X connect 29 0 31 0;
#X connect 29 0 61 0;
#X connect 38 0 39 0;
#X connect 39 0 46 0;
#X connect 40 0 41 0;
#X connect 41 0 3 0;
#X connect 46 0 2 0;
#X connect 46 1 23 0;
#X connect 46 2 16 0;
#X connect 46 2 71 0;
#X connect 71 0 70 0;
#X connect 73 0 72 0;
#X coords 0 -1 1 1 214 196 2 105 -53;
