#N canvas 1440 43 1115 451 10;
#X obj 109 32 inlet~;
#X obj 239 32 inlet~;
#X obj 754 145 tgl 15 0 empty \$0-output_dsp DSP 17 7 0 10 #fcfcfc
#000000 #000000 0 1;
#X obj 758 168 hsl 72 15 0.01 1 1 0 empty empty empty 72 7 0 10 #fcfcfc
#000000 #000000 0 1;
#X obj 239 220 *~;
#X obj 794 145 tgl 15 0 \$0-output_mute empty Mute 17 7 0 10 #fcfcfc
#000000 #000000 0 1;
#X obj 109 220 *~;
#X obj 109 253 dac~ 1 2;
#X msg 664 134 \; pd dsp \$1;
#X obj 837 29 cnv 14 14 14 empty empty R 6 8 0 8 #c4c4fc #7c7c7c 0
;
#X obj 217 200 cnv 14 14 14 empty empty R 6 8 0 8 #c4fcc4 #7c7c7c 0
;
#X obj 292 55 cnv 14 14 14 empty empty S 6 8 0 8 #fcc4c4 #7c7c7c 0
;
#X obj 74 272 cnv 14 14 14 empty empty S 6 8 0 8 #c4c4fc #7c7c7c 0
;
#X obj 635 97 cnv 14 14 14 empty empty S 6 8 0 8 #c4fcfc #7c7c7c 0
;
#X obj 716 248 cnv 14 14 14 empty empty S 6 8 0 8 #c4fcc4 #7c7c7c 0
;
#X obj 742 143 cnv 5 5 5 empty \$0-vari-tab-1 empty 2 10 0 14 #fcc4c4
#404040 0;
#X obj 734 143 cnv 5 5 5 empty \$0-vari-tab-1 empty 2 10 0 14 #c4fcfc
#404040 0;
#X obj 92 32 cnv 14 14 14 empty empty 0 4 8 0 12 #606060 #dcdcdc 0
;
#X obj 222 32 cnv 14 14 14 empty empty 1 4 8 0 12 #606060 #dcdcdc 0
;
#X obj 651 34 r pd;
#X obj 651 55 route dsp;
#X msg 651 76 set \$1;
#X obj 308 32 inlet;
#X obj 308 54 s \$0-output_mute;
#X obj 292 32 cnv 14 14 14 empty empty 2 4 8 0 12 #606060 #dcdcdc 0
;
#X obj 651 97 s \$0-output_dsp;
#N canvas 1471 319 450 300 init 0;
#X obj 52 18 loadbang;
#X msg 178 78 label \$1;
#X obj 178 102 s \$0-GUI_audio_out_label;
#X msg 179 56 symbol Audio\ Output;
#X connect 0 0 3 0;
#X connect 1 0 2 0;
#X connect 3 0 1 0;
#X restore 41 32 pd init;
#X text 751 101 In1;
#X text 775 101 In2;
#X text 804 101 Mute;
#X text 834 101 Vol;
#X text 856 80 DSP;
#X floatatom 756 188 5 -100 12 1 - - - 0;
#X obj 124 200 r \$0-output_vol;
#X obj 732 246 s \$0-output_vol;
#X text 789 188 Vol;
#X obj 855 125 vu 8 80 empty empty -1 -8 0 10 #404040 #000000 0 0;
#X obj 867 125 vu 8 80 empty empty -1 -8 0 10 #404040 #000000 0 0;
#X obj 349 200 cnv 14 14 14 empty empty R 6 8 0 8 #c4fcc4 #7c7c7c 0
;
#X obj 254 200 r \$0-output_vol;
#N canvas 1280 22 450 300 lin2dbFS 0;
#X obj 74 53 rmstodb;
#X obj 74 73 - 100;
#X msg 74 94 set \$1;
#X obj 74 23 inlet;
#X text 32 23 0 to 1;
#X text 20 54 0 to 100;
#X text 125 52 In Pd \, RMS is linear amp \, dB is 0 to 100;
#X text 13 74 -100 to 0;
#X text 123 74 dBFS scale;
#X obj 74 135 outlet;
#X text 122 95 to numbox;
#X connect 0 0 1 0;
#X connect 1 0 2 0;
#X connect 2 0 9 0;
#X connect 3 0 0 0;
#X restore 704 215 pd lin2dbFS;
#N canvas 1280 22 584 298 dBFS2lin 0;
#X obj 119 42 inlet;
#X msg 119 134 set \$1;
#X obj 119 72 + 100;
#X obj 119 103 dbtorms;
#X text 54 44 -100 to 0;
#X text 58 73 0 to 100;
#X text 58 103 0 to 1;
#X text 171 132 to slider;
#X text 170 102 in Pd \, dB is 0-100 and rms is 0-1;
#X obj 119 165 outlet;
#X connect 0 0 2 0;
#X connect 1 0 9 0;
#X connect 2 0 3 0;
#X connect 3 0 1 0;
#X restore 783 215 pd dBFS2lin;
#X obj 611 34 inlet;
#X obj 595 34 cnv 14 14 14 empty empty 4 4 8 0 12 #606060 #dcdcdc 0
;
#X obj 223 272 cnv 14 14 14 empty empty S 6 8 0 8 #e0c4fc #7c7c7c 0
;
#X obj 1041 48 cnv 14 14 14 empty empty R 6 8 0 8 #e0c4fc #7c7c7c 0
;
#X obj 90 272 send~ \$0-out-mtr1;
#X obj 239 272 send~ \$0-out-mtr2;
#X obj 854 29 receive~ \$0-out-mtr1;
#X obj 916 49 receive~ \$0-out-mtr2;
#N canvas 2455 164 453 524 meter1 0;
#X obj 64 -38 inlet~;
#X obj 64 27 env~;
#X obj 64 48 - 100;
#X obj 168 30 abs~;
#X obj 169 73 snapshot~;
#X obj 233 31 loadbang;
#X msg 233 51 1;
#X text 174 0 Peak Detection, f 9;
#X obj 65 160 outlet;
#X obj 168 282 outlet;
#X text 0 1 RMS level detection, f 9;
#X text -47 -82 _;
#X obj 168 97 rmstodb;
#X obj 167 122 - 100;
#X obj 168 258 line;
#X obj 168 201 max;
#X obj 201 188 pipe 1;
#X msg 168 228 \$1 \, -100 5000;
#X obj 233 72 metro 20;
#X connect 0 0 1 0;
#X connect 0 0 3 0;
#X connect 1 0 2 0;
#X connect 2 0 8 0;
#X connect 3 0 4 0;
#X connect 4 0 12 0;
#X connect 5 0 6 0;
#X connect 6 0 18 0;
#X connect 12 0 13 0;
#X connect 13 0 16 0;
#X connect 13 0 15 0;
#X connect 14 0 9 0;
#X connect 15 0 17 0;
#X connect 16 0 15 1;
#X connect 17 0 14 0;
#X connect 18 0 4 0;
#X restore 854 50 pd meter1;
#N canvas 1463 139 521 392 meter2 0;
#X obj 64 -38 inlet~;
#X obj 64 27 env~;
#X obj 64 48 - 100;
#X obj 168 30 abs~;
#X obj 169 73 snapshot~;
#X obj 233 31 loadbang;
#X msg 233 51 1;
#X text 174 0 Peak Detection, f 9;
#X obj 65 160 outlet;
#X obj 168 282 outlet;
#X text 0 1 RMS level detection, f 9;
#X text -47 -82 _;
#X obj 168 97 rmstodb;
#X obj 168 119 - 100;
#X floatatom 306 36 5 0 0 0 - - - 0;
#X obj 168 258 line;
#X obj 233 72 metro 100;
#X obj 168 201 max;
#X msg 168 140 \$1 100;
#X obj 168 161 line;
#X obj 201 188 pipe 1;
#X msg 168 228 \$1 \, -100 5000 500;
#X connect 0 0 1 0;
#X connect 0 0 3 0;
#X connect 1 0 2 0;
#X connect 2 0 8 0;
#X connect 3 0 4 0;
#X connect 4 0 12 0;
#X connect 5 0 6 0;
#X connect 6 0 16 0;
#X connect 12 0 13 0;
#X connect 13 0 18 0;
#X connect 14 0 16 1;
#X connect 15 0 9 0;
#X connect 16 0 4 0;
#X connect 17 0 21 0;
#X connect 18 0 19 0;
#X connect 19 0 17 0;
#X connect 19 0 20 0;
#X connect 20 0 17 1;
#X connect 21 0 15 0;
#X restore 916 68 pd meter2;
#X text 10 0 |;
#X obj 436 34 inlet;
#X obj 420 34 cnv 14 14 14 empty empty 3 4 8 0 12 #606060 #dcdcdc 0
;
#X obj 420 55 cnv 14 14 14 empty empty S 6 8 0 8 #9c00fc #dcdcdc 0
;
#X obj 436 55 s \$0-out-vol-inlet;
#X obj 618 169 cnv 14 14 14 empty empty R 6 8 0 8 #9c00fc #dcdcdc 0
;
#X obj 634 169 r \$0-out-vol-inlet;
#N canvas 1280 22 584 298 dBFS2lin 0;
#X obj 119 42 inlet;
#X msg 119 134 set \$1;
#X obj 119 72 + 100;
#X obj 119 103 dbtorms;
#X text 54 44 -100 to 0;
#X text 58 73 0 to 100;
#X text 58 103 0 to 1;
#X text 171 132 to slider;
#X text 170 102 in Pd \, dB is 0-100 and rms is 0-1;
#X obj 119 165 outlet;
#X connect 0 0 2 0;
#X connect 1 0 9 0;
#X connect 2 0 3 0;
#X connect 3 0 1 0;
#X restore 634 188 pd dBFS2lin;
#X obj 859 103 cnv 15 5 5 empty empty DSP 0 6 0 10 #fcfcfc #000000
0;
#X obj 753 119 cnv 2 123 2 empty \$0-GUI_audio_out_label Audio\ Output
1 9 0 12 #e0e0e0 #404040 0;
#X connect 0 0 6 0;
#X connect 1 0 4 0;
#X connect 2 0 8 0;
#X connect 3 0 34 0;
#X connect 3 0 40 0;
#X connect 4 0 7 1;
#X connect 4 0 47 0;
#X connect 6 0 7 0;
#X connect 6 0 46 0;
#X connect 19 0 20 0;
#X connect 20 0 21 0;
#X connect 21 0 25 0;
#X connect 22 0 23 0;
#X connect 32 0 41 0;
#X connect 33 0 6 1;
#X connect 39 0 4 1;
#X connect 40 0 32 0;
#X connect 41 0 3 0;
#X connect 41 0 34 0;
#X connect 42 0 25 0;
#X connect 48 0 50 0;
#X connect 49 0 51 0;
#X connect 50 0 36 0;
#X connect 50 1 36 1;
#X connect 51 0 37 0;
#X connect 51 1 37 1;
#X connect 53 0 56 0;
#X connect 58 0 59 0;
#X connect 59 0 3 0;
#X coords 0 -1 1 1 127 110 2 750 100;
