#N canvas 2068 -401 1010 855 12;
#X text 16 48 Travis Houldcroft || travishouldcroft.com;
#X obj 2 1 cnv 15 1000 40 empty \$0-helpPatchTitleBar tdh.util.ad~\ &\ tdh.util.ad.ui~
9 20 0 18 -166441 -33289 0;
#X obj 1 123 cnv 2 1000 3 empty \$0-helpPatchSecLabelInlets Inlets
20 15 0 16 -166441 -33289 0;
#X text 44 152 -;
#X obj 2 267 cnv 2 1000 3 empty \$0-helpPatchSecLabelOutlets Outlets
20 15 0 16 -166441 -33289 0;
#X text 44 296 -;
#X obj 2 343 cnv 2 1000 3 empty \$0-helpPatchSecLabelArgs Arguments
20 15 0 16 -166441 -33289 0;
#X text 22 372 None;
#X obj 2 77 cnv 1 1000 1 empty \$0-helpPatchSecDivider empty 9 20 0
18 -166441 -33289 0;
#X obj 23 297 cnv 14 14 14 empty empty 0 4 8 0 12 -99865 -228856 0
;
#X obj 23 153 cnv 14 14 14 empty empty 0 4 8 0 12 -99865 -228856 0
;
#N canvas 3096 -131 627 309 help-init 0;
#N canvas 1467 67 1413 855 cnv-set 0;
#N canvas 1440 23 349 258 canvas-ctrl 0;
#X obj 291 1 inlet;
#N canvas 248 270 1089 459 graph 0;
#X floatatom 180 241 5 0 0 0 Lbl-Sz - -;
#X floatatom 273 241 5 0 29 0 Lbl-Clr - -;
#N canvas 32 23 1408 389 label-properties 0;
#X floatatom 314 72 3 18 100 0 - - -;
#X msg 314 99 size \$1;
#X obj 400 121 pack 100 60, f 18;
#X obj 491 93 t b f;
#X floatatom 491 68 4 18 100 0 - - -;
#X floatatom 400 68 4 18 100 0 - - -;
#X msg 400 148 vis_size \$1 \$2;
#X text 442 41 w/x;
#X text 532 41 h/y;
#X floatatom 589 116 4 0 3 0 - - -;
#X obj 721 135 t b f;
#X floatatom 721 116 5 5 50 0 - - -;
#X msg 589 185 label_font \$1 \$2;
#X text 632 41 type;
#X text 760 40 size;
#X obj 589 64 vradio 15 1 0 3 empty empty empty 0 -8 0 10 -262144 -1
-1 0;
#X text 605 63 DejaVu Sans Mono;
#X text 605 78 Helvetica;
#X text 606 93 Times;
#X floatatom 817 71 4 -100 250 0 - - -;
#X obj 889 98 t b f;
#X floatatom 889 71 5 -150 150 0 - - -;
#X msg 817 148 label_pos \$1 \$2;
#X text 856 41 x;
#X text 929 41 y;
#X obj 817 126 pack 17 20, f 17;
#X obj 589 164 pack 0 25, f 24;
#X msg 973 129 label \$1;
#X floatatom 1191 70 3 0 29 1 bgColor - -;
#X floatatom 1295 70 3 0 29 1 lblColor - -;
#X obj 1295 92 t b f;
#X msg 1191 145 color \$1 \$2 \$3;
#X obj 1191 124 pack 1 22 22, f 14;
#X text 1170 18 Color Presets (0-29):;
#X obj 24 42 inlet;
#X obj 8 42 cnv 14 14 14 empty empty 0 4 8 0 12 -99865 -228856 0;
#X symbolatom 24 210 10 0 0 0 - - -;
#X obj 588 330 send, f 13;
#X obj 400 42 inlet;
#X obj 314 42 inlet;
#X obj 491 42 inlet;
#X obj 155 42 cnv 14 14 14 empty empty 1 4 8 0 12 -99865 -228856 0
;
#X obj 297 42 cnv 14 14 14 empty empty 2 4 8 0 12 -99865 -228856 0
;
#X obj 384 42 cnv 14 14 14 empty empty 3 4 8 0 12 -99865 -228856 0
;
#X obj 721 42 inlet;
#X obj 589 42 inlet;
#X obj 817 42 inlet;
#X obj 476 42 cnv 14 14 14 empty empty 4 4 8 0 12 -99865 -228856 0
;
#X obj 573 42 cnv 14 14 14 empty empty 5 4 8 0 12 -99865 -228856 0
;
#X obj 703 42 cnv 14 14 14 empty empty 6 4 8 0 12 -99865 -228856 0
;
#X text 315 18 Size;
#X text 421 18 Visible Size;
#X text 635 18 Label Font;
#X text 824 18 Label Offset;
#X obj 889 42 inlet;
#X obj 800 42 cnv 14 14 14 empty empty 7 4 8 0 12 -99865 -228856 0
;
#X msg 1052 89 symbol my\ label;
#X symbolatom 973 92 10 0 0 0 - - -;
#X obj 973 42 inlet;
#X obj 872 42 cnv 14 14 14 empty empty 8 4 8 0 12 -99865 -228856 0
;
#X msg 973 70 symbol \$1;
#X text 1007 18 Label Text;
#X obj 1191 42 inlet;
#X obj 958 42 cnv 14 14 14 empty empty 9 4 8 0 12 -99865 -228856 0
;
#X obj 1295 42 inlet;
#X obj 1174 42 cnv 14 14 14 empty empty 10 0 8 0 12 -99865 -228856
0;
#X text 0 18 Canvas Name;
#X obj 284 2 cnv 5 1 260 empty empty empty 20 12 0 14 -128992 -66577
0;
#X obj 738 322 cnv 2 1000 40 empty \$0-test_canvas tdh.util.ad~\ &\ tdh.util.ad.ui~
20 15 0 16 -166441 -33289 0;
#X obj 415 328 s \$0-test_canvas;
#X obj 210 187 spigot;
#X obj 170 88 tgl 15 0 empty empty empty 17 7 0 10 -262144 -1 -1 1
1;
#X obj 249 134 == 1;
#X obj 101 135 == 0;
#X obj 144 134 list append \$0;
#X msg 144 157 symbol \$2-\$1;
#X msg 24 136 symbol \$1;
#X obj 24 167 spigot;
#X obj 170 42 inlet;
#X obj 1279 42 cnv 14 14 14 empty empty 11 0 8 0 12 -99865 -228856
0;
#X text 136 18 Add "\$0" option;
#X obj 374 2 cnv 5 1 260 empty empty empty 20 12 0 14 -128992 -66577
0;
#X obj 561 2 cnv 5 1 260 empty empty empty 20 12 0 14 -128992 -66577
0;
#X obj 791 2 cnv 5 1 260 empty empty empty 20 12 0 14 -128992 -66577
0;
#X obj 944 2 cnv 5 1 260 empty empty empty 20 12 0 14 -128992 -66577
0;
#X obj 1164 2 cnv 5 1 260 empty empty empty 20 12 0 14 -128992 -66577
0;
#X connect 0 0 1 0;
#X connect 1 0 37 0;
#X connect 1 0 69 0;
#X connect 2 0 6 0;
#X connect 3 0 2 0;
#X connect 3 1 2 1;
#X connect 4 0 3 0;
#X connect 5 0 2 0;
#X connect 6 0 37 0;
#X connect 6 0 69 0;
#X connect 9 0 26 0;
#X connect 10 0 26 0;
#X connect 10 1 26 1;
#X connect 11 0 10 0;
#X connect 12 0 37 0;
#X connect 12 0 69 0;
#X connect 15 0 9 0;
#X connect 19 0 25 0;
#X connect 20 0 25 0;
#X connect 20 1 25 1;
#X connect 21 0 20 0;
#X connect 22 0 37 0;
#X connect 22 0 69 0;
#X connect 25 0 22 0;
#X connect 26 0 12 0;
#X connect 27 0 37 0;
#X connect 27 0 69 0;
#X connect 28 0 32 0;
#X connect 29 0 30 0;
#X connect 30 0 32 0;
#X connect 30 1 32 2;
#X connect 31 0 37 0;
#X connect 31 0 69 0;
#X connect 32 0 31 0;
#X connect 34 0 74 0;
#X connect 34 0 76 0;
#X connect 36 0 37 1;
#X connect 38 0 5 0;
#X connect 39 0 0 0;
#X connect 40 0 4 0;
#X connect 44 0 11 0;
#X connect 45 0 15 0;
#X connect 46 0 19 0;
#X connect 54 0 21 0;
#X connect 56 0 27 0;
#X connect 57 0 27 0;
#X connect 58 0 60 0;
#X connect 60 0 57 0;
#X connect 62 0 28 0;
#X connect 64 0 29 0;
#X connect 70 0 36 0;
#X connect 71 0 72 0;
#X connect 71 0 73 0;
#X connect 72 0 70 1;
#X connect 73 0 77 1;
#X connect 74 0 75 0;
#X connect 75 0 70 0;
#X connect 76 0 77 0;
#X connect 77 0 36 0;
#X connect 78 0 71 0;
#X restore 6 354 pd label-properties;
#X f 45;
#X floatatom 273 219 5 0 29 0 BG-Clr - -;
#X floatatom 180 174 5 0 0 0 Vis-Sz-W - -;
#X floatatom 181 198 5 0 0 0 Vis-Sz-H - -;
#X floatatom 271 150 5 0 0 0 Lbl-X - -;
#X floatatom 272 174 5 0 0 0 Lbl-Y - -;
#X floatatom 180 150 5 0 0 0 Size - -;
#X symbolatom 214 127 10 0 0 0 CnvReceiveSymbol - -;
#X floatatom 181 219 5 0 2 0 Lbl-Fon - -;
#X symbolatom 274 195 10 0 0 0 Lbl-Txt - -;
#X obj 295 128 tgl 15 0 empty empty Append_0 20 7 0 10 -262144 -260097
-1 1 1;
#X text 194 103 Label Properties;
#X obj 28 18 inlet;
#X obj 414 223 cnv 15 500 30 empty \$0-myCanvas This\\\ is\\\ my\\\ label?
9 13 0 18 -233017 -99865 0;
#X obj 28 54 route doll rec size visw vish lblfon lblsz lblx lbly bgclr
lblclr, f 66;
#X obj 56 93 symbol;
#X text 6 4 _;
#X text 479 173 dollarsign0-myCanvas;
#X msg 74 18 doll 1 \, rec myCanvas \, size 15 \, visw 50 \, vish 60
\, lblfon 0 \, lblsz 18 \, lblx 9 \, lbly 13 \, bgclr 10 \, lblclr
21, f 106;
#N canvas 240 66 752 410 \$0-how-to-set-values-externally 0;
#X text 112 49 doll [0/1] - toggle on appending "\$0-" at the start
of the recieve symbol, f 85;
#X text 112 102 visw [float] - the visible width of the canvas in pixels
, f 85;
#X text 112 85 size [float] - the size of the clickable/dragable portion
of the canvas in pixels, f 85;
#X text 112 122 vish [float] - the visible height of the canvas in
pixels, f 85;
#X text 111 141 lblfon [0/1/2] - font designation for the canvas' label
\, with [0] for Menlo \, [1] for, f 89;
#X text 131 155 Helvetica \, [2] for Times. Note that these fonts may
be different on Windows or Linux, f 84;
#X text 111 173 lblsz [float] - font size designation for the canvas'
label, f 85;
#X text 111 213 lbly [float] - y offset in pixels from the top left
corner of the canvas, f 85;
#X text 111 193 lblx [float] - x offset (horizontal) in pixels from
the top left corner of the canvas, f 85;
#X text 4 29 To set the values for your canvas object externally \,
send messages with the following signifiers to the 0 (leftmost) inlet:
, f 124;
#X msg 31 336 doll 1 \, rec myCanvas \, size 15 \, visw 500 \, vish
30 \, lblfon 0 \, lblsz 18 \, lblx 9 \, lbly 13 \, bgclr 10 \, lblclr
21, f 106;
#X text 111 67 rec [symbol] - receive symbol for the canvas, f 85
;
#X obj 90 241 cnv 5 5 5 empty \$0-canvas-format-helper-boldstatement1
Please\ note\ that\ the\ $-0\ designation\ (1\ or\ 0)\ MUST\ be\ sent\ first\,\ followed\ by\ the\ canvas\ 
1 9 0 12 -262144 -258113 0;
#N canvas 2423 143 808 250 init 0;
#X msg 30 102 label \$1;
#X msg 419 120 label \$1;
#X obj 29 147 s \$0-canvas-format-helper-boldstatement1;
#X obj 418 164 s \$0-canvas-format-helper-boldstatement2;
#X obj 233 15 loadbang;
#X msg 420 51 symbol receive\ symbol!\ Failure\ to\ do\ so\ will\ cause\ incorrect\ parameter\ dispatching!
;
#X msg 26 43 symbol Please\\\ note\\\ that\\\ the\\\ $-0\\\ designation\\\ (1\\\ or\\\ 0)\\\ MUST\\\ be\\\ sent\\\ first\\\,\\\ followed\\\ by\\\ the\\\ canvas\\\ 
;
#X connect 0 0 2 0;
#X connect 1 0 3 0;
#X connect 4 0 5 0;
#X connect 4 0 6 0;
#X connect 5 0 1 0;
#X connect 6 0 0 0;
#X restore 659 9 pd init;
#X obj 90 257 cnv 5 5 5 empty \$0-canvas-format-helper-boldstatement2
receive\ symbol!\ Failure\ to\ do\ so\ will\ cause\ incorrect\ parameter\ dispatching!
1 9 0 12 -262144 -258113 0;
#X msg 112 362 symbol this\ is\ my\ label!;
#X text 296 357 The label parameter must be sent separately to Inlet
1 (rightmost inlet). The message must be prepended with the "symbol"
identifier \, and the escape character () needs to be set in the message:
, f 68;
#X text 102 286 All parameters EXCEPT label can be sent in a single
message to Inlet 0 (leftmost inlet) like below (and this can be copied
and pasted for easy initializing formatting)., f 89;
#X restore 326 378 pd \$0-how-to-set-values-externally;
#X msg 326 336 vis 1;
#X obj 326 357 s pd-\$0-how-to-set-values-externally;
#X obj 120 263 bng 15 250 50 0 empty empty empty 17 7 0 10 -262144
-1 -1;
#X text 141 263 How to set canvas values externally;
#X text 891 18 All left-inlet messages;
#X text 984 47 Label text;
#X msg 636 48 symbol This\ is\ my\ label?;
#X obj 587 47 inlet;
#X obj 632 184 cnv 5 5 5 empty empty ↴ -3 3 0 24 -262144 -99865 0
;
#X connect 0 0 2 6;
#X connect 1 0 2 11;
#X connect 3 0 2 10;
#X connect 4 0 2 3;
#X connect 5 0 2 4;
#X connect 6 0 2 7;
#X connect 7 0 2 8;
#X connect 8 0 2 2;
#X connect 9 0 2 0;
#X connect 10 0 2 5;
#X connect 11 0 2 9;
#X connect 12 0 2 1;
#X connect 14 0 16 0;
#X connect 16 0 12 0;
#X connect 16 1 17 0;
#X connect 16 2 8 0;
#X connect 16 3 4 0;
#X connect 16 4 5 0;
#X connect 16 5 10 0;
#X connect 16 6 0 0;
#X connect 16 7 6 0;
#X connect 16 8 7 0;
#X connect 16 9 3 0;
#X connect 16 10 1 0;
#X connect 17 0 9 0;
#X connect 20 0 16 0;
#X connect 22 0 23 0;
#X connect 24 0 22 0;
#X connect 28 0 11 0;
#X connect 29 0 11 0;
#X coords 0 -1 1 1 300 190 2 100 100;
#X restore 25 27 pd graph;
#X obj 25 1 inlet;
#X connect 0 0 1 1;
#X connect 2 0 1 0;
#X restore 343 355 pd canvas-ctrl;
#X text 142 332 \$0-helpPatchTitleBar;
#X msg 343 319 doll 1 \, rec helpPatchTitleBar \, size 15 \, visw 501
\, vish 40 \, lblfon 0 \, lblsz 18 \, lblx 9 \, lbly 20 \, bgclr 1
\, lblclr 12, f 123;
#X msg 438 572 symbol Inlets;
#X msg 343 549 doll 1 \, rec helpPatchSecLabelInlets \, size 2 \, visw
501 \, vish 3 \, lblfon 0 \, lblsz 16 \, lblx 20 \, lbly 15 \, bgclr
1 \, lblclr 12, f 123;
#X msg 343 443 doll 1 \, rec helpPatchSecDivider \, size 1 \, visw
501 \, vish 1 \, lblfon 0 \, lblsz 18 \, lblx 9 \, lbly 20 \, bgclr
1 \, lblclr 12, f 123;
#X msg 343 679 doll 1 \, rec helpPatchSecLabelOutlets \, size 2 \,
visw 501 \, vish 3 \, lblfon 0 \, lblsz 16 \, lblx 20 \, lbly 15 \,
bgclr 1 \, lblclr 12, f 123;
#X msg 438 702 symbol Outlets;
#X text 125 682 \$0-helpPatchSecLabelOutlets;
#X msg 438 852 symbol Arguments;
#X msg 343 829 doll 1 \, rec helpPatchSecLabelArgs \, size 2 \, visw
501 \, vish 3 \, lblfon 0 \, lblsz 16 \, lblx 20 \, lbly 15 \, bgclr
1 \, lblclr 12, f 123;
#X text 134 833 \$0-helpPatchSecLabelArgs;
#X msg 343 959 doll 1 \, rec helpPatchSecLabelNotes \, size 2 \, visw
501 \, vish 3 \, lblfon 0 \, lblsz 16 \, lblx 20 \, lbly 15 \, bgclr
1 \, lblclr 12, f 123;
#X msg 438 982 symbol Notes;
#X text 134 445 \$0-helpPatchSecDivider;
#N canvas 673 23 349 258 canvas-ctrl 0;
#X obj 291 1 inlet;
#N canvas 248 270 1089 459 graph 0;
#X floatatom 180 241 5 0 0 0 Lbl-Sz - -;
#X floatatom 273 241 5 0 29 0 Lbl-Clr - -;
#N canvas 32 23 1408 389 label-properties 0;
#X floatatom 314 72 3 18 100 0 - - -;
#X msg 314 99 size \$1;
#X obj 400 121 pack 100 60, f 18;
#X obj 491 93 t b f;
#X floatatom 491 68 4 18 100 0 - - -;
#X floatatom 400 68 4 18 100 0 - - -;
#X msg 400 148 vis_size \$1 \$2;
#X text 442 41 w/x;
#X text 532 41 h/y;
#X floatatom 589 116 4 0 3 0 - - -;
#X obj 721 135 t b f;
#X floatatom 721 116 5 5 50 0 - - -;
#X msg 589 185 label_font \$1 \$2;
#X text 632 41 type;
#X text 760 40 size;
#X obj 589 64 vradio 15 1 0 3 empty empty empty 0 -8 0 10 -262144 -1
-1 0;
#X text 605 63 DejaVu Sans Mono;
#X text 605 78 Helvetica;
#X text 606 93 Times;
#X floatatom 817 71 4 -100 250 0 - - -;
#X obj 889 98 t b f;
#X floatatom 889 71 5 -150 150 0 - - -;
#X msg 817 148 label_pos \$1 \$2;
#X text 856 41 x;
#X text 929 41 y;
#X obj 817 126 pack 17 20, f 17;
#X obj 589 164 pack 0 25, f 24;
#X msg 973 129 label \$1;
#X floatatom 1191 70 3 0 29 1 bgColor - -;
#X floatatom 1295 70 3 0 29 1 lblColor - -;
#X obj 1295 92 t b f;
#X msg 1191 145 color \$1 \$2 \$3;
#X obj 1191 124 pack 1 22 22, f 14;
#X text 1170 18 Color Presets (0-29):;
#X obj 24 42 inlet;
#X obj 8 42 cnv 14 14 14 empty empty 0 4 8 0 12 -99865 -228856 0;
#X symbolatom 24 210 10 0 0 0 - - -;
#X obj 588 330 send, f 13;
#X obj 400 42 inlet;
#X obj 314 42 inlet;
#X obj 491 42 inlet;
#X obj 155 42 cnv 14 14 14 empty empty 1 4 8 0 12 -99865 -228856 0
;
#X obj 297 42 cnv 14 14 14 empty empty 2 4 8 0 12 -99865 -228856 0
;
#X obj 384 42 cnv 14 14 14 empty empty 3 4 8 0 12 -99865 -228856 0
;
#X obj 721 42 inlet;
#X obj 589 42 inlet;
#X obj 817 42 inlet;
#X obj 476 42 cnv 14 14 14 empty empty 4 4 8 0 12 -99865 -228856 0
;
#X obj 573 42 cnv 14 14 14 empty empty 5 4 8 0 12 -99865 -228856 0
;
#X obj 703 42 cnv 14 14 14 empty empty 6 4 8 0 12 -99865 -228856 0
;
#X text 315 18 Size;
#X text 421 18 Visible Size;
#X text 635 18 Label Font;
#X text 824 18 Label Offset;
#X obj 889 42 inlet;
#X obj 800 42 cnv 14 14 14 empty empty 7 4 8 0 12 -99865 -228856 0
;
#X msg 1052 89 symbol my\ label;
#X symbolatom 973 92 10 0 0 0 - - -;
#X obj 973 42 inlet;
#X obj 872 42 cnv 14 14 14 empty empty 8 4 8 0 12 -99865 -228856 0
;
#X msg 973 70 symbol \$1;
#X text 1007 18 Label Text;
#X obj 1191 42 inlet;
#X obj 958 42 cnv 14 14 14 empty empty 9 4 8 0 12 -99865 -228856 0
;
#X obj 1295 42 inlet;
#X obj 1174 42 cnv 14 14 14 empty empty 10 0 8 0 12 -99865 -228856
0;
#X text 0 18 Canvas Name;
#X obj 284 2 cnv 5 1 260 empty empty empty 20 12 0 14 -128992 -66577
0;
#X obj 738 322 cnv 2 1000 40 empty \$0-test_canvas tdh.util.ad~\ &\ tdh.util.ad.ui~
20 15 0 16 -166441 -33289 0;
#X obj 415 328 s \$0-test_canvas;
#X obj 210 187 spigot;
#X obj 170 88 tgl 15 0 empty empty empty 17 7 0 10 -262144 -1 -1 1
1;
#X obj 249 134 == 1;
#X obj 101 135 == 0;
#X obj 144 134 list append \$0;
#X msg 144 157 symbol \$2-\$1;
#X msg 24 136 symbol \$1;
#X obj 24 167 spigot;
#X obj 170 42 inlet;
#X obj 1279 42 cnv 14 14 14 empty empty 11 0 8 0 12 -99865 -228856
0;
#X text 136 18 Add "\$0" option;
#X obj 374 2 cnv 5 1 260 empty empty empty 20 12 0 14 -128992 -66577
0;
#X obj 561 2 cnv 5 1 260 empty empty empty 20 12 0 14 -128992 -66577
0;
#X obj 791 2 cnv 5 1 260 empty empty empty 20 12 0 14 -128992 -66577
0;
#X obj 944 2 cnv 5 1 260 empty empty empty 20 12 0 14 -128992 -66577
0;
#X obj 1164 2 cnv 5 1 260 empty empty empty 20 12 0 14 -128992 -66577
0;
#X connect 0 0 1 0;
#X connect 1 0 37 0;
#X connect 1 0 69 0;
#X connect 2 0 6 0;
#X connect 3 0 2 0;
#X connect 3 1 2 1;
#X connect 4 0 3 0;
#X connect 5 0 2 0;
#X connect 6 0 37 0;
#X connect 6 0 69 0;
#X connect 9 0 26 0;
#X connect 10 0 26 0;
#X connect 10 1 26 1;
#X connect 11 0 10 0;
#X connect 12 0 37 0;
#X connect 12 0 69 0;
#X connect 15 0 9 0;
#X connect 19 0 25 0;
#X connect 20 0 25 0;
#X connect 20 1 25 1;
#X connect 21 0 20 0;
#X connect 22 0 37 0;
#X connect 22 0 69 0;
#X connect 25 0 22 0;
#X connect 26 0 12 0;
#X connect 27 0 37 0;
#X connect 27 0 69 0;
#X connect 28 0 32 0;
#X connect 29 0 30 0;
#X connect 30 0 32 0;
#X connect 30 1 32 2;
#X connect 31 0 37 0;
#X connect 31 0 69 0;
#X connect 32 0 31 0;
#X connect 34 0 74 0;
#X connect 34 0 76 0;
#X connect 36 0 37 1;
#X connect 38 0 5 0;
#X connect 39 0 0 0;
#X connect 40 0 4 0;
#X connect 44 0 11 0;
#X connect 45 0 15 0;
#X connect 46 0 19 0;
#X connect 54 0 21 0;
#X connect 56 0 27 0;
#X connect 57 0 27 0;
#X connect 58 0 60 0;
#X connect 60 0 57 0;
#X connect 62 0 28 0;
#X connect 64 0 29 0;
#X connect 70 0 36 0;
#X connect 71 0 72 0;
#X connect 71 0 73 0;
#X connect 72 0 70 1;
#X connect 73 0 77 1;
#X connect 74 0 75 0;
#X connect 75 0 70 0;
#X connect 76 0 77 0;
#X connect 77 0 36 0;
#X connect 78 0 71 0;
#X restore 6 354 pd label-properties;
#X f 45;
#X floatatom 273 219 5 0 29 0 BG-Clr - -;
#X floatatom 180 174 5 0 0 0 Vis-Sz-W - -;
#X floatatom 181 198 5 0 0 0 Vis-Sz-H - -;
#X floatatom 271 150 5 0 0 0 Lbl-X - -;
#X floatatom 272 174 5 0 0 0 Lbl-Y - -;
#X floatatom 180 150 5 0 0 0 Size - -;
#X symbolatom 214 127 10 0 0 0 CnvReceiveSymbol - -;
#X floatatom 181 219 5 0 2 0 Lbl-Fon - -;
#X symbolatom 274 195 10 0 0 0 Lbl-Txt - -;
#X obj 295 128 tgl 15 0 empty empty Append_0 20 7 0 10 -262144 -260097
-1 1 1;
#X text 194 103 Label Properties;
#X obj 28 18 inlet;
#X obj 414 223 cnv 15 500 30 empty \$0-myCanvas This\\\ is\\\ my\\\ label?
9 13 0 18 -233017 -99865 0;
#X obj 28 54 route doll rec size visw vish lblfon lblsz lblx lbly bgclr
lblclr, f 66;
#X obj 56 93 symbol;
#X text 6 4 _;
#X text 479 173 dollarsign0-myCanvas;
#X msg 74 18 doll 1 \, rec myCanvas \, size 15 \, visw 50 \, vish 60
\, lblfon 0 \, lblsz 18 \, lblx 9 \, lbly 13 \, bgclr 10 \, lblclr
21, f 106;
#N canvas 240 66 752 410 \$0-how-to-set-values-externally 0;
#X text 112 49 doll [0/1] - toggle on appending "\$0-" at the start
of the recieve symbol, f 85;
#X text 112 102 visw [float] - the visible width of the canvas in pixels
, f 85;
#X text 112 85 size [float] - the size of the clickable/dragable portion
of the canvas in pixels, f 85;
#X text 112 122 vish [float] - the visible height of the canvas in
pixels, f 85;
#X text 111 141 lblfon [0/1/2] - font designation for the canvas' label
\, with [0] for Menlo \, [1] for, f 89;
#X text 131 155 Helvetica \, [2] for Times. Note that these fonts may
be different on Windows or Linux, f 84;
#X text 111 173 lblsz [float] - font size designation for the canvas'
label, f 85;
#X text 111 213 lbly [float] - y offset in pixels from the top left
corner of the canvas, f 85;
#X text 111 193 lblx [float] - x offset (horizontal) in pixels from
the top left corner of the canvas, f 85;
#X text 4 29 To set the values for your canvas object externally \,
send messages with the following signifiers to the 0 (leftmost) inlet:
, f 124;
#X msg 31 336 doll 1 \, rec myCanvas \, size 15 \, visw 500 \, vish
30 \, lblfon 0 \, lblsz 18 \, lblx 9 \, lbly 13 \, bgclr 10 \, lblclr
21, f 106;
#X text 111 67 rec [symbol] - receive symbol for the canvas, f 85
;
#X obj 90 241 cnv 5 5 5 empty \$0-canvas-format-helper-boldstatement1
Please\ note\ that\ the\ $-0\ designation\ (1\ or\ 0)\ MUST\ be\ sent\ first\,\ followed\ by\ the\ canvas\ 
1 9 0 12 -262144 -258113 0;
#N canvas 2423 143 808 250 init 0;
#X msg 30 102 label \$1;
#X msg 419 120 label \$1;
#X obj 29 147 s \$0-canvas-format-helper-boldstatement1;
#X obj 418 164 s \$0-canvas-format-helper-boldstatement2;
#X obj 233 15 loadbang;
#X msg 420 51 symbol receive\ symbol!\ Failure\ to\ do\ so\ will\ cause\ incorrect\ parameter\ dispatching!
;
#X msg 26 43 symbol Please\\\ note\\\ that\\\ the\\\ $-0\\\ designation\\\ (1\\\ or\\\ 0)\\\ MUST\\\ be\\\ sent\\\ first\\\,\\\ followed\\\ by\\\ the\\\ canvas\\\ 
;
#X connect 0 0 2 0;
#X connect 1 0 3 0;
#X connect 4 0 5 0;
#X connect 4 0 6 0;
#X connect 5 0 1 0;
#X connect 6 0 0 0;
#X restore 659 9 pd init;
#X obj 90 257 cnv 5 5 5 empty \$0-canvas-format-helper-boldstatement2
receive\ symbol!\ Failure\ to\ do\ so\ will\ cause\ incorrect\ parameter\ dispatching!
1 9 0 12 -262144 -258113 0;
#X msg 112 362 symbol this\ is\ my\ label!;
#X text 296 357 The label parameter must be sent separately to Inlet
1 (rightmost inlet). The message must be prepended with the "symbol"
identifier \, and the escape character () needs to be set in the message:
, f 68;
#X text 102 286 All parameters EXCEPT label can be sent in a single
message to Inlet 0 (leftmost inlet) like below (and this can be copied
and pasted for easy initializing formatting)., f 89;
#X restore 326 378 pd \$0-how-to-set-values-externally;
#X msg 326 336 vis 1;
#X obj 326 357 s pd-\$0-how-to-set-values-externally;
#X obj 120 263 bng 15 250 50 0 empty empty empty 17 7 0 10 -262144
-1 -1;
#X text 141 263 How to set canvas values externally;
#X text 891 18 All left-inlet messages;
#X text 984 47 Label text;
#X msg 636 48 symbol This\ is\ my\ label?;
#X obj 587 47 inlet;
#X obj 632 184 cnv 5 5 5 empty empty ↴ -3 3 0 24 -262144 -99865 0
;
#X connect 0 0 2 6;
#X connect 1 0 2 11;
#X connect 3 0 2 10;
#X connect 4 0 2 3;
#X connect 5 0 2 4;
#X connect 6 0 2 7;
#X connect 7 0 2 8;
#X connect 8 0 2 2;
#X connect 9 0 2 0;
#X connect 10 0 2 5;
#X connect 11 0 2 9;
#X connect 12 0 2 1;
#X connect 14 0 16 0;
#X connect 16 0 12 0;
#X connect 16 1 17 0;
#X connect 16 2 8 0;
#X connect 16 3 4 0;
#X connect 16 4 5 0;
#X connect 16 5 10 0;
#X connect 16 6 0 0;
#X connect 16 7 6 0;
#X connect 16 8 7 0;
#X connect 16 9 3 0;
#X connect 16 10 1 0;
#X connect 17 0 9 0;
#X connect 20 0 16 0;
#X connect 22 0 23 0;
#X connect 24 0 22 0;
#X connect 28 0 11 0;
#X connect 29 0 11 0;
#X coords 0 -1 1 1 300 190 2 100 100;
#X restore 25 27 pd graph;
#X obj 25 1 inlet;
#X connect 0 0 1 1;
#X connect 2 0 1 0;
#X restore 343 475 pd canvas-ctrl;
#N canvas 673 23 349 258 canvas-ctrl 0;
#X obj 291 1 inlet;
#N canvas 248 270 1089 459 graph 0;
#X floatatom 180 241 5 0 0 0 Lbl-Sz - -;
#X floatatom 273 241 5 0 29 0 Lbl-Clr - -;
#N canvas 32 23 1408 389 label-properties 0;
#X floatatom 314 72 3 18 100 0 - - -;
#X msg 314 99 size \$1;
#X obj 400 121 pack 100 60, f 18;
#X obj 491 93 t b f;
#X floatatom 491 68 4 18 100 0 - - -;
#X floatatom 400 68 4 18 100 0 - - -;
#X msg 400 148 vis_size \$1 \$2;
#X text 442 41 w/x;
#X text 532 41 h/y;
#X floatatom 589 116 4 0 3 0 - - -;
#X obj 721 135 t b f;
#X floatatom 721 116 5 5 50 0 - - -;
#X msg 589 185 label_font \$1 \$2;
#X text 632 41 type;
#X text 760 40 size;
#X obj 589 64 vradio 15 1 0 3 empty empty empty 0 -8 0 10 -262144 -1
-1 0;
#X text 605 63 DejaVu Sans Mono;
#X text 605 78 Helvetica;
#X text 606 93 Times;
#X floatatom 817 71 4 -100 250 0 - - -;
#X obj 889 98 t b f;
#X floatatom 889 71 5 -150 150 0 - - -;
#X msg 817 148 label_pos \$1 \$2;
#X text 856 41 x;
#X text 929 41 y;
#X obj 817 126 pack 17 20, f 17;
#X obj 589 164 pack 0 25, f 24;
#X msg 973 129 label \$1;
#X floatatom 1191 70 3 0 29 1 bgColor - -;
#X floatatom 1295 70 3 0 29 1 lblColor - -;
#X obj 1295 92 t b f;
#X msg 1191 145 color \$1 \$2 \$3;
#X obj 1191 124 pack 1 22 22, f 14;
#X text 1170 18 Color Presets (0-29):;
#X obj 24 42 inlet;
#X obj 8 42 cnv 14 14 14 empty empty 0 4 8 0 12 -99865 -228856 0;
#X symbolatom 24 210 10 0 0 0 - - -;
#X obj 588 330 send, f 13;
#X obj 400 42 inlet;
#X obj 314 42 inlet;
#X obj 491 42 inlet;
#X obj 155 42 cnv 14 14 14 empty empty 1 4 8 0 12 -99865 -228856 0
;
#X obj 297 42 cnv 14 14 14 empty empty 2 4 8 0 12 -99865 -228856 0
;
#X obj 384 42 cnv 14 14 14 empty empty 3 4 8 0 12 -99865 -228856 0
;
#X obj 721 42 inlet;
#X obj 589 42 inlet;
#X obj 817 42 inlet;
#X obj 476 42 cnv 14 14 14 empty empty 4 4 8 0 12 -99865 -228856 0
;
#X obj 573 42 cnv 14 14 14 empty empty 5 4 8 0 12 -99865 -228856 0
;
#X obj 703 42 cnv 14 14 14 empty empty 6 4 8 0 12 -99865 -228856 0
;
#X text 315 18 Size;
#X text 421 18 Visible Size;
#X text 635 18 Label Font;
#X text 824 18 Label Offset;
#X obj 889 42 inlet;
#X obj 800 42 cnv 14 14 14 empty empty 7 4 8 0 12 -99865 -228856 0
;
#X msg 1052 89 symbol my\ label;
#X symbolatom 973 92 10 0 0 0 - - -;
#X obj 973 42 inlet;
#X obj 872 42 cnv 14 14 14 empty empty 8 4 8 0 12 -99865 -228856 0
;
#X msg 973 70 symbol \$1;
#X text 1007 18 Label Text;
#X obj 1191 42 inlet;
#X obj 958 42 cnv 14 14 14 empty empty 9 4 8 0 12 -99865 -228856 0
;
#X obj 1295 42 inlet;
#X obj 1174 42 cnv 14 14 14 empty empty 10 0 8 0 12 -99865 -228856
0;
#X text 0 18 Canvas Name;
#X obj 284 2 cnv 5 1 260 empty empty empty 20 12 0 14 -128992 -66577
0;
#X obj 738 322 cnv 2 1000 40 empty \$0-test_canvas tdh.util.ad~\ &\ tdh.util.ad.ui~
20 15 0 16 -166441 -33289 0;
#X obj 415 328 s \$0-test_canvas;
#X obj 210 187 spigot;
#X obj 170 88 tgl 15 0 empty empty empty 17 7 0 10 -262144 -1 -1 1
1;
#X obj 249 134 == 1;
#X obj 101 135 == 0;
#X obj 144 134 list append \$0;
#X msg 144 157 symbol \$2-\$1;
#X msg 24 136 symbol \$1;
#X obj 24 167 spigot;
#X obj 170 42 inlet;
#X obj 1279 42 cnv 14 14 14 empty empty 11 0 8 0 12 -99865 -228856
0;
#X text 136 18 Add "\$0" option;
#X obj 374 2 cnv 5 1 260 empty empty empty 20 12 0 14 -128992 -66577
0;
#X obj 561 2 cnv 5 1 260 empty empty empty 20 12 0 14 -128992 -66577
0;
#X obj 791 2 cnv 5 1 260 empty empty empty 20 12 0 14 -128992 -66577
0;
#X obj 944 2 cnv 5 1 260 empty empty empty 20 12 0 14 -128992 -66577
0;
#X obj 1164 2 cnv 5 1 260 empty empty empty 20 12 0 14 -128992 -66577
0;
#X connect 0 0 1 0;
#X connect 1 0 37 0;
#X connect 1 0 69 0;
#X connect 2 0 6 0;
#X connect 3 0 2 0;
#X connect 3 1 2 1;
#X connect 4 0 3 0;
#X connect 5 0 2 0;
#X connect 6 0 37 0;
#X connect 6 0 69 0;
#X connect 9 0 26 0;
#X connect 10 0 26 0;
#X connect 10 1 26 1;
#X connect 11 0 10 0;
#X connect 12 0 37 0;
#X connect 12 0 69 0;
#X connect 15 0 9 0;
#X connect 19 0 25 0;
#X connect 20 0 25 0;
#X connect 20 1 25 1;
#X connect 21 0 20 0;
#X connect 22 0 37 0;
#X connect 22 0 69 0;
#X connect 25 0 22 0;
#X connect 26 0 12 0;
#X connect 27 0 37 0;
#X connect 27 0 69 0;
#X connect 28 0 32 0;
#X connect 29 0 30 0;
#X connect 30 0 32 0;
#X connect 30 1 32 2;
#X connect 31 0 37 0;
#X connect 31 0 69 0;
#X connect 32 0 31 0;
#X connect 34 0 74 0;
#X connect 34 0 76 0;
#X connect 36 0 37 1;
#X connect 38 0 5 0;
#X connect 39 0 0 0;
#X connect 40 0 4 0;
#X connect 44 0 11 0;
#X connect 45 0 15 0;
#X connect 46 0 19 0;
#X connect 54 0 21 0;
#X connect 56 0 27 0;
#X connect 57 0 27 0;
#X connect 58 0 60 0;
#X connect 60 0 57 0;
#X connect 62 0 28 0;
#X connect 64 0 29 0;
#X connect 70 0 36 0;
#X connect 71 0 72 0;
#X connect 71 0 73 0;
#X connect 72 0 70 1;
#X connect 73 0 77 1;
#X connect 74 0 75 0;
#X connect 75 0 70 0;
#X connect 76 0 77 0;
#X connect 77 0 36 0;
#X connect 78 0 71 0;
#X restore 6 354 pd label-properties;
#X f 45;
#X floatatom 273 219 5 0 29 0 BG-Clr - -;
#X floatatom 180 174 5 0 0 0 Vis-Sz-W - -;
#X floatatom 181 198 5 0 0 0 Vis-Sz-H - -;
#X floatatom 271 150 5 0 0 0 Lbl-X - -;
#X floatatom 272 174 5 0 0 0 Lbl-Y - -;
#X floatatom 180 150 5 0 0 0 Size - -;
#X symbolatom 214 127 10 0 0 0 CnvReceiveSymbol - -;
#X floatatom 181 219 5 0 2 0 Lbl-Fon - -;
#X symbolatom 274 195 10 0 0 0 Lbl-Txt - -;
#X obj 295 128 tgl 15 0 empty empty Append_0 20 7 0 10 -262144 -260097
-1 1 1;
#X text 194 103 Label Properties;
#X obj 28 18 inlet;
#X obj 414 223 cnv 15 500 30 empty \$0-myCanvas This\\\ is\\\ my\\\ label?
9 13 0 18 -233017 -99865 0;
#X obj 28 54 route doll rec size visw vish lblfon lblsz lblx lbly bgclr
lblclr, f 66;
#X obj 56 93 symbol;
#X text 6 4 _;
#X text 479 173 dollarsign0-myCanvas;
#X msg 74 18 doll 1 \, rec myCanvas \, size 15 \, visw 50 \, vish 60
\, lblfon 0 \, lblsz 18 \, lblx 9 \, lbly 13 \, bgclr 10 \, lblclr
21, f 106;
#N canvas 240 66 752 410 \$0-how-to-set-values-externally 0;
#X text 112 49 doll [0/1] - toggle on appending "\$0-" at the start
of the recieve symbol, f 85;
#X text 112 102 visw [float] - the visible width of the canvas in pixels
, f 85;
#X text 112 85 size [float] - the size of the clickable/dragable portion
of the canvas in pixels, f 85;
#X text 112 122 vish [float] - the visible height of the canvas in
pixels, f 85;
#X text 111 141 lblfon [0/1/2] - font designation for the canvas' label
\, with [0] for Menlo \, [1] for, f 89;
#X text 131 155 Helvetica \, [2] for Times. Note that these fonts may
be different on Windows or Linux, f 84;
#X text 111 173 lblsz [float] - font size designation for the canvas'
label, f 85;
#X text 111 213 lbly [float] - y offset in pixels from the top left
corner of the canvas, f 85;
#X text 111 193 lblx [float] - x offset (horizontal) in pixels from
the top left corner of the canvas, f 85;
#X text 4 29 To set the values for your canvas object externally \,
send messages with the following signifiers to the 0 (leftmost) inlet:
, f 124;
#X msg 31 336 doll 1 \, rec myCanvas \, size 15 \, visw 500 \, vish
30 \, lblfon 0 \, lblsz 18 \, lblx 9 \, lbly 13 \, bgclr 10 \, lblclr
21, f 106;
#X text 111 67 rec [symbol] - receive symbol for the canvas, f 85
;
#X obj 90 241 cnv 5 5 5 empty \$0-canvas-format-helper-boldstatement1
Please\ note\ that\ the\ $-0\ designation\ (1\ or\ 0)\ MUST\ be\ sent\ first\,\ followed\ by\ the\ canvas\ 
1 9 0 12 -262144 -258113 0;
#N canvas 2423 143 808 250 init 0;
#X msg 30 102 label \$1;
#X msg 419 120 label \$1;
#X obj 29 147 s \$0-canvas-format-helper-boldstatement1;
#X obj 418 164 s \$0-canvas-format-helper-boldstatement2;
#X obj 233 15 loadbang;
#X msg 420 51 symbol receive\ symbol!\ Failure\ to\ do\ so\ will\ cause\ incorrect\ parameter\ dispatching!
;
#X msg 26 43 symbol Please\\\ note\\\ that\\\ the\\\ $-0\\\ designation\\\ (1\\\ or\\\ 0)\\\ MUST\\\ be\\\ sent\\\ first\\\,\\\ followed\\\ by\\\ the\\\ canvas\\\ 
;
#X connect 0 0 2 0;
#X connect 1 0 3 0;
#X connect 4 0 5 0;
#X connect 4 0 6 0;
#X connect 5 0 1 0;
#X connect 6 0 0 0;
#X restore 659 9 pd init;
#X obj 90 257 cnv 5 5 5 empty \$0-canvas-format-helper-boldstatement2
receive\ symbol!\ Failure\ to\ do\ so\ will\ cause\ incorrect\ parameter\ dispatching!
1 9 0 12 -262144 -258113 0;
#X msg 112 362 symbol this\ is\ my\ label!;
#X text 296 357 The label parameter must be sent separately to Inlet
1 (rightmost inlet). The message must be prepended with the "symbol"
identifier \, and the escape character () needs to be set in the message:
, f 68;
#X text 102 286 All parameters EXCEPT label can be sent in a single
message to Inlet 0 (leftmost inlet) like below (and this can be copied
and pasted for easy initializing formatting)., f 89;
#X restore 326 378 pd \$0-how-to-set-values-externally;
#X msg 326 336 vis 1;
#X obj 326 357 s pd-\$0-how-to-set-values-externally;
#X obj 120 263 bng 15 250 50 0 empty empty empty 17 7 0 10 -262144
-1 -1;
#X text 141 263 How to set canvas values externally;
#X text 891 18 All left-inlet messages;
#X text 984 47 Label text;
#X msg 636 48 symbol This\ is\ my\ label?;
#X obj 587 47 inlet;
#X obj 632 184 cnv 5 5 5 empty empty ↴ -3 3 0 24 -262144 -99865 0
;
#X connect 0 0 2 6;
#X connect 1 0 2 11;
#X connect 3 0 2 10;
#X connect 4 0 2 3;
#X connect 5 0 2 4;
#X connect 6 0 2 7;
#X connect 7 0 2 8;
#X connect 8 0 2 2;
#X connect 9 0 2 0;
#X connect 10 0 2 5;
#X connect 11 0 2 9;
#X connect 12 0 2 1;
#X connect 14 0 16 0;
#X connect 16 0 12 0;
#X connect 16 1 17 0;
#X connect 16 2 8 0;
#X connect 16 3 4 0;
#X connect 16 4 5 0;
#X connect 16 5 10 0;
#X connect 16 6 0 0;
#X connect 16 7 6 0;
#X connect 16 8 7 0;
#X connect 16 9 3 0;
#X connect 16 10 1 0;
#X connect 17 0 9 0;
#X connect 20 0 16 0;
#X connect 22 0 23 0;
#X connect 24 0 22 0;
#X connect 28 0 11 0;
#X connect 29 0 11 0;
#X coords 0 -1 1 1 300 190 2 100 100;
#X restore 25 27 pd graph;
#X obj 25 1 inlet;
#X connect 0 0 1 1;
#X connect 2 0 1 0;
#X restore 343 595 pd canvas-ctrl;
#N canvas 673 23 349 258 canvas-ctrl 0;
#X obj 291 1 inlet;
#N canvas 248 270 1089 459 graph 0;
#X floatatom 180 241 5 0 0 0 Lbl-Sz - -;
#X floatatom 273 241 5 0 29 0 Lbl-Clr - -;
#N canvas 32 23 1408 389 label-properties 0;
#X floatatom 314 72 3 18 100 0 - - -;
#X msg 314 99 size \$1;
#X obj 400 121 pack 100 60, f 18;
#X obj 491 93 t b f;
#X floatatom 491 68 4 18 100 0 - - -;
#X floatatom 400 68 4 18 100 0 - - -;
#X msg 400 148 vis_size \$1 \$2;
#X text 442 41 w/x;
#X text 532 41 h/y;
#X floatatom 589 116 4 0 3 0 - - -;
#X obj 721 135 t b f;
#X floatatom 721 116 5 5 50 0 - - -;
#X msg 589 185 label_font \$1 \$2;
#X text 632 41 type;
#X text 760 40 size;
#X obj 589 64 vradio 15 1 0 3 empty empty empty 0 -8 0 10 -262144 -1
-1 0;
#X text 605 63 DejaVu Sans Mono;
#X text 605 78 Helvetica;
#X text 606 93 Times;
#X floatatom 817 71 4 -100 250 0 - - -;
#X obj 889 98 t b f;
#X floatatom 889 71 5 -150 150 0 - - -;
#X msg 817 148 label_pos \$1 \$2;
#X text 856 41 x;
#X text 929 41 y;
#X obj 817 126 pack 17 20, f 17;
#X obj 589 164 pack 0 25, f 24;
#X msg 973 129 label \$1;
#X floatatom 1191 70 3 0 29 1 bgColor - -;
#X floatatom 1295 70 3 0 29 1 lblColor - -;
#X obj 1295 92 t b f;
#X msg 1191 145 color \$1 \$2 \$3;
#X obj 1191 124 pack 1 22 22, f 14;
#X text 1170 18 Color Presets (0-29):;
#X obj 24 42 inlet;
#X obj 8 42 cnv 14 14 14 empty empty 0 4 8 0 12 -99865 -228856 0;
#X symbolatom 24 210 10 0 0 0 - - -;
#X obj 588 330 send, f 13;
#X obj 400 42 inlet;
#X obj 314 42 inlet;
#X obj 491 42 inlet;
#X obj 155 42 cnv 14 14 14 empty empty 1 4 8 0 12 -99865 -228856 0
;
#X obj 297 42 cnv 14 14 14 empty empty 2 4 8 0 12 -99865 -228856 0
;
#X obj 384 42 cnv 14 14 14 empty empty 3 4 8 0 12 -99865 -228856 0
;
#X obj 721 42 inlet;
#X obj 589 42 inlet;
#X obj 817 42 inlet;
#X obj 476 42 cnv 14 14 14 empty empty 4 4 8 0 12 -99865 -228856 0
;
#X obj 573 42 cnv 14 14 14 empty empty 5 4 8 0 12 -99865 -228856 0
;
#X obj 703 42 cnv 14 14 14 empty empty 6 4 8 0 12 -99865 -228856 0
;
#X text 315 18 Size;
#X text 421 18 Visible Size;
#X text 635 18 Label Font;
#X text 824 18 Label Offset;
#X obj 889 42 inlet;
#X obj 800 42 cnv 14 14 14 empty empty 7 4 8 0 12 -99865 -228856 0
;
#X msg 1052 89 symbol my\ label;
#X symbolatom 973 92 10 0 0 0 - - -;
#X obj 973 42 inlet;
#X obj 872 42 cnv 14 14 14 empty empty 8 4 8 0 12 -99865 -228856 0
;
#X msg 973 70 symbol \$1;
#X text 1007 18 Label Text;
#X obj 1191 42 inlet;
#X obj 958 42 cnv 14 14 14 empty empty 9 4 8 0 12 -99865 -228856 0
;
#X obj 1295 42 inlet;
#X obj 1174 42 cnv 14 14 14 empty empty 10 0 8 0 12 -99865 -228856
0;
#X text 0 18 Canvas Name;
#X obj 284 2 cnv 5 1 260 empty empty empty 20 12 0 14 -128992 -66577
0;
#X obj 738 322 cnv 2 1000 40 empty \$0-test_canvas tdh.util.ad~\ &\ tdh.util.ad.ui~
20 15 0 16 -166441 -33289 0;
#X obj 415 328 s \$0-test_canvas;
#X obj 210 187 spigot;
#X obj 170 88 tgl 15 0 empty empty empty 17 7 0 10 -262144 -1 -1 1
1;
#X obj 249 134 == 1;
#X obj 101 135 == 0;
#X obj 144 134 list append \$0;
#X msg 144 157 symbol \$2-\$1;
#X msg 24 136 symbol \$1;
#X obj 24 167 spigot;
#X obj 170 42 inlet;
#X obj 1279 42 cnv 14 14 14 empty empty 11 0 8 0 12 -99865 -228856
0;
#X text 136 18 Add "\$0" option;
#X obj 374 2 cnv 5 1 260 empty empty empty 20 12 0 14 -128992 -66577
0;
#X obj 561 2 cnv 5 1 260 empty empty empty 20 12 0 14 -128992 -66577
0;
#X obj 791 2 cnv 5 1 260 empty empty empty 20 12 0 14 -128992 -66577
0;
#X obj 944 2 cnv 5 1 260 empty empty empty 20 12 0 14 -128992 -66577
0;
#X obj 1164 2 cnv 5 1 260 empty empty empty 20 12 0 14 -128992 -66577
0;
#X connect 0 0 1 0;
#X connect 1 0 37 0;
#X connect 1 0 69 0;
#X connect 2 0 6 0;
#X connect 3 0 2 0;
#X connect 3 1 2 1;
#X connect 4 0 3 0;
#X connect 5 0 2 0;
#X connect 6 0 37 0;
#X connect 6 0 69 0;
#X connect 9 0 26 0;
#X connect 10 0 26 0;
#X connect 10 1 26 1;
#X connect 11 0 10 0;
#X connect 12 0 37 0;
#X connect 12 0 69 0;
#X connect 15 0 9 0;
#X connect 19 0 25 0;
#X connect 20 0 25 0;
#X connect 20 1 25 1;
#X connect 21 0 20 0;
#X connect 22 0 37 0;
#X connect 22 0 69 0;
#X connect 25 0 22 0;
#X connect 26 0 12 0;
#X connect 27 0 37 0;
#X connect 27 0 69 0;
#X connect 28 0 32 0;
#X connect 29 0 30 0;
#X connect 30 0 32 0;
#X connect 30 1 32 2;
#X connect 31 0 37 0;
#X connect 31 0 69 0;
#X connect 32 0 31 0;
#X connect 34 0 74 0;
#X connect 34 0 76 0;
#X connect 36 0 37 1;
#X connect 38 0 5 0;
#X connect 39 0 0 0;
#X connect 40 0 4 0;
#X connect 44 0 11 0;
#X connect 45 0 15 0;
#X connect 46 0 19 0;
#X connect 54 0 21 0;
#X connect 56 0 27 0;
#X connect 57 0 27 0;
#X connect 58 0 60 0;
#X connect 60 0 57 0;
#X connect 62 0 28 0;
#X connect 64 0 29 0;
#X connect 70 0 36 0;
#X connect 71 0 72 0;
#X connect 71 0 73 0;
#X connect 72 0 70 1;
#X connect 73 0 77 1;
#X connect 74 0 75 0;
#X connect 75 0 70 0;
#X connect 76 0 77 0;
#X connect 77 0 36 0;
#X connect 78 0 71 0;
#X restore 6 354 pd label-properties;
#X f 45;
#X floatatom 273 219 5 0 29 0 BG-Clr - -;
#X floatatom 180 174 5 0 0 0 Vis-Sz-W - -;
#X floatatom 181 198 5 0 0 0 Vis-Sz-H - -;
#X floatatom 271 150 5 0 0 0 Lbl-X - -;
#X floatatom 272 174 5 0 0 0 Lbl-Y - -;
#X floatatom 180 150 5 0 0 0 Size - -;
#X symbolatom 214 127 10 0 0 0 CnvReceiveSymbol - -;
#X floatatom 181 219 5 0 2 0 Lbl-Fon - -;
#X symbolatom 274 195 10 0 0 0 Lbl-Txt - -;
#X obj 295 128 tgl 15 0 empty empty Append_0 20 7 0 10 -262144 -260097
-1 1 1;
#X text 194 103 Label Properties;
#X obj 28 18 inlet;
#X obj 414 223 cnv 15 500 30 empty \$0-myCanvas This\\\ is\\\ my\\\ label?
9 13 0 18 -233017 -99865 0;
#X obj 28 54 route doll rec size visw vish lblfon lblsz lblx lbly bgclr
lblclr, f 66;
#X obj 56 93 symbol;
#X text 6 4 _;
#X text 479 173 dollarsign0-myCanvas;
#X msg 74 18 doll 1 \, rec myCanvas \, size 15 \, visw 50 \, vish 60
\, lblfon 0 \, lblsz 18 \, lblx 9 \, lbly 13 \, bgclr 10 \, lblclr
21, f 106;
#N canvas 240 66 752 410 \$0-how-to-set-values-externally 0;
#X text 112 49 doll [0/1] - toggle on appending "\$0-" at the start
of the recieve symbol, f 85;
#X text 112 102 visw [float] - the visible width of the canvas in pixels
, f 85;
#X text 112 85 size [float] - the size of the clickable/dragable portion
of the canvas in pixels, f 85;
#X text 112 122 vish [float] - the visible height of the canvas in
pixels, f 85;
#X text 111 141 lblfon [0/1/2] - font designation for the canvas' label
\, with [0] for Menlo \, [1] for, f 89;
#X text 131 155 Helvetica \, [2] for Times. Note that these fonts may
be different on Windows or Linux, f 84;
#X text 111 173 lblsz [float] - font size designation for the canvas'
label, f 85;
#X text 111 213 lbly [float] - y offset in pixels from the top left
corner of the canvas, f 85;
#X text 111 193 lblx [float] - x offset (horizontal) in pixels from
the top left corner of the canvas, f 85;
#X text 4 29 To set the values for your canvas object externally \,
send messages with the following signifiers to the 0 (leftmost) inlet:
, f 124;
#X msg 31 336 doll 1 \, rec myCanvas \, size 15 \, visw 500 \, vish
30 \, lblfon 0 \, lblsz 18 \, lblx 9 \, lbly 13 \, bgclr 10 \, lblclr
21, f 106;
#X text 111 67 rec [symbol] - receive symbol for the canvas, f 85
;
#X obj 90 241 cnv 5 5 5 empty \$0-canvas-format-helper-boldstatement1
Please\ note\ that\ the\ $-0\ designation\ (1\ or\ 0)\ MUST\ be\ sent\ first\,\ followed\ by\ the\ canvas\ 
1 9 0 12 -262144 -258113 0;
#N canvas 2423 143 808 250 init 0;
#X msg 30 102 label \$1;
#X msg 419 120 label \$1;
#X obj 29 147 s \$0-canvas-format-helper-boldstatement1;
#X obj 418 164 s \$0-canvas-format-helper-boldstatement2;
#X obj 233 15 loadbang;
#X msg 420 51 symbol receive\ symbol!\ Failure\ to\ do\ so\ will\ cause\ incorrect\ parameter\ dispatching!
;
#X msg 26 43 symbol Please\\\ note\\\ that\\\ the\\\ $-0\\\ designation\\\ (1\\\ or\\\ 0)\\\ MUST\\\ be\\\ sent\\\ first\\\,\\\ followed\\\ by\\\ the\\\ canvas\\\ 
;
#X connect 0 0 2 0;
#X connect 1 0 3 0;
#X connect 4 0 5 0;
#X connect 4 0 6 0;
#X connect 5 0 1 0;
#X connect 6 0 0 0;
#X restore 659 9 pd init;
#X obj 90 257 cnv 5 5 5 empty \$0-canvas-format-helper-boldstatement2
receive\ symbol!\ Failure\ to\ do\ so\ will\ cause\ incorrect\ parameter\ dispatching!
1 9 0 12 -262144 -258113 0;
#X msg 112 362 symbol this\ is\ my\ label!;
#X text 296 357 The label parameter must be sent separately to Inlet
1 (rightmost inlet). The message must be prepended with the "symbol"
identifier \, and the escape character () needs to be set in the message:
, f 68;
#X text 102 286 All parameters EXCEPT label can be sent in a single
message to Inlet 0 (leftmost inlet) like below (and this can be copied
and pasted for easy initializing formatting)., f 89;
#X restore 326 378 pd \$0-how-to-set-values-externally;
#X msg 326 336 vis 1;
#X obj 326 357 s pd-\$0-how-to-set-values-externally;
#X obj 120 263 bng 15 250 50 0 empty empty empty 17 7 0 10 -262144
-1 -1;
#X text 141 263 How to set canvas values externally;
#X text 891 18 All left-inlet messages;
#X text 984 47 Label text;
#X msg 636 48 symbol This\ is\ my\ label?;
#X obj 587 47 inlet;
#X obj 632 184 cnv 5 5 5 empty empty ↴ -3 3 0 24 -262144 -99865 0
;
#X connect 0 0 2 6;
#X connect 1 0 2 11;
#X connect 3 0 2 10;
#X connect 4 0 2 3;
#X connect 5 0 2 4;
#X connect 6 0 2 7;
#X connect 7 0 2 8;
#X connect 8 0 2 2;
#X connect 9 0 2 0;
#X connect 10 0 2 5;
#X connect 11 0 2 9;
#X connect 12 0 2 1;
#X connect 14 0 16 0;
#X connect 16 0 12 0;
#X connect 16 1 17 0;
#X connect 16 2 8 0;
#X connect 16 3 4 0;
#X connect 16 4 5 0;
#X connect 16 5 10 0;
#X connect 16 6 0 0;
#X connect 16 7 6 0;
#X connect 16 8 7 0;
#X connect 16 9 3 0;
#X connect 16 10 1 0;
#X connect 17 0 9 0;
#X connect 20 0 16 0;
#X connect 22 0 23 0;
#X connect 24 0 22 0;
#X connect 28 0 11 0;
#X connect 29 0 11 0;
#X coords 0 -1 1 1 300 190 2 100 100;
#X restore 25 27 pd graph;
#X obj 25 1 inlet;
#X connect 0 0 1 1;
#X connect 2 0 1 0;
#X restore 343 725 pd canvas-ctrl;
#N canvas 673 23 349 258 canvas-ctrl 0;
#X obj 291 1 inlet;
#N canvas 248 270 1089 459 graph 0;
#X floatatom 180 241 5 0 0 0 Lbl-Sz - -;
#X floatatom 273 241 5 0 29 0 Lbl-Clr - -;
#N canvas 32 23 1408 389 label-properties 0;
#X floatatom 314 72 3 18 100 0 - - -;
#X msg 314 99 size \$1;
#X obj 400 121 pack 100 60, f 18;
#X obj 491 93 t b f;
#X floatatom 491 68 4 18 100 0 - - -;
#X floatatom 400 68 4 18 100 0 - - -;
#X msg 400 148 vis_size \$1 \$2;
#X text 442 41 w/x;
#X text 532 41 h/y;
#X floatatom 589 116 4 0 3 0 - - -;
#X obj 721 135 t b f;
#X floatatom 721 116 5 5 50 0 - - -;
#X msg 589 185 label_font \$1 \$2;
#X text 632 41 type;
#X text 760 40 size;
#X obj 589 64 vradio 15 1 0 3 empty empty empty 0 -8 0 10 -262144 -1
-1 0;
#X text 605 63 DejaVu Sans Mono;
#X text 605 78 Helvetica;
#X text 606 93 Times;
#X floatatom 817 71 4 -100 250 0 - - -;
#X obj 889 98 t b f;
#X floatatom 889 71 5 -150 150 0 - - -;
#X msg 817 148 label_pos \$1 \$2;
#X text 856 41 x;
#X text 929 41 y;
#X obj 817 126 pack 17 20, f 17;
#X obj 589 164 pack 0 25, f 24;
#X msg 973 129 label \$1;
#X floatatom 1191 70 3 0 29 1 bgColor - -;
#X floatatom 1295 70 3 0 29 1 lblColor - -;
#X obj 1295 92 t b f;
#X msg 1191 145 color \$1 \$2 \$3;
#X obj 1191 124 pack 1 22 22, f 14;
#X text 1170 18 Color Presets (0-29):;
#X obj 24 42 inlet;
#X obj 8 42 cnv 14 14 14 empty empty 0 4 8 0 12 -99865 -228856 0;
#X symbolatom 24 210 10 0 0 0 - - -;
#X obj 588 330 send, f 13;
#X obj 400 42 inlet;
#X obj 314 42 inlet;
#X obj 491 42 inlet;
#X obj 155 42 cnv 14 14 14 empty empty 1 4 8 0 12 -99865 -228856 0
;
#X obj 297 42 cnv 14 14 14 empty empty 2 4 8 0 12 -99865 -228856 0
;
#X obj 384 42 cnv 14 14 14 empty empty 3 4 8 0 12 -99865 -228856 0
;
#X obj 721 42 inlet;
#X obj 589 42 inlet;
#X obj 817 42 inlet;
#X obj 476 42 cnv 14 14 14 empty empty 4 4 8 0 12 -99865 -228856 0
;
#X obj 573 42 cnv 14 14 14 empty empty 5 4 8 0 12 -99865 -228856 0
;
#X obj 703 42 cnv 14 14 14 empty empty 6 4 8 0 12 -99865 -228856 0
;
#X text 315 18 Size;
#X text 421 18 Visible Size;
#X text 635 18 Label Font;
#X text 824 18 Label Offset;
#X obj 889 42 inlet;
#X obj 800 42 cnv 14 14 14 empty empty 7 4 8 0 12 -99865 -228856 0
;
#X msg 1052 89 symbol my\ label;
#X symbolatom 973 92 10 0 0 0 - - -;
#X obj 973 42 inlet;
#X obj 872 42 cnv 14 14 14 empty empty 8 4 8 0 12 -99865 -228856 0
;
#X msg 973 70 symbol \$1;
#X text 1007 18 Label Text;
#X obj 1191 42 inlet;
#X obj 958 42 cnv 14 14 14 empty empty 9 4 8 0 12 -99865 -228856 0
;
#X obj 1295 42 inlet;
#X obj 1174 42 cnv 14 14 14 empty empty 10 0 8 0 12 -99865 -228856
0;
#X text 0 18 Canvas Name;
#X obj 284 2 cnv 5 1 260 empty empty empty 20 12 0 14 -128992 -66577
0;
#X obj 738 322 cnv 2 1000 40 empty \$0-test_canvas tdh.util.ad~\ &\ tdh.util.ad.ui~
20 15 0 16 -166441 -33289 0;
#X obj 415 328 s \$0-test_canvas;
#X obj 210 187 spigot;
#X obj 170 88 tgl 15 0 empty empty empty 17 7 0 10 -262144 -1 -1 1
1;
#X obj 249 134 == 1;
#X obj 101 135 == 0;
#X obj 144 134 list append \$0;
#X msg 144 157 symbol \$2-\$1;
#X msg 24 136 symbol \$1;
#X obj 24 167 spigot;
#X obj 170 42 inlet;
#X obj 1279 42 cnv 14 14 14 empty empty 11 0 8 0 12 -99865 -228856
0;
#X text 136 18 Add "\$0" option;
#X obj 374 2 cnv 5 1 260 empty empty empty 20 12 0 14 -128992 -66577
0;
#X obj 561 2 cnv 5 1 260 empty empty empty 20 12 0 14 -128992 -66577
0;
#X obj 791 2 cnv 5 1 260 empty empty empty 20 12 0 14 -128992 -66577
0;
#X obj 944 2 cnv 5 1 260 empty empty empty 20 12 0 14 -128992 -66577
0;
#X obj 1164 2 cnv 5 1 260 empty empty empty 20 12 0 14 -128992 -66577
0;
#X connect 0 0 1 0;
#X connect 1 0 37 0;
#X connect 1 0 69 0;
#X connect 2 0 6 0;
#X connect 3 0 2 0;
#X connect 3 1 2 1;
#X connect 4 0 3 0;
#X connect 5 0 2 0;
#X connect 6 0 37 0;
#X connect 6 0 69 0;
#X connect 9 0 26 0;
#X connect 10 0 26 0;
#X connect 10 1 26 1;
#X connect 11 0 10 0;
#X connect 12 0 37 0;
#X connect 12 0 69 0;
#X connect 15 0 9 0;
#X connect 19 0 25 0;
#X connect 20 0 25 0;
#X connect 20 1 25 1;
#X connect 21 0 20 0;
#X connect 22 0 37 0;
#X connect 22 0 69 0;
#X connect 25 0 22 0;
#X connect 26 0 12 0;
#X connect 27 0 37 0;
#X connect 27 0 69 0;
#X connect 28 0 32 0;
#X connect 29 0 30 0;
#X connect 30 0 32 0;
#X connect 30 1 32 2;
#X connect 31 0 37 0;
#X connect 31 0 69 0;
#X connect 32 0 31 0;
#X connect 34 0 74 0;
#X connect 34 0 76 0;
#X connect 36 0 37 1;
#X connect 38 0 5 0;
#X connect 39 0 0 0;
#X connect 40 0 4 0;
#X connect 44 0 11 0;
#X connect 45 0 15 0;
#X connect 46 0 19 0;
#X connect 54 0 21 0;
#X connect 56 0 27 0;
#X connect 57 0 27 0;
#X connect 58 0 60 0;
#X connect 60 0 57 0;
#X connect 62 0 28 0;
#X connect 64 0 29 0;
#X connect 70 0 36 0;
#X connect 71 0 72 0;
#X connect 71 0 73 0;
#X connect 72 0 70 1;
#X connect 73 0 77 1;
#X connect 74 0 75 0;
#X connect 75 0 70 0;
#X connect 76 0 77 0;
#X connect 77 0 36 0;
#X connect 78 0 71 0;
#X restore 6 354 pd label-properties;
#X f 45;
#X floatatom 273 219 5 0 29 0 BG-Clr - -;
#X floatatom 180 174 5 0 0 0 Vis-Sz-W - -;
#X floatatom 181 198 5 0 0 0 Vis-Sz-H - -;
#X floatatom 271 150 5 0 0 0 Lbl-X - -;
#X floatatom 272 174 5 0 0 0 Lbl-Y - -;
#X floatatom 180 150 5 0 0 0 Size - -;
#X symbolatom 214 127 10 0 0 0 CnvReceiveSymbol - -;
#X floatatom 181 219 5 0 2 0 Lbl-Fon - -;
#X symbolatom 274 195 10 0 0 0 Lbl-Txt - -;
#X obj 295 128 tgl 15 0 empty empty Append_0 20 7 0 10 -262144 -260097
-1 1 1;
#X text 194 103 Label Properties;
#X obj 28 18 inlet;
#X obj 414 223 cnv 15 500 30 empty \$0-myCanvas This\\\ is\\\ my\\\ label?
9 13 0 18 -233017 -99865 0;
#X obj 28 54 route doll rec size visw vish lblfon lblsz lblx lbly bgclr
lblclr, f 66;
#X obj 56 93 symbol;
#X text 6 4 _;
#X text 479 173 dollarsign0-myCanvas;
#X msg 74 18 doll 1 \, rec myCanvas \, size 15 \, visw 50 \, vish 60
\, lblfon 0 \, lblsz 18 \, lblx 9 \, lbly 13 \, bgclr 10 \, lblclr
21, f 106;
#N canvas 240 66 752 410 \$0-how-to-set-values-externally 0;
#X text 112 49 doll [0/1] - toggle on appending "\$0-" at the start
of the recieve symbol, f 85;
#X text 112 102 visw [float] - the visible width of the canvas in pixels
, f 85;
#X text 112 85 size [float] - the size of the clickable/dragable portion
of the canvas in pixels, f 85;
#X text 112 122 vish [float] - the visible height of the canvas in
pixels, f 85;
#X text 111 141 lblfon [0/1/2] - font designation for the canvas' label
\, with [0] for Menlo \, [1] for, f 89;
#X text 131 155 Helvetica \, [2] for Times. Note that these fonts may
be different on Windows or Linux, f 84;
#X text 111 173 lblsz [float] - font size designation for the canvas'
label, f 85;
#X text 111 213 lbly [float] - y offset in pixels from the top left
corner of the canvas, f 85;
#X text 111 193 lblx [float] - x offset (horizontal) in pixels from
the top left corner of the canvas, f 85;
#X text 4 29 To set the values for your canvas object externally \,
send messages with the following signifiers to the 0 (leftmost) inlet:
, f 124;
#X msg 31 336 doll 1 \, rec myCanvas \, size 15 \, visw 500 \, vish
30 \, lblfon 0 \, lblsz 18 \, lblx 9 \, lbly 13 \, bgclr 10 \, lblclr
21, f 106;
#X text 111 67 rec [symbol] - receive symbol for the canvas, f 85
;
#X obj 90 241 cnv 5 5 5 empty \$0-canvas-format-helper-boldstatement1
Please\ note\ that\ the\ $-0\ designation\ (1\ or\ 0)\ MUST\ be\ sent\ first\,\ followed\ by\ the\ canvas\ 
1 9 0 12 -262144 -258113 0;
#N canvas 2423 143 808 250 init 0;
#X msg 30 102 label \$1;
#X msg 419 120 label \$1;
#X obj 29 147 s \$0-canvas-format-helper-boldstatement1;
#X obj 418 164 s \$0-canvas-format-helper-boldstatement2;
#X obj 233 15 loadbang;
#X msg 420 51 symbol receive\ symbol!\ Failure\ to\ do\ so\ will\ cause\ incorrect\ parameter\ dispatching!
;
#X msg 26 43 symbol Please\\\ note\\\ that\\\ the\\\ $-0\\\ designation\\\ (1\\\ or\\\ 0)\\\ MUST\\\ be\\\ sent\\\ first\\\,\\\ followed\\\ by\\\ the\\\ canvas\\\ 
;
#X connect 0 0 2 0;
#X connect 1 0 3 0;
#X connect 4 0 5 0;
#X connect 4 0 6 0;
#X connect 5 0 1 0;
#X connect 6 0 0 0;
#X restore 659 9 pd init;
#X obj 90 257 cnv 5 5 5 empty \$0-canvas-format-helper-boldstatement2
receive\ symbol!\ Failure\ to\ do\ so\ will\ cause\ incorrect\ parameter\ dispatching!
1 9 0 12 -262144 -258113 0;
#X msg 112 362 symbol this\ is\ my\ label!;
#X text 296 357 The label parameter must be sent separately to Inlet
1 (rightmost inlet). The message must be prepended with the "symbol"
identifier \, and the escape character () needs to be set in the message:
, f 68;
#X text 102 286 All parameters EXCEPT label can be sent in a single
message to Inlet 0 (leftmost inlet) like below (and this can be copied
and pasted for easy initializing formatting)., f 89;
#X restore 326 378 pd \$0-how-to-set-values-externally;
#X msg 326 336 vis 1;
#X obj 326 357 s pd-\$0-how-to-set-values-externally;
#X obj 120 263 bng 15 250 50 0 empty empty empty 17 7 0 10 -262144
-1 -1;
#X text 141 263 How to set canvas values externally;
#X text 891 18 All left-inlet messages;
#X text 984 47 Label text;
#X msg 636 48 symbol This\ is\ my\ label?;
#X obj 587 47 inlet;
#X obj 632 184 cnv 5 5 5 empty empty ↴ -3 3 0 24 -262144 -99865 0
;
#X connect 0 0 2 6;
#X connect 1 0 2 11;
#X connect 3 0 2 10;
#X connect 4 0 2 3;
#X connect 5 0 2 4;
#X connect 6 0 2 7;
#X connect 7 0 2 8;
#X connect 8 0 2 2;
#X connect 9 0 2 0;
#X connect 10 0 2 5;
#X connect 11 0 2 9;
#X connect 12 0 2 1;
#X connect 14 0 16 0;
#X connect 16 0 12 0;
#X connect 16 1 17 0;
#X connect 16 2 8 0;
#X connect 16 3 4 0;
#X connect 16 4 5 0;
#X connect 16 5 10 0;
#X connect 16 6 0 0;
#X connect 16 7 6 0;
#X connect 16 8 7 0;
#X connect 16 9 3 0;
#X connect 16 10 1 0;
#X connect 17 0 9 0;
#X connect 20 0 16 0;
#X connect 22 0 23 0;
#X connect 24 0 22 0;
#X connect 28 0 11 0;
#X connect 29 0 11 0;
#X coords 0 -1 1 1 300 190 2 100 100;
#X restore 25 27 pd graph;
#X obj 25 1 inlet;
#X connect 0 0 1 1;
#X connect 2 0 1 0;
#X restore 343 875 pd canvas-ctrl;
#N canvas 673 23 349 258 canvas-ctrl 0;
#X obj 291 1 inlet;
#N canvas 248 270 1089 459 graph 0;
#X floatatom 180 241 5 0 0 0 Lbl-Sz - -;
#X floatatom 273 241 5 0 29 0 Lbl-Clr - -;
#N canvas 32 23 1408 389 label-properties 0;
#X floatatom 314 72 3 18 100 0 - - -;
#X msg 314 99 size \$1;
#X obj 400 121 pack 100 60, f 18;
#X obj 491 93 t b f;
#X floatatom 491 68 4 18 100 0 - - -;
#X floatatom 400 68 4 18 100 0 - - -;
#X msg 400 148 vis_size \$1 \$2;
#X text 442 41 w/x;
#X text 532 41 h/y;
#X floatatom 589 116 4 0 3 0 - - -;
#X obj 721 135 t b f;
#X floatatom 721 116 5 5 50 0 - - -;
#X msg 589 185 label_font \$1 \$2;
#X text 632 41 type;
#X text 760 40 size;
#X obj 589 64 vradio 15 1 0 3 empty empty empty 0 -8 0 10 -262144 -1
-1 0;
#X text 605 63 DejaVu Sans Mono;
#X text 605 78 Helvetica;
#X text 606 93 Times;
#X floatatom 817 71 4 -100 250 0 - - -;
#X obj 889 98 t b f;
#X floatatom 889 71 5 -150 150 0 - - -;
#X msg 817 148 label_pos \$1 \$2;
#X text 856 41 x;
#X text 929 41 y;
#X obj 817 126 pack 17 20, f 17;
#X obj 589 164 pack 0 25, f 24;
#X msg 973 129 label \$1;
#X floatatom 1191 70 3 0 29 1 bgColor - -;
#X floatatom 1295 70 3 0 29 1 lblColor - -;
#X obj 1295 92 t b f;
#X msg 1191 145 color \$1 \$2 \$3;
#X obj 1191 124 pack 1 22 22, f 14;
#X text 1170 18 Color Presets (0-29):;
#X obj 24 42 inlet;
#X obj 8 42 cnv 14 14 14 empty empty 0 4 8 0 12 -99865 -228856 0;
#X symbolatom 24 210 10 0 0 0 - - -;
#X obj 588 330 send, f 13;
#X obj 400 42 inlet;
#X obj 314 42 inlet;
#X obj 491 42 inlet;
#X obj 155 42 cnv 14 14 14 empty empty 1 4 8 0 12 -99865 -228856 0
;
#X obj 297 42 cnv 14 14 14 empty empty 2 4 8 0 12 -99865 -228856 0
;
#X obj 384 42 cnv 14 14 14 empty empty 3 4 8 0 12 -99865 -228856 0
;
#X obj 721 42 inlet;
#X obj 589 42 inlet;
#X obj 817 42 inlet;
#X obj 476 42 cnv 14 14 14 empty empty 4 4 8 0 12 -99865 -228856 0
;
#X obj 573 42 cnv 14 14 14 empty empty 5 4 8 0 12 -99865 -228856 0
;
#X obj 703 42 cnv 14 14 14 empty empty 6 4 8 0 12 -99865 -228856 0
;
#X text 315 18 Size;
#X text 421 18 Visible Size;
#X text 635 18 Label Font;
#X text 824 18 Label Offset;
#X obj 889 42 inlet;
#X obj 800 42 cnv 14 14 14 empty empty 7 4 8 0 12 -99865 -228856 0
;
#X msg 1052 89 symbol my\ label;
#X symbolatom 973 92 10 0 0 0 - - -;
#X obj 973 42 inlet;
#X obj 872 42 cnv 14 14 14 empty empty 8 4 8 0 12 -99865 -228856 0
;
#X msg 973 70 symbol \$1;
#X text 1007 18 Label Text;
#X obj 1191 42 inlet;
#X obj 958 42 cnv 14 14 14 empty empty 9 4 8 0 12 -99865 -228856 0
;
#X obj 1295 42 inlet;
#X obj 1174 42 cnv 14 14 14 empty empty 10 0 8 0 12 -99865 -228856
0;
#X text 0 18 Canvas Name;
#X obj 284 2 cnv 5 1 260 empty empty empty 20 12 0 14 -128992 -66577
0;
#X obj 738 322 cnv 2 1000 40 empty \$0-test_canvas tdh.util.ad~\ &\ tdh.util.ad.ui~
20 15 0 16 -166441 -33289 0;
#X obj 415 328 s \$0-test_canvas;
#X obj 210 187 spigot;
#X obj 170 88 tgl 15 0 empty empty empty 17 7 0 10 -262144 -1 -1 1
1;
#X obj 249 134 == 1;
#X obj 101 135 == 0;
#X obj 144 134 list append \$0;
#X msg 144 157 symbol \$2-\$1;
#X msg 24 136 symbol \$1;
#X obj 24 167 spigot;
#X obj 170 42 inlet;
#X obj 1279 42 cnv 14 14 14 empty empty 11 0 8 0 12 -99865 -228856
0;
#X text 136 18 Add "\$0" option;
#X obj 374 2 cnv 5 1 260 empty empty empty 20 12 0 14 -128992 -66577
0;
#X obj 561 2 cnv 5 1 260 empty empty empty 20 12 0 14 -128992 -66577
0;
#X obj 791 2 cnv 5 1 260 empty empty empty 20 12 0 14 -128992 -66577
0;
#X obj 944 2 cnv 5 1 260 empty empty empty 20 12 0 14 -128992 -66577
0;
#X obj 1164 2 cnv 5 1 260 empty empty empty 20 12 0 14 -128992 -66577
0;
#X connect 0 0 1 0;
#X connect 1 0 37 0;
#X connect 1 0 69 0;
#X connect 2 0 6 0;
#X connect 3 0 2 0;
#X connect 3 1 2 1;
#X connect 4 0 3 0;
#X connect 5 0 2 0;
#X connect 6 0 37 0;
#X connect 6 0 69 0;
#X connect 9 0 26 0;
#X connect 10 0 26 0;
#X connect 10 1 26 1;
#X connect 11 0 10 0;
#X connect 12 0 37 0;
#X connect 12 0 69 0;
#X connect 15 0 9 0;
#X connect 19 0 25 0;
#X connect 20 0 25 0;
#X connect 20 1 25 1;
#X connect 21 0 20 0;
#X connect 22 0 37 0;
#X connect 22 0 69 0;
#X connect 25 0 22 0;
#X connect 26 0 12 0;
#X connect 27 0 37 0;
#X connect 27 0 69 0;
#X connect 28 0 32 0;
#X connect 29 0 30 0;
#X connect 30 0 32 0;
#X connect 30 1 32 2;
#X connect 31 0 37 0;
#X connect 31 0 69 0;
#X connect 32 0 31 0;
#X connect 34 0 74 0;
#X connect 34 0 76 0;
#X connect 36 0 37 1;
#X connect 38 0 5 0;
#X connect 39 0 0 0;
#X connect 40 0 4 0;
#X connect 44 0 11 0;
#X connect 45 0 15 0;
#X connect 46 0 19 0;
#X connect 54 0 21 0;
#X connect 56 0 27 0;
#X connect 57 0 27 0;
#X connect 58 0 60 0;
#X connect 60 0 57 0;
#X connect 62 0 28 0;
#X connect 64 0 29 0;
#X connect 70 0 36 0;
#X connect 71 0 72 0;
#X connect 71 0 73 0;
#X connect 72 0 70 1;
#X connect 73 0 77 1;
#X connect 74 0 75 0;
#X connect 75 0 70 0;
#X connect 76 0 77 0;
#X connect 77 0 36 0;
#X connect 78 0 71 0;
#X restore 6 354 pd label-properties;
#X f 45;
#X floatatom 273 219 5 0 29 0 BG-Clr - -;
#X floatatom 180 174 5 0 0 0 Vis-Sz-W - -;
#X floatatom 181 198 5 0 0 0 Vis-Sz-H - -;
#X floatatom 271 150 5 0 0 0 Lbl-X - -;
#X floatatom 272 174 5 0 0 0 Lbl-Y - -;
#X floatatom 180 150 5 0 0 0 Size - -;
#X symbolatom 214 127 10 0 0 0 CnvReceiveSymbol - -;
#X floatatom 181 219 5 0 2 0 Lbl-Fon - -;
#X symbolatom 274 195 10 0 0 0 Lbl-Txt - -;
#X obj 295 128 tgl 15 0 empty empty Append_0 20 7 0 10 -262144 -260097
-1 1 1;
#X text 194 103 Label Properties;
#X obj 28 18 inlet;
#X obj 414 223 cnv 15 500 30 empty \$0-myCanvas This\\\ is\\\ my\\\ label?
9 13 0 18 -233017 -99865 0;
#X obj 28 54 route doll rec size visw vish lblfon lblsz lblx lbly bgclr
lblclr, f 66;
#X obj 56 93 symbol;
#X text 6 4 _;
#X text 479 173 dollarsign0-myCanvas;
#X msg 74 18 doll 1 \, rec myCanvas \, size 15 \, visw 50 \, vish 60
\, lblfon 0 \, lblsz 18 \, lblx 9 \, lbly 13 \, bgclr 10 \, lblclr
21, f 106;
#N canvas 240 66 752 410 \$0-how-to-set-values-externally 0;
#X text 112 49 doll [0/1] - toggle on appending "\$0-" at the start
of the recieve symbol, f 85;
#X text 112 102 visw [float] - the visible width of the canvas in pixels
, f 85;
#X text 112 85 size [float] - the size of the clickable/dragable portion
of the canvas in pixels, f 85;
#X text 112 122 vish [float] - the visible height of the canvas in
pixels, f 85;
#X text 111 141 lblfon [0/1/2] - font designation for the canvas' label
\, with [0] for Menlo \, [1] for, f 89;
#X text 131 155 Helvetica \, [2] for Times. Note that these fonts may
be different on Windows or Linux, f 84;
#X text 111 173 lblsz [float] - font size designation for the canvas'
label, f 85;
#X text 111 213 lbly [float] - y offset in pixels from the top left
corner of the canvas, f 85;
#X text 111 193 lblx [float] - x offset (horizontal) in pixels from
the top left corner of the canvas, f 85;
#X text 4 29 To set the values for your canvas object externally \,
send messages with the following signifiers to the 0 (leftmost) inlet:
, f 124;
#X msg 31 336 doll 1 \, rec myCanvas \, size 15 \, visw 500 \, vish
30 \, lblfon 0 \, lblsz 18 \, lblx 9 \, lbly 13 \, bgclr 10 \, lblclr
21, f 106;
#X text 111 67 rec [symbol] - receive symbol for the canvas, f 85
;
#X obj 90 241 cnv 5 5 5 empty \$0-canvas-format-helper-boldstatement1
Please\ note\ that\ the\ $-0\ designation\ (1\ or\ 0)\ MUST\ be\ sent\ first\,\ followed\ by\ the\ canvas\ 
1 9 0 12 -262144 -258113 0;
#N canvas 2423 143 808 250 init 0;
#X msg 30 102 label \$1;
#X msg 419 120 label \$1;
#X obj 29 147 s \$0-canvas-format-helper-boldstatement1;
#X obj 418 164 s \$0-canvas-format-helper-boldstatement2;
#X obj 233 15 loadbang;
#X msg 420 51 symbol receive\ symbol!\ Failure\ to\ do\ so\ will\ cause\ incorrect\ parameter\ dispatching!
;
#X msg 26 43 symbol Please\\\ note\\\ that\\\ the\\\ $-0\\\ designation\\\ (1\\\ or\\\ 0)\\\ MUST\\\ be\\\ sent\\\ first\\\,\\\ followed\\\ by\\\ the\\\ canvas\\\ 
;
#X connect 0 0 2 0;
#X connect 1 0 3 0;
#X connect 4 0 5 0;
#X connect 4 0 6 0;
#X connect 5 0 1 0;
#X connect 6 0 0 0;
#X restore 659 9 pd init;
#X obj 90 257 cnv 5 5 5 empty \$0-canvas-format-helper-boldstatement2
receive\ symbol!\ Failure\ to\ do\ so\ will\ cause\ incorrect\ parameter\ dispatching!
1 9 0 12 -262144 -258113 0;
#X msg 112 362 symbol this\ is\ my\ label!;
#X text 296 357 The label parameter must be sent separately to Inlet
1 (rightmost inlet). The message must be prepended with the "symbol"
identifier \, and the escape character () needs to be set in the message:
, f 68;
#X text 102 286 All parameters EXCEPT label can be sent in a single
message to Inlet 0 (leftmost inlet) like below (and this can be copied
and pasted for easy initializing formatting)., f 89;
#X restore 326 378 pd \$0-how-to-set-values-externally;
#X msg 326 336 vis 1;
#X obj 326 357 s pd-\$0-how-to-set-values-externally;
#X obj 120 263 bng 15 250 50 0 empty empty empty 17 7 0 10 -262144
-1 -1;
#X text 141 263 How to set canvas values externally;
#X text 891 18 All left-inlet messages;
#X text 984 47 Label text;
#X msg 636 48 symbol This\ is\ my\ label?;
#X obj 587 47 inlet;
#X obj 632 184 cnv 5 5 5 empty empty ↴ -3 3 0 24 -262144 -99865 0
;
#X connect 0 0 2 6;
#X connect 1 0 2 11;
#X connect 3 0 2 10;
#X connect 4 0 2 3;
#X connect 5 0 2 4;
#X connect 6 0 2 7;
#X connect 7 0 2 8;
#X connect 8 0 2 2;
#X connect 9 0 2 0;
#X connect 10 0 2 5;
#X connect 11 0 2 9;
#X connect 12 0 2 1;
#X connect 14 0 16 0;
#X connect 16 0 12 0;
#X connect 16 1 17 0;
#X connect 16 2 8 0;
#X connect 16 3 4 0;
#X connect 16 4 5 0;
#X connect 16 5 10 0;
#X connect 16 6 0 0;
#X connect 16 7 6 0;
#X connect 16 8 7 0;
#X connect 16 9 3 0;
#X connect 16 10 1 0;
#X connect 17 0 9 0;
#X connect 20 0 16 0;
#X connect 22 0 23 0;
#X connect 24 0 22 0;
#X connect 28 0 11 0;
#X connect 29 0 11 0;
#X coords 0 -1 1 1 300 190 2 100 100;
#X restore 25 27 pd graph;
#X obj 25 1 inlet;
#X connect 0 0 1 1;
#X connect 2 0 1 0;
#X restore 343 1005 pd canvas-ctrl;
#X text 136 971 \$0-helpPatchSecLabelNotes;
#X obj 438 201 inlet;
#X obj 692 181 inlet;
#X text 735 180 Width;
#X obj 692 206 f 501;
#X msg 692 229 visw \$1;
#X text 481 199 Abstraction Name;
#X text 459 354 <-- Open to actively control canvas values \, or to
see how to set values externally (as is done here), f 103;
#X obj 438 226 symbol;
#X obj 3 25 cnv 5 5 5 empty empty | 0 0 0 14 -262144 -66577 0;
#X text 51 16 This is where the canvases get set. A VERY long list
of values get sent to the subpatch [pd canvas-ctrl]. These properties
can be addessed singularly through a key symbol (such as "size") and
then a value., f 187;
#X text 51 57 [pd canvas-ctrl] also has a GUI which you can access
by clicking on the object box. This is a good way to figure out canvas
values., f 132;
#X text 51 114 Note that the canvas LABEL cannot be set with this list
\, and must be set via the right inlet., f 95;
#X text 51 85 You can also click on the object box [pd how-to-use-canvas-ctrl]
to see how to set canvas values with a message (currently the only
way to save canvas values), f 160;
#X obj 343 289 loadbang;
#X obj 343 419 loadbang;
#X obj 692 254 s \$0-width;
#X obj 448 379 r \$0-width;
#X obj 450 475 r \$0-width;
#X obj 451 595 r \$0-width;
#X obj 343 527 loadbang;
#X obj 452 725 r \$0-width;
#X obj 343 649 loadbang;
#X obj 453 875 r \$0-width;
#X obj 343 797 loadbang;
#X obj 452 1005 r \$0-width;
#X obj 343 932 loadbang;
#X obj 3 995 cnv 5 5 5 empty empty | 0 0 0 14 -262144 -66577 0;
#X obj 89 279 cnv 15 1200 1 empty empty Title 0 -15 0 18 -99865 -66577
0;
#X text 140 313 Canvas receive name:;
#X obj 88 408 cnv 15 1200 1 empty empty Section-Divider 0 -15 0 18
-99865 -66577 0;
#X obj 88 528 cnv 15 1200 1 empty empty Inlets 0 -15 0 18 -99865 -66577
0;
#X text 127 550 \$0-helpPatchSecLabelInlets;
#X obj 88 638 cnv 15 1200 1 empty empty Outlets 0 -15 0 18 -99865 -66577
0;
#X obj 88 778 cnv 15 1200 1 empty empty Arguments 0 -15 0 18 -99865
-66577 0;
#X obj 88 922 cnv 15 1200 1 empty empty Notes 0 -15 0 18 -99865 -66577
0;
#X obj 52 149 cnv 15 180 18 empty empty empty 20 12 0 14 -203904 -66577
0;
#N canvas 1440 152 910 549 how-to-use-canvas-ctrl 0;
#X text 112 139 doll [0/1] - toggle on appending "\$0-" at the start
of the recieve symbol, f 85;
#X text 112 192 visw [float] - the visible width of the canvas in pixels
, f 85;
#X text 112 175 size [float] - the size of the clickable/dragable portion
of the canvas in pixels, f 85;
#X text 112 212 vish [float] - the visible height of the canvas in
pixels, f 85;
#X text 111 231 lblfon [0/1/2] - font designation for the canvas' label
\, with [0] for Menlo \, [1] for, f 89;
#X text 131 245 Helvetica \, [2] for Times. Note that these fonts may
be different on Windows or Linux, f 84;
#X text 111 263 lblsz [float] - font size designation for the canvas'
label, f 85;
#X text 111 303 lbly [float] - y offset in pixels from the top left
corner of the canvas, f 85;
#X text 111 283 lblx [float] - x offset (horizontal) in pixels from
the top left corner of the canvas, f 85;
#X text 4 119 To set the values for your canvas object externally \,
send messages with the following signifiers to the 0 (leftmost) inlet:
, f 124;
#X msg 31 426 doll 1 \, rec myCanvas \, size 15 \, visw 500 \, vish
30 \, lblfon 0 \, lblsz 18 \, lblx 9 \, lbly 13 \, bgclr 10 \, lblclr
21, f 106;
#X text 111 157 rec [symbol] - receive symbol for the canvas, f 85
;
#X obj 90 331 cnv 5 5 5 empty \$0-canvas-format-helper-boldstatement1
Please\ note\ that\ the\ $-0\ designation\ (1\ or\ 0)\ MUST\ be\ sent\ first\,\ followed\ by\ the\ canvas\ 
1 9 0 12 -262144 -258113 0;
#N canvas 632 143 808 250 init 0;
#X msg 126 74 label \$1;
#X msg 489 71 label \$1;
#X obj 126 97 s \$0-canvas-format-helper-boldstatement1;
#X obj 489 94 s \$0-canvas-format-helper-boldstatement2;
#X obj 26 17 loadbang;
#X msg 489 41 symbol receive\ symbol!\ Failure\ to\ do\ so\ will\ cause\ incorrect\ parameter\ dispatching!
;
#X msg 126 43 symbol Please\\\ note\\\ that\\\ the\\\ $-0\\\ designation\\\ (1\\\ or\\\ 0)\\\ MUST\\\ be\\\ sent\\\ first\\\,\\\ followed\\\ by\\\ the\\\ canvas\\\ 
;
#X obj 98 203 s \$0-canvas-format-helper-title;
#X msg 54 180 label \$1;
#X msg 54 148 symbol Using\ [pd\ canvas-ctrl]\ and\ setting\ values\ externally
;
#X connect 0 0 2 0;
#X connect 1 0 3 0;
#X connect 4 0 5 0;
#X connect 4 0 6 0;
#X connect 5 0 1 0;
#X connect 6 0 0 0;
#X connect 8 0 7 0;
#X connect 9 0 8 0;
#X restore 704 13 pd init;
#X obj 90 347 cnv 5 5 5 empty \$0-canvas-format-helper-boldstatement2
receive\ symbol!\ Failure\ to\ do\ so\ will\ cause\ incorrect\ parameter\ dispatching!
1 9 0 12 -262144 -258113 0;
#X msg 112 452 symbol this\ is\ my\ label!;
#X text 296 447 The label parameter must be sent separately to Inlet
1 (rightmost inlet). The message must be prepended with the "symbol"
identifier \, and the escape character () needs to be set in the message:
, f 68;
#X text 102 376 All parameters EXCEPT label can be sent in a single
message to Inlet 0 (leftmost inlet) like below (and this can be copied
and pasted for easy initializing formatting)., f 89;
#X obj 148 18 cnv 5 5 5 empty \$0-canvas-format-helper-title Using\\\ [pd\\\ canvas-ctrl]\\\ and\\\ setting\\\ values\\\ externally
1 9 0 12 -262144 -258113 0;
#X text 6 43 By inserting a canvas into your patch \, giving it a RECEIVE
NAME (via properties) \, inserting the [canvas-ctrl] object into your
patch \, and finally telling [canvas-ctrl] the receive name via the
message [rec "receive name"( to the left inlet (type the text between
"[(" into a message box \, no quotes \, substituting "receive name"
for your name. *IF* your receive name has "\$0-" as a prefix (common
practice for [send] and [receive] names) \, you need to FIRST send
[canvas-ctrl] the message [doll 1( which tells the object that the
canbas name has "\$0-" at the start of its receive name., f 123;
#X restore 52 150 pd how-to-use-canvas-ctrl;
#X text 268 150 Click here to explore how to change the canvas properties
with a message, f 72;
#X obj 244 155 cnv 5 5 5 empty empty ⟵ -3 3 0 30 -262144 -159808
0;
#X connect 2 0 0 0;
#X connect 3 0 16 1;
#X connect 4 0 16 0;
#X connect 5 0 15 0;
#X connect 6 0 17 0;
#X connect 7 0 17 1;
#X connect 9 0 18 1;
#X connect 10 0 18 0;
#X connect 12 0 19 0;
#X connect 13 0 19 1;
#X connect 21 0 28 0;
#X connect 22 0 24 0;
#X connect 24 0 25 0;
#X connect 25 0 36 0;
#X connect 28 0 0 1;
#X connect 34 0 2 0;
#X connect 35 0 5 0;
#X connect 37 0 0 0;
#X connect 38 0 15 0;
#X connect 39 0 16 0;
#X connect 40 0 4 0;
#X connect 40 0 3 0;
#X connect 41 0 17 0;
#X connect 42 0 6 0;
#X connect 42 0 7 0;
#X connect 43 0 18 0;
#X connect 44 0 10 0;
#X connect 44 0 9 0;
#X connect 45 0 19 0;
#X connect 46 0 12 0;
#X connect 46 0 13 0;
#X restore 191 233 pd cnv-set;
#X f 34;
#X obj 3 15 cnv 5 5 5 empty empty | 0 0 0 14 -262144 -66577 0;
#X obj 270 83 loadbang;
#X obj 270 109 del 10;
#X text 11 159 EDIT HERE text after "symbol" to change the abstraction's
DISPLAY NAME, f 20;
#X text 17 47 The two most commonly changed fields \, DISPLAY NAME
and WIDTH can be changed by editing the [message( boxes below. Text
in [message( objects get saved to the patch., f 84;
#X obj 167 181 cnv 5 5 5 empty empty ⟶ -3 3 0 30 -262144 -1 0;
#X obj 475 140 cnv 5 5 5 empty empty ⟵ -3 3 0 30 -262144 -1 0;
#X text 496 128 EDIT HERE to change patch WIDTH, f 12;
#X text 16 4 This subpatch (and nested subpatches) helps set the uniform
titles and graphics for ABSTRACTIONS., f 84;
#N canvas 1942 236 550 423 util.ad~-Init 0;
#X obj 97 87 s \$0-helpAtt-r;
#X obj 97 140 s \$0-helpDec-r;
#X obj 97 193 s \$0-helpSus-r;
#X obj 97 249 s \$0-helpDur-r;
#X msg 97 116 800;
#X msg 97 171 0.8;
#X obj 50 23 loadbang;
#X msg 98 226 1000;
#X msg 97 61 500;
#X connect 4 0 1 0;
#X connect 5 0 2 0;
#X connect 6 0 8 0;
#X connect 6 0 4 0;
#X connect 6 0 5 0;
#X connect 6 0 7 0;
#X connect 7 0 3 0;
#X connect 8 0 0 0;
#X restore 347 263 pd util.ad~-Init;
#X msg 426 134 1000;
#X msg 192 177 symbol tdh.util.ad~\ &\ tdh.util.ad.ui~;
#X obj 479 265 cnv 5 5 5 empty empty ⟵ -3 3 0 30 -262144 -1 0;
#X text 500 253 (parameter presets for demonostration), f 15;
#X connect 2 0 3 0;
#X connect 3 0 12 0;
#X connect 3 0 11 0;
#X connect 11 0 0 1;
#X connect 12 0 0 0;
#X restore 412 49 pd help-init;
#X obj 57 614 tdh.util.ad.UI~;
#X floatatom 105 514 5 0 0 1 Attack(ms) #0-helpAtt-r -;
#X floatatom 154 533 5 0 0 1 Decay(ms) #0-helpDec-r -;
#X floatatom 202 554 5 0 0 1 Sustain(linearAmp) #0-helpSus-r -;
#X floatatom 251 574 5 0 0 1 Duration(ms) #0-helpDur-r -;
#X obj 300 594 tgl 15 0 empty empty MIDI-CtrlFlag(float) 17 7 0 12
-262144 -1 -1 0 1;
#X obj 75 765 noise~;
#N canvas 1838 -134 1149 842 help-audio-out 0;
#X obj 32 30 inlet~;
#X obj 192 30 inlet~;
#X obj 255 152 tgl 15 0 \$0-outputDSP-s \$0-outputDSP-r DSP 17 7 0
10 -262144 -1 -1 1 1;
#X obj 260 174 hsl 64 15 0.01 1 1 0 empty empty Vol 68 7 0 10 -262144
-1 -1 5000 1;
#X obj 192 220 *~;
#X obj 254 120 cnv 2 90 2 empty \$0-audioOutLabel Audio_Output 1 9
0 12 -233017 -66577 0;
#X obj 298 152 tgl 15 0 \$0-helpAudioOutMute-s \$0-helpAudioOutMute-r
Mute 17 7 0 10 -262144 -1 -1 0 1;
#X obj 32 226 *~;
#X obj 32 300 dac~ 1 2;
#X msg 825 124 \; pd dsp \$1;
#X text 2 260 _;
#X obj 492 98 s \$0-audioOutLabel;
#X msg 490 68 label \$1;
#X msg 491 27 symbol Audio\ Output;
#X obj 354 121 vu 8 80 \$0-audioOutVU1-r empty -1 -8 0 10 -66577 -1
0 0;
#X msg 449 319 scale 0;
#X obj 564 279 cnv 14 35 14 empty empty init 4 7 0 10 -232576 -128992
0;
#X msg 509 299 0;
#X obj 509 279 loadbang;
#X obj 656 318 cnv 14 14 14 empty empty S 6 8 0 8 -204800 -128992 0
;
#N canvas 1738 289 915 515 muteButtonDisplay 0;
#X obj 172 67 sel 0 1;
#X text 17 108 When [tgl] is 0 \, change the background color to the
"off" color, f 23;
#X text 373 111 When [tgl] is 1 \, change the background color to the
"on" color \, AND change the foreground color (the "x") to the on color
\, so we don't see the "x" displayed, f 23;
#X obj 319 157 cnv 14 14 14 empty empty S 6 8 0 8 -204800 -128992 0
;
#X obj 318 23 cnv 14 14 14 empty empty R 6 8 0 8 -204786 -128992 0
;
#X msg 242 110 color 3;
#X msg 172 112 color 0;
#X obj 172 22 r \$0-helpAudioOutMute-s;
#X obj 172 156 s \$0-helpAudioOutMute-r;
#X connect 0 0 6 0;
#X connect 0 1 5 0;
#X connect 5 0 8 0;
#X connect 6 0 8 0;
#X connect 7 0 0 0;
#X restore 509 230 pd muteButtonDisplay;
#X obj 509 317 s \$0-helpAudioOutMute-s;
#X obj 648 257 cnv 14 14 14 empty empty R 6 8 0 8 -204786 -128992 0
;
#N canvas 3092 159 450 300 muteButtonHandling 0;
#X msg 16 69 \$1 20;
#X obj 17 30 sel 0 1;
#X obj 44 49 f 0;
#X obj 16 49 f 1;
#X obj 165 16 cnv 14 14 14 empty empty R 6 8 0 8 -204786 -128992 0
;
#X obj 16 114 s~ \$0-helpAudioOutMute;
#X obj 16 91 vline~;
#X obj 154 116 cnv 14 18 14 empty empty S~ 6 8 0 8 -232576 -99865 0
;
#X obj 17 11 r \$0-helpAudioOutMute-s;
#X connect 0 0 6 0;
#X connect 1 0 3 0;
#X connect 1 1 2 0;
#X connect 2 0 0 0;
#X connect 3 0 0 0;
#X connect 6 0 5 0;
#X connect 8 0 1 0;
#X restore 509 256 pd muteButtonHandling;
#X obj 668 257 cnv 14 18 14 empty empty S~ 6 8 0 8 -232576 -99865 0
;
#X obj 68 141 r~ \$0-helpAudioOutMute;
#X obj 32 247 *~;
#X obj 192 241 *~;
#X obj 381 149 cnv 14 14 14 empty empty R 6 8 0 8 -204800 -128992 0
;
#X obj 398 149 cnv 14 14 14 empty empty S 6 8 0 8 -204786 -128992 0
;
#X obj 671 234 cnv 14 14 14 empty empty S 6 8 0 8 -204800 -128992 0
;
#X obj 648 234 cnv 14 14 14 empty empty R 6 8 0 8 -204786 -128992 0
;
#X obj 252 102 cnv 15 1 1 empty empty Ch1 0 8 0 10 -262144 -66577 0
;
#X obj 358 102 cnv 15 1 1 empty empty Ch2 0 8 0 10 -262144 -66577 0
;
#X obj 116 307 env~;
#X obj 366 121 vu 8 80 \$0-audioOutVU2-r empty -1 -8 0 10 -66577 -1
0 0;
#X obj 116 398 s \$0-audioOutVU1-r;
#X obj 398 118 cnv 14 14 14 empty empty R 6 8 0 8 -260097 -128992 0
;
#X obj 229 398 cnv 14 14 14 empty empty S 6 8 0 8 -4034 -128992 0;
#X text 414 148 (mute);
#X obj 267 308 env~;
#X obj 380 399 cnv 14 14 14 empty empty S 6 8 0 8 -260097 -128992 0
;
#X obj 267 399 s \$0-audioOutVU2-r;
#X obj 381 118 cnv 14 14 14 empty empty R 6 8 0 8 -4034 -128992 0;
#X text 416 117 (VU);
#X obj 116 328 - 100;
#X obj 267 329 - 100;
#X obj 931 107 r pd;
#X obj 931 126 route dsp;
#X msg 931 147 set \$1;
#X obj 931 166 s \$0-outputDSP-r;
#X obj 825 105 r \$0-outputDSP-s;
#X connect 0 0 7 0;
#X connect 1 0 4 0;
#X connect 3 0 4 1;
#X connect 3 0 7 1;
#X connect 4 0 27 0;
#X connect 7 0 26 0;
#X connect 12 0 11 0;
#X connect 13 0 12 0;
#X connect 15 0 36 0;
#X connect 15 0 42 0;
#X connect 17 0 21 0;
#X connect 18 0 17 0;
#X connect 18 0 15 0;
#X connect 25 0 26 1;
#X connect 25 0 27 1;
#X connect 26 0 8 0;
#X connect 26 0 34 0;
#X connect 27 0 8 1;
#X connect 27 0 40 0;
#X connect 34 0 45 0;
#X connect 40 0 46 0;
#X connect 45 0 36 0;
#X connect 46 0 42 0;
#X connect 47 0 48 0;
#X connect 48 0 49 0;
#X connect 49 0 50 0;
#X connect 51 0 9 0;
#X coords 0 -1 1 1 127 110 2 250 100;
#X restore 847 465 pd help-audio-out;
#X obj 57 787 *~;
#X text 44 168 -;
#X obj 23 169 cnv 14 14 14 empty empty 1 4 8 0 12 -99865 -228856 0
;
#X text 44 184 -;
#X obj 23 185 cnv 14 14 14 empty empty 2 4 8 0 12 -99865 -228856 0
;
#X text 44 200 -;
#X obj 23 201 cnv 14 14 14 empty empty 3 4 8 0 12 -99865 -228856 0
;
#X text 44 216 -;
#X obj 23 217 cnv 14 14 14 empty empty 4 4 8 0 12 -99865 -228856 0
;
#X text 44 232 -;
#X obj 23 233 cnv 14 14 14 empty empty 5 4 8 0 12 -99865 -228856 0
;
#X text 66 152 (float/bang) Float > 0 starts the envelope \, 0 stops
the envelope. When using "bang" \, the duration is based on the duration
parameter., f 133;
#X text 66 168 (float) Duration of the attack stage (linear ramp up
from 0) set in milliseconds., f 133;
#X text 66 184 (float) Duration of the decay stage (linear ramp down
from the sustain lrbrl yo 0) set in milliseconds., f 133;
#X text 66 200 (float) the value in linear amplitude of the sustain
portion of the envelope (0.0-1.0), f 133;
#X text 66 216 (float) the total duration of the envelope in milliseconds.
Employed when "bang" is sent to the leftmost inlet., f 112;
#X text 66 232 (float) MIDI Control Flag - A "1" causes the envelope
to use MIDI velocity as the sustain level \, when MIDI velocity is
used to trigger the envelope. A "0" uses, f 133;
#X text 44 312 -;
#X obj 23 313 cnv 14 14 14 empty empty 0 4 8 0 12 -99865 -228856 0
;
#X text 66 296 (signal) Envelope contour at signal rate;
#X text 66 312 (float) Envelope contour at data rate (0.0-1.0);
#X obj 309 465 cnv 5 5 5 empty empty ─ 0 3 0 25 -262144 -1 0;
#X obj 300 439 cnv 5 5 5 empty empty ─ 0 3 0 15 -262144 -99865 0
;
#X obj 2 407 cnv 1 1000 1 empty \$0-helpPatchSecDivider empty 9 20
0 18 -166441 -33289 0;
#X text 328 410 Envelope triggers. A value > 0 triggers the envelope
\, while a 0 causes the envelope to enter its decay stage. When the
MIDI control flag is set to "1" (Inlet 5) \, the value sent to this
inlet is interpreted as a MIDI velocity and the sustain level is implemented
with that value. When "bang" is sent to this inlet \, the duration
of the envelope is based on the duration parameter.;
#X obj 57 811 throw~ \$0-out;
#X obj 847 425 catch~ \$0-out;
#X obj 508 695 tdh.util.ad~, f 37;
#N canvas 3253 -74 450 300 pink~ 0;
#X text 27 150 signal-out;
#X obj 29 129 outlet~;
#X obj 29 49 noise~;
#X text 14 7 pink~;
#X text 65 8 pink-noise-generator with -3 dB per oktave;
#X obj 29 88 biquad~ 1.83221 -0.836851 0.271264 -0.456311 0.18969;
#X obj 29 108 biquad~ 0.273097 0.087865 0.505803 0.171365 -0.03813
;
#X obj 29 68 biquad~ 1.98893 -0.988954 1.00554 -1.9889 0.983444;
#X text 166 225 IEM KUG;
#X text 130 213 musil;
#X text 180 213 @;
#X text 196 213 iem.at;
#X text 101 202 (c) Thomas Musil 2000 - 2005;
#X text 149 235 Graz \, Austria;
#X connect 2 0 7 0;
#X connect 5 0 6 0;
#X connect 6 0 1 0;
#X connect 7 0 5 0;
#X restore 526 724 pd pink~;
#X obj 508 759 *~;
#X floatatom 559 590 5 0 0 1 Attack(ms) #0-helpAtt-r -;
#X floatatom 610 609 5 0 0 1 Decay(ms) #0-helpDec-r -;
#X floatatom 661 630 5 0 0 1 Sustain(linearAmp) #0-helpSus-r -;
#X floatatom 712 650 5 0 0 1 Duration(ms) #0-helpDur-r -;
#X obj 764 670 tgl 15 0 empty empty MIDI-CtrlFlag(float) 17 7 0 12
-262144 -1 -1 0 1;
#X text 320 636 tdh.util.ad.ui~;
#X floatatom 300 755 5 0 0 0 - - -;
#X text 150 743 Envelope will output at signal and data rate, f 17
;
#X obj 121 746 cnv 5 5 5 empty empty ⟵ -3 3 0 30 -262144 -1 0;
#X obj 273 746 cnv 5 5 5 empty empty ⟶ -3 3 0 30 -262144 -1 0;
#X obj 508 783 throw~ \$0-out;
#X floatatom 764 719 5 0 0 0 - - -;
#X text 18 90 An attack-decay envelope \, with a sustain portion thrown
in (if you want to use it). MIDI friendly \, with a UI form or regular
object form., f 138;
#X obj 9 429 cnv 15 299 74 empty \$0-frameCanvas empty 20 12 0 14 -1
-262144 0;
#X obj 11 431 cnv 15 295 70 empty \$0-fillCanvas empty 6 8 0 12 -262144
-262144 0;
#X obj 17 440 bng 15 250 50 0 empty empty Gate(Fixed_Dur) 17 7 0 12
-262144 -1 -1;
#X obj 43 459 tgl 15 0 empty empty Gate(Variable_Dur) 17 7 0 12 -262144
-1 -1 0 1;
#X msg 67 478 64;
#X msg 100 478 0;
#X text 129 478 Gate(MIDI Velocity);
#X obj 473 508 cnv 15 299 74 empty \$0-frameCanvas empty 20 12 0 14
-1 -262144 0;
#X obj 475 510 cnv 15 295 70 empty \$0-fillCanvas empty 6 8 0 12 -262144
-262144 0;
#X obj 478 517 bng 15 250 50 0 empty empty Gate(Fixed_Dur) 17 7 0 12
-262144 -1 -1;
#X obj 504 536 tgl 15 0 empty empty Gate(Variable_Dur) 17 7 0 12 -262144
-1 -1 0 1;
#X msg 528 555 64;
#X msg 561 555 0;
#X text 590 555 Gate(MIDI Velocity);
#X connect 12 0 20 0;
#X connect 12 1 56 0;
#X connect 13 0 12 1;
#X connect 14 0 12 2;
#X connect 15 0 12 3;
#X connect 16 0 12 4;
#X connect 17 0 12 5;
#X connect 18 0 20 1;
#X connect 20 0 45 0;
#X connect 46 0 19 0;
#X connect 46 0 19 1;
#X connect 47 0 49 0;
#X connect 47 1 61 0;
#X connect 48 0 49 1;
#X connect 49 0 60 0;
#X connect 50 0 47 1;
#X connect 51 0 47 2;
#X connect 52 0 47 3;
#X connect 53 0 47 4;
#X connect 54 0 47 5;
#X connect 65 0 12 0;
#X connect 66 0 12 0;
#X connect 67 0 12 0;
#X connect 68 0 12 0;
#X connect 72 0 47 0;
#X connect 73 0 47 0;
#X connect 74 0 47 0;
#X connect 75 0 47 0;
