#N canvas 265 38 710 888 10;
#X obj 3 121 cnv 1 700 1 empty \$0-helpPatchSecDivider empty 9 20 0
18 #a0a0a0 #202020 0;
#X text 5 87 A 1 oscillator synth voice \, akin to a single voice on
the MiniMoog. Has GUI control of waveshape \, octave \, frequency \,
and volume \, plus inlets for external control of all parameters.,
f 95;
#X floatatom 100 172 5 0 0 0 - - - 0;
#X floatatom 126 194 5 0 0 0 - - - 0;
#X floatatom 180 350 5 0 0 0 - - - 0;
#N canvas 1838 -134 1149 842 help-audio-out 0;
#X obj 32 30 inlet~;
#X obj 192 30 inlet~;
#X obj 255 152 tgl 15 0 \$0-outputDSP-s \$0-outputDSP-r DSP 17 7 0
10 #fcfcfc #000000 #000000 0 1;
#X obj 260 174 hsl 64 15 0.01 1 1 0 empty empty Vol 68 7 0 10 #fcfcfc
#000000 #000000 0 1;
#X obj 192 220 *~;
#X obj 254 120 cnv 2 90 2 empty \$0-audioOutLabel Audio_Output 1 9
0 12 #e0e0e0 #404040 0;
#X obj 298 152 tgl 15 0 \$0-helpAudioOutMute-s \$0-helpAudioOutMute-r
Mute 17 7 0 10 #fcfcfc #000000 #000000 0 1;
#X obj 32 226 *~;
#X obj 32 300 dac~ 1 2;
#X msg 825 124 \; pd dsp \$1;
#X text 2 260 _;
#X obj 492 98 s \$0-audioOutLabel;
#X msg 490 68 label \$1;
#X msg 491 27 symbol Audio\ Output;
#X obj 354 121 vu 8 80 \$0-audioOutVU1-r empty -1 -8 0 10 #404040 #000000
0 0;
#X msg 449 319 scale 0;
#X obj 564 279 cnv 14 35 14 empty empty init 4 7 0 10 #e0c4fc #7c7c7c
0;
#X msg 509 299 0;
#X obj 509 279 loadbang;
#X obj 656 318 cnv 14 14 14 empty empty S 6 8 0 8 #c4fcfc #7c7c7c 0
;
#N canvas 1738 289 915 515 muteButtonDisplay 0;
#X obj 172 67 sel 0 1;
#X text 17 108 When [tgl] is 0 \, change the background color to the
"off" color, f 23;
#X text 373 111 When [tgl] is 1 \, change the background color to the
"on" color \, AND change the foreground color (the "x") to the on color
\, so we don't see the "x" displayed, f 23;
#X obj 319 157 cnv 14 14 14 empty empty S 6 8 0 8 #c4fcfc #7c7c7c 0
;
#X obj 318 23 cnv 14 14 14 empty empty R 6 8 0 8 #c4fcc4 #7c7c7c 0
;
#X msg 242 110 color 3;
#X msg 172 112 color 0;
#X obj 172 22 r \$0-helpAudioOutMute-s;
#X obj 172 156 s \$0-helpAudioOutMute-r;
#X connect 0 0 6 0;
#X connect 0 1 5 0;
#X connect 5 0 8 0;
#X connect 6 0 8 0;
#X connect 7 0 0 0;
#X restore 509 230 pd muteButtonDisplay;
#X obj 509 317 s \$0-helpAudioOutMute-s;
#X obj 648 257 cnv 14 14 14 empty empty R 6 8 0 8 #c4fcc4 #7c7c7c 0
;
#N canvas 3092 159 450 300 muteButtonHandling 0;
#X msg 16 69 \$1 20;
#X obj 17 30 sel 0 1;
#X obj 44 49 f 0;
#X obj 16 49 f 1;
#X obj 165 16 cnv 14 14 14 empty empty R 6 8 0 8 #c4fcc4 #7c7c7c 0
;
#X obj 16 114 s~ \$0-helpAudioOutMute;
#X obj 16 91 vline~;
#X obj 154 116 cnv 14 18 14 empty empty S~ 6 8 0 8 #e0c4fc #606060
0;
#X obj 17 11 r \$0-helpAudioOutMute-s;
#X connect 0 0 6 0;
#X connect 1 0 3 0;
#X connect 1 1 2 0;
#X connect 2 0 0 0;
#X connect 3 0 0 0;
#X connect 6 0 5 0;
#X connect 8 0 1 0;
#X restore 509 256 pd muteButtonHandling;
#X obj 668 257 cnv 14 18 14 empty empty S~ 6 8 0 8 #e0c4fc #606060
0;
#X obj 68 141 r~ \$0-helpAudioOutMute;
#X obj 32 247 *~;
#X obj 192 241 *~;
#X obj 381 149 cnv 14 14 14 empty empty R 6 8 0 8 #c4fcfc #7c7c7c 0
;
#X obj 398 149 cnv 14 14 14 empty empty S 6 8 0 8 #c4fcc4 #7c7c7c 0
;
#X obj 671 234 cnv 14 14 14 empty empty S 6 8 0 8 #c4fcfc #7c7c7c 0
;
#X obj 648 234 cnv 14 14 14 empty empty R 6 8 0 8 #c4fcc4 #7c7c7c 0
;
#X obj 252 102 cnv 15 1 1 empty empty Ch1 0 8 0 10 #fcfcfc #404040
0;
#X obj 358 102 cnv 15 1 1 empty empty Ch2 0 8 0 10 #fcfcfc #404040
0;
#X obj 116 307 env~;
#X obj 366 121 vu 8 80 \$0-audioOutVU2-r empty -1 -8 0 10 #404040 #000000
0 0;
#X obj 116 398 s \$0-audioOutVU1-r;
#X obj 398 118 cnv 14 14 14 empty empty R 6 8 0 8 #fc8000 #7c7c7c 0
;
#X obj 229 398 cnv 14 14 14 empty empty S 6 8 0 8 #00fc04 #7c7c7c 0
;
#X text 414 148 (mute);
#X obj 267 308 env~;
#X obj 380 399 cnv 14 14 14 empty empty S 6 8 0 8 #fc8000 #7c7c7c 0
;
#X obj 267 399 s \$0-audioOutVU2-r;
#X obj 381 118 cnv 14 14 14 empty empty R 6 8 0 8 #00fc04 #7c7c7c 0
;
#X text 416 117 (VU);
#X obj 116 328 - 100;
#X obj 267 329 - 100;
#X obj 931 107 r pd;
#X obj 931 126 route dsp;
#X msg 931 147 set \$1;
#X obj 931 166 s \$0-outputDSP-r;
#X obj 825 105 r \$0-outputDSP-s;
#X connect 0 0 7 0;
#X connect 1 0 4 0;
#X connect 3 0 4 1;
#X connect 3 0 7 1;
#X connect 4 0 27 0;
#X connect 7 0 26 0;
#X connect 12 0 11 0;
#X connect 13 0 12 0;
#X connect 15 0 36 0;
#X connect 15 0 42 0;
#X connect 17 0 21 0;
#X connect 18 0 17 0;
#X connect 18 0 15 0;
#X connect 25 0 26 1;
#X connect 25 0 27 1;
#X connect 26 0 8 0;
#X connect 26 0 34 0;
#X connect 27 0 8 1;
#X connect 27 0 40 0;
#X connect 34 0 45 0;
#X connect 40 0 46 0;
#X connect 45 0 36 0;
#X connect 46 0 42 0;
#X connect 47 0 48 0;
#X connect 48 0 49 0;
#X connect 49 0 50 0;
#X connect 51 0 9 0;
#X coords 0 -1 1 1 127 110 2 250 100;
#X restore 550 595 pd help-audio-out;
#X obj 100 749 throw~ \$0-1oscHelp, f 11;
#X obj 549 574 catch~ \$0-1oscHelp;
#X text 5 794 Outlet (0) produces the oscillator signal \, while outlet
(1) sends out the oscillator's frequency value between 0-11 (floating
point pitch class) for synchronization with other oscillators., f
110;
#X text 5 833 Inlets and outlets have been labelled to provide quick
implementation and to assist those getting started in sonic arts.,
f 110;
#X floatatom 314 740 5 0 0 0 - - - 0;
#X text 6 124 tdh.synth.1oscil~ is a single oscillator voice that can
be used as the building block to a larger synth source., f 111;
#X obj 207 371 osc~ 1;
#X obj 234 391 osc~ 0.5;
#X text 253 371 Frequency modulation (vibrato) inlet;
#X text 290 391 Amplitude modulation (tremolo) inlet;
#X text 338 577 Use the faders here to increase or decrease modulation
depth, f 32;
#X obj 320 563 cnv 5 5 5 empty empty ↖︎ -3 3 0 30 #ffffff #202020
0;
#X obj 320 612 cnv 5 5 5 empty empty ↙︎ -3 3 0 30 #fcfcfc #202020
0;
#X text 348 730 Frequency setting (for sync with other oscillators)
, f 19;
#X obj 100 487 tdh.lib/tdh.synth.1oscil~;
#A saved 1 9 15804.3 0 0 0 500 1;
#X text 17 48 Travis Houldcroft || travishouldcroft.com;
#X obj 3 1 cnv 15 700 40 empty \$0-helpPatchTitleBar tdh.synth.1oscil~
9 20 0 18 #001488 #dce4fc 0;
#X obj 3 77 cnv 1 700 1 empty \$0-helpPatchSecDivider empty 9 20 0
18 #a0a0a0 #202020 0;
#N canvas 2695 126 621 362 help-init 0;
#N canvas 1813 -209 1435 1029 cnv-set 0;
#N canvas 1440 23 349 258 canvas-ctrl 0;
#X obj 291 1 inlet;
#N canvas 248 270 1089 459 graph 0;
#X floatatom 180 241 5 0 0 0 Lbl-Sz - - 0;
#X floatatom 273 241 5 0 29 0 Lbl-Clr - - 0;
#N canvas 32 23 1408 389 label-properties 0;
#X floatatom 314 72 3 18 100 0 - - - 0;
#X msg 314 99 size \$1;
#X obj 400 121 pack 100 60, f 18;
#X obj 491 93 t b f;
#X floatatom 491 68 4 18 100 0 - - - 0;
#X floatatom 400 68 4 18 100 0 - - - 0;
#X msg 400 148 vis_size \$1 \$2;
#X text 442 41 w/x;
#X text 532 41 h/y;
#X floatatom 589 116 4 0 3 0 - - - 0;
#X obj 721 135 t b f;
#X floatatom 721 116 5 5 50 0 - - - 0;
#X msg 589 185 label_font \$1 \$2;
#X text 632 41 type;
#X text 760 40 size;
#X obj 589 64 vradio 15 1 0 3 empty empty empty 0 -8 0 10 #fcfcfc #000000
#000000 0;
#X text 605 63 DejaVu Sans Mono;
#X text 605 78 Helvetica;
#X text 606 93 Times;
#X floatatom 817 71 4 -100 250 0 - - - 0;
#X obj 889 98 t b f;
#X floatatom 889 71 5 -150 150 0 - - - 0;
#X msg 817 148 label_pos \$1 \$2;
#X text 856 41 x;
#X text 929 41 y;
#X obj 817 126 pack 17 20, f 17;
#X obj 589 164 pack 0 25, f 24;
#X msg 973 129 label \$1;
#X floatatom 1191 70 3 0 29 1 bgColor - - 0;
#X floatatom 1295 70 3 0 29 1 lblColor - - 0;
#X obj 1295 92 t b f;
#X msg 1191 145 color \$1 \$2 \$3;
#X obj 1191 124 pack 1 22 22, f 14;
#X text 1170 18 Color Presets (0-29):;
#X obj 24 42 inlet;
#X obj 8 42 cnv 14 14 14 empty empty 0 4 8 0 12 #606060 #dcdcdc 0;
#X symbolatom 24 210 10 0 0 0 - - - 0;
#X obj 588 330 send, f 13;
#X obj 400 42 inlet;
#X obj 314 42 inlet;
#X obj 491 42 inlet;
#X obj 155 42 cnv 14 14 14 empty empty 1 4 8 0 12 #606060 #dcdcdc 0
;
#X obj 297 42 cnv 14 14 14 empty empty 2 4 8 0 12 #606060 #dcdcdc 0
;
#X obj 384 42 cnv 14 14 14 empty empty 3 4 8 0 12 #606060 #dcdcdc 0
;
#X obj 721 42 inlet;
#X obj 589 42 inlet;
#X obj 817 42 inlet;
#X obj 476 42 cnv 14 14 14 empty empty 4 4 8 0 12 #606060 #dcdcdc 0
;
#X obj 573 42 cnv 14 14 14 empty empty 5 4 8 0 12 #606060 #dcdcdc 0
;
#X obj 703 42 cnv 14 14 14 empty empty 6 4 8 0 12 #606060 #dcdcdc 0
;
#X text 315 18 Size;
#X text 421 18 Visible Size;
#X text 635 18 Label Font;
#X text 824 18 Label Offset;
#X obj 889 42 inlet;
#X obj 800 42 cnv 14 14 14 empty empty 7 4 8 0 12 #606060 #dcdcdc 0
;
#X msg 1052 89 symbol my\ label;
#X symbolatom 973 92 10 0 0 0 - - - 0;
#X obj 973 42 inlet;
#X obj 872 42 cnv 14 14 14 empty empty 8 4 8 0 12 #606060 #dcdcdc 0
;
#X msg 973 70 symbol \$1;
#X text 1007 18 Label Text;
#X obj 1191 42 inlet;
#X obj 958 42 cnv 14 14 14 empty empty 9 4 8 0 12 #606060 #dcdcdc 0
;
#X obj 1295 42 inlet;
#X obj 1174 42 cnv 14 14 14 empty empty 10 0 8 0 12 #606060 #dcdcdc
0;
#X text 0 18 Canvas Name;
#X obj 284 2 cnv 5 1 260 empty empty empty 20 12 0 14 #7c7c7c #404040
0;
#X obj 738 322 cnv 2 700 40 empty \$0-test_canvas tdh.synth.1oscil~
20 15 0 16 #a0a0a0 #202020 0;
#X obj 415 328 s \$0-test_canvas;
#X obj 210 187 spigot;
#X obj 170 88 tgl 15 0 empty empty empty 17 7 0 10 #fcfcfc #000000
#000000 0 1;
#X obj 249 134 == 1;
#X obj 101 135 == 0;
#X obj 144 134 list append \$0;
#X msg 144 157 symbol \$2-\$1;
#X msg 24 136 symbol \$1;
#X obj 24 167 spigot;
#X obj 170 42 inlet;
#X obj 1279 42 cnv 14 14 14 empty empty 11 0 8 0 12 #606060 #dcdcdc
0;
#X text 136 18 Add "\$0" option;
#X obj 374 2 cnv 5 1 260 empty empty empty 20 12 0 14 #7c7c7c #404040
0;
#X obj 561 2 cnv 5 1 260 empty empty empty 20 12 0 14 #7c7c7c #404040
0;
#X obj 791 2 cnv 5 1 260 empty empty empty 20 12 0 14 #7c7c7c #404040
0;
#X obj 944 2 cnv 5 1 260 empty empty empty 20 12 0 14 #7c7c7c #404040
0;
#X obj 1164 2 cnv 5 1 260 empty empty empty 20 12 0 14 #7c7c7c #404040
0;
#X connect 0 0 1 0;
#X connect 1 0 37 0;
#X connect 1 0 69 0;
#X connect 2 0 6 0;
#X connect 3 0 2 0;
#X connect 3 1 2 1;
#X connect 4 0 3 0;
#X connect 5 0 2 0;
#X connect 6 0 37 0;
#X connect 6 0 69 0;
#X connect 9 0 26 0;
#X connect 10 0 26 0;
#X connect 10 1 26 1;
#X connect 11 0 10 0;
#X connect 12 0 37 0;
#X connect 12 0 69 0;
#X connect 15 0 9 0;
#X connect 19 0 25 0;
#X connect 20 0 25 0;
#X connect 20 1 25 1;
#X connect 21 0 20 0;
#X connect 22 0 37 0;
#X connect 22 0 69 0;
#X connect 25 0 22 0;
#X connect 26 0 12 0;
#X connect 27 0 37 0;
#X connect 27 0 69 0;
#X connect 28 0 32 0;
#X connect 29 0 30 0;
#X connect 30 0 32 0;
#X connect 30 1 32 2;
#X connect 31 0 37 0;
#X connect 31 0 69 0;
#X connect 32 0 31 0;
#X connect 34 0 74 0;
#X connect 34 0 76 0;
#X connect 36 0 37 1;
#X connect 38 0 5 0;
#X connect 39 0 0 0;
#X connect 40 0 4 0;
#X connect 44 0 11 0;
#X connect 45 0 15 0;
#X connect 46 0 19 0;
#X connect 54 0 21 0;
#X connect 56 0 27 0;
#X connect 57 0 27 0;
#X connect 58 0 60 0;
#X connect 60 0 57 0;
#X connect 62 0 28 0;
#X connect 64 0 29 0;
#X connect 70 0 36 0;
#X connect 71 0 72 0;
#X connect 71 0 73 0;
#X connect 72 0 70 1;
#X connect 73 0 77 1;
#X connect 74 0 75 0;
#X connect 75 0 70 0;
#X connect 76 0 77 0;
#X connect 77 0 36 0;
#X connect 78 0 71 0;
#X restore 6 354 pd label-properties;
#X f 45;
#X floatatom 273 219 5 0 29 0 BG-Clr - - 0;
#X floatatom 180 174 5 0 0 0 Vis-Sz-W - - 0;
#X floatatom 181 198 5 0 0 0 Vis-Sz-H - - 0;
#X floatatom 271 150 5 0 0 0 Lbl-X - - 0;
#X floatatom 272 174 5 0 0 0 Lbl-Y - - 0;
#X floatatom 180 150 5 0 0 0 Size - - 0;
#X symbolatom 214 127 10 0 0 0 CnvReceiveSymbol - - 0;
#X floatatom 181 219 5 0 2 0 Lbl-Fon - - 0;
#X symbolatom 274 195 10 0 0 0 Lbl-Txt - - 0;
#X obj 295 128 tgl 15 0 empty empty Append_0 20 7 0 10 #fcfcfc #fc8000
#000000 0 1;
#X text 194 103 Label Properties;
#X obj 28 18 inlet;
#X obj 414 223 cnv 15 500 30 empty \$0-myCanvas This\\\ is\\\ my\\\ label?
9 13 0 18 #e0e0e0 #606060 0;
#X obj 28 54 route doll rec size visw vish lblfon lblsz lblx lbly bgclr
lblclr, f 66;
#X obj 56 93 symbol;
#X text 6 4 _;
#X text 479 173 dollarsign0-myCanvas;
#X msg 74 18 doll 1 \, rec myCanvas \, size 15 \, visw 50 \, vish 60
\, lblfon 0 \, lblsz 18 \, lblx 9 \, lbly 13 \, bgclr 10 \, lblclr
21, f 106;
#N canvas 240 66 752 410 \$0-how-to-set-values-externally 0;
#X text 112 49 doll [0/1] - toggle on appending "\$0-" at the start
of the recieve symbol, f 85;
#X text 112 102 visw [float] - the visible width of the canvas in pixels
, f 85;
#X text 112 85 size [float] - the size of the clickable/dragable portion
of the canvas in pixels, f 85;
#X text 112 122 vish [float] - the visible height of the canvas in
pixels, f 85;
#X text 111 141 lblfon [0/1/2] - font designation for the canvas' label
\, with [0] for Menlo \, [1] for, f 89;
#X text 131 155 Helvetica \, [2] for Times. Note that these fonts may
be different on Windows or Linux, f 84;
#X text 111 173 lblsz [float] - font size designation for the canvas'
label, f 85;
#X text 111 213 lbly [float] - y offset in pixels from the top left
corner of the canvas, f 85;
#X text 111 193 lblx [float] - x offset (horizontal) in pixels from
the top left corner of the canvas, f 85;
#X text 4 29 To set the values for your canvas object externally \,
send messages with the following signifiers to the 0 (leftmost) inlet:
, f 124;
#X msg 31 336 doll 1 \, rec myCanvas \, size 15 \, visw 500 \, vish
30 \, lblfon 0 \, lblsz 18 \, lblx 9 \, lbly 13 \, bgclr 10 \, lblclr
21, f 106;
#X text 111 67 rec [symbol] - receive symbol for the canvas, f 85
;
#X obj 90 241 cnv 5 5 5 empty \$0-canvas-format-helper-boldstatement1
Please\ note\ that\ the\ $-0\ designation\ (1\ or\ 0)\ MUST\ be\ sent\ first\,\ followed\ by\ the\ canvas\ 
1 9 0 12 #fcfcfc #fc0400 0;
#N canvas 2423 143 808 250 init 0;
#X msg 30 102 label \$1;
#X msg 419 120 label \$1;
#X obj 29 147 s \$0-canvas-format-helper-boldstatement1;
#X obj 418 164 s \$0-canvas-format-helper-boldstatement2;
#X obj 233 15 loadbang;
#X msg 420 51 symbol receive\ symbol!\ Failure\ to\ do\ so\ will\ cause\ incorrect\ parameter\ dispatching!
;
#X msg 26 43 symbol Please\\\ note\\\ that\\\ the\\\ $-0\\\ designation\\\ (1\\\ or\\\ 0)\\\ MUST\\\ be\\\ sent\\\ first\\\,\\\ followed\\\ by\\\ the\\\ canvas\\\ 
;
#X connect 0 0 2 0;
#X connect 1 0 3 0;
#X connect 4 0 5 0;
#X connect 4 0 6 0;
#X connect 5 0 1 0;
#X connect 6 0 0 0;
#X restore 659 9 pd init;
#X obj 90 257 cnv 5 5 5 empty \$0-canvas-format-helper-boldstatement2
receive\ symbol!\ Failure\ to\ do\ so\ will\ cause\ incorrect\ parameter\ dispatching!
1 9 0 12 #fcfcfc #fc0400 0;
#X msg 112 362 symbol this\ is\ my\ label!;
#X text 296 357 The label parameter must be sent separately to Inlet
1 (rightmost inlet). The message must be prepended with the "symbol"
identifier \, and the escape character () needs to be set in the message:
, f 68;
#X text 102 286 All parameters EXCEPT label can be sent in a single
message to Inlet 0 (leftmost inlet) like below (and this can be copied
and pasted for easy initializing formatting)., f 89;
#X restore 326 378 pd \$0-how-to-set-values-externally;
#X msg 326 336 vis 1;
#X obj 326 357 s pd-\$0-how-to-set-values-externally;
#X obj 120 263 bng 15 250 50 0 empty empty empty 17 7 0 10 #fcfcfc
#000000 #000000;
#X text 141 263 How to set canvas values externally;
#X text 891 18 All left-inlet messages;
#X text 984 47 Label text;
#X msg 636 48 symbol This\ is\ my\ label?;
#X obj 587 47 inlet;
#X obj 632 184 cnv 5 5 5 empty empty ↴ -3 3 0 24 #fcfcfc #606060
0;
#X connect 0 0 2 6;
#X connect 1 0 2 11;
#X connect 3 0 2 10;
#X connect 4 0 2 3;
#X connect 5 0 2 4;
#X connect 6 0 2 7;
#X connect 7 0 2 8;
#X connect 8 0 2 2;
#X connect 9 0 2 0;
#X connect 10 0 2 5;
#X connect 11 0 2 9;
#X connect 12 0 2 1;
#X connect 14 0 16 0;
#X connect 16 0 12 0;
#X connect 16 1 17 0;
#X connect 16 2 8 0;
#X connect 16 3 4 0;
#X connect 16 4 5 0;
#X connect 16 5 10 0;
#X connect 16 6 0 0;
#X connect 16 7 6 0;
#X connect 16 8 7 0;
#X connect 16 9 3 0;
#X connect 16 10 1 0;
#X connect 17 0 9 0;
#X connect 20 0 16 0;
#X connect 22 0 23 0;
#X connect 24 0 22 0;
#X connect 28 0 11 0;
#X connect 29 0 11 0;
#X coords 0 -1 1 1 300 190 2 100 100;
#X restore 25 27 pd graph;
#X obj 25 1 inlet;
#X connect 0 0 1 1;
#X connect 2 0 1 0;
#X restore 343 355 pd canvas-ctrl;
#X text 142 332 \$0-helpPatchTitleBar;
#X msg 438 572 symbol Inlets;
#X msg 343 549 doll 1 \, rec helpPatchSecLabelInlets \, size 2 \, visw
501 \, vish 3 \, lblfon 0 \, lblsz 16 \, lblx 20 \, lbly 15 \, bgclr
1 \, lblclr 12, f 123;
#X msg 343 443 doll 1 \, rec helpPatchSecDivider \, size 1 \, visw
501 \, vish 1 \, lblfon 0 \, lblsz 18 \, lblx 9 \, lbly 20 \, bgclr
1 \, lblclr 12, f 123;
#X msg 343 679 doll 1 \, rec helpPatchSecLabelOutlets \, size 2 \,
visw 501 \, vish 3 \, lblfon 0 \, lblsz 16 \, lblx 20 \, lbly 15 \,
bgclr 1 \, lblclr 12, f 123;
#X msg 438 702 symbol Outlets;
#X text 125 682 \$0-helpPatchSecLabelOutlets;
#X msg 438 852 symbol Arguments;
#X msg 343 829 doll 1 \, rec helpPatchSecLabelArgs \, size 2 \, visw
501 \, vish 3 \, lblfon 0 \, lblsz 16 \, lblx 20 \, lbly 15 \, bgclr
1 \, lblclr 12, f 123;
#X text 134 833 \$0-helpPatchSecLabelArgs;
#X msg 343 959 doll 1 \, rec helpPatchSecLabelNotes \, size 2 \, visw
501 \, vish 3 \, lblfon 0 \, lblsz 16 \, lblx 20 \, lbly 15 \, bgclr
1 \, lblclr 12, f 123;
#X msg 438 982 symbol Notes;
#X text 134 445 \$0-helpPatchSecDivider;
#N canvas 673 23 349 258 canvas-ctrl 0;
#X obj 291 1 inlet;
#N canvas 248 270 1089 459 graph 0;
#X floatatom 180 241 5 0 0 0 Lbl-Sz - - 0;
#X floatatom 273 241 5 0 29 0 Lbl-Clr - - 0;
#N canvas 32 23 1408 389 label-properties 0;
#X floatatom 314 72 3 18 100 0 - - - 0;
#X msg 314 99 size \$1;
#X obj 400 121 pack 100 60, f 18;
#X obj 491 93 t b f;
#X floatatom 491 68 4 18 100 0 - - - 0;
#X floatatom 400 68 4 18 100 0 - - - 0;
#X msg 400 148 vis_size \$1 \$2;
#X text 442 41 w/x;
#X text 532 41 h/y;
#X floatatom 589 116 4 0 3 0 - - - 0;
#X obj 721 135 t b f;
#X floatatom 721 116 5 5 50 0 - - - 0;
#X msg 589 185 label_font \$1 \$2;
#X text 632 41 type;
#X text 760 40 size;
#X obj 589 64 vradio 15 1 0 3 empty empty empty 0 -8 0 10 #fcfcfc #000000
#000000 0;
#X text 605 63 DejaVu Sans Mono;
#X text 605 78 Helvetica;
#X text 606 93 Times;
#X floatatom 817 71 4 -100 250 0 - - - 0;
#X obj 889 98 t b f;
#X floatatom 889 71 5 -150 150 0 - - - 0;
#X msg 817 148 label_pos \$1 \$2;
#X text 856 41 x;
#X text 929 41 y;
#X obj 817 126 pack 17 20, f 17;
#X obj 589 164 pack 0 25, f 24;
#X msg 973 129 label \$1;
#X floatatom 1191 70 3 0 29 1 bgColor - - 0;
#X floatatom 1295 70 3 0 29 1 lblColor - - 0;
#X obj 1295 92 t b f;
#X msg 1191 145 color \$1 \$2 \$3;
#X obj 1191 124 pack 1 22 22, f 14;
#X text 1170 18 Color Presets (0-29):;
#X obj 24 42 inlet;
#X obj 8 42 cnv 14 14 14 empty empty 0 4 8 0 12 #606060 #dcdcdc 0;
#X symbolatom 24 210 10 0 0 0 - - - 0;
#X obj 588 330 send, f 13;
#X obj 400 42 inlet;
#X obj 314 42 inlet;
#X obj 491 42 inlet;
#X obj 155 42 cnv 14 14 14 empty empty 1 4 8 0 12 #606060 #dcdcdc 0
;
#X obj 297 42 cnv 14 14 14 empty empty 2 4 8 0 12 #606060 #dcdcdc 0
;
#X obj 384 42 cnv 14 14 14 empty empty 3 4 8 0 12 #606060 #dcdcdc 0
;
#X obj 721 42 inlet;
#X obj 589 42 inlet;
#X obj 817 42 inlet;
#X obj 476 42 cnv 14 14 14 empty empty 4 4 8 0 12 #606060 #dcdcdc 0
;
#X obj 573 42 cnv 14 14 14 empty empty 5 4 8 0 12 #606060 #dcdcdc 0
;
#X obj 703 42 cnv 14 14 14 empty empty 6 4 8 0 12 #606060 #dcdcdc 0
;
#X text 315 18 Size;
#X text 421 18 Visible Size;
#X text 635 18 Label Font;
#X text 824 18 Label Offset;
#X obj 889 42 inlet;
#X obj 800 42 cnv 14 14 14 empty empty 7 4 8 0 12 #606060 #dcdcdc 0
;
#X msg 1052 89 symbol my\ label;
#X symbolatom 973 92 10 0 0 0 - - - 0;
#X obj 973 42 inlet;
#X obj 872 42 cnv 14 14 14 empty empty 8 4 8 0 12 #606060 #dcdcdc 0
;
#X msg 973 70 symbol \$1;
#X text 1007 18 Label Text;
#X obj 1191 42 inlet;
#X obj 958 42 cnv 14 14 14 empty empty 9 4 8 0 12 #606060 #dcdcdc 0
;
#X obj 1295 42 inlet;
#X obj 1174 42 cnv 14 14 14 empty empty 10 0 8 0 12 #606060 #dcdcdc
0;
#X text 0 18 Canvas Name;
#X obj 284 2 cnv 5 1 260 empty empty empty 20 12 0 14 #7c7c7c #404040
0;
#X obj 738 322 cnv 2 700 40 empty \$0-test_canvas tdh.synth.1oscil~
20 15 0 16 #a0a0a0 #202020 0;
#X obj 415 328 s \$0-test_canvas;
#X obj 210 187 spigot;
#X obj 170 88 tgl 15 0 empty empty empty 17 7 0 10 #fcfcfc #000000
#000000 0 1;
#X obj 249 134 == 1;
#X obj 101 135 == 0;
#X obj 144 134 list append \$0;
#X msg 144 157 symbol \$2-\$1;
#X msg 24 136 symbol \$1;
#X obj 24 167 spigot;
#X obj 170 42 inlet;
#X obj 1279 42 cnv 14 14 14 empty empty 11 0 8 0 12 #606060 #dcdcdc
0;
#X text 136 18 Add "\$0" option;
#X obj 374 2 cnv 5 1 260 empty empty empty 20 12 0 14 #7c7c7c #404040
0;
#X obj 561 2 cnv 5 1 260 empty empty empty 20 12 0 14 #7c7c7c #404040
0;
#X obj 791 2 cnv 5 1 260 empty empty empty 20 12 0 14 #7c7c7c #404040
0;
#X obj 944 2 cnv 5 1 260 empty empty empty 20 12 0 14 #7c7c7c #404040
0;
#X obj 1164 2 cnv 5 1 260 empty empty empty 20 12 0 14 #7c7c7c #404040
0;
#X connect 0 0 1 0;
#X connect 1 0 37 0;
#X connect 1 0 69 0;
#X connect 2 0 6 0;
#X connect 3 0 2 0;
#X connect 3 1 2 1;
#X connect 4 0 3 0;
#X connect 5 0 2 0;
#X connect 6 0 37 0;
#X connect 6 0 69 0;
#X connect 9 0 26 0;
#X connect 10 0 26 0;
#X connect 10 1 26 1;
#X connect 11 0 10 0;
#X connect 12 0 37 0;
#X connect 12 0 69 0;
#X connect 15 0 9 0;
#X connect 19 0 25 0;
#X connect 20 0 25 0;
#X connect 20 1 25 1;
#X connect 21 0 20 0;
#X connect 22 0 37 0;
#X connect 22 0 69 0;
#X connect 25 0 22 0;
#X connect 26 0 12 0;
#X connect 27 0 37 0;
#X connect 27 0 69 0;
#X connect 28 0 32 0;
#X connect 29 0 30 0;
#X connect 30 0 32 0;
#X connect 30 1 32 2;
#X connect 31 0 37 0;
#X connect 31 0 69 0;
#X connect 32 0 31 0;
#X connect 34 0 74 0;
#X connect 34 0 76 0;
#X connect 36 0 37 1;
#X connect 38 0 5 0;
#X connect 39 0 0 0;
#X connect 40 0 4 0;
#X connect 44 0 11 0;
#X connect 45 0 15 0;
#X connect 46 0 19 0;
#X connect 54 0 21 0;
#X connect 56 0 27 0;
#X connect 57 0 27 0;
#X connect 58 0 60 0;
#X connect 60 0 57 0;
#X connect 62 0 28 0;
#X connect 64 0 29 0;
#X connect 70 0 36 0;
#X connect 71 0 72 0;
#X connect 71 0 73 0;
#X connect 72 0 70 1;
#X connect 73 0 77 1;
#X connect 74 0 75 0;
#X connect 75 0 70 0;
#X connect 76 0 77 0;
#X connect 77 0 36 0;
#X connect 78 0 71 0;
#X restore 6 354 pd label-properties;
#X f 45;
#X floatatom 273 219 5 0 29 0 BG-Clr - - 0;
#X floatatom 180 174 5 0 0 0 Vis-Sz-W - - 0;
#X floatatom 181 198 5 0 0 0 Vis-Sz-H - - 0;
#X floatatom 271 150 5 0 0 0 Lbl-X - - 0;
#X floatatom 272 174 5 0 0 0 Lbl-Y - - 0;
#X floatatom 180 150 5 0 0 0 Size - - 0;
#X symbolatom 214 127 10 0 0 0 CnvReceiveSymbol - - 0;
#X floatatom 181 219 5 0 2 0 Lbl-Fon - - 0;
#X symbolatom 274 195 10 0 0 0 Lbl-Txt - - 0;
#X obj 295 128 tgl 15 0 empty empty Append_0 20 7 0 10 #fcfcfc #fc8000
#000000 0 1;
#X text 194 103 Label Properties;
#X obj 28 18 inlet;
#X obj 414 223 cnv 15 500 30 empty \$0-myCanvas This\\\ is\\\ my\\\ label?
9 13 0 18 #e0e0e0 #606060 0;
#X obj 28 54 route doll rec size visw vish lblfon lblsz lblx lbly bgclr
lblclr, f 66;
#X obj 56 93 symbol;
#X text 6 4 _;
#X text 479 173 dollarsign0-myCanvas;
#X msg 74 18 doll 1 \, rec myCanvas \, size 15 \, visw 50 \, vish 60
\, lblfon 0 \, lblsz 18 \, lblx 9 \, lbly 13 \, bgclr 10 \, lblclr
21, f 106;
#N canvas 240 66 752 410 \$0-how-to-set-values-externally 0;
#X text 112 49 doll [0/1] - toggle on appending "\$0-" at the start
of the recieve symbol, f 85;
#X text 112 102 visw [float] - the visible width of the canvas in pixels
, f 85;
#X text 112 85 size [float] - the size of the clickable/dragable portion
of the canvas in pixels, f 85;
#X text 112 122 vish [float] - the visible height of the canvas in
pixels, f 85;
#X text 111 141 lblfon [0/1/2] - font designation for the canvas' label
\, with [0] for Menlo \, [1] for, f 89;
#X text 131 155 Helvetica \, [2] for Times. Note that these fonts may
be different on Windows or Linux, f 84;
#X text 111 173 lblsz [float] - font size designation for the canvas'
label, f 85;
#X text 111 213 lbly [float] - y offset in pixels from the top left
corner of the canvas, f 85;
#X text 111 193 lblx [float] - x offset (horizontal) in pixels from
the top left corner of the canvas, f 85;
#X text 4 29 To set the values for your canvas object externally \,
send messages with the following signifiers to the 0 (leftmost) inlet:
, f 124;
#X msg 31 336 doll 1 \, rec myCanvas \, size 15 \, visw 500 \, vish
30 \, lblfon 0 \, lblsz 18 \, lblx 9 \, lbly 13 \, bgclr 10 \, lblclr
21, f 106;
#X text 111 67 rec [symbol] - receive symbol for the canvas, f 85
;
#X obj 90 241 cnv 5 5 5 empty \$0-canvas-format-helper-boldstatement1
Please\ note\ that\ the\ $-0\ designation\ (1\ or\ 0)\ MUST\ be\ sent\ first\,\ followed\ by\ the\ canvas\ 
1 9 0 12 #fcfcfc #fc0400 0;
#N canvas 2423 143 808 250 init 0;
#X msg 30 102 label \$1;
#X msg 419 120 label \$1;
#X obj 29 147 s \$0-canvas-format-helper-boldstatement1;
#X obj 418 164 s \$0-canvas-format-helper-boldstatement2;
#X obj 233 15 loadbang;
#X msg 420 51 symbol receive\ symbol!\ Failure\ to\ do\ so\ will\ cause\ incorrect\ parameter\ dispatching!
;
#X msg 26 43 symbol Please\\\ note\\\ that\\\ the\\\ $-0\\\ designation\\\ (1\\\ or\\\ 0)\\\ MUST\\\ be\\\ sent\\\ first\\\,\\\ followed\\\ by\\\ the\\\ canvas\\\ 
;
#X connect 0 0 2 0;
#X connect 1 0 3 0;
#X connect 4 0 5 0;
#X connect 4 0 6 0;
#X connect 5 0 1 0;
#X connect 6 0 0 0;
#X restore 659 9 pd init;
#X obj 90 257 cnv 5 5 5 empty \$0-canvas-format-helper-boldstatement2
receive\ symbol!\ Failure\ to\ do\ so\ will\ cause\ incorrect\ parameter\ dispatching!
1 9 0 12 #fcfcfc #fc0400 0;
#X msg 112 362 symbol this\ is\ my\ label!;
#X text 296 357 The label parameter must be sent separately to Inlet
1 (rightmost inlet). The message must be prepended with the "symbol"
identifier \, and the escape character () needs to be set in the message:
, f 68;
#X text 102 286 All parameters EXCEPT label can be sent in a single
message to Inlet 0 (leftmost inlet) like below (and this can be copied
and pasted for easy initializing formatting)., f 89;
#X restore 326 378 pd \$0-how-to-set-values-externally;
#X msg 326 336 vis 1;
#X obj 326 357 s pd-\$0-how-to-set-values-externally;
#X obj 120 263 bng 15 250 50 0 empty empty empty 17 7 0 10 #fcfcfc
#000000 #000000;
#X text 141 263 How to set canvas values externally;
#X text 891 18 All left-inlet messages;
#X text 984 47 Label text;
#X msg 636 48 symbol This\ is\ my\ label?;
#X obj 587 47 inlet;
#X obj 632 184 cnv 5 5 5 empty empty ↴ -3 3 0 24 #fcfcfc #606060
0;
#X connect 0 0 2 6;
#X connect 1 0 2 11;
#X connect 3 0 2 10;
#X connect 4 0 2 3;
#X connect 5 0 2 4;
#X connect 6 0 2 7;
#X connect 7 0 2 8;
#X connect 8 0 2 2;
#X connect 9 0 2 0;
#X connect 10 0 2 5;
#X connect 11 0 2 9;
#X connect 12 0 2 1;
#X connect 14 0 16 0;
#X connect 16 0 12 0;
#X connect 16 1 17 0;
#X connect 16 2 8 0;
#X connect 16 3 4 0;
#X connect 16 4 5 0;
#X connect 16 5 10 0;
#X connect 16 6 0 0;
#X connect 16 7 6 0;
#X connect 16 8 7 0;
#X connect 16 9 3 0;
#X connect 16 10 1 0;
#X connect 17 0 9 0;
#X connect 20 0 16 0;
#X connect 22 0 23 0;
#X connect 24 0 22 0;
#X connect 28 0 11 0;
#X connect 29 0 11 0;
#X coords 0 -1 1 1 300 190 2 100 100;
#X restore 25 27 pd graph;
#X obj 25 1 inlet;
#X connect 0 0 1 1;
#X connect 2 0 1 0;
#X restore 343 475 pd canvas-ctrl;
#N canvas 673 23 349 258 canvas-ctrl 0;
#X obj 291 1 inlet;
#N canvas 248 270 1089 459 graph 0;
#X floatatom 180 241 5 0 0 0 Lbl-Sz - - 0;
#X floatatom 273 241 5 0 29 0 Lbl-Clr - - 0;
#N canvas 32 23 1408 389 label-properties 0;
#X floatatom 314 72 3 18 100 0 - - - 0;
#X msg 314 99 size \$1;
#X obj 400 121 pack 100 60, f 18;
#X obj 491 93 t b f;
#X floatatom 491 68 4 18 100 0 - - - 0;
#X floatatom 400 68 4 18 100 0 - - - 0;
#X msg 400 148 vis_size \$1 \$2;
#X text 442 41 w/x;
#X text 532 41 h/y;
#X floatatom 589 116 4 0 3 0 - - - 0;
#X obj 721 135 t b f;
#X floatatom 721 116 5 5 50 0 - - - 0;
#X msg 589 185 label_font \$1 \$2;
#X text 632 41 type;
#X text 760 40 size;
#X obj 589 64 vradio 15 1 0 3 empty empty empty 0 -8 0 10 #fcfcfc #000000
#000000 0;
#X text 605 63 DejaVu Sans Mono;
#X text 605 78 Helvetica;
#X text 606 93 Times;
#X floatatom 817 71 4 -100 250 0 - - - 0;
#X obj 889 98 t b f;
#X floatatom 889 71 5 -150 150 0 - - - 0;
#X msg 817 148 label_pos \$1 \$2;
#X text 856 41 x;
#X text 929 41 y;
#X obj 817 126 pack 17 20, f 17;
#X obj 589 164 pack 0 25, f 24;
#X msg 973 129 label \$1;
#X floatatom 1191 70 3 0 29 1 bgColor - - 0;
#X floatatom 1295 70 3 0 29 1 lblColor - - 0;
#X obj 1295 92 t b f;
#X msg 1191 145 color \$1 \$2 \$3;
#X obj 1191 124 pack 1 22 22, f 14;
#X text 1170 18 Color Presets (0-29):;
#X obj 24 42 inlet;
#X obj 8 42 cnv 14 14 14 empty empty 0 4 8 0 12 #606060 #dcdcdc 0;
#X symbolatom 24 210 10 0 0 0 - - - 0;
#X obj 588 330 send, f 13;
#X obj 400 42 inlet;
#X obj 314 42 inlet;
#X obj 491 42 inlet;
#X obj 155 42 cnv 14 14 14 empty empty 1 4 8 0 12 #606060 #dcdcdc 0
;
#X obj 297 42 cnv 14 14 14 empty empty 2 4 8 0 12 #606060 #dcdcdc 0
;
#X obj 384 42 cnv 14 14 14 empty empty 3 4 8 0 12 #606060 #dcdcdc 0
;
#X obj 721 42 inlet;
#X obj 589 42 inlet;
#X obj 817 42 inlet;
#X obj 476 42 cnv 14 14 14 empty empty 4 4 8 0 12 #606060 #dcdcdc 0
;
#X obj 573 42 cnv 14 14 14 empty empty 5 4 8 0 12 #606060 #dcdcdc 0
;
#X obj 703 42 cnv 14 14 14 empty empty 6 4 8 0 12 #606060 #dcdcdc 0
;
#X text 315 18 Size;
#X text 421 18 Visible Size;
#X text 635 18 Label Font;
#X text 824 18 Label Offset;
#X obj 889 42 inlet;
#X obj 800 42 cnv 14 14 14 empty empty 7 4 8 0 12 #606060 #dcdcdc 0
;
#X msg 1052 89 symbol my\ label;
#X symbolatom 973 92 10 0 0 0 - - - 0;
#X obj 973 42 inlet;
#X obj 872 42 cnv 14 14 14 empty empty 8 4 8 0 12 #606060 #dcdcdc 0
;
#X msg 973 70 symbol \$1;
#X text 1007 18 Label Text;
#X obj 1191 42 inlet;
#X obj 958 42 cnv 14 14 14 empty empty 9 4 8 0 12 #606060 #dcdcdc 0
;
#X obj 1295 42 inlet;
#X obj 1174 42 cnv 14 14 14 empty empty 10 0 8 0 12 #606060 #dcdcdc
0;
#X text 0 18 Canvas Name;
#X obj 284 2 cnv 5 1 260 empty empty empty 20 12 0 14 #7c7c7c #404040
0;
#X obj 738 322 cnv 2 700 40 empty \$0-test_canvas tdh.synth.1oscil~
20 15 0 16 #a0a0a0 #202020 0;
#X obj 415 328 s \$0-test_canvas;
#X obj 210 187 spigot;
#X obj 170 88 tgl 15 0 empty empty empty 17 7 0 10 #fcfcfc #000000
#000000 0 1;
#X obj 249 134 == 1;
#X obj 101 135 == 0;
#X obj 144 134 list append \$0;
#X msg 144 157 symbol \$2-\$1;
#X msg 24 136 symbol \$1;
#X obj 24 167 spigot;
#X obj 170 42 inlet;
#X obj 1279 42 cnv 14 14 14 empty empty 11 0 8 0 12 #606060 #dcdcdc
0;
#X text 136 18 Add "\$0" option;
#X obj 374 2 cnv 5 1 260 empty empty empty 20 12 0 14 #7c7c7c #404040
0;
#X obj 561 2 cnv 5 1 260 empty empty empty 20 12 0 14 #7c7c7c #404040
0;
#X obj 791 2 cnv 5 1 260 empty empty empty 20 12 0 14 #7c7c7c #404040
0;
#X obj 944 2 cnv 5 1 260 empty empty empty 20 12 0 14 #7c7c7c #404040
0;
#X obj 1164 2 cnv 5 1 260 empty empty empty 20 12 0 14 #7c7c7c #404040
0;
#X connect 0 0 1 0;
#X connect 1 0 37 0;
#X connect 1 0 69 0;
#X connect 2 0 6 0;
#X connect 3 0 2 0;
#X connect 3 1 2 1;
#X connect 4 0 3 0;
#X connect 5 0 2 0;
#X connect 6 0 37 0;
#X connect 6 0 69 0;
#X connect 9 0 26 0;
#X connect 10 0 26 0;
#X connect 10 1 26 1;
#X connect 11 0 10 0;
#X connect 12 0 37 0;
#X connect 12 0 69 0;
#X connect 15 0 9 0;
#X connect 19 0 25 0;
#X connect 20 0 25 0;
#X connect 20 1 25 1;
#X connect 21 0 20 0;
#X connect 22 0 37 0;
#X connect 22 0 69 0;
#X connect 25 0 22 0;
#X connect 26 0 12 0;
#X connect 27 0 37 0;
#X connect 27 0 69 0;
#X connect 28 0 32 0;
#X connect 29 0 30 0;
#X connect 30 0 32 0;
#X connect 30 1 32 2;
#X connect 31 0 37 0;
#X connect 31 0 69 0;
#X connect 32 0 31 0;
#X connect 34 0 74 0;
#X connect 34 0 76 0;
#X connect 36 0 37 1;
#X connect 38 0 5 0;
#X connect 39 0 0 0;
#X connect 40 0 4 0;
#X connect 44 0 11 0;
#X connect 45 0 15 0;
#X connect 46 0 19 0;
#X connect 54 0 21 0;
#X connect 56 0 27 0;
#X connect 57 0 27 0;
#X connect 58 0 60 0;
#X connect 60 0 57 0;
#X connect 62 0 28 0;
#X connect 64 0 29 0;
#X connect 70 0 36 0;
#X connect 71 0 72 0;
#X connect 71 0 73 0;
#X connect 72 0 70 1;
#X connect 73 0 77 1;
#X connect 74 0 75 0;
#X connect 75 0 70 0;
#X connect 76 0 77 0;
#X connect 77 0 36 0;
#X connect 78 0 71 0;
#X restore 6 354 pd label-properties;
#X f 45;
#X floatatom 273 219 5 0 29 0 BG-Clr - - 0;
#X floatatom 180 174 5 0 0 0 Vis-Sz-W - - 0;
#X floatatom 181 198 5 0 0 0 Vis-Sz-H - - 0;
#X floatatom 271 150 5 0 0 0 Lbl-X - - 0;
#X floatatom 272 174 5 0 0 0 Lbl-Y - - 0;
#X floatatom 180 150 5 0 0 0 Size - - 0;
#X symbolatom 214 127 10 0 0 0 CnvReceiveSymbol - - 0;
#X floatatom 181 219 5 0 2 0 Lbl-Fon - - 0;
#X symbolatom 274 195 10 0 0 0 Lbl-Txt - - 0;
#X obj 295 128 tgl 15 0 empty empty Append_0 20 7 0 10 #fcfcfc #fc8000
#000000 0 1;
#X text 194 103 Label Properties;
#X obj 28 18 inlet;
#X obj 414 223 cnv 15 500 30 empty \$0-myCanvas This\\\ is\\\ my\\\ label?
9 13 0 18 #e0e0e0 #606060 0;
#X obj 28 54 route doll rec size visw vish lblfon lblsz lblx lbly bgclr
lblclr, f 66;
#X obj 56 93 symbol;
#X text 6 4 _;
#X text 479 173 dollarsign0-myCanvas;
#X msg 74 18 doll 1 \, rec myCanvas \, size 15 \, visw 50 \, vish 60
\, lblfon 0 \, lblsz 18 \, lblx 9 \, lbly 13 \, bgclr 10 \, lblclr
21, f 106;
#N canvas 240 66 752 410 \$0-how-to-set-values-externally 0;
#X text 112 49 doll [0/1] - toggle on appending "\$0-" at the start
of the recieve symbol, f 85;
#X text 112 102 visw [float] - the visible width of the canvas in pixels
, f 85;
#X text 112 85 size [float] - the size of the clickable/dragable portion
of the canvas in pixels, f 85;
#X text 112 122 vish [float] - the visible height of the canvas in
pixels, f 85;
#X text 111 141 lblfon [0/1/2] - font designation for the canvas' label
\, with [0] for Menlo \, [1] for, f 89;
#X text 131 155 Helvetica \, [2] for Times. Note that these fonts may
be different on Windows or Linux, f 84;
#X text 111 173 lblsz [float] - font size designation for the canvas'
label, f 85;
#X text 111 213 lbly [float] - y offset in pixels from the top left
corner of the canvas, f 85;
#X text 111 193 lblx [float] - x offset (horizontal) in pixels from
the top left corner of the canvas, f 85;
#X text 4 29 To set the values for your canvas object externally \,
send messages with the following signifiers to the 0 (leftmost) inlet:
, f 124;
#X msg 31 336 doll 1 \, rec myCanvas \, size 15 \, visw 500 \, vish
30 \, lblfon 0 \, lblsz 18 \, lblx 9 \, lbly 13 \, bgclr 10 \, lblclr
21, f 106;
#X text 111 67 rec [symbol] - receive symbol for the canvas, f 85
;
#X obj 90 241 cnv 5 5 5 empty \$0-canvas-format-helper-boldstatement1
Please\ note\ that\ the\ $-0\ designation\ (1\ or\ 0)\ MUST\ be\ sent\ first\,\ followed\ by\ the\ canvas\ 
1 9 0 12 #fcfcfc #fc0400 0;
#N canvas 2423 143 808 250 init 0;
#X msg 30 102 label \$1;
#X msg 419 120 label \$1;
#X obj 29 147 s \$0-canvas-format-helper-boldstatement1;
#X obj 418 164 s \$0-canvas-format-helper-boldstatement2;
#X obj 233 15 loadbang;
#X msg 420 51 symbol receive\ symbol!\ Failure\ to\ do\ so\ will\ cause\ incorrect\ parameter\ dispatching!
;
#X msg 26 43 symbol Please\\\ note\\\ that\\\ the\\\ $-0\\\ designation\\\ (1\\\ or\\\ 0)\\\ MUST\\\ be\\\ sent\\\ first\\\,\\\ followed\\\ by\\\ the\\\ canvas\\\ 
;
#X connect 0 0 2 0;
#X connect 1 0 3 0;
#X connect 4 0 5 0;
#X connect 4 0 6 0;
#X connect 5 0 1 0;
#X connect 6 0 0 0;
#X restore 659 9 pd init;
#X obj 90 257 cnv 5 5 5 empty \$0-canvas-format-helper-boldstatement2
receive\ symbol!\ Failure\ to\ do\ so\ will\ cause\ incorrect\ parameter\ dispatching!
1 9 0 12 #fcfcfc #fc0400 0;
#X msg 112 362 symbol this\ is\ my\ label!;
#X text 296 357 The label parameter must be sent separately to Inlet
1 (rightmost inlet). The message must be prepended with the "symbol"
identifier \, and the escape character () needs to be set in the message:
, f 68;
#X text 102 286 All parameters EXCEPT label can be sent in a single
message to Inlet 0 (leftmost inlet) like below (and this can be copied
and pasted for easy initializing formatting)., f 89;
#X restore 326 378 pd \$0-how-to-set-values-externally;
#X msg 326 336 vis 1;
#X obj 326 357 s pd-\$0-how-to-set-values-externally;
#X obj 120 263 bng 15 250 50 0 empty empty empty 17 7 0 10 #fcfcfc
#000000 #000000;
#X text 141 263 How to set canvas values externally;
#X text 891 18 All left-inlet messages;
#X text 984 47 Label text;
#X msg 636 48 symbol This\ is\ my\ label?;
#X obj 587 47 inlet;
#X obj 632 184 cnv 5 5 5 empty empty ↴ -3 3 0 24 #fcfcfc #606060
0;
#X connect 0 0 2 6;
#X connect 1 0 2 11;
#X connect 3 0 2 10;
#X connect 4 0 2 3;
#X connect 5 0 2 4;
#X connect 6 0 2 7;
#X connect 7 0 2 8;
#X connect 8 0 2 2;
#X connect 9 0 2 0;
#X connect 10 0 2 5;
#X connect 11 0 2 9;
#X connect 12 0 2 1;
#X connect 14 0 16 0;
#X connect 16 0 12 0;
#X connect 16 1 17 0;
#X connect 16 2 8 0;
#X connect 16 3 4 0;
#X connect 16 4 5 0;
#X connect 16 5 10 0;
#X connect 16 6 0 0;
#X connect 16 7 6 0;
#X connect 16 8 7 0;
#X connect 16 9 3 0;
#X connect 16 10 1 0;
#X connect 17 0 9 0;
#X connect 20 0 16 0;
#X connect 22 0 23 0;
#X connect 24 0 22 0;
#X connect 28 0 11 0;
#X connect 29 0 11 0;
#X coords 0 -1 1 1 300 190 2 100 100;
#X restore 25 27 pd graph;
#X obj 25 1 inlet;
#X connect 0 0 1 1;
#X connect 2 0 1 0;
#X restore 343 595 pd canvas-ctrl;
#N canvas 673 23 349 258 canvas-ctrl 0;
#X obj 291 1 inlet;
#N canvas 248 270 1089 459 graph 0;
#X floatatom 180 241 5 0 0 0 Lbl-Sz - - 0;
#X floatatom 273 241 5 0 29 0 Lbl-Clr - - 0;
#N canvas 32 23 1408 389 label-properties 0;
#X floatatom 314 72 3 18 100 0 - - - 0;
#X msg 314 99 size \$1;
#X obj 400 121 pack 100 60, f 18;
#X obj 491 93 t b f;
#X floatatom 491 68 4 18 100 0 - - - 0;
#X floatatom 400 68 4 18 100 0 - - - 0;
#X msg 400 148 vis_size \$1 \$2;
#X text 442 41 w/x;
#X text 532 41 h/y;
#X floatatom 589 116 4 0 3 0 - - - 0;
#X obj 721 135 t b f;
#X floatatom 721 116 5 5 50 0 - - - 0;
#X msg 589 185 label_font \$1 \$2;
#X text 632 41 type;
#X text 760 40 size;
#X obj 589 64 vradio 15 1 0 3 empty empty empty 0 -8 0 10 #fcfcfc #000000
#000000 0;
#X text 605 63 DejaVu Sans Mono;
#X text 605 78 Helvetica;
#X text 606 93 Times;
#X floatatom 817 71 4 -100 250 0 - - - 0;
#X obj 889 98 t b f;
#X floatatom 889 71 5 -150 150 0 - - - 0;
#X msg 817 148 label_pos \$1 \$2;
#X text 856 41 x;
#X text 929 41 y;
#X obj 817 126 pack 17 20, f 17;
#X obj 589 164 pack 0 25, f 24;
#X msg 973 129 label \$1;
#X floatatom 1191 70 3 0 29 1 bgColor - - 0;
#X floatatom 1295 70 3 0 29 1 lblColor - - 0;
#X obj 1295 92 t b f;
#X msg 1191 145 color \$1 \$2 \$3;
#X obj 1191 124 pack 1 22 22, f 14;
#X text 1170 18 Color Presets (0-29):;
#X obj 24 42 inlet;
#X obj 8 42 cnv 14 14 14 empty empty 0 4 8 0 12 #606060 #dcdcdc 0;
#X symbolatom 24 210 10 0 0 0 - - - 0;
#X obj 588 330 send, f 13;
#X obj 400 42 inlet;
#X obj 314 42 inlet;
#X obj 491 42 inlet;
#X obj 155 42 cnv 14 14 14 empty empty 1 4 8 0 12 #606060 #dcdcdc 0
;
#X obj 297 42 cnv 14 14 14 empty empty 2 4 8 0 12 #606060 #dcdcdc 0
;
#X obj 384 42 cnv 14 14 14 empty empty 3 4 8 0 12 #606060 #dcdcdc 0
;
#X obj 721 42 inlet;
#X obj 589 42 inlet;
#X obj 817 42 inlet;
#X obj 476 42 cnv 14 14 14 empty empty 4 4 8 0 12 #606060 #dcdcdc 0
;
#X obj 573 42 cnv 14 14 14 empty empty 5 4 8 0 12 #606060 #dcdcdc 0
;
#X obj 703 42 cnv 14 14 14 empty empty 6 4 8 0 12 #606060 #dcdcdc 0
;
#X text 315 18 Size;
#X text 421 18 Visible Size;
#X text 635 18 Label Font;
#X text 824 18 Label Offset;
#X obj 889 42 inlet;
#X obj 800 42 cnv 14 14 14 empty empty 7 4 8 0 12 #606060 #dcdcdc 0
;
#X msg 1052 89 symbol my\ label;
#X symbolatom 973 92 10 0 0 0 - - - 0;
#X obj 973 42 inlet;
#X obj 872 42 cnv 14 14 14 empty empty 8 4 8 0 12 #606060 #dcdcdc 0
;
#X msg 973 70 symbol \$1;
#X text 1007 18 Label Text;
#X obj 1191 42 inlet;
#X obj 958 42 cnv 14 14 14 empty empty 9 4 8 0 12 #606060 #dcdcdc 0
;
#X obj 1295 42 inlet;
#X obj 1174 42 cnv 14 14 14 empty empty 10 0 8 0 12 #606060 #dcdcdc
0;
#X text 0 18 Canvas Name;
#X obj 284 2 cnv 5 1 260 empty empty empty 20 12 0 14 #7c7c7c #404040
0;
#X obj 738 322 cnv 2 700 40 empty \$0-test_canvas tdh.synth.1oscil~
20 15 0 16 #a0a0a0 #202020 0;
#X obj 415 328 s \$0-test_canvas;
#X obj 210 187 spigot;
#X obj 170 88 tgl 15 0 empty empty empty 17 7 0 10 #fcfcfc #000000
#000000 0 1;
#X obj 249 134 == 1;
#X obj 101 135 == 0;
#X obj 144 134 list append \$0;
#X msg 144 157 symbol \$2-\$1;
#X msg 24 136 symbol \$1;
#X obj 24 167 spigot;
#X obj 170 42 inlet;
#X obj 1279 42 cnv 14 14 14 empty empty 11 0 8 0 12 #606060 #dcdcdc
0;
#X text 136 18 Add "\$0" option;
#X obj 374 2 cnv 5 1 260 empty empty empty 20 12 0 14 #7c7c7c #404040
0;
#X obj 561 2 cnv 5 1 260 empty empty empty 20 12 0 14 #7c7c7c #404040
0;
#X obj 791 2 cnv 5 1 260 empty empty empty 20 12 0 14 #7c7c7c #404040
0;
#X obj 944 2 cnv 5 1 260 empty empty empty 20 12 0 14 #7c7c7c #404040
0;
#X obj 1164 2 cnv 5 1 260 empty empty empty 20 12 0 14 #7c7c7c #404040
0;
#X connect 0 0 1 0;
#X connect 1 0 37 0;
#X connect 1 0 69 0;
#X connect 2 0 6 0;
#X connect 3 0 2 0;
#X connect 3 1 2 1;
#X connect 4 0 3 0;
#X connect 5 0 2 0;
#X connect 6 0 37 0;
#X connect 6 0 69 0;
#X connect 9 0 26 0;
#X connect 10 0 26 0;
#X connect 10 1 26 1;
#X connect 11 0 10 0;
#X connect 12 0 37 0;
#X connect 12 0 69 0;
#X connect 15 0 9 0;
#X connect 19 0 25 0;
#X connect 20 0 25 0;
#X connect 20 1 25 1;
#X connect 21 0 20 0;
#X connect 22 0 37 0;
#X connect 22 0 69 0;
#X connect 25 0 22 0;
#X connect 26 0 12 0;
#X connect 27 0 37 0;
#X connect 27 0 69 0;
#X connect 28 0 32 0;
#X connect 29 0 30 0;
#X connect 30 0 32 0;
#X connect 30 1 32 2;
#X connect 31 0 37 0;
#X connect 31 0 69 0;
#X connect 32 0 31 0;
#X connect 34 0 74 0;
#X connect 34 0 76 0;
#X connect 36 0 37 1;
#X connect 38 0 5 0;
#X connect 39 0 0 0;
#X connect 40 0 4 0;
#X connect 44 0 11 0;
#X connect 45 0 15 0;
#X connect 46 0 19 0;
#X connect 54 0 21 0;
#X connect 56 0 27 0;
#X connect 57 0 27 0;
#X connect 58 0 60 0;
#X connect 60 0 57 0;
#X connect 62 0 28 0;
#X connect 64 0 29 0;
#X connect 70 0 36 0;
#X connect 71 0 72 0;
#X connect 71 0 73 0;
#X connect 72 0 70 1;
#X connect 73 0 77 1;
#X connect 74 0 75 0;
#X connect 75 0 70 0;
#X connect 76 0 77 0;
#X connect 77 0 36 0;
#X connect 78 0 71 0;
#X restore 6 354 pd label-properties;
#X f 45;
#X floatatom 273 219 5 0 29 0 BG-Clr - - 0;
#X floatatom 180 174 5 0 0 0 Vis-Sz-W - - 0;
#X floatatom 181 198 5 0 0 0 Vis-Sz-H - - 0;
#X floatatom 271 150 5 0 0 0 Lbl-X - - 0;
#X floatatom 272 174 5 0 0 0 Lbl-Y - - 0;
#X floatatom 180 150 5 0 0 0 Size - - 0;
#X symbolatom 214 127 10 0 0 0 CnvReceiveSymbol - - 0;
#X floatatom 181 219 5 0 2 0 Lbl-Fon - - 0;
#X symbolatom 274 195 10 0 0 0 Lbl-Txt - - 0;
#X obj 295 128 tgl 15 0 empty empty Append_0 20 7 0 10 #fcfcfc #fc8000
#000000 0 1;
#X text 194 103 Label Properties;
#X obj 28 18 inlet;
#X obj 414 223 cnv 15 500 30 empty \$0-myCanvas This\\\ is\\\ my\\\ label?
9 13 0 18 #e0e0e0 #606060 0;
#X obj 28 54 route doll rec size visw vish lblfon lblsz lblx lbly bgclr
lblclr, f 66;
#X obj 56 93 symbol;
#X text 6 4 _;
#X text 479 173 dollarsign0-myCanvas;
#X msg 74 18 doll 1 \, rec myCanvas \, size 15 \, visw 50 \, vish 60
\, lblfon 0 \, lblsz 18 \, lblx 9 \, lbly 13 \, bgclr 10 \, lblclr
21, f 106;
#N canvas 240 66 752 410 \$0-how-to-set-values-externally 0;
#X text 112 49 doll [0/1] - toggle on appending "\$0-" at the start
of the recieve symbol, f 85;
#X text 112 102 visw [float] - the visible width of the canvas in pixels
, f 85;
#X text 112 85 size [float] - the size of the clickable/dragable portion
of the canvas in pixels, f 85;
#X text 112 122 vish [float] - the visible height of the canvas in
pixels, f 85;
#X text 111 141 lblfon [0/1/2] - font designation for the canvas' label
\, with [0] for Menlo \, [1] for, f 89;
#X text 131 155 Helvetica \, [2] for Times. Note that these fonts may
be different on Windows or Linux, f 84;
#X text 111 173 lblsz [float] - font size designation for the canvas'
label, f 85;
#X text 111 213 lbly [float] - y offset in pixels from the top left
corner of the canvas, f 85;
#X text 111 193 lblx [float] - x offset (horizontal) in pixels from
the top left corner of the canvas, f 85;
#X text 4 29 To set the values for your canvas object externally \,
send messages with the following signifiers to the 0 (leftmost) inlet:
, f 124;
#X msg 31 336 doll 1 \, rec myCanvas \, size 15 \, visw 500 \, vish
30 \, lblfon 0 \, lblsz 18 \, lblx 9 \, lbly 13 \, bgclr 10 \, lblclr
21, f 106;
#X text 111 67 rec [symbol] - receive symbol for the canvas, f 85
;
#X obj 90 241 cnv 5 5 5 empty \$0-canvas-format-helper-boldstatement1
Please\ note\ that\ the\ $-0\ designation\ (1\ or\ 0)\ MUST\ be\ sent\ first\,\ followed\ by\ the\ canvas\ 
1 9 0 12 #fcfcfc #fc0400 0;
#N canvas 2423 143 808 250 init 0;
#X msg 30 102 label \$1;
#X msg 419 120 label \$1;
#X obj 29 147 s \$0-canvas-format-helper-boldstatement1;
#X obj 418 164 s \$0-canvas-format-helper-boldstatement2;
#X obj 233 15 loadbang;
#X msg 420 51 symbol receive\ symbol!\ Failure\ to\ do\ so\ will\ cause\ incorrect\ parameter\ dispatching!
;
#X msg 26 43 symbol Please\\\ note\\\ that\\\ the\\\ $-0\\\ designation\\\ (1\\\ or\\\ 0)\\\ MUST\\\ be\\\ sent\\\ first\\\,\\\ followed\\\ by\\\ the\\\ canvas\\\ 
;
#X connect 0 0 2 0;
#X connect 1 0 3 0;
#X connect 4 0 5 0;
#X connect 4 0 6 0;
#X connect 5 0 1 0;
#X connect 6 0 0 0;
#X restore 659 9 pd init;
#X obj 90 257 cnv 5 5 5 empty \$0-canvas-format-helper-boldstatement2
receive\ symbol!\ Failure\ to\ do\ so\ will\ cause\ incorrect\ parameter\ dispatching!
1 9 0 12 #fcfcfc #fc0400 0;
#X msg 112 362 symbol this\ is\ my\ label!;
#X text 296 357 The label parameter must be sent separately to Inlet
1 (rightmost inlet). The message must be prepended with the "symbol"
identifier \, and the escape character () needs to be set in the message:
, f 68;
#X text 102 286 All parameters EXCEPT label can be sent in a single
message to Inlet 0 (leftmost inlet) like below (and this can be copied
and pasted for easy initializing formatting)., f 89;
#X restore 326 378 pd \$0-how-to-set-values-externally;
#X msg 326 336 vis 1;
#X obj 326 357 s pd-\$0-how-to-set-values-externally;
#X obj 120 263 bng 15 250 50 0 empty empty empty 17 7 0 10 #fcfcfc
#000000 #000000;
#X text 141 263 How to set canvas values externally;
#X text 891 18 All left-inlet messages;
#X text 984 47 Label text;
#X msg 636 48 symbol This\ is\ my\ label?;
#X obj 587 47 inlet;
#X obj 632 184 cnv 5 5 5 empty empty ↴ -3 3 0 24 #fcfcfc #606060
0;
#X connect 0 0 2 6;
#X connect 1 0 2 11;
#X connect 3 0 2 10;
#X connect 4 0 2 3;
#X connect 5 0 2 4;
#X connect 6 0 2 7;
#X connect 7 0 2 8;
#X connect 8 0 2 2;
#X connect 9 0 2 0;
#X connect 10 0 2 5;
#X connect 11 0 2 9;
#X connect 12 0 2 1;
#X connect 14 0 16 0;
#X connect 16 0 12 0;
#X connect 16 1 17 0;
#X connect 16 2 8 0;
#X connect 16 3 4 0;
#X connect 16 4 5 0;
#X connect 16 5 10 0;
#X connect 16 6 0 0;
#X connect 16 7 6 0;
#X connect 16 8 7 0;
#X connect 16 9 3 0;
#X connect 16 10 1 0;
#X connect 17 0 9 0;
#X connect 20 0 16 0;
#X connect 22 0 23 0;
#X connect 24 0 22 0;
#X connect 28 0 11 0;
#X connect 29 0 11 0;
#X coords 0 -1 1 1 300 190 2 100 100;
#X restore 25 27 pd graph;
#X obj 25 1 inlet;
#X connect 0 0 1 1;
#X connect 2 0 1 0;
#X restore 343 725 pd canvas-ctrl;
#N canvas 673 23 349 258 canvas-ctrl 0;
#X obj 291 1 inlet;
#N canvas 248 270 1089 459 graph 0;
#X floatatom 180 241 5 0 0 0 Lbl-Sz - - 0;
#X floatatom 273 241 5 0 29 0 Lbl-Clr - - 0;
#N canvas 32 23 1408 389 label-properties 0;
#X floatatom 314 72 3 18 100 0 - - - 0;
#X msg 314 99 size \$1;
#X obj 400 121 pack 100 60, f 18;
#X obj 491 93 t b f;
#X floatatom 491 68 4 18 100 0 - - - 0;
#X floatatom 400 68 4 18 100 0 - - - 0;
#X msg 400 148 vis_size \$1 \$2;
#X text 442 41 w/x;
#X text 532 41 h/y;
#X floatatom 589 116 4 0 3 0 - - - 0;
#X obj 721 135 t b f;
#X floatatom 721 116 5 5 50 0 - - - 0;
#X msg 589 185 label_font \$1 \$2;
#X text 632 41 type;
#X text 760 40 size;
#X obj 589 64 vradio 15 1 0 3 empty empty empty 0 -8 0 10 #fcfcfc #000000
#000000 0;
#X text 605 63 DejaVu Sans Mono;
#X text 605 78 Helvetica;
#X text 606 93 Times;
#X floatatom 817 71 4 -100 250 0 - - - 0;
#X obj 889 98 t b f;
#X floatatom 889 71 5 -150 150 0 - - - 0;
#X msg 817 148 label_pos \$1 \$2;
#X text 856 41 x;
#X text 929 41 y;
#X obj 817 126 pack 17 20, f 17;
#X obj 589 164 pack 0 25, f 24;
#X msg 973 129 label \$1;
#X floatatom 1191 70 3 0 29 1 bgColor - - 0;
#X floatatom 1295 70 3 0 29 1 lblColor - - 0;
#X obj 1295 92 t b f;
#X msg 1191 145 color \$1 \$2 \$3;
#X obj 1191 124 pack 1 22 22, f 14;
#X text 1170 18 Color Presets (0-29):;
#X obj 24 42 inlet;
#X obj 8 42 cnv 14 14 14 empty empty 0 4 8 0 12 #606060 #dcdcdc 0;
#X symbolatom 24 210 10 0 0 0 - - - 0;
#X obj 588 330 send, f 13;
#X obj 400 42 inlet;
#X obj 314 42 inlet;
#X obj 491 42 inlet;
#X obj 155 42 cnv 14 14 14 empty empty 1 4 8 0 12 #606060 #dcdcdc 0
;
#X obj 297 42 cnv 14 14 14 empty empty 2 4 8 0 12 #606060 #dcdcdc 0
;
#X obj 384 42 cnv 14 14 14 empty empty 3 4 8 0 12 #606060 #dcdcdc 0
;
#X obj 721 42 inlet;
#X obj 589 42 inlet;
#X obj 817 42 inlet;
#X obj 476 42 cnv 14 14 14 empty empty 4 4 8 0 12 #606060 #dcdcdc 0
;
#X obj 573 42 cnv 14 14 14 empty empty 5 4 8 0 12 #606060 #dcdcdc 0
;
#X obj 703 42 cnv 14 14 14 empty empty 6 4 8 0 12 #606060 #dcdcdc 0
;
#X text 315 18 Size;
#X text 421 18 Visible Size;
#X text 635 18 Label Font;
#X text 824 18 Label Offset;
#X obj 889 42 inlet;
#X obj 800 42 cnv 14 14 14 empty empty 7 4 8 0 12 #606060 #dcdcdc 0
;
#X msg 1052 89 symbol my\ label;
#X symbolatom 973 92 10 0 0 0 - - - 0;
#X obj 973 42 inlet;
#X obj 872 42 cnv 14 14 14 empty empty 8 4 8 0 12 #606060 #dcdcdc 0
;
#X msg 973 70 symbol \$1;
#X text 1007 18 Label Text;
#X obj 1191 42 inlet;
#X obj 958 42 cnv 14 14 14 empty empty 9 4 8 0 12 #606060 #dcdcdc 0
;
#X obj 1295 42 inlet;
#X obj 1174 42 cnv 14 14 14 empty empty 10 0 8 0 12 #606060 #dcdcdc
0;
#X text 0 18 Canvas Name;
#X obj 284 2 cnv 5 1 260 empty empty empty 20 12 0 14 #7c7c7c #404040
0;
#X obj 738 322 cnv 2 700 40 empty \$0-test_canvas tdh.synth.1oscil~
20 15 0 16 #a0a0a0 #202020 0;
#X obj 415 328 s \$0-test_canvas;
#X obj 210 187 spigot;
#X obj 170 88 tgl 15 0 empty empty empty 17 7 0 10 #fcfcfc #000000
#000000 0 1;
#X obj 249 134 == 1;
#X obj 101 135 == 0;
#X obj 144 134 list append \$0;
#X msg 144 157 symbol \$2-\$1;
#X msg 24 136 symbol \$1;
#X obj 24 167 spigot;
#X obj 170 42 inlet;
#X obj 1279 42 cnv 14 14 14 empty empty 11 0 8 0 12 #606060 #dcdcdc
0;
#X text 136 18 Add "\$0" option;
#X obj 374 2 cnv 5 1 260 empty empty empty 20 12 0 14 #7c7c7c #404040
0;
#X obj 561 2 cnv 5 1 260 empty empty empty 20 12 0 14 #7c7c7c #404040
0;
#X obj 791 2 cnv 5 1 260 empty empty empty 20 12 0 14 #7c7c7c #404040
0;
#X obj 944 2 cnv 5 1 260 empty empty empty 20 12 0 14 #7c7c7c #404040
0;
#X obj 1164 2 cnv 5 1 260 empty empty empty 20 12 0 14 #7c7c7c #404040
0;
#X connect 0 0 1 0;
#X connect 1 0 37 0;
#X connect 1 0 69 0;
#X connect 2 0 6 0;
#X connect 3 0 2 0;
#X connect 3 1 2 1;
#X connect 4 0 3 0;
#X connect 5 0 2 0;
#X connect 6 0 37 0;
#X connect 6 0 69 0;
#X connect 9 0 26 0;
#X connect 10 0 26 0;
#X connect 10 1 26 1;
#X connect 11 0 10 0;
#X connect 12 0 37 0;
#X connect 12 0 69 0;
#X connect 15 0 9 0;
#X connect 19 0 25 0;
#X connect 20 0 25 0;
#X connect 20 1 25 1;
#X connect 21 0 20 0;
#X connect 22 0 37 0;
#X connect 22 0 69 0;
#X connect 25 0 22 0;
#X connect 26 0 12 0;
#X connect 27 0 37 0;
#X connect 27 0 69 0;
#X connect 28 0 32 0;
#X connect 29 0 30 0;
#X connect 30 0 32 0;
#X connect 30 1 32 2;
#X connect 31 0 37 0;
#X connect 31 0 69 0;
#X connect 32 0 31 0;
#X connect 34 0 74 0;
#X connect 34 0 76 0;
#X connect 36 0 37 1;
#X connect 38 0 5 0;
#X connect 39 0 0 0;
#X connect 40 0 4 0;
#X connect 44 0 11 0;
#X connect 45 0 15 0;
#X connect 46 0 19 0;
#X connect 54 0 21 0;
#X connect 56 0 27 0;
#X connect 57 0 27 0;
#X connect 58 0 60 0;
#X connect 60 0 57 0;
#X connect 62 0 28 0;
#X connect 64 0 29 0;
#X connect 70 0 36 0;
#X connect 71 0 72 0;
#X connect 71 0 73 0;
#X connect 72 0 70 1;
#X connect 73 0 77 1;
#X connect 74 0 75 0;
#X connect 75 0 70 0;
#X connect 76 0 77 0;
#X connect 77 0 36 0;
#X connect 78 0 71 0;
#X restore 6 354 pd label-properties;
#X f 45;
#X floatatom 273 219 5 0 29 0 BG-Clr - - 0;
#X floatatom 180 174 5 0 0 0 Vis-Sz-W - - 0;
#X floatatom 181 198 5 0 0 0 Vis-Sz-H - - 0;
#X floatatom 271 150 5 0 0 0 Lbl-X - - 0;
#X floatatom 272 174 5 0 0 0 Lbl-Y - - 0;
#X floatatom 180 150 5 0 0 0 Size - - 0;
#X symbolatom 214 127 10 0 0 0 CnvReceiveSymbol - - 0;
#X floatatom 181 219 5 0 2 0 Lbl-Fon - - 0;
#X symbolatom 274 195 10 0 0 0 Lbl-Txt - - 0;
#X obj 295 128 tgl 15 0 empty empty Append_0 20 7 0 10 #fcfcfc #fc8000
#000000 0 1;
#X text 194 103 Label Properties;
#X obj 28 18 inlet;
#X obj 414 223 cnv 15 500 30 empty \$0-myCanvas This\\\ is\\\ my\\\ label?
9 13 0 18 #e0e0e0 #606060 0;
#X obj 28 54 route doll rec size visw vish lblfon lblsz lblx lbly bgclr
lblclr, f 66;
#X obj 56 93 symbol;
#X text 6 4 _;
#X text 479 173 dollarsign0-myCanvas;
#X msg 74 18 doll 1 \, rec myCanvas \, size 15 \, visw 50 \, vish 60
\, lblfon 0 \, lblsz 18 \, lblx 9 \, lbly 13 \, bgclr 10 \, lblclr
21, f 106;
#N canvas 240 66 752 410 \$0-how-to-set-values-externally 0;
#X text 112 49 doll [0/1] - toggle on appending "\$0-" at the start
of the recieve symbol, f 85;
#X text 112 102 visw [float] - the visible width of the canvas in pixels
, f 85;
#X text 112 85 size [float] - the size of the clickable/dragable portion
of the canvas in pixels, f 85;
#X text 112 122 vish [float] - the visible height of the canvas in
pixels, f 85;
#X text 111 141 lblfon [0/1/2] - font designation for the canvas' label
\, with [0] for Menlo \, [1] for, f 89;
#X text 131 155 Helvetica \, [2] for Times. Note that these fonts may
be different on Windows or Linux, f 84;
#X text 111 173 lblsz [float] - font size designation for the canvas'
label, f 85;
#X text 111 213 lbly [float] - y offset in pixels from the top left
corner of the canvas, f 85;
#X text 111 193 lblx [float] - x offset (horizontal) in pixels from
the top left corner of the canvas, f 85;
#X text 4 29 To set the values for your canvas object externally \,
send messages with the following signifiers to the 0 (leftmost) inlet:
, f 124;
#X msg 31 336 doll 1 \, rec myCanvas \, size 15 \, visw 500 \, vish
30 \, lblfon 0 \, lblsz 18 \, lblx 9 \, lbly 13 \, bgclr 10 \, lblclr
21, f 106;
#X text 111 67 rec [symbol] - receive symbol for the canvas, f 85
;
#X obj 90 241 cnv 5 5 5 empty \$0-canvas-format-helper-boldstatement1
Please\ note\ that\ the\ $-0\ designation\ (1\ or\ 0)\ MUST\ be\ sent\ first\,\ followed\ by\ the\ canvas\ 
1 9 0 12 #fcfcfc #fc0400 0;
#N canvas 2423 143 808 250 init 0;
#X msg 30 102 label \$1;
#X msg 419 120 label \$1;
#X obj 29 147 s \$0-canvas-format-helper-boldstatement1;
#X obj 418 164 s \$0-canvas-format-helper-boldstatement2;
#X obj 233 15 loadbang;
#X msg 420 51 symbol receive\ symbol!\ Failure\ to\ do\ so\ will\ cause\ incorrect\ parameter\ dispatching!
;
#X msg 26 43 symbol Please\\\ note\\\ that\\\ the\\\ $-0\\\ designation\\\ (1\\\ or\\\ 0)\\\ MUST\\\ be\\\ sent\\\ first\\\,\\\ followed\\\ by\\\ the\\\ canvas\\\ 
;
#X connect 0 0 2 0;
#X connect 1 0 3 0;
#X connect 4 0 5 0;
#X connect 4 0 6 0;
#X connect 5 0 1 0;
#X connect 6 0 0 0;
#X restore 659 9 pd init;
#X obj 90 257 cnv 5 5 5 empty \$0-canvas-format-helper-boldstatement2
receive\ symbol!\ Failure\ to\ do\ so\ will\ cause\ incorrect\ parameter\ dispatching!
1 9 0 12 #fcfcfc #fc0400 0;
#X msg 112 362 symbol this\ is\ my\ label!;
#X text 296 357 The label parameter must be sent separately to Inlet
1 (rightmost inlet). The message must be prepended with the "symbol"
identifier \, and the escape character () needs to be set in the message:
, f 68;
#X text 102 286 All parameters EXCEPT label can be sent in a single
message to Inlet 0 (leftmost inlet) like below (and this can be copied
and pasted for easy initializing formatting)., f 89;
#X restore 326 378 pd \$0-how-to-set-values-externally;
#X msg 326 336 vis 1;
#X obj 326 357 s pd-\$0-how-to-set-values-externally;
#X obj 120 263 bng 15 250 50 0 empty empty empty 17 7 0 10 #fcfcfc
#000000 #000000;
#X text 141 263 How to set canvas values externally;
#X text 891 18 All left-inlet messages;
#X text 984 47 Label text;
#X msg 636 48 symbol This\ is\ my\ label?;
#X obj 587 47 inlet;
#X obj 632 184 cnv 5 5 5 empty empty ↴ -3 3 0 24 #fcfcfc #606060
0;
#X connect 0 0 2 6;
#X connect 1 0 2 11;
#X connect 3 0 2 10;
#X connect 4 0 2 3;
#X connect 5 0 2 4;
#X connect 6 0 2 7;
#X connect 7 0 2 8;
#X connect 8 0 2 2;
#X connect 9 0 2 0;
#X connect 10 0 2 5;
#X connect 11 0 2 9;
#X connect 12 0 2 1;
#X connect 14 0 16 0;
#X connect 16 0 12 0;
#X connect 16 1 17 0;
#X connect 16 2 8 0;
#X connect 16 3 4 0;
#X connect 16 4 5 0;
#X connect 16 5 10 0;
#X connect 16 6 0 0;
#X connect 16 7 6 0;
#X connect 16 8 7 0;
#X connect 16 9 3 0;
#X connect 16 10 1 0;
#X connect 17 0 9 0;
#X connect 20 0 16 0;
#X connect 22 0 23 0;
#X connect 24 0 22 0;
#X connect 28 0 11 0;
#X connect 29 0 11 0;
#X coords 0 -1 1 1 300 190 2 100 100;
#X restore 25 27 pd graph;
#X obj 25 1 inlet;
#X connect 0 0 1 1;
#X connect 2 0 1 0;
#X restore 343 875 pd canvas-ctrl;
#N canvas 673 23 349 258 canvas-ctrl 0;
#X obj 291 1 inlet;
#N canvas 248 270 1089 459 graph 0;
#X floatatom 180 241 5 0 0 0 Lbl-Sz - - 0;
#X floatatom 273 241 5 0 29 0 Lbl-Clr - - 0;
#N canvas 32 23 1408 389 label-properties 0;
#X floatatom 314 72 3 18 100 0 - - - 0;
#X msg 314 99 size \$1;
#X obj 400 121 pack 100 60, f 18;
#X obj 491 93 t b f;
#X floatatom 491 68 4 18 100 0 - - - 0;
#X floatatom 400 68 4 18 100 0 - - - 0;
#X msg 400 148 vis_size \$1 \$2;
#X text 442 41 w/x;
#X text 532 41 h/y;
#X floatatom 589 116 4 0 3 0 - - - 0;
#X obj 721 135 t b f;
#X floatatom 721 116 5 5 50 0 - - - 0;
#X msg 589 185 label_font \$1 \$2;
#X text 632 41 type;
#X text 760 40 size;
#X obj 589 64 vradio 15 1 0 3 empty empty empty 0 -8 0 10 #fcfcfc #000000
#000000 0;
#X text 605 63 DejaVu Sans Mono;
#X text 605 78 Helvetica;
#X text 606 93 Times;
#X floatatom 817 71 4 -100 250 0 - - - 0;
#X obj 889 98 t b f;
#X floatatom 889 71 5 -150 150 0 - - - 0;
#X msg 817 148 label_pos \$1 \$2;
#X text 856 41 x;
#X text 929 41 y;
#X obj 817 126 pack 17 20, f 17;
#X obj 589 164 pack 0 25, f 24;
#X msg 973 129 label \$1;
#X floatatom 1191 70 3 0 29 1 bgColor - - 0;
#X floatatom 1295 70 3 0 29 1 lblColor - - 0;
#X obj 1295 92 t b f;
#X msg 1191 145 color \$1 \$2 \$3;
#X obj 1191 124 pack 1 22 22, f 14;
#X text 1170 18 Color Presets (0-29):;
#X obj 24 42 inlet;
#X obj 8 42 cnv 14 14 14 empty empty 0 4 8 0 12 #606060 #dcdcdc 0;
#X symbolatom 24 210 10 0 0 0 - - - 0;
#X obj 588 330 send, f 13;
#X obj 400 42 inlet;
#X obj 314 42 inlet;
#X obj 491 42 inlet;
#X obj 155 42 cnv 14 14 14 empty empty 1 4 8 0 12 #606060 #dcdcdc 0
;
#X obj 297 42 cnv 14 14 14 empty empty 2 4 8 0 12 #606060 #dcdcdc 0
;
#X obj 384 42 cnv 14 14 14 empty empty 3 4 8 0 12 #606060 #dcdcdc 0
;
#X obj 721 42 inlet;
#X obj 589 42 inlet;
#X obj 817 42 inlet;
#X obj 476 42 cnv 14 14 14 empty empty 4 4 8 0 12 #606060 #dcdcdc 0
;
#X obj 573 42 cnv 14 14 14 empty empty 5 4 8 0 12 #606060 #dcdcdc 0
;
#X obj 703 42 cnv 14 14 14 empty empty 6 4 8 0 12 #606060 #dcdcdc 0
;
#X text 315 18 Size;
#X text 421 18 Visible Size;
#X text 635 18 Label Font;
#X text 824 18 Label Offset;
#X obj 889 42 inlet;
#X obj 800 42 cnv 14 14 14 empty empty 7 4 8 0 12 #606060 #dcdcdc 0
;
#X msg 1052 89 symbol my\ label;
#X symbolatom 973 92 10 0 0 0 - - - 0;
#X obj 973 42 inlet;
#X obj 872 42 cnv 14 14 14 empty empty 8 4 8 0 12 #606060 #dcdcdc 0
;
#X msg 973 70 symbol \$1;
#X text 1007 18 Label Text;
#X obj 1191 42 inlet;
#X obj 958 42 cnv 14 14 14 empty empty 9 4 8 0 12 #606060 #dcdcdc 0
;
#X obj 1295 42 inlet;
#X obj 1174 42 cnv 14 14 14 empty empty 10 0 8 0 12 #606060 #dcdcdc
0;
#X text 0 18 Canvas Name;
#X obj 284 2 cnv 5 1 260 empty empty empty 20 12 0 14 #7c7c7c #404040
0;
#X obj 738 322 cnv 2 700 40 empty \$0-test_canvas tdh.synth.1oscil~
20 15 0 16 #a0a0a0 #202020 0;
#X obj 415 328 s \$0-test_canvas;
#X obj 210 187 spigot;
#X obj 170 88 tgl 15 0 empty empty empty 17 7 0 10 #fcfcfc #000000
#000000 0 1;
#X obj 249 134 == 1;
#X obj 101 135 == 0;
#X obj 144 134 list append \$0;
#X msg 144 157 symbol \$2-\$1;
#X msg 24 136 symbol \$1;
#X obj 24 167 spigot;
#X obj 170 42 inlet;
#X obj 1279 42 cnv 14 14 14 empty empty 11 0 8 0 12 #606060 #dcdcdc
0;
#X text 136 18 Add "\$0" option;
#X obj 374 2 cnv 5 1 260 empty empty empty 20 12 0 14 #7c7c7c #404040
0;
#X obj 561 2 cnv 5 1 260 empty empty empty 20 12 0 14 #7c7c7c #404040
0;
#X obj 791 2 cnv 5 1 260 empty empty empty 20 12 0 14 #7c7c7c #404040
0;
#X obj 944 2 cnv 5 1 260 empty empty empty 20 12 0 14 #7c7c7c #404040
0;
#X obj 1164 2 cnv 5 1 260 empty empty empty 20 12 0 14 #7c7c7c #404040
0;
#X connect 0 0 1 0;
#X connect 1 0 37 0;
#X connect 1 0 69 0;
#X connect 2 0 6 0;
#X connect 3 0 2 0;
#X connect 3 1 2 1;
#X connect 4 0 3 0;
#X connect 5 0 2 0;
#X connect 6 0 37 0;
#X connect 6 0 69 0;
#X connect 9 0 26 0;
#X connect 10 0 26 0;
#X connect 10 1 26 1;
#X connect 11 0 10 0;
#X connect 12 0 37 0;
#X connect 12 0 69 0;
#X connect 15 0 9 0;
#X connect 19 0 25 0;
#X connect 20 0 25 0;
#X connect 20 1 25 1;
#X connect 21 0 20 0;
#X connect 22 0 37 0;
#X connect 22 0 69 0;
#X connect 25 0 22 0;
#X connect 26 0 12 0;
#X connect 27 0 37 0;
#X connect 27 0 69 0;
#X connect 28 0 32 0;
#X connect 29 0 30 0;
#X connect 30 0 32 0;
#X connect 30 1 32 2;
#X connect 31 0 37 0;
#X connect 31 0 69 0;
#X connect 32 0 31 0;
#X connect 34 0 74 0;
#X connect 34 0 76 0;
#X connect 36 0 37 1;
#X connect 38 0 5 0;
#X connect 39 0 0 0;
#X connect 40 0 4 0;
#X connect 44 0 11 0;
#X connect 45 0 15 0;
#X connect 46 0 19 0;
#X connect 54 0 21 0;
#X connect 56 0 27 0;
#X connect 57 0 27 0;
#X connect 58 0 60 0;
#X connect 60 0 57 0;
#X connect 62 0 28 0;
#X connect 64 0 29 0;
#X connect 70 0 36 0;
#X connect 71 0 72 0;
#X connect 71 0 73 0;
#X connect 72 0 70 1;
#X connect 73 0 77 1;
#X connect 74 0 75 0;
#X connect 75 0 70 0;
#X connect 76 0 77 0;
#X connect 77 0 36 0;
#X connect 78 0 71 0;
#X restore 6 354 pd label-properties;
#X f 45;
#X floatatom 273 219 5 0 29 0 BG-Clr - - 0;
#X floatatom 180 174 5 0 0 0 Vis-Sz-W - - 0;
#X floatatom 181 198 5 0 0 0 Vis-Sz-H - - 0;
#X floatatom 271 150 5 0 0 0 Lbl-X - - 0;
#X floatatom 272 174 5 0 0 0 Lbl-Y - - 0;
#X floatatom 180 150 5 0 0 0 Size - - 0;
#X symbolatom 214 127 10 0 0 0 CnvReceiveSymbol - - 0;
#X floatatom 181 219 5 0 2 0 Lbl-Fon - - 0;
#X symbolatom 274 195 10 0 0 0 Lbl-Txt - - 0;
#X obj 295 128 tgl 15 0 empty empty Append_0 20 7 0 10 #fcfcfc #fc8000
#000000 0 1;
#X text 194 103 Label Properties;
#X obj 28 18 inlet;
#X obj 414 223 cnv 15 500 30 empty \$0-myCanvas This\\\ is\\\ my\\\ label?
9 13 0 18 #e0e0e0 #606060 0;
#X obj 28 54 route doll rec size visw vish lblfon lblsz lblx lbly bgclr
lblclr, f 66;
#X obj 56 93 symbol;
#X text 6 4 _;
#X text 479 173 dollarsign0-myCanvas;
#X msg 74 18 doll 1 \, rec myCanvas \, size 15 \, visw 50 \, vish 60
\, lblfon 0 \, lblsz 18 \, lblx 9 \, lbly 13 \, bgclr 10 \, lblclr
21, f 106;
#N canvas 240 66 752 410 \$0-how-to-set-values-externally 0;
#X text 112 49 doll [0/1] - toggle on appending "\$0-" at the start
of the recieve symbol, f 85;
#X text 112 102 visw [float] - the visible width of the canvas in pixels
, f 85;
#X text 112 85 size [float] - the size of the clickable/dragable portion
of the canvas in pixels, f 85;
#X text 112 122 vish [float] - the visible height of the canvas in
pixels, f 85;
#X text 111 141 lblfon [0/1/2] - font designation for the canvas' label
\, with [0] for Menlo \, [1] for, f 89;
#X text 131 155 Helvetica \, [2] for Times. Note that these fonts may
be different on Windows or Linux, f 84;
#X text 111 173 lblsz [float] - font size designation for the canvas'
label, f 85;
#X text 111 213 lbly [float] - y offset in pixels from the top left
corner of the canvas, f 85;
#X text 111 193 lblx [float] - x offset (horizontal) in pixels from
the top left corner of the canvas, f 85;
#X text 4 29 To set the values for your canvas object externally \,
send messages with the following signifiers to the 0 (leftmost) inlet:
, f 124;
#X msg 31 336 doll 1 \, rec myCanvas \, size 15 \, visw 500 \, vish
30 \, lblfon 0 \, lblsz 18 \, lblx 9 \, lbly 13 \, bgclr 10 \, lblclr
21, f 106;
#X text 111 67 rec [symbol] - receive symbol for the canvas, f 85
;
#X obj 90 241 cnv 5 5 5 empty \$0-canvas-format-helper-boldstatement1
Please\ note\ that\ the\ $-0\ designation\ (1\ or\ 0)\ MUST\ be\ sent\ first\,\ followed\ by\ the\ canvas\ 
1 9 0 12 #fcfcfc #fc0400 0;
#N canvas 2423 143 808 250 init 0;
#X msg 30 102 label \$1;
#X msg 419 120 label \$1;
#X obj 29 147 s \$0-canvas-format-helper-boldstatement1;
#X obj 418 164 s \$0-canvas-format-helper-boldstatement2;
#X obj 233 15 loadbang;
#X msg 420 51 symbol receive\ symbol!\ Failure\ to\ do\ so\ will\ cause\ incorrect\ parameter\ dispatching!
;
#X msg 26 43 symbol Please\\\ note\\\ that\\\ the\\\ $-0\\\ designation\\\ (1\\\ or\\\ 0)\\\ MUST\\\ be\\\ sent\\\ first\\\,\\\ followed\\\ by\\\ the\\\ canvas\\\ 
;
#X connect 0 0 2 0;
#X connect 1 0 3 0;
#X connect 4 0 5 0;
#X connect 4 0 6 0;
#X connect 5 0 1 0;
#X connect 6 0 0 0;
#X restore 659 9 pd init;
#X obj 90 257 cnv 5 5 5 empty \$0-canvas-format-helper-boldstatement2
receive\ symbol!\ Failure\ to\ do\ so\ will\ cause\ incorrect\ parameter\ dispatching!
1 9 0 12 #fcfcfc #fc0400 0;
#X msg 112 362 symbol this\ is\ my\ label!;
#X text 296 357 The label parameter must be sent separately to Inlet
1 (rightmost inlet). The message must be prepended with the "symbol"
identifier \, and the escape character () needs to be set in the message:
, f 68;
#X text 102 286 All parameters EXCEPT label can be sent in a single
message to Inlet 0 (leftmost inlet) like below (and this can be copied
and pasted for easy initializing formatting)., f 89;
#X restore 326 378 pd \$0-how-to-set-values-externally;
#X msg 326 336 vis 1;
#X obj 326 357 s pd-\$0-how-to-set-values-externally;
#X obj 120 263 bng 15 250 50 0 empty empty empty 17 7 0 10 #fcfcfc
#000000 #000000;
#X text 141 263 How to set canvas values externally;
#X text 891 18 All left-inlet messages;
#X text 984 47 Label text;
#X msg 636 48 symbol This\ is\ my\ label?;
#X obj 587 47 inlet;
#X obj 632 184 cnv 5 5 5 empty empty ↴ -3 3 0 24 #fcfcfc #606060
0;
#X connect 0 0 2 6;
#X connect 1 0 2 11;
#X connect 3 0 2 10;
#X connect 4 0 2 3;
#X connect 5 0 2 4;
#X connect 6 0 2 7;
#X connect 7 0 2 8;
#X connect 8 0 2 2;
#X connect 9 0 2 0;
#X connect 10 0 2 5;
#X connect 11 0 2 9;
#X connect 12 0 2 1;
#X connect 14 0 16 0;
#X connect 16 0 12 0;
#X connect 16 1 17 0;
#X connect 16 2 8 0;
#X connect 16 3 4 0;
#X connect 16 4 5 0;
#X connect 16 5 10 0;
#X connect 16 6 0 0;
#X connect 16 7 6 0;
#X connect 16 8 7 0;
#X connect 16 9 3 0;
#X connect 16 10 1 0;
#X connect 17 0 9 0;
#X connect 20 0 16 0;
#X connect 22 0 23 0;
#X connect 24 0 22 0;
#X connect 28 0 11 0;
#X connect 29 0 11 0;
#X coords 0 -1 1 1 300 190 2 100 100;
#X restore 25 27 pd graph;
#X obj 25 1 inlet;
#X connect 0 0 1 1;
#X connect 2 0 1 0;
#X restore 343 1005 pd canvas-ctrl;
#X text 136 971 \$0-helpPatchSecLabelNotes;
#X obj 438 201 inlet;
#X obj 692 181 inlet;
#X text 735 180 Width;
#X obj 692 206 f 501;
#X msg 692 229 visw \$1;
#X text 481 199 Abstraction Name;
#X text 459 354 <-- Open to actively control canvas values \, or to
see how to set values externally (as is done here), f 103;
#X obj 438 226 symbol;
#X obj 3 25 cnv 5 5 5 empty empty | 0 0 0 14 #fcfcfc #404040 0;
#X text 51 16 This is where the canvases get set. A VERY long list
of values get sent to the subpatch [pd canvas-ctrl]. These properties
can be addessed singularly through a key symbol (such as "size") and
then a value., f 187;
#X text 51 57 [pd canvas-ctrl] also has a GUI which you can access
by clicking on the object box. This is a good way to figure out canvas
values., f 132;
#X text 51 114 Note that the canvas LABEL cannot be set with this list
\, and must be set via the right inlet., f 95;
#X text 51 85 You can also click on the object box [pd how-to-use-canvas-ctrl]
to see how to set canvas values with a message (currently the only
way to save canvas values), f 160;
#X obj 343 289 loadbang;
#X obj 343 419 loadbang;
#X obj 692 254 s \$0-width;
#X obj 448 379 r \$0-width;
#X obj 450 475 r \$0-width;
#X obj 451 595 r \$0-width;
#X obj 343 527 loadbang;
#X obj 452 725 r \$0-width;
#X obj 343 649 loadbang;
#X obj 453 875 r \$0-width;
#X obj 343 797 loadbang;
#X obj 452 1005 r \$0-width;
#X obj 343 932 loadbang;
#X obj 3 995 cnv 5 5 5 empty empty | 0 0 0 14 #fcfcfc #404040 0;
#X obj 89 279 cnv 15 1200 1 empty empty Title 0 -15 0 18 #606060 #404040
0;
#X text 140 313 Canvas receive name:;
#X obj 88 408 cnv 15 1200 1 empty empty Section-Divider 0 -15 0 18
#606060 #404040 0;
#X obj 88 528 cnv 15 1200 1 empty empty Inlets 0 -15 0 18 #606060 #404040
0;
#X text 127 550 \$0-helpPatchSecLabelInlets;
#X obj 88 638 cnv 15 1200 1 empty empty Outlets 0 -15 0 18 #606060
#404040 0;
#X obj 88 778 cnv 15 1200 1 empty empty Arguments 0 -15 0 18 #606060
#404040 0;
#X obj 88 922 cnv 15 1200 1 empty empty Notes 0 -15 0 18 #606060 #404040
0;
#X obj 52 149 cnv 15 180 18 empty empty empty 20 12 0 14 #c4c4fc #404040
0;
#N canvas 1440 152 910 549 how-to-use-canvas-ctrl 0;
#X text 112 139 doll [0/1] - toggle on appending "\$0-" at the start
of the recieve symbol, f 85;
#X text 112 192 visw [float] - the visible width of the canvas in pixels
, f 85;
#X text 112 175 size [float] - the size of the clickable/dragable portion
of the canvas in pixels, f 85;
#X text 112 212 vish [float] - the visible height of the canvas in
pixels, f 85;
#X text 111 231 lblfon [0/1/2] - font designation for the canvas' label
\, with [0] for Menlo \, [1] for, f 89;
#X text 131 245 Helvetica \, [2] for Times. Note that these fonts may
be different on Windows or Linux, f 84;
#X text 111 263 lblsz [float] - font size designation for the canvas'
label, f 85;
#X text 111 303 lbly [float] - y offset in pixels from the top left
corner of the canvas, f 85;
#X text 111 283 lblx [float] - x offset (horizontal) in pixels from
the top left corner of the canvas, f 85;
#X text 4 119 To set the values for your canvas object externally \,
send messages with the following signifiers to the 0 (leftmost) inlet:
, f 124;
#X msg 31 426 doll 1 \, rec myCanvas \, size 15 \, visw 500 \, vish
30 \, lblfon 0 \, lblsz 18 \, lblx 9 \, lbly 13 \, bgclr 10 \, lblclr
21, f 106;
#X text 111 157 rec [symbol] - receive symbol for the canvas, f 85
;
#X obj 90 331 cnv 5 5 5 empty \$0-canvas-format-helper-boldstatement1
Please\ note\ that\ the\ $-0\ designation\ (1\ or\ 0)\ MUST\ be\ sent\ first\,\ followed\ by\ the\ canvas\ 
1 9 0 12 #fcfcfc #fc0400 0;
#N canvas 632 143 808 250 init 0;
#X msg 126 74 label \$1;
#X msg 489 71 label \$1;
#X obj 126 97 s \$0-canvas-format-helper-boldstatement1;
#X obj 489 94 s \$0-canvas-format-helper-boldstatement2;
#X obj 26 17 loadbang;
#X msg 489 41 symbol receive\ symbol!\ Failure\ to\ do\ so\ will\ cause\ incorrect\ parameter\ dispatching!
;
#X msg 126 43 symbol Please\\\ note\\\ that\\\ the\\\ $-0\\\ designation\\\ (1\\\ or\\\ 0)\\\ MUST\\\ be\\\ sent\\\ first\\\,\\\ followed\\\ by\\\ the\\\ canvas\\\ 
;
#X obj 98 203 s \$0-canvas-format-helper-title;
#X msg 54 180 label \$1;
#X msg 54 148 symbol Using\ [pd\ canvas-ctrl]\ and\ setting\ values\ externally
;
#X connect 0 0 2 0;
#X connect 1 0 3 0;
#X connect 4 0 5 0;
#X connect 4 0 6 0;
#X connect 5 0 1 0;
#X connect 6 0 0 0;
#X connect 8 0 7 0;
#X connect 9 0 8 0;
#X restore 704 13 pd init;
#X obj 90 347 cnv 5 5 5 empty \$0-canvas-format-helper-boldstatement2
receive\ symbol!\ Failure\ to\ do\ so\ will\ cause\ incorrect\ parameter\ dispatching!
1 9 0 12 #fcfcfc #fc0400 0;
#X msg 112 452 symbol this\ is\ my\ label!;
#X text 296 447 The label parameter must be sent separately to Inlet
1 (rightmost inlet). The message must be prepended with the "symbol"
identifier \, and the escape character () needs to be set in the message:
, f 68;
#X text 102 376 All parameters EXCEPT label can be sent in a single
message to Inlet 0 (leftmost inlet) like below (and this can be copied
and pasted for easy initializing formatting)., f 89;
#X obj 148 18 cnv 5 5 5 empty \$0-canvas-format-helper-title Using\\\ [pd\\\ canvas-ctrl]\\\ and\\\ setting\\\ values\\\ externally
1 9 0 12 #fcfcfc #fc0400 0;
#X text 6 43 By inserting a canvas into your patch \, giving it a RECEIVE
NAME (via properties) \, inserting the [canvas-ctrl] object into your
patch \, and finally telling [canvas-ctrl] the receive name via the
message [rec "receive name"( to the left inlet (type the text between
"[(" into a message box \, no quotes \, substituting "receive name"
for your name. *IF* your receive name has "\$0-" as a prefix (common
practice for [send] and [receive] names) \, you need to FIRST send
[canvas-ctrl] the message [doll 1( which tells the object that the
canbas name has "\$0-" at the start of its receive name., f 123;
#X restore 52 150 pd how-to-use-canvas-ctrl;
#X text 268 150 Click here to explore how to change the canvas properties
with a message, f 72;
#X obj 244 155 cnv 5 5 5 empty empty ⟵ -3 3 0 30 #fcfcfc #9c00fc
0;
#X msg 343 319 doll 1 \, rec helpPatchTitleBar \, size 15 \, visw 701
\, vish 40 \, lblfon 0 \, lblsz 18 \, lblx 9 \, lbly 20 \, bgclr 28
\, lblclr 8, f 123;
#X connect 2 0 15 1;
#X connect 3 0 15 0;
#X connect 4 0 14 0;
#X connect 5 0 16 0;
#X connect 6 0 16 1;
#X connect 8 0 17 1;
#X connect 9 0 17 0;
#X connect 11 0 18 0;
#X connect 12 0 18 1;
#X connect 20 0 27 0;
#X connect 21 0 23 0;
#X connect 23 0 24 0;
#X connect 24 0 35 0;
#X connect 27 0 0 1;
#X connect 33 0 59 0;
#X connect 34 0 4 0;
#X connect 36 0 0 0;
#X connect 37 0 14 0;
#X connect 38 0 15 0;
#X connect 39 0 3 0;
#X connect 39 0 2 0;
#X connect 40 0 16 0;
#X connect 41 0 5 0;
#X connect 41 0 6 0;
#X connect 42 0 17 0;
#X connect 43 0 9 0;
#X connect 43 0 8 0;
#X connect 44 0 18 0;
#X connect 45 0 11 0;
#X connect 45 0 12 0;
#X connect 59 0 0 0;
#X restore 191 233 pd cnv-set;
#X f 34;
#X obj 3 15 cnv 5 5 5 empty empty | 0 0 0 14 #fcfcfc #404040 0;
#X obj 274 107 loadbang;
#X obj 274 133 del 10;
#X text 11 159 EDIT HERE text after "symbol" to change the abstraction's
DISPLAY NAME, f 20;
#X text 17 47 The two most commonly changed fields \, DISPLAY NAME
and WIDTH can be changed by editing the [message( boxes below. Text
in [message( objects get saved to the patch., f 84;
#X obj 167 181 cnv 5 5 5 empty empty ⟶ -3 3 0 30 #fcfcfc #000000
0;
#X obj 465 180 cnv 5 5 5 empty empty ⟵ -3 3 0 30 #fcfcfc #000000
0;
#X text 486 168 EDIT HERE to change patch WIDTH, f 12;
#X text 16 4 This subpatch (and nested subpatches) helps set the uniform
titles and graphics for ABSTRACTIONS., f 84;
#X msg 426 179 700;
#X obj 188 273 r \$0-showRefButton;
#X msg 188 294 vis 1;
#X obj 188 315 s \$0-reference;
#X msg 191 177 symbol tdh.synth.1oscil~;
#X connect 2 0 3 0;
#X connect 3 0 14 0;
#X connect 3 0 10 0;
#X connect 10 0 0 1;
#X connect 11 0 12 0;
#X connect 12 0 13 0;
#X connect 14 0 0 0;
#X restore 620 49 pd help-init;
#X obj 612 21 cnv 8 83 16 empty empty tdh.lib 14 8 0 14 #dfdfdf #131255
0;
#N canvas 743 237 712 535 reference 0;
#X obj 559 50 namecanvas \$0-reference;
#X obj 2 73 cnv 2 700 3 empty \$0-helpPatchSecLabelInlets Inlets 20
15 0 16 #a0a0a0 #202020 0;
#X obj 3 357 cnv 2 700 3 empty \$0-helpPatchSecLabelOutlets Outlets
20 15 0 16 #a0a0a0 #202020 0;
#X obj 3 457 cnv 2 700 3 empty \$0-helpPatchSecLabelNotes Notes 20
15 0 16 #a0a0a0 #202020 0;
#X obj 3 407 cnv 2 700 3 empty \$0-helpPatchSecLabelArgs Arguments
20 15 0 16 #a0a0a0 #202020 0;
#X obj 3 1 cnv 15 700 40 empty \$0-helpPatchTitleBar tdh.synth.1oscil~
9 20 0 18 #001488 #dce4fc 0;
#X text 157 504 Cyclone library;
#X text 141 484 •;
#X text 141 504 •;
#X text 147 364 (sig);
#X text 197 364 Signal output (linear amplitude 0.0-1.0);
#X obj 124 385 cnv 14 18 14 empty empty 2 2 8 0 12 #606060 #dcdcdc
0;
#X text 146 385 (float);
#X obj 124 365 cnv 14 18 14 empty empty 1 2 8 0 12 #606060 #dcdcdc
0;
#X text 127 464 Dependencies:;
#X text 159 484 tdh.lib Library, f 16;
#X obj 122 237 cnv 14 18 14 empty empty 4 2 8 0 12 #606060 #dcdcdc
0;
#X obj 122 83 cnv 14 18 14 empty empty 1 2 8 0 12 #606060 #dcdcdc 0
;
#X obj 122 103 cnv 14 18 14 empty empty 2 2 8 0 12 #606060 #dcdcdc
0;
#X text 144 81 (float);
#X text 144 101 (float);
#X text 144 235 (float);
#X text 127 416 None;
#X text 194 81 Oscillator Shape (0-7);
#X text 194 101 Oscillator range designation (in CMP octaves where
C4 = 261.62 Hz, f 66;
#X text 144 121 (symbol);
#X text 194 121 freq <frequency> - Set oscillator frequency in Hz;
#X text 194 138 midi <pitch-number> - Set oscillator frequency in MIDI
pitch;
#X text 257 172 0 = C and 11 = B. Octave controlled by range setting
;
#X text 194 158 pc <pitch-class> - Set oscillator frequency in pitch
class \, where, f 66;
#X text 195 193 NOTE: for FREQ and MIDI designations \, RANGE is changed
based on the, f 67;
#X text 257 207 indicated value (Example: MIDI pitch 60 will change
the range to "4");
#X obj 122 257 cnv 14 18 14 empty empty 5 2 8 0 12 #606060 #dcdcdc
0;
#X obj 122 277 cnv 14 18 14 empty empty 6 2 8 0 12 #606060 #dcdcdc
0;
#X obj 122 297 cnv 14 18 14 empty empty 7 2 8 0 12 #606060 #dcdcdc
0;
#X text 144 295 (float);
#X obj 122 317 cnv 14 18 14 empty empty 8 2 8 0 12 #606060 #dcdcdc
0;
#X text 144 315 (float);
#X obj 122 337 cnv 14 18 14 empty empty 9 2 8 0 12 #606060 #dcdcdc
0;
#X text 144 335 (float);
#X text 194 235 Oscillator Volume (0.0-100.0);
#X text 144 255 (signal);
#X text 194 255 Input for frequency modulation;
#X text 144 275 (signal);
#X text 194 275 Input for amplitude modulation;
#X text 194 295 Oscillator frequency modulation depth (0-500%);
#X text 194 315 Oscillator amplitude modulation depth (0-100%);
#X text 194 335 Oscillator pitch glide time (0-500 ms);
#X text 196 385 Frequency value in Hz \, for synchronizing with other
oscillators, f 72;
#X obj 122 123 cnv 14 18 14 empty empty 3 2 8 0 12 #606060 #dcdcdc
0;
#X restore 534 49 pd reference;
#X obj 598 91 bng 15 250 50 0 \$0-showRefButton empty Show\\\ Reference
17 7 0 10 #c7c6ff #202020 #404040;
#X msg 153 236 freq \$1;
#X floatatom 153 216 5 0 0 0 - - - 0;
#X floatatom 163 259 5 0 0 0 - - - 0;
#X floatatom 173 303 5 0 0 0 - - - 0;
#X msg 173 322 pc \$1;
#X msg 163 279 midi \$1;
#X text 290 270 NOTE: specification in Hz or MIDI note will automatically
change the "Range" parameter, f 42;
#X text 278 280 *;
#X text 6 144 All oscillator parameters may be set via the GUI or via
external messages., f 111;
#X text 140 172 Oscil Waveshape (Set with integers 0-7);
#X text 166 194 Oscil Range (Using common-music-practice octave designations
0-9 - C4 = 261.62 Hz), f 85;
#X obj 256 222 cnv 5 5 5 empty empty ⎤ 0 0 0 14 #fcfcfc #404040 0
;
#X obj 259 238 cnv 5 5 5 empty empty ⎜ 0 0 0 14 #fcfcfc #404040 0
;
#X obj 256 332 cnv 5 5 5 empty empty ⎦ 0 0 0 14 #fcfcfc #404040 0
;
#X obj 259 254 cnv 5 5 5 empty empty ⎜ 0 0 0 14 #fcfcfc #404040 0
;
#X obj 259 270 cnv 5 5 5 empty empty ⎜ 0 0 0 14 #fcfcfc #404040 0
;
#X obj 259 286 cnv 5 5 5 empty empty ⎜ 0 0 0 14 #fcfcfc #404040 0
;
#X obj 259 302 cnv 5 5 5 empty empty ⎜ 0 0 0 14 #fcfcfc #404040 0
;
#X obj 259 319 cnv 5 5 5 empty empty ⎜ 0 0 0 14 #fcfcfc #404040 0
;
#X text 186 216 16-15000 Hz;
#X text 196 258 12-127;
#X text 207 303 0-11;
#X text 521 280 *;
#X text 276 228 Oscil Frequency/Pitch in Hz \, MIDI \, or Pitch Class
;
#X text 289 247 Use the messages;
#X msg 393 248 freq x;
#X msg 453 248 midi y;
#X msg 513 248 pc z;
#X text 12 655 Toggle "Embed" to save parameters settings at patch
save., f 14;
#X floatatom 261 412 5 0 0 1 Frequency\ modulation\ amount\ (0-100)
- - 0;
#X floatatom 287 432 5 0 0 1 Amplitude\ modulation\ amount\ (0-100)
- - 0;
#X floatatom 314 452 5 0 0 1 Glide\ time\ in\ milliseconds\ (0-500ms)
- - 0;
#X text 172 741 Signal output (remotely sent here to to th e[Audio
Output] module), f 20;
#X text 218 350 Logarithmic oscillator gain (0-100);
#X connect 2 0 20 0;
#X connect 3 0 20 1;
#X connect 4 0 20 3;
#X connect 7 0 5 0;
#X connect 7 0 5 1;
#X connect 12 0 20 4;
#X connect 13 0 20 5;
#X connect 20 0 6 0;
#X connect 20 1 10 0;
#X connect 28 0 20 2;
#X connect 29 0 28 0;
#X connect 30 0 33 0;
#X connect 31 0 32 0;
#X connect 32 0 20 2;
#X connect 33 0 20 2;
#X connect 57 0 20 6;
#X connect 58 0 20 7;
#X connect 59 0 20 8;
