#N canvas 2080 -181 1920 1035 8;
#X obj 469 46 inlet~ rightSignal;
#X obj 453 46 cnv 14 14 14 empty empty 1 4 8 0 12 -99865 -228856 0
;
#X obj 591 46 cnv 14 14 14 empty empty 2 4 8 0 12 -99865 -228856 0
;
#X obj 682 46 cnv 14 14 14 empty empty 3 4 8 0 12 -99865 -228856 0
;
#X obj 888 46 cnv 14 14 14 empty empty 5 4 8 0 12 -99865 -228856 0
;
#X obj 1040 46 cnv 14 14 14 empty empty 6 4 8 0 12 -99865 -228856 0
;
#X obj 306 634 outlet~ L;
#X obj 469 634 outlet~ R;
#X obj 120 289 hsl 64 15 0 1 0 0 \$0-panSlider-s \$0-panSlider-r empty
-2 -8 0 10 -262144 -1 -1 3150 1;
#X text 106 288 L;
#X text 190 288 R;
#X obj 904 46 inlet pan;
#X floatatom 137 307 5 0 0 0 - #0-panValue-r #0-panValue-s;
#X obj 130 142 vsl 14 118 0 2 0 0 \$0-linearFader-s \$0-linearFader-r
empty 0 -9 0 10 -262144 -1 -1 5850 1;
#X obj 152 142 vu 10 120 \$0-leftEnv empty -1 -8 0 10 -66577 -1 0 0
;
#X text 100 360 Out L;
#X text 174 360 Out R;
#X obj 987 142 loadbang;
#X msg 987 182 0.5;
#X obj 904 181 change;
#X obj 904 209 f;
#X obj 987 162 t b b;
#X msg 904 230 set \$1;
#X obj 904 116 expr if($f1 > 0 \, $f1 \, 0);
#X text 106 194 0dB;
#X floatatom 130 266 4 0 0 0 - #0-dBFS-amp-r #0-dBFS-amp-s;
#X text 101 179 +2dB;
#X text 101 139 +6dB;
#X text 101 208 -2dB;
#X text 101 224 -6dB;
#X text 101 249 -20dB;
#X msg 718 538 set \$1;
#X obj 698 111 else/db2lin;
#X obj 606 46 inlet gain-lin;
#X text 9 6 _;
#X obj 698 46 inlet gain-db;
#X obj 800 46 inlet~ sig-gain;
#N canvas 2048 40 679 731 snapshotter 0;
#X obj 311 25 inlet~;
#X obj 311 175 outlet~;
#X obj 190 210 outlet;
#X obj 190 140 snapshot~;
#X obj 190 30 loadbang;
#X msg 190 55 1;
#X obj 190 80 metro 5;
#X text 59 428 this facilitates a control-rate reading of the signal-rate
inlet for gain control \, for display purposes.;
#X obj 190 165 change;
#X connect 0 0 1 0;
#X connect 0 0 3 0;
#X connect 3 0 8 0;
#X connect 4 0 5 0;
#X connect 5 0 6 0;
#X connect 6 0 3 0;
#X connect 8 0 2 0;
#X restore 800 113 pd snapshotter;
#X obj 718 518 cyclone/atodb;
#X obj 844 518 else/db2lin;
#X obj 1056 136 s \$0-chanStripName;
#X obj 207 344 cnv 14 14 14 empty empty R 6 8 0 8 -261234 -128992 0
;
#X obj 1151 135 cnv 14 14 14 empty empty S 6 8 0 8 -261234 -128992
0;
#X msg 1056 117 label \$1;
#X obj 1059 422 s \$0-chStripNameEntry;
#X obj 1056 99 symbol \$1;
#N canvas 2596 -135 316 281 \$0-chStripNameEntry 0;
#N canvas 2672 -94 820 638 entryField 0;
#X symbolatom 108 124 25 0 0 0 - - -;
#X text 106 106 Enter Channel Name here;
#X obj 108 158 s \$0-chanStripName;
#X connect 0 0 2 0;
#X coords 0 -1 1 1 160 50 2 100 100;
#X restore 5 -20 pd entryField;
#X coords 0 281 1 280 85 60 0;
#X restore 1058 448 pd \$0-chStripNameEntry;
#X obj 1034 387 tgl 8 0 \$0-chStripNameEntryWindow empty empty 17 7
0 10 -262144 -1 -1 0 1;
#X msg 1059 401 vis \$1;
#X obj 1174 449 cnv 14 14 14 empty empty S 6 8 0 8 -261234 -128992
0;
#X obj 1059 376 r \$0-chStripNameEntryWindow;
#X text 1030 349 TO BE IMPLEMENTED;
#X obj 166 142 vu 10 120 \$0-rightEnv empty -1 -8 0 10 -66577 -1 1
0;
#X obj 823 304 loadbang;
#X msg 823 323 scale 0;
#X msg 871 324 size 10;
#X text 867 303 [vu] visual formatting;
#X obj 211 137 cnv 14 14 14 empty empty R 6 8 0 8 -261682 -128992 0
;
#X obj 601 145 cnv 14 14 14 empty empty R 6 8 0 8 -203904 -128992 0
;
#X obj 229 137 cnv 14 14 14 empty empty R 6 8 0 8 -262130 -128992 0
;
#X obj 58 299 cnv 14 14 14 empty empty R 6 8 0 8 -232576 -128992 0
;
#X obj 873 139 cnv 14 14 14 empty empty S 6 8 0 8 -203904 -128992 0
;
#X obj 964 362 cnv 14 14 14 empty empty S 6 8 0 8 -262130 -128992 0
;
#X obj 667 425 cnv 14 14 14 empty empty S 6 8 0 8 -232576 -128992 0
;
#X obj 307 185 *~;
#X obj 319 143 line~;
#X obj 324 435 env~;
#X obj 324 457 - 100;
#X msg 320 126 \$1 20;
#X obj 324 475 s \$0-leftEnv;
#X obj 389 475 cnv 14 14 14 empty empty S 6 8 0 8 -261682 -128992 0
;
#X obj 469 187 *~;
#X obj 481 145 line~;
#X obj 491 426 env~;
#X obj 491 448 - 100;
#X msg 481 128 \$1 20;
#X obj 307 46 inlet~ leftSignal;
#X obj 491 466 s \$0-rightEnv;
#X obj 823 363 s \$0-leftEnv;
#X obj 893 363 s \$0-rightEnv;
#X obj 806 362 cnv 14 14 14 empty empty S 6 8 0 8 -261682 -128992 0
;
#X obj 561 465 cnv 14 14 14 empty empty S 6 8 0 8 -262130 -128992 0
;
#X text 576 517 Convert from linear to dBFS;
#X text 588 493 Linear fader value (0-2);
#X obj 718 557 s \$0-dBFS-amp-r;
#X obj 320 100 r \$0-linearFader-s;
#X obj 481 100 r \$0-linearFader-s;
#X obj 718 495 r \$0-linearFader-s;
#X obj 844 496 r \$0-dBFS-amp-s;
#X text 943 494 dBFS -90-+6;
#X text 908 514 Convert to linear amp;
#X obj 844 561 s \$0-linearFader-r;
#X obj 698 139 s \$0-linearFader-r;
#X obj 427 144 cnv 14 14 14 empty empty R 6 8 0 8 -203904 -128992 0
;
#X obj 925 495 cnv 14 14 14 empty empty R 6 8 0 8 -4034 -128992 0;
#X obj 58 261 cnv 14 14 14 empty empty R 6 8 0 8 -257985 -128992 0
;
#X obj 56 243 cnv 14 14 14 empty empty R 6 8 0 8 -260097 -128992 0
;
#X obj 415 100 cnv 14 14 14 empty empty R 6 8 0 8 -258113 -99865 0
;
#X obj 781 393 cnv 14 14 14 empty empty R 6 8 0 8 -159808 -191407 0
;
#X obj 668 406 cnv 14 14 14 empty empty R 6 8 0 8 -4160 -191407 0;
#X obj 58 281 cnv 14 14 14 empty empty R 6 8 0 8 -4032 -128992 0;
#X obj 80 262 cnv 14 14 14 empty empty S 6 8 0 8 -4034 -128992 0;
#X obj 798 557 cnv 14 14 14 empty empty S 6 8 0 8 -257985 -128992 0
;
#X obj 939 560 cnv 14 14 14 empty empty S 6 8 0 8 -260097 -128992 0
;
#X obj 80 244 cnv 14 14 14 empty empty S 6 8 0 8 -258113 -99865 0;
#X obj 79 298 cnv 14 14 14 empty empty S 6 8 0 8 -159808 -191407 0
;
#X obj 80 280 cnv 14 14 14 empty empty S 6 8 0 8 -4160 -191407 0;
#X obj 1072 263 cnv 14 14 14 empty empty S 6 8 0 8 -4032 -128992 0
;
#X obj 576 100 cnv 14 14 14 empty empty R 6 8 0 8 -258113 -99865 0
;
#X obj 682 139 cnv 14 14 14 empty empty S 6 8 0 8 -260097 -128992 0
;
#X obj 813 495 cnv 14 14 14 empty empty R 6 8 0 8 -258113 -99865 0
;
#X obj 583 407 r \$0-panSlider-s;
#X obj 583 426 s \$0-panValue-r;
#X obj 700 393 r \$0-panValue-s;
#X msg 700 412 set \$1;
#X obj 700 432 s \$0-panSlider-r;
#X obj 987 264 s \$0-panSlider-r;
#X obj 785 431 cnv 14 14 14 empty empty S 6 8 0 8 -4032 -128992 0;
#X obj 324 386 line~;
#X msg 324 367 \$1 20;
#X obj 405 309 cnv 14 14 14 empty empty R 6 8 0 8 -159808 -191407 0
;
#X obj 324 309 r \$0-panValue-s;
#X obj 324 328 - 1;
#X obj 324 347 * -1;
#X obj 490 381 line~;
#X msg 490 362 \$1 20;
#X obj 571 342 cnv 14 14 14 empty empty R 6 8 0 8 -159808 -191407 0
;
#X obj 490 342 r \$0-panValue-s;
#X obj 291 46 cnv 14 14 14 empty empty 0 4 8 0 12 -99865 -228856 0
;
#X obj 784 46 cnv 14 14 14 empty empty 4 4 8 0 12 -99865 -228856 0
;
#X obj 290 634 cnv 14 14 14 empty empty 0 4 8 0 12 -99865 -228856 0
;
#X obj 453 634 cnv 14 14 14 empty empty 1 4 8 0 12 -99865 -228856 0
;
#X obj 800 139 s~ \$0-sigGain;
#X obj 356 143 r~ \$0-sigGain;
#X obj 529 145 r~ \$0-sigGain;
#X text 128 100 Ln;
#X text 145 100 dB;
#X text 163 100 V~;
#X text 128 122 Vol;
#X text 191 100 Nm;
#X text 178 100 Pn;
#X obj 469 401 *~;
#X obj 307 406 *~;
#X obj 102 326 cnv 15 102 14 empty \$0-objectName Stereo\ Channel 1
7 0 10 -228856 -66577 0;
#X obj 102 341 cnv 15 102 18 empty \$0-chanStripName empty 1 9 0 12
-203904 -66577 0;
#X obj 1175 137 s \$0-objectName;
#X obj 1056 46 inlet;
#X obj 1175 47 loadbang;
#X obj 1256 137 cnv 14 14 14 empty empty S 6 8 0 8 -228856 -128992
0;
#X obj 208 327 cnv 14 14 14 empty empty R 6 8 0 8 -228856 -128992 0
;
#X msg 1175 117 label Stereo\ Channel;
#X text 101 100 1;
#X text 115 100 2;
#X obj 1221 47 cnv 10 35 14 empty empty init 4 7 0 10 -232576 -128992
0;
#X obj 621 540 cnv 10 35 14 empty empty init 4 7 0 10 -232576 -128992
0;
#X obj 657 541 loadbang;
#X msg 657 561 0;
#X obj 343 257 line~;
#X msg 344 240 \$1 20;
#X obj 503 259 line~;
#X msg 504 242 \$1 20;
#X obj 503 205 sel 0 1;
#X obj 530 223 f 0;
#X obj 504 223 f 1;
#X obj 345 201 sel 0 1;
#X obj 372 219 f 0;
#X obj 344 219 f 1;
#X obj 307 285 *~;
#X obj 503 187 r \$0-mute-s;
#X obj 345 183 r \$0-mute-s;
#X obj 469 282 *~;
#X obj 634 224 cnv 14 35 14 empty empty init 4 7 0 10 -232576 -128992
0;
#X obj 589 262 s \$0-mute-r;
#X obj 207 266 cnv 14 14 14 empty empty S 6 8 0 8 -204786 -128992 0
;
#X obj 407 183 cnv 14 14 14 empty empty R 6 8 0 8 -204786 -128992 0
;
#X obj 564 188 cnv 14 14 14 empty empty R 6 8 0 8 -204786 -128992 0
;
#X msg 588 244 0;
#X obj 588 224 loadbang;
#X obj 222 266 cnv 14 14 14 empty empty R 6 8 0 8 -204800 -128992 0
;
#X obj 650 262 cnv 14 14 14 empty empty S 6 8 0 8 -204800 -128992 0
;
#X obj 158 267 tgl 12 0 \$0-mute-s \$0-mute-r M 3 6 0 10 -261689 -261689
-66577 0 1;
#X obj 793 224 cnv 5 5 5 empty empty ◼︎ -3 3 0 8 -262144 -204800
0;
#X obj 793 231 cnv 5 5 5 empty empty ◼︎ -3 3 0 8 -262144 -204786
0;
#N canvas 1738 289 915 515 muteButtonDisplay 0;
#X obj 152 67 sel 0 1;
#X text 27 108 When [tgl] is 0 \, change the background color to the
"off" color, f 23;
#X obj 152 22 r \$0-mute-s;
#X obj 152 157 s \$0-mute-r;
#X text 284 108 When [tgl] is 1 \, change the background color to the
"on" color \, AND change the foreground color (the "x") to the on color
\, so we don't see the "x" displayed, f 23;
#X obj 212 158 cnv 14 14 14 empty empty S 6 8 0 8 -204800 -128992 0
;
#X msg 222 110 color 13 13;
#X msg 152 112 color 3;
#X obj 214 23 cnv 14 14 14 empty empty R 6 8 0 8 -204786 -128992 0
;
#X connect 0 0 7 0;
#X connect 0 1 6 0;
#X connect 2 0 0 0;
#X connect 6 0 3 0;
#X connect 7 0 3 0;
#X restore 703 225 pd muteButtonDisplay;
#X connect 0 0 71 0;
#X connect 11 0 23 0;
#X connect 17 0 21 0;
#X connect 18 0 116 0;
#X connect 19 0 20 0;
#X connect 20 0 22 0;
#X connect 21 0 18 0;
#X connect 21 1 20 0;
#X connect 22 0 116 0;
#X connect 23 0 19 0;
#X connect 31 0 84 0;
#X connect 32 0 92 0;
#X connect 33 0 92 0;
#X connect 35 0 32 0;
#X connect 36 0 37 0;
#X connect 37 0 92 0;
#X connect 37 1 132 0;
#X connect 38 0 31 0;
#X connect 39 0 91 0;
#X connect 43 0 40 0;
#X connect 45 0 43 0;
#X connect 48 0 44 0;
#X connect 50 0 48 0;
#X connect 53 0 54 0;
#X connect 53 0 55 0;
#X connect 54 0 78 0;
#X connect 55 0 78 0;
#X connect 55 0 79 0;
#X connect 64 0 167 0;
#X connect 65 0 64 1;
#X connect 66 0 67 0;
#X connect 67 0 69 0;
#X connect 68 0 65 0;
#X connect 71 0 170 0;
#X connect 72 0 71 1;
#X connect 73 0 74 0;
#X connect 74 0 77 0;
#X connect 75 0 72 0;
#X connect 76 0 64 0;
#X connect 85 0 68 0;
#X connect 86 0 75 0;
#X connect 87 0 38 0;
#X connect 88 0 39 0;
#X connect 111 0 112 0;
#X connect 113 0 114 0;
#X connect 114 0 115 0;
#X connect 118 0 142 1;
#X connect 119 0 118 0;
#X connect 121 0 122 0;
#X connect 122 0 123 0;
#X connect 123 0 119 0;
#X connect 124 0 141 1;
#X connect 125 0 124 0;
#X connect 127 0 125 0;
#X connect 133 0 64 1;
#X connect 134 0 71 1;
#X connect 141 0 73 0;
#X connect 141 0 7 0;
#X connect 142 0 66 0;
#X connect 142 0 6 0;
#X connect 146 0 45 0;
#X connect 147 0 150 0;
#X connect 147 0 45 0;
#X connect 150 0 145 0;
#X connect 155 0 156 0;
#X connect 156 0 84 0;
#X connect 157 0 167 1;
#X connect 158 0 157 0;
#X connect 159 0 170 1;
#X connect 160 0 159 0;
#X connect 161 0 163 0;
#X connect 161 1 162 0;
#X connect 162 0 160 0;
#X connect 163 0 160 0;
#X connect 164 0 166 0;
#X connect 164 1 165 0;
#X connect 165 0 158 0;
#X connect 166 0 158 0;
#X connect 167 0 142 0;
#X connect 168 0 161 0;
#X connect 169 0 164 0;
#X connect 170 0 141 0;
#X connect 176 0 172 0;
#X connect 177 0 176 0;
#X coords 0 -1 1 1 105 275 2 100 100;
