#N canvas 133 39 591 654 10;
#X text 16 34 Travis Houldcroft || travishouldcroft.com;
#X text 18 220 All waveform generating code is an implementation of code discussed in "Making Voltage Controlled Oscillators in Pure Data" by Alexandros Drymonitis (drymonitis.me).;
#X obj 19 399 phasor~;
#X obj 61 423 *~ -1;
#X obj 61 448 +~ 1;
#X text 105 431 <-- Produces an inverted phasor;
#X obj 19 489 min~;
#X obj 19 519 *~ 4;
#X obj 19 549 -~ 1;
#X text 58 539 <-- Produces a triangle wave -1 to 1;
#X text 59 514 <-- Produces a triangle wave 0 to 2;
#X text 58 483 <-- Produces a triangle wave from 0 to 0.5;
#X obj 19 579 outlet~;
#X obj 0 0 cnv 15 552 26 empty empty tdh.synth.oscil-tri~ 20 12 0 14 #e0e0e0 #404040 0;
#X obj 0 58 cnv 15 551 8 empty empty Inlets 20 15 0 14 #e0e0e0 #404040 0;
#X text 20 87 0;
#X text 42 87 -;
#X obj 0 128 cnv 15 551 8 empty empty Outlets 20 15 0 14 #e0e0e0 #404040 0;
#X text 20 157 0;
#X text 42 157 -;
#X text 64 157 (sig) waveform;
#X text 64 87 (float) oscillator frequency;
#X obj 0 188 cnv 15 549 8 empty empty Note 20 15 0 14 #e0e0e0 #404040 0;
#X text 69 278 Freq (Data);
#X obj 19 279 inlet~;
#X obj 99 309 loadbang;
#X obj 99 339 f \$1;
#X obj 99 369 sig~;
#X connect 2 0 3 0;
#X connect 2 0 6 0;
#X connect 3 0 4 0;
#X connect 4 0 6 1;
#X connect 6 0 7 0;
#X connect 7 0 8 0;
#X connect 8 0 12 0;
#X connect 24 0 2 0;
#X connect 25 0 26 0;
#X connect 26 0 27 0;
#X connect 27 0 2 0;
