#N canvas 1835 -109 1390 853 10;
#X obj -249 328 lop~;
#X obj -207 328 hip~;
#X obj -166 327 bp~, f 6;
#N canvas 130 159 906 516 gate4~ 0;
#X obj 130 438 *~;
#X obj 205 443 *~;
#X obj 145 413 line~;
#X obj 220 417 line~;
#X obj 399 14 inlet~;
#X obj 130 474 outlet~;
#X obj 145 382 pack f 20;
#X obj 223 380 pack f 20;
#X obj 205 472 outlet~;
#X obj 295 437 *~;
#X obj 370 442 *~;
#X obj 310 412 line~;
#X obj 385 416 line~;
#X obj 295 473 outlet~;
#X obj 310 381 pack f 20;
#X obj 388 379 pack f 20;
#X obj 370 471 outlet~;
#X msg 44 93 0 0 0 0 0 0 0 0;
#X msg 56 118 1 0 0 0 0 0 0 0;
#X msg 66 137 0 1 0 0 0 0 0 0;
#X msg 76 158 0 0 1 0 0 0 0 0;
#X msg 84 182 0 0 0 1 0 0 0 0;
#X obj 43 24 inlet controlInteger;
#X obj 68 320 unpack f f f f f f f f;
#X obj 42 59 sel 0 1 2 3 4;
#X text 462 10 This code is based (read: copied) entirely from Christopher
Ariza's abstration "mgGate4~" \, a part of the Martingale Library (https://code.google.com/p/martingale/).
;
#X connect 0 0 5 0;
#X connect 1 0 8 0;
#X connect 2 0 0 1;
#X connect 3 0 1 1;
#X connect 4 0 0 0;
#X connect 4 0 1 0;
#X connect 4 0 9 0;
#X connect 4 0 10 0;
#X connect 6 0 2 0;
#X connect 7 0 3 0;
#X connect 9 0 13 0;
#X connect 10 0 16 0;
#X connect 11 0 9 1;
#X connect 12 0 10 1;
#X connect 14 0 11 0;
#X connect 15 0 12 0;
#X connect 17 0 23 0;
#X connect 18 0 23 0;
#X connect 19 0 23 0;
#X connect 20 0 23 0;
#X connect 21 0 23 0;
#X connect 22 0 24 0;
#X connect 23 0 6 0;
#X connect 23 1 7 0;
#X connect 23 2 14 0;
#X connect 23 3 15 0;
#X connect 24 0 17 0;
#X connect 24 1 18 0;
#X connect 24 2 19 0;
#X connect 24 3 20 0;
#X connect 24 4 21 0;
#X restore -249 266 pd gate4~;
#X obj -366 74 inlet~ signal;
#X obj -89 73 inlet cutoff_freq;
#X obj -249 74 inlet filter_type;
#X obj 29 73 inlet res;
#X floatatom 131 138 5 0 0 0 - - - 0;
#X text 169 136 Cut-off Freq.;
#X floatatom 131 154 5 0 0 0 - - - 0;
#X text 169 152 Q (BP Only);
#X obj 192 73 f \$1;
#X obj 131 73 f \$2;
#X obj 161 73 f \$3;
#X floatatom -159 285 5 0 0 1 Cutoff - - 0;
#X floatatom -84 285 5 0 0 1 Q - - 0;
#X text -678 101 Arguments:;
#X text -676 56 Travis Houldcroft;
#X text -677 69 thouldcroft@gmail.com;
#X text -677 81 travishouldcroft.com;
#X text -678 18 Multi-Mode Filter;
#X text -678 29 tdh.sigproc.mmfilt~.pd;
#X text -669 115 1: Filter Type (0: LP \, 1: HP \, 2: BP);
#X text -669 126 2: Cut-off Frequency;
#X text -669 137 3: Resonance/Q (BP Only);
#X obj -366 630 outlet~;
#X obj 131 48 loadbang;
#X obj 296 132 vradio 15 1 0 3 empty empty empty 0 -8 0 10 #fcfcfc
#000000 #000000 0;
#X obj -249 174 r filt_type_select;
#X obj -249 196 + 1;
#X obj -249 118 s inlet_filt_select_msg;
#X text 313 130 LP;
#X text 313 147 HP;
#X text 313 163 BP;
#X obj -152 472 hsl 64 15 0 1 0 0 empty empty empty -2 -8 0 10 #fcfcfc
#000000 #000000 0 1;
#X obj -366 572 *~;
#X obj -155 495 - 1;
#X obj -155 517 * -1;
#X obj -249 572 *~;
#X obj 134 171 hsl 64 15 0 1 0 0 empty empty empty 70 7 0 10 #fcfcfc
#000000 #000000 0 1;
#X text -343 571 Dry Sig;
#X text -225 571 Wet Sig;
#X floatatom 203 171 5 0 0 0 - - - 0;
#X text 236 170 Dry/Wet;
#X obj 356 178 s filt_type_select;
#X floatatom -232 219 5 0 0 0 - - - 0;
#X text -85 471 Dry/Wet;
#X text -201 219 DEBUG;
#X obj 296 79 r inlet_filt_select_msg;
#X text 220 71 Arguments;
#X text 100 234 Out;
#X text 152 100 Type;
#X text 212 100 Freq;
#X text 280 100 Q;
#X text 100 100 Sig;
#X text 115 116 Multi-Mode Filter;
#X obj -249 96 change;
#X obj -89 95 change;
#X obj 29 95 change;
#X obj 496 55 inlet drywet;
#X text 326 100 D/W;
#X obj 101 204 cnv 15 248 27 empty empty Multi-Mode\\\ Filter 20 12
0 14 #e0e0e0 #404040 0;
#X obj -166 348 bp~, f 6;
#X obj -166 369 bp~, f 6;
#X obj -166 390 bp~, f 6;
#X obj -249 349 lop~;
#X obj -249 370 lop~;
#X obj -249 391 lop~;
#X obj -207 349 hip~;
#X obj -207 370 hip~;
#X obj -207 391 hip~;
#X connect 0 0 66 0;
#X connect 1 0 69 0;
#X connect 2 0 63 0;
#X connect 3 0 0 0;
#X connect 3 1 1 0;
#X connect 3 2 2 0;
#X connect 4 0 3 1;
#X connect 4 0 36 0;
#X connect 5 0 58 0;
#X connect 6 0 57 0;
#X connect 7 0 59 0;
#X connect 8 0 15 0;
#X connect 10 0 16 0;
#X connect 12 0 28 0;
#X connect 13 0 8 0;
#X connect 14 0 10 0;
#X connect 15 0 0 1;
#X connect 15 0 1 1;
#X connect 15 0 2 1;
#X connect 15 0 66 1;
#X connect 15 0 68 1;
#X connect 15 0 67 1;
#X connect 15 0 69 1;
#X connect 15 0 71 1;
#X connect 15 0 70 1;
#X connect 15 0 65 1;
#X connect 15 0 64 1;
#X connect 15 0 63 1;
#X connect 16 0 2 2;
#X connect 16 0 63 2;
#X connect 16 0 65 2;
#X connect 16 0 64 2;
#X connect 27 0 14 0;
#X connect 27 0 13 0;
#X connect 27 0 12 0;
#X connect 28 0 45 0;
#X connect 29 0 30 0;
#X connect 30 0 46 0;
#X connect 30 0 3 0;
#X connect 35 0 37 0;
#X connect 35 0 39 1;
#X connect 36 0 26 0;
#X connect 37 0 38 0;
#X connect 38 0 36 1;
#X connect 39 0 26 0;
#X connect 40 0 35 0;
#X connect 40 0 43 0;
#X connect 49 0 28 0;
#X connect 57 0 31 0;
#X connect 58 0 8 0;
#X connect 59 0 10 0;
#X connect 60 0 40 0;
#X connect 63 0 64 0;
#X connect 64 0 65 0;
#X connect 65 0 39 0;
#X connect 66 0 67 0;
#X connect 67 0 68 0;
#X connect 68 0 39 0;
#X connect 69 0 70 0;
#X connect 70 0 71 0;
#X connect 71 0 39 0;
#X coords 0 -1 1 1 250 150 2 100 100;
