#N canvas 2080 -181 1920 1035 8;
#X obj 292 806 outlet~ L;
#X obj 483 806 outlet~ R;
#X obj 1248 38 inlet pan;
#X obj 927 39 inlet gain-lin;
#X text 9 7 _;
#X obj 1042 38 inlet gain-db;
#X obj 1144 38 inlet~ sig-gain;
#X obj 277 47 cnv 14 14 14 empty empty 0 4 8 0 12 #606060 #dcdcdc 0
;
#X obj 911 39 cnv 14 14 14 empty empty 1 4 8 0 12 #606060 #dcdcdc 0
;
#X obj 1026 38 cnv 14 14 14 empty empty 2 4 8 0 12 #606060 #dcdcdc
0;
#X obj 1131 38 cnv 14 14 14 empty empty 3 4 8 0 12 #606060 #dcdcdc
0;
#X obj 1232 38 cnv 14 14 14 empty empty 4 4 8 0 12 #606060 #dcdcdc
0;
#X obj 1385 39 cnv 14 14 14 empty empty 5 4 8 0 12 #606060 #dcdcdc
0;
#X obj 276 805 cnv 14 14 14 empty empty 0 4 8 0 12 #606060 #dcdcdc
0;
#X obj 467 806 cnv 14 14 14 empty empty 1 4 8 0 12 #606060 #dcdcdc
0;
#X obj 1400 39 inlet;
#X obj 1445 38 loadbang;
#X obj 1490 38 cnv 14 35 14 empty empty init 4 7 0 10 #e0c4fc #7c7c7c
0;
#X obj 120 291 hsl 64 15 0 1 0 0 \$0-panSlider1-s \$0-panSlider1-r
empty -2 -8 0 10 #fcfcfc #000000 #000000 0 1;
#X text 106 290 L;
#X text 190 290 R;
#X floatatom 137 309 5 0 0 0 - \$0-panValue1-r \$0-panValue1-s 0;
#X obj 134 144 vsl 14 118 0.03 3 1 0 \$0-linearFader1-s \$0-linearFader1-r
empty 0 -9 0 10 #fcfcfc #000000 #000000 0 1;
#X text 110 166 0dB;
#X floatatom 127 268 4 0 0 0 - \$0-dBFS-amp1-r \$0-dBFS-amp1-s 0;
#X text 105 159 +2dB;
#X text 105 148 +6dB;
#X text 105 173 -2dB;
#X text 105 183 -6dB;
#X obj 60 304 cnv 14 14 14 empty empty R 6 8 0 8 #fcc4c4 #7c7c7c 0
;
#X obj 152 144 vu 10 120 \$0-chEnvL empty -1 -8 0 10 #404040 #000000
0 0;
#X obj 75 139 cnv 14 14 14 empty empty R 6 8 0 8 #fce0c4 #7c7c7c 0
;
#X obj 21 323 cnv 14 14 14 empty empty R 6 8 0 8 #e0c4fc #7c7c7c 0
;
#X obj 21 285 cnv 14 14 14 empty empty R 6 8 0 8 #f8fc00 #7c7c7c 0
;
#X obj 21 266 cnv 14 14 14 empty empty R 6 8 0 8 #fc8000 #7c7c7c 0
;
#X obj 21 304 cnv 14 14 14 empty empty R 6 8 0 8 #00f8fc #7c7c7c 0
;
#X obj 40 285 cnv 14 14 14 empty empty S 6 8 0 8 #00fc04 #7c7c7c 0
;
#X obj 40 266 cnv 14 14 14 empty empty S 6 8 0 8 #fc0400 #606060 0
;
#X obj 40 323 cnv 14 14 14 empty empty S 6 8 0 8 #9c00fc #b8b8b8 0
;
#X obj 40 304 cnv 14 14 14 empty empty S 6 8 0 8 #0400fc #b8b8b8 0
;
#X text 128 124 Vol;
#X obj 101 347 cnv 12 102 14 empty \$0-objectName Stereo\ Channel 1
7 0 10 #dcdcdc #404040 0;
#X obj 101 327 cnv 15 102 18 empty \$0-chanStripName1 empty 1 9 0 12
#c4c4fc #404040 0;
#X obj 192 472 cnv 14 14 14 empty empty S 6 8 0 8 #dcdcdc #7c7c7c 0
;
#X obj 82 344 cnv 14 14 14 empty empty R 6 8 0 8 #dcdcdc #7c7c7c 0
;
#X obj 61 266 cnv 14 14 14 empty empty S 6 8 0 8 #c4fcc4 #7c7c7c 0
;
#X obj 81 266 cnv 14 14 14 empty empty R 6 8 0 8 #c4fcfc #7c7c7c 0
;
#X obj 166 269 tgl 12 0 \$0-preFader1-s \$0-preFader1-r PS 1 6 0 8
#d8fcd8 #d8fcd8 #606060 0 1;
#X obj 107 472 s \$0-objectName;
#X text 100 136 +10dB;
#X text 100 200 -12dB;
#X text 100 225 -20dB;
#X text 101 254 -30dB;
#X text 127 135 -;
#X text 127 148 -;
#X text 127 159 -;
#X text 127 166 -;
#X text 127 173 -;
#X text 127 182 -;
#X text 127 200 -;
#X text 127 225 -;
#X text 127 254 -;
#X obj 37 98 cnv 5 5 5 {empty} {empty} {+10dB\\\ -} 0 0 0 10 #ffffff
#ffffff 0;
#X symbolatom 103 328 16 0 0 0 - \$0-nameEntry1-r \$0-nameEntry1-s
10;
#X obj 107 434 loadbang;
#X msg 1273 517 set \$1;
#X obj 1273 497 cyclone/atodb;
#X obj 1399 497 else/db2lin;
#X obj 959 444 loadbang;
#X msg 959 493 scale 0;
#X msg 1007 494 size 10;
#X text 1003 443 [vu] visual formatting;
#X obj 1073 634 cnv 14 14 14 empty empty S 6 8 0 8 #e0c4fc #7c7c7c
0;
#X obj 292 551 *~;
#X obj 554 519 line~;
#X obj 315 350 env~;
#X obj 315 367 - 100;
#X msg 555 502 \$1 20;
#X obj 300 384 cnv 14 14 14 empty empty S 6 8 0 8 #fce0c4 #7c7c7c 0
;
#X obj 943 533 cnv 14 14 14 empty empty S 6 8 0 8 #fce0c4 #7c7c7c 0
;
#X text 1131 496 Convert from linear to dBFS;
#X text 1143 472 Linear fader value (0-2);
#X text 1498 473 dBFS -90-+6;
#X text 1463 493 Convert to linear amp;
#X obj 662 519 cnv 14 14 14 empty empty R 6 8 0 8 #c4c4fc #7c7c7c 0
;
#X obj 1484 474 cnv 14 14 14 empty empty R 6 8 0 8 #00fc04 #7c7c7c
0;
#X obj 654 476 cnv 14 14 14 empty empty R 6 8 0 8 #fc0400 #606060 0
;
#X obj 1186 602 cnv 14 14 14 empty empty R 6 8 0 8 #9c00fc #b8b8b8
0;
#X obj 1074 615 cnv 14 14 14 empty empty R 6 8 0 8 #0400fc #b8b8b8
0;
#X obj 1358 536 cnv 14 14 14 empty empty S 6 8 0 8 #f8fc00 #7c7c7c
0;
#X obj 1499 540 cnv 14 14 14 empty empty S 6 8 0 8 #fc8000 #7c7c7c
0;
#X obj 1373 473 cnv 14 14 14 empty empty R 6 8 0 8 #fc0400 #606060
0;
#X msg 1099 621 set \$1;
#X obj 1189 642 cnv 14 14 14 empty empty S 6 8 0 8 #00f8fc #7c7c7c
0;
#X obj 495 666 line~;
#X msg 495 647 \$1 20;
#X obj 845 598 cnv 14 14 14 empty empty R 6 8 0 8 #9c00fc #b8b8b8 0
;
#X obj 394 114 cnv 14 14 14 empty empty R 6 8 0 8 #c4fcc4 #7c7c7c 0
;
#X obj 293 240 *~;
#X obj 1234 517 cnv 14 35 14 empty empty init 4 7 0 10 #e0c4fc #7c7c7c
0;
#X msg 1188 537 0;
#X obj 1188 517 loadbang;
#X obj 307 138 cnv 4 500 1 empty empty Mute 0 -4 0 10 #bbbbbb #7c7c7c
0;
#X obj 310 576 cnv 4 500 1 empty empty Pan 0 -4 0 10 #bbbbbb #7c7c7c
0;
#X obj 300 457 cnv 4 450 1 empty empty Fader\\\ and\\\ Meter\\\ Handling
0 -4 0 10 #bbbbbb #7c7c7c 0;
#N canvas 2007 281 1034 419 prePostButtonDisplay 1;
#X obj 180 56 sel 0 1;
#X text 8 97 When [tgl] is 0 \, change the background color to the
"off" color, f 23;
#X obj 264 145 cnv 14 14 14 empty empty S 6 8 0 8 #c4fcfc #7c7c7c 0
;
#X obj 266 10 cnv 14 14 14 empty empty R 6 8 0 8 #c4fcc4 #7c7c7c 0
;
#X obj 180 11 r \$0-preFader1-s;
#X text 378 78 When [tgl] is 1 \, change the background color to the
"on" color \, AND change the foreground color (the "x") to the "on"
color \, so we don't see the "x" displayed (it blends into the background
color), f 23;
#X obj 87 135 loadbang;
#X msg 179 101 label PR;
#X msg 318 102 label PS;
#X msg 133 100 color 16;
#X msg 246 101 color 6 6;
#X msg 109 218 0;
#X obj 109 188 del 5;
#X obj 69 189 del 5;
#X obj 87 155 t b b;
#X msg 72 219 1;
#X obj 180 146 s \$0-preFader1-r;
#X connect 0 0 9 0;
#X connect 0 0 7 0;
#X connect 0 1 10 0;
#X connect 0 1 8 0;
#X connect 4 0 0 0;
#X connect 6 0 14 0;
#X connect 7 0 16 0;
#X connect 8 0 16 0;
#X connect 9 0 16 0;
#X connect 10 0 16 0;
#X connect 11 0 16 0;
#X connect 12 0 11 0;
#X connect 13 0 15 0;
#X connect 14 0 13 0;
#X connect 14 1 12 0;
#X connect 15 0 16 0;
#X restore 664 323 pd prePostButtonDisplay;
#X obj 1399 540 s \$0-linearFader1-r;
#X obj 555 476 r \$0-linearFader1-s;
#X obj 588 519 r~ \$0-sigGain1;
#X obj 759 598 r \$0-panValue1-s;
#X obj 1099 602 r \$0-panValue1-s;
#X obj 982 616 r \$0-panSlider1-s;
#X obj 982 635 s \$0-panValue1-r;
#X obj 1099 641 s \$0-panSlider1-r;
#X obj 1273 474 r \$0-linearFader1-s;
#X obj 1273 536 s \$0-dBFS-amp1-r;
#X obj 1399 475 r \$0-dBFS-amp1-s;
#X obj 362 313 r \$0-preFader1-s;
#N canvas 1462 397 450 300 router~ 0;
#X obj 338 122 sel 0 1;
#X msg 241 149 1, f 1;
#X msg 258 149 0, f 1;
#X msg 376 155 1, f 1;
#X msg 354 155 0, f 1;
#X obj 43 203 *~;
#X obj 237 239 *~;
#X obj 338 39 inlet ctrl;
#X obj 43 33 inlet~ pre;
#X obj 103 34 inlet~ post;
#X obj 42 246 outlet~ pre;
#X obj 340 253 outlet;
#X connect 0 0 1 0;
#X connect 0 0 2 0;
#X connect 0 1 3 0;
#X connect 0 1 4 0;
#X connect 1 0 5 1;
#X connect 2 0 6 1;
#X connect 3 0 6 1;
#X connect 4 0 5 1;
#X connect 5 0 10 0;
#X connect 6 0 10 0;
#X connect 7 0 0 0;
#X connect 7 0 11 0;
#X connect 8 0 5 0;
#X connect 9 0 6 0;
#X restore 315 331 pd router~;
#X obj 447 314 cnv 14 14 14 empty empty R 6 8 0 8 #c4fcc4 #7c7c7c 0
;
#X obj 309 282 cnv 4 500 1 empty empty Pre-Post\\\ Routing 0 -4 0 10
#bbbbbb #7c7c7c 0;
#X text 325 286 Pre-fader signal, f 9;
#X text 337 417 Post-fader signal, f 10;
#X text 323 420 <-;
#X text 312 291 <-;
#X text 380 386 To meter;
#X obj 292 706 *~;
#X obj 483 708 *~;
#X obj 304 688 line~;
#X msg 304 669 \$1 20;
#X obj 304 630 - 1;
#X obj 304 649 * -1;
#X obj 1326 144 loadbang;
#X msg 1326 184 0.5;
#X obj 1243 183 change;
#X obj 1243 211 f;
#X obj 1326 164 t b b;
#X msg 1243 232 set \$1;
#X obj 1243 118 expr if($f1 > 0 \, $f1 \, 0);
#X obj 1037 113 else/db2lin;
#N canvas 2048 40 679 731 snapshotter 0;
#X obj 311 25 inlet~;
#X obj 311 175 outlet~;
#X obj 190 210 outlet;
#X obj 190 140 snapshot~;
#X obj 190 30 loadbang;
#X msg 190 55 1;
#X obj 190 80 metro 5;
#X text 59 428 this facilitates a control-rate reading of the signal-rate
inlet for gain control \, for display purposes.;
#X obj 190 165 change;
#X connect 0 0 1 0;
#X connect 0 0 3 0;
#X connect 3 0 8 0;
#X connect 4 0 5 0;
#X connect 5 0 6 0;
#X connect 6 0 3 0;
#X connect 8 0 2 0;
#X restore 1139 115 pd snapshotter;
#X obj 1546 281 s \$0-chStripNameEntry;
#X obj 1395 101 symbol \$1;
#N canvas 2596 -135 316 281 \$0-chStripNameEntry 0;
#N canvas 2672 -94 820 638 entryField 0;
#X symbolatom 108 124 25 0 0 0 - - - 0;
#X text 106 106 Enter Channel Name here;
#X obj 108 158 s \$0-chanStripName;
#X connect 0 0 2 0;
#X coords 0 -1 1 1 160 50 2 100 100;
#X restore 5 -20 pd entryField;
#X coords 0 281 1 280 85 60 0;
#X restore 1545 307 pd \$0-chStripNameEntry;
#X obj 1533 239 tgl 8 0 \$0-chStripNameEntryWindow empty empty 17 7
0 10 #fcfcfc #000000 #000000 0 1;
#X msg 1546 260 vis \$1;
#X obj 1661 308 cnv 14 14 14 empty empty S 6 8 0 8 #fcc4c4 #7c7c7c
0;
#X text 1541 218 TO BE IMPLEMENTED;
#X obj 1214 141 cnv 14 14 14 empty empty S 6 8 0 8 #c4c4fc #7c7c7c
0;
#X obj 1417 265 cnv 14 14 14 empty empty S 6 8 0 8 #00f8fc #7c7c7c
0;
#X obj 1021 139 cnv 14 14 14 empty empty S 6 8 0 8 #fc8000 #7c7c7c
0;
#X obj 1037 140 s \$0-linearFader1-r;
#X obj 1139 140 s~ \$0-sigGain1;
#X obj 1326 266 s \$0-panSlider1-r;
#X obj 1546 235 r \$0-NameEntry1;
#X obj 1396 172 s \$0-nameEntry1-r;
#X msg 1395 149 set \$1;
#N canvas 1280 -209 692 358 argDefaultS 0;
#X obj 307 269 outlet;
#X obj 405 236 cnv 15 90 20 empty empty empty 0 8 0 14 #c7c6ff #404040
0;
#X text 499 237 Set DEFAULT here;
#X obj 292 52 cnv 14 14 14 empty empty 0 4 8 0 12 #606060 #dcdcdc 0
;
#X obj 291 269 cnv 14 14 14 empty empty 0 4 8 0 12 #606060 #dcdcdc
0;
#X obj 472 50 cnv 14 14 14 empty empty 1 4 8 0 12 #606060 #dcdcdc 0
;
#X obj 307 52 inlet argument;
#X obj 307 76 list fromsymbol;
#X obj 307 127 route list, f 17;
#X obj 307 238 list tosymbol;
#X obj 406 213 t b;
#X obj 487 50 inlet changeDefault;
#X text 91 51 Use [loadbang]-> [s $#] to send the argument value into
this subpatch, f 32;
#X text 67 101 If an argument has been supplied \, it will appear as
a list \, and [route] will send that list ("[symbol argument(" ) out
the right outlet. If no argument has been supplied \, only the word
"symbol" will be delivered to [route] \, and it will not be interpreted
as a list \, thus sending this data out the right outlet., f 38;
#X text 50 210 The list from [route]'s right outlet is converted back
to a symbol and sent to the outlet. The message from [route]'s right
outlet is just the message [symbol( \, so we use that to trigger a
"bang" which causes the [symbol default] object to output the symbol
"default" \, which is send to the outlet., f 37;
#X obj 406 238 symbol ChannelName;
#X connect 6 0 7 0;
#X connect 7 0 8 0;
#X connect 8 0 9 0;
#X connect 8 1 10 0;
#X connect 9 0 0 0;
#X connect 10 0 15 0;
#X connect 11 0 15 1;
#X connect 15 0 0 0;
#X restore 1396 121 pd argDefaultS;
#X obj 101 360 cnv 1 102 2 empty empty empty 1 7 0 10 #404040 #404040
0;
#X obj 101 114 cnv 1 102 2 empty empty empty 1 7 0 10 #404040 #404040
0;
#X obj 101 361 cnv 10 90 12 empty empty OutL 0 6 0 8 #dfdfdf #404040
0;
#X obj 183 361 cnv 10 20 12 empty empty OutR 0 6 0 8 #dfdfdf #404040
0;
#X obj 101 103 cnv 10 103 12 empty empty L 0 6 0 8 #dfdfdf #404040
0;
#X obj 132 103 cnv 10 20 12 empty empty Ln 0 6 0 8 #dfdfdf #404040
0;
#X obj 148 103 cnv 10 20 12 empty empty dB 0 6 0 8 #dfdfdf #404040
0;
#X obj 167 103 cnv 10 20 12 empty empty V~ 0 6 0 8 #dfdfdf #404040
0;
#X obj 180 103 cnv 10 20 12 empty empty Pn 0 6 0 8 #dfdfdf #404040
0;
#X obj 193 103 cnv 10 10 12 empty empty Nm 0 6 0 8 #dfdfdf #404040
0;
#X obj 151 269 tgl 12 0 \$0-mute-s \$0-mute-r M 3 7 0 12 #fce0e0 #fce0e0
#000000 0 1;
#X obj 495 190 tdh.lib/tdh.util.declick~;
#X obj 496 164 r \$0-mute-s;
#N canvas 1815 262 832 483 muteDisplay 0;
#X obj 368 346 loadbang;
#X msg 368 367 1;
#X obj 315 389 s \$0-mute-r;
#X obj 303 267 sel 0 1;
#X msg 303 312 color 13;
#X msg 373 310 color 3 3;
#X text 314 -17 Using a [tgl] for a mute control is convienient but
the "state" needs to be swapped a bit. When a mute is "ON" it is going
to mute the volume \, which requires the gain control to receive a
"0" \, however when a [tgl] is "ON" it sends a "1". All that ultimately
needs to be done is to set the [tgl] "ON" when the patch is loaded
(as long as we want the mute to be "OFF" at the onset) \, and set the
display colors to respond in an opposite fashion to the [tgl] state
- when [tgl] is "1" we want the MUTE to display its "OFF" color \,
while when the [tgl] is "OFF" we want the MUTE to display its "ON"
color. With this approach \, we don't need to reverse the value that
[tgl] sends to the gain in order to mute.;
#X text 484 272 When [tgl] is 1 \, change the background color to the
"off" color PLUS change the *foreground* color (the "x") to the "OFF"
color \, so we don't see the "x" displayed, f 23;
#X text 151 298 When [tgl] is 0 \, change the background color to the
"on" color, f 23;
#X obj 304 230 r \$0-mute-s;
#X connect 0 0 1 0;
#X connect 1 0 2 0;
#X connect 3 0 4 0;
#X connect 3 1 5 0;
#X connect 4 0 2 0;
#X connect 5 0 2 0;
#X connect 9 0 3 0;
#X restore 638 192 pd muteDisplay;
#X obj 467 47 cnv 14 14 14 empty empty 0 4 8 0 12 #606060 #dcdcdc 0
;
#X obj 293 48 inlet~ InL;
#X obj 483 48 inlet~ InR;
#X obj 166 144 vu 10 120 \$0-chEnvR empty -1 -8 0 10 #404040 #000000
1 0;
#X msg 107 452 label Stereo\ Channel;
#X obj 505 360 env~;
#X obj 505 377 - 100;
#X obj 490 394 cnv 14 14 14 empty empty S 6 8 0 8 #fce0c4 #7c7c7c 0
;
#X obj 483 240 *~;
#X obj 552 323 r \$0-preFader1-s;
#N canvas 1462 397 450 300 router~ 0;
#X obj 338 122 sel 0 1;
#X msg 241 149 1, f 1;
#X msg 258 149 0, f 1;
#X msg 376 155 1, f 1;
#X msg 354 155 0, f 1;
#X obj 43 203 *~;
#X obj 237 239 *~;
#X obj 338 39 inlet ctrl;
#X obj 43 33 inlet~ pre;
#X obj 103 34 inlet~ post;
#X obj 42 246 outlet~ pre;
#X obj 340 253 outlet;
#X connect 0 0 1 0;
#X connect 0 0 2 0;
#X connect 0 1 3 0;
#X connect 0 1 4 0;
#X connect 1 0 5 1;
#X connect 2 0 6 1;
#X connect 3 0 6 1;
#X connect 4 0 5 1;
#X connect 5 0 10 0;
#X connect 6 0 10 0;
#X connect 7 0 0 0;
#X connect 7 0 11 0;
#X connect 8 0 5 0;
#X connect 9 0 6 0;
#X restore 505 341 pd router~;
#X obj 637 324 cnv 14 14 14 empty empty R 6 8 0 8 #c4fcc4 #7c7c7c 0
;
#X text 515 296 Pre-fader signal, f 9;
#X text 527 427 Post-fader signal, f 10;
#X text 513 430 <-;
#X text 502 301 <-;
#X text 570 396 To meter;
#X obj 483 551 *~;
#X obj 315 383 s \$0-chEnvL;
#X obj 505 394 s \$0-chEnvR;
#X obj 959 533 s \$0-chEnvL;
#X obj 117 103 cnv 10 10 12 empty empty R 0 6 0 8 #dfdfdf #404040 0
;
#X connect 2 0 138 0;
#X connect 3 0 151 0;
#X connect 5 0 139 0;
#X connect 6 0 140 0;
#X connect 15 0 142 0;
#X connect 16 0 142 0;
#X connect 64 0 176 0;
#X connect 65 0 115 0;
#X connect 66 0 65 0;
#X connect 67 0 106 0;
#X connect 69 0 192 0;
#X connect 70 0 192 0;
#X connect 73 0 126 0;
#X connect 73 0 118 1;
#X connect 74 0 73 1;
#X connect 74 0 189 1;
#X connect 75 0 76 0;
#X connect 76 0 190 0;
#X connect 77 0 74 0;
#X connect 92 0 113 0;
#X connect 94 0 127 1;
#X connect 95 0 94 0;
#X connect 98 0 73 0;
#X connect 98 0 118 0;
#X connect 100 0 115 0;
#X connect 101 0 100 0;
#X connect 107 0 77 0;
#X connect 108 0 73 1;
#X connect 108 0 189 1;
#X connect 109 0 95 0;
#X connect 109 0 130 0;
#X connect 110 0 92 0;
#X connect 111 0 112 0;
#X connect 114 0 66 0;
#X connect 116 0 67 0;
#X connect 117 0 118 2;
#X connect 118 0 75 0;
#X connect 126 0 0 0;
#X connect 127 0 1 0;
#X connect 128 0 126 1;
#X connect 129 0 128 0;
#X connect 130 0 131 0;
#X connect 131 0 129 0;
#X connect 132 0 136 0;
#X connect 133 0 153 0;
#X connect 134 0 135 0;
#X connect 135 0 137 0;
#X connect 136 0 133 0;
#X connect 136 1 135 0;
#X connect 137 0 153 0;
#X connect 138 0 134 0;
#X connect 139 0 151 0;
#X connect 140 0 151 0;
#X connect 140 1 152 0;
#X connect 142 0 157 0;
#X connect 145 0 141 0;
#X connect 154 0 145 0;
#X connect 156 0 155 0;
#X connect 157 0 156 0;
#X connect 169 0 98 1;
#X connect 169 0 180 1;
#X connect 170 0 169 0;
#X connect 173 0 98 0;
#X connect 174 0 180 0;
#X connect 176 0 48 0;
#X connect 177 0 178 0;
#X connect 178 0 191 0;
#X connect 180 0 182 0;
#X connect 180 0 189 0;
#X connect 181 0 182 2;
#X connect 182 0 177 0;
#X connect 189 0 182 1;
#X connect 189 0 127 0;
#X coords 0 -1 1 1 105 275 2 100 100;
