#N canvas 827 239 527 327 12;
#X floatatom 149 59 5 0 0 0 - - - 12;
#X obj 149 109 moses 65;
#X obj 149 169 / 512;
#X text 202 57 0-127;
#X text 39 138 0-64;
#X text 39 198 0-0.125;
#X obj 206 149 - 64;
#X text 228 126 65-127;
#X text 316 178 1-63;
#X obj 206 199 / 504;
#X text 316 228 ~0-0.125;
#X floatatom 266 229 5 0 0 0 - - - 12;
#X floatatom 266 179 5 0 0 0 - - - 12;
#X floatatom 89 139 5 0 0 0 - - - 12;
#X floatatom 89 199 5 0 0 0 - - - 12;
#X obj 206 259 + 0.125;
#X floatatom 266 289 5 0 0 0 - - - 12;
#X text 316 288 0.125-0.25;
#X floatatom 149 319 5 0 0 0 - - - 12;
#X obj 152 19 hsl 128 17 0 127 0 0 empty empty empty -2 -8 0 10 #e4e4e4 #4d4d4d #373737 0 1;
#X obj 122 445 osc~;
#X msg 149 349 \$1 20;
#X obj 149 375 line;
#X obj 225 445 osc~;
#X obj 122 469 numbox~ 4 15 100 #E4E4E4 #4D4D4D 10 0 0 0;
#X obj 226 469 numbox~ 4 15 100 #E4E4E4 #4D4D4D 10 0 0 0;
#X obj 253 409 + 0.75;
#X text 96 418 0-0.25;
#X text 343 438 0.75-1;
#X floatatom 303 439 5 0 0 0 - - - 12;
#X floatatom 729 49 5 0 0 0 - - - 12;
#X text 619 188 0-0.125;
#X floatatom 669 129 5 0 0 0 - - - 12;
#X floatatom 669 189 5 0 0 0 - - - 12;
#X floatatom 729 309 5 0 0 0 - - - 12;
#X obj 732 19 hsl 128 17 0 1 0 0 empty empty empty -2 -8 0 10 #e4e4e4 #4d4d4d #373737 0 1;
#X obj 702 435 osc~;
#X msg 729 339 \$1 20;
#X obj 729 365 line;
#X obj 805 435 osc~;
#X obj 702 459 numbox~ 4 15 100 #E4E4E4 #4D4D4D 10 0 0 0;
#X obj 806 459 numbox~ 4 15 100 #E4E4E4 #4D4D4D 10 0 0 0;
#X obj 833 399 + 0.75;
#X text 676 408 0-0.25;
#X text 923 428 0.75-1;
#X floatatom 883 429 5 0 0 0 - - - 12;
#X text 789 48 0.0-0.9;
#X text 612 130 0-0.4;
#X obj 789 159 / 4;
#X floatatom 829 199 5 0 0 0 - - - 12;
#X floatatom 839 129 5 0 0 0 - - - 12;
#X text 829 88 0.5-1;
#X obj 729 159 / 4;
#X floatatom 1339 59 5 0 0 0 - - - 12;
#X text 1229 198 0-0.125;
#X floatatom 1279 139 5 0 0 0 - - - 12;
#X floatatom 1279 199 5 0 0 0 - - - 12;
#X floatatom 1339 319 5 0 0 0 - - - 12;
#X obj 1342 29 hsl 128 17 0 1 0 0 empty empty empty -2 -8 0 10 #e4e4e4 #4d4d4d #373737 0 1;
#X obj 1312 445 osc~;
#X msg 1339 349 \$1 20;
#X obj 1339 375 line;
#X obj 1505 435 osc~;
#X obj 1312 469 numbox~ 4 15 100 #E4E4E4 #4D4D4D 10 0 0 0;
#X obj 1506 459 numbox~ 4 15 100 #E4E4E4 #4D4D4D 10 0 0 0;
#X obj 1533 399 + 0.75;
#X text 1286 418 0-0.25;
#X text 1623 428 0.75-1;
#X floatatom 1583 429 5 0 0 0 - - - 12;
#X text 1399 58 0.0-0.9;
#X text 1222 140 0-0.4;
#X obj 1399 169 / 4;
#X floatatom 1439 209 5 0 0 0 - - - 12;
#X floatatom 1449 139 5 0 0 0 - - - 12;
#X text 1439 98 0.5-1;
#X obj 1339 109 moses 0.6;
#X obj 1339 169 / 4;
#X obj 1309 499 tdh.util.snapshotter~ 1 1;
#X obj 1509 519 tdh.util.snapshotter~ 1 1;
#X obj 1509 551 vsl 17 128 0 1 0 0 empty empty empty 0 -9 0 10 #e4e4e4 #4d4d4d #373737 0 1;
#X obj 1309 531 vsl 17 128 0 1 0 0 empty empty empty 0 -9 0 10 #e4e4e4 #4d4d4d #373737 0 1;
#X obj 1738 435 osc~;
#X obj 1739 459 numbox~ 4 15 100 #E4E4E4 #4D4D4D 10 0 0 0;
#X obj 1766 399 + 0.75;
#X text 1856 428 0.75-1;
#X floatatom 1816 429 5 0 0 0 - - - 12;
#X obj 1742 519 tdh.util.snapshotter~ 1 1;
#X obj 1742 551 vsl 17 128 0 1 0 0 empty empty empty 0 -9 0 10 #e4e4e4 #4d4d4d #373737 0 1;
#X text 887 398 1 -;
#X obj 729 99 moses 0.5;
#X connect 0 0 1 0;
#X connect 1 0 2 0;
#X connect 1 0 13 0;
#X connect 1 1 6 0;
#X connect 2 0 18 0;
#X connect 6 0 9 0;
#X connect 6 0 12 0;
#X connect 9 0 11 0;
#X connect 9 0 15 0;
#X connect 15 0 16 0;
#X connect 15 0 18 0;
#X connect 18 0 21 0;
#X connect 19 0 0 0;
#X connect 20 0 24 0;
#X connect 21 0 22 0;
#X connect 22 0 20 1;
#X connect 22 0 26 0;
#X connect 23 0 25 0;
#X connect 26 0 23 1;
#X connect 26 0 29 0;
#X connect 30 0 89 0;
#X connect 34 0 37 0;
#X connect 35 0 30 0;
#X connect 36 0 40 0;
#X connect 37 0 38 0;
#X connect 38 0 36 1;
#X connect 38 0 42 0;
#X connect 39 0 41 0;
#X connect 42 0 39 1;
#X connect 42 0 45 0;
#X connect 48 0 49 0;
#X connect 48 0 34 0;
#X connect 52 0 34 0;
#X connect 52 0 33 0;
#X connect 53 0 75 0;
#X connect 57 0 60 0;
#X connect 58 0 53 0;
#X connect 59 0 63 0;
#X connect 60 0 61 0;
#X connect 61 0 59 1;
#X connect 61 0 65 0;
#X connect 62 0 64 0;
#X connect 63 0 77 0;
#X connect 64 0 78 0;
#X connect 65 0 62 1;
#X connect 65 0 68 0;
#X connect 71 0 72 0;
#X connect 71 0 57 0;
#X connect 75 0 55 0;
#X connect 75 0 76 0;
#X connect 75 1 71 0;
#X connect 75 1 73 0;
#X connect 76 0 57 0;
#X connect 76 0 56 0;
#X connect 77 1 80 0;
#X connect 78 1 79 0;
#X connect 81 0 82 0;
#X connect 82 0 86 0;
#X connect 83 0 81 1;
#X connect 83 0 85 0;
#X connect 86 1 87 0;
#X connect 89 0 32 0;
#X connect 89 0 52 0;
#X connect 89 1 48 0;
#X connect 89 1 50 0;
