#N canvas 1440 43 1115 451 10;
#X obj 129 32 inlet~;
#X obj 279 32 inlet~;
#X obj 753 145 tgl 15 0 empty \$0-output_dsp DSP 17 7 0 10 #fcfcfc
#000000 #000000 0 1;
#X obj 279 220 *~;
#X obj 129 220 *~;
#X obj 145 313 dac~ 1 2, f 9;
#X msg 663 134 \; pd dsp \$1;
#X obj 836 29 cnv 14 14 14 empty empty R 6 8 0 8 #c4c4fc #7c7c7c 0
;
#X obj 237 200 cnv 14 14 14 empty empty R 6 8 0 8 #c4fcc4 #7c7c7c 0
;
#X obj 332 55 cnv 14 14 14 empty empty S 6 8 0 8 #fcc4c4 #7c7c7c 0
;
#X obj 113 392 cnv 14 14 14 empty empty S 6 8 0 8 #c4c4fc #7c7c7c 0
;
#X obj 634 97 cnv 14 14 14 empty empty S 6 8 0 8 #c4fcfc #7c7c7c 0
;
#X obj 683 311 cnv 14 14 14 empty empty S 6 8 0 8 #c4fcc4 #7c7c7c 0
;
#X obj 741 143 cnv 5 5 5 empty \$0-vari-tab-1 empty 2 10 0 14 #fcc4c4
#404040 0;
#X obj 733 143 cnv 5 5 5 empty \$0-vari-tab-1 empty 2 10 0 14 #c4fcfc
#404040 0;
#X obj 112 32 cnv 14 14 14 empty empty 0 4 8 0 12 #606060 #dcdcdc 0
;
#X obj 262 32 cnv 14 14 14 empty empty 1 4 8 0 12 #606060 #dcdcdc 0
;
#X obj 650 34 r pd;
#X obj 650 55 route dsp;
#X msg 650 76 set \$1;
#X obj 348 32 inlet;
#X obj 332 32 cnv 14 14 14 empty empty 2 4 8 0 12 #606060 #dcdcdc 0
;
#X obj 650 97 s \$0-output_dsp;
#N canvas 1471 319 450 300 init 0;
#X obj 52 18 loadbang;
#X msg 178 78 label \$1;
#X obj 178 102 s \$0-GUI_audio_out_label;
#X msg 179 56 symbol Audio\ Output;
#X connect 0 0 3 0;
#X connect 1 0 2 0;
#X connect 3 0 1 0;
#X restore 61 32 pd init;
#X text 750 101 In1;
#X text 774 101 In2;
#X text 803 101 Mute;
#X text 833 101 Vol;
#X text 855 80 DSP;
#X obj 144 200 r \$0-output_vol;
#X obj 699 309 s \$0-output_vol;
#X obj 854 125 vu 8 80 empty empty -1 -8 0 10 #404040 #000000 0 0;
#X obj 866 125 vu 8 80 empty empty -1 -8 0 10 #404040 #000000 0 0;
#X obj 389 200 cnv 14 14 14 empty empty R 6 8 0 8 #c4fcc4 #7c7c7c 0
;
#X obj 294 200 r \$0-output_vol;
#N canvas 1280 22 450 300 lin2dbFS 0;
#X obj 74 53 rmstodb;
#X obj 74 73 - 100;
#X msg 74 94 set \$1;
#X obj 74 23 inlet;
#X text 32 23 0 to 1;
#X text 20 54 0 to 100;
#X text 125 52 In Pd \, RMS is linear amp \, dB is 0 to 100;
#X text 13 74 -100 to 0;
#X text 123 74 dBFS scale;
#X obj 74 135 outlet;
#X text 122 95 to numbox;
#X connect 0 0 1 0;
#X connect 1 0 2 0;
#X connect 2 0 9 0;
#X connect 3 0 0 0;
#X restore 830 452 pd lin2dbFS;
#N canvas 1280 22 584 298 dBFS2lin 0;
#X obj 119 42 inlet;
#X msg 119 134 set \$1;
#X obj 119 72 + 100;
#X obj 119 103 dbtorms;
#X text 54 44 -100 to 0;
#X text 58 73 0 to 100;
#X text 58 103 0 to 1;
#X text 171 132 to slider;
#X text 170 102 in Pd \, dB is 0-100 and rms is 0-1;
#X obj 119 165 outlet;
#X connect 0 0 2 0;
#X connect 1 0 9 0;
#X connect 2 0 3 0;
#X connect 3 0 1 0;
#X restore 906 450 pd dBFS2lin;
#X obj 610 34 inlet;
#X obj 594 34 cnv 14 14 14 empty empty 4 4 8 0 12 #606060 #dcdcdc 0
;
#X obj 263 392 cnv 14 14 14 empty empty S 6 8 0 8 #e0c4fc #7c7c7c 0
;
#X obj 1040 48 cnv 14 14 14 empty empty R 6 8 0 8 #e0c4fc #7c7c7c 0
;
#X obj 129 392 send~ \$0-out-mtr1;
#X obj 279 392 send~ \$0-out-mtr2;
#X obj 853 29 receive~ \$0-out-mtr1;
#X obj 915 49 receive~ \$0-out-mtr2;
#N canvas 2455 164 453 524 meter1 0;
#X obj 64 -38 inlet~;
#X obj 64 27 env~;
#X obj 64 48 - 100;
#X obj 168 30 abs~;
#X obj 169 73 snapshot~;
#X obj 233 31 loadbang;
#X msg 233 51 1;
#X text 174 0 Peak Detection, f 9;
#X obj 65 160 outlet;
#X obj 168 282 outlet;
#X text 0 1 RMS level detection, f 9;
#X text -47 -82 _;
#X obj 168 97 rmstodb;
#X obj 167 122 - 100;
#X obj 168 258 line;
#X obj 168 201 max;
#X obj 201 188 pipe 1;
#X msg 168 228 \$1 \, -100 5000;
#X obj 233 72 metro 20;
#X connect 0 0 1 0;
#X connect 0 0 3 0;
#X connect 1 0 2 0;
#X connect 2 0 8 0;
#X connect 3 0 4 0;
#X connect 4 0 12 0;
#X connect 5 0 6 0;
#X connect 6 0 18 0;
#X connect 12 0 13 0;
#X connect 13 0 16 0;
#X connect 13 0 15 0;
#X connect 14 0 9 0;
#X connect 15 0 17 0;
#X connect 16 0 15 1;
#X connect 17 0 14 0;
#X connect 18 0 4 0;
#X restore 853 50 pd meter1;
#N canvas 1463 139 521 392 meter2 0;
#X obj 64 -38 inlet~;
#X obj 64 27 env~;
#X obj 64 48 - 100;
#X obj 168 30 abs~;
#X obj 169 73 snapshot~;
#X obj 233 31 loadbang;
#X msg 233 51 1;
#X text 174 0 Peak Detection, f 9;
#X obj 65 160 outlet;
#X obj 168 282 outlet;
#X text 0 1 RMS level detection, f 9;
#X text -47 -82 _;
#X obj 168 97 rmstodb;
#X obj 168 119 - 100;
#X floatatom 306 36 5 0 0 0 - - - 0;
#X obj 168 258 line;
#X obj 233 72 metro 100;
#X obj 168 201 max;
#X msg 168 140 \$1 100;
#X obj 168 161 line;
#X obj 201 188 pipe 1;
#X msg 168 228 \$1 \, -100 5000 500;
#X connect 0 0 1 0;
#X connect 0 0 3 0;
#X connect 1 0 2 0;
#X connect 2 0 8 0;
#X connect 3 0 4 0;
#X connect 4 0 12 0;
#X connect 5 0 6 0;
#X connect 6 0 16 0;
#X connect 12 0 13 0;
#X connect 13 0 18 0;
#X connect 14 0 16 1;
#X connect 15 0 9 0;
#X connect 16 0 4 0;
#X connect 17 0 21 0;
#X connect 18 0 19 0;
#X connect 19 0 17 0;
#X connect 19 0 20 0;
#X connect 20 0 17 1;
#X connect 21 0 15 0;
#X restore 915 68 pd meter2;
#X text 0 0 |;
#X obj 476 34 inlet;
#X obj 460 34 cnv 14 14 14 empty empty 3 4 8 0 12 #606060 #dcdcdc 0
;
#X obj 460 55 cnv 14 14 14 empty empty S 6 8 0 8 #9c00fc #dcdcdc 0
;
#X obj 476 55 s \$0-out-vol-inlet;
#X obj 816 497 cnv 14 14 14 empty empty R 6 8 0 8 #9c00fc #dcdcdc 0
;
#X obj 832 497 r \$0-out-vol-inlet;
#N canvas 1280 22 584 298 dBFS2lin 0;
#X obj 119 42 inlet;
#X msg 119 134 set \$1;
#X obj 119 72 + 100;
#X obj 119 103 dbtorms;
#X text 54 44 -100 to 0;
#X text 58 73 0 to 100;
#X text 58 103 0 to 1;
#X text 171 132 to slider;
#X text 170 102 in Pd \, dB is 0-100 and rms is 0-1;
#X obj 119 165 outlet;
#X connect 0 0 2 0;
#X connect 1 0 9 0;
#X connect 2 0 3 0;
#X connect 3 0 1 0;
#X restore 832 516 pd dBFS2lin;
#X obj 858 103 cnv 15 5 5 empty empty DSP 0 6 0 10 #fcfcfc #000000
0;
#X obj 752 119 cnv 2 123 2 empty \$0-GUI_audio_out_label Audio\ Output
1 9 0 12 #e0e0e0 #404040 0;
#X obj 348 54 s \$0-outputMute-r;
#X obj 279 281 *~;
#X obj 129 281 *~;
#X obj 756 166 hsl 72 15 0.01 1 1 0 \$0-slider-s \$0-slider-r empty
-2 -8 0 10 #fcfcfc #000000 #000000 0 1;
#X obj 725 224 r \$0-slider-s;
#X obj 725 249 tdh.lib/tdh.util.numSlideSet, f 29;
#X floatatom 753 185 5 0 0 0 - \$0-numbox-r \$0-numbox-s 0;
#X obj 810 308 s \$0-slider-r;
#X obj 896 224 r \$0-numbox-s;
#X obj 896 308 s \$0-numbox-r;
#X obj 793 145 tgl 15 0 \$0-mute-s \$0-mute-r M 4 7 0 12 #fce0e0 #fce0e0
#000000 0 1;
#X obj 714 364 tdh.lib/tdh.util.declick~;
#X obj 715 338 r \$0-mute-s;
#N canvas 1815 262 832 483 muteDisplay 0;
#X obj 368 346 loadbang;
#X msg 368 367 1;
#X obj 315 389 s \$0-mute-r;
#X obj 303 267 sel 0 1;
#X msg 303 312 color 13;
#X msg 373 310 color 3 3;
#X text 314 -17 Using a [tgl] for a mute control is convienient but
the "state" needs to be swapped a bit. When a mute is "ON" it is going
to mute the volume \, which requires the gain control to receive a
"0" \, however when a [tgl] is "ON" it sends a "1". All that ultimately
needs to be done is to set the [tgl] "ON" when the patch is loaded
(as long as we want the mute to be "OFF" at the onset) \, and set the
display colors to respond in an opposite fashion to the [tgl] state
- when [tgl] is "1" we want the MUTE to display its "OFF" color \,
while when the [tgl] is "OFF" we want the MUTE to display its "ON"
color. With this approach \, we don't need to reverse the value that
[tgl] sends to the gain in order to mute.;
#X text 484 272 When [tgl] is 1 \, change the background color to the
"off" color PLUS change the *foreground* color (the "x") to the "OFF"
color \, so we don't see the "x" displayed, f 23;
#X text 151 298 When [tgl] is 0 \, change the background color to the
"on" color, f 23;
#X obj 304 230 r \$0-mute-s;
#X connect 0 0 1 0;
#X connect 1 0 2 0;
#X connect 3 0 4 0;
#X connect 3 1 5 0;
#X connect 4 0 2 0;
#X connect 5 0 2 0;
#X connect 9 0 3 0;
#X restore 886 360 pd muteDisplay;
#X obj 714 395 s~ \$0-outputMute;
#X obj 294 246 r~ \$0-outputMute;
#X obj 650 279 tdh.lib/tdh.util.declick;
#X connect 0 0 4 0;
#X connect 1 0 3 0;
#X connect 2 0 6 0;
#X connect 3 0 58 0;
#X connect 4 0 59 0;
#X connect 17 0 18 0;
#X connect 18 0 19 0;
#X connect 19 0 22 0;
#X connect 20 0 57 0;
#X connect 29 0 4 1;
#X connect 34 0 3 1;
#X connect 37 0 22 0;
#X connect 43 0 45 0;
#X connect 44 0 46 0;
#X connect 45 0 31 0;
#X connect 45 1 31 1;
#X connect 46 0 32 0;
#X connect 46 1 32 1;
#X connect 48 0 51 0;
#X connect 53 0 54 0;
#X connect 58 0 42 0;
#X connect 58 0 5 1;
#X connect 59 0 5 0;
#X connect 59 0 41 0;
#X connect 61 0 62 0;
#X connect 62 0 73 0;
#X connect 62 1 64 0;
#X connect 62 2 66 0;
#X connect 65 0 62 1;
#X connect 68 0 71 0;
#X connect 69 0 68 0;
#X connect 72 0 58 1;
#X connect 72 0 59 1;
#X connect 73 0 30 0;
#X coords 0 -1 1 1 127 110 2 750 100;
