#N canvas 1440 43 1115 451 10;
#X obj 129 32 inlet~;
#X obj 279 32 inlet~;
#X obj 753 145 tgl 15 0 empty \$0-output_dsp DSP 17 7 0 10 #fcfcfc
#000000 #000000 0 1;
#X obj 757 168 hsl 72 15 0.01 1 1 0 empty empty empty 72 7 0 10 #fcfcfc
#000000 #000000 0 1;
#X obj 279 220 *~;
#X obj 129 220 *~;
#X obj 145 313 dac~ 1 2, f 9;
#X msg 663 134 \; pd dsp \$1;
#X obj 836 29 cnv 14 14 14 empty empty R 6 8 0 8 #c4c4fc #7c7c7c 0
;
#X obj 237 200 cnv 14 14 14 empty empty R 6 8 0 8 #c4fcc4 #7c7c7c 0
;
#X obj 332 55 cnv 14 14 14 empty empty S 6 8 0 8 #fcc4c4 #7c7c7c 0
;
#X obj 113 342 cnv 14 14 14 empty empty S 6 8 0 8 #c4c4fc #7c7c7c 0
;
#X obj 634 97 cnv 14 14 14 empty empty S 6 8 0 8 #c4fcfc #7c7c7c 0
;
#X obj 715 248 cnv 14 14 14 empty empty S 6 8 0 8 #c4fcc4 #7c7c7c 0
;
#X obj 741 143 cnv 5 5 5 empty \$0-vari-tab-1 empty 2 10 0 14 #fcc4c4
#404040 0;
#X obj 733 143 cnv 5 5 5 empty \$0-vari-tab-1 empty 2 10 0 14 #c4fcfc
#404040 0;
#X obj 112 32 cnv 14 14 14 empty empty 0 4 8 0 12 #606060 #dcdcdc 0
;
#X obj 262 32 cnv 14 14 14 empty empty 1 4 8 0 12 #606060 #dcdcdc 0
;
#X obj 650 34 r pd;
#X obj 650 55 route dsp;
#X msg 650 76 set \$1;
#X obj 348 32 inlet;
#X obj 332 32 cnv 14 14 14 empty empty 2 4 8 0 12 #606060 #dcdcdc 0
;
#X obj 650 97 s \$0-output_dsp;
#N canvas 1471 319 450 300 init 0;
#X obj 52 18 loadbang;
#X msg 178 78 label \$1;
#X obj 178 102 s \$0-GUI_audio_out_label;
#X msg 179 56 symbol Audio\ Output;
#X connect 0 0 3 0;
#X connect 1 0 2 0;
#X connect 3 0 1 0;
#X restore 61 32 pd init;
#X text 750 101 In1;
#X text 774 101 In2;
#X text 803 101 Mute;
#X text 833 101 Vol;
#X text 855 80 DSP;
#X floatatom 755 188 5 -100 12 1 - - - 0;
#X obj 144 200 r \$0-output_vol;
#X obj 731 246 s \$0-output_vol;
#X text 788 188 Vol;
#X obj 854 125 vu 8 80 empty empty -1 -8 0 10 #404040 #000000 0 0;
#X obj 866 125 vu 8 80 empty empty -1 -8 0 10 #404040 #000000 0 0;
#X obj 389 200 cnv 14 14 14 empty empty R 6 8 0 8 #c4fcc4 #7c7c7c 0
;
#X obj 294 200 r \$0-output_vol;
#N canvas 1280 22 450 300 lin2dbFS 0;
#X obj 74 53 rmstodb;
#X obj 74 73 - 100;
#X msg 74 94 set \$1;
#X obj 74 23 inlet;
#X text 32 23 0 to 1;
#X text 20 54 0 to 100;
#X text 125 52 In Pd \, RMS is linear amp \, dB is 0 to 100;
#X text 13 74 -100 to 0;
#X text 123 74 dBFS scale;
#X obj 74 135 outlet;
#X text 122 95 to numbox;
#X connect 0 0 1 0;
#X connect 1 0 2 0;
#X connect 2 0 9 0;
#X connect 3 0 0 0;
#X restore 703 215 pd lin2dbFS;
#N canvas 1280 22 584 298 dBFS2lin 0;
#X obj 119 42 inlet;
#X msg 119 134 set \$1;
#X obj 119 72 + 100;
#X obj 119 103 dbtorms;
#X text 54 44 -100 to 0;
#X text 58 73 0 to 100;
#X text 58 103 0 to 1;
#X text 171 132 to slider;
#X text 170 102 in Pd \, dB is 0-100 and rms is 0-1;
#X obj 119 165 outlet;
#X connect 0 0 2 0;
#X connect 1 0 9 0;
#X connect 2 0 3 0;
#X connect 3 0 1 0;
#X restore 782 215 pd dBFS2lin;
#X obj 610 34 inlet;
#X obj 594 34 cnv 14 14 14 empty empty 4 4 8 0 12 #606060 #dcdcdc 0
;
#X obj 263 342 cnv 14 14 14 empty empty S 6 8 0 8 #e0c4fc #7c7c7c 0
;
#X obj 1040 48 cnv 14 14 14 empty empty R 6 8 0 8 #e0c4fc #7c7c7c 0
;
#X obj 129 342 send~ \$0-out-mtr1;
#X obj 279 342 send~ \$0-out-mtr2;
#X obj 853 29 receive~ \$0-out-mtr1;
#X obj 915 49 receive~ \$0-out-mtr2;
#N canvas 2455 164 453 524 meter1 0;
#X obj 64 -38 inlet~;
#X obj 64 27 env~;
#X obj 64 48 - 100;
#X obj 168 30 abs~;
#X obj 169 73 snapshot~;
#X obj 233 31 loadbang;
#X msg 233 51 1;
#X text 174 0 Peak Detection, f 9;
#X obj 65 160 outlet;
#X obj 168 282 outlet;
#X text 0 1 RMS level detection, f 9;
#X text -47 -82 _;
#X obj 168 97 rmstodb;
#X obj 167 122 - 100;
#X obj 168 258 line;
#X obj 168 201 max;
#X obj 201 188 pipe 1;
#X msg 168 228 \$1 \, -100 5000;
#X obj 233 72 metro 20;
#X connect 0 0 1 0;
#X connect 0 0 3 0;
#X connect 1 0 2 0;
#X connect 2 0 8 0;
#X connect 3 0 4 0;
#X connect 4 0 12 0;
#X connect 5 0 6 0;
#X connect 6 0 18 0;
#X connect 12 0 13 0;
#X connect 13 0 16 0;
#X connect 13 0 15 0;
#X connect 14 0 9 0;
#X connect 15 0 17 0;
#X connect 16 0 15 1;
#X connect 17 0 14 0;
#X connect 18 0 4 0;
#X restore 853 50 pd meter1;
#N canvas 1463 139 521 392 meter2 0;
#X obj 64 -38 inlet~;
#X obj 64 27 env~;
#X obj 64 48 - 100;
#X obj 168 30 abs~;
#X obj 169 73 snapshot~;
#X obj 233 31 loadbang;
#X msg 233 51 1;
#X text 174 0 Peak Detection, f 9;
#X obj 65 160 outlet;
#X obj 168 282 outlet;
#X text 0 1 RMS level detection, f 9;
#X text -47 -82 _;
#X obj 168 97 rmstodb;
#X obj 168 119 - 100;
#X floatatom 306 36 5 0 0 0 - - - 0;
#X obj 168 258 line;
#X obj 233 72 metro 100;
#X obj 168 201 max;
#X msg 168 140 \$1 100;
#X obj 168 161 line;
#X obj 201 188 pipe 1;
#X msg 168 228 \$1 \, -100 5000 500;
#X connect 0 0 1 0;
#X connect 0 0 3 0;
#X connect 1 0 2 0;
#X connect 2 0 8 0;
#X connect 3 0 4 0;
#X connect 4 0 12 0;
#X connect 5 0 6 0;
#X connect 6 0 16 0;
#X connect 12 0 13 0;
#X connect 13 0 18 0;
#X connect 14 0 16 1;
#X connect 15 0 9 0;
#X connect 16 0 4 0;
#X connect 17 0 21 0;
#X connect 18 0 19 0;
#X connect 19 0 17 0;
#X connect 19 0 20 0;
#X connect 20 0 17 1;
#X connect 21 0 15 0;
#X restore 915 68 pd meter2;
#X text 0 0 |;
#X obj 476 34 inlet;
#X obj 460 34 cnv 14 14 14 empty empty 3 4 8 0 12 #606060 #dcdcdc 0
;
#X obj 460 55 cnv 14 14 14 empty empty S 6 8 0 8 #9c00fc #dcdcdc 0
;
#X obj 476 55 s \$0-out-vol-inlet;
#X obj 617 169 cnv 14 14 14 empty empty R 6 8 0 8 #9c00fc #dcdcdc 0
;
#X obj 633 169 r \$0-out-vol-inlet;
#N canvas 1280 22 584 298 dBFS2lin 0;
#X obj 119 42 inlet;
#X msg 119 134 set \$1;
#X obj 119 72 + 100;
#X obj 119 103 dbtorms;
#X text 54 44 -100 to 0;
#X text 58 73 0 to 100;
#X text 58 103 0 to 1;
#X text 171 132 to slider;
#X text 170 102 in Pd \, dB is 0-100 and rms is 0-1;
#X obj 119 165 outlet;
#X connect 0 0 2 0;
#X connect 1 0 9 0;
#X connect 2 0 3 0;
#X connect 3 0 1 0;
#X restore 633 188 pd dBFS2lin;
#X obj 858 103 cnv 15 5 5 empty empty DSP 0 6 0 10 #fcfcfc #000000
0;
#X obj 752 119 cnv 2 123 2 empty \$0-GUI_audio_out_label Audio\ Output
1 9 0 12 #e0e0e0 #404040 0;
#X obj 348 54 s \$0-outputMute-r;
#N canvas 2317 271 450 175 mute 1;
#N canvas 1738 289 915 515 muteButtonDisplay 0;
#X obj 152 67 sel 0 1;
#X text 2 112 When [tgl] is 0 \, change the background color to the
"off" color, f 23;
#X text 306 96 When [tgl] is 1 \, change the background color to the
"on" color \, AND change the foreground color (the "x") to the on color
\, so we don't see the "x" displayed, f 23;
#X obj 232 159 cnv 14 14 14 empty empty S 6 8 0 8 #c4fcfc #7c7c7c 0
;
#X msg 222 110 color 13 13;
#X msg 152 112 color 3;
#X obj 231 23 cnv 14 14 14 empty empty R 6 8 0 8 #c4fcc4 #7c7c7c 0
;
#X obj 152 21 r \$0-mute-s;
#X obj 152 157 s \$0-mute-r;
#X connect 0 0 5 0;
#X connect 0 1 4 0;
#X connect 4 0 8 0;
#X connect 5 0 8 0;
#X connect 7 0 0 0;
#X restore 298 16 pd muteButtonDisplay;
#N canvas 1672 401 450 300 muteVolume 0;
#X obj 97 35 r \$0-mute-s;
#X obj 97 56 t f b;
#X obj 127 84 value \$0-volume;
#X obj 97 123 sel 1 0, f 20;
#X obj 82 159 pack 0 f;
#X msg 82 180 \$2 \, \$1 10;
#X obj 82 221 line~;
#X obj 82 262 outlet~;
#X obj 155 159 pack 0 f;
#X msg 155 180 \$1 \, \$2 10;
#X connect 0 0 1 0;
#X connect 1 0 3 0;
#X connect 1 1 2 0;
#X connect 2 0 4 1;
#X connect 2 0 8 1;
#X connect 3 0 4 0;
#X connect 3 1 8 0;
#X connect 4 0 5 0;
#X connect 5 0 6 0;
#X connect 6 0 7 0;
#X connect 8 0 9 0;
#X connect 9 0 6 0;
#X restore 298 37 pd muteVolume;
#X obj 188 16 inlet volume;
#X obj 188 37 value \$0-volume;
#X obj 298 112 outlet~ muteVol;
#X text 190 114 send to [*~] -->;
#X text 35 15 connect parent patch's volume level, f 20;
#X text 161 17 -->;
#X connect 1 0 4 0;
#X connect 2 0 3 0;
#X restore 312 220 pd mute;
#X obj 279 281 *~;
#X obj 129 281 *~;
#X obj 793 146 tgl 15 0 \$0-mute-s \$0-mute-r M 4 7 0 12 #fce0e0 #fc2828
#404040 0 1;
#X connect 0 0 5 0;
#X connect 1 0 4 0;
#X connect 2 0 7 0;
#X connect 3 0 32 0;
#X connect 3 0 38 0;
#X connect 4 0 62 0;
#X connect 5 0 63 0;
#X connect 18 0 19 0;
#X connect 19 0 20 0;
#X connect 20 0 23 0;
#X connect 21 0 60 0;
#X connect 30 0 39 0;
#X connect 31 0 5 1;
#X connect 37 0 4 1;
#X connect 37 0 61 0;
#X connect 38 0 30 0;
#X connect 39 0 3 0;
#X connect 39 0 32 0;
#X connect 40 0 23 0;
#X connect 46 0 48 0;
#X connect 47 0 49 0;
#X connect 48 0 34 0;
#X connect 48 1 34 1;
#X connect 49 0 35 0;
#X connect 49 1 35 1;
#X connect 51 0 54 0;
#X connect 56 0 57 0;
#X connect 57 0 3 0;
#X connect 61 0 62 1;
#X connect 61 0 63 1;
#X connect 62 0 45 0;
#X connect 62 0 6 1;
#X connect 63 0 6 0;
#X connect 63 0 44 0;
#X coords 0 -1 1 1 127 110 2 750 100;
