#N canvas 1276 43 1115 451 10;
#X obj -501 32 inlet~;
#X obj -371 32 inlet~;
#X obj 103 145 tgl 15 0 empty \$0-output_dsp DSP 17 7 0 10 -262144
-1 -1 0 1;
#X obj 107 168 hsl 72 15 0.01 1 1 0 empty empty empty 72 7 0 10 -262144
-1 -1 0 1;
#X obj -371 220 *~;
#X obj 143 145 tgl 15 0 \$0-output_mute empty Mute 17 7 0 10 -262144
-1 -1 0 1;
#X obj -501 220 *~;
#X obj -501 253 dac~ 1 2;
#X msg 13 134 \; pd dsp \$1;
#X obj 186 29 cnv 14 14 14 empty empty R 6 8 0 8 -203904 -128992 0
;
#X obj -393 200 cnv 14 14 14 empty empty R 6 8 0 8 -204786 -128992
0;
#X obj -318 55 cnv 14 14 14 empty empty S 6 8 0 8 -261234 -128992 0
;
#X obj -536 272 cnv 14 14 14 empty empty S 6 8 0 8 -203904 -128992
0;
#X obj -16 97 cnv 14 14 14 empty empty S 6 8 0 8 -204800 -128992 0
;
#X obj 65 248 cnv 14 14 14 empty empty S 6 8 0 8 -204786 -128992 0
;
#X obj 91 143 cnv 5 5 5 empty \$0-vari-tab-1 empty 2 10 0 14 -261234
-66577 0;
#X obj 83 143 cnv 5 5 5 empty \$0-vari-tab-1 empty 2 10 0 14 -204800
-66577 0;
#X obj -518 32 cnv 14 14 14 empty empty 0 4 8 0 12 -99865 -228856 0
;
#X obj -388 32 cnv 14 14 14 empty empty 1 4 8 0 12 -99865 -228856 0
;
#X obj 0 34 r pd;
#X obj 0 55 route dsp;
#X msg 0 76 set \$1;
#X obj -302 32 inlet;
#X obj -302 54 s \$0-output_mute;
#X obj -318 32 cnv 14 14 14 empty empty 2 4 8 0 12 -99865 -228856 0
;
#X obj 0 97 s \$0-output_dsp;
#N canvas 1471 319 450 300 init 0;
#X obj 52 18 loadbang;
#X msg 178 78 label \$1;
#X obj 178 102 s \$0-GUI_audio_out_label;
#X msg 179 56 symbol Audio\ Output;
#X connect 0 0 3 0;
#X connect 1 0 2 0;
#X connect 3 0 1 0;
#X restore -569 32 pd init;
#X text 100 101 In1;
#X text 124 101 In2;
#X text 153 101 Mute;
#X text 183 101 Vol;
#X text 205 80 DSP;
#X floatatom 105 188 5 -100 12 1 - - -;
#X obj -486 200 r \$0-output_vol;
#X obj 81 246 s \$0-output_vol;
#X text 138 188 Vol;
#X obj 204 125 vu 8 80 empty empty -1 -8 0 10 -66577 -1 0 0;
#X obj 216 125 vu 8 80 empty empty -1 -8 0 10 -66577 -1 0 0;
#X obj -261 200 cnv 14 14 14 empty empty R 6 8 0 8 -204786 -128992
0;
#X obj -356 200 r \$0-output_vol;
#N canvas 1280 22 450 300 lin2dbFS 0;
#X obj 74 53 rmstodb;
#X obj 74 73 - 100;
#X msg 74 94 set \$1;
#X obj 74 23 inlet;
#X text 32 23 0 to 1;
#X text 20 54 0 to 100;
#X text 125 52 In Pd \, RMS is linear amp \, dB is 0 to 100;
#X text 13 74 -100 to 0;
#X text 123 74 dBFS scale;
#X obj 74 135 outlet;
#X text 122 95 to numbox;
#X connect 0 0 1 0;
#X connect 1 0 2 0;
#X connect 2 0 9 0;
#X connect 3 0 0 0;
#X restore 53 215 pd lin2dbFS;
#N canvas 1280 22 584 298 dBFS2lin 0;
#X obj 119 42 inlet;
#X msg 119 134 set \$1;
#X obj 119 72 + 100;
#X obj 119 103 dbtorms;
#X text 54 44 -100 to 0;
#X text 58 73 0 to 100;
#X text 58 103 0 to 1;
#X text 171 132 to slider;
#X text 170 102 in Pd \, dB is 0-100 and rms is 0-1;
#X obj 119 165 outlet;
#X connect 0 0 2 0;
#X connect 1 0 9 0;
#X connect 2 0 3 0;
#X connect 3 0 1 0;
#X restore 132 215 pd dBFS2lin;
#X obj -40 34 inlet;
#X obj -56 34 cnv 14 14 14 empty empty 4 4 8 0 12 -99865 -228856 0
;
#X obj -387 272 cnv 14 14 14 empty empty S 6 8 0 8 -232576 -128992
0;
#X obj 390 48 cnv 14 14 14 empty empty R 6 8 0 8 -232576 -128992 0
;
#X obj -520 272 send~ \$0-out-mtr1;
#X obj -371 272 send~ \$0-out-mtr2;
#X obj 203 29 receive~ \$0-out-mtr1;
#X obj 265 49 receive~ \$0-out-mtr2;
#N canvas 2455 164 453 524 meter1 0;
#X obj 64 -38 inlet~;
#X obj 64 27 env~;
#X obj 64 48 - 100;
#X obj 168 30 abs~;
#X obj 169 73 snapshot~;
#X obj 233 31 loadbang;
#X msg 233 51 1;
#X text 174 0 Peak Detection, f 9;
#X obj 65 160 outlet;
#X obj 168 282 outlet;
#X text 0 1 RMS level detection, f 9;
#X text -47 -82 _;
#X obj 168 97 rmstodb;
#X obj 167 122 - 100;
#X obj 168 258 line;
#X obj 168 201 max;
#X obj 201 188 pipe 1;
#X msg 168 228 \$1 \, -100 5000;
#X obj 233 72 metro 20;
#X connect 0 0 1 0;
#X connect 0 0 3 0;
#X connect 1 0 2 0;
#X connect 2 0 8 0;
#X connect 3 0 4 0;
#X connect 4 0 12 0;
#X connect 5 0 6 0;
#X connect 6 0 18 0;
#X connect 12 0 13 0;
#X connect 13 0 16 0;
#X connect 13 0 15 0;
#X connect 14 0 9 0;
#X connect 15 0 17 0;
#X connect 16 0 15 1;
#X connect 17 0 14 0;
#X connect 18 0 4 0;
#X restore 203 50 pd meter1;
#N canvas 1463 139 521 392 meter2 0;
#X obj 64 -38 inlet~;
#X obj 64 27 env~;
#X obj 64 48 - 100;
#X obj 168 30 abs~;
#X obj 169 73 snapshot~;
#X obj 233 31 loadbang;
#X msg 233 51 1;
#X text 174 0 Peak Detection, f 9;
#X obj 65 160 outlet;
#X obj 168 282 outlet;
#X text 0 1 RMS level detection, f 9;
#X text -47 -82 _;
#X obj 168 97 rmstodb;
#X obj 168 119 - 100;
#X floatatom 306 36 5 0 0 0 - - -;
#X obj 168 258 line;
#X obj 233 72 metro 100;
#X obj 168 201 max;
#X msg 168 140 \$1 100;
#X obj 168 161 line;
#X obj 201 188 pipe 1;
#X msg 168 228 \$1 \, -100 5000 500;
#X connect 0 0 1 0;
#X connect 0 0 3 0;
#X connect 1 0 2 0;
#X connect 2 0 8 0;
#X connect 3 0 4 0;
#X connect 4 0 12 0;
#X connect 5 0 6 0;
#X connect 6 0 16 0;
#X connect 12 0 13 0;
#X connect 13 0 18 0;
#X connect 14 0 16 1;
#X connect 15 0 9 0;
#X connect 16 0 4 0;
#X connect 17 0 21 0;
#X connect 18 0 19 0;
#X connect 19 0 17 0;
#X connect 19 0 20 0;
#X connect 20 0 17 1;
#X connect 21 0 15 0;
#X restore 265 68 pd meter2;
#X text -650 -50 |;
#X obj -174 34 inlet;
#X obj -190 34 cnv 14 14 14 empty empty 3 4 8 0 12 -99865 -228856 0
;
#X obj -190 55 cnv 14 14 14 empty empty S 6 8 0 8 -159808 -228856 0
;
#X obj -174 55 s \$0-out-vol-inlet;
#X obj -33 169 cnv 14 14 14 empty empty R 6 8 0 8 -159808 -228856 0
;
#X obj -17 169 r \$0-out-vol-inlet;
#N canvas 1280 22 584 298 dBFS2lin 0;
#X obj 119 42 inlet;
#X msg 119 134 set \$1;
#X obj 119 72 + 100;
#X obj 119 103 dbtorms;
#X text 54 44 -100 to 0;
#X text 58 73 0 to 100;
#X text 58 103 0 to 1;
#X text 171 132 to slider;
#X text 170 102 in Pd \, dB is 0-100 and rms is 0-1;
#X obj 119 165 outlet;
#X connect 0 0 2 0;
#X connect 1 0 9 0;
#X connect 2 0 3 0;
#X connect 3 0 1 0;
#X restore -17 188 pd dBFS2lin;
#X obj 208 103 cnv 15 5 5 empty empty DSP 0 6 0 10 -262144 -1 0;
#X obj 102 119 cnv 2 123 2 empty \$0-GUI_audio_out_label Audio\ Output
1 9 0 12 -233017 -66577 0;
#X connect 0 0 6 0;
#X connect 1 0 4 0;
#X connect 2 0 8 0;
#X connect 3 0 34 0;
#X connect 3 0 40 0;
#X connect 4 0 7 1;
#X connect 4 0 47 0;
#X connect 6 0 7 0;
#X connect 6 0 46 0;
#X connect 19 0 20 0;
#X connect 20 0 21 0;
#X connect 21 0 25 0;
#X connect 22 0 23 0;
#X connect 32 0 41 0;
#X connect 33 0 6 1;
#X connect 39 0 4 1;
#X connect 40 0 32 0;
#X connect 41 0 3 0;
#X connect 41 0 34 0;
#X connect 42 0 25 0;
#X connect 48 0 50 0;
#X connect 49 0 51 0;
#X connect 50 0 36 0;
#X connect 50 1 36 1;
#X connect 51 0 37 0;
#X connect 51 1 37 1;
#X connect 53 0 56 0;
#X connect 58 0 59 0;
#X connect 59 0 3 0;
#X coords 0 -1 1 1 127 110 2 100 100;
