#N canvas 285 366 1227 300 10;
#X obj 26 117 cnv 1 98 2 empty \$0-inletBorder-r empty 1 7 0 10 #404040 #404040 0;
#X obj 27 104 cnv 10 98 14 empty \$0-inletBar-r Clk 0 6 0 8 #dfdfdf #404040 0;
#X obj 26 216 cnv 1 98 2 empty \$0-moduleNameBorder-r empty 1 7 0 10 #404040 #404040 0;
#X obj 26 217 cnv 12 98 14 empty \$0-moduleName-r Euclidian\ Rhythm 1 7 0 10 #dcdcdc #404040 0;
#X obj 26 231 cnv 1 98 2 empty \$0-outletBorder-r empty 1 7 0 10 #404040 #404040 0;
#X obj 26 232 cnv 10 98 14 empty \$0-outletBar-r On 0 6 0 8 #dfdfdf #404040 0;
#X obj 92 232 cnv 10 5 12 empty empty Clk 0 6 0 8 #dfdfdf #404040 0;
#X text 18 48 Travis Houldcroft || travishouldcroft.com;
#X obj 1 2 cnv 15 700 40 empty \$0-abstrPatchTitleBar tdh.ac.euclidianRhythm.ui 9 20 0 18 #3c50fc #a0a0a0 0;
#X obj 1 75 cnv 2 700 2 empty \$0-abstrPatchSecDivider empty 9 20 0 18 #a0a0a0 #202020 0;
#N canvas 1512 38 770 847 abstr-init 0;
#X obj 3 56 cnv 5 5 5 empty empty | 0 0 0 14 #fcfcfc #404040 0;
#X obj 176 122 loadbang;
#X obj 176 148 del 10;
#N canvas 1280 23 1414 755 abstr-cnv-set 0;
#X text 121 406 \$0-abstrPatchSecDivider;
#X text 120 1003 \$0-abstrPatchSecLabelNotes;
#X text 120 1139 \$0-abstrPatchSecLabelRevHist;
#N canvas 1440 23 349 258 canvas-ctrl 0;
#X obj 291 1 inlet;
#N canvas 1440 270 1089 459 graph 0;
#X floatatom 180 241 5 0 0 0 Lbl-Sz - - 0;
#X floatatom 273 241 5 0 29 0 Lbl-Clr - - 0;
#N canvas 32 23 1408 389 label-properties 0;
#X floatatom 314 72 3 18 100 0 - - - 0;
#X msg 314 99 size \$1;
#X obj 400 121 pack 100 60, f 18;
#X obj 491 93 t b f;
#X floatatom 491 68 4 18 100 0 - - - 0;
#X floatatom 400 68 4 18 100 0 - - - 0;
#X msg 400 148 vis_size \$1 \$2;
#X text 442 41 w/x;
#X text 532 41 h/y;
#X floatatom 589 116 4 0 3 0 - - - 0;
#X obj 721 135 t b f;
#X floatatom 721 116 5 5 50 0 - - - 0;
#X msg 589 185 label_font \$1 \$2;
#X text 632 41 type;
#X text 760 40 size;
#X obj 589 64 vradio 15 1 0 3 empty empty empty 0 -8 0 10 #fcfcfc #000000 #000000 0;
#X text 605 63 DejaVu Sans Mono;
#X text 605 78 Helvetica;
#X text 606 93 Times;
#X floatatom 817 71 4 -100 250 0 - - - 0;
#X obj 889 98 t b f;
#X floatatom 889 71 5 -150 150 0 - - - 0;
#X msg 817 148 label_pos \$1 \$2;
#X text 856 41 x;
#X text 929 41 y;
#X obj 817 126 pack 17 20, f 17;
#X obj 589 164 pack 0 25, f 24;
#X msg 973 129 label \$1;
#X floatatom 1191 70 3 0 29 1 bgColor - - 0;
#X floatatom 1295 70 3 0 29 1 lblColor - - 0;
#X obj 1295 92 t b f;
#X msg 1191 145 color \$1 \$2 \$3;
#X obj 1191 124 pack 1 22 22, f 14;
#X text 1170 18 Color Presets (0-29):;
#X obj 24 42 inlet;
#X obj 8 42 cnv 14 14 14 empty empty 0 4 8 0 12 #606060 #dcdcdc 0;
#X symbolatom 24 210 10 0 0 0 - - - 0;
#X obj 588 330 send, f 13;
#X obj 400 42 inlet;
#X obj 314 42 inlet;
#X obj 491 42 inlet;
#X obj 155 42 cnv 14 14 14 empty empty 1 4 8 0 12 #606060 #dcdcdc 0;
#X obj 297 42 cnv 14 14 14 empty empty 2 4 8 0 12 #606060 #dcdcdc 0;
#X obj 384 42 cnv 14 14 14 empty empty 3 4 8 0 12 #606060 #dcdcdc 0;
#X obj 721 42 inlet;
#X obj 589 42 inlet;
#X obj 817 42 inlet;
#X obj 476 42 cnv 14 14 14 empty empty 4 4 8 0 12 #606060 #dcdcdc 0;
#X obj 573 42 cnv 14 14 14 empty empty 5 4 8 0 12 #606060 #dcdcdc 0;
#X obj 703 42 cnv 14 14 14 empty empty 6 4 8 0 12 #606060 #dcdcdc 0;
#X text 315 18 Size;
#X text 421 18 Visible Size;
#X text 635 18 Label Font;
#X text 824 18 Label Offset;
#X obj 889 42 inlet;
#X obj 800 42 cnv 14 14 14 empty empty 7 4 8 0 12 #606060 #dcdcdc 0;
#X msg 1052 89 symbol my\ label;
#X symbolatom 973 92 10 0 0 0 - - - 0;
#X obj 973 42 inlet;
#X obj 872 42 cnv 14 14 14 empty empty 8 4 8 0 12 #606060 #dcdcdc 0;
#X msg 973 70 symbol \$1;
#X text 1007 18 Label Text;
#X obj 1191 42 inlet;
#X obj 958 42 cnv 14 14 14 empty empty 9 4 8 0 12 #606060 #dcdcdc 0;
#X obj 1295 42 inlet;
#X obj 1174 42 cnv 14 14 14 empty empty 10 0 8 0 12 #606060 #dcdcdc 0;
#X text 0 18 Canvas Name;
#X obj 284 2 cnv 5 1 260 empty empty empty 20 12 0 14 #7c7c7c #404040 0;
#X obj 738 322 cnv 2 700 40 empty \$0-test_canvas tdh.ac.euclidianRhythm.ui 20 15 0 16 #a0a0a0 #202020 0;
#X obj 415 328 s \$0-test_canvas;
#X obj 210 187 spigot;
#X obj 170 88 tgl 15 0 empty empty empty 17 7 0 10 #fcfcfc #000000 #000000 0 1;
#X obj 249 134 == 1;
#X obj 101 135 == 0;
#X obj 144 134 list append \$0;
#X msg 144 157 symbol \$2-\$1;
#X msg 24 136 symbol \$1;
#X obj 24 167 spigot;
#X obj 170 42 inlet;
#X obj 1279 42 cnv 14 14 14 empty empty 11 0 8 0 12 #606060 #dcdcdc 0;
#X text 136 18 Add "\$0" option;
#X obj 374 2 cnv 5 1 260 empty empty empty 20 12 0 14 #7c7c7c #404040 0;
#X obj 561 2 cnv 5 1 260 empty empty empty 20 12 0 14 #7c7c7c #404040 0;
#X obj 791 2 cnv 5 1 260 empty empty empty 20 12 0 14 #7c7c7c #404040 0;
#X obj 944 2 cnv 5 1 260 empty empty empty 20 12 0 14 #7c7c7c #404040 0;
#X obj 1164 2 cnv 5 1 260 empty empty empty 20 12 0 14 #7c7c7c #404040 0;
#X connect 0 0 1 0;
#X connect 1 0 37 0;
#X connect 1 0 69 0;
#X connect 2 0 6 0;
#X connect 3 0 2 0;
#X connect 3 1 2 1;
#X connect 4 0 3 0;
#X connect 5 0 2 0;
#X connect 6 0 37 0;
#X connect 6 0 69 0;
#X connect 9 0 26 0;
#X connect 10 0 26 0;
#X connect 10 1 26 1;
#X connect 11 0 10 0;
#X connect 12 0 37 0;
#X connect 12 0 69 0;
#X connect 15 0 9 0;
#X connect 19 0 25 0;
#X connect 20 0 25 0;
#X connect 20 1 25 1;
#X connect 21 0 20 0;
#X connect 22 0 37 0;
#X connect 22 0 69 0;
#X connect 25 0 22 0;
#X connect 26 0 12 0;
#X connect 27 0 37 0;
#X connect 27 0 69 0;
#X connect 28 0 32 0;
#X connect 29 0 30 0;
#X connect 30 0 32 0;
#X connect 30 1 32 2;
#X connect 31 0 37 0;
#X connect 31 0 69 0;
#X connect 32 0 31 0;
#X connect 34 0 74 0;
#X connect 34 0 76 0;
#X connect 36 0 37 1;
#X connect 38 0 5 0;
#X connect 39 0 0 0;
#X connect 40 0 4 0;
#X connect 44 0 11 0;
#X connect 45 0 15 0;
#X connect 46 0 19 0;
#X connect 54 0 21 0;
#X connect 56 0 27 0;
#X connect 57 0 27 0;
#X connect 58 0 60 0;
#X connect 60 0 57 0;
#X connect 62 0 28 0;
#X connect 64 0 29 0;
#X connect 70 0 36 0;
#X connect 71 0 72 0;
#X connect 71 0 73 0;
#X connect 72 0 70 1;
#X connect 73 0 77 1;
#X connect 74 0 75 0;
#X connect 75 0 70 0;
#X connect 76 0 77 0;
#X connect 77 0 36 0;
#X connect 78 0 71 0;
#X restore 6 354 pd label-properties;
#X f 45;
#X floatatom 273 219 5 0 29 0 BG-Clr - - 0;
#X floatatom 180 174 5 0 0 0 Vis-Sz-W - - 0;
#X floatatom 181 198 5 0 0 0 Vis-Sz-H - - 0;
#X floatatom 271 150 5 0 0 0 Lbl-X - - 0;
#X floatatom 272 174 5 0 0 0 Lbl-Y - - 0;
#X floatatom 180 150 5 0 0 0 Size - - 0;
#X symbolatom 214 127 10 0 0 0 CnvReceiveSymbol - - 0;
#X floatatom 181 219 5 0 2 0 Lbl-Fon - - 0;
#X symbolatom 274 195 10 0 0 0 Lbl-Txt - - 0;
#X obj 295 128 tgl 15 0 empty empty Append_0 20 7 0 10 #fcfcfc #fc8000 #000000 0 1;
#X text 194 103 Label Properties;
#X obj 28 18 inlet;
#X obj 414 223 cnv 15 500 30 empty \$0-myCanvas This\ is\ my\ label? 9 13 0 18 #e0e0e0 #606060 0;
#X obj 28 54 route doll rec size visw vish lblfon lblsz lblx lbly bgclr lblclr, f 66;
#X obj 56 93 symbol;
#X text 6 4 _;
#X text 479 173 dollarsign0-myCanvas;
#X msg 74 18 doll 1 \, rec myCanvas \, size 15 \, visw 50 \, vish 60 \, lblfon 0 \, lblsz 18 \, lblx 9 \, lbly 13 \, bgclr 10 \, lblclr 21, f 106;
#N canvas 240 66 752 410 \$0-how-to-set-values-externally 0;
#X text 112 49 doll [0/1] - toggle on appending "\$0-" at the start of the recieve symbol, f 85;
#X text 112 102 visw [float] - the visible width of the canvas in pixels, f 85;
#X text 112 85 size [float] - the size of the clickable/dragable portion of the canvas in pixels, f 85;
#X text 112 122 vish [float] - the visible height of the canvas in pixels, f 85;
#X text 111 141 lblfon [0/1/2] - font designation for the canvas' label \, with [0] for Menlo \, [1] for, f 89;
#X text 131 155 Helvetica \, [2] for Times. Note that these fonts may be different on Windows or Linux, f 84;
#X text 111 173 lblsz [float] - font size designation for the canvas' label, f 85;
#X text 111 213 lbly [float] - y offset in pixels from the top left corner of the canvas, f 85;
#X text 111 193 lblx [float] - x offset (horizontal) in pixels from the top left corner of the canvas, f 85;
#X text 4 29 To set the values for your canvas object externally \, send messages with the following signifiers to the 0 (leftmost) inlet:, f 124;
#X msg 31 336 doll 1 \, rec myCanvas \, size 15 \, visw 500 \, vish 30 \, lblfon 0 \, lblsz 18 \, lblx 9 \, lbly 13 \, bgclr 10 \, lblclr 21, f 106;
#X text 111 67 rec [symbol] - receive symbol for the canvas, f 85;
#X obj 90 241 cnv 5 5 5 empty \$0-canvas-format-helper-boldstatement1 Please\ note\ that\ the\ $-0\ designation\ (1\ or\ 0)\ MUST\ be\ sent\ first\,\ followed\ by\ the\ canvas\  1 9 0 12 #fcfcfc #fc0400 0;
#N canvas 2423 143 808 250 init 0;
#X msg 30 102 label \$1;
#X msg 419 120 label \$1;
#X obj 29 147 s \$0-canvas-format-helper-boldstatement1;
#X obj 418 164 s \$0-canvas-format-helper-boldstatement2;
#X obj 233 15 loadbang;
#X msg 420 51 symbol receive\ symbol!\ Failure\ to\ do\ so\ will\ cause\ incorrect\ parameter\ dispatching!;
#X msg 26 43 symbol Please\\\ note\\\ that\\\ the\\\ $-0\\\ designation\\\ (1\\\ or\\\ 0)\\\ MUST\\\ be\\\ sent\\\ first\\\,\\\ followed\\\ by\\\ the\\\ canvas\\\ ;
#X connect 0 0 2 0;
#X connect 1 0 3 0;
#X connect 4 0 5 0;
#X connect 4 0 6 0;
#X connect 5 0 1 0;
#X connect 6 0 0 0;
#X restore 659 9 pd init;
#X obj 90 257 cnv 5 5 5 empty \$0-canvas-format-helper-boldstatement2 receive\ symbol!\ Failure\ to\ do\ so\ will\ cause\ incorrect\ parameter\ dispatching! 1 9 0 12 #fcfcfc #fc0400 0;
#X msg 112 362 symbol this\ is\ my\ label!;
#X text 296 357 The label parameter must be sent separately to Inlet 1 (rightmost inlet). The message must be prepended with the "symbol" identifier \, and the escape character () needs to be set in the message:, f 68;
#X text 102 286 All parameters EXCEPT label can be sent in a single message to Inlet 0 (leftmost inlet) like below (and this can be copied and pasted for easy initializing formatting)., f 89;
#X restore 326 378 pd \$0-how-to-set-values-externally;
#X msg 326 336 vis 1;
#X obj 326 357 s pd-\$0-how-to-set-values-externally;
#X obj 120 263 bng 15 250 50 0 empty empty empty 17 7 0 10 #fcfcfc #000000 #000000;
#X text 141 263 How to set canvas values externally;
#X text 891 18 All left-inlet messages;
#X text 984 47 Label text;
#X msg 636 48 symbol This\ is\ my\ label?;
#X obj 587 47 inlet;
#X obj 632 184 cnv 5 5 5 empty empty ↴ -3 3 0 24 #fcfcfc #606060 0;
#X connect 0 0 2 6;
#X connect 1 0 2 11;
#X connect 3 0 2 10;
#X connect 4 0 2 3;
#X connect 5 0 2 4;
#X connect 6 0 2 7;
#X connect 7 0 2 8;
#X connect 8 0 2 2;
#X connect 9 0 2 0;
#X connect 10 0 2 5;
#X connect 11 0 2 9;
#X connect 12 0 2 1;
#X connect 14 0 16 0;
#X connect 16 0 12 0;
#X connect 16 1 17 0;
#X connect 16 2 8 0;
#X connect 16 3 4 0;
#X connect 16 4 5 0;
#X connect 16 5 10 0;
#X connect 16 6 0 0;
#X connect 16 7 6 0;
#X connect 16 8 7 0;
#X connect 16 9 3 0;
#X connect 16 10 1 0;
#X connect 17 0 9 0;
#X connect 20 0 16 0;
#X connect 22 0 23 0;
#X connect 24 0 22 0;
#X connect 28 0 11 0;
#X connect 29 0 11 0;
#X coords 0 -1 1 1 300 190 2 100 100;
#X restore 25 27 pd graph;
#X obj 25 1 inlet;
#X connect 0 0 1 1;
#X connect 2 0 1 0;
#X restore 343 345 pd canvas-ctrl;
#N canvas 673 23 349 258 canvas-ctrl 0;
#X obj 291 1 inlet;
#N canvas 248 270 1089 459 graph 0;
#X floatatom 180 241 5 0 0 0 Lbl-Sz - - 0;
#X floatatom 273 241 5 0 29 0 Lbl-Clr - - 0;
#N canvas 32 23 1408 389 label-properties 0;
#X floatatom 314 72 3 18 100 0 - - - 0;
#X msg 314 99 size \$1;
#X obj 400 121 pack 100 60, f 18;
#X obj 491 93 t b f;
#X floatatom 491 68 4 18 100 0 - - - 0;
#X floatatom 400 68 4 18 100 0 - - - 0;
#X msg 400 148 vis_size \$1 \$2;
#X text 442 41 w/x;
#X text 532 41 h/y;
#X floatatom 589 116 4 0 3 0 - - - 0;
#X obj 721 135 t b f;
#X floatatom 721 116 5 5 50 0 - - - 0;
#X msg 589 185 label_font \$1 \$2;
#X text 632 41 type;
#X text 760 40 size;
#X obj 589 64 vradio 15 1 0 3 empty empty empty 0 -8 0 10 #fcfcfc #000000 #000000 0;
#X text 605 63 DejaVu Sans Mono;
#X text 605 78 Helvetica;
#X text 606 93 Times;
#X floatatom 817 71 4 -100 250 0 - - - 0;
#X obj 889 98 t b f;
#X floatatom 889 71 5 -150 150 0 - - - 0;
#X msg 817 148 label_pos \$1 \$2;
#X text 856 41 x;
#X text 929 41 y;
#X obj 817 126 pack 17 20, f 17;
#X obj 589 164 pack 0 25, f 24;
#X msg 973 129 label \$1;
#X floatatom 1191 70 3 0 29 1 bgColor - - 0;
#X floatatom 1295 70 3 0 29 1 lblColor - - 0;
#X obj 1295 92 t b f;
#X msg 1191 145 color \$1 \$2 \$3;
#X obj 1191 124 pack 1 22 22, f 14;
#X text 1170 18 Color Presets (0-29):;
#X obj 24 42 inlet;
#X obj 8 42 cnv 14 14 14 empty empty 0 4 8 0 12 #606060 #dcdcdc 0;
#X symbolatom 24 210 10 0 0 0 - - - 0;
#X obj 588 330 send, f 13;
#X obj 400 42 inlet;
#X obj 314 42 inlet;
#X obj 491 42 inlet;
#X obj 155 42 cnv 14 14 14 empty empty 1 4 8 0 12 #606060 #dcdcdc 0;
#X obj 297 42 cnv 14 14 14 empty empty 2 4 8 0 12 #606060 #dcdcdc 0;
#X obj 384 42 cnv 14 14 14 empty empty 3 4 8 0 12 #606060 #dcdcdc 0;
#X obj 721 42 inlet;
#X obj 589 42 inlet;
#X obj 817 42 inlet;
#X obj 476 42 cnv 14 14 14 empty empty 4 4 8 0 12 #606060 #dcdcdc 0;
#X obj 573 42 cnv 14 14 14 empty empty 5 4 8 0 12 #606060 #dcdcdc 0;
#X obj 703 42 cnv 14 14 14 empty empty 6 4 8 0 12 #606060 #dcdcdc 0;
#X text 315 18 Size;
#X text 421 18 Visible Size;
#X text 635 18 Label Font;
#X text 824 18 Label Offset;
#X obj 889 42 inlet;
#X obj 800 42 cnv 14 14 14 empty empty 7 4 8 0 12 #606060 #dcdcdc 0;
#X msg 1052 89 symbol my\ label;
#X symbolatom 973 92 10 0 0 0 - - - 0;
#X obj 973 42 inlet;
#X obj 872 42 cnv 14 14 14 empty empty 8 4 8 0 12 #606060 #dcdcdc 0;
#X msg 973 70 symbol \$1;
#X text 1007 18 Label Text;
#X obj 1191 42 inlet;
#X obj 958 42 cnv 14 14 14 empty empty 9 4 8 0 12 #606060 #dcdcdc 0;
#X obj 1295 42 inlet;
#X obj 1174 42 cnv 14 14 14 empty empty 10 0 8 0 12 #606060 #dcdcdc 0;
#X text 0 18 Canvas Name;
#X obj 284 2 cnv 5 1 260 empty empty empty 20 12 0 14 #7c7c7c #404040 0;
#X obj 738 322 cnv 2 700 40 empty \$0-test_canvas tdh.ac.euclidianRhythm.ui 20 15 0 16 #a0a0a0 #202020 0;
#X obj 415 328 s \$0-test_canvas;
#X obj 210 187 spigot;
#X obj 170 88 tgl 15 0 empty empty empty 17 7 0 10 #fcfcfc #000000 #000000 0 1;
#X obj 249 134 == 1;
#X obj 101 135 == 0;
#X obj 144 134 list append \$0;
#X msg 144 157 symbol \$2-\$1;
#X msg 24 136 symbol \$1;
#X obj 24 167 spigot;
#X obj 170 42 inlet;
#X obj 1279 42 cnv 14 14 14 empty empty 11 0 8 0 12 #606060 #dcdcdc 0;
#X text 136 18 Add "\$0" option;
#X obj 374 2 cnv 5 1 260 empty empty empty 20 12 0 14 #7c7c7c #404040 0;
#X obj 561 2 cnv 5 1 260 empty empty empty 20 12 0 14 #7c7c7c #404040 0;
#X obj 791 2 cnv 5 1 260 empty empty empty 20 12 0 14 #7c7c7c #404040 0;
#X obj 944 2 cnv 5 1 260 empty empty empty 20 12 0 14 #7c7c7c #404040 0;
#X obj 1164 2 cnv 5 1 260 empty empty empty 20 12 0 14 #7c7c7c #404040 0;
#X connect 0 0 1 0;
#X connect 1 0 37 0;
#X connect 1 0 69 0;
#X connect 2 0 6 0;
#X connect 3 0 2 0;
#X connect 3 1 2 1;
#X connect 4 0 3 0;
#X connect 5 0 2 0;
#X connect 6 0 37 0;
#X connect 6 0 69 0;
#X connect 9 0 26 0;
#X connect 10 0 26 0;
#X connect 10 1 26 1;
#X connect 11 0 10 0;
#X connect 12 0 37 0;
#X connect 12 0 69 0;
#X connect 15 0 9 0;
#X connect 19 0 25 0;
#X connect 20 0 25 0;
#X connect 20 1 25 1;
#X connect 21 0 20 0;
#X connect 22 0 37 0;
#X connect 22 0 69 0;
#X connect 25 0 22 0;
#X connect 26 0 12 0;
#X connect 27 0 37 0;
#X connect 27 0 69 0;
#X connect 28 0 32 0;
#X connect 29 0 30 0;
#X connect 30 0 32 0;
#X connect 30 1 32 2;
#X connect 31 0 37 0;
#X connect 31 0 69 0;
#X connect 32 0 31 0;
#X connect 34 0 74 0;
#X connect 34 0 76 0;
#X connect 36 0 37 1;
#X connect 38 0 5 0;
#X connect 39 0 0 0;
#X connect 40 0 4 0;
#X connect 44 0 11 0;
#X connect 45 0 15 0;
#X connect 46 0 19 0;
#X connect 54 0 21 0;
#X connect 56 0 27 0;
#X connect 57 0 27 0;
#X connect 58 0 60 0;
#X connect 60 0 57 0;
#X connect 62 0 28 0;
#X connect 64 0 29 0;
#X connect 70 0 36 0;
#X connect 71 0 72 0;
#X connect 71 0 73 0;
#X connect 72 0 70 1;
#X connect 73 0 77 1;
#X connect 74 0 75 0;
#X connect 75 0 70 0;
#X connect 76 0 77 0;
#X connect 77 0 36 0;
#X connect 78 0 71 0;
#X restore 6 354 pd label-properties;
#X f 45;
#X floatatom 273 219 5 0 29 0 BG-Clr - - 0;
#X floatatom 180 174 5 0 0 0 Vis-Sz-W - - 0;
#X floatatom 181 198 5 0 0 0 Vis-Sz-H - - 0;
#X floatatom 271 150 5 0 0 0 Lbl-X - - 0;
#X floatatom 272 174 5 0 0 0 Lbl-Y - - 0;
#X floatatom 180 150 5 0 0 0 Size - - 0;
#X symbolatom 214 127 10 0 0 0 CnvReceiveSymbol - - 0;
#X floatatom 181 219 5 0 2 0 Lbl-Fon - - 0;
#X symbolatom 274 195 10 0 0 0 Lbl-Txt - - 0;
#X obj 295 128 tgl 15 0 empty empty Append_0 20 7 0 10 #fcfcfc #fc8000 #000000 0 1;
#X text 194 103 Label Properties;
#X obj 28 18 inlet;
#X obj 414 223 cnv 15 500 30 empty \$0-myCanvas This\ is\ my\ label? 9 13 0 18 #e0e0e0 #606060 0;
#X obj 28 54 route doll rec size visw vish lblfon lblsz lblx lbly bgclr lblclr, f 66;
#X obj 56 93 symbol;
#X text 6 4 _;
#X text 479 173 dollarsign0-myCanvas;
#X msg 74 18 doll 1 \, rec myCanvas \, size 15 \, visw 50 \, vish 60 \, lblfon 0 \, lblsz 18 \, lblx 9 \, lbly 13 \, bgclr 10 \, lblclr 21, f 106;
#N canvas 240 66 752 410 \$0-how-to-set-values-externally 0;
#X text 112 49 doll [0/1] - toggle on appending "\$0-" at the start of the recieve symbol, f 85;
#X text 112 102 visw [float] - the visible width of the canvas in pixels, f 85;
#X text 112 85 size [float] - the size of the clickable/dragable portion of the canvas in pixels, f 85;
#X text 112 122 vish [float] - the visible height of the canvas in pixels, f 85;
#X text 111 141 lblfon [0/1/2] - font designation for the canvas' label \, with [0] for Menlo \, [1] for, f 89;
#X text 131 155 Helvetica \, [2] for Times. Note that these fonts may be different on Windows or Linux, f 84;
#X text 111 173 lblsz [float] - font size designation for the canvas' label, f 85;
#X text 111 213 lbly [float] - y offset in pixels from the top left corner of the canvas, f 85;
#X text 111 193 lblx [float] - x offset (horizontal) in pixels from the top left corner of the canvas, f 85;
#X text 4 29 To set the values for your canvas object externally \, send messages with the following signifiers to the 0 (leftmost) inlet:, f 124;
#X msg 31 336 doll 1 \, rec myCanvas \, size 15 \, visw 500 \, vish 30 \, lblfon 0 \, lblsz 18 \, lblx 9 \, lbly 13 \, bgclr 10 \, lblclr 21, f 106;
#X text 111 67 rec [symbol] - receive symbol for the canvas, f 85;
#X obj 90 241 cnv 5 5 5 empty \$0-canvas-format-helper-boldstatement1 Please\ note\ that\ the\ $-0\ designation\ (1\ or\ 0)\ MUST\ be\ sent\ first\,\ followed\ by\ the\ canvas\  1 9 0 12 #fcfcfc #fc0400 0;
#N canvas 2423 143 808 250 init 0;
#X msg 30 102 label \$1;
#X msg 419 120 label \$1;
#X obj 29 147 s \$0-canvas-format-helper-boldstatement1;
#X obj 418 164 s \$0-canvas-format-helper-boldstatement2;
#X obj 233 15 loadbang;
#X msg 420 51 symbol receive\ symbol!\ Failure\ to\ do\ so\ will\ cause\ incorrect\ parameter\ dispatching!;
#X msg 26 43 symbol Please\\\ note\\\ that\\\ the\\\ $-0\\\ designation\\\ (1\\\ or\\\ 0)\\\ MUST\\\ be\\\ sent\\\ first\\\,\\\ followed\\\ by\\\ the\\\ canvas\\\ ;
#X connect 0 0 2 0;
#X connect 1 0 3 0;
#X connect 4 0 5 0;
#X connect 4 0 6 0;
#X connect 5 0 1 0;
#X connect 6 0 0 0;
#X restore 659 9 pd init;
#X obj 90 257 cnv 5 5 5 empty \$0-canvas-format-helper-boldstatement2 receive\ symbol!\ Failure\ to\ do\ so\ will\ cause\ incorrect\ parameter\ dispatching! 1 9 0 12 #fcfcfc #fc0400 0;
#X msg 112 362 symbol this\ is\ my\ label!;
#X text 296 357 The label parameter must be sent separately to Inlet 1 (rightmost inlet). The message must be prepended with the "symbol" identifier \, and the escape character () needs to be set in the message:, f 68;
#X text 102 286 All parameters EXCEPT label can be sent in a single message to Inlet 0 (leftmost inlet) like below (and this can be copied and pasted for easy initializing formatting)., f 89;
#X restore 326 378 pd \$0-how-to-set-values-externally;
#X msg 326 336 vis 1;
#X obj 326 357 s pd-\$0-how-to-set-values-externally;
#X obj 120 263 bng 15 250 50 0 empty empty empty 17 7 0 10 #fcfcfc #000000 #000000;
#X text 141 263 How to set canvas values externally;
#X text 891 18 All left-inlet messages;
#X text 984 47 Label text;
#X msg 636 48 symbol This\ is\ my\ label?;
#X obj 587 47 inlet;
#X obj 632 184 cnv 5 5 5 empty empty ↴ -3 3 0 24 #fcfcfc #606060 0;
#X connect 0 0 2 6;
#X connect 1 0 2 11;
#X connect 3 0 2 10;
#X connect 4 0 2 3;
#X connect 5 0 2 4;
#X connect 6 0 2 7;
#X connect 7 0 2 8;
#X connect 8 0 2 2;
#X connect 9 0 2 0;
#X connect 10 0 2 5;
#X connect 11 0 2 9;
#X connect 12 0 2 1;
#X connect 14 0 16 0;
#X connect 16 0 12 0;
#X connect 16 1 17 0;
#X connect 16 2 8 0;
#X connect 16 3 4 0;
#X connect 16 4 5 0;
#X connect 16 5 10 0;
#X connect 16 6 0 0;
#X connect 16 7 6 0;
#X connect 16 8 7 0;
#X connect 16 9 3 0;
#X connect 16 10 1 0;
#X connect 17 0 9 0;
#X connect 20 0 16 0;
#X connect 22 0 23 0;
#X connect 24 0 22 0;
#X connect 28 0 11 0;
#X connect 29 0 11 0;
#X coords 0 -1 1 1 300 190 2 100 100;
#X restore 25 27 pd graph;
#X obj 25 1 inlet;
#X connect 0 0 1 1;
#X connect 2 0 1 0;
#X restore 343 465 pd canvas-ctrl;
#N canvas 2452 418 349 258 canvas-ctrl 0;
#X obj 291 1 inlet;
#N canvas 1417 303 1089 459 graph 0;
#X floatatom 180 241 5 0 0 0 Lbl-Sz - - 0;
#X floatatom 273 241 5 0 29 0 Lbl-Clr - - 0;
#N canvas 32 23 1408 389 label-properties 0;
#X floatatom 314 72 3 18 100 0 - - - 0;
#X msg 314 99 size \$1;
#X obj 400 121 pack 100 60, f 18;
#X obj 491 93 t b f;
#X floatatom 491 68 4 18 100 0 - - - 0;
#X floatatom 400 68 4 18 100 0 - - - 0;
#X msg 400 148 vis_size \$1 \$2;
#X text 442 41 w/x;
#X text 532 41 h/y;
#X floatatom 589 116 4 0 3 0 - - - 0;
#X obj 721 135 t b f;
#X floatatom 721 116 5 5 50 0 - - - 0;
#X msg 589 185 label_font \$1 \$2;
#X text 632 41 type;
#X text 760 40 size;
#X obj 589 64 vradio 15 1 0 3 empty empty empty 0 -8 0 10 #fcfcfc #000000 #000000 0;
#X text 605 63 DejaVu Sans Mono;
#X text 605 78 Helvetica;
#X text 606 93 Times;
#X floatatom 817 71 4 -100 250 0 - - - 0;
#X obj 889 98 t b f;
#X floatatom 889 71 5 -150 150 0 - - - 0;
#X msg 817 148 label_pos \$1 \$2;
#X text 856 41 x;
#X text 929 41 y;
#X obj 817 126 pack 17 20, f 17;
#X obj 589 164 pack 0 25, f 24;
#X msg 973 129 label \$1;
#X floatatom 1191 70 3 0 29 1 bgColor - - 0;
#X floatatom 1295 70 3 0 29 1 lblColor - - 0;
#X obj 1295 92 t b f;
#X msg 1191 145 color \$1 \$2 \$3;
#X obj 1191 124 pack 1 22 22, f 14;
#X text 1170 18 Color Presets (0-29):;
#X obj 24 42 inlet;
#X obj 8 42 cnv 14 14 14 empty empty 0 4 8 0 12 #606060 #dcdcdc 0;
#X symbolatom 24 210 10 0 0 0 - - - 0;
#X obj 588 330 send, f 13;
#X obj 400 42 inlet;
#X obj 314 42 inlet;
#X obj 491 42 inlet;
#X obj 155 42 cnv 14 14 14 empty empty 1 4 8 0 12 #606060 #dcdcdc 0;
#X obj 297 42 cnv 14 14 14 empty empty 2 4 8 0 12 #606060 #dcdcdc 0;
#X obj 384 42 cnv 14 14 14 empty empty 3 4 8 0 12 #606060 #dcdcdc 0;
#X obj 721 42 inlet;
#X obj 589 42 inlet;
#X obj 817 42 inlet;
#X obj 476 42 cnv 14 14 14 empty empty 4 4 8 0 12 #606060 #dcdcdc 0;
#X obj 573 42 cnv 14 14 14 empty empty 5 4 8 0 12 #606060 #dcdcdc 0;
#X obj 703 42 cnv 14 14 14 empty empty 6 4 8 0 12 #606060 #dcdcdc 0;
#X text 315 18 Size;
#X text 421 18 Visible Size;
#X text 635 18 Label Font;
#X text 824 18 Label Offset;
#X obj 889 42 inlet;
#X obj 800 42 cnv 14 14 14 empty empty 7 4 8 0 12 #606060 #dcdcdc 0;
#X msg 1052 89 symbol my\ label;
#X symbolatom 973 92 10 0 0 0 - - - 0;
#X obj 973 42 inlet;
#X obj 872 42 cnv 14 14 14 empty empty 8 4 8 0 12 #606060 #dcdcdc 0;
#X msg 973 70 symbol \$1;
#X text 1007 18 Label Text;
#X obj 1191 42 inlet;
#X obj 958 42 cnv 14 14 14 empty empty 9 4 8 0 12 #606060 #dcdcdc 0;
#X obj 1295 42 inlet;
#X obj 1174 42 cnv 14 14 14 empty empty 10 0 8 0 12 #606060 #dcdcdc 0;
#X text 0 18 Canvas Name;
#X obj 284 2 cnv 5 1 260 empty empty empty 20 12 0 14 #7c7c7c #404040 0;
#X obj 738 322 cnv 2 700 40 empty \$0-test_canvas tdh.ac.euclidianRhythm.ui 20 15 0 16 #a0a0a0 #202020 0;
#X obj 415 328 s \$0-test_canvas;
#X obj 210 187 spigot;
#X obj 170 88 tgl 15 0 empty empty empty 17 7 0 10 #fcfcfc #000000 #000000 0 1;
#X obj 249 134 == 1;
#X obj 101 135 == 0;
#X obj 144 134 list append \$0;
#X msg 144 157 symbol \$2-\$1;
#X msg 24 136 symbol \$1;
#X obj 24 167 spigot;
#X obj 170 42 inlet;
#X obj 1279 42 cnv 14 14 14 empty empty 11 0 8 0 12 #606060 #dcdcdc 0;
#X text 136 18 Add "\$0" option;
#X obj 374 2 cnv 5 1 260 empty empty empty 20 12 0 14 #7c7c7c #404040 0;
#X obj 561 2 cnv 5 1 260 empty empty empty 20 12 0 14 #7c7c7c #404040 0;
#X obj 791 2 cnv 5 1 260 empty empty empty 20 12 0 14 #7c7c7c #404040 0;
#X obj 944 2 cnv 5 1 260 empty empty empty 20 12 0 14 #7c7c7c #404040 0;
#X obj 1164 2 cnv 5 1 260 empty empty empty 20 12 0 14 #7c7c7c #404040 0;
#X connect 0 0 1 0;
#X connect 1 0 37 0;
#X connect 1 0 69 0;
#X connect 2 0 6 0;
#X connect 3 0 2 0;
#X connect 3 1 2 1;
#X connect 4 0 3 0;
#X connect 5 0 2 0;
#X connect 6 0 37 0;
#X connect 6 0 69 0;
#X connect 9 0 26 0;
#X connect 10 0 26 0;
#X connect 10 1 26 1;
#X connect 11 0 10 0;
#X connect 12 0 37 0;
#X connect 12 0 69 0;
#X connect 15 0 9 0;
#X connect 19 0 25 0;
#X connect 20 0 25 0;
#X connect 20 1 25 1;
#X connect 21 0 20 0;
#X connect 22 0 37 0;
#X connect 22 0 69 0;
#X connect 25 0 22 0;
#X connect 26 0 12 0;
#X connect 27 0 37 0;
#X connect 27 0 69 0;
#X connect 28 0 32 0;
#X connect 29 0 30 0;
#X connect 30 0 32 0;
#X connect 30 1 32 2;
#X connect 31 0 37 0;
#X connect 31 0 69 0;
#X connect 32 0 31 0;
#X connect 34 0 74 0;
#X connect 34 0 76 0;
#X connect 36 0 37 1;
#X connect 38 0 5 0;
#X connect 39 0 0 0;
#X connect 40 0 4 0;
#X connect 44 0 11 0;
#X connect 45 0 15 0;
#X connect 46 0 19 0;
#X connect 54 0 21 0;
#X connect 56 0 27 0;
#X connect 57 0 27 0;
#X connect 58 0 60 0;
#X connect 60 0 57 0;
#X connect 62 0 28 0;
#X connect 64 0 29 0;
#X connect 70 0 36 0;
#X connect 71 0 72 0;
#X connect 71 0 73 0;
#X connect 72 0 70 1;
#X connect 73 0 77 1;
#X connect 74 0 75 0;
#X connect 75 0 70 0;
#X connect 76 0 77 0;
#X connect 77 0 36 0;
#X connect 78 0 71 0;
#X restore 6 354 pd label-properties;
#X f 45;
#X floatatom 273 219 5 0 29 0 BG-Clr - - 0;
#X floatatom 180 174 5 0 0 0 Vis-Sz-W - - 0;
#X floatatom 181 198 5 0 0 0 Vis-Sz-H - - 0;
#X floatatom 271 150 5 0 0 0 Lbl-X - - 0;
#X floatatom 272 174 5 0 0 0 Lbl-Y - - 0;
#X floatatom 180 150 5 0 0 0 Size - - 0;
#X symbolatom 214 127 10 0 0 0 CnvReceiveSymbol - - 0;
#X floatatom 181 219 5 0 2 0 Lbl-Fon - - 0;
#X symbolatom 274 195 10 0 0 0 Lbl-Txt - - 0;
#X obj 295 128 tgl 15 0 empty empty Append_0 20 7 0 10 #fcfcfc #fc8000 #000000 0 1;
#X text 194 103 Label Properties;
#X obj 28 18 inlet;
#X obj 414 223 cnv 15 500 30 empty \$0-myCanvas This\ is\ my\ label? 9 13 0 18 #e0e0e0 #606060 0;
#X obj 28 54 route doll rec size visw vish lblfon lblsz lblx lbly bgclr lblclr, f 66;
#X obj 56 93 symbol;
#X text 6 4 _;
#X text 479 173 dollarsign0-myCanvas;
#X msg 74 18 doll 1 \, rec myCanvas \, size 15 \, visw 50 \, vish 60 \, lblfon 0 \, lblsz 18 \, lblx 9 \, lbly 13 \, bgclr 10 \, lblclr 21, f 106;
#N canvas 240 66 752 410 \$0-how-to-set-values-externally 0;
#X text 112 49 doll [0/1] - toggle on appending "\$0-" at the start of the recieve symbol, f 85;
#X text 112 102 visw [float] - the visible width of the canvas in pixels, f 85;
#X text 112 85 size [float] - the size of the clickable/dragable portion of the canvas in pixels, f 85;
#X text 112 122 vish [float] - the visible height of the canvas in pixels, f 85;
#X text 111 141 lblfon [0/1/2] - font designation for the canvas' label \, with [0] for Menlo \, [1] for, f 89;
#X text 131 155 Helvetica \, [2] for Times. Note that these fonts may be different on Windows or Linux, f 84;
#X text 111 173 lblsz [float] - font size designation for the canvas' label, f 85;
#X text 111 213 lbly [float] - y offset in pixels from the top left corner of the canvas, f 85;
#X text 111 193 lblx [float] - x offset (horizontal) in pixels from the top left corner of the canvas, f 85;
#X text 4 29 To set the values for your canvas object externally \, send messages with the following signifiers to the 0 (leftmost) inlet:, f 124;
#X msg 31 336 doll 1 \, rec myCanvas \, size 15 \, visw 500 \, vish 30 \, lblfon 0 \, lblsz 18 \, lblx 9 \, lbly 13 \, bgclr 10 \, lblclr 21, f 106;
#X text 111 67 rec [symbol] - receive symbol for the canvas, f 85;
#X obj 90 241 cnv 5 5 5 empty \$0-canvas-format-helper-boldstatement1 Please\ note\ that\ the\ $-0\ designation\ (1\ or\ 0)\ MUST\ be\ sent\ first\,\ followed\ by\ the\ canvas\  1 9 0 12 #fcfcfc #fc0400 0;
#N canvas 2423 143 808 250 init 0;
#X msg 30 102 label \$1;
#X msg 419 120 label \$1;
#X obj 29 147 s \$0-canvas-format-helper-boldstatement1;
#X obj 418 164 s \$0-canvas-format-helper-boldstatement2;
#X obj 233 15 loadbang;
#X msg 420 51 symbol receive\ symbol!\ Failure\ to\ do\ so\ will\ cause\ incorrect\ parameter\ dispatching!;
#X msg 26 43 symbol Please\\\ note\\\ that\\\ the\\\ $-0\\\ designation\\\ (1\\\ or\\\ 0)\\\ MUST\\\ be\\\ sent\\\ first\\\,\\\ followed\\\ by\\\ the\\\ canvas\\\ ;
#X connect 0 0 2 0;
#X connect 1 0 3 0;
#X connect 4 0 5 0;
#X connect 4 0 6 0;
#X connect 5 0 1 0;
#X connect 6 0 0 0;
#X restore 659 9 pd init;
#X obj 90 257 cnv 5 5 5 empty \$0-canvas-format-helper-boldstatement2 receive\ symbol!\ Failure\ to\ do\ so\ will\ cause\ incorrect\ parameter\ dispatching! 1 9 0 12 #fcfcfc #fc0400 0;
#X msg 112 362 symbol this\ is\ my\ label!;
#X text 296 357 The label parameter must be sent separately to Inlet 1 (rightmost inlet). The message must be prepended with the "symbol" identifier \, and the escape character () needs to be set in the message:, f 68;
#X text 102 286 All parameters EXCEPT label can be sent in a single message to Inlet 0 (leftmost inlet) like below (and this can be copied and pasted for easy initializing formatting)., f 89;
#X restore 326 378 pd \$0-how-to-set-values-externally;
#X msg 326 336 vis 1;
#X obj 326 357 s pd-\$0-how-to-set-values-externally;
#X obj 120 263 bng 15 250 50 0 empty empty empty 17 7 0 10 #fcfcfc #000000 #000000;
#X text 141 263 How to set canvas values externally;
#X text 891 18 All left-inlet messages;
#X text 984 47 Label text;
#X msg 636 48 symbol This\ is\ my\ label?;
#X obj 587 47 inlet;
#X obj 632 184 cnv 5 5 5 empty empty ↴ -3 3 0 24 #fcfcfc #606060 0;
#X connect 0 0 2 6;
#X connect 1 0 2 11;
#X connect 3 0 2 10;
#X connect 4 0 2 3;
#X connect 5 0 2 4;
#X connect 6 0 2 7;
#X connect 7 0 2 8;
#X connect 8 0 2 2;
#X connect 9 0 2 0;
#X connect 10 0 2 5;
#X connect 11 0 2 9;
#X connect 12 0 2 1;
#X connect 14 0 16 0;
#X connect 16 0 12 0;
#X connect 16 1 17 0;
#X connect 16 2 8 0;
#X connect 16 3 4 0;
#X connect 16 4 5 0;
#X connect 16 5 10 0;
#X connect 16 6 0 0;
#X connect 16 7 6 0;
#X connect 16 8 7 0;
#X connect 16 9 3 0;
#X connect 16 10 1 0;
#X connect 17 0 9 0;
#X connect 20 0 16 0;
#X connect 22 0 23 0;
#X connect 24 0 22 0;
#X connect 28 0 11 0;
#X connect 29 0 11 0;
#X coords 0 -1 1 1 300 190 2 100 100;
#X restore 25 27 pd graph;
#X obj 25 1 inlet;
#X connect 0 0 1 1;
#X connect 2 0 1 0;
#X restore 343 595 pd canvas-ctrl;
#N canvas 673 23 349 258 canvas-ctrl 0;
#X obj 291 1 inlet;
#N canvas 248 270 1089 459 graph 0;
#X floatatom 180 241 5 0 0 0 Lbl-Sz - - 0;
#X floatatom 273 241 5 0 29 0 Lbl-Clr - - 0;
#N canvas 32 23 1408 389 label-properties 0;
#X floatatom 314 72 3 18 100 0 - - - 0;
#X msg 314 99 size \$1;
#X obj 400 121 pack 100 60, f 18;
#X obj 491 93 t b f;
#X floatatom 491 68 4 18 100 0 - - - 0;
#X floatatom 400 68 4 18 100 0 - - - 0;
#X msg 400 148 vis_size \$1 \$2;
#X text 442 41 w/x;
#X text 532 41 h/y;
#X floatatom 589 116 4 0 3 0 - - - 0;
#X obj 721 135 t b f;
#X floatatom 721 116 5 5 50 0 - - - 0;
#X msg 589 185 label_font \$1 \$2;
#X text 632 41 type;
#X text 760 40 size;
#X obj 589 64 vradio 15 1 0 3 empty empty empty 0 -8 0 10 #fcfcfc #000000 #000000 0;
#X text 605 63 DejaVu Sans Mono;
#X text 605 78 Helvetica;
#X text 606 93 Times;
#X floatatom 817 71 4 -100 250 0 - - - 0;
#X obj 889 98 t b f;
#X floatatom 889 71 5 -150 150 0 - - - 0;
#X msg 817 148 label_pos \$1 \$2;
#X text 856 41 x;
#X text 929 41 y;
#X obj 817 126 pack 17 20, f 17;
#X obj 589 164 pack 0 25, f 24;
#X msg 973 129 label \$1;
#X floatatom 1191 70 3 0 29 1 bgColor - - 0;
#X floatatom 1295 70 3 0 29 1 lblColor - - 0;
#X obj 1295 92 t b f;
#X msg 1191 145 color \$1 \$2 \$3;
#X obj 1191 124 pack 1 22 22, f 14;
#X text 1170 18 Color Presets (0-29):;
#X obj 24 42 inlet;
#X obj 8 42 cnv 14 14 14 empty empty 0 4 8 0 12 #606060 #dcdcdc 0;
#X symbolatom 24 210 10 0 0 0 - - - 0;
#X obj 588 330 send, f 13;
#X obj 400 42 inlet;
#X obj 314 42 inlet;
#X obj 491 42 inlet;
#X obj 155 42 cnv 14 14 14 empty empty 1 4 8 0 12 #606060 #dcdcdc 0;
#X obj 297 42 cnv 14 14 14 empty empty 2 4 8 0 12 #606060 #dcdcdc 0;
#X obj 384 42 cnv 14 14 14 empty empty 3 4 8 0 12 #606060 #dcdcdc 0;
#X obj 721 42 inlet;
#X obj 589 42 inlet;
#X obj 817 42 inlet;
#X obj 476 42 cnv 14 14 14 empty empty 4 4 8 0 12 #606060 #dcdcdc 0;
#X obj 573 42 cnv 14 14 14 empty empty 5 4 8 0 12 #606060 #dcdcdc 0;
#X obj 703 42 cnv 14 14 14 empty empty 6 4 8 0 12 #606060 #dcdcdc 0;
#X text 315 18 Size;
#X text 421 18 Visible Size;
#X text 635 18 Label Font;
#X text 824 18 Label Offset;
#X obj 889 42 inlet;
#X obj 800 42 cnv 14 14 14 empty empty 7 4 8 0 12 #606060 #dcdcdc 0;
#X msg 1052 89 symbol my\ label;
#X symbolatom 973 92 10 0 0 0 - - - 0;
#X obj 973 42 inlet;
#X obj 872 42 cnv 14 14 14 empty empty 8 4 8 0 12 #606060 #dcdcdc 0;
#X msg 973 70 symbol \$1;
#X text 1007 18 Label Text;
#X obj 1191 42 inlet;
#X obj 958 42 cnv 14 14 14 empty empty 9 4 8 0 12 #606060 #dcdcdc 0;
#X obj 1295 42 inlet;
#X obj 1174 42 cnv 14 14 14 empty empty 10 0 8 0 12 #606060 #dcdcdc 0;
#X text 0 18 Canvas Name;
#X obj 284 2 cnv 5 1 260 empty empty empty 20 12 0 14 #7c7c7c #404040 0;
#X obj 738 322 cnv 2 700 40 empty \$0-test_canvas tdh.ac.euclidianRhythm.ui 20 15 0 16 #a0a0a0 #202020 0;
#X obj 415 328 s \$0-test_canvas;
#X obj 210 187 spigot;
#X obj 170 88 tgl 15 0 empty empty empty 17 7 0 10 #fcfcfc #000000 #000000 0 1;
#X obj 249 134 == 1;
#X obj 101 135 == 0;
#X obj 144 134 list append \$0;
#X msg 144 157 symbol \$2-\$1;
#X msg 24 136 symbol \$1;
#X obj 24 167 spigot;
#X obj 170 42 inlet;
#X obj 1279 42 cnv 14 14 14 empty empty 11 0 8 0 12 #606060 #dcdcdc 0;
#X text 136 18 Add "\$0" option;
#X obj 374 2 cnv 5 1 260 empty empty empty 20 12 0 14 #7c7c7c #404040 0;
#X obj 561 2 cnv 5 1 260 empty empty empty 20 12 0 14 #7c7c7c #404040 0;
#X obj 791 2 cnv 5 1 260 empty empty empty 20 12 0 14 #7c7c7c #404040 0;
#X obj 944 2 cnv 5 1 260 empty empty empty 20 12 0 14 #7c7c7c #404040 0;
#X obj 1164 2 cnv 5 1 260 empty empty empty 20 12 0 14 #7c7c7c #404040 0;
#X connect 0 0 1 0;
#X connect 1 0 37 0;
#X connect 1 0 69 0;
#X connect 2 0 6 0;
#X connect 3 0 2 0;
#X connect 3 1 2 1;
#X connect 4 0 3 0;
#X connect 5 0 2 0;
#X connect 6 0 37 0;
#X connect 6 0 69 0;
#X connect 9 0 26 0;
#X connect 10 0 26 0;
#X connect 10 1 26 1;
#X connect 11 0 10 0;
#X connect 12 0 37 0;
#X connect 12 0 69 0;
#X connect 15 0 9 0;
#X connect 19 0 25 0;
#X connect 20 0 25 0;
#X connect 20 1 25 1;
#X connect 21 0 20 0;
#X connect 22 0 37 0;
#X connect 22 0 69 0;
#X connect 25 0 22 0;
#X connect 26 0 12 0;
#X connect 27 0 37 0;
#X connect 27 0 69 0;
#X connect 28 0 32 0;
#X connect 29 0 30 0;
#X connect 30 0 32 0;
#X connect 30 1 32 2;
#X connect 31 0 37 0;
#X connect 31 0 69 0;
#X connect 32 0 31 0;
#X connect 34 0 74 0;
#X connect 34 0 76 0;
#X connect 36 0 37 1;
#X connect 38 0 5 0;
#X connect 39 0 0 0;
#X connect 40 0 4 0;
#X connect 44 0 11 0;
#X connect 45 0 15 0;
#X connect 46 0 19 0;
#X connect 54 0 21 0;
#X connect 56 0 27 0;
#X connect 57 0 27 0;
#X connect 58 0 60 0;
#X connect 60 0 57 0;
#X connect 62 0 28 0;
#X connect 64 0 29 0;
#X connect 70 0 36 0;
#X connect 71 0 72 0;
#X connect 71 0 73 0;
#X connect 72 0 70 1;
#X connect 73 0 77 1;
#X connect 74 0 75 0;
#X connect 75 0 70 0;
#X connect 76 0 77 0;
#X connect 77 0 36 0;
#X connect 78 0 71 0;
#X restore 6 354 pd label-properties;
#X f 45;
#X floatatom 273 219 5 0 29 0 BG-Clr - - 0;
#X floatatom 180 174 5 0 0 0 Vis-Sz-W - - 0;
#X floatatom 181 198 5 0 0 0 Vis-Sz-H - - 0;
#X floatatom 271 150 5 0 0 0 Lbl-X - - 0;
#X floatatom 272 174 5 0 0 0 Lbl-Y - - 0;
#X floatatom 180 150 5 0 0 0 Size - - 0;
#X symbolatom 214 127 10 0 0 0 CnvReceiveSymbol - - 0;
#X floatatom 181 219 5 0 2 0 Lbl-Fon - - 0;
#X symbolatom 274 195 10 0 0 0 Lbl-Txt - - 0;
#X obj 295 128 tgl 15 0 empty empty Append_0 20 7 0 10 #fcfcfc #fc8000 #000000 0 1;
#X text 194 103 Label Properties;
#X obj 28 18 inlet;
#X obj 414 223 cnv 15 500 30 empty \$0-myCanvas This\ is\ my\ label? 9 13 0 18 #e0e0e0 #606060 0;
#X obj 28 54 route doll rec size visw vish lblfon lblsz lblx lbly bgclr lblclr, f 66;
#X obj 56 93 symbol;
#X text 6 4 _;
#X text 479 173 dollarsign0-myCanvas;
#X msg 74 18 doll 1 \, rec myCanvas \, size 15 \, visw 50 \, vish 60 \, lblfon 0 \, lblsz 18 \, lblx 9 \, lbly 13 \, bgclr 10 \, lblclr 21, f 106;
#N canvas 240 66 752 410 \$0-how-to-set-values-externally 0;
#X text 112 49 doll [0/1] - toggle on appending "\$0-" at the start of the recieve symbol, f 85;
#X text 112 102 visw [float] - the visible width of the canvas in pixels, f 85;
#X text 112 85 size [float] - the size of the clickable/dragable portion of the canvas in pixels, f 85;
#X text 112 122 vish [float] - the visible height of the canvas in pixels, f 85;
#X text 111 141 lblfon [0/1/2] - font designation for the canvas' label \, with [0] for Menlo \, [1] for, f 89;
#X text 131 155 Helvetica \, [2] for Times. Note that these fonts may be different on Windows or Linux, f 84;
#X text 111 173 lblsz [float] - font size designation for the canvas' label, f 85;
#X text 111 213 lbly [float] - y offset in pixels from the top left corner of the canvas, f 85;
#X text 111 193 lblx [float] - x offset (horizontal) in pixels from the top left corner of the canvas, f 85;
#X text 4 29 To set the values for your canvas object externally \, send messages with the following signifiers to the 0 (leftmost) inlet:, f 124;
#X msg 31 336 doll 1 \, rec myCanvas \, size 15 \, visw 500 \, vish 30 \, lblfon 0 \, lblsz 18 \, lblx 9 \, lbly 13 \, bgclr 10 \, lblclr 21, f 106;
#X text 111 67 rec [symbol] - receive symbol for the canvas, f 85;
#X obj 90 241 cnv 5 5 5 empty \$0-canvas-format-helper-boldstatement1 Please\ note\ that\ the\ $-0\ designation\ (1\ or\ 0)\ MUST\ be\ sent\ first\,\ followed\ by\ the\ canvas\  1 9 0 12 #fcfcfc #fc0400 0;
#N canvas 2423 143 808 250 init 0;
#X msg 30 102 label \$1;
#X msg 419 120 label \$1;
#X obj 29 147 s \$0-canvas-format-helper-boldstatement1;
#X obj 418 164 s \$0-canvas-format-helper-boldstatement2;
#X obj 233 15 loadbang;
#X msg 420 51 symbol receive\ symbol!\ Failure\ to\ do\ so\ will\ cause\ incorrect\ parameter\ dispatching!;
#X msg 26 43 symbol Please\\\ note\\\ that\\\ the\\\ $-0\\\ designation\\\ (1\\\ or\\\ 0)\\\ MUST\\\ be\\\ sent\\\ first\\\,\\\ followed\\\ by\\\ the\\\ canvas\\\ ;
#X connect 0 0 2 0;
#X connect 1 0 3 0;
#X connect 4 0 5 0;
#X connect 4 0 6 0;
#X connect 5 0 1 0;
#X connect 6 0 0 0;
#X restore 659 9 pd init;
#X obj 90 257 cnv 5 5 5 empty \$0-canvas-format-helper-boldstatement2 receive\ symbol!\ Failure\ to\ do\ so\ will\ cause\ incorrect\ parameter\ dispatching! 1 9 0 12 #fcfcfc #fc0400 0;
#X msg 112 362 symbol this\ is\ my\ label!;
#X text 296 357 The label parameter must be sent separately to Inlet 1 (rightmost inlet). The message must be prepended with the "symbol" identifier \, and the escape character () needs to be set in the message:, f 68;
#X text 102 286 All parameters EXCEPT label can be sent in a single message to Inlet 0 (leftmost inlet) like below (and this can be copied and pasted for easy initializing formatting)., f 89;
#X restore 326 378 pd \$0-how-to-set-values-externally;
#X msg 326 336 vis 1;
#X obj 326 357 s pd-\$0-how-to-set-values-externally;
#X obj 120 263 bng 15 250 50 0 empty empty empty 17 7 0 10 #fcfcfc #000000 #000000;
#X text 141 263 How to set canvas values externally;
#X text 891 18 All left-inlet messages;
#X text 984 47 Label text;
#X msg 636 48 symbol This\ is\ my\ label?;
#X obj 587 47 inlet;
#X obj 632 184 cnv 5 5 5 empty empty ↴ -3 3 0 24 #fcfcfc #606060 0;
#X connect 0 0 2 6;
#X connect 1 0 2 11;
#X connect 3 0 2 10;
#X connect 4 0 2 3;
#X connect 5 0 2 4;
#X connect 6 0 2 7;
#X connect 7 0 2 8;
#X connect 8 0 2 2;
#X connect 9 0 2 0;
#X connect 10 0 2 5;
#X connect 11 0 2 9;
#X connect 12 0 2 1;
#X connect 14 0 16 0;
#X connect 16 0 12 0;
#X connect 16 1 17 0;
#X connect 16 2 8 0;
#X connect 16 3 4 0;
#X connect 16 4 5 0;
#X connect 16 5 10 0;
#X connect 16 6 0 0;
#X connect 16 7 6 0;
#X connect 16 8 7 0;
#X connect 16 9 3 0;
#X connect 16 10 1 0;
#X connect 17 0 9 0;
#X connect 20 0 16 0;
#X connect 22 0 23 0;
#X connect 24 0 22 0;
#X connect 28 0 11 0;
#X connect 29 0 11 0;
#X coords 0 -1 1 1 300 190 2 100 100;
#X restore 25 27 pd graph;
#X obj 25 1 inlet;
#X connect 0 0 1 1;
#X connect 2 0 1 0;
#X restore 343 1075 pd canvas-ctrl;
#N canvas 673 23 349 258 canvas-ctrl 0;
#X obj 291 1 inlet;
#N canvas 248 270 1089 459 graph 0;
#X floatatom 180 241 5 0 0 0 Lbl-Sz - - 0;
#X floatatom 273 241 5 0 29 0 Lbl-Clr - - 0;
#N canvas 32 23 1408 389 label-properties 0;
#X floatatom 314 72 3 18 100 0 - - - 0;
#X msg 314 99 size \$1;
#X obj 400 121 pack 100 60, f 18;
#X obj 491 93 t b f;
#X floatatom 491 68 4 18 100 0 - - - 0;
#X floatatom 400 68 4 18 100 0 - - - 0;
#X msg 400 148 vis_size \$1 \$2;
#X text 442 41 w/x;
#X text 532 41 h/y;
#X floatatom 589 116 4 0 3 0 - - - 0;
#X obj 721 135 t b f;
#X floatatom 721 116 5 5 50 0 - - - 0;
#X msg 589 185 label_font \$1 \$2;
#X text 632 41 type;
#X text 760 40 size;
#X obj 589 64 vradio 15 1 0 3 empty empty empty 0 -8 0 10 #fcfcfc #000000 #000000 0;
#X text 605 63 DejaVu Sans Mono;
#X text 605 78 Helvetica;
#X text 606 93 Times;
#X floatatom 817 71 4 -100 250 0 - - - 0;
#X obj 889 98 t b f;
#X floatatom 889 71 5 -150 150 0 - - - 0;
#X msg 817 148 label_pos \$1 \$2;
#X text 856 41 x;
#X text 929 41 y;
#X obj 817 126 pack 17 20, f 17;
#X obj 589 164 pack 0 25, f 24;
#X msg 973 129 label \$1;
#X floatatom 1191 70 3 0 29 1 bgColor - - 0;
#X floatatom 1295 70 3 0 29 1 lblColor - - 0;
#X obj 1295 92 t b f;
#X msg 1191 145 color \$1 \$2 \$3;
#X obj 1191 124 pack 1 22 22, f 14;
#X text 1170 18 Color Presets (0-29):;
#X obj 24 42 inlet;
#X obj 8 42 cnv 14 14 14 empty empty 0 4 8 0 12 #606060 #dcdcdc 0;
#X symbolatom 24 210 10 0 0 0 - - - 0;
#X obj 588 330 send, f 13;
#X obj 400 42 inlet;
#X obj 314 42 inlet;
#X obj 491 42 inlet;
#X obj 155 42 cnv 14 14 14 empty empty 1 4 8 0 12 #606060 #dcdcdc 0;
#X obj 297 42 cnv 14 14 14 empty empty 2 4 8 0 12 #606060 #dcdcdc 0;
#X obj 384 42 cnv 14 14 14 empty empty 3 4 8 0 12 #606060 #dcdcdc 0;
#X obj 721 42 inlet;
#X obj 589 42 inlet;
#X obj 817 42 inlet;
#X obj 476 42 cnv 14 14 14 empty empty 4 4 8 0 12 #606060 #dcdcdc 0;
#X obj 573 42 cnv 14 14 14 empty empty 5 4 8 0 12 #606060 #dcdcdc 0;
#X obj 703 42 cnv 14 14 14 empty empty 6 4 8 0 12 #606060 #dcdcdc 0;
#X text 315 18 Size;
#X text 421 18 Visible Size;
#X text 635 18 Label Font;
#X text 824 18 Label Offset;
#X obj 889 42 inlet;
#X obj 800 42 cnv 14 14 14 empty empty 7 4 8 0 12 #606060 #dcdcdc 0;
#X msg 1052 89 symbol my\ label;
#X symbolatom 973 92 10 0 0 0 - - - 0;
#X obj 973 42 inlet;
#X obj 872 42 cnv 14 14 14 empty empty 8 4 8 0 12 #606060 #dcdcdc 0;
#X msg 973 70 symbol \$1;
#X text 1007 18 Label Text;
#X obj 1191 42 inlet;
#X obj 958 42 cnv 14 14 14 empty empty 9 4 8 0 12 #606060 #dcdcdc 0;
#X obj 1295 42 inlet;
#X obj 1174 42 cnv 14 14 14 empty empty 10 0 8 0 12 #606060 #dcdcdc 0;
#X text 0 18 Canvas Name;
#X obj 284 2 cnv 5 1 260 empty empty empty 20 12 0 14 #7c7c7c #404040 0;
#X obj 738 322 cnv 2 700 40 empty \$0-test_canvas tdh.ac.euclidianRhythm.ui 20 15 0 16 #a0a0a0 #202020 0;
#X obj 415 328 s \$0-test_canvas;
#X obj 210 187 spigot;
#X obj 170 88 tgl 15 0 empty empty empty 17 7 0 10 #fcfcfc #000000 #000000 0 1;
#X obj 249 134 == 1;
#X obj 101 135 == 0;
#X obj 144 134 list append \$0;
#X msg 144 157 symbol \$2-\$1;
#X msg 24 136 symbol \$1;
#X obj 24 167 spigot;
#X obj 170 42 inlet;
#X obj 1279 42 cnv 14 14 14 empty empty 11 0 8 0 12 #606060 #dcdcdc 0;
#X text 136 18 Add "\$0" option;
#X obj 374 2 cnv 5 1 260 empty empty empty 20 12 0 14 #7c7c7c #404040 0;
#X obj 561 2 cnv 5 1 260 empty empty empty 20 12 0 14 #7c7c7c #404040 0;
#X obj 791 2 cnv 5 1 260 empty empty empty 20 12 0 14 #7c7c7c #404040 0;
#X obj 944 2 cnv 5 1 260 empty empty empty 20 12 0 14 #7c7c7c #404040 0;
#X obj 1164 2 cnv 5 1 260 empty empty empty 20 12 0 14 #7c7c7c #404040 0;
#X connect 0 0 1 0;
#X connect 1 0 37 0;
#X connect 1 0 69 0;
#X connect 2 0 6 0;
#X connect 3 0 2 0;
#X connect 3 1 2 1;
#X connect 4 0 3 0;
#X connect 5 0 2 0;
#X connect 6 0 37 0;
#X connect 6 0 69 0;
#X connect 9 0 26 0;
#X connect 10 0 26 0;
#X connect 10 1 26 1;
#X connect 11 0 10 0;
#X connect 12 0 37 0;
#X connect 12 0 69 0;
#X connect 15 0 9 0;
#X connect 19 0 25 0;
#X connect 20 0 25 0;
#X connect 20 1 25 1;
#X connect 21 0 20 0;
#X connect 22 0 37 0;
#X connect 22 0 69 0;
#X connect 25 0 22 0;
#X connect 26 0 12 0;
#X connect 27 0 37 0;
#X connect 27 0 69 0;
#X connect 28 0 32 0;
#X connect 29 0 30 0;
#X connect 30 0 32 0;
#X connect 30 1 32 2;
#X connect 31 0 37 0;
#X connect 31 0 69 0;
#X connect 32 0 31 0;
#X connect 34 0 74 0;
#X connect 34 0 76 0;
#X connect 36 0 37 1;
#X connect 38 0 5 0;
#X connect 39 0 0 0;
#X connect 40 0 4 0;
#X connect 44 0 11 0;
#X connect 45 0 15 0;
#X connect 46 0 19 0;
#X connect 54 0 21 0;
#X connect 56 0 27 0;
#X connect 57 0 27 0;
#X connect 58 0 60 0;
#X connect 60 0 57 0;
#X connect 62 0 28 0;
#X connect 64 0 29 0;
#X connect 70 0 36 0;
#X connect 71 0 72 0;
#X connect 71 0 73 0;
#X connect 72 0 70 1;
#X connect 73 0 77 1;
#X connect 74 0 75 0;
#X connect 75 0 70 0;
#X connect 76 0 77 0;
#X connect 77 0 36 0;
#X connect 78 0 71 0;
#X restore 6 354 pd label-properties;
#X f 45;
#X floatatom 273 219 5 0 29 0 BG-Clr - - 0;
#X floatatom 180 174 5 0 0 0 Vis-Sz-W - - 0;
#X floatatom 181 198 5 0 0 0 Vis-Sz-H - - 0;
#X floatatom 271 150 5 0 0 0 Lbl-X - - 0;
#X floatatom 272 174 5 0 0 0 Lbl-Y - - 0;
#X floatatom 180 150 5 0 0 0 Size - - 0;
#X symbolatom 214 127 10 0 0 0 CnvReceiveSymbol - - 0;
#X floatatom 181 219 5 0 2 0 Lbl-Fon - - 0;
#X symbolatom 274 195 10 0 0 0 Lbl-Txt - - 0;
#X obj 295 128 tgl 15 0 empty empty Append_0 20 7 0 10 #fcfcfc #fc8000 #000000 0 1;
#X text 194 103 Label Properties;
#X obj 28 18 inlet;
#X obj 414 223 cnv 15 500 30 empty \$0-myCanvas This\ is\ my\ label? 9 13 0 18 #e0e0e0 #606060 0;
#X obj 28 54 route doll rec size visw vish lblfon lblsz lblx lbly bgclr lblclr, f 66;
#X obj 56 93 symbol;
#X text 6 4 _;
#X text 479 173 dollarsign0-myCanvas;
#X msg 74 18 doll 1 \, rec myCanvas \, size 15 \, visw 50 \, vish 60 \, lblfon 0 \, lblsz 18 \, lblx 9 \, lbly 13 \, bgclr 10 \, lblclr 21, f 106;
#N canvas 240 66 752 410 \$0-how-to-set-values-externally 0;
#X text 112 49 doll [0/1] - toggle on appending "\$0-" at the start of the recieve symbol, f 85;
#X text 112 102 visw [float] - the visible width of the canvas in pixels, f 85;
#X text 112 85 size [float] - the size of the clickable/dragable portion of the canvas in pixels, f 85;
#X text 112 122 vish [float] - the visible height of the canvas in pixels, f 85;
#X text 111 141 lblfon [0/1/2] - font designation for the canvas' label \, with [0] for Menlo \, [1] for, f 89;
#X text 131 155 Helvetica \, [2] for Times. Note that these fonts may be different on Windows or Linux, f 84;
#X text 111 173 lblsz [float] - font size designation for the canvas' label, f 85;
#X text 111 213 lbly [float] - y offset in pixels from the top left corner of the canvas, f 85;
#X text 111 193 lblx [float] - x offset (horizontal) in pixels from the top left corner of the canvas, f 85;
#X text 4 29 To set the values for your canvas object externally \, send messages with the following signifiers to the 0 (leftmost) inlet:, f 124;
#X msg 31 336 doll 1 \, rec myCanvas \, size 15 \, visw 500 \, vish 30 \, lblfon 0 \, lblsz 18 \, lblx 9 \, lbly 13 \, bgclr 10 \, lblclr 21, f 106;
#X text 111 67 rec [symbol] - receive symbol for the canvas, f 85;
#X obj 90 241 cnv 5 5 5 empty \$0-canvas-format-helper-boldstatement1 Please\ note\ that\ the\ $-0\ designation\ (1\ or\ 0)\ MUST\ be\ sent\ first\,\ followed\ by\ the\ canvas\  1 9 0 12 #fcfcfc #fc0400 0;
#N canvas 2423 143 808 250 init 0;
#X msg 30 102 label \$1;
#X msg 419 120 label \$1;
#X obj 29 147 s \$0-canvas-format-helper-boldstatement1;
#X obj 418 164 s \$0-canvas-format-helper-boldstatement2;
#X obj 233 15 loadbang;
#X msg 420 51 symbol receive\ symbol!\ Failure\ to\ do\ so\ will\ cause\ incorrect\ parameter\ dispatching!;
#X msg 26 43 symbol Please\\\ note\\\ that\\\ the\\\ $-0\\\ designation\\\ (1\\\ or\\\ 0)\\\ MUST\\\ be\\\ sent\\\ first\\\,\\\ followed\\\ by\\\ the\\\ canvas\\\ ;
#X connect 0 0 2 0;
#X connect 1 0 3 0;
#X connect 4 0 5 0;
#X connect 4 0 6 0;
#X connect 5 0 1 0;
#X connect 6 0 0 0;
#X restore 659 9 pd init;
#X obj 90 257 cnv 5 5 5 empty \$0-canvas-format-helper-boldstatement2 receive\ symbol!\ Failure\ to\ do\ so\ will\ cause\ incorrect\ parameter\ dispatching! 1 9 0 12 #fcfcfc #fc0400 0;
#X msg 112 362 symbol this\ is\ my\ label!;
#X text 296 357 The label parameter must be sent separately to Inlet 1 (rightmost inlet). The message must be prepended with the "symbol" identifier \, and the escape character () needs to be set in the message:, f 68;
#X text 102 286 All parameters EXCEPT label can be sent in a single message to Inlet 0 (leftmost inlet) like below (and this can be copied and pasted for easy initializing formatting)., f 89;
#X restore 326 378 pd \$0-how-to-set-values-externally;
#X msg 326 336 vis 1;
#X obj 326 357 s pd-\$0-how-to-set-values-externally;
#X obj 120 263 bng 15 250 50 0 empty empty empty 17 7 0 10 #fcfcfc #000000 #000000;
#X text 141 263 How to set canvas values externally;
#X text 891 18 All left-inlet messages;
#X text 984 47 Label text;
#X msg 636 48 symbol This\ is\ my\ label?;
#X obj 587 47 inlet;
#X obj 632 184 cnv 5 5 5 empty empty ↴ -3 3 0 24 #fcfcfc #606060 0;
#X connect 0 0 2 6;
#X connect 1 0 2 11;
#X connect 3 0 2 10;
#X connect 4 0 2 3;
#X connect 5 0 2 4;
#X connect 6 0 2 7;
#X connect 7 0 2 8;
#X connect 8 0 2 2;
#X connect 9 0 2 0;
#X connect 10 0 2 5;
#X connect 11 0 2 9;
#X connect 12 0 2 1;
#X connect 14 0 16 0;
#X connect 16 0 12 0;
#X connect 16 1 17 0;
#X connect 16 2 8 0;
#X connect 16 3 4 0;
#X connect 16 4 5 0;
#X connect 16 5 10 0;
#X connect 16 6 0 0;
#X connect 16 7 6 0;
#X connect 16 8 7 0;
#X connect 16 9 3 0;
#X connect 16 10 1 0;
#X connect 17 0 9 0;
#X connect 20 0 16 0;
#X connect 22 0 23 0;
#X connect 24 0 22 0;
#X connect 28 0 11 0;
#X connect 29 0 11 0;
#X coords 0 -1 1 1 300 190 2 100 100;
#X restore 25 27 pd graph;
#X obj 25 1 inlet;
#X connect 0 0 1 1;
#X connect 2 0 1 0;
#X restore 343 1251 pd canvas-ctrl;
#X obj 438 191 inlet;
#X obj 692 171 inlet;
#X text 735 170 Width;
#X obj 692 196 f 501;
#X msg 692 219 visw \$1;
#X text 481 189 Abstraction Name;
#X text 459 344 <-- Open to actively control canvas values \, or to see how to set values externally (as is done here), f 103;
#X obj 438 216 symbol;
#X obj 3 15 cnv 5 5 5 empty empty | 0 0 0 14 #fcfcfc #404040 0;
#X text 51 6 This is where the canvases get set. A VERY long list of values get sent to the subpatch [pd canvas-ctrl]. These properties can be addessed singularly through a key symbol (such as "size") and then a value., f 187;
#X text 51 47 [pd canvas-ctrl] also has a GUI which you can access by clicking on the object box. This is a good way to figure out canvas values., f 132;
#X text 51 104 Note that the canvas LABEL cannot be set with this list \, and must be set via the right inlet., f 95;
#X text 51 75 You can also click on the object box [pd how-to-use-canvas-ctrl] to see how to set canvas values with a message (currently the only way to save canvas values), f 160;
#X obj 343 279 loadbang;
#X obj 343 409 loadbang;
#X obj 692 244 s \$0-width;
#X obj 448 369 r \$0-width;
#X obj 450 465 r \$0-width;
#X obj 451 595 r \$0-width;
#X obj 343 527 loadbang;
#X obj 452 1075 r \$0-width;
#X obj 343 999 loadbang;
#X obj 453 1225 r \$0-width;
#X obj 343 1147 loadbang;
#X obj 3 985 cnv 5 5 5 empty empty | 0 0 0 14 #fcfcfc #404040 0;
#X obj 89 269 cnv 15 1200 1 empty empty Title 0 -15 0 18 #606060 #404040 0;
#X text 137 276 Canvas receive name:;
#X obj 88 398 cnv 15 1200 1 empty empty Section-Divider 0 -15 0 18 #606060 #404040 0;
#X obj 88 518 cnv 15 1200 1 empty empty Arguments 0 -15 0 18 #606060 #404040 0;
#X obj 88 987 cnv 15 1200 1 empty empty Notes 0 -15 0 18 #606060 #404040 0;
#X obj 88 1128 cnv 15 1200 1 empty empty Rev-History 0 -15 0 18 #606060 #404040 0;
#X obj 52 139 cnv 15 180 18 empty empty empty 20 12 0 14 #c4c4fc #404040 0;
#N canvas 1440 152 910 549 how-to-use-canvas-ctrl 0;
#X text 112 139 doll [0/1] - toggle on appending "\$0-" at the start of the recieve symbol, f 85;
#X text 112 192 visw [float] - the visible width of the canvas in pixels, f 85;
#X text 112 175 size [float] - the size of the clickable/dragable portion of the canvas in pixels, f 85;
#X text 112 212 vish [float] - the visible height of the canvas in pixels, f 85;
#X text 111 231 lblfon [0/1/2] - font designation for the canvas' label \, with [0] for Menlo \, [1] for, f 89;
#X text 131 245 Helvetica \, [2] for Times. Note that these fonts may be different on Windows or Linux, f 84;
#X text 111 263 lblsz [float] - font size designation for the canvas' label, f 85;
#X text 111 303 lbly [float] - y offset in pixels from the top left corner of the canvas, f 85;
#X text 111 283 lblx [float] - x offset (horizontal) in pixels from the top left corner of the canvas, f 85;
#X text 4 119 To set the values for your canvas object externally \, send messages with the following signifiers to the 0 (leftmost) inlet:, f 124;
#X msg 31 426 doll 1 \, rec myCanvas \, size 15 \, visw 500 \, vish 30 \, lblfon 0 \, lblsz 18 \, lblx 9 \, lbly 13 \, bgclr 10 \, lblclr 21, f 106;
#X text 111 157 rec [symbol] - receive symbol for the canvas, f 85;
#X obj 90 331 cnv 5 5 5 empty \$0-canvas-format-helper-boldstatement1 Please\ note\ that\ the\ $-0\ designation\ (1\ or\ 0)\ MUST\ be\ sent\ first\,\ followed\ by\ the\ canvas\  1 9 0 12 #fcfcfc #fc0400 0;
#N canvas 632 143 808 250 init 0;
#X msg 126 74 label \$1;
#X msg 489 71 label \$1;
#X obj 126 97 s \$0-canvas-format-helper-boldstatement1;
#X obj 489 94 s \$0-canvas-format-helper-boldstatement2;
#X obj 26 17 loadbang;
#X msg 489 41 symbol receive\ symbol!\ Failure\ to\ do\ so\ will\ cause\ incorrect\ parameter\ dispatching!;
#X msg 126 43 symbol Please\\\ note\\\ that\\\ the\\\ $-0\\\ designation\\\ (1\\\ or\\\ 0)\\\ MUST\\\ be\\\ sent\\\ first\\\,\\\ followed\\\ by\\\ the\\\ canvas\\\ ;
#X obj 98 203 s \$0-canvas-format-helper-title;
#X msg 54 180 label \$1;
#X msg 54 148 symbol Using\ [pd\ canvas-ctrl]\ and\ setting\ values\ externally;
#X connect 0 0 2 0;
#X connect 1 0 3 0;
#X connect 4 0 5 0;
#X connect 4 0 6 0;
#X connect 5 0 1 0;
#X connect 6 0 0 0;
#X connect 8 0 7 0;
#X connect 9 0 8 0;
#X restore 704 13 pd init;
#X obj 90 347 cnv 5 5 5 empty \$0-canvas-format-helper-boldstatement2 receive\ symbol!\ Failure\ to\ do\ so\ will\ cause\ incorrect\ parameter\ dispatching! 1 9 0 12 #fcfcfc #fc0400 0;
#X msg 112 452 symbol this\ is\ my\ label!;
#X text 296 447 The label parameter must be sent separately to Inlet 1 (rightmost inlet). The message must be prepended with the "symbol" identifier \, and the escape character () needs to be set in the message:, f 68;
#X text 102 376 All parameters EXCEPT label can be sent in a single message to Inlet 0 (leftmost inlet) like below (and this can be copied and pasted for easy initializing formatting)., f 89;
#X obj 148 18 cnv 5 5 5 empty \$0-canvas-format-helper-title Using\ [pd\ canvas-ctrl]\ and\ setting\ values\ externally 1 9 0 12 #fcfcfc #fc0400 0;
#X text 6 43 By inserting a canvas into your patch \, giving it a RECEIVE NAME (via properties) \, inserting the [canvas-ctrl] object into your patch \, and finally telling [canvas-ctrl] the receive name via the message [rec "receive name"( to the left inlet (type the text between "[(" into a message box \, no quotes \, substituting "receive name" for your name. *IF* your receive name has "\$0-" as a prefix (common practice for [send] and [receive] names) \, you need to FIRST send [canvas-ctrl] the message [doll 1( which tells the object that the canbas name has "\$0-" at the start of its receive name., f 123;
#X restore 52 140 pd how-to-use-canvas-ctrl;
#X text 268 140 Click here to explore how to change the canvas properties with a message, f 72;
#X obj 244 145 cnv 5 5 5 empty empty ⟵ -3 3 0 30 #fcfcfc #9c00fc 0;
#X text 131 301 \$0-abstrPatchTitleBar;
#X msg 343 1028 doll 1 \, rec abstrPatchSecLabelNotes \, size 2 \, visw 501 \, vish 3 \, lblfon 0 \, lblsz 16 \, lblx 20 \, lbly 15 \, bgclr 1 \, lblclr 12, f 123;
#X text 127 539 \$0-abstrPatchSecLabelArgs;
#X msg 343 1179 doll 1 \, rec abstrPatchSecLabelRevHist \, size 2 \, visw 501 \, vish 3 \, lblfon 0 \, lblsz 16 \, lblx 20 \, lbly 15 \, bgclr 1 \, lblclr 12, f 123;
#X msg 438 1202 symbol Revision\ History;
#X msg 438 1052 symbol Notes;
#N canvas 673 23 349 258 canvas-ctrl 0;
#X obj 291 1 inlet;
#N canvas 248 270 1089 459 graph 0;
#X floatatom 180 241 5 0 0 0 Lbl-Sz - - 0;
#X floatatom 273 241 5 0 29 0 Lbl-Clr - - 0;
#N canvas 32 23 1408 389 label-properties 0;
#X floatatom 314 72 3 18 100 0 - - - 0;
#X msg 314 99 size \$1;
#X obj 400 121 pack 100 60, f 18;
#X obj 491 93 t b f;
#X floatatom 491 68 4 18 100 0 - - - 0;
#X floatatom 400 68 4 18 100 0 - - - 0;
#X msg 400 148 vis_size \$1 \$2;
#X text 442 41 w/x;
#X text 532 41 h/y;
#X floatatom 589 116 4 0 3 0 - - - 0;
#X obj 721 135 t b f;
#X floatatom 721 116 5 5 50 0 - - - 0;
#X msg 589 185 label_font \$1 \$2;
#X text 632 41 type;
#X text 760 40 size;
#X obj 589 64 vradio 15 1 0 3 empty empty empty 0 -8 0 10 #fcfcfc #000000 #000000 0;
#X text 605 63 DejaVu Sans Mono;
#X text 605 78 Helvetica;
#X text 606 93 Times;
#X floatatom 817 71 4 -100 250 0 - - - 0;
#X obj 889 98 t b f;
#X floatatom 889 71 5 -150 150 0 - - - 0;
#X msg 817 148 label_pos \$1 \$2;
#X text 856 41 x;
#X text 929 41 y;
#X obj 817 126 pack 17 20, f 17;
#X obj 589 164 pack 0 25, f 24;
#X msg 973 129 label \$1;
#X floatatom 1191 70 3 0 29 1 bgColor - - 0;
#X floatatom 1295 70 3 0 29 1 lblColor - - 0;
#X obj 1295 92 t b f;
#X msg 1191 145 color \$1 \$2 \$3;
#X obj 1191 124 pack 1 22 22, f 14;
#X text 1170 18 Color Presets (0-29):;
#X obj 24 42 inlet;
#X obj 8 42 cnv 14 14 14 empty empty 0 4 8 0 12 #606060 #dcdcdc 0;
#X symbolatom 24 210 10 0 0 0 - - - 0;
#X obj 588 330 send, f 13;
#X obj 400 42 inlet;
#X obj 314 42 inlet;
#X obj 491 42 inlet;
#X obj 155 42 cnv 14 14 14 empty empty 1 4 8 0 12 #606060 #dcdcdc 0;
#X obj 297 42 cnv 14 14 14 empty empty 2 4 8 0 12 #606060 #dcdcdc 0;
#X obj 384 42 cnv 14 14 14 empty empty 3 4 8 0 12 #606060 #dcdcdc 0;
#X obj 721 42 inlet;
#X obj 589 42 inlet;
#X obj 817 42 inlet;
#X obj 476 42 cnv 14 14 14 empty empty 4 4 8 0 12 #606060 #dcdcdc 0;
#X obj 573 42 cnv 14 14 14 empty empty 5 4 8 0 12 #606060 #dcdcdc 0;
#X obj 703 42 cnv 14 14 14 empty empty 6 4 8 0 12 #606060 #dcdcdc 0;
#X text 315 18 Size;
#X text 421 18 Visible Size;
#X text 635 18 Label Font;
#X text 824 18 Label Offset;
#X obj 889 42 inlet;
#X obj 800 42 cnv 14 14 14 empty empty 7 4 8 0 12 #606060 #dcdcdc 0;
#X msg 1052 89 symbol my\ label;
#X symbolatom 973 92 10 0 0 0 - - - 0;
#X obj 973 42 inlet;
#X obj 872 42 cnv 14 14 14 empty empty 8 4 8 0 12 #606060 #dcdcdc 0;
#X msg 973 70 symbol \$1;
#X text 1007 18 Label Text;
#X obj 1191 42 inlet;
#X obj 958 42 cnv 14 14 14 empty empty 9 4 8 0 12 #606060 #dcdcdc 0;
#X obj 1295 42 inlet;
#X obj 1174 42 cnv 14 14 14 empty empty 10 0 8 0 12 #606060 #dcdcdc 0;
#X text 0 18 Canvas Name;
#X obj 284 2 cnv 5 1 260 empty empty empty 20 12 0 14 #7c7c7c #404040 0;
#X obj 738 322 cnv 2 700 40 empty \$0-test_canvas tdh.ac.euclidianRhythm.ui 20 15 0 16 #a0a0a0 #202020 0;
#X obj 415 328 s \$0-test_canvas;
#X obj 210 187 spigot;
#X obj 170 88 tgl 15 0 empty empty empty 17 7 0 10 #fcfcfc #000000 #000000 0 1;
#X obj 249 134 == 1;
#X obj 101 135 == 0;
#X obj 144 134 list append \$0;
#X msg 144 157 symbol \$2-\$1;
#X msg 24 136 symbol \$1;
#X obj 24 167 spigot;
#X obj 170 42 inlet;
#X obj 1279 42 cnv 14 14 14 empty empty 11 0 8 0 12 #606060 #dcdcdc 0;
#X text 136 18 Add "\$0" option;
#X obj 374 2 cnv 5 1 260 empty empty empty 20 12 0 14 #7c7c7c #404040 0;
#X obj 561 2 cnv 5 1 260 empty empty empty 20 12 0 14 #7c7c7c #404040 0;
#X obj 791 2 cnv 5 1 260 empty empty empty 20 12 0 14 #7c7c7c #404040 0;
#X obj 944 2 cnv 5 1 260 empty empty empty 20 12 0 14 #7c7c7c #404040 0;
#X obj 1164 2 cnv 5 1 260 empty empty empty 20 12 0 14 #7c7c7c #404040 0;
#X connect 0 0 1 0;
#X connect 1 0 37 0;
#X connect 1 0 69 0;
#X connect 2 0 6 0;
#X connect 3 0 2 0;
#X connect 3 1 2 1;
#X connect 4 0 3 0;
#X connect 5 0 2 0;
#X connect 6 0 37 0;
#X connect 6 0 69 0;
#X connect 9 0 26 0;
#X connect 10 0 26 0;
#X connect 10 1 26 1;
#X connect 11 0 10 0;
#X connect 12 0 37 0;
#X connect 12 0 69 0;
#X connect 15 0 9 0;
#X connect 19 0 25 0;
#X connect 20 0 25 0;
#X connect 20 1 25 1;
#X connect 21 0 20 0;
#X connect 22 0 37 0;
#X connect 22 0 69 0;
#X connect 25 0 22 0;
#X connect 26 0 12 0;
#X connect 27 0 37 0;
#X connect 27 0 69 0;
#X connect 28 0 32 0;
#X connect 29 0 30 0;
#X connect 30 0 32 0;
#X connect 30 1 32 2;
#X connect 31 0 37 0;
#X connect 31 0 69 0;
#X connect 32 0 31 0;
#X connect 34 0 74 0;
#X connect 34 0 76 0;
#X connect 36 0 37 1;
#X connect 38 0 5 0;
#X connect 39 0 0 0;
#X connect 40 0 4 0;
#X connect 44 0 11 0;
#X connect 45 0 15 0;
#X connect 46 0 19 0;
#X connect 54 0 21 0;
#X connect 56 0 27 0;
#X connect 57 0 27 0;
#X connect 58 0 60 0;
#X connect 60 0 57 0;
#X connect 62 0 28 0;
#X connect 64 0 29 0;
#X connect 70 0 36 0;
#X connect 71 0 72 0;
#X connect 71 0 73 0;
#X connect 72 0 70 1;
#X connect 73 0 77 1;
#X connect 74 0 75 0;
#X connect 75 0 70 0;
#X connect 76 0 77 0;
#X connect 77 0 36 0;
#X connect 78 0 71 0;
#X restore 6 354 pd label-properties;
#X f 45;
#X floatatom 273 219 5 0 29 0 BG-Clr - - 0;
#X floatatom 180 174 5 0 0 0 Vis-Sz-W - - 0;
#X floatatom 181 198 5 0 0 0 Vis-Sz-H - - 0;
#X floatatom 271 150 5 0 0 0 Lbl-X - - 0;
#X floatatom 272 174 5 0 0 0 Lbl-Y - - 0;
#X floatatom 180 150 5 0 0 0 Size - - 0;
#X symbolatom 214 127 10 0 0 0 CnvReceiveSymbol - - 0;
#X floatatom 181 219 5 0 2 0 Lbl-Fon - - 0;
#X symbolatom 274 195 10 0 0 0 Lbl-Txt - - 0;
#X obj 295 128 tgl 15 0 empty empty Append_0 20 7 0 10 #fcfcfc #fc8000 #000000 0 1;
#X text 194 103 Label Properties;
#X obj 28 18 inlet;
#X obj 414 223 cnv 15 500 30 empty \$0-myCanvas This\ is\ my\ label? 9 13 0 18 #e0e0e0 #606060 0;
#X obj 28 54 route doll rec size visw vish lblfon lblsz lblx lbly bgclr lblclr, f 66;
#X obj 56 93 symbol;
#X text 6 4 _;
#X text 479 173 dollarsign0-myCanvas;
#X msg 74 18 doll 1 \, rec myCanvas \, size 15 \, visw 50 \, vish 60 \, lblfon 0 \, lblsz 18 \, lblx 9 \, lbly 13 \, bgclr 10 \, lblclr 21, f 106;
#N canvas 240 66 752 410 \$0-how-to-set-values-externally 0;
#X text 112 49 doll [0/1] - toggle on appending "\$0-" at the start of the recieve symbol, f 85;
#X text 112 102 visw [float] - the visible width of the canvas in pixels, f 85;
#X text 112 85 size [float] - the size of the clickable/dragable portion of the canvas in pixels, f 85;
#X text 112 122 vish [float] - the visible height of the canvas in pixels, f 85;
#X text 111 141 lblfon [0/1/2] - font designation for the canvas' label \, with [0] for Menlo \, [1] for, f 89;
#X text 131 155 Helvetica \, [2] for Times. Note that these fonts may be different on Windows or Linux, f 84;
#X text 111 173 lblsz [float] - font size designation for the canvas' label, f 85;
#X text 111 213 lbly [float] - y offset in pixels from the top left corner of the canvas, f 85;
#X text 111 193 lblx [float] - x offset (horizontal) in pixels from the top left corner of the canvas, f 85;
#X text 4 29 To set the values for your canvas object externally \, send messages with the following signifiers to the 0 (leftmost) inlet:, f 124;
#X msg 31 336 doll 1 \, rec myCanvas \, size 15 \, visw 500 \, vish 30 \, lblfon 0 \, lblsz 18 \, lblx 9 \, lbly 13 \, bgclr 10 \, lblclr 21, f 106;
#X text 111 67 rec [symbol] - receive symbol for the canvas, f 85;
#X obj 90 241 cnv 5 5 5 empty \$0-canvas-format-helper-boldstatement1 Please\ note\ that\ the\ $-0\ designation\ (1\ or\ 0)\ MUST\ be\ sent\ first\,\ followed\ by\ the\ canvas\  1 9 0 12 #fcfcfc #fc0400 0;
#N canvas 2423 143 808 250 init 0;
#X msg 30 102 label \$1;
#X msg 419 120 label \$1;
#X obj 29 147 s \$0-canvas-format-helper-boldstatement1;
#X obj 418 164 s \$0-canvas-format-helper-boldstatement2;
#X obj 233 15 loadbang;
#X msg 420 51 symbol receive\ symbol!\ Failure\ to\ do\ so\ will\ cause\ incorrect\ parameter\ dispatching!;
#X msg 26 43 symbol Please\\\ note\\\ that\\\ the\\\ $-0\\\ designation\\\ (1\\\ or\\\ 0)\\\ MUST\\\ be\\\ sent\\\ first\\\,\\\ followed\\\ by\\\ the\\\ canvas\\\ ;
#X connect 0 0 2 0;
#X connect 1 0 3 0;
#X connect 4 0 5 0;
#X connect 4 0 6 0;
#X connect 5 0 1 0;
#X connect 6 0 0 0;
#X restore 659 9 pd init;
#X obj 90 257 cnv 5 5 5 empty \$0-canvas-format-helper-boldstatement2 receive\ symbol!\ Failure\ to\ do\ so\ will\ cause\ incorrect\ parameter\ dispatching! 1 9 0 12 #fcfcfc #fc0400 0;
#X msg 112 362 symbol this\ is\ my\ label!;
#X text 296 357 The label parameter must be sent separately to Inlet 1 (rightmost inlet). The message must be prepended with the "symbol" identifier \, and the escape character () needs to be set in the message:, f 68;
#X text 102 286 All parameters EXCEPT label can be sent in a single message to Inlet 0 (leftmost inlet) like below (and this can be copied and pasted for easy initializing formatting)., f 89;
#X restore 326 378 pd \$0-how-to-set-values-externally;
#X msg 326 336 vis 1;
#X obj 326 357 s pd-\$0-how-to-set-values-externally;
#X obj 120 263 bng 15 250 50 0 empty empty empty 17 7 0 10 #fcfcfc #000000 #000000;
#X text 141 263 How to set canvas values externally;
#X text 891 18 All left-inlet messages;
#X text 984 47 Label text;
#X msg 636 48 symbol This\ is\ my\ label?;
#X obj 587 47 inlet;
#X obj 632 184 cnv 5 5 5 empty empty ↴ -3 3 0 24 #fcfcfc #606060 0;
#X connect 0 0 2 6;
#X connect 1 0 2 11;
#X connect 3 0 2 10;
#X connect 4 0 2 3;
#X connect 5 0 2 4;
#X connect 6 0 2 7;
#X connect 7 0 2 8;
#X connect 8 0 2 2;
#X connect 9 0 2 0;
#X connect 10 0 2 5;
#X connect 11 0 2 9;
#X connect 12 0 2 1;
#X connect 14 0 16 0;
#X connect 16 0 12 0;
#X connect 16 1 17 0;
#X connect 16 2 8 0;
#X connect 16 3 4 0;
#X connect 16 4 5 0;
#X connect 16 5 10 0;
#X connect 16 6 0 0;
#X connect 16 7 6 0;
#X connect 16 8 7 0;
#X connect 16 9 3 0;
#X connect 16 10 1 0;
#X connect 17 0 9 0;
#X connect 20 0 16 0;
#X connect 22 0 23 0;
#X connect 24 0 22 0;
#X connect 28 0 11 0;
#X connect 29 0 11 0;
#X coords 0 -1 1 1 300 190 2 100 100;
#X restore 25 27 pd graph;
#X obj 25 1 inlet;
#X connect 0 0 1 1;
#X connect 2 0 1 0;
#X restore 343 725 pd canvas-ctrl;
#X obj 451 725 r \$0-width;
#X obj 343 657 loadbang;
#X obj 88 648 cnv 15 1200 1 empty empty Inlets 0 -15 0 18 #606060 #404040 0;
#X text 127 669 \$0-abstrPatchSecLabelArgs;
#N canvas 673 23 349 258 canvas-ctrl 0;
#X obj 291 1 inlet;
#N canvas 248 270 1089 459 graph 0;
#X floatatom 180 241 5 0 0 0 Lbl-Sz - - 0;
#X floatatom 273 241 5 0 29 0 Lbl-Clr - - 0;
#N canvas 32 23 1408 389 label-properties 0;
#X floatatom 314 72 3 18 100 0 - - - 0;
#X msg 314 99 size \$1;
#X obj 400 121 pack 100 60, f 18;
#X obj 491 93 t b f;
#X floatatom 491 68 4 18 100 0 - - - 0;
#X floatatom 400 68 4 18 100 0 - - - 0;
#X msg 400 148 vis_size \$1 \$2;
#X text 442 41 w/x;
#X text 532 41 h/y;
#X floatatom 589 116 4 0 3 0 - - - 0;
#X obj 721 135 t b f;
#X floatatom 721 116 5 5 50 0 - - - 0;
#X msg 589 185 label_font \$1 \$2;
#X text 632 41 type;
#X text 760 40 size;
#X obj 589 64 vradio 15 1 0 3 empty empty empty 0 -8 0 10 #fcfcfc #000000 #000000 0;
#X text 605 63 DejaVu Sans Mono;
#X text 605 78 Helvetica;
#X text 606 93 Times;
#X floatatom 817 71 4 -100 250 0 - - - 0;
#X obj 889 98 t b f;
#X floatatom 889 71 5 -150 150 0 - - - 0;
#X msg 817 148 label_pos \$1 \$2;
#X text 856 41 x;
#X text 929 41 y;
#X obj 817 126 pack 17 20, f 17;
#X obj 589 164 pack 0 25, f 24;
#X msg 973 129 label \$1;
#X floatatom 1191 70 3 0 29 1 bgColor - - 0;
#X floatatom 1295 70 3 0 29 1 lblColor - - 0;
#X obj 1295 92 t b f;
#X msg 1191 145 color \$1 \$2 \$3;
#X obj 1191 124 pack 1 22 22, f 14;
#X text 1170 18 Color Presets (0-29):;
#X obj 24 42 inlet;
#X obj 8 42 cnv 14 14 14 empty empty 0 4 8 0 12 #606060 #dcdcdc 0;
#X symbolatom 24 210 10 0 0 0 - - - 0;
#X obj 588 330 send, f 13;
#X obj 400 42 inlet;
#X obj 314 42 inlet;
#X obj 491 42 inlet;
#X obj 155 42 cnv 14 14 14 empty empty 1 4 8 0 12 #606060 #dcdcdc 0;
#X obj 297 42 cnv 14 14 14 empty empty 2 4 8 0 12 #606060 #dcdcdc 0;
#X obj 384 42 cnv 14 14 14 empty empty 3 4 8 0 12 #606060 #dcdcdc 0;
#X obj 721 42 inlet;
#X obj 589 42 inlet;
#X obj 817 42 inlet;
#X obj 476 42 cnv 14 14 14 empty empty 4 4 8 0 12 #606060 #dcdcdc 0;
#X obj 573 42 cnv 14 14 14 empty empty 5 4 8 0 12 #606060 #dcdcdc 0;
#X obj 703 42 cnv 14 14 14 empty empty 6 4 8 0 12 #606060 #dcdcdc 0;
#X text 315 18 Size;
#X text 421 18 Visible Size;
#X text 635 18 Label Font;
#X text 824 18 Label Offset;
#X obj 889 42 inlet;
#X obj 800 42 cnv 14 14 14 empty empty 7 4 8 0 12 #606060 #dcdcdc 0;
#X msg 1052 89 symbol my\ label;
#X symbolatom 973 92 10 0 0 0 - - - 0;
#X obj 973 42 inlet;
#X obj 872 42 cnv 14 14 14 empty empty 8 4 8 0 12 #606060 #dcdcdc 0;
#X msg 973 70 symbol \$1;
#X text 1007 18 Label Text;
#X obj 1191 42 inlet;
#X obj 958 42 cnv 14 14 14 empty empty 9 4 8 0 12 #606060 #dcdcdc 0;
#X obj 1295 42 inlet;
#X obj 1174 42 cnv 14 14 14 empty empty 10 0 8 0 12 #606060 #dcdcdc 0;
#X text 0 18 Canvas Name;
#X obj 284 2 cnv 5 1 260 empty empty empty 20 12 0 14 #7c7c7c #404040 0;
#X obj 738 322 cnv 2 700 40 empty \$0-test_canvas tdh.ac.euclidianRhythm.ui 20 15 0 16 #a0a0a0 #202020 0;
#X obj 415 328 s \$0-test_canvas;
#X obj 210 187 spigot;
#X obj 170 88 tgl 15 0 empty empty empty 17 7 0 10 #fcfcfc #000000 #000000 0 1;
#X obj 249 134 == 1;
#X obj 101 135 == 0;
#X obj 144 134 list append \$0;
#X msg 144 157 symbol \$2-\$1;
#X msg 24 136 symbol \$1;
#X obj 24 167 spigot;
#X obj 170 42 inlet;
#X obj 1279 42 cnv 14 14 14 empty empty 11 0 8 0 12 #606060 #dcdcdc 0;
#X text 136 18 Add "\$0" option;
#X obj 374 2 cnv 5 1 260 empty empty empty 20 12 0 14 #7c7c7c #404040 0;
#X obj 561 2 cnv 5 1 260 empty empty empty 20 12 0 14 #7c7c7c #404040 0;
#X obj 791 2 cnv 5 1 260 empty empty empty 20 12 0 14 #7c7c7c #404040 0;
#X obj 944 2 cnv 5 1 260 empty empty empty 20 12 0 14 #7c7c7c #404040 0;
#X obj 1164 2 cnv 5 1 260 empty empty empty 20 12 0 14 #7c7c7c #404040 0;
#X connect 0 0 1 0;
#X connect 1 0 37 0;
#X connect 1 0 69 0;
#X connect 2 0 6 0;
#X connect 3 0 2 0;
#X connect 3 1 2 1;
#X connect 4 0 3 0;
#X connect 5 0 2 0;
#X connect 6 0 37 0;
#X connect 6 0 69 0;
#X connect 9 0 26 0;
#X connect 10 0 26 0;
#X connect 10 1 26 1;
#X connect 11 0 10 0;
#X connect 12 0 37 0;
#X connect 12 0 69 0;
#X connect 15 0 9 0;
#X connect 19 0 25 0;
#X connect 20 0 25 0;
#X connect 20 1 25 1;
#X connect 21 0 20 0;
#X connect 22 0 37 0;
#X connect 22 0 69 0;
#X connect 25 0 22 0;
#X connect 26 0 12 0;
#X connect 27 0 37 0;
#X connect 27 0 69 0;
#X connect 28 0 32 0;
#X connect 29 0 30 0;
#X connect 30 0 32 0;
#X connect 30 1 32 2;
#X connect 31 0 37 0;
#X connect 31 0 69 0;
#X connect 32 0 31 0;
#X connect 34 0 74 0;
#X connect 34 0 76 0;
#X connect 36 0 37 1;
#X connect 38 0 5 0;
#X connect 39 0 0 0;
#X connect 40 0 4 0;
#X connect 44 0 11 0;
#X connect 45 0 15 0;
#X connect 46 0 19 0;
#X connect 54 0 21 0;
#X connect 56 0 27 0;
#X connect 57 0 27 0;
#X connect 58 0 60 0;
#X connect 60 0 57 0;
#X connect 62 0 28 0;
#X connect 64 0 29 0;
#X connect 70 0 36 0;
#X connect 71 0 72 0;
#X connect 71 0 73 0;
#X connect 72 0 70 1;
#X connect 73 0 77 1;
#X connect 74 0 75 0;
#X connect 75 0 70 0;
#X connect 76 0 77 0;
#X connect 77 0 36 0;
#X connect 78 0 71 0;
#X restore 6 354 pd label-properties;
#X f 45;
#X floatatom 273 219 5 0 29 0 BG-Clr - - 0;
#X floatatom 180 174 5 0 0 0 Vis-Sz-W - - 0;
#X floatatom 181 198 5 0 0 0 Vis-Sz-H - - 0;
#X floatatom 271 150 5 0 0 0 Lbl-X - - 0;
#X floatatom 272 174 5 0 0 0 Lbl-Y - - 0;
#X floatatom 180 150 5 0 0 0 Size - - 0;
#X symbolatom 214 127 10 0 0 0 CnvReceiveSymbol - - 0;
#X floatatom 181 219 5 0 2 0 Lbl-Fon - - 0;
#X symbolatom 274 195 10 0 0 0 Lbl-Txt - - 0;
#X obj 295 128 tgl 15 0 empty empty Append_0 20 7 0 10 #fcfcfc #fc8000 #000000 0 1;
#X text 194 103 Label Properties;
#X obj 28 18 inlet;
#X obj 414 223 cnv 15 500 30 empty \$0-myCanvas This\ is\ my\ label? 9 13 0 18 #e0e0e0 #606060 0;
#X obj 28 54 route doll rec size visw vish lblfon lblsz lblx lbly bgclr lblclr, f 66;
#X obj 56 93 symbol;
#X text 6 4 _;
#X text 479 173 dollarsign0-myCanvas;
#X msg 74 18 doll 1 \, rec myCanvas \, size 15 \, visw 50 \, vish 60 \, lblfon 0 \, lblsz 18 \, lblx 9 \, lbly 13 \, bgclr 10 \, lblclr 21, f 106;
#N canvas 240 66 752 410 \$0-how-to-set-values-externally 0;
#X text 112 49 doll [0/1] - toggle on appending "\$0-" at the start of the recieve symbol, f 85;
#X text 112 102 visw [float] - the visible width of the canvas in pixels, f 85;
#X text 112 85 size [float] - the size of the clickable/dragable portion of the canvas in pixels, f 85;
#X text 112 122 vish [float] - the visible height of the canvas in pixels, f 85;
#X text 111 141 lblfon [0/1/2] - font designation for the canvas' label \, with [0] for Menlo \, [1] for, f 89;
#X text 131 155 Helvetica \, [2] for Times. Note that these fonts may be different on Windows or Linux, f 84;
#X text 111 173 lblsz [float] - font size designation for the canvas' label, f 85;
#X text 111 213 lbly [float] - y offset in pixels from the top left corner of the canvas, f 85;
#X text 111 193 lblx [float] - x offset (horizontal) in pixels from the top left corner of the canvas, f 85;
#X text 4 29 To set the values for your canvas object externally \, send messages with the following signifiers to the 0 (leftmost) inlet:, f 124;
#X msg 31 336 doll 1 \, rec myCanvas \, size 15 \, visw 500 \, vish 30 \, lblfon 0 \, lblsz 18 \, lblx 9 \, lbly 13 \, bgclr 10 \, lblclr 21, f 106;
#X text 111 67 rec [symbol] - receive symbol for the canvas, f 85;
#X obj 90 241 cnv 5 5 5 empty \$0-canvas-format-helper-boldstatement1 Please\ note\ that\ the\ $-0\ designation\ (1\ or\ 0)\ MUST\ be\ sent\ first\,\ followed\ by\ the\ canvas\  1 9 0 12 #fcfcfc #fc0400 0;
#N canvas 2423 143 808 250 init 0;
#X msg 30 102 label \$1;
#X msg 419 120 label \$1;
#X obj 29 147 s \$0-canvas-format-helper-boldstatement1;
#X obj 418 164 s \$0-canvas-format-helper-boldstatement2;
#X obj 233 15 loadbang;
#X msg 420 51 symbol receive\ symbol!\ Failure\ to\ do\ so\ will\ cause\ incorrect\ parameter\ dispatching!;
#X msg 26 43 symbol Please\\\ note\\\ that\\\ the\\\ $-0\\\ designation\\\ (1\\\ or\\\ 0)\\\ MUST\\\ be\\\ sent\\\ first\\\,\\\ followed\\\ by\\\ the\\\ canvas\\\ ;
#X connect 0 0 2 0;
#X connect 1 0 3 0;
#X connect 4 0 5 0;
#X connect 4 0 6 0;
#X connect 5 0 1 0;
#X connect 6 0 0 0;
#X restore 659 9 pd init;
#X obj 90 257 cnv 5 5 5 empty \$0-canvas-format-helper-boldstatement2 receive\ symbol!\ Failure\ to\ do\ so\ will\ cause\ incorrect\ parameter\ dispatching! 1 9 0 12 #fcfcfc #fc0400 0;
#X msg 112 362 symbol this\ is\ my\ label!;
#X text 296 357 The label parameter must be sent separately to Inlet 1 (rightmost inlet). The message must be prepended with the "symbol" identifier \, and the escape character () needs to be set in the message:, f 68;
#X text 102 286 All parameters EXCEPT label can be sent in a single message to Inlet 0 (leftmost inlet) like below (and this can be copied and pasted for easy initializing formatting)., f 89;
#X restore 326 378 pd \$0-how-to-set-values-externally;
#X msg 326 336 vis 1;
#X obj 326 357 s pd-\$0-how-to-set-values-externally;
#X obj 120 263 bng 15 250 50 0 empty empty empty 17 7 0 10 #fcfcfc #000000 #000000;
#X text 141 263 How to set canvas values externally;
#X text 891 18 All left-inlet messages;
#X text 984 47 Label text;
#X msg 636 48 symbol This\ is\ my\ label?;
#X obj 587 47 inlet;
#X obj 632 184 cnv 5 5 5 empty empty ↴ -3 3 0 24 #fcfcfc #606060 0;
#X connect 0 0 2 6;
#X connect 1 0 2 11;
#X connect 3 0 2 10;
#X connect 4 0 2 3;
#X connect 5 0 2 4;
#X connect 6 0 2 7;
#X connect 7 0 2 8;
#X connect 8 0 2 2;
#X connect 9 0 2 0;
#X connect 10 0 2 5;
#X connect 11 0 2 9;
#X connect 12 0 2 1;
#X connect 14 0 16 0;
#X connect 16 0 12 0;
#X connect 16 1 17 0;
#X connect 16 2 8 0;
#X connect 16 3 4 0;
#X connect 16 4 5 0;
#X connect 16 5 10 0;
#X connect 16 6 0 0;
#X connect 16 7 6 0;
#X connect 16 8 7 0;
#X connect 16 9 3 0;
#X connect 16 10 1 0;
#X connect 17 0 9 0;
#X connect 20 0 16 0;
#X connect 22 0 23 0;
#X connect 24 0 22 0;
#X connect 28 0 11 0;
#X connect 29 0 11 0;
#X coords 0 -1 1 1 300 190 2 100 100;
#X restore 25 27 pd graph;
#X obj 25 1 inlet;
#X connect 0 0 1 1;
#X connect 2 0 1 0;
#X restore 343 865 pd canvas-ctrl;
#X obj 451 865 r \$0-width;
#X obj 343 797 loadbang;
#X obj 88 788 cnv 15 1200 1 empty empty Outlets 0 -15 0 18 #606060 #404040 0;
#X text 127 809 \$0-abstrPatchSecLabelArgs;
#X msg 438 702 symbol Inlets;
#X msg 343 679 doll 1 \, rec abstrPatchSecLabelInlets \, size 2 \, visw 501 \, vish 3 \, lblfon 0 \, lblsz 16 \, lblx 20 \, lbly 15 \, bgclr 1 \, lblclr 12, f 123;
#X msg 343 548 doll 1 \, rec abstrPatchSecLabelArgs \, size 2 \, visw 501 \, vish 3 \, lblfon 0 \, lblsz 16 \, lblx 20 \, lbly 15 \, bgclr 1 \, lblclr 12, f 123;
#X msg 438 572 symbol Arguments;
#X msg 343 819 doll 1 \, rec abstrPatchSecLabelOutlets \, size 2 \, visw 501 \, vish 3 \, lblfon 0 \, lblsz 16 \, lblx 20 \, lbly 15 \, bgclr 1 \, lblclr 12, f 123;
#X msg 438 842 symbol Outlets;
#X msg 343 309 doll 1 \, rec abstrPatchTitleBar \, size 15 \, visw 501 \, vish 40 \, lblfon 0 \, lblsz 18 \, lblx 9 \, lbly 20 \, bgclr 18 \, lblclr 1, f 123;
#X msg 343 433 doll 1 \, rec abstrPatchSecDivider \, size 2 \, visw 501 \, vish 2 \, lblfon 0 \, lblsz 18 \, lblx 9 \, lbly 20 \, bgclr 1 \, lblclr 12, f 123;
#X connect 8 0 15 0;
#X connect 9 0 11 0;
#X connect 11 0 12 0;
#X connect 12 0 23 0;
#X connect 15 0 3 1;
#X connect 21 0 65 0;
#X connect 22 0 66 0;
#X connect 24 0 3 0;
#X connect 25 0 4 0;
#X connect 26 0 5 0;
#X connect 27 0 61 0;
#X connect 27 0 62 0;
#X connect 28 0 6 0;
#X connect 29 0 44 0;
#X connect 29 0 48 0;
#X connect 30 0 7 0;
#X connect 31 0 46 0;
#X connect 31 0 47 0;
#X connect 44 0 6 0;
#X connect 46 0 7 0;
#X connect 47 0 7 1;
#X connect 48 0 6 1;
#X connect 50 0 49 0;
#X connect 51 0 60 0;
#X connect 51 0 59 0;
#X connect 55 0 54 0;
#X connect 56 0 63 0;
#X connect 56 0 64 0;
#X connect 59 0 49 1;
#X connect 60 0 49 0;
#X connect 61 0 5 0;
#X connect 62 0 5 1;
#X connect 63 0 54 0;
#X connect 64 0 54 1;
#X connect 65 0 3 0;
#X connect 66 0 4 0;
#X restore 176 208 pd abstr-cnv-set;
#X f 32;
#X text 519 173 EDIT HERE to change patch WIDTH, f 16;
#X text 16 47 This subpatch (and nested subpatches) helps set the uniform titles and graphics for ABSTRACTIONS., f 84;
#X text 13 80 The two most commonly changed fields \, DISPLAY NAME and WIDTH can be changed by editing the [message( boxes below. Text in [message( objects get saved to the patch., f 84;
#X obj 21 480 loadbang;
#X obj 21 501 del 10;
#X text 288 504 EDIT HERE text after "label" to change the display name shown on the module, f 20;
#X text 10 161 EDIT HERE text after "symbol" to change the abstraction patch's main display name, f 20;
#X obj 18 259 cnv 5 5 5 empty empty GOP\ Module\ Label\ +\ Width\ --------------------------------- 0 0 0 14 #ffffff #404040 0;
#X obj 39 391 s \$0-inletBorder-r;
#X obj 215 386 s \$0-inletBar-r;
#X obj 40 411 s \$0-moduleNameBorder-r;
#X obj 20 461 cnv 5 5 5 empty empty Module\ Name 0 0 0 12 #ffffff #0400ff 0;
#X obj 41 430 s \$0-outletBorder-r;
#X obj 216 428 s \$0-outletBar-r;
#X obj 9 279 loadbang;
#X msg 202 364 vis_size \$1 14;
#X obj 15 26 cnv 5 5 5 empty empty Object\ Title\ Bar\ ------------------------------------------------ 0 0 0 14 #ffffff #404040 0;
#X obj 79 289 cnv 5 5 5 empty empty Module\ Width 0 0 0 12 #ffffff #0400ff 0;
#X msg 16 366 vis_size \$1 2;
#X obj 216 408 s \$0-moduleName-r;
#X obj 21 542 s \$0-moduleName-r;
#X msg 429 179 700;
#X obj 18 600 loadbang;
#X text 149 308 EDIT HERE to set the GOP label width;
#X obj 17 585 cnv 5 5 5 empty empty Module\ Specific\ Initializations\ --------------------------------- 0 0 0 14 #ffffff #404040 0;
#X obj 17 339 - 2;
#X msg 9 309 100;
#X msg 21 522 label Euclidian\ Rhythm;
#X msg 176 177 symbol tdh.ac.euclidianRhythm.ui;
#X connect 1 0 2 0;
#X connect 2 0 32 0;
#X connect 2 0 25 0;
#X connect 7 0 8 0;
#X connect 8 0 31 0;
#X connect 18 0 30 0;
#X connect 19 0 13 0;
#X connect 19 0 17 0;
#X connect 19 0 23 0;
#X connect 22 0 12 0;
#X connect 22 0 14 0;
#X connect 22 0 16 0;
#X connect 25 0 3 1;
#X connect 29 0 22 0;
#X connect 29 0 19 0;
#X connect 30 0 29 0;
#X connect 31 0 24 0;
#X connect 32 0 3 0;
#X restore 619 49 pd abstr-init;
#X obj 614 21 cnv 8 83 16 empty empty TDH.LIB 14 8 0 14 #dfdfdf #131255 0;
#N canvas 727 144 713 522 reference 0;
#X text 18 48 Travis Houldcroft || travishouldcroft.com;
#X obj 1 2 cnv 15 700 40 empty \$0-abstrPatchTitleBar tdh.ac.euclidianRhythm.ui 9 20 0 18 #3c50fc #a0a0a0 0;
#X obj 1 362 cnv 2 700 3 empty \$0-abstrPatchSecLabelNotes Notes 20 15 0 16 #a0a0a0 #202020 0;
#X obj 1 485 cnv 2 700 2 empty \$0-abstrPatchSecDivider empty 9 20 0 18 #a0a0a0 #202020 0;
#X obj 1 422 cnv 2 700 3 empty \$0-abstrPatchSecLabelRevHist Revision\ History 20 15 0 16 #a0a0a0 #202020 0;
#X obj 1 262 cnv 2 700 3 empty \$0-abstrPatchSecLabelArgs Arguments 20 15 0 16 #a0a0a0 #202020 0;
#X text 24 453 21/09/30 - ver 0.1, f 21;
#X obj 1 72 cnv 2 700 3 empty \$0-abstrPatchSecLabelInlets Inlets 20 15 0 16 #a0a0a0 #202020 0;
#X obj 1 172 cnv 2 700 3 empty \$0-abstrPatchSecLabelOutlets Outlets 20 15 0 16 #a0a0a0 #202020 0;
#X obj 125 121 cnv 14 18 14 empty empty 10 2 8 0 12 #606060 #dcdcdc 0;
#X obj 125 81 cnv 14 18 14 empty empty 1 2 8 0 12 #606060 #dcdcdc 0;
#X obj 125 101 cnv 14 18 14 empty empty 2 2 8 0 12 #606060 #dcdcdc 0;
#X text 227 271 Description;
#X text 177 271 (type);
#X text 227 291 Description;
#X text 177 291 (type);
#X text 227 311 Description;
#X text 177 311 (type);
#X text 197 80 Description;
#X text 147 80 (type);
#X text 197 100 Description;
#X text 147 100 (type);
#X text 197 120 Description;
#X text 147 120 (type);
#X text 197 180 Description;
#X text 147 180 (type);
#X text 197 200 Description;
#X text 147 200 (type);
#X text 197 220 Description;
#X text 147 220 (type);
#X text 147 271 \$1 -;
#X text 147 291 \$2 -;
#X text 147 311 \$3 -;
#X obj 125 181 cnv 14 18 14 empty empty 1 2 8 0 12 #9f9f9f #ffffff 0;
#X obj 126 272 cnv 14 18 14 empty empty 1 2 8 0 12 #dfdfdf #606060 0;
#X obj 126 292 cnv 14 18 14 empty empty 2 2 8 0 12 #dfdfdf #606060 0;
#X obj 126 312 cnv 14 18 14 empty empty 3 2 8 0 12 #dfdfdf #606060 0;
#X obj 125 201 cnv 14 18 14 empty empty 1 2 8 0 12 #9f9f9f #ffffff 0;
#X obj 125 221 cnv 14 18 14 empty empty 1 2 8 0 12 #9f9f9f #ffffff 0;
#X restore 529 49 pd reference;
#X obj 299 99 inlet;
#X obj 169 99 inlet;
#X obj 169 849 outlet;
#X obj 439 849 outlet;
#X obj 419 99 cnv 14 18 14 empty empty 3 2 8 0 12 #606060 #dcdcdc 0;
#X obj 149 99 cnv 14 18 14 empty empty 1 2 8 0 12 #606060 #dcdcdc 0;
#X obj 279 99 cnv 14 18 14 empty empty 2 2 8 0 12 #606060 #dcdcdc 0;
#X obj 439 99 inlet;
#X obj 149 849 cnv 14 18 14 empty empty 1 2 8 0 12 #9f9f9f #ffffff 0;
#X obj 419 849 cnv 14 18 14 empty empty 3 2 8 0 12 #9f9f9f #ffffff 0;
#X obj 169 319 f 0;
#X obj 219 319 + 1;
#X obj 169 549 +;
#X obj 169 379 % 16;
#X obj 169 609 *;
#X obj 169 669 % 16;
#X obj 169 729 <;
#X obj 169 769 sel 1, f 25;
#X text 899 98 This is based on code originally proposed by user Stutter (https://forum.puredata.info/user/stutter) on the Pure Data Forums at https://forum.puredata.info/topic/5188/euclidean-rhythms/6., f 67;
#X obj 199 449 sel 0;
#X text 899 158 This was then reiterated by Andrew. R. Brown (http://andrewrbrown.net.au) in his Pd Tutorial (https://youtu.be/lCcGeVXHkbE?si=ZisfaeXveXMkaKbP);
#X floatatom 29 123 5 0 0 1 Steps steps_\$0-r steps_\$0-s 0;
#X floatatom 29 141 5 0 0 1 Pulses pulses_\$0-r pulses_\$0-s 0;
#X floatatom 29 159 5 0 0 1 Offset offset_\$0-r offset_\$0-s 0;
#X obj 29 177 bng 16 250 50 0 reset_\$0-s reset_\$0-r Reset 24 8 0 10 #fcfcfc #000000 #000000;
#N canvas 152 186 745 575 savestate4 0;
#X obj 138 164 savestate, f 17;
#X text 20 152 On patch load \, [savestate] sends out a list of all the saved GUI parameters, f 18;
#X text 405 127 On patch save \, [savestate] will output "bang" which is used to create a list of all parameters. Parameters are temporarily stored in the [f] objects to be retrieved at patch save. This list is sent to [savestate] to be stored., f 37;
#X obj 175 295 s \$0-embed-r;
#X obj 175 271 list trim;
#X text 275 248 EMBED parameter needs to be loaded first \, as it determines if the [savestate] values actually get reported to their parameters, f 24;
#X obj 124 251 cnv 5 5 5 empty empty * 0 0 0 24 #ffffff #ff0400 0;
#X obj 138 418 spigot;
#X obj 138 376 list store;
#X obj 138 330 t b l, f 10;
#X obj 138 355 delay 5;
#X obj 171 398 r \$0-embed-s;
#X text 5 334 Delay the remaining paramters 5 msec to make sure the [spigot] has time to be opened if the EMBED paramter is set to "on" \, then the parameters get reported to the GUI, f 18;
#X obj 441 253 cnv 5 5 5 empty empty * 0 0 0 24 #ffffff #ff0400 0;
#X text 448 245 CHANGE THE [list split] ARGUMENT TO THE NUMBER OF POSSIBLE PARAMETERS IN THE PATCH (NOT COUNTING THE EMBED PARAMETER) TO CORRECTLY IMPLEMENT THE EMBED SWITCH, f 24;
#N canvas 134 35 989 773 savestateStoreParams 0;
#X obj 29 6 inlet;
#X obj 382 101 f;
#X obj 409 69 r \$0-embed-s;
#X obj 29 101 f;
#X obj 147 101 f;
#X obj 264 101 f;
#X text 729 188 [f] objects are constantly updated with the current value for each parameter \, when the [savestate] object sends out a "bang" when the patch is saved \, this bang causes all of the [f] objects to report their values. These values are packed into a list and saved inside the [savestate] object., f 21;
#X obj 29 182 outlet;
#X obj 29 33 t b b b b, f 63;
#X obj 29 159 pack f f f f, f 63;
#X obj 169 69 cnv 7 9 14 empty empty R 1 7 0 10 #fface3 #000000 0;
#X obj 49 69 cnv 7 9 14 empty empty R 1 7 0 10 #fcc4c4 #000000 0;
#X obj 279 69 cnv 7 9 14 empty empty R 1 7 0 10 #ebc2ac #000000 0;
#X obj 59 69 r steps_\$0-s;
#X obj 179 69 r pulses_\$0-s;
#X obj 289 69 r offset_\$0-s;
#X connect 0 0 8 0;
#X connect 1 0 9 3;
#X connect 2 0 1 1;
#X connect 3 0 9 0;
#X connect 4 0 9 1;
#X connect 5 0 9 2;
#X connect 8 0 3 0;
#X connect 8 1 4 0;
#X connect 8 2 5 0;
#X connect 8 3 1 0;
#X connect 9 0 7 0;
#X connect 13 0 3 1;
#X connect 14 0 4 1;
#X connect 15 0 5 1;
#X restore 237 186 pd savestateStoreParams;
#N canvas 1633 -329 926 649 savestateOutputParameters 0;
#X obj 30 6 inlet;
#X text 70 4 list of all the stored paramters;
#X obj 139 69 cnv 7 9 14 empty empty S 1 7 0 10 #fface3 #000000 0;
#X obj 19 69 cnv 7 9 14 empty empty S 1 7 0 10 #fcc4c4 #000000 0;
#X obj 255 69 cnv 7 9 14 empty empty S 1 7 0 10 #ebc2ac #000000 0;
#X obj 30 33 unpack f f f, f 43;
#X obj 29 69 s steps_\$0-r;
#X obj 149 69 s pulses_\$0-r;
#X obj 265 69 s offset_\$0-r;
#X connect 0 0 5 0;
#X connect 5 0 6 0;
#X connect 5 1 7 0;
#X connect 5 2 8 0;
#X restore 138 456 pd savestateOutputParameters;
#X obj 124 459 cnv 10 5 5 empty empty • -1 5 0 22 #ffffff #fc0400 0;
#X obj 226 189 cnv 10 5 5 empty empty • -1 5 0 22 #ffffff #fc0400 0;
#X text 19 8 This subpatch saves the values of each GUI control on save of the module's parent patch., f 88;
#N canvas 0 22 450 300 savestateDetails 0;
#X text 9 8 The [savestate] object works by sending a "bang" out its right outlet when the patch it resides in is saved. We use that "bang" to develop a list of parameters to save \, this list is then sent to the left inlet of [savestate] and is stored after the patch is closed. When the patch is opened \, that list is output on load \, and we distribute the parameters to the objects in the patch., f 130;
#X text 9 78 All parameters whose values are configured to be received in the [savestateStoreParams] subpatch will have their values compiled into a list at patch save - facilated by [savestate]'s "bang" message \, and stored. When the patch is opened \, that list will be distributed to all the correct objects as long as the [send] objects in [savestateOutputParameters] are configured to correctly send the parameters to the objects in the same order as they were stored in the list at save., f 131;
#X text 4 262 For tdh.lib modules \, it is convention that all GUIs with both a slider and numberbox only store the numberbox value \, as it will automatically update the slider value., f 132;
#X text 9 158 This subpatch facilitates an additional feature for saving parameters \, in that it relies on an external [toggle] that will activate or deactivate parameter loading. All parameters are saved regardless of the toggle's state \, but parameters are only loaded at patch open when the [toggle] is checked., f 131;
#X text 9 218 The [toggle]'s state is saved with the patch as the last element in the parameter list \, and at patch open \, this list item is trimmed off the list and used to open or close a [spigot] \, determining if the parameters are reported to their objects or not., f 131;
#X restore 419 39 pd savestateDetails;
#X text 99 38 About how [savestate] and this patch works --->;
#X obj 138 247 list split 3;
#X connect 0 0 22 0;
#X connect 0 1 15 0;
#X connect 4 0 3 0;
#X connect 7 0 16 0;
#X connect 8 0 7 0;
#X connect 9 0 10 0;
#X connect 9 1 8 1;
#X connect 10 0 8 0;
#X connect 11 0 7 1;
#X connect 15 0 0 0;
#X connect 22 0 9 0;
#X connect 22 1 4 0;
#X restore 729 49 pd savestate4;
#X obj 29 195 tgl 16 0 \$0-embed-s \$0-embed-r Embed 20 8 0 10 #ffffff #000000 #000000 0 1;
#X obj 169 175 s clock_\$0;
#X obj 589 99 inlet;
#X obj 719 99 cnv 14 18 14 empty empty 5 2 8 0 12 #606060 #dcdcdc 0;
#X obj 569 99 cnv 14 18 14 empty empty 4 2 8 0 12 #606060 #dcdcdc 0;
#X obj 739 99 inlet;
#X obj 299 179 s steps_\$0-r;
#X obj 189 579 cnv 7 9 14 empty empty R 1 7 0 10 #fface3 #000000 0;
#X obj 209 349 cnv 7 9 14 empty empty R 1 7 0 10 #fcc4c4 #000000 0;
#X obj 429 819 cnv 7 9 14 empty empty R 1 7 0 10 #c4c4fc #000000 0;
#X obj 159 219 cnv 7 9 14 empty empty R 1 7 0 10 #a1e0ff #000000 0;
#X obj 283 249 cnv 7 9 14 empty empty R 1 7 0 10 #c4fcc4 #000000 0;
#X obj 189 519 cnv 7 9 14 empty empty R 1 7 0 10 #ebc2ac #000000 0;
#X obj 429 179 cnv 7 9 14 empty empty S 1 7 0 10 #fface3 #000000 0;
#X obj 289 179 cnv 7 9 14 empty empty S 1 7 0 10 #fcc4c4 #000000 0;
#X obj 189 479 cnv 7 9 14 empty empty S 1 7 0 10 #c4c4fc #000000 0;
#X obj 159 179 cnv 7 9 14 empty empty S 1 7 0 10 #a1e0ff #000000 0;
#X obj 729 179 cnv 7 9 14 empty empty S 1 7 0 10 #c4fcc4 #000000 0;
#X obj 579 179 cnv 7 9 14 empty empty S 1 7 0 10 #ebc2ac #000000 0;
#X obj 9 127 cnv 6 6 6 empty empty empty -1 2 0 14 #ffc7c6 #9f9f9f 0;
#X obj 9 183 cnv 6 6 6 empty empty empty -1 2 0 14 #c6ffc7 #9f9f9f 0;
#X obj 9 165 cnv 6 6 6 empty empty empty -1 2 0 14 #ebc2ac #9f9f9f 0;
#X obj 9 147 cnv 6 6 6 empty empty empty -1 2 0 14 #fface3 #9f9f9f 0;
#X obj 439 179 s pulses_\$0-r;
#X obj 589 179 s offset_\$0-r;
#X obj 739 175 s reset_\$0-r;
#X obj 169 219 r clock_\$0;
#X obj 169 245 t b b;
#X obj 293 249 r reset_\$0-s;
#N canvas 0 22 450 300 gateResetMsg 0;
#X obj 379 119 inlet;
#X text 379 88 "bang" if reset button has been pressed (or received at inlet), f 63;
#X obj 49 119 inlet;
#X obj 72 239 tgl 25 0 empty empty empty 17 7 0 10 #e4e4e4 #4d4d4d #373737 0 1;
#X obj 49 289 spigot;
#X obj 49 329 t b b;
#X msg 129 329 0;
#X text 159 318 Reset messge has gone through \, now close [spigot] until another request to reset is received;
#X msg 382 159 1;
#X text 412 158 Open spigot;
#X msg 51 379 0;
#X obj 49 409 outlet;
#X text 88 17 This configuration allows for the reset message to be issued at any point between pulses \, and the resetting will happen on the next clock tick;
#X text 59 88 clock-tick "bang" to issue reset value ("0");
#X connect 0 0 8 0;
#X connect 2 0 4 0;
#X connect 3 0 4 1;
#X connect 4 0 5 0;
#X connect 5 0 10 0;
#X connect 5 1 6 0;
#X connect 6 0 3 0;
#X connect 8 0 3 0;
#X connect 10 0 11 0;
#X restore 203 289 pd gateResetMsg;
#X obj 219 349 r steps_\$0-s;
#X obj 189 639 cnv 7 9 14 empty empty R 1 7 0 10 #fcc4c4 #000000 0;
#X obj 199 639 r steps_\$0-s;
#X obj 199 519 r offset_\$0-s;
#X obj 199 479 s step0_\$0;
#X obj 439 819 r step0_\$0;
#X obj 199 579 r pulses_\$0-s;
#X obj 189 699 cnv 7 9 14 empty empty R 1 7 0 10 #fface3 #000000 0;
#X obj 199 699 r pulses_\$0-s;
#X obj 299 849 outlet;
#X obj 279 849 cnv 14 18 14 empty empty 2 2 8 0 12 #9f9f9f #ffffff 0;
#X text 189 808 ON pulse;
#X text 319 808 OFF pulse;
#X obj 929 819 cnv 7 9 14 empty empty R 1 7 0 10 #c4fcc4 #000000 0;
#X obj 939 819 r reset_\$0-s;
#X text 929 768 reset passthrough, f 15;
#X obj 939 849 outlet;
#X obj 919 849 cnv 14 18 14 empty empty 6 2 8 0 12 #9f9f9f #ffffff 0;
#X obj 44 232 cnv 10 5 12 empty empty Off 0 6 0 8 #dfdfdf #404040 0;
#X obj 62 232 cnv 10 5 12 empty empty 1st 0 6 0 8 #dfdfdf #404040 0;
#X obj 112 232 cnv 10 5 12 empty empty Rst 0 6 0 8 #dfdfdf #404040 0;
#X obj 89 104 cnv 10 5 12 empty empty OSt 0 6 0 8 #dfdfdf #404040 0;
#X obj 46 104 cnv 10 5 12 empty empty nStp 0 6 0 8 #dfdfdf #404040 0;
#X obj 68 104 cnv 10 5 12 empty empty nPls 0 6 0 8 #dfdfdf #404040 0;
#X obj 111 104 cnv 10 5 12 empty empty Rst 0 6 0 8 #dfdfdf #404040 0;
#X obj 321 145 cnv 14 18 14 empty empty 1 2 8 0 12 #b8dfcc #606060 0;
#X obj 188 289 cnv 10 10 10 empty empty • -1 5 0 22 #ffffff #fc0400 0;
#X obj 339 119 loadbang;
#X obj 339 145 f \$1;
#X obj 461 145 cnv 14 18 14 empty empty 2 2 8 0 12 #b8dfcc #606060 0;
#X obj 479 119 loadbang;
#X obj 479 145 f \$2;
#X obj 611 145 cnv 14 18 14 empty empty 3 2 8 0 12 #b8dfcc #606060 0;
#X obj 629 119 loadbang;
#X obj 629 145 f \$3;
#X obj 779 849 outlet;
#X obj 759 849 cnv 14 18 14 empty empty 5 2 8 0 12 #9f9f9f #ffffff 0;
#X obj 769 819 cnv 7 9 14 empty empty R 1 7 0 10 #a1e0ff #000000 0;
#X obj 779 819 r clock_\$0;
#X text 769 768 clock passthrough, f 15;
#X obj 299 479 cnv 7 9 14 empty empty S 1 7 0 10 #67ff00 #000000 0;
#X obj 309 479 s lastStep_\$0;
#X obj 599 849 outlet;
#X obj 579 849 cnv 14 18 14 empty empty 4 2 8 0 12 #9f9f9f #ffffff 0;
#X obj 589 819 cnv 7 9 14 empty empty R 1 7 0 10 #67ff00 #000000 0;
#X obj 319 419 - 1;
#X obj 309 449 sel;
#X text 367 416 last step # is nSteps-1 (count is 0 to nSteps-1);
#X obj 599 819 r lastStep_\$0;
#X text 589 768 last step of sequence, f 22;
#X text 429 768 First step of sequence (first step when offset as well), f 22;
#X obj 77 232 cnv 10 5 12 empty empty Lst 0 6 0 8 #dfdfdf #404040 0;
#X connect 13 0 45 0;
#X connect 14 0 40 0;
#X connect 20 0 62 0;
#X connect 23 0 24 0;
#X connect 23 0 26 0;
#X connect 24 0 23 1;
#X connect 25 0 27 0;
#X connect 26 0 25 0;
#X connect 26 0 32 0;
#X connect 26 0 115 0;
#X connect 27 0 28 0;
#X connect 28 0 29 0;
#X connect 29 0 30 0;
#X connect 30 0 15 0;
#X connect 30 1 78 0;
#X connect 32 0 73 0;
#X connect 41 0 63 0;
#X connect 44 0 64 0;
#X connect 65 0 66 0;
#X connect 66 0 23 0;
#X connect 66 1 68 0;
#X connect 67 0 68 1;
#X connect 68 0 23 1;
#X connect 69 0 26 1;
#X connect 69 0 114 0;
#X connect 71 0 28 1;
#X connect 72 0 25 1;
#X connect 74 0 16 0;
#X connect 75 0 27 1;
#X connect 77 0 29 1;
#X connect 83 0 85 0;
#X connect 96 0 97 0;
#X connect 97 0 45 0;
#X connect 99 0 100 0;
#X connect 100 0 62 0;
#X connect 102 0 103 0;
#X connect 103 0 63 0;
#X connect 107 0 104 0;
#X connect 114 0 115 1;
#X connect 115 0 110 0;
#X connect 117 0 111 0;
#X coords 0 -1 1 1 100 150 2 25 100;
