#N canvas 354 38 1158 731 10;
#X obj 449 109 inlet;
#X obj 449 229 outlet;
#X obj 449 139 t b f, f 11;
#X obj 449 169 f 60000;
#X obj 449 199 /, f 12;
#X connect 0 0 2 0;
#X connect 2 0 3 0;
#X connect 2 1 4 1;
#X connect 3 0 4 0;
#X connect 4 0 1 0;
