#N canvas 1505 7 933 862 10;
#X text 22 36 Travis Houldcroft || travishouldcroft.com;
#X obj 2 0 cnv 15 919 27 empty empty tdh.util.audiofileRW~ 20 12 0
14 #e0e0e0 #404040 0;
#X obj 3 60 cnv 15 919 8 empty empty Inlets 20 15 0 14 #e0e0e0 #404040
0;
#X text 23 89 0;
#X text 45 89 -;
#X obj 3 190 cnv 15 919 8 empty empty Outlets 20 15 0 14 #e0e0e0 #404040
0;
#X text 23 219 0;
#X text 45 219 -;
#X obj 2 250 cnv 15 919 10 empty empty Note 20 15 0 14 #e0e0e0 #404040
0;
#X text 67 89 (bang) plays audio file stored in arry;
#X text 45 109 -;
#X text 23 109 1;
#X text 67 109 (float) file playback start point in ms;
#X text 45 129 -;
#X text 23 129 2;
#X text 67 129 (float) file playback end point in ms;
#X text 45 149 -;
#X text 23 149 3;
#X text 67 149 (float) timestretch playback factor 0.1-500;
#X text 67 219 (sig) signal;
#X text 21 282 Dependencies: tdh.util.ms2samp~;
#X obj 132 307 bng 15 250 50 0 empty empty empty 17 7 0 10 #fcfcfc
#000000 #000000;
#X floatatom 437 365 5 0 0 0 - - - 0;
#X floatatom 539 393 5 0 0 0 - - - 0;
#X text 152 308 Send "bang" to play;
#X text 477 365 Playback start in ms, f 13;
#X text 579 393 Playback endpoint in ms, f 15;
#X text 684 452 100 = normal speed;
#X text 684 467 < 100 faster speed;
#X text 684 482 > 100 slower speed;
#X text 34 495 Load a file -->;
#X text 34 462 Play a file -->;
#X text 16 517 Normalize file -->;
#X text 5 552 Display duration -->;
#X text 16 589 Playback start -->;
#X text 27 642 Playback end -->;
#X obj 2 300 cnv 15 919 2 empty empty empty 20 12 0 14 #e0e0e0 #404040
0;
#X floatatom 641 422 5 0 0 0 - - - 0;
#X obj 233 326 bng 15 250 50 0 empty empty empty 17 7 0 10 #fcfcfc
#000000 #000000;
#X text 253 326 Send "bang" to stop;
#X text 24 478 Stop playback -->;
#X text 147 421 Loop playback;
#N canvas 1372 32 450 300 help-audio-out 0;
#X obj -70 30 inlet~;
#X obj 50 30 inlet~;
#X obj 103 143 tgl 15 0 empty empty DSP\\\ On/Off 17 7 0 10 #fcfcfc
#000000 #000000 0 1;
#X text 101 101 In Ch1;
#X text 181 100 In Ch2;
#X obj 103 163 hsl 64 15 0.01 1 1 0 empty empty Volume 72 7 0 10 #fcfcfc
#000000 #000000 0 1;
#X obj 50 220 *~;
#X obj 102 120 cnv 2 123 2 empty empty Audio\\\ Output 1 8 0 14 #e0e0e0
#404040 0;
#X obj 183 144 tgl 15 0 empty empty Mute 17 7 0 10 #fcfcfc #000000
#000000 0 1;
#X obj -70 200 *~;
#X obj -70 250 dac~ 1 2;
#X msg 103 230 \; pd dsp \$1;
#X text -100 260 _;
#X obj 103 63 r \$0-dsp-ctrl;
#X obj 203 63 r \$0-gain-ctrl;
#X connect 0 0 9 0;
#X connect 1 0 6 0;
#X connect 2 0 11 0;
#X connect 5 0 6 1;
#X connect 5 0 9 1;
#X connect 6 0 10 1;
#X connect 8 0 6 1;
#X connect 8 0 9 1;
#X connect 9 0 10 0;
#X connect 13 0 2 0;
#X connect 14 0 5 0;
#X coords 0 -1 1 1 127 82 2 100 100;
#X restore 132 748 pd help-audio-out;
#X obj 132 442 tdh.lib/tdh.util.audioFileRW~;
#X obj 335 349 tgl 15 0 empty empty Loop\ Playback 17 7 0 10 #fcfcfc
#000000 #000000 0 1;
#X text 677 424 Playback speed from 0.1 to 500 where:, f 19;
#X text 652 649 <-- Playback speed with presets;
#X text 18 403 Raw: Toggle to load raw data files for sonic data-bending
, f 15;
#X connect 21 0 43 0;
#X connect 22 0 43 3;
#X connect 23 0 43 4;
#X connect 37 0 43 5;
#X connect 38 0 43 1;
#X connect 43 0 42 0;
#X connect 43 1 42 1;
#X connect 44 0 43 2;
#X coords 0 0 1 1 516 261 0;
