#N canvas 2301 401 1412 888 10;
#X text 18 48 Travis Houldcroft || travishouldcroft.com;
#X obj 1 1 cnv 15 1400 40 empty \$0-abstrPatchTitleBar tdh.util.framedCanvas 9 20 0 18 #3c50fc #a0a0a0 0;
#X obj 1 75 cnv 2 1400 2 empty \$0-abstrPatchSecDivider empty 9 20 0 18 #a0a0a0 #202020 0;
#X obj 1314 21 cnv 8 83 16 empty empty tdh.lib 14 8 0 14 #dfdfdf #131255 0;
#N canvas 2191 272 708 751 reference 0;
#X text 18 48 Travis Houldcroft || travishouldcroft.com;
#X obj 1 1 cnv 15 700 40 empty \$0-abstrPatchTitleBar tdh.util.framedCanvas 9 20 0 18 #3c50fc #a0a0a0 0;
#X obj 1 362 cnv 2 700 3 empty \$0-abstrPatchSecLabelNotes Notes 20 15 0 16 #a0a0a0 #202020 0;
#X obj 1 645 cnv 2 700 2 empty \$0-abstrPatchSecDivider empty 9 20 0 18 #a0a0a0 #202020 0;
#X obj 1 582 cnv 2 700 3 empty \$0-abstrPatchSecLabelRevHist Revision\ History 20 15 0 16 #a0a0a0 #202020 0;
#X obj 1 232 cnv 2 700 3 empty \$0-abstrPatchSecLabelArgs Arguments 20 15 0 16 #a0a0a0 #202020 0;
#X text 20 609 21/09/30 - ver 0.1, f 21;
#X obj 1 72 cnv 2 700 3 empty \$0-abstrPatchSecLabelInlets Inlets 20 15 0 16 #a0a0a0 #202020 0;
#X obj 1 202 cnv 2 700 3 empty \$0-abstrPatchSecLabelOutlets Outlets 20 15 0 16 #a0a0a0 #202020 0;
#X obj 126 243 cnv 14 18 14 empty empty 1 2 8 0 12 #dfdfdf #606060 0;
#X obj 126 263 cnv 14 18 14 empty empty 2 2 8 0 12 #dfdfdf #606060 0;
#X obj 126 283 cnv 14 18 14 empty empty 3 2 8 0 12 #dfdfdf #606060 0;
#X obj 125 81 cnv 14 18 14 empty empty 1 2 8 0 12 #9f9f9f #ffffff 0;
#X text 149 240 \$1 -;
#X text 149 280 \$3 -;
#X text 149 302 \$4 -;
#X text 149 260 \$2 -;
#X text 183 240 (float) width;
#X text 183 260 (float) height;
#X text 183 280 (float) frame color (preset - see subpatch);
#X text 183 302 (float) fill color (preset - see subpatch);
#X text 183 322 (symbol) An optional label that is (currently) locked to the upper right corner of the frame \, whose color matches the frame color, f 79;
#X text 149 322 \$5 -;
#X text 146 79 (symbol);
#X text 199 79 The following symbols accompanied with a value will set the property of the canvas:, f 83;
#X text 244 97 width [x];
#X text 244 117 height [y];
#X text 244 137 border [z];
#X text 244 157 fill [w];
#X text 244 177 label symbol [j] (must include "symbol" identifier or error ocurrs), f 68;
#X text 127 210 None;
#X obj 126 303 cnv 14 18 14 empty empty 4 2 8 0 12 #dfdfdf #606060 0;
#X obj 126 323 cnv 14 18 14 empty empty 5 2 8 0 12 #dfdfdf #606060 0;
#X text 20 622 22/11/22 - ver 0.2, f 21;
#X text 14 525 At this time \, canvases whose properties are changed via message will not save/carry over when re-opening the patch. Properties set via argument WILL carry over. Messages are best used as tools to determine how you want your canvas to look \, and then instantiating a new canvas with those settings as arguments., f 110;
#X text 14 389 The canvas isn't tranparent \, and Pd displays objects in the order they are created. This means that the Framed Canvas will draw OVER your objects if created last. To remedy \, perform a CUT + PASTE of the objects you want to draw in front of the canvas \, * move the canvas to the right position * (see below) \, then paste the cut objects - they will then be situated in front of the canvas., f 110;
#X text 16 452 Because of the way Pd handles the GOP window sizing dialog \, each movement/drag of the object makes it appear to Pd as if it was a newly instantiated object. So every time you move the framed canvas \, it will place the canvas in front of any objects previously placed in the patch. You will then have to follow the above workflow to re-set objects in front of the canvas at evey change. Its not ideal \, and will hopefully be remedied in the future., f 110;
#X restore 1317 50 pd reference;
#X obj 366 166 cnv 14 14 14 empty empty R 6 8 0 8 #c4c4fc #7c7c7c 0;
#X obj 287 167 cnv 14 14 14 empty empty R 6 8 0 8 #c4fcfc #7c7c7c 0;
#X obj 195 166 cnv 14 14 14 empty empty R 6 8 0 8 #c4fcc4 #7c7c7c 0;
#X obj 99 166 cnv 14 14 14 empty empty R 6 8 0 8 #fcfcc4 #7c7c7c 0;
#X obj 466 166 cnv 14 14 14 empty empty R 6 8 0 8 #e0c4fc #7c7c7c 0;
#X obj 445 557 cnv 14 14 14 empty empty S 6 8 0 8 #c4c4fc #7c7c7c 0;
#X obj 400 483 cnv 14 14 14 empty empty S 6 8 0 8 #c4fcfc #7c7c7c 0;
#X obj 324 362 cnv 14 14 14 empty empty S 6 8 0 8 #c4fcc4 #7c7c7c 0;
#X obj 133 272 cnv 14 14 14 empty empty S 6 8 0 8 #fcfcc4 #7c7c7c 0;
#X obj 162 305 cnv 14 18 14 empty empty 1 2 8 0 12 #dfdfdf #606060 0;
#X obj 263 383 cnv 14 18 14 empty empty 2 2 8 0 12 #dfdfdf #606060 0;
#X obj 274 490 cnv 14 18 14 empty empty 3 2 8 0 12 #dfdfdf #606060 0;
#X obj 69 99 cnv 14 18 14 empty empty 1 2 8 0 12 #606060 #dcdcdc 0;
#X obj 708 249 f \$1;
#X obj 761 248 f \$2;
#X obj 708 355 pack f f;
#X obj 685 135 loadbang;
#N canvas 2494 785 1463 548 formatCnv 0;
#X msg 141 183 vis_size \$1 \$2;
#X obj 141 103 - 4;
#X obj 171 103 - 4;
#X obj 171 126 t b f;
#X obj 141 158 pack f f;
#X obj 37 125 t b f;
#X obj 16 154 pack f f;
#X msg 16 181 vis_size \$1 \$2;
#X msg 257 47 color \$1 0 0;
#X obj 742 47 list append \$0;
#X msg 742 72 symbol \$2-\$1;
#X obj 16 338 send;
#X obj 452 334 send;
#X obj 104 365 loadbang;
#X obj 104 407 list append \$0;
#X msg 104 428 symbol \$2-\$1;
#X obj 515 335 loadbang;
#X obj 515 379 list append \$0;
#X msg 515 400 symbol \$2-\$1;
#X obj 942 47 list append \$0;
#X msg 942 72 symbol \$2-\$1;
#X obj 600 17 inlet optLabel;
#X obj 742 19 inlet frameReceiveName;
#X obj 942 20 inlet fillReceiveName;
#X obj 448 18 inlet fillColor;
#X msg 515 357 symbol fillCanvas;
#X msg 104 386 symbol frameCanvas;
#X obj 302 19 inlet frameColor;
#X obj 171 20 inlet height;
#X obj 16 20 inlet width;
#X text 104 335 To frame;
#X text 588 333 To fill;
#X obj 503 454 delay 1;
#X obj 88 459 delay 1;
#X msg 503 480 pos 1203 403;
#X msg 89 485 pos 1201 401;
#X obj 285 94 f;
#X obj 448 42 t f b;
#X obj 448 78 pack f 0 f;
#X text 360 102 ^|, f 1;
#X text 306 135 frame color is label color currently, f 14;
#X msg 600 45 label \$1;
#X msg 450 105 color \$1 0 \$3;
#X connect 0 0 12 0;
#X connect 1 0 4 0;
#X connect 2 0 3 0;
#X connect 3 0 4 0;
#X connect 3 1 4 1;
#X connect 4 0 0 0;
#X connect 5 0 6 0;
#X connect 5 1 6 1;
#X connect 6 0 7 0;
#X connect 7 0 11 0;
#X connect 8 0 11 0;
#X connect 9 0 10 0;
#X connect 10 0 11 1;
#X connect 13 0 26 0;
#X connect 13 0 33 0;
#X connect 14 0 15 0;
#X connect 15 0 11 1;
#X connect 16 0 25 0;
#X connect 16 0 32 0;
#X connect 17 0 18 0;
#X connect 18 0 12 1;
#X connect 19 0 20 0;
#X connect 20 0 12 1;
#X connect 21 0 41 0;
#X connect 22 0 9 0;
#X connect 23 0 19 0;
#X connect 24 0 37 0;
#X connect 25 0 17 0;
#X connect 26 0 14 0;
#X connect 27 0 8 0;
#X connect 27 0 36 1;
#X connect 28 0 5 0;
#X connect 28 0 2 0;
#X connect 29 0 6 0;
#X connect 29 0 1 0;
#X connect 32 0 34 0;
#X connect 33 0 35 0;
#X connect 34 0 12 0;
#X connect 35 0 11 0;
#X connect 36 0 38 2;
#X connect 37 0 38 0;
#X connect 37 1 36 0;
#X connect 38 0 42 0;
#X connect 41 0 12 0;
#X connect 42 0 12 0;
#X restore 130 724 pd formatCnv;
#X f 80;
#X obj 1201 401 cnv 15 99 99 empty \$0-frameCanvas empty 20 12 0 14 #202020 #fcfcfc 0;
#X obj 1203 403 cnv 15 95 95 empty \$0-fillCanvas empty 6 8 0 12 #fcfcfc #202020 0;
#X symbolatom 373 798 10 0 0 1 OuterReceiveLabel - - 0;
#X symbolatom 396 818 10 0 0 1 InnerReceiveLabel - - 0;
#X symbolatom 471 696 10 0 0 1 OptLabel - - 0;
#X obj 597 801 cnv 5 5 5 empty empty ⎤ 0 0 0 14 #fcfcfc #404040 0;
#X obj 597 831 cnv 5 5 5 empty empty ⎦ 0 0 0 14 #fcfcfc #404040 0;
#X obj 600 797 cnv 5 5 5 empty empty ⎜ 0 0 0 14 #fcfcfc #404040 0;
#X obj 600 813 cnv 5 5 5 empty empty ⎜ 0 0 0 14 #fcfcfc #404040 0;
#X obj 600 799 cnv 5 5 5 empty empty ⎜ 0 0 0 14 #fcfcfc #404040 0;
#X obj 600 815 cnv 5 5 5 empty empty ⎜ 0 0 0 14 #fcfcfc #404040 0;
#X text 605 791 To be implemented;
#X obj 130 305 f \$1;
#X obj 708 418 s \$0-framedCanvas;
#X obj 685 159 t b b b;
#N canvas 2374 217 719 510 argDfltHandling100 0;
#X obj 213 103 == 0;
#X obj 264 47 t f f;
#X obj 213 139 sel 1 0;
#X obj 278 176 f;
#X text 308 14 Argument;
#X obj 213 221 outlet;
#X obj 244 15 cnv 15 19 19 empty empty 0 2 10 0 14 #606060 #fcfcfc 0;
#X obj 194 221 cnv 15 19 19 empty empty 0 2 10 0 14 #606060 #fcfcfc 0;
#X obj 264 15 inlet;
#X text 64 104 Check argument for 0;
#X obj 215 175 cnv 15 35 20 empty empty empty 0 8 0 14 #c4c4fc #404040 0;
#X text 56 133 Yes \, use the default \, else use the argument, f 21;
#X text 93 177 Set DEFAULT here;
#X obj 213 176 f 100;
#X connect 0 0 2 0;
#X connect 1 0 0 0;
#X connect 1 1 3 1;
#X connect 2 0 13 0;
#X connect 2 1 3 0;
#X connect 3 0 5 0;
#X connect 8 0 1 0;
#X connect 13 0 5 0;
#X restore 761 271 pd argDfltHandling100;
#N canvas 2374 217 719 510 argDfltHandling100 0;
#X obj 213 103 == 0;
#X obj 264 47 t f f;
#X obj 213 139 sel 1 0;
#X obj 278 176 f;
#X text 308 14 Argument;
#X obj 213 221 outlet;
#X obj 244 15 cnv 15 19 19 empty empty 0 2 10 0 14 #606060 #fcfcfc 0;
#X obj 194 221 cnv 15 19 19 empty empty 0 2 10 0 14 #606060 #fcfcfc 0;
#X obj 264 15 inlet;
#X text 64 104 Check argument for 0;
#X obj 215 175 cnv 15 35 20 empty empty empty 0 8 0 14 #c4c4fc #404040 0;
#X text 56 133 Yes \, use the default \, else use the argument, f 21;
#X text 93 177 Set DEFAULT here;
#X obj 213 176 f 100;
#X connect 0 0 2 0;
#X connect 1 0 0 0;
#X connect 1 1 3 1;
#X connect 2 0 13 0;
#X connect 2 1 3 0;
#X connect 3 0 5 0;
#X connect 8 0 1 0;
#X connect 13 0 5 0;
#X restore 708 294 pd argDfltHandling100;
#N canvas 2374 217 719 510 argDfltHandling100 0;
#X obj 213 103 == 0;
#X obj 264 47 t f f;
#X obj 213 139 sel 1 0;
#X obj 278 176 f;
#X text 308 14 Argument;
#X obj 213 221 outlet;
#X obj 244 15 cnv 15 19 19 empty empty 0 2 10 0 14 #606060 #fcfcfc 0;
#X obj 194 221 cnv 15 19 19 empty empty 0 2 10 0 14 #606060 #fcfcfc 0;
#X obj 264 15 inlet;
#X text 64 104 Check argument for 0;
#X obj 215 175 cnv 15 35 20 empty empty empty 0 8 0 14 #c4c4fc #404040 0;
#X text 56 133 Yes \, use the default \, else use the argument, f 21;
#X text 93 177 Set DEFAULT here;
#X obj 213 176 f 100;
#X connect 0 0 2 0;
#X connect 1 0 0 0;
#X connect 1 1 3 1;
#X connect 2 0 13 0;
#X connect 2 1 3 0;
#X connect 3 0 5 0;
#X connect 8 0 1 0;
#X connect 13 0 5 0;
#X restore 130 331 pd argDfltHandling100;
#X obj 130 355 - 1;
#N canvas 2374 217 719 510 argDfltHandling100 0;
#X obj 213 103 == 0;
#X obj 264 47 t f f;
#X obj 213 139 sel 1 0;
#X obj 278 176 f;
#X text 308 14 Argument;
#X obj 213 221 outlet;
#X obj 244 15 cnv 15 19 19 empty empty 0 2 10 0 14 #606060 #fcfcfc 0;
#X obj 194 221 cnv 15 19 19 empty empty 0 2 10 0 14 #606060 #fcfcfc 0;
#X obj 264 15 inlet;
#X text 64 104 Check argument for 0;
#X obj 215 175 cnv 15 35 20 empty empty empty 0 8 0 14 #c4c4fc #404040 0;
#X text 56 133 Yes \, use the default \, else use the argument, f 21;
#X text 93 177 Set DEFAULT here;
#X obj 213 176 f 100;
#X connect 0 0 2 0;
#X connect 1 0 0 0;
#X connect 1 1 3 1;
#X connect 2 0 13 0;
#X connect 2 1 3 0;
#X connect 3 0 5 0;
#X connect 8 0 1 0;
#X connect 13 0 5 0;
#X restore 231 405 pd argDfltHandling100;
#X obj 231 429 - 1;
#N canvas 1876 318 719 510 argDfltHandling12 0;
#X obj 213 103 == 0;
#X obj 264 47 t f f;
#X obj 213 139 sel 1 0;
#X obj 278 176 f;
#X text 308 14 Argument;
#X obj 213 221 outlet;
#X obj 244 15 cnv 15 19 19 empty empty 0 2 10 0 14 #606060 #fcfcfc 0;
#X obj 194 221 cnv 15 19 19 empty empty 0 2 10 0 14 #606060 #fcfcfc 0;
#X obj 264 15 inlet;
#X text 64 104 Check argument for 0;
#X obj 215 175 cnv 15 35 20 empty empty empty 0 8 0 14 #c4c4fc #404040 0;
#X text 56 133 Yes \, use the default \, else use the argument, f 21;
#X text 93 177 Set DEFAULT here;
#X obj 213 176 f 12;
#X connect 0 0 2 0;
#X connect 1 0 0 0;
#X connect 1 1 3 1;
#X connect 2 0 13 0;
#X connect 2 1 3 0;
#X connect 3 0 5 0;
#X connect 8 0 1 0;
#X connect 13 0 5 0;
#X restore 293 512 pd argDfltHandling12;
#N canvas 2374 217 719 510 argDfltHandling0 0;
#X obj 213 103 == 0;
#X obj 264 47 t f f;
#X obj 213 139 sel 1 0;
#X obj 278 176 f;
#X text 308 14 Argument;
#X obj 213 221 outlet;
#X obj 244 15 cnv 15 19 19 empty empty 0 2 10 0 14 #606060 #fcfcfc 0;
#X obj 194 221 cnv 15 19 19 empty empty 0 2 10 0 14 #606060 #fcfcfc 0;
#X obj 264 15 inlet;
#X text 64 104 Check argument for 0;
#X obj 215 175 cnv 15 35 20 empty empty empty 0 8 0 14 #c4c4fc #404040 0;
#X text 56 133 Yes \, use the default \, else use the argument, f 21;
#X text 93 177 Set DEFAULT here;
#X obj 213 176 f 0;
#X connect 0 0 2 0;
#X connect 1 0 0 0;
#X connect 1 1 3 1;
#X connect 2 0 13 0;
#X connect 2 1 3 0;
#X connect 3 0 5 0;
#X connect 8 0 1 0;
#X connect 13 0 5 0;
#X restore 370 603 pd argDfltHandling0;
#X obj 67 225 loadbang;
#X obj 370 578 f \$4;
#X obj 30 225 cnv 15 35 19 empty empty INIT 1 10 0 14 #fcc4c4 #404040 0;
#X obj 748 135 cnv 15 35 19 empty empty INIT 1 10 0 14 #fcc4c4 #404040 0;
#X obj 590 785 cnv 5 5 5 empty empty ─ 0 3 0 19 #fcfcfc #606060 0;
#X obj 579 785 cnv 5 5 5 empty empty ─ 0 3 0 19 #fcfcfc #606060 0;
#X obj 568 785 cnv 5 5 5 empty empty ─ 0 3 0 19 #fcfcfc #606060 0;
#X obj 557 785 cnv 5 5 5 empty empty ─ 0 3 0 19 #fcfcfc #606060 0;
#X obj 546 785 cnv 5 5 5 empty empty ─ 0 3 0 19 #fcfcfc #606060 0;
#X obj 535 785 cnv 5 5 5 empty empty ─ 0 3 0 19 #fcfcfc #606060 0;
#X obj 524 785 cnv 5 5 5 empty empty ─ 0 3 0 19 #fcfcfc #606060 0;
#X obj 513 785 cnv 5 5 5 empty empty ─ 0 3 0 19 #fcfcfc #606060 0;
#X obj 502 785 cnv 5 5 5 empty empty ─ 0 3 0 19 #fcfcfc #606060 0;
#X obj 490 785 cnv 5 5 5 empty empty ─ 0 3 0 19 #fcfcfc #606060 0;
#X obj 479 785 cnv 5 5 5 empty empty ─ 0 3 0 19 #fcfcfc #606060 0;
#X obj 468 785 cnv 5 5 5 empty empty ─ 0 3 0 19 #fcfcfc #606060 0;
#X obj 457 785 cnv 5 5 5 empty empty ─ 0 3 0 19 #fcfcfc #606060 0;
#X obj 446 785 cnv 5 5 5 empty empty ─ 0 3 0 19 #fcfcfc #606060 0;
#X obj 435 785 cnv 5 5 5 empty empty ─ 0 3 0 19 #fcfcfc #606060 0;
#X obj 424 785 cnv 5 5 5 empty empty ─ 0 3 0 19 #fcfcfc #606060 0;
#X obj 413 785 cnv 5 5 5 empty empty ─ 0 3 0 19 #fcfcfc #606060 0;
#X obj 588 835 cnv 5 5 5 empty empty ─ 0 3 0 19 #fcfcfc #606060 0;
#X obj 577 835 cnv 5 5 5 empty empty ─ 0 3 0 19 #fcfcfc #606060 0;
#X obj 566 835 cnv 5 5 5 empty empty ─ 0 3 0 19 #fcfcfc #606060 0;
#X obj 555 835 cnv 5 5 5 empty empty ─ 0 3 0 19 #fcfcfc #606060 0;
#X obj 544 835 cnv 5 5 5 empty empty ─ 0 3 0 19 #fcfcfc #606060 0;
#X obj 533 835 cnv 5 5 5 empty empty ─ 0 3 0 19 #fcfcfc #606060 0;
#X obj 522 835 cnv 5 5 5 empty empty ─ 0 3 0 19 #fcfcfc #606060 0;
#X obj 511 835 cnv 5 5 5 empty empty ─ 0 3 0 19 #fcfcfc #606060 0;
#X obj 500 835 cnv 5 5 5 empty empty ─ 0 3 0 19 #fcfcfc #606060 0;
#X obj 488 835 cnv 5 5 5 empty empty ─ 0 3 0 19 #fcfcfc #606060 0;
#X obj 477 835 cnv 5 5 5 empty empty ─ 0 3 0 19 #fcfcfc #606060 0;
#X obj 466 835 cnv 5 5 5 empty empty ─ 0 3 0 19 #fcfcfc #606060 0;
#X obj 455 835 cnv 5 5 5 empty empty ─ 0 3 0 19 #fcfcfc #606060 0;
#X obj 444 835 cnv 5 5 5 empty empty ─ 0 3 0 19 #fcfcfc #606060 0;
#X obj 433 835 cnv 5 5 5 empty empty ─ 0 3 0 19 #fcfcfc #606060 0;
#X obj 422 835 cnv 5 5 5 empty empty ─ 0 3 0 19 #fcfcfc #606060 0;
#X obj 411 835 cnv 5 5 5 empty empty ─ 0 3 0 19 #fcfcfc #606060 0;
#X obj 73 723 cnv 15 35 19 empty empty INIT 1 10 0 14 #fcc4c4 #404040 0;
#X obj 114 728 cnv 5 5 5 empty empty → -3 3 0 30 #fcfcfc #fcc4c4 0;
#X text 155 743 All paramters (width \, height \, frame color \, fill color) are remotely sent to the canvas from this subpatch;
#X text 1043 368 [donecanvasdialog( message communicates the GOP parameters to the named canvas, f 23;
#X obj 232 382 f \$2;
#X obj 293 489 f \$3;
#X obj 799 135 namecanvas \$0-framedCanvas;
#X msg 708 381 donecanvasdialog 1 -1 2 0 -1 1 1 \$1 \$2 1200 400;
#X msg 652 347 dirty 0;
#X obj 708 326 + 1;
#X obj 761 325 + 1;
#X text 794 320 The position of the canvas in the GOP is offset by 1 pixel \, so we increase the size of the GOP by 1 pixel;
#X text 779 354 GOP Dimension (Default: 101x101);
#X obj 231 461 nbx 5 14 -1e+37 1e+37 0 0 empty empty Height 58 8 0 10 #c4fcfc #000000 #000000 0 256;
#X obj 293 539 nbx 5 14 -1e+37 1e+37 0 0 empty empty BorderColor 58 8 0 10 #c4fcfc #000000 #000000 0 256;
#X obj 370 629 nbx 5 14 -1e+37 1e+37 0 0 empty empty FillColor 58 8 0 10 #c4fcfc #000000 #000000 0 256;
#X obj 130 381 nbx 5 14 -1e+37 1e+37 0 0 empty empty Width 58 8 0 10 #c4fcfc #000000 #000000 0 256;
#X obj 450 672 symbol \$5;
#X obj 110 247 t b b b b, f 31;
#X obj 370 363 t b b, f 14;
#X obj 33 99 inlet;
#X obj 33 165 s \$0-width;
#X obj 124 165 s \$0-height;
#X obj 216 165 s \$0-border;
#X obj 33 132 route width height border fill label, f 77;
#X obj 308 165 s \$0-fill;
#X obj 400 165 s \$0-label;
#X obj 68 270 r \$0-width;
#X obj 252 361 r \$0-height;
#X obj 328 464 r \$0-border;
#X obj 385 556 r \$0-fill;
#X obj 460 649 r \$0-label;
#X obj 748 163 r \$0-width;
#X obj 830 162 r \$0-height;
#X obj 830 186 t b f;
#X obj 351 579 cnv 14 18 14 empty empty 4 2 8 0 12 #dfdfdf #606060 0;
#X obj 511 673 cnv 14 18 14 empty empty 5 2 8 0 12 #dfdfdf #606060 0;
#X text 27 204 Canvas Handling;
#X obj 328 485 t b f;
#X msg 113 99 width 100 \, height 100 \, border 12 \, fill 0 \, label symbol my\ label;
#N canvas 2637 766 434 501 possibleFutureSavestate 0;
#X obj 70 210 f;
#X obj 120 250 f;
#X obj 144 280 f;
#X obj 169 300 f;
#X obj 19 138 savestate;
#X text 135 338 On patch load \, [savestate] sends out a list of all the saved GUI parameters, f 18;
#X text 15 87 On patch save \, [savestate] will output "bang" to retreive all paramters in the [f] or [symbol] objects and compile into a list. This list is sent to [savestate] to be stored., f 48;
#X text 86 141 <-- Save/Load order is right to left;
#X obj 184 269 r \$0-border;
#X obj 159 249 r \$0-height;
#X obj 138 230 r \$0-width;
#X obj 110 208 r \$0-label;
#X obj 95 230 symbol;
#X obj 85 189 r \$0-fill;
#X obj 20 390 s \$0-fill;
#X obj 46 409 s \$0-label;
#X obj 74 431 s \$0-width;
#X obj 98 450 s \$0-height;
#X obj 125 470 s \$0-border;
#X obj 20 340 unpack f s f f f, f 18;
#X obj 70 167 t b b b b b, f 17;
#X obj 70 320 pack f s f f f, f 17;
#X text 15 12 CURRENTLY DOESN'T WORK (AND IS DISCONNECTED;
#X connect 0 0 21 0;
#X connect 1 0 21 2;
#X connect 2 0 21 3;
#X connect 3 0 21 4;
#X connect 8 0 3 1;
#X connect 9 0 2 1;
#X connect 10 0 1 1;
#X connect 11 0 12 1;
#X connect 12 0 21 1;
#X connect 13 0 0 1;
#X connect 19 0 14 0;
#X connect 19 1 15 0;
#X connect 19 2 16 0;
#X connect 19 3 17 0;
#X connect 19 4 18 0;
#X connect 20 0 0 0;
#X connect 20 1 12 0;
#X connect 20 2 1 0;
#X connect 20 3 2 0;
#X connect 20 4 3 0;
#X connect 21 0 4 0;
#X restore 1059 649 pd possibleFutureSavestate;
#X connect 18 0 39 0;
#X connect 19 0 38 0;
#X connect 20 0 91 0;
#X connect 21 0 37 0;
#X connect 25 0 22 5;
#X connect 26 0 22 6;
#X connect 35 0 40 0;
#X connect 37 0 92 0;
#X connect 37 1 18 0;
#X connect 37 2 19 0;
#X connect 38 0 94 0;
#X connect 39 0 93 0;
#X connect 40 0 41 0;
#X connect 41 0 100 0;
#X connect 42 0 43 0;
#X connect 43 0 97 0;
#X connect 44 0 98 0;
#X connect 45 0 99 0;
#X connect 46 0 102 0;
#X connect 47 0 45 0;
#X connect 88 0 42 0;
#X connect 89 0 44 0;
#X connect 91 0 36 0;
#X connect 92 0 36 0;
#X connect 93 0 20 0;
#X connect 94 0 20 1;
#X connect 97 0 22 1;
#X connect 98 0 22 2;
#X connect 99 0 22 3;
#X connect 100 0 22 0;
#X connect 101 0 22 4;
#X connect 101 0 27 0;
#X connect 102 0 103 0;
#X connect 102 1 35 0;
#X connect 102 2 88 0;
#X connect 102 3 89 0;
#X connect 103 0 47 0;
#X connect 103 1 101 0;
#X connect 104 0 108 0;
#X connect 108 0 105 0;
#X connect 108 1 106 0;
#X connect 108 2 107 0;
#X connect 108 3 109 0;
#X connect 108 4 110 0;
#X connect 111 0 35 0;
#X connect 112 0 88 0;
#X connect 113 0 122 0;
#X connect 114 0 47 0;
#X connect 115 0 101 0;
#X connect 116 0 18 0;
#X connect 117 0 118 0;
#X connect 118 0 18 0;
#X connect 118 1 19 0;
#X connect 122 0 101 0;
#X connect 122 1 89 0;
#X connect 123 0 108 0;
#X coords 0 -1 1 1 101 101 2 1200 400;
