#N canvas 827 239 527 327 12;
#N canvas 0 22 450 300 labelParams 1;
#X msg 319 140 size \$1;
#X obj 539 240 pack 100 60, f 31;
#X msg 539 270 vis_size \$1 \$2;
#X msg 909 270 label_font \$1 \$2;
#X text 1061 36 type;
#X obj 1019 80 vradio 15 1 0 3 empty empty empty 0 -8 0 10 #fcfcfc #000000 #000000 0;
#X text 1035 78 DejaVu Sans Mono;
#X text 1035 93 Helvetica;
#X text 1036 108 Times;
#X msg 1249 270 label_pos \$1 \$2;
#X text 1399 39 x;
#X text 1485 38 y;
#X obj 1249 240 pack 17 20, f 17;
#X obj 909 240 pack 0 25, f 33;
#X msg 1539 130 label \$1;
#X msg 1779 241 color \$1 \$2 \$3;
#X obj 1779 210 pack 1 22 22, f 14;
#X text 1868 12 Color Presets (0-29):;
#X obj 29 40 inlet;
#X obj 13 40 cnv 14 14 14 empty empty 0 4 8 0 12 #606060 #dcdcdc 0;
#X obj 657 40 inlet;
#X obj 449 40 inlet;
#X obj 782 40 inlet;
#X obj 432 40 cnv 14 14 14 empty empty 2 4 8 0 12 #606060 #dcdcdc 0;
#X obj 641 40 cnv 14 14 14 empty empty 3 4 8 0 12 #606060 #dcdcdc 0;
#X obj 1150 38 inlet;
#X obj 1018 38 inlet;
#X obj 1359 40 inlet;
#X obj 767 40 cnv 14 14 14 empty empty 4 4 8 0 12 #606060 #dcdcdc 0;
#X obj 1002 38 cnv 14 14 14 empty empty 5 4 8 0 12 #606060 #dcdcdc 0;
#X obj 1132 38 cnv 14 14 14 empty empty 6 4 8 0 12 #606060 #dcdcdc 0;
#X text 309 18 Size;
#X text 699 18 Visible Size;
#X text 1064 13 Label Font;
#X text 1349 9 Label Offset, f 11;
#X obj 1445 40 inlet;
#X obj 1342 40 cnv 14 14 14 empty empty 7 4 8 0 12 #606060 #dcdcdc 0;
#X obj 1671 40 inlet;
#X obj 1428 40 cnv 14 14 14 empty empty 8 4 8 0 12 #606060 #dcdcdc 0;
#X text 1655 13 Label Text;
#X obj 1889 40 inlet;
#X obj 1656 40 cnv 14 14 14 empty empty 9 4 8 0 12 #606060 #dcdcdc 0;
#X obj 1989 40 inlet;
#X obj 1872 40 cnv 14 14 14 empty empty 10 0 8 0 12 #606060 #dcdcdc 0;
#X text 19 8 Canvas Name;
#X obj 1973 40 cnv 14 14 14 empty empty 11 0 8 0 12 #606060 #dcdcdc 0;
#X obj 319 110 f, f 20;
#X text 697 38 width/x;
#X text 823 38 height/y;
#X obj 749 200 f, f 6;
#X obj 539 157 t f b;
#X obj 539 110 f, f 18;
#X obj 909 140 f, f 17;
#X obj 909 170 t f b;
#X obj 1126 210 f;
#X obj 1249 150 t f b;
#X obj 1423 190 f;
#X obj 1249 120 f, f 17;
#X obj 1539 100 symbol, f 20;
#X obj 29 330 send;
#X obj 29 130 t b s, f 20;
#X obj 158 180 s canvasName_\$0;
#X obj 179 270 r canvasName_\$0;
#X obj 29 180 s getParams_\$0;
#X obj 29 270 r setParams_\$0;
#X obj 169 270 cnv 7 9 14 empty empty R 1 7 0 10 #fface3 #000000 0;
#X obj 19 270 cnv 7 9 14 empty empty R 1 7 0 10 #a1e0ff #000000 0;
#X obj 309 80 cnv 7 9 14 empty empty R 1 7 0 10 #c4fcc4 #000000 0;
#X obj 148 180 cnv 7 9 14 empty empty S 1 7 0 10 #fface3 #000000 0;
#X obj 309 170 cnv 7 9 14 empty empty S 1 7 0 10 #a1e0ff #000000 0;
#X obj 19 180 cnv 7 9 14 empty empty S 1 7 0 10 #c4fcc4 #000000 0;
#X obj 319 80 r getParams_\$0;
#X obj 319 170 s setParams_\$0;
#X obj 529 80 cnv 7 9 14 empty empty R 1 7 0 10 #c4fcc4 #000000 0;
#X obj 539 80 r getParams_\$0;
#X obj 529 300 cnv 7 9 14 empty empty S 1 7 0 10 #a1e0ff #000000 0;
#X obj 539 300 s setParams_\$0;
#X obj 899 80 cnv 7 9 14 empty empty R 1 7 0 10 #c4fcc4 #000000 0;
#X obj 909 80 r getParams_\$0;
#X obj 899 300 cnv 7 9 14 empty empty S 1 7 0 10 #a1e0ff #000000 0;
#X obj 909 300 s setParams_\$0;
#X text 1189 39 size;
#X obj 1239 70 cnv 7 9 14 empty empty R 1 7 0 10 #c4fcc4 #000000 0;
#X obj 1249 70 r getParams_\$0;
#X obj 1239 300 cnv 7 9 14 empty empty S 1 7 0 10 #a1e0ff #000000 0;
#X obj 1249 300 s setParams_\$0;
#X obj 1529 70 cnv 7 9 14 empty empty R 1 7 0 10 #c4fcc4 #000000 0;
#X obj 1539 70 r getParams_\$0;
#X obj 1529 160 cnv 7 9 14 empty empty S 1 7 0 10 #a1e0ff #000000 0;
#X obj 1539 160 s setParams_\$0;
#X obj 1966 180 f;
#X obj 1779 150 t f b;
#X obj 1779 120 f, f 17;
#X obj 1769 90 cnv 7 9 14 empty empty R 1 7 0 10 #c4fcc4 #000000 0;
#X obj 1779 90 r getParams_\$0;
#X obj 1769 270 cnv 7 9 14 empty empty S 1 7 0 10 #a1e0ff #000000 0;
#X obj 1779 270 s setParams_\$0;
#X text 1929 39 bg;
#X text 2029 39 label;
#X obj 29 99 pipe s 1;
#X obj 169 69 print sym;
#X obj 29 66 prepend symbol;
#X obj 1649 69 prepend symbol;
#X connect 0 0 72 0;
#X connect 1 0 2 0;
#X connect 2 0 76 0;
#X connect 3 0 80 0;
#X connect 5 0 52 1;
#X connect 9 0 85 0;
#X connect 12 0 9 0;
#X connect 13 0 3 0;
#X connect 14 0 89 0;
#X connect 15 0 96 0;
#X connect 16 0 15 0;
#X connect 18 0 101 0;
#X connect 20 0 51 1;
#X connect 21 0 46 1;
#X connect 22 0 49 1;
#X connect 25 0 54 1;
#X connect 26 0 5 0;
#X connect 27 0 57 1;
#X connect 35 0 56 1;
#X connect 37 0 102 0;
#X connect 40 0 92 1;
#X connect 42 0 90 1;
#X connect 46 0 0 0;
#X connect 49 0 1 1;
#X connect 50 0 1 0;
#X connect 50 1 49 0;
#X connect 51 0 50 0;
#X connect 52 0 53 0;
#X connect 53 0 13 0;
#X connect 53 1 54 0;
#X connect 54 0 13 1;
#X connect 55 0 12 0;
#X connect 55 1 56 0;
#X connect 56 0 12 1;
#X connect 57 0 55 0;
#X connect 58 0 14 0;
#X connect 60 0 63 0;
#X connect 60 1 61 0;
#X connect 62 0 59 1;
#X connect 64 0 59 0;
#X connect 71 0 46 0;
#X connect 74 0 51 0;
#X connect 78 0 52 0;
#X connect 83 0 57 0;
#X connect 87 0 58 0;
#X connect 90 0 16 2;
#X connect 91 0 16 0;
#X connect 91 1 90 0;
#X connect 92 0 91 0;
#X connect 94 0 92 0;
#X connect 99 0 60 0;
#X connect 101 0 99 0;
#X connect 101 0 100 0;
#X connect 102 0 58 1;
#X restore 319 219 pd labelParams;
#X f 60;
#X obj 319 189 route name size visSzX visSzY lblFnt lblSz lblOffStX lblOffStY text bgClr lblClr, f 66;
#X obj 319 159 inlet;
#X connect 1 0 0 0;
#X connect 1 1 0 1;
#X connect 1 2 0 2;
#X connect 1 3 0 3;
#X connect 1 4 0 4;
#X connect 1 5 0 5;
#X connect 1 6 0 6;
#X connect 1 7 0 7;
#X connect 1 8 0 8;
#X connect 1 9 0 9;
#X connect 1 10 0 10;
#X connect 2 0 1 0;
