#N canvas 844 222 687 543 10;
#X obj 130 292 outlet~;
#X obj 382 133 hsl 64 15 0 1 0 0 empty empty empty -2 -8 0 10 #fcfcfc #000000 #000000 0 1;
#X floatatom 395 162 5 0 0 0 - - - 0;
#X obj 99 253 *~;
#X obj 380 181 - 1;
#X floatatom 397 228 5 0 0 0 - - - 0;
#X obj 380 203 * -1;
#X obj 177 253 *~;
#X text 47 252 Dry Sig;
#X text 126 252 Wet Sig;
#X obj 379 46 inlet dry_wet_ctrl;
#X obj 99 39 inlet~ dry;
#X obj 177 39 inlet~ wet;
#X connect 1 0 2 0;
#X connect 1 0 4 0;
#X connect 1 0 7 1;
#X connect 3 0 0 0;
#X connect 4 0 6 0;
#X connect 6 0 5 0;
#X connect 6 0 3 1;
#X connect 7 0 0 0;
#X connect 10 0 1 0;
#X connect 11 0 3 0;
#X connect 12 0 7 0;
