#N canvas 354 38 1158 731 10;
#X obj 448 105 inlet;
#X obj 448 230 outlet;
#X obj 449 139 t b f, f 12;
#X obj 449 199 /, f 13;
#X obj 449 169 f 60000;
#X connect 0 0 2 0;
#X connect 2 0 4 0;
#X connect 2 1 3 1;
#X connect 3 0 1 0;
#X connect 4 0 3 0;
