#N canvas 1513 25 2560 1387 10;
#X obj 38 645 *~ 0.125;
#X obj 38 670 rzero~ -1;
#X obj 38 695 rzero~ -1;
#X obj 38 720 rzero~ -1;
#X obj 889 616 block~ 1024 1 16;
#X obj 38 744 outlet~;
#X obj 38 435 rpole~ 0.87467;
#X obj 38 379 *~ 0.12532;
#X obj 38 501 *~ 0.01668;
#X obj 458 455 / 16;
#X floatatom 458 758 7 0 0 0 - - - 0;
#X floatatom 473 716 7 0 0 0 - - - 0;
#X floatatom 488 674 7 0 0 0 - - - 0;
#X floatatom 503 632 7 0 0 0 - - - 0;
#X floatatom 518 590 7 0 0 0 - - - 0;
#X floatatom 533 548 7 0 0 0 - - - 0;
#X text 514 759 normalizer for rpole~;
#X text 531 716 normalizer for cpole~;
#X text 546 675 coef for rpole~;
#X text 562 634 coef for cpole~ real part;
#X text 570 590 coef for cpole~ imag part;
#X obj 38 548 cpole~ 0.9293 0.10812;
#X obj 38 614 cpole~ 0.9293 -0.10812;
#X text 358 355 desired cutoff frequency, f 15;
#X text 49 299 These objects make a 3-pole \, 3-zero Butterworth low-pass filter with cutoff at 15kHz (assuming 16x44100 sample rate). The filter was designed using the "buttercoef3" abstraction introduced in patch H13.butterworth.pd in this series.;
#X obj 458 430 / 22050;
#X text 121 376 Normalizer for rpole~;
#X text 149 435 coef for rpole~;
#N canvas 2140 386 1013 798 buttercoef 0;
#X obj 119 96 inlet;
#X floatatom 582 159 5 0 0 0 - - - 0;
#X obj 159 199 t f f, f 7;
#X msg 159 151 0.667;
#X msg 139 329 0;
#X obj 575 316 loadbang;
#X obj 586 344 inlet;
#X obj 575 368 f;
#X obj 575 392 expr 1 - 2*$f1;
#X obj 119 124 t b b b f;
#X obj 266 277 * -1;
#X obj 221 277 t f f;
#X obj 119 437 f;
#X obj 66 533 outlet;
#X text 573 283 1 to normalize at Nyquist;
#X text 115 75 characteristic frequency \, 0(DC) to 1(Nyquist);
#X obj 341 533 outlet;
#X obj 497 533 outlet;
#X text 497 557 imag2a;
#X text 341 557 real1;
#X text 432 557 real2;
#X obj 558 533 outlet;
#X text 558 557 imag2b;
#X obj 431 533 outlet;
#X text 63 557 normalizer1;
#X obj 231 533 outlet;
#X text 228 557 normalizer2;
#X obj 231 482 expr (($f2-$f1)*($f2-$f1)+$f3*$f3);
#X obj 119 458 t f f;
#X obj 159 222 expr (1 - $f2*$f2) / (1 + $f2*$f2 + 2*$f2*cos($f1));
#X obj 221 250 expr 2*$f2*sin($f1) / (1 + $f2*$f2 + 2*$f2*cos($f1));
#X obj 139 353 expr (1 - $f2*$f2) / (1 + $f2*$f2 + 2*$f2*cos($f1));
#X obj 582 114 clip 0 1;
#X obj 582 136 expr tan($f1*1.57);
#X obj 159 176 expr $f1*1.5708;
#X text 573 297 0 to normalize at DC;
#X text 175 23 3-pole (or zero) Butterworth filter coefficient calculator;
#X text 203 152 "theta" in units of pi/2;
#X text 269 183 conjugate pair of pole/zero locations:;
#X text 255 200 real part: (1-r*r)/(1+r*r-2rcos(th));
#X text 306 275 imaginary part: 2rsin(th)/(...);
#X text 328 328 real-valued one \, theta=0;
#X obj 66 505 expr abs($f1-$f2);
#X connect 0 0 9 0;
#X connect 1 0 29 1;
#X connect 1 0 30 1;
#X connect 1 0 31 1;
#X connect 2 0 29 0;
#X connect 2 1 30 0;
#X connect 3 0 34 0;
#X connect 4 0 31 0;
#X connect 5 0 7 0;
#X connect 6 0 7 0;
#X connect 7 0 8 0;
#X connect 8 0 12 1;
#X connect 9 0 12 0;
#X connect 9 1 4 0;
#X connect 9 2 3 0;
#X connect 9 3 32 0;
#X connect 10 0 21 0;
#X connect 11 0 17 0;
#X connect 11 0 27 2;
#X connect 11 1 10 0;
#X connect 12 0 28 0;
#X connect 27 0 25 0;
#X connect 28 0 42 0;
#X connect 28 1 27 0;
#X connect 29 0 23 0;
#X connect 29 0 27 1;
#X connect 30 0 11 0;
#X connect 31 0 16 0;
#X connect 31 0 42 1;
#X connect 32 0 33 0;
#X connect 33 0 1 0;
#X connect 34 0 2 0;
#X connect 42 0 13 0;
#X restore 458 521 pd buttercoef;
#X text 195 547 coef for cpole~ real part + coef for cpole imag part, f 26;
#X obj 567 359 samplerate~;
#X obj 458 281 loadbang;
#X obj 567 380 / 16;
#X text 595 381 Account for oversampling, f 12;
#X text 116 502 Normalizer for cpole~;
#X obj 458 776 s \$0-rpoleNorm;
#X obj 473 736 s \$0-cpoleNorm;
#X obj 488 694 s \$0-rpoleCoef;
#X obj 503 652 s \$0-cpoleReal;
#X text 583 547 coef for 2nd cpole~ imag part;
#X text 202 613 coef for cpole~ real part + coef for 2nd cpole imag part, f 21;
#X obj 518 610 s \$0-cpoleImag1;
#X obj 533 568 s \$0-cpoleImag2;
#X obj 95 355 r \$0-rpoleNorm;
#X obj 119 408 r \$0-rpoleCoef;
#X obj 95 478 r \$0-cpoleNorm;
#X obj 120 524 r \$0-cpoleReal;
#X obj 224 524 r \$0-cpoleImag1;
#X obj 124 590 r \$0-cpoleReal;
#X obj 219 590 r \$0-cpoleImag2;
#X obj 567 402 / 2;
#N canvas 2374 217 719 510 argDefaultF 0;
#X obj 213 103 == 0;
#X obj 264 47 t f f;
#X obj 213 139 sel 1 0;
#X obj 278 176 f;
#X obj 213 222 outlet;
#X obj 211 176 cnv 15 35 20 empty empty empty 0 8 0 14 #c4c4fc #404040 0;
#X text 56 133 Yes \, use the default \, else use the argument, f 21;
#X text 93 177 Set DEFAULT here;
#X obj 249 16 cnv 14 14 14 empty empty 0 4 8 0 12 #606060 #dcdcdc 0;
#X obj 200 222 cnv 14 14 14 empty empty 0 4 8 0 12 #606060 #dcdcdc 0;
#X text 24 83 Check if argument is 0 (if no argument is supplied \, the argument variable will output "0"), f 29;
#X obj 447 14 inlet;
#X obj 432 14 cnv 14 14 14 empty empty 0 4 8 0 12 #606060 #dcdcdc 0;
#X text 36 17 Use [loadbang]-> [f $#] to send the argument value into this subpatch, f 32;
#X obj 264 16 inlet argument;
#X text 338 109 ( <-- Can't use [send] or [receive] because a patch might have multiple versions of this subpatch \, and the unique ID sends/receives are SHARED FOR SUBPATCHES);
#X obj 213 177 f 20000;
#X connect 0 0 2 0;
#X connect 1 0 0 0;
#X connect 1 1 3 1;
#X connect 2 0 16 0;
#X connect 2 1 3 0;
#X connect 3 0 4 0;
#X connect 11 0 16 1;
#X connect 14 0 1 0;
#X connect 16 0 4 0;
#X restore 458 380 pd argDefaultF;
#X obj 458 334 t b b;
#X text 385 381 Default cutoff is 20000 Hz, f 10;
#X text 496 175 Calculate the filter coefficients:;
#X text 21 48 Travis Houldcroft || travishouldcroft.com;
#X obj 4 2 cnv 15 1400 40 empty \$0-abstrPatchTitleBar tdh.util.antiAliasFilter~ 9 20 0 18 #3c50fc #a0a0a0 0;
#X obj 4 75 cnv 2 1400 2 empty \$0-abstrPatchSecDivider empty 9 20 0 18 #a0a0a0 #202020 0;
#N canvas 856 293 656 414 abstr-init 0;
#X obj 3 21 cnv 5 5 5 empty empty | 0 0 0 14 #fcfcfc #404040 0;
#X obj 215 126 loadbang;
#X obj 215 152 del 10;
#N canvas 1280 23 1414 755 abstr-cnv-set 0;
#X text 121 406 \$0-abstrPatchSecDivider;
#X text 120 1003 \$0-abstrPatchSecLabelNotes;
#X text 120 1139 \$0-abstrPatchSecLabelRevHist;
#N canvas 1440 23 349 258 canvas-ctrl 0;
#X obj 291 1 inlet;
#N canvas 1440 270 1089 459 graph 0;
#X floatatom 180 241 5 0 0 0 Lbl-Sz - - 0;
#X floatatom 273 241 5 0 29 0 Lbl-Clr - - 0;
#N canvas 32 23 1408 389 label-properties 0;
#X floatatom 314 72 3 18 100 0 - - - 0;
#X msg 314 99 size \$1;
#X obj 400 121 pack 100 60, f 18;
#X obj 491 93 t b f;
#X floatatom 491 68 4 18 100 0 - - - 0;
#X floatatom 400 68 4 18 100 0 - - - 0;
#X msg 400 148 vis_size \$1 \$2;
#X text 442 41 w/x;
#X text 532 41 h/y;
#X floatatom 589 116 4 0 3 0 - - - 0;
#X obj 721 135 t b f;
#X floatatom 721 116 5 5 50 0 - - - 0;
#X msg 589 185 label_font \$1 \$2;
#X text 632 41 type;
#X text 760 40 size;
#X obj 589 64 vradio 15 1 0 3 empty empty empty 0 -8 0 10 #fcfcfc #000000 #000000 0;
#X text 605 63 DejaVu Sans Mono;
#X text 605 78 Helvetica;
#X text 606 93 Times;
#X floatatom 817 71 4 -100 250 0 - - - 0;
#X obj 889 98 t b f;
#X floatatom 889 71 5 -150 150 0 - - - 0;
#X msg 817 148 label_pos \$1 \$2;
#X text 856 41 x;
#X text 929 41 y;
#X obj 817 126 pack 17 20, f 17;
#X obj 589 164 pack 0 25, f 24;
#X msg 973 129 label \$1;
#X floatatom 1191 70 3 0 29 1 bgColor - - 0;
#X floatatom 1295 70 3 0 29 1 lblColor - - 0;
#X obj 1295 92 t b f;
#X msg 1191 145 color \$1 \$2 \$3;
#X obj 1191 124 pack 1 22 22, f 14;
#X text 1170 18 Color Presets (0-29):;
#X obj 24 42 inlet;
#X obj 8 42 cnv 14 14 14 empty empty 0 4 8 0 12 #606060 #dcdcdc 0;
#X symbolatom 24 210 10 0 0 0 - - - 0;
#X obj 588 330 send, f 13;
#X obj 400 42 inlet;
#X obj 314 42 inlet;
#X obj 491 42 inlet;
#X obj 155 42 cnv 14 14 14 empty empty 1 4 8 0 12 #606060 #dcdcdc 0;
#X obj 297 42 cnv 14 14 14 empty empty 2 4 8 0 12 #606060 #dcdcdc 0;
#X obj 384 42 cnv 14 14 14 empty empty 3 4 8 0 12 #606060 #dcdcdc 0;
#X obj 721 42 inlet;
#X obj 589 42 inlet;
#X obj 817 42 inlet;
#X obj 476 42 cnv 14 14 14 empty empty 4 4 8 0 12 #606060 #dcdcdc 0;
#X obj 573 42 cnv 14 14 14 empty empty 5 4 8 0 12 #606060 #dcdcdc 0;
#X obj 703 42 cnv 14 14 14 empty empty 6 4 8 0 12 #606060 #dcdcdc 0;
#X text 315 18 Size;
#X text 421 18 Visible Size;
#X text 635 18 Label Font;
#X text 824 18 Label Offset;
#X obj 889 42 inlet;
#X obj 800 42 cnv 14 14 14 empty empty 7 4 8 0 12 #606060 #dcdcdc 0;
#X msg 1052 89 symbol my\ label;
#X symbolatom 973 92 10 0 0 0 - - - 0;
#X obj 973 42 inlet;
#X obj 872 42 cnv 14 14 14 empty empty 8 4 8 0 12 #606060 #dcdcdc 0;
#X msg 973 70 symbol \$1;
#X text 1007 18 Label Text;
#X obj 1191 42 inlet;
#X obj 958 42 cnv 14 14 14 empty empty 9 4 8 0 12 #606060 #dcdcdc 0;
#X obj 1295 42 inlet;
#X obj 1174 42 cnv 14 14 14 empty empty 10 0 8 0 12 #606060 #dcdcdc 0;
#X text 0 18 Canvas Name;
#X obj 284 2 cnv 5 1 260 empty empty empty 20 12 0 14 #7c7c7c #404040 0;
#X obj 738 322 cnv 2 1400 40 empty \$0-test_canvas tdh.util.antiAliasFilter~ 20 15 0 16 #a0a0a0 #202020 0;
#X obj 415 328 s \$0-test_canvas;
#X obj 210 187 spigot;
#X obj 170 88 tgl 15 0 empty empty empty 17 7 0 10 #fcfcfc #000000 #000000 0 1;
#X obj 249 134 == 1;
#X obj 101 135 == 0;
#X obj 144 134 list append \$0;
#X msg 144 157 symbol \$2-\$1;
#X msg 24 136 symbol \$1;
#X obj 24 167 spigot;
#X obj 170 42 inlet;
#X obj 1279 42 cnv 14 14 14 empty empty 11 0 8 0 12 #606060 #dcdcdc 0;
#X text 136 18 Add "\$0" option;
#X obj 374 2 cnv 5 1 260 empty empty empty 20 12 0 14 #7c7c7c #404040 0;
#X obj 561 2 cnv 5 1 260 empty empty empty 20 12 0 14 #7c7c7c #404040 0;
#X obj 791 2 cnv 5 1 260 empty empty empty 20 12 0 14 #7c7c7c #404040 0;
#X obj 944 2 cnv 5 1 260 empty empty empty 20 12 0 14 #7c7c7c #404040 0;
#X obj 1164 2 cnv 5 1 260 empty empty empty 20 12 0 14 #7c7c7c #404040 0;
#X connect 0 0 1 0;
#X connect 1 0 37 0;
#X connect 1 0 69 0;
#X connect 2 0 6 0;
#X connect 3 0 2 0;
#X connect 3 1 2 1;
#X connect 4 0 3 0;
#X connect 5 0 2 0;
#X connect 6 0 37 0;
#X connect 6 0 69 0;
#X connect 9 0 26 0;
#X connect 10 0 26 0;
#X connect 10 1 26 1;
#X connect 11 0 10 0;
#X connect 12 0 37 0;
#X connect 12 0 69 0;
#X connect 15 0 9 0;
#X connect 19 0 25 0;
#X connect 20 0 25 0;
#X connect 20 1 25 1;
#X connect 21 0 20 0;
#X connect 22 0 37 0;
#X connect 22 0 69 0;
#X connect 25 0 22 0;
#X connect 26 0 12 0;
#X connect 27 0 37 0;
#X connect 27 0 69 0;
#X connect 28 0 32 0;
#X connect 29 0 30 0;
#X connect 30 0 32 0;
#X connect 30 1 32 2;
#X connect 31 0 37 0;
#X connect 31 0 69 0;
#X connect 32 0 31 0;
#X connect 34 0 74 0;
#X connect 34 0 76 0;
#X connect 36 0 37 1;
#X connect 38 0 5 0;
#X connect 39 0 0 0;
#X connect 40 0 4 0;
#X connect 44 0 11 0;
#X connect 45 0 15 0;
#X connect 46 0 19 0;
#X connect 54 0 21 0;
#X connect 56 0 27 0;
#X connect 57 0 27 0;
#X connect 58 0 60 0;
#X connect 60 0 57 0;
#X connect 62 0 28 0;
#X connect 64 0 29 0;
#X connect 70 0 36 0;
#X connect 71 0 72 0;
#X connect 71 0 73 0;
#X connect 72 0 70 1;
#X connect 73 0 77 1;
#X connect 74 0 75 0;
#X connect 75 0 70 0;
#X connect 76 0 77 0;
#X connect 77 0 36 0;
#X connect 78 0 71 0;
#X restore 6 354 pd label-properties;
#X f 45;
#X floatatom 273 219 5 0 29 0 BG-Clr - - 0;
#X floatatom 180 174 5 0 0 0 Vis-Sz-W - - 0;
#X floatatom 181 198 5 0 0 0 Vis-Sz-H - - 0;
#X floatatom 271 150 5 0 0 0 Lbl-X - - 0;
#X floatatom 272 174 5 0 0 0 Lbl-Y - - 0;
#X floatatom 180 150 5 0 0 0 Size - - 0;
#X symbolatom 214 127 10 0 0 0 CnvReceiveSymbol - - 0;
#X floatatom 181 219 5 0 2 0 Lbl-Fon - - 0;
#X symbolatom 274 195 10 0 0 0 Lbl-Txt - - 0;
#X obj 295 128 tgl 15 0 empty empty Append_0 20 7 0 10 #fcfcfc #fc8000 #000000 0 1;
#X text 194 103 Label Properties;
#X obj 28 18 inlet;
#X obj 414 223 cnv 15 500 30 empty \$0-myCanvas This\ is\ my\ label? 9 13 0 18 #e0e0e0 #606060 0;
#X obj 28 54 route doll rec size visw vish lblfon lblsz lblx lbly bgclr lblclr, f 66;
#X obj 56 93 symbol;
#X text 6 4 _;
#X text 479 173 dollarsign0-myCanvas;
#X msg 74 18 doll 1 \, rec myCanvas \, size 15 \, visw 50 \, vish 60 \, lblfon 0 \, lblsz 18 \, lblx 9 \, lbly 13 \, bgclr 10 \, lblclr 21, f 106;
#N canvas 240 66 752 410 \$0-how-to-set-values-externally 0;
#X text 112 49 doll [0/1] - toggle on appending "\$0-" at the start of the recieve symbol, f 85;
#X text 112 102 visw [float] - the visible width of the canvas in pixels, f 85;
#X text 112 85 size [float] - the size of the clickable/dragable portion of the canvas in pixels, f 85;
#X text 112 122 vish [float] - the visible height of the canvas in pixels, f 85;
#X text 111 141 lblfon [0/1/2] - font designation for the canvas' label \, with [0] for Menlo \, [1] for, f 89;
#X text 131 155 Helvetica \, [2] for Times. Note that these fonts may be different on Windows or Linux, f 84;
#X text 111 173 lblsz [float] - font size designation for the canvas' label, f 85;
#X text 111 213 lbly [float] - y offset in pixels from the top left corner of the canvas, f 85;
#X text 111 193 lblx [float] - x offset (horizontal) in pixels from the top left corner of the canvas, f 85;
#X text 4 29 To set the values for your canvas object externally \, send messages with the following signifiers to the 0 (leftmost) inlet:, f 124;
#X msg 31 336 doll 1 \, rec myCanvas \, size 15 \, visw 500 \, vish 30 \, lblfon 0 \, lblsz 18 \, lblx 9 \, lbly 13 \, bgclr 10 \, lblclr 21, f 106;
#X text 111 67 rec [symbol] - receive symbol for the canvas, f 85;
#X obj 90 241 cnv 5 5 5 empty \$0-canvas-format-helper-boldstatement1 Please\ note\ that\ the\ $-0\ designation\ (1\ or\ 0)\ MUST\ be\ sent\ first\,\ followed\ by\ the\ canvas\  1 9 0 12 #fcfcfc #fc0400 0;
#N canvas 2423 143 808 250 init 0;
#X msg 30 102 label \$1;
#X msg 419 120 label \$1;
#X obj 29 147 s \$0-canvas-format-helper-boldstatement1;
#X obj 418 164 s \$0-canvas-format-helper-boldstatement2;
#X obj 233 15 loadbang;
#X msg 420 51 symbol receive\ symbol!\ Failure\ to\ do\ so\ will\ cause\ incorrect\ parameter\ dispatching!;
#X msg 26 43 symbol Please\\\ note\\\ that\\\ the\\\ $-0\\\ designation\\\ (1\\\ or\\\ 0)\\\ MUST\\\ be\\\ sent\\\ first\\\,\\\ followed\\\ by\\\ the\\\ canvas\\\ ;
#X connect 0 0 2 0;
#X connect 1 0 3 0;
#X connect 4 0 5 0;
#X connect 4 0 6 0;
#X connect 5 0 1 0;
#X connect 6 0 0 0;
#X restore 659 9 pd init;
#X obj 90 257 cnv 5 5 5 empty \$0-canvas-format-helper-boldstatement2 receive\ symbol!\ Failure\ to\ do\ so\ will\ cause\ incorrect\ parameter\ dispatching! 1 9 0 12 #fcfcfc #fc0400 0;
#X msg 112 362 symbol this\ is\ my\ label!;
#X text 296 357 The label parameter must be sent separately to Inlet 1 (rightmost inlet). The message must be prepended with the "symbol" identifier \, and the escape character () needs to be set in the message:, f 68;
#X text 102 286 All parameters EXCEPT label can be sent in a single message to Inlet 0 (leftmost inlet) like below (and this can be copied and pasted for easy initializing formatting)., f 89;
#X restore 326 378 pd \$0-how-to-set-values-externally;
#X msg 326 336 vis 1;
#X obj 326 357 s pd-\$0-how-to-set-values-externally;
#X obj 120 263 bng 15 250 50 0 empty empty empty 17 7 0 10 #fcfcfc #000000 #000000;
#X text 141 263 How to set canvas values externally;
#X text 891 18 All left-inlet messages;
#X text 984 47 Label text;
#X msg 636 48 symbol This\ is\ my\ label?;
#X obj 587 47 inlet;
#X obj 632 184 cnv 5 5 5 empty empty ↴ -3 3 0 24 #fcfcfc #606060 0;
#X connect 0 0 2 6;
#X connect 1 0 2 11;
#X connect 3 0 2 10;
#X connect 4 0 2 3;
#X connect 5 0 2 4;
#X connect 6 0 2 7;
#X connect 7 0 2 8;
#X connect 8 0 2 2;
#X connect 9 0 2 0;
#X connect 10 0 2 5;
#X connect 11 0 2 9;
#X connect 12 0 2 1;
#X connect 14 0 16 0;
#X connect 16 0 12 0;
#X connect 16 1 17 0;
#X connect 16 2 8 0;
#X connect 16 3 4 0;
#X connect 16 4 5 0;
#X connect 16 5 10 0;
#X connect 16 6 0 0;
#X connect 16 7 6 0;
#X connect 16 8 7 0;
#X connect 16 9 3 0;
#X connect 16 10 1 0;
#X connect 17 0 9 0;
#X connect 20 0 16 0;
#X connect 22 0 23 0;
#X connect 24 0 22 0;
#X connect 28 0 11 0;
#X connect 29 0 11 0;
#X coords 0 -1 1 1 300 190 2 100 100;
#X restore 25 27 pd graph;
#X obj 25 1 inlet;
#X connect 0 0 1 1;
#X connect 2 0 1 0;
#X restore 343 345 pd canvas-ctrl;
#N canvas 673 23 349 258 canvas-ctrl 0;
#X obj 291 1 inlet;
#N canvas 248 270 1089 459 graph 0;
#X floatatom 180 241 5 0 0 0 Lbl-Sz - - 0;
#X floatatom 273 241 5 0 29 0 Lbl-Clr - - 0;
#N canvas 32 23 1408 389 label-properties 0;
#X floatatom 314 72 3 18 100 0 - - - 0;
#X msg 314 99 size \$1;
#X obj 400 121 pack 100 60, f 18;
#X obj 491 93 t b f;
#X floatatom 491 68 4 18 100 0 - - - 0;
#X floatatom 400 68 4 18 100 0 - - - 0;
#X msg 400 148 vis_size \$1 \$2;
#X text 442 41 w/x;
#X text 532 41 h/y;
#X floatatom 589 116 4 0 3 0 - - - 0;
#X obj 721 135 t b f;
#X floatatom 721 116 5 5 50 0 - - - 0;
#X msg 589 185 label_font \$1 \$2;
#X text 632 41 type;
#X text 760 40 size;
#X obj 589 64 vradio 15 1 0 3 empty empty empty 0 -8 0 10 #fcfcfc #000000 #000000 0;
#X text 605 63 DejaVu Sans Mono;
#X text 605 78 Helvetica;
#X text 606 93 Times;
#X floatatom 817 71 4 -100 250 0 - - - 0;
#X obj 889 98 t b f;
#X floatatom 889 71 5 -150 150 0 - - - 0;
#X msg 817 148 label_pos \$1 \$2;
#X text 856 41 x;
#X text 929 41 y;
#X obj 817 126 pack 17 20, f 17;
#X obj 589 164 pack 0 25, f 24;
#X msg 973 129 label \$1;
#X floatatom 1191 70 3 0 29 1 bgColor - - 0;
#X floatatom 1295 70 3 0 29 1 lblColor - - 0;
#X obj 1295 92 t b f;
#X msg 1191 145 color \$1 \$2 \$3;
#X obj 1191 124 pack 1 22 22, f 14;
#X text 1170 18 Color Presets (0-29):;
#X obj 24 42 inlet;
#X obj 8 42 cnv 14 14 14 empty empty 0 4 8 0 12 #606060 #dcdcdc 0;
#X symbolatom 24 210 10 0 0 0 - - - 0;
#X obj 588 330 send, f 13;
#X obj 400 42 inlet;
#X obj 314 42 inlet;
#X obj 491 42 inlet;
#X obj 155 42 cnv 14 14 14 empty empty 1 4 8 0 12 #606060 #dcdcdc 0;
#X obj 297 42 cnv 14 14 14 empty empty 2 4 8 0 12 #606060 #dcdcdc 0;
#X obj 384 42 cnv 14 14 14 empty empty 3 4 8 0 12 #606060 #dcdcdc 0;
#X obj 721 42 inlet;
#X obj 589 42 inlet;
#X obj 817 42 inlet;
#X obj 476 42 cnv 14 14 14 empty empty 4 4 8 0 12 #606060 #dcdcdc 0;
#X obj 573 42 cnv 14 14 14 empty empty 5 4 8 0 12 #606060 #dcdcdc 0;
#X obj 703 42 cnv 14 14 14 empty empty 6 4 8 0 12 #606060 #dcdcdc 0;
#X text 315 18 Size;
#X text 421 18 Visible Size;
#X text 635 18 Label Font;
#X text 824 18 Label Offset;
#X obj 889 42 inlet;
#X obj 800 42 cnv 14 14 14 empty empty 7 4 8 0 12 #606060 #dcdcdc 0;
#X msg 1052 89 symbol my\ label;
#X symbolatom 973 92 10 0 0 0 - - - 0;
#X obj 973 42 inlet;
#X obj 872 42 cnv 14 14 14 empty empty 8 4 8 0 12 #606060 #dcdcdc 0;
#X msg 973 70 symbol \$1;
#X text 1007 18 Label Text;
#X obj 1191 42 inlet;
#X obj 958 42 cnv 14 14 14 empty empty 9 4 8 0 12 #606060 #dcdcdc 0;
#X obj 1295 42 inlet;
#X obj 1174 42 cnv 14 14 14 empty empty 10 0 8 0 12 #606060 #dcdcdc 0;
#X text 0 18 Canvas Name;
#X obj 284 2 cnv 5 1 260 empty empty empty 20 12 0 14 #7c7c7c #404040 0;
#X obj 738 322 cnv 2 1400 40 empty \$0-test_canvas tdh.util.antiAliasFilter~ 20 15 0 16 #a0a0a0 #202020 0;
#X obj 415 328 s \$0-test_canvas;
#X obj 210 187 spigot;
#X obj 170 88 tgl 15 0 empty empty empty 17 7 0 10 #fcfcfc #000000 #000000 0 1;
#X obj 249 134 == 1;
#X obj 101 135 == 0;
#X obj 144 134 list append \$0;
#X msg 144 157 symbol \$2-\$1;
#X msg 24 136 symbol \$1;
#X obj 24 167 spigot;
#X obj 170 42 inlet;
#X obj 1279 42 cnv 14 14 14 empty empty 11 0 8 0 12 #606060 #dcdcdc 0;
#X text 136 18 Add "\$0" option;
#X obj 374 2 cnv 5 1 260 empty empty empty 20 12 0 14 #7c7c7c #404040 0;
#X obj 561 2 cnv 5 1 260 empty empty empty 20 12 0 14 #7c7c7c #404040 0;
#X obj 791 2 cnv 5 1 260 empty empty empty 20 12 0 14 #7c7c7c #404040 0;
#X obj 944 2 cnv 5 1 260 empty empty empty 20 12 0 14 #7c7c7c #404040 0;
#X obj 1164 2 cnv 5 1 260 empty empty empty 20 12 0 14 #7c7c7c #404040 0;
#X connect 0 0 1 0;
#X connect 1 0 37 0;
#X connect 1 0 69 0;
#X connect 2 0 6 0;
#X connect 3 0 2 0;
#X connect 3 1 2 1;
#X connect 4 0 3 0;
#X connect 5 0 2 0;
#X connect 6 0 37 0;
#X connect 6 0 69 0;
#X connect 9 0 26 0;
#X connect 10 0 26 0;
#X connect 10 1 26 1;
#X connect 11 0 10 0;
#X connect 12 0 37 0;
#X connect 12 0 69 0;
#X connect 15 0 9 0;
#X connect 19 0 25 0;
#X connect 20 0 25 0;
#X connect 20 1 25 1;
#X connect 21 0 20 0;
#X connect 22 0 37 0;
#X connect 22 0 69 0;
#X connect 25 0 22 0;
#X connect 26 0 12 0;
#X connect 27 0 37 0;
#X connect 27 0 69 0;
#X connect 28 0 32 0;
#X connect 29 0 30 0;
#X connect 30 0 32 0;
#X connect 30 1 32 2;
#X connect 31 0 37 0;
#X connect 31 0 69 0;
#X connect 32 0 31 0;
#X connect 34 0 74 0;
#X connect 34 0 76 0;
#X connect 36 0 37 1;
#X connect 38 0 5 0;
#X connect 39 0 0 0;
#X connect 40 0 4 0;
#X connect 44 0 11 0;
#X connect 45 0 15 0;
#X connect 46 0 19 0;
#X connect 54 0 21 0;
#X connect 56 0 27 0;
#X connect 57 0 27 0;
#X connect 58 0 60 0;
#X connect 60 0 57 0;
#X connect 62 0 28 0;
#X connect 64 0 29 0;
#X connect 70 0 36 0;
#X connect 71 0 72 0;
#X connect 71 0 73 0;
#X connect 72 0 70 1;
#X connect 73 0 77 1;
#X connect 74 0 75 0;
#X connect 75 0 70 0;
#X connect 76 0 77 0;
#X connect 77 0 36 0;
#X connect 78 0 71 0;
#X restore 6 354 pd label-properties;
#X f 45;
#X floatatom 273 219 5 0 29 0 BG-Clr - - 0;
#X floatatom 180 174 5 0 0 0 Vis-Sz-W - - 0;
#X floatatom 181 198 5 0 0 0 Vis-Sz-H - - 0;
#X floatatom 271 150 5 0 0 0 Lbl-X - - 0;
#X floatatom 272 174 5 0 0 0 Lbl-Y - - 0;
#X floatatom 180 150 5 0 0 0 Size - - 0;
#X symbolatom 214 127 10 0 0 0 CnvReceiveSymbol - - 0;
#X floatatom 181 219 5 0 2 0 Lbl-Fon - - 0;
#X symbolatom 274 195 10 0 0 0 Lbl-Txt - - 0;
#X obj 295 128 tgl 15 0 empty empty Append_0 20 7 0 10 #fcfcfc #fc8000 #000000 0 1;
#X text 194 103 Label Properties;
#X obj 28 18 inlet;
#X obj 414 223 cnv 15 500 30 empty \$0-myCanvas This\ is\ my\ label? 9 13 0 18 #e0e0e0 #606060 0;
#X obj 28 54 route doll rec size visw vish lblfon lblsz lblx lbly bgclr lblclr, f 66;
#X obj 56 93 symbol;
#X text 6 4 _;
#X text 479 173 dollarsign0-myCanvas;
#X msg 74 18 doll 1 \, rec myCanvas \, size 15 \, visw 50 \, vish 60 \, lblfon 0 \, lblsz 18 \, lblx 9 \, lbly 13 \, bgclr 10 \, lblclr 21, f 106;
#N canvas 240 66 752 410 \$0-how-to-set-values-externally 0;
#X text 112 49 doll [0/1] - toggle on appending "\$0-" at the start of the recieve symbol, f 85;
#X text 112 102 visw [float] - the visible width of the canvas in pixels, f 85;
#X text 112 85 size [float] - the size of the clickable/dragable portion of the canvas in pixels, f 85;
#X text 112 122 vish [float] - the visible height of the canvas in pixels, f 85;
#X text 111 141 lblfon [0/1/2] - font designation for the canvas' label \, with [0] for Menlo \, [1] for, f 89;
#X text 131 155 Helvetica \, [2] for Times. Note that these fonts may be different on Windows or Linux, f 84;
#X text 111 173 lblsz [float] - font size designation for the canvas' label, f 85;
#X text 111 213 lbly [float] - y offset in pixels from the top left corner of the canvas, f 85;
#X text 111 193 lblx [float] - x offset (horizontal) in pixels from the top left corner of the canvas, f 85;
#X text 4 29 To set the values for your canvas object externally \, send messages with the following signifiers to the 0 (leftmost) inlet:, f 124;
#X msg 31 336 doll 1 \, rec myCanvas \, size 15 \, visw 500 \, vish 30 \, lblfon 0 \, lblsz 18 \, lblx 9 \, lbly 13 \, bgclr 10 \, lblclr 21, f 106;
#X text 111 67 rec [symbol] - receive symbol for the canvas, f 85;
#X obj 90 241 cnv 5 5 5 empty \$0-canvas-format-helper-boldstatement1 Please\ note\ that\ the\ $-0\ designation\ (1\ or\ 0)\ MUST\ be\ sent\ first\,\ followed\ by\ the\ canvas\  1 9 0 12 #fcfcfc #fc0400 0;
#N canvas 2423 143 808 250 init 0;
#X msg 30 102 label \$1;
#X msg 419 120 label \$1;
#X obj 29 147 s \$0-canvas-format-helper-boldstatement1;
#X obj 418 164 s \$0-canvas-format-helper-boldstatement2;
#X obj 233 15 loadbang;
#X msg 420 51 symbol receive\ symbol!\ Failure\ to\ do\ so\ will\ cause\ incorrect\ parameter\ dispatching!;
#X msg 26 43 symbol Please\\\ note\\\ that\\\ the\\\ $-0\\\ designation\\\ (1\\\ or\\\ 0)\\\ MUST\\\ be\\\ sent\\\ first\\\,\\\ followed\\\ by\\\ the\\\ canvas\\\ ;
#X connect 0 0 2 0;
#X connect 1 0 3 0;
#X connect 4 0 5 0;
#X connect 4 0 6 0;
#X connect 5 0 1 0;
#X connect 6 0 0 0;
#X restore 659 9 pd init;
#X obj 90 257 cnv 5 5 5 empty \$0-canvas-format-helper-boldstatement2 receive\ symbol!\ Failure\ to\ do\ so\ will\ cause\ incorrect\ parameter\ dispatching! 1 9 0 12 #fcfcfc #fc0400 0;
#X msg 112 362 symbol this\ is\ my\ label!;
#X text 296 357 The label parameter must be sent separately to Inlet 1 (rightmost inlet). The message must be prepended with the "symbol" identifier \, and the escape character () needs to be set in the message:, f 68;
#X text 102 286 All parameters EXCEPT label can be sent in a single message to Inlet 0 (leftmost inlet) like below (and this can be copied and pasted for easy initializing formatting)., f 89;
#X restore 326 378 pd \$0-how-to-set-values-externally;
#X msg 326 336 vis 1;
#X obj 326 357 s pd-\$0-how-to-set-values-externally;
#X obj 120 263 bng 15 250 50 0 empty empty empty 17 7 0 10 #fcfcfc #000000 #000000;
#X text 141 263 How to set canvas values externally;
#X text 891 18 All left-inlet messages;
#X text 984 47 Label text;
#X msg 636 48 symbol This\ is\ my\ label?;
#X obj 587 47 inlet;
#X obj 632 184 cnv 5 5 5 empty empty ↴ -3 3 0 24 #fcfcfc #606060 0;
#X connect 0 0 2 6;
#X connect 1 0 2 11;
#X connect 3 0 2 10;
#X connect 4 0 2 3;
#X connect 5 0 2 4;
#X connect 6 0 2 7;
#X connect 7 0 2 8;
#X connect 8 0 2 2;
#X connect 9 0 2 0;
#X connect 10 0 2 5;
#X connect 11 0 2 9;
#X connect 12 0 2 1;
#X connect 14 0 16 0;
#X connect 16 0 12 0;
#X connect 16 1 17 0;
#X connect 16 2 8 0;
#X connect 16 3 4 0;
#X connect 16 4 5 0;
#X connect 16 5 10 0;
#X connect 16 6 0 0;
#X connect 16 7 6 0;
#X connect 16 8 7 0;
#X connect 16 9 3 0;
#X connect 16 10 1 0;
#X connect 17 0 9 0;
#X connect 20 0 16 0;
#X connect 22 0 23 0;
#X connect 24 0 22 0;
#X connect 28 0 11 0;
#X connect 29 0 11 0;
#X coords 0 -1 1 1 300 190 2 100 100;
#X restore 25 27 pd graph;
#X obj 25 1 inlet;
#X connect 0 0 1 1;
#X connect 2 0 1 0;
#X restore 343 465 pd canvas-ctrl;
#N canvas 2452 418 349 258 canvas-ctrl 0;
#X obj 291 1 inlet;
#N canvas 1417 303 1089 459 graph 0;
#X floatatom 180 241 5 0 0 0 Lbl-Sz - - 0;
#X floatatom 273 241 5 0 29 0 Lbl-Clr - - 0;
#N canvas 32 23 1408 389 label-properties 0;
#X floatatom 314 72 3 18 100 0 - - - 0;
#X msg 314 99 size \$1;
#X obj 400 121 pack 100 60, f 18;
#X obj 491 93 t b f;
#X floatatom 491 68 4 18 100 0 - - - 0;
#X floatatom 400 68 4 18 100 0 - - - 0;
#X msg 400 148 vis_size \$1 \$2;
#X text 442 41 w/x;
#X text 532 41 h/y;
#X floatatom 589 116 4 0 3 0 - - - 0;
#X obj 721 135 t b f;
#X floatatom 721 116 5 5 50 0 - - - 0;
#X msg 589 185 label_font \$1 \$2;
#X text 632 41 type;
#X text 760 40 size;
#X obj 589 64 vradio 15 1 0 3 empty empty empty 0 -8 0 10 #fcfcfc #000000 #000000 0;
#X text 605 63 DejaVu Sans Mono;
#X text 605 78 Helvetica;
#X text 606 93 Times;
#X floatatom 817 71 4 -100 250 0 - - - 0;
#X obj 889 98 t b f;
#X floatatom 889 71 5 -150 150 0 - - - 0;
#X msg 817 148 label_pos \$1 \$2;
#X text 856 41 x;
#X text 929 41 y;
#X obj 817 126 pack 17 20, f 17;
#X obj 589 164 pack 0 25, f 24;
#X msg 973 129 label \$1;
#X floatatom 1191 70 3 0 29 1 bgColor - - 0;
#X floatatom 1295 70 3 0 29 1 lblColor - - 0;
#X obj 1295 92 t b f;
#X msg 1191 145 color \$1 \$2 \$3;
#X obj 1191 124 pack 1 22 22, f 14;
#X text 1170 18 Color Presets (0-29):;
#X obj 24 42 inlet;
#X obj 8 42 cnv 14 14 14 empty empty 0 4 8 0 12 #606060 #dcdcdc 0;
#X symbolatom 24 210 10 0 0 0 - - - 0;
#X obj 588 330 send, f 13;
#X obj 400 42 inlet;
#X obj 314 42 inlet;
#X obj 491 42 inlet;
#X obj 155 42 cnv 14 14 14 empty empty 1 4 8 0 12 #606060 #dcdcdc 0;
#X obj 297 42 cnv 14 14 14 empty empty 2 4 8 0 12 #606060 #dcdcdc 0;
#X obj 384 42 cnv 14 14 14 empty empty 3 4 8 0 12 #606060 #dcdcdc 0;
#X obj 721 42 inlet;
#X obj 589 42 inlet;
#X obj 817 42 inlet;
#X obj 476 42 cnv 14 14 14 empty empty 4 4 8 0 12 #606060 #dcdcdc 0;
#X obj 573 42 cnv 14 14 14 empty empty 5 4 8 0 12 #606060 #dcdcdc 0;
#X obj 703 42 cnv 14 14 14 empty empty 6 4 8 0 12 #606060 #dcdcdc 0;
#X text 315 18 Size;
#X text 421 18 Visible Size;
#X text 635 18 Label Font;
#X text 824 18 Label Offset;
#X obj 889 42 inlet;
#X obj 800 42 cnv 14 14 14 empty empty 7 4 8 0 12 #606060 #dcdcdc 0;
#X msg 1052 89 symbol my\ label;
#X symbolatom 973 92 10 0 0 0 - - - 0;
#X obj 973 42 inlet;
#X obj 872 42 cnv 14 14 14 empty empty 8 4 8 0 12 #606060 #dcdcdc 0;
#X msg 973 70 symbol \$1;
#X text 1007 18 Label Text;
#X obj 1191 42 inlet;
#X obj 958 42 cnv 14 14 14 empty empty 9 4 8 0 12 #606060 #dcdcdc 0;
#X obj 1295 42 inlet;
#X obj 1174 42 cnv 14 14 14 empty empty 10 0 8 0 12 #606060 #dcdcdc 0;
#X text 0 18 Canvas Name;
#X obj 284 2 cnv 5 1 260 empty empty empty 20 12 0 14 #7c7c7c #404040 0;
#X obj 738 322 cnv 2 1400 40 empty \$0-test_canvas tdh.util.antiAliasFilter~ 20 15 0 16 #a0a0a0 #202020 0;
#X obj 415 328 s \$0-test_canvas;
#X obj 210 187 spigot;
#X obj 170 88 tgl 15 0 empty empty empty 17 7 0 10 #fcfcfc #000000 #000000 0 1;
#X obj 249 134 == 1;
#X obj 101 135 == 0;
#X obj 144 134 list append \$0;
#X msg 144 157 symbol \$2-\$1;
#X msg 24 136 symbol \$1;
#X obj 24 167 spigot;
#X obj 170 42 inlet;
#X obj 1279 42 cnv 14 14 14 empty empty 11 0 8 0 12 #606060 #dcdcdc 0;
#X text 136 18 Add "\$0" option;
#X obj 374 2 cnv 5 1 260 empty empty empty 20 12 0 14 #7c7c7c #404040 0;
#X obj 561 2 cnv 5 1 260 empty empty empty 20 12 0 14 #7c7c7c #404040 0;
#X obj 791 2 cnv 5 1 260 empty empty empty 20 12 0 14 #7c7c7c #404040 0;
#X obj 944 2 cnv 5 1 260 empty empty empty 20 12 0 14 #7c7c7c #404040 0;
#X obj 1164 2 cnv 5 1 260 empty empty empty 20 12 0 14 #7c7c7c #404040 0;
#X connect 0 0 1 0;
#X connect 1 0 37 0;
#X connect 1 0 69 0;
#X connect 2 0 6 0;
#X connect 3 0 2 0;
#X connect 3 1 2 1;
#X connect 4 0 3 0;
#X connect 5 0 2 0;
#X connect 6 0 37 0;
#X connect 6 0 69 0;
#X connect 9 0 26 0;
#X connect 10 0 26 0;
#X connect 10 1 26 1;
#X connect 11 0 10 0;
#X connect 12 0 37 0;
#X connect 12 0 69 0;
#X connect 15 0 9 0;
#X connect 19 0 25 0;
#X connect 20 0 25 0;
#X connect 20 1 25 1;
#X connect 21 0 20 0;
#X connect 22 0 37 0;
#X connect 22 0 69 0;
#X connect 25 0 22 0;
#X connect 26 0 12 0;
#X connect 27 0 37 0;
#X connect 27 0 69 0;
#X connect 28 0 32 0;
#X connect 29 0 30 0;
#X connect 30 0 32 0;
#X connect 30 1 32 2;
#X connect 31 0 37 0;
#X connect 31 0 69 0;
#X connect 32 0 31 0;
#X connect 34 0 74 0;
#X connect 34 0 76 0;
#X connect 36 0 37 1;
#X connect 38 0 5 0;
#X connect 39 0 0 0;
#X connect 40 0 4 0;
#X connect 44 0 11 0;
#X connect 45 0 15 0;
#X connect 46 0 19 0;
#X connect 54 0 21 0;
#X connect 56 0 27 0;
#X connect 57 0 27 0;
#X connect 58 0 60 0;
#X connect 60 0 57 0;
#X connect 62 0 28 0;
#X connect 64 0 29 0;
#X connect 70 0 36 0;
#X connect 71 0 72 0;
#X connect 71 0 73 0;
#X connect 72 0 70 1;
#X connect 73 0 77 1;
#X connect 74 0 75 0;
#X connect 75 0 70 0;
#X connect 76 0 77 0;
#X connect 77 0 36 0;
#X connect 78 0 71 0;
#X restore 6 354 pd label-properties;
#X f 45;
#X floatatom 273 219 5 0 29 0 BG-Clr - - 0;
#X floatatom 180 174 5 0 0 0 Vis-Sz-W - - 0;
#X floatatom 181 198 5 0 0 0 Vis-Sz-H - - 0;
#X floatatom 271 150 5 0 0 0 Lbl-X - - 0;
#X floatatom 272 174 5 0 0 0 Lbl-Y - - 0;
#X floatatom 180 150 5 0 0 0 Size - - 0;
#X symbolatom 214 127 10 0 0 0 CnvReceiveSymbol - - 0;
#X floatatom 181 219 5 0 2 0 Lbl-Fon - - 0;
#X symbolatom 274 195 10 0 0 0 Lbl-Txt - - 0;
#X obj 295 128 tgl 15 0 empty empty Append_0 20 7 0 10 #fcfcfc #fc8000 #000000 0 1;
#X text 194 103 Label Properties;
#X obj 28 18 inlet;
#X obj 414 223 cnv 15 500 30 empty \$0-myCanvas This\ is\ my\ label? 9 13 0 18 #e0e0e0 #606060 0;
#X obj 28 54 route doll rec size visw vish lblfon lblsz lblx lbly bgclr lblclr, f 66;
#X obj 56 93 symbol;
#X text 6 4 _;
#X text 479 173 dollarsign0-myCanvas;
#X msg 74 18 doll 1 \, rec myCanvas \, size 15 \, visw 50 \, vish 60 \, lblfon 0 \, lblsz 18 \, lblx 9 \, lbly 13 \, bgclr 10 \, lblclr 21, f 106;
#N canvas 240 66 752 410 \$0-how-to-set-values-externally 0;
#X text 112 49 doll [0/1] - toggle on appending "\$0-" at the start of the recieve symbol, f 85;
#X text 112 102 visw [float] - the visible width of the canvas in pixels, f 85;
#X text 112 85 size [float] - the size of the clickable/dragable portion of the canvas in pixels, f 85;
#X text 112 122 vish [float] - the visible height of the canvas in pixels, f 85;
#X text 111 141 lblfon [0/1/2] - font designation for the canvas' label \, with [0] for Menlo \, [1] for, f 89;
#X text 131 155 Helvetica \, [2] for Times. Note that these fonts may be different on Windows or Linux, f 84;
#X text 111 173 lblsz [float] - font size designation for the canvas' label, f 85;
#X text 111 213 lbly [float] - y offset in pixels from the top left corner of the canvas, f 85;
#X text 111 193 lblx [float] - x offset (horizontal) in pixels from the top left corner of the canvas, f 85;
#X text 4 29 To set the values for your canvas object externally \, send messages with the following signifiers to the 0 (leftmost) inlet:, f 124;
#X msg 31 336 doll 1 \, rec myCanvas \, size 15 \, visw 500 \, vish 30 \, lblfon 0 \, lblsz 18 \, lblx 9 \, lbly 13 \, bgclr 10 \, lblclr 21, f 106;
#X text 111 67 rec [symbol] - receive symbol for the canvas, f 85;
#X obj 90 241 cnv 5 5 5 empty \$0-canvas-format-helper-boldstatement1 Please\ note\ that\ the\ $-0\ designation\ (1\ or\ 0)\ MUST\ be\ sent\ first\,\ followed\ by\ the\ canvas\  1 9 0 12 #fcfcfc #fc0400 0;
#N canvas 2423 143 808 250 init 0;
#X msg 30 102 label \$1;
#X msg 419 120 label \$1;
#X obj 29 147 s \$0-canvas-format-helper-boldstatement1;
#X obj 418 164 s \$0-canvas-format-helper-boldstatement2;
#X obj 233 15 loadbang;
#X msg 420 51 symbol receive\ symbol!\ Failure\ to\ do\ so\ will\ cause\ incorrect\ parameter\ dispatching!;
#X msg 26 43 symbol Please\\\ note\\\ that\\\ the\\\ $-0\\\ designation\\\ (1\\\ or\\\ 0)\\\ MUST\\\ be\\\ sent\\\ first\\\,\\\ followed\\\ by\\\ the\\\ canvas\\\ ;
#X connect 0 0 2 0;
#X connect 1 0 3 0;
#X connect 4 0 5 0;
#X connect 4 0 6 0;
#X connect 5 0 1 0;
#X connect 6 0 0 0;
#X restore 659 9 pd init;
#X obj 90 257 cnv 5 5 5 empty \$0-canvas-format-helper-boldstatement2 receive\ symbol!\ Failure\ to\ do\ so\ will\ cause\ incorrect\ parameter\ dispatching! 1 9 0 12 #fcfcfc #fc0400 0;
#X msg 112 362 symbol this\ is\ my\ label!;
#X text 296 357 The label parameter must be sent separately to Inlet 1 (rightmost inlet). The message must be prepended with the "symbol" identifier \, and the escape character () needs to be set in the message:, f 68;
#X text 102 286 All parameters EXCEPT label can be sent in a single message to Inlet 0 (leftmost inlet) like below (and this can be copied and pasted for easy initializing formatting)., f 89;
#X restore 326 378 pd \$0-how-to-set-values-externally;
#X msg 326 336 vis 1;
#X obj 326 357 s pd-\$0-how-to-set-values-externally;
#X obj 120 263 bng 15 250 50 0 empty empty empty 17 7 0 10 #fcfcfc #000000 #000000;
#X text 141 263 How to set canvas values externally;
#X text 891 18 All left-inlet messages;
#X text 984 47 Label text;
#X msg 636 48 symbol This\ is\ my\ label?;
#X obj 587 47 inlet;
#X obj 632 184 cnv 5 5 5 empty empty ↴ -3 3 0 24 #fcfcfc #606060 0;
#X connect 0 0 2 6;
#X connect 1 0 2 11;
#X connect 3 0 2 10;
#X connect 4 0 2 3;
#X connect 5 0 2 4;
#X connect 6 0 2 7;
#X connect 7 0 2 8;
#X connect 8 0 2 2;
#X connect 9 0 2 0;
#X connect 10 0 2 5;
#X connect 11 0 2 9;
#X connect 12 0 2 1;
#X connect 14 0 16 0;
#X connect 16 0 12 0;
#X connect 16 1 17 0;
#X connect 16 2 8 0;
#X connect 16 3 4 0;
#X connect 16 4 5 0;
#X connect 16 5 10 0;
#X connect 16 6 0 0;
#X connect 16 7 6 0;
#X connect 16 8 7 0;
#X connect 16 9 3 0;
#X connect 16 10 1 0;
#X connect 17 0 9 0;
#X connect 20 0 16 0;
#X connect 22 0 23 0;
#X connect 24 0 22 0;
#X connect 28 0 11 0;
#X connect 29 0 11 0;
#X coords 0 -1 1 1 300 190 2 100 100;
#X restore 25 27 pd graph;
#X obj 25 1 inlet;
#X connect 0 0 1 1;
#X connect 2 0 1 0;
#X restore 343 595 pd canvas-ctrl;
#N canvas 673 23 349 258 canvas-ctrl 0;
#X obj 291 1 inlet;
#N canvas 248 270 1089 459 graph 0;
#X floatatom 180 241 5 0 0 0 Lbl-Sz - - 0;
#X floatatom 273 241 5 0 29 0 Lbl-Clr - - 0;
#N canvas 32 23 1408 389 label-properties 0;
#X floatatom 314 72 3 18 100 0 - - - 0;
#X msg 314 99 size \$1;
#X obj 400 121 pack 100 60, f 18;
#X obj 491 93 t b f;
#X floatatom 491 68 4 18 100 0 - - - 0;
#X floatatom 400 68 4 18 100 0 - - - 0;
#X msg 400 148 vis_size \$1 \$2;
#X text 442 41 w/x;
#X text 532 41 h/y;
#X floatatom 589 116 4 0 3 0 - - - 0;
#X obj 721 135 t b f;
#X floatatom 721 116 5 5 50 0 - - - 0;
#X msg 589 185 label_font \$1 \$2;
#X text 632 41 type;
#X text 760 40 size;
#X obj 589 64 vradio 15 1 0 3 empty empty empty 0 -8 0 10 #fcfcfc #000000 #000000 0;
#X text 605 63 DejaVu Sans Mono;
#X text 605 78 Helvetica;
#X text 606 93 Times;
#X floatatom 817 71 4 -100 250 0 - - - 0;
#X obj 889 98 t b f;
#X floatatom 889 71 5 -150 150 0 - - - 0;
#X msg 817 148 label_pos \$1 \$2;
#X text 856 41 x;
#X text 929 41 y;
#X obj 817 126 pack 17 20, f 17;
#X obj 589 164 pack 0 25, f 24;
#X msg 973 129 label \$1;
#X floatatom 1191 70 3 0 29 1 bgColor - - 0;
#X floatatom 1295 70 3 0 29 1 lblColor - - 0;
#X obj 1295 92 t b f;
#X msg 1191 145 color \$1 \$2 \$3;
#X obj 1191 124 pack 1 22 22, f 14;
#X text 1170 18 Color Presets (0-29):;
#X obj 24 42 inlet;
#X obj 8 42 cnv 14 14 14 empty empty 0 4 8 0 12 #606060 #dcdcdc 0;
#X symbolatom 24 210 10 0 0 0 - - - 0;
#X obj 588 330 send, f 13;
#X obj 400 42 inlet;
#X obj 314 42 inlet;
#X obj 491 42 inlet;
#X obj 155 42 cnv 14 14 14 empty empty 1 4 8 0 12 #606060 #dcdcdc 0;
#X obj 297 42 cnv 14 14 14 empty empty 2 4 8 0 12 #606060 #dcdcdc 0;
#X obj 384 42 cnv 14 14 14 empty empty 3 4 8 0 12 #606060 #dcdcdc 0;
#X obj 721 42 inlet;
#X obj 589 42 inlet;
#X obj 817 42 inlet;
#X obj 476 42 cnv 14 14 14 empty empty 4 4 8 0 12 #606060 #dcdcdc 0;
#X obj 573 42 cnv 14 14 14 empty empty 5 4 8 0 12 #606060 #dcdcdc 0;
#X obj 703 42 cnv 14 14 14 empty empty 6 4 8 0 12 #606060 #dcdcdc 0;
#X text 315 18 Size;
#X text 421 18 Visible Size;
#X text 635 18 Label Font;
#X text 824 18 Label Offset;
#X obj 889 42 inlet;
#X obj 800 42 cnv 14 14 14 empty empty 7 4 8 0 12 #606060 #dcdcdc 0;
#X msg 1052 89 symbol my\ label;
#X symbolatom 973 92 10 0 0 0 - - - 0;
#X obj 973 42 inlet;
#X obj 872 42 cnv 14 14 14 empty empty 8 4 8 0 12 #606060 #dcdcdc 0;
#X msg 973 70 symbol \$1;
#X text 1007 18 Label Text;
#X obj 1191 42 inlet;
#X obj 958 42 cnv 14 14 14 empty empty 9 4 8 0 12 #606060 #dcdcdc 0;
#X obj 1295 42 inlet;
#X obj 1174 42 cnv 14 14 14 empty empty 10 0 8 0 12 #606060 #dcdcdc 0;
#X text 0 18 Canvas Name;
#X obj 284 2 cnv 5 1 260 empty empty empty 20 12 0 14 #7c7c7c #404040 0;
#X obj 738 322 cnv 2 1400 40 empty \$0-test_canvas tdh.util.antiAliasFilter~ 20 15 0 16 #a0a0a0 #202020 0;
#X obj 415 328 s \$0-test_canvas;
#X obj 210 187 spigot;
#X obj 170 88 tgl 15 0 empty empty empty 17 7 0 10 #fcfcfc #000000 #000000 0 1;
#X obj 249 134 == 1;
#X obj 101 135 == 0;
#X obj 144 134 list append \$0;
#X msg 144 157 symbol \$2-\$1;
#X msg 24 136 symbol \$1;
#X obj 24 167 spigot;
#X obj 170 42 inlet;
#X obj 1279 42 cnv 14 14 14 empty empty 11 0 8 0 12 #606060 #dcdcdc 0;
#X text 136 18 Add "\$0" option;
#X obj 374 2 cnv 5 1 260 empty empty empty 20 12 0 14 #7c7c7c #404040 0;
#X obj 561 2 cnv 5 1 260 empty empty empty 20 12 0 14 #7c7c7c #404040 0;
#X obj 791 2 cnv 5 1 260 empty empty empty 20 12 0 14 #7c7c7c #404040 0;
#X obj 944 2 cnv 5 1 260 empty empty empty 20 12 0 14 #7c7c7c #404040 0;
#X obj 1164 2 cnv 5 1 260 empty empty empty 20 12 0 14 #7c7c7c #404040 0;
#X connect 0 0 1 0;
#X connect 1 0 37 0;
#X connect 1 0 69 0;
#X connect 2 0 6 0;
#X connect 3 0 2 0;
#X connect 3 1 2 1;
#X connect 4 0 3 0;
#X connect 5 0 2 0;
#X connect 6 0 37 0;
#X connect 6 0 69 0;
#X connect 9 0 26 0;
#X connect 10 0 26 0;
#X connect 10 1 26 1;
#X connect 11 0 10 0;
#X connect 12 0 37 0;
#X connect 12 0 69 0;
#X connect 15 0 9 0;
#X connect 19 0 25 0;
#X connect 20 0 25 0;
#X connect 20 1 25 1;
#X connect 21 0 20 0;
#X connect 22 0 37 0;
#X connect 22 0 69 0;
#X connect 25 0 22 0;
#X connect 26 0 12 0;
#X connect 27 0 37 0;
#X connect 27 0 69 0;
#X connect 28 0 32 0;
#X connect 29 0 30 0;
#X connect 30 0 32 0;
#X connect 30 1 32 2;
#X connect 31 0 37 0;
#X connect 31 0 69 0;
#X connect 32 0 31 0;
#X connect 34 0 74 0;
#X connect 34 0 76 0;
#X connect 36 0 37 1;
#X connect 38 0 5 0;
#X connect 39 0 0 0;
#X connect 40 0 4 0;
#X connect 44 0 11 0;
#X connect 45 0 15 0;
#X connect 46 0 19 0;
#X connect 54 0 21 0;
#X connect 56 0 27 0;
#X connect 57 0 27 0;
#X connect 58 0 60 0;
#X connect 60 0 57 0;
#X connect 62 0 28 0;
#X connect 64 0 29 0;
#X connect 70 0 36 0;
#X connect 71 0 72 0;
#X connect 71 0 73 0;
#X connect 72 0 70 1;
#X connect 73 0 77 1;
#X connect 74 0 75 0;
#X connect 75 0 70 0;
#X connect 76 0 77 0;
#X connect 77 0 36 0;
#X connect 78 0 71 0;
#X restore 6 354 pd label-properties;
#X f 45;
#X floatatom 273 219 5 0 29 0 BG-Clr - - 0;
#X floatatom 180 174 5 0 0 0 Vis-Sz-W - - 0;
#X floatatom 181 198 5 0 0 0 Vis-Sz-H - - 0;
#X floatatom 271 150 5 0 0 0 Lbl-X - - 0;
#X floatatom 272 174 5 0 0 0 Lbl-Y - - 0;
#X floatatom 180 150 5 0 0 0 Size - - 0;
#X symbolatom 214 127 10 0 0 0 CnvReceiveSymbol - - 0;
#X floatatom 181 219 5 0 2 0 Lbl-Fon - - 0;
#X symbolatom 274 195 10 0 0 0 Lbl-Txt - - 0;
#X obj 295 128 tgl 15 0 empty empty Append_0 20 7 0 10 #fcfcfc #fc8000 #000000 0 1;
#X text 194 103 Label Properties;
#X obj 28 18 inlet;
#X obj 414 223 cnv 15 500 30 empty \$0-myCanvas This\ is\ my\ label? 9 13 0 18 #e0e0e0 #606060 0;
#X obj 28 54 route doll rec size visw vish lblfon lblsz lblx lbly bgclr lblclr, f 66;
#X obj 56 93 symbol;
#X text 6 4 _;
#X text 479 173 dollarsign0-myCanvas;
#X msg 74 18 doll 1 \, rec myCanvas \, size 15 \, visw 50 \, vish 60 \, lblfon 0 \, lblsz 18 \, lblx 9 \, lbly 13 \, bgclr 10 \, lblclr 21, f 106;
#N canvas 240 66 752 410 \$0-how-to-set-values-externally 0;
#X text 112 49 doll [0/1] - toggle on appending "\$0-" at the start of the recieve symbol, f 85;
#X text 112 102 visw [float] - the visible width of the canvas in pixels, f 85;
#X text 112 85 size [float] - the size of the clickable/dragable portion of the canvas in pixels, f 85;
#X text 112 122 vish [float] - the visible height of the canvas in pixels, f 85;
#X text 111 141 lblfon [0/1/2] - font designation for the canvas' label \, with [0] for Menlo \, [1] for, f 89;
#X text 131 155 Helvetica \, [2] for Times. Note that these fonts may be different on Windows or Linux, f 84;
#X text 111 173 lblsz [float] - font size designation for the canvas' label, f 85;
#X text 111 213 lbly [float] - y offset in pixels from the top left corner of the canvas, f 85;
#X text 111 193 lblx [float] - x offset (horizontal) in pixels from the top left corner of the canvas, f 85;
#X text 4 29 To set the values for your canvas object externally \, send messages with the following signifiers to the 0 (leftmost) inlet:, f 124;
#X msg 31 336 doll 1 \, rec myCanvas \, size 15 \, visw 500 \, vish 30 \, lblfon 0 \, lblsz 18 \, lblx 9 \, lbly 13 \, bgclr 10 \, lblclr 21, f 106;
#X text 111 67 rec [symbol] - receive symbol for the canvas, f 85;
#X obj 90 241 cnv 5 5 5 empty \$0-canvas-format-helper-boldstatement1 Please\ note\ that\ the\ $-0\ designation\ (1\ or\ 0)\ MUST\ be\ sent\ first\,\ followed\ by\ the\ canvas\  1 9 0 12 #fcfcfc #fc0400 0;
#N canvas 2423 143 808 250 init 0;
#X msg 30 102 label \$1;
#X msg 419 120 label \$1;
#X obj 29 147 s \$0-canvas-format-helper-boldstatement1;
#X obj 418 164 s \$0-canvas-format-helper-boldstatement2;
#X obj 233 15 loadbang;
#X msg 420 51 symbol receive\ symbol!\ Failure\ to\ do\ so\ will\ cause\ incorrect\ parameter\ dispatching!;
#X msg 26 43 symbol Please\\\ note\\\ that\\\ the\\\ $-0\\\ designation\\\ (1\\\ or\\\ 0)\\\ MUST\\\ be\\\ sent\\\ first\\\,\\\ followed\\\ by\\\ the\\\ canvas\\\ ;
#X connect 0 0 2 0;
#X connect 1 0 3 0;
#X connect 4 0 5 0;
#X connect 4 0 6 0;
#X connect 5 0 1 0;
#X connect 6 0 0 0;
#X restore 659 9 pd init;
#X obj 90 257 cnv 5 5 5 empty \$0-canvas-format-helper-boldstatement2 receive\ symbol!\ Failure\ to\ do\ so\ will\ cause\ incorrect\ parameter\ dispatching! 1 9 0 12 #fcfcfc #fc0400 0;
#X msg 112 362 symbol this\ is\ my\ label!;
#X text 296 357 The label parameter must be sent separately to Inlet 1 (rightmost inlet). The message must be prepended with the "symbol" identifier \, and the escape character () needs to be set in the message:, f 68;
#X text 102 286 All parameters EXCEPT label can be sent in a single message to Inlet 0 (leftmost inlet) like below (and this can be copied and pasted for easy initializing formatting)., f 89;
#X restore 326 378 pd \$0-how-to-set-values-externally;
#X msg 326 336 vis 1;
#X obj 326 357 s pd-\$0-how-to-set-values-externally;
#X obj 120 263 bng 15 250 50 0 empty empty empty 17 7 0 10 #fcfcfc #000000 #000000;
#X text 141 263 How to set canvas values externally;
#X text 891 18 All left-inlet messages;
#X text 984 47 Label text;
#X msg 636 48 symbol This\ is\ my\ label?;
#X obj 587 47 inlet;
#X obj 632 184 cnv 5 5 5 empty empty ↴ -3 3 0 24 #fcfcfc #606060 0;
#X connect 0 0 2 6;
#X connect 1 0 2 11;
#X connect 3 0 2 10;
#X connect 4 0 2 3;
#X connect 5 0 2 4;
#X connect 6 0 2 7;
#X connect 7 0 2 8;
#X connect 8 0 2 2;
#X connect 9 0 2 0;
#X connect 10 0 2 5;
#X connect 11 0 2 9;
#X connect 12 0 2 1;
#X connect 14 0 16 0;
#X connect 16 0 12 0;
#X connect 16 1 17 0;
#X connect 16 2 8 0;
#X connect 16 3 4 0;
#X connect 16 4 5 0;
#X connect 16 5 10 0;
#X connect 16 6 0 0;
#X connect 16 7 6 0;
#X connect 16 8 7 0;
#X connect 16 9 3 0;
#X connect 16 10 1 0;
#X connect 17 0 9 0;
#X connect 20 0 16 0;
#X connect 22 0 23 0;
#X connect 24 0 22 0;
#X connect 28 0 11 0;
#X connect 29 0 11 0;
#X coords 0 -1 1 1 300 190 2 100 100;
#X restore 25 27 pd graph;
#X obj 25 1 inlet;
#X connect 0 0 1 1;
#X connect 2 0 1 0;
#X restore 343 1075 pd canvas-ctrl;
#N canvas 673 23 349 258 canvas-ctrl 0;
#X obj 291 1 inlet;
#N canvas 248 270 1089 459 graph 0;
#X floatatom 180 241 5 0 0 0 Lbl-Sz - - 0;
#X floatatom 273 241 5 0 29 0 Lbl-Clr - - 0;
#N canvas 32 23 1408 389 label-properties 0;
#X floatatom 314 72 3 18 100 0 - - - 0;
#X msg 314 99 size \$1;
#X obj 400 121 pack 100 60, f 18;
#X obj 491 93 t b f;
#X floatatom 491 68 4 18 100 0 - - - 0;
#X floatatom 400 68 4 18 100 0 - - - 0;
#X msg 400 148 vis_size \$1 \$2;
#X text 442 41 w/x;
#X text 532 41 h/y;
#X floatatom 589 116 4 0 3 0 - - - 0;
#X obj 721 135 t b f;
#X floatatom 721 116 5 5 50 0 - - - 0;
#X msg 589 185 label_font \$1 \$2;
#X text 632 41 type;
#X text 760 40 size;
#X obj 589 64 vradio 15 1 0 3 empty empty empty 0 -8 0 10 #fcfcfc #000000 #000000 0;
#X text 605 63 DejaVu Sans Mono;
#X text 605 78 Helvetica;
#X text 606 93 Times;
#X floatatom 817 71 4 -100 250 0 - - - 0;
#X obj 889 98 t b f;
#X floatatom 889 71 5 -150 150 0 - - - 0;
#X msg 817 148 label_pos \$1 \$2;
#X text 856 41 x;
#X text 929 41 y;
#X obj 817 126 pack 17 20, f 17;
#X obj 589 164 pack 0 25, f 24;
#X msg 973 129 label \$1;
#X floatatom 1191 70 3 0 29 1 bgColor - - 0;
#X floatatom 1295 70 3 0 29 1 lblColor - - 0;
#X obj 1295 92 t b f;
#X msg 1191 145 color \$1 \$2 \$3;
#X obj 1191 124 pack 1 22 22, f 14;
#X text 1170 18 Color Presets (0-29):;
#X obj 24 42 inlet;
#X obj 8 42 cnv 14 14 14 empty empty 0 4 8 0 12 #606060 #dcdcdc 0;
#X symbolatom 24 210 10 0 0 0 - - - 0;
#X obj 588 330 send, f 13;
#X obj 400 42 inlet;
#X obj 314 42 inlet;
#X obj 491 42 inlet;
#X obj 155 42 cnv 14 14 14 empty empty 1 4 8 0 12 #606060 #dcdcdc 0;
#X obj 297 42 cnv 14 14 14 empty empty 2 4 8 0 12 #606060 #dcdcdc 0;
#X obj 384 42 cnv 14 14 14 empty empty 3 4 8 0 12 #606060 #dcdcdc 0;
#X obj 721 42 inlet;
#X obj 589 42 inlet;
#X obj 817 42 inlet;
#X obj 476 42 cnv 14 14 14 empty empty 4 4 8 0 12 #606060 #dcdcdc 0;
#X obj 573 42 cnv 14 14 14 empty empty 5 4 8 0 12 #606060 #dcdcdc 0;
#X obj 703 42 cnv 14 14 14 empty empty 6 4 8 0 12 #606060 #dcdcdc 0;
#X text 315 18 Size;
#X text 421 18 Visible Size;
#X text 635 18 Label Font;
#X text 824 18 Label Offset;
#X obj 889 42 inlet;
#X obj 800 42 cnv 14 14 14 empty empty 7 4 8 0 12 #606060 #dcdcdc 0;
#X msg 1052 89 symbol my\ label;
#X symbolatom 973 92 10 0 0 0 - - - 0;
#X obj 973 42 inlet;
#X obj 872 42 cnv 14 14 14 empty empty 8 4 8 0 12 #606060 #dcdcdc 0;
#X msg 973 70 symbol \$1;
#X text 1007 18 Label Text;
#X obj 1191 42 inlet;
#X obj 958 42 cnv 14 14 14 empty empty 9 4 8 0 12 #606060 #dcdcdc 0;
#X obj 1295 42 inlet;
#X obj 1174 42 cnv 14 14 14 empty empty 10 0 8 0 12 #606060 #dcdcdc 0;
#X text 0 18 Canvas Name;
#X obj 284 2 cnv 5 1 260 empty empty empty 20 12 0 14 #7c7c7c #404040 0;
#X obj 738 322 cnv 2 1400 40 empty \$0-test_canvas tdh.util.antiAliasFilter~ 20 15 0 16 #a0a0a0 #202020 0;
#X obj 415 328 s \$0-test_canvas;
#X obj 210 187 spigot;
#X obj 170 88 tgl 15 0 empty empty empty 17 7 0 10 #fcfcfc #000000 #000000 0 1;
#X obj 249 134 == 1;
#X obj 101 135 == 0;
#X obj 144 134 list append \$0;
#X msg 144 157 symbol \$2-\$1;
#X msg 24 136 symbol \$1;
#X obj 24 167 spigot;
#X obj 170 42 inlet;
#X obj 1279 42 cnv 14 14 14 empty empty 11 0 8 0 12 #606060 #dcdcdc 0;
#X text 136 18 Add "\$0" option;
#X obj 374 2 cnv 5 1 260 empty empty empty 20 12 0 14 #7c7c7c #404040 0;
#X obj 561 2 cnv 5 1 260 empty empty empty 20 12 0 14 #7c7c7c #404040 0;
#X obj 791 2 cnv 5 1 260 empty empty empty 20 12 0 14 #7c7c7c #404040 0;
#X obj 944 2 cnv 5 1 260 empty empty empty 20 12 0 14 #7c7c7c #404040 0;
#X obj 1164 2 cnv 5 1 260 empty empty empty 20 12 0 14 #7c7c7c #404040 0;
#X connect 0 0 1 0;
#X connect 1 0 37 0;
#X connect 1 0 69 0;
#X connect 2 0 6 0;
#X connect 3 0 2 0;
#X connect 3 1 2 1;
#X connect 4 0 3 0;
#X connect 5 0 2 0;
#X connect 6 0 37 0;
#X connect 6 0 69 0;
#X connect 9 0 26 0;
#X connect 10 0 26 0;
#X connect 10 1 26 1;
#X connect 11 0 10 0;
#X connect 12 0 37 0;
#X connect 12 0 69 0;
#X connect 15 0 9 0;
#X connect 19 0 25 0;
#X connect 20 0 25 0;
#X connect 20 1 25 1;
#X connect 21 0 20 0;
#X connect 22 0 37 0;
#X connect 22 0 69 0;
#X connect 25 0 22 0;
#X connect 26 0 12 0;
#X connect 27 0 37 0;
#X connect 27 0 69 0;
#X connect 28 0 32 0;
#X connect 29 0 30 0;
#X connect 30 0 32 0;
#X connect 30 1 32 2;
#X connect 31 0 37 0;
#X connect 31 0 69 0;
#X connect 32 0 31 0;
#X connect 34 0 74 0;
#X connect 34 0 76 0;
#X connect 36 0 37 1;
#X connect 38 0 5 0;
#X connect 39 0 0 0;
#X connect 40 0 4 0;
#X connect 44 0 11 0;
#X connect 45 0 15 0;
#X connect 46 0 19 0;
#X connect 54 0 21 0;
#X connect 56 0 27 0;
#X connect 57 0 27 0;
#X connect 58 0 60 0;
#X connect 60 0 57 0;
#X connect 62 0 28 0;
#X connect 64 0 29 0;
#X connect 70 0 36 0;
#X connect 71 0 72 0;
#X connect 71 0 73 0;
#X connect 72 0 70 1;
#X connect 73 0 77 1;
#X connect 74 0 75 0;
#X connect 75 0 70 0;
#X connect 76 0 77 0;
#X connect 77 0 36 0;
#X connect 78 0 71 0;
#X restore 6 354 pd label-properties;
#X f 45;
#X floatatom 273 219 5 0 29 0 BG-Clr - - 0;
#X floatatom 180 174 5 0 0 0 Vis-Sz-W - - 0;
#X floatatom 181 198 5 0 0 0 Vis-Sz-H - - 0;
#X floatatom 271 150 5 0 0 0 Lbl-X - - 0;
#X floatatom 272 174 5 0 0 0 Lbl-Y - - 0;
#X floatatom 180 150 5 0 0 0 Size - - 0;
#X symbolatom 214 127 10 0 0 0 CnvReceiveSymbol - - 0;
#X floatatom 181 219 5 0 2 0 Lbl-Fon - - 0;
#X symbolatom 274 195 10 0 0 0 Lbl-Txt - - 0;
#X obj 295 128 tgl 15 0 empty empty Append_0 20 7 0 10 #fcfcfc #fc8000 #000000 0 1;
#X text 194 103 Label Properties;
#X obj 28 18 inlet;
#X obj 414 223 cnv 15 500 30 empty \$0-myCanvas This\ is\ my\ label? 9 13 0 18 #e0e0e0 #606060 0;
#X obj 28 54 route doll rec size visw vish lblfon lblsz lblx lbly bgclr lblclr, f 66;
#X obj 56 93 symbol;
#X text 6 4 _;
#X text 479 173 dollarsign0-myCanvas;
#X msg 74 18 doll 1 \, rec myCanvas \, size 15 \, visw 50 \, vish 60 \, lblfon 0 \, lblsz 18 \, lblx 9 \, lbly 13 \, bgclr 10 \, lblclr 21, f 106;
#N canvas 240 66 752 410 \$0-how-to-set-values-externally 0;
#X text 112 49 doll [0/1] - toggle on appending "\$0-" at the start of the recieve symbol, f 85;
#X text 112 102 visw [float] - the visible width of the canvas in pixels, f 85;
#X text 112 85 size [float] - the size of the clickable/dragable portion of the canvas in pixels, f 85;
#X text 112 122 vish [float] - the visible height of the canvas in pixels, f 85;
#X text 111 141 lblfon [0/1/2] - font designation for the canvas' label \, with [0] for Menlo \, [1] for, f 89;
#X text 131 155 Helvetica \, [2] for Times. Note that these fonts may be different on Windows or Linux, f 84;
#X text 111 173 lblsz [float] - font size designation for the canvas' label, f 85;
#X text 111 213 lbly [float] - y offset in pixels from the top left corner of the canvas, f 85;
#X text 111 193 lblx [float] - x offset (horizontal) in pixels from the top left corner of the canvas, f 85;
#X text 4 29 To set the values for your canvas object externally \, send messages with the following signifiers to the 0 (leftmost) inlet:, f 124;
#X msg 31 336 doll 1 \, rec myCanvas \, size 15 \, visw 500 \, vish 30 \, lblfon 0 \, lblsz 18 \, lblx 9 \, lbly 13 \, bgclr 10 \, lblclr 21, f 106;
#X text 111 67 rec [symbol] - receive symbol for the canvas, f 85;
#X obj 90 241 cnv 5 5 5 empty \$0-canvas-format-helper-boldstatement1 Please\ note\ that\ the\ $-0\ designation\ (1\ or\ 0)\ MUST\ be\ sent\ first\,\ followed\ by\ the\ canvas\  1 9 0 12 #fcfcfc #fc0400 0;
#N canvas 2423 143 808 250 init 0;
#X msg 30 102 label \$1;
#X msg 419 120 label \$1;
#X obj 29 147 s \$0-canvas-format-helper-boldstatement1;
#X obj 418 164 s \$0-canvas-format-helper-boldstatement2;
#X obj 233 15 loadbang;
#X msg 420 51 symbol receive\ symbol!\ Failure\ to\ do\ so\ will\ cause\ incorrect\ parameter\ dispatching!;
#X msg 26 43 symbol Please\\\ note\\\ that\\\ the\\\ $-0\\\ designation\\\ (1\\\ or\\\ 0)\\\ MUST\\\ be\\\ sent\\\ first\\\,\\\ followed\\\ by\\\ the\\\ canvas\\\ ;
#X connect 0 0 2 0;
#X connect 1 0 3 0;
#X connect 4 0 5 0;
#X connect 4 0 6 0;
#X connect 5 0 1 0;
#X connect 6 0 0 0;
#X restore 659 9 pd init;
#X obj 90 257 cnv 5 5 5 empty \$0-canvas-format-helper-boldstatement2 receive\ symbol!\ Failure\ to\ do\ so\ will\ cause\ incorrect\ parameter\ dispatching! 1 9 0 12 #fcfcfc #fc0400 0;
#X msg 112 362 symbol this\ is\ my\ label!;
#X text 296 357 The label parameter must be sent separately to Inlet 1 (rightmost inlet). The message must be prepended with the "symbol" identifier \, and the escape character () needs to be set in the message:, f 68;
#X text 102 286 All parameters EXCEPT label can be sent in a single message to Inlet 0 (leftmost inlet) like below (and this can be copied and pasted for easy initializing formatting)., f 89;
#X restore 326 378 pd \$0-how-to-set-values-externally;
#X msg 326 336 vis 1;
#X obj 326 357 s pd-\$0-how-to-set-values-externally;
#X obj 120 263 bng 15 250 50 0 empty empty empty 17 7 0 10 #fcfcfc #000000 #000000;
#X text 141 263 How to set canvas values externally;
#X text 891 18 All left-inlet messages;
#X text 984 47 Label text;
#X msg 636 48 symbol This\ is\ my\ label?;
#X obj 587 47 inlet;
#X obj 632 184 cnv 5 5 5 empty empty ↴ -3 3 0 24 #fcfcfc #606060 0;
#X connect 0 0 2 6;
#X connect 1 0 2 11;
#X connect 3 0 2 10;
#X connect 4 0 2 3;
#X connect 5 0 2 4;
#X connect 6 0 2 7;
#X connect 7 0 2 8;
#X connect 8 0 2 2;
#X connect 9 0 2 0;
#X connect 10 0 2 5;
#X connect 11 0 2 9;
#X connect 12 0 2 1;
#X connect 14 0 16 0;
#X connect 16 0 12 0;
#X connect 16 1 17 0;
#X connect 16 2 8 0;
#X connect 16 3 4 0;
#X connect 16 4 5 0;
#X connect 16 5 10 0;
#X connect 16 6 0 0;
#X connect 16 7 6 0;
#X connect 16 8 7 0;
#X connect 16 9 3 0;
#X connect 16 10 1 0;
#X connect 17 0 9 0;
#X connect 20 0 16 0;
#X connect 22 0 23 0;
#X connect 24 0 22 0;
#X connect 28 0 11 0;
#X connect 29 0 11 0;
#X coords 0 -1 1 1 300 190 2 100 100;
#X restore 25 27 pd graph;
#X obj 25 1 inlet;
#X connect 0 0 1 1;
#X connect 2 0 1 0;
#X restore 343 1251 pd canvas-ctrl;
#X obj 438 191 inlet;
#X obj 692 171 inlet;
#X text 735 170 Width;
#X obj 692 196 f 501;
#X msg 692 219 visw \$1;
#X text 481 189 Abstraction Name;
#X text 459 344 <-- Open to actively control canvas values \, or to see how to set values externally (as is done here), f 103;
#X obj 438 216 symbol;
#X obj 3 15 cnv 5 5 5 empty empty | 0 0 0 14 #fcfcfc #404040 0;
#X text 51 6 This is where the canvases get set. A VERY long list of values get sent to the subpatch [pd canvas-ctrl]. These properties can be addessed singularly through a key symbol (such as "size") and then a value., f 187;
#X text 51 47 [pd canvas-ctrl] also has a GUI which you can access by clicking on the object box. This is a good way to figure out canvas values., f 132;
#X text 51 104 Note that the canvas LABEL cannot be set with this list \, and must be set via the right inlet., f 95;
#X text 51 75 You can also click on the object box [pd how-to-use-canvas-ctrl] to see how to set canvas values with a message (currently the only way to save canvas values), f 160;
#X obj 343 279 loadbang;
#X obj 343 409 loadbang;
#X obj 692 244 s \$0-width;
#X obj 448 369 r \$0-width;
#X obj 450 465 r \$0-width;
#X obj 451 595 r \$0-width;
#X obj 343 527 loadbang;
#X obj 452 1075 r \$0-width;
#X obj 343 999 loadbang;
#X obj 453 1225 r \$0-width;
#X obj 343 1147 loadbang;
#X obj 3 985 cnv 5 5 5 empty empty | 0 0 0 14 #fcfcfc #404040 0;
#X obj 89 269 cnv 15 1200 1 empty empty Title 0 -15 0 18 #606060 #404040 0;
#X text 137 276 Canvas receive name:;
#X obj 88 398 cnv 15 1200 1 empty empty Section-Divider 0 -15 0 18 #606060 #404040 0;
#X obj 88 518 cnv 15 1200 1 empty empty Arguments 0 -15 0 18 #606060 #404040 0;
#X obj 88 987 cnv 15 1200 1 empty empty Notes 0 -15 0 18 #606060 #404040 0;
#X obj 88 1128 cnv 15 1200 1 empty empty Rev-History 0 -15 0 18 #606060 #404040 0;
#X obj 52 139 cnv 15 180 18 empty empty empty 20 12 0 14 #c4c4fc #404040 0;
#N canvas 1440 152 910 549 how-to-use-canvas-ctrl 0;
#X text 112 139 doll [0/1] - toggle on appending "\$0-" at the start of the recieve symbol, f 85;
#X text 112 192 visw [float] - the visible width of the canvas in pixels, f 85;
#X text 112 175 size [float] - the size of the clickable/dragable portion of the canvas in pixels, f 85;
#X text 112 212 vish [float] - the visible height of the canvas in pixels, f 85;
#X text 111 231 lblfon [0/1/2] - font designation for the canvas' label \, with [0] for Menlo \, [1] for, f 89;
#X text 131 245 Helvetica \, [2] for Times. Note that these fonts may be different on Windows or Linux, f 84;
#X text 111 263 lblsz [float] - font size designation for the canvas' label, f 85;
#X text 111 303 lbly [float] - y offset in pixels from the top left corner of the canvas, f 85;
#X text 111 283 lblx [float] - x offset (horizontal) in pixels from the top left corner of the canvas, f 85;
#X text 4 119 To set the values for your canvas object externally \, send messages with the following signifiers to the 0 (leftmost) inlet:, f 124;
#X msg 31 426 doll 1 \, rec myCanvas \, size 15 \, visw 500 \, vish 30 \, lblfon 0 \, lblsz 18 \, lblx 9 \, lbly 13 \, bgclr 10 \, lblclr 21, f 106;
#X text 111 157 rec [symbol] - receive symbol for the canvas, f 85;
#X obj 90 331 cnv 5 5 5 empty \$0-canvas-format-helper-boldstatement1 Please\ note\ that\ the\ $-0\ designation\ (1\ or\ 0)\ MUST\ be\ sent\ first\,\ followed\ by\ the\ canvas\  1 9 0 12 #fcfcfc #fc0400 0;
#N canvas 632 143 808 250 init 0;
#X msg 126 74 label \$1;
#X msg 489 71 label \$1;
#X obj 126 97 s \$0-canvas-format-helper-boldstatement1;
#X obj 489 94 s \$0-canvas-format-helper-boldstatement2;
#X obj 26 17 loadbang;
#X msg 489 41 symbol receive\ symbol!\ Failure\ to\ do\ so\ will\ cause\ incorrect\ parameter\ dispatching!;
#X msg 126 43 symbol Please\\\ note\\\ that\\\ the\\\ $-0\\\ designation\\\ (1\\\ or\\\ 0)\\\ MUST\\\ be\\\ sent\\\ first\\\,\\\ followed\\\ by\\\ the\\\ canvas\\\ ;
#X obj 98 203 s \$0-canvas-format-helper-title;
#X msg 54 180 label \$1;
#X msg 54 148 symbol Using\ [pd\ canvas-ctrl]\ and\ setting\ values\ externally;
#X connect 0 0 2 0;
#X connect 1 0 3 0;
#X connect 4 0 5 0;
#X connect 4 0 6 0;
#X connect 5 0 1 0;
#X connect 6 0 0 0;
#X connect 8 0 7 0;
#X connect 9 0 8 0;
#X restore 704 13 pd init;
#X obj 90 347 cnv 5 5 5 empty \$0-canvas-format-helper-boldstatement2 receive\ symbol!\ Failure\ to\ do\ so\ will\ cause\ incorrect\ parameter\ dispatching! 1 9 0 12 #fcfcfc #fc0400 0;
#X msg 112 452 symbol this\ is\ my\ label!;
#X text 296 447 The label parameter must be sent separately to Inlet 1 (rightmost inlet). The message must be prepended with the "symbol" identifier \, and the escape character () needs to be set in the message:, f 68;
#X text 102 376 All parameters EXCEPT label can be sent in a single message to Inlet 0 (leftmost inlet) like below (and this can be copied and pasted for easy initializing formatting)., f 89;
#X obj 148 18 cnv 5 5 5 empty \$0-canvas-format-helper-title Using\ [pd\ canvas-ctrl]\ and\ setting\ values\ externally 1 9 0 12 #fcfcfc #fc0400 0;
#X text 6 43 By inserting a canvas into your patch \, giving it a RECEIVE NAME (via properties) \, inserting the [canvas-ctrl] object into your patch \, and finally telling [canvas-ctrl] the receive name via the message [rec "receive name"( to the left inlet (type the text between "[(" into a message box \, no quotes \, substituting "receive name" for your name. *IF* your receive name has "\$0-" as a prefix (common practice for [send] and [receive] names) \, you need to FIRST send [canvas-ctrl] the message [doll 1( which tells the object that the canbas name has "\$0-" at the start of its receive name., f 123;
#X restore 52 140 pd how-to-use-canvas-ctrl;
#X text 268 140 Click here to explore how to change the canvas properties with a message, f 72;
#X obj 244 145 cnv 5 5 5 empty empty ⟵ -3 3 0 30 #fcfcfc #9c00fc 0;
#X text 131 301 \$0-abstrPatchTitleBar;
#X msg 343 1028 doll 1 \, rec abstrPatchSecLabelNotes \, size 2 \, visw 501 \, vish 3 \, lblfon 0 \, lblsz 16 \, lblx 20 \, lbly 15 \, bgclr 1 \, lblclr 12, f 123;
#X text 127 539 \$0-abstrPatchSecLabelArgs;
#X msg 343 1179 doll 1 \, rec abstrPatchSecLabelRevHist \, size 2 \, visw 501 \, vish 3 \, lblfon 0 \, lblsz 16 \, lblx 20 \, lbly 15 \, bgclr 1 \, lblclr 12, f 123;
#X msg 438 1202 symbol Revision\ History;
#X msg 438 1052 symbol Notes;
#N canvas 673 23 349 258 canvas-ctrl 0;
#X obj 291 1 inlet;
#N canvas 248 270 1089 459 graph 0;
#X floatatom 180 241 5 0 0 0 Lbl-Sz - - 0;
#X floatatom 273 241 5 0 29 0 Lbl-Clr - - 0;
#N canvas 32 23 1408 389 label-properties 0;
#X floatatom 314 72 3 18 100 0 - - - 0;
#X msg 314 99 size \$1;
#X obj 400 121 pack 100 60, f 18;
#X obj 491 93 t b f;
#X floatatom 491 68 4 18 100 0 - - - 0;
#X floatatom 400 68 4 18 100 0 - - - 0;
#X msg 400 148 vis_size \$1 \$2;
#X text 442 41 w/x;
#X text 532 41 h/y;
#X floatatom 589 116 4 0 3 0 - - - 0;
#X obj 721 135 t b f;
#X floatatom 721 116 5 5 50 0 - - - 0;
#X msg 589 185 label_font \$1 \$2;
#X text 632 41 type;
#X text 760 40 size;
#X obj 589 64 vradio 15 1 0 3 empty empty empty 0 -8 0 10 #fcfcfc #000000 #000000 0;
#X text 605 63 DejaVu Sans Mono;
#X text 605 78 Helvetica;
#X text 606 93 Times;
#X floatatom 817 71 4 -100 250 0 - - - 0;
#X obj 889 98 t b f;
#X floatatom 889 71 5 -150 150 0 - - - 0;
#X msg 817 148 label_pos \$1 \$2;
#X text 856 41 x;
#X text 929 41 y;
#X obj 817 126 pack 17 20, f 17;
#X obj 589 164 pack 0 25, f 24;
#X msg 973 129 label \$1;
#X floatatom 1191 70 3 0 29 1 bgColor - - 0;
#X floatatom 1295 70 3 0 29 1 lblColor - - 0;
#X obj 1295 92 t b f;
#X msg 1191 145 color \$1 \$2 \$3;
#X obj 1191 124 pack 1 22 22, f 14;
#X text 1170 18 Color Presets (0-29):;
#X obj 24 42 inlet;
#X obj 8 42 cnv 14 14 14 empty empty 0 4 8 0 12 #606060 #dcdcdc 0;
#X symbolatom 24 210 10 0 0 0 - - - 0;
#X obj 588 330 send, f 13;
#X obj 400 42 inlet;
#X obj 314 42 inlet;
#X obj 491 42 inlet;
#X obj 155 42 cnv 14 14 14 empty empty 1 4 8 0 12 #606060 #dcdcdc 0;
#X obj 297 42 cnv 14 14 14 empty empty 2 4 8 0 12 #606060 #dcdcdc 0;
#X obj 384 42 cnv 14 14 14 empty empty 3 4 8 0 12 #606060 #dcdcdc 0;
#X obj 721 42 inlet;
#X obj 589 42 inlet;
#X obj 817 42 inlet;
#X obj 476 42 cnv 14 14 14 empty empty 4 4 8 0 12 #606060 #dcdcdc 0;
#X obj 573 42 cnv 14 14 14 empty empty 5 4 8 0 12 #606060 #dcdcdc 0;
#X obj 703 42 cnv 14 14 14 empty empty 6 4 8 0 12 #606060 #dcdcdc 0;
#X text 315 18 Size;
#X text 421 18 Visible Size;
#X text 635 18 Label Font;
#X text 824 18 Label Offset;
#X obj 889 42 inlet;
#X obj 800 42 cnv 14 14 14 empty empty 7 4 8 0 12 #606060 #dcdcdc 0;
#X msg 1052 89 symbol my\ label;
#X symbolatom 973 92 10 0 0 0 - - - 0;
#X obj 973 42 inlet;
#X obj 872 42 cnv 14 14 14 empty empty 8 4 8 0 12 #606060 #dcdcdc 0;
#X msg 973 70 symbol \$1;
#X text 1007 18 Label Text;
#X obj 1191 42 inlet;
#X obj 958 42 cnv 14 14 14 empty empty 9 4 8 0 12 #606060 #dcdcdc 0;
#X obj 1295 42 inlet;
#X obj 1174 42 cnv 14 14 14 empty empty 10 0 8 0 12 #606060 #dcdcdc 0;
#X text 0 18 Canvas Name;
#X obj 284 2 cnv 5 1 260 empty empty empty 20 12 0 14 #7c7c7c #404040 0;
#X obj 738 322 cnv 2 1400 40 empty \$0-test_canvas tdh.util.antiAliasFilter~ 20 15 0 16 #a0a0a0 #202020 0;
#X obj 415 328 s \$0-test_canvas;
#X obj 210 187 spigot;
#X obj 170 88 tgl 15 0 empty empty empty 17 7 0 10 #fcfcfc #000000 #000000 0 1;
#X obj 249 134 == 1;
#X obj 101 135 == 0;
#X obj 144 134 list append \$0;
#X msg 144 157 symbol \$2-\$1;
#X msg 24 136 symbol \$1;
#X obj 24 167 spigot;
#X obj 170 42 inlet;
#X obj 1279 42 cnv 14 14 14 empty empty 11 0 8 0 12 #606060 #dcdcdc 0;
#X text 136 18 Add "\$0" option;
#X obj 374 2 cnv 5 1 260 empty empty empty 20 12 0 14 #7c7c7c #404040 0;
#X obj 561 2 cnv 5 1 260 empty empty empty 20 12 0 14 #7c7c7c #404040 0;
#X obj 791 2 cnv 5 1 260 empty empty empty 20 12 0 14 #7c7c7c #404040 0;
#X obj 944 2 cnv 5 1 260 empty empty empty 20 12 0 14 #7c7c7c #404040 0;
#X obj 1164 2 cnv 5 1 260 empty empty empty 20 12 0 14 #7c7c7c #404040 0;
#X connect 0 0 1 0;
#X connect 1 0 37 0;
#X connect 1 0 69 0;
#X connect 2 0 6 0;
#X connect 3 0 2 0;
#X connect 3 1 2 1;
#X connect 4 0 3 0;
#X connect 5 0 2 0;
#X connect 6 0 37 0;
#X connect 6 0 69 0;
#X connect 9 0 26 0;
#X connect 10 0 26 0;
#X connect 10 1 26 1;
#X connect 11 0 10 0;
#X connect 12 0 37 0;
#X connect 12 0 69 0;
#X connect 15 0 9 0;
#X connect 19 0 25 0;
#X connect 20 0 25 0;
#X connect 20 1 25 1;
#X connect 21 0 20 0;
#X connect 22 0 37 0;
#X connect 22 0 69 0;
#X connect 25 0 22 0;
#X connect 26 0 12 0;
#X connect 27 0 37 0;
#X connect 27 0 69 0;
#X connect 28 0 32 0;
#X connect 29 0 30 0;
#X connect 30 0 32 0;
#X connect 30 1 32 2;
#X connect 31 0 37 0;
#X connect 31 0 69 0;
#X connect 32 0 31 0;
#X connect 34 0 74 0;
#X connect 34 0 76 0;
#X connect 36 0 37 1;
#X connect 38 0 5 0;
#X connect 39 0 0 0;
#X connect 40 0 4 0;
#X connect 44 0 11 0;
#X connect 45 0 15 0;
#X connect 46 0 19 0;
#X connect 54 0 21 0;
#X connect 56 0 27 0;
#X connect 57 0 27 0;
#X connect 58 0 60 0;
#X connect 60 0 57 0;
#X connect 62 0 28 0;
#X connect 64 0 29 0;
#X connect 70 0 36 0;
#X connect 71 0 72 0;
#X connect 71 0 73 0;
#X connect 72 0 70 1;
#X connect 73 0 77 1;
#X connect 74 0 75 0;
#X connect 75 0 70 0;
#X connect 76 0 77 0;
#X connect 77 0 36 0;
#X connect 78 0 71 0;
#X restore 6 354 pd label-properties;
#X f 45;
#X floatatom 273 219 5 0 29 0 BG-Clr - - 0;
#X floatatom 180 174 5 0 0 0 Vis-Sz-W - - 0;
#X floatatom 181 198 5 0 0 0 Vis-Sz-H - - 0;
#X floatatom 271 150 5 0 0 0 Lbl-X - - 0;
#X floatatom 272 174 5 0 0 0 Lbl-Y - - 0;
#X floatatom 180 150 5 0 0 0 Size - - 0;
#X symbolatom 214 127 10 0 0 0 CnvReceiveSymbol - - 0;
#X floatatom 181 219 5 0 2 0 Lbl-Fon - - 0;
#X symbolatom 274 195 10 0 0 0 Lbl-Txt - - 0;
#X obj 295 128 tgl 15 0 empty empty Append_0 20 7 0 10 #fcfcfc #fc8000 #000000 0 1;
#X text 194 103 Label Properties;
#X obj 28 18 inlet;
#X obj 414 223 cnv 15 500 30 empty \$0-myCanvas This\ is\ my\ label? 9 13 0 18 #e0e0e0 #606060 0;
#X obj 28 54 route doll rec size visw vish lblfon lblsz lblx lbly bgclr lblclr, f 66;
#X obj 56 93 symbol;
#X text 6 4 _;
#X text 479 173 dollarsign0-myCanvas;
#X msg 74 18 doll 1 \, rec myCanvas \, size 15 \, visw 50 \, vish 60 \, lblfon 0 \, lblsz 18 \, lblx 9 \, lbly 13 \, bgclr 10 \, lblclr 21, f 106;
#N canvas 240 66 752 410 \$0-how-to-set-values-externally 0;
#X text 112 49 doll [0/1] - toggle on appending "\$0-" at the start of the recieve symbol, f 85;
#X text 112 102 visw [float] - the visible width of the canvas in pixels, f 85;
#X text 112 85 size [float] - the size of the clickable/dragable portion of the canvas in pixels, f 85;
#X text 112 122 vish [float] - the visible height of the canvas in pixels, f 85;
#X text 111 141 lblfon [0/1/2] - font designation for the canvas' label \, with [0] for Menlo \, [1] for, f 89;
#X text 131 155 Helvetica \, [2] for Times. Note that these fonts may be different on Windows or Linux, f 84;
#X text 111 173 lblsz [float] - font size designation for the canvas' label, f 85;
#X text 111 213 lbly [float] - y offset in pixels from the top left corner of the canvas, f 85;
#X text 111 193 lblx [float] - x offset (horizontal) in pixels from the top left corner of the canvas, f 85;
#X text 4 29 To set the values for your canvas object externally \, send messages with the following signifiers to the 0 (leftmost) inlet:, f 124;
#X msg 31 336 doll 1 \, rec myCanvas \, size 15 \, visw 500 \, vish 30 \, lblfon 0 \, lblsz 18 \, lblx 9 \, lbly 13 \, bgclr 10 \, lblclr 21, f 106;
#X text 111 67 rec [symbol] - receive symbol for the canvas, f 85;
#X obj 90 241 cnv 5 5 5 empty \$0-canvas-format-helper-boldstatement1 Please\ note\ that\ the\ $-0\ designation\ (1\ or\ 0)\ MUST\ be\ sent\ first\,\ followed\ by\ the\ canvas\  1 9 0 12 #fcfcfc #fc0400 0;
#N canvas 2423 143 808 250 init 0;
#X msg 30 102 label \$1;
#X msg 419 120 label \$1;
#X obj 29 147 s \$0-canvas-format-helper-boldstatement1;
#X obj 418 164 s \$0-canvas-format-helper-boldstatement2;
#X obj 233 15 loadbang;
#X msg 420 51 symbol receive\ symbol!\ Failure\ to\ do\ so\ will\ cause\ incorrect\ parameter\ dispatching!;
#X msg 26 43 symbol Please\\\ note\\\ that\\\ the\\\ $-0\\\ designation\\\ (1\\\ or\\\ 0)\\\ MUST\\\ be\\\ sent\\\ first\\\,\\\ followed\\\ by\\\ the\\\ canvas\\\ ;
#X connect 0 0 2 0;
#X connect 1 0 3 0;
#X connect 4 0 5 0;
#X connect 4 0 6 0;
#X connect 5 0 1 0;
#X connect 6 0 0 0;
#X restore 659 9 pd init;
#X obj 90 257 cnv 5 5 5 empty \$0-canvas-format-helper-boldstatement2 receive\ symbol!\ Failure\ to\ do\ so\ will\ cause\ incorrect\ parameter\ dispatching! 1 9 0 12 #fcfcfc #fc0400 0;
#X msg 112 362 symbol this\ is\ my\ label!;
#X text 296 357 The label parameter must be sent separately to Inlet 1 (rightmost inlet). The message must be prepended with the "symbol" identifier \, and the escape character () needs to be set in the message:, f 68;
#X text 102 286 All parameters EXCEPT label can be sent in a single message to Inlet 0 (leftmost inlet) like below (and this can be copied and pasted for easy initializing formatting)., f 89;
#X restore 326 378 pd \$0-how-to-set-values-externally;
#X msg 326 336 vis 1;
#X obj 326 357 s pd-\$0-how-to-set-values-externally;
#X obj 120 263 bng 15 250 50 0 empty empty empty 17 7 0 10 #fcfcfc #000000 #000000;
#X text 141 263 How to set canvas values externally;
#X text 891 18 All left-inlet messages;
#X text 984 47 Label text;
#X msg 636 48 symbol This\ is\ my\ label?;
#X obj 587 47 inlet;
#X obj 632 184 cnv 5 5 5 empty empty ↴ -3 3 0 24 #fcfcfc #606060 0;
#X connect 0 0 2 6;
#X connect 1 0 2 11;
#X connect 3 0 2 10;
#X connect 4 0 2 3;
#X connect 5 0 2 4;
#X connect 6 0 2 7;
#X connect 7 0 2 8;
#X connect 8 0 2 2;
#X connect 9 0 2 0;
#X connect 10 0 2 5;
#X connect 11 0 2 9;
#X connect 12 0 2 1;
#X connect 14 0 16 0;
#X connect 16 0 12 0;
#X connect 16 1 17 0;
#X connect 16 2 8 0;
#X connect 16 3 4 0;
#X connect 16 4 5 0;
#X connect 16 5 10 0;
#X connect 16 6 0 0;
#X connect 16 7 6 0;
#X connect 16 8 7 0;
#X connect 16 9 3 0;
#X connect 16 10 1 0;
#X connect 17 0 9 0;
#X connect 20 0 16 0;
#X connect 22 0 23 0;
#X connect 24 0 22 0;
#X connect 28 0 11 0;
#X connect 29 0 11 0;
#X coords 0 -1 1 1 300 190 2 100 100;
#X restore 25 27 pd graph;
#X obj 25 1 inlet;
#X connect 0 0 1 1;
#X connect 2 0 1 0;
#X restore 343 725 pd canvas-ctrl;
#X obj 451 725 r \$0-width;
#X obj 343 657 loadbang;
#X obj 88 648 cnv 15 1200 1 empty empty Inlets 0 -15 0 18 #606060 #404040 0;
#X text 127 669 \$0-abstrPatchSecLabelArgs;
#N canvas 673 23 349 258 canvas-ctrl 0;
#X obj 291 1 inlet;
#N canvas 248 270 1089 459 graph 0;
#X floatatom 180 241 5 0 0 0 Lbl-Sz - - 0;
#X floatatom 273 241 5 0 29 0 Lbl-Clr - - 0;
#N canvas 32 23 1408 389 label-properties 0;
#X floatatom 314 72 3 18 100 0 - - - 0;
#X msg 314 99 size \$1;
#X obj 400 121 pack 100 60, f 18;
#X obj 491 93 t b f;
#X floatatom 491 68 4 18 100 0 - - - 0;
#X floatatom 400 68 4 18 100 0 - - - 0;
#X msg 400 148 vis_size \$1 \$2;
#X text 442 41 w/x;
#X text 532 41 h/y;
#X floatatom 589 116 4 0 3 0 - - - 0;
#X obj 721 135 t b f;
#X floatatom 721 116 5 5 50 0 - - - 0;
#X msg 589 185 label_font \$1 \$2;
#X text 632 41 type;
#X text 760 40 size;
#X obj 589 64 vradio 15 1 0 3 empty empty empty 0 -8 0 10 #fcfcfc #000000 #000000 0;
#X text 605 63 DejaVu Sans Mono;
#X text 605 78 Helvetica;
#X text 606 93 Times;
#X floatatom 817 71 4 -100 250 0 - - - 0;
#X obj 889 98 t b f;
#X floatatom 889 71 5 -150 150 0 - - - 0;
#X msg 817 148 label_pos \$1 \$2;
#X text 856 41 x;
#X text 929 41 y;
#X obj 817 126 pack 17 20, f 17;
#X obj 589 164 pack 0 25, f 24;
#X msg 973 129 label \$1;
#X floatatom 1191 70 3 0 29 1 bgColor - - 0;
#X floatatom 1295 70 3 0 29 1 lblColor - - 0;
#X obj 1295 92 t b f;
#X msg 1191 145 color \$1 \$2 \$3;
#X obj 1191 124 pack 1 22 22, f 14;
#X text 1170 18 Color Presets (0-29):;
#X obj 24 42 inlet;
#X obj 8 42 cnv 14 14 14 empty empty 0 4 8 0 12 #606060 #dcdcdc 0;
#X symbolatom 24 210 10 0 0 0 - - - 0;
#X obj 588 330 send, f 13;
#X obj 400 42 inlet;
#X obj 314 42 inlet;
#X obj 491 42 inlet;
#X obj 155 42 cnv 14 14 14 empty empty 1 4 8 0 12 #606060 #dcdcdc 0;
#X obj 297 42 cnv 14 14 14 empty empty 2 4 8 0 12 #606060 #dcdcdc 0;
#X obj 384 42 cnv 14 14 14 empty empty 3 4 8 0 12 #606060 #dcdcdc 0;
#X obj 721 42 inlet;
#X obj 589 42 inlet;
#X obj 817 42 inlet;
#X obj 476 42 cnv 14 14 14 empty empty 4 4 8 0 12 #606060 #dcdcdc 0;
#X obj 573 42 cnv 14 14 14 empty empty 5 4 8 0 12 #606060 #dcdcdc 0;
#X obj 703 42 cnv 14 14 14 empty empty 6 4 8 0 12 #606060 #dcdcdc 0;
#X text 315 18 Size;
#X text 421 18 Visible Size;
#X text 635 18 Label Font;
#X text 824 18 Label Offset;
#X obj 889 42 inlet;
#X obj 800 42 cnv 14 14 14 empty empty 7 4 8 0 12 #606060 #dcdcdc 0;
#X msg 1052 89 symbol my\ label;
#X symbolatom 973 92 10 0 0 0 - - - 0;
#X obj 973 42 inlet;
#X obj 872 42 cnv 14 14 14 empty empty 8 4 8 0 12 #606060 #dcdcdc 0;
#X msg 973 70 symbol \$1;
#X text 1007 18 Label Text;
#X obj 1191 42 inlet;
#X obj 958 42 cnv 14 14 14 empty empty 9 4 8 0 12 #606060 #dcdcdc 0;
#X obj 1295 42 inlet;
#X obj 1174 42 cnv 14 14 14 empty empty 10 0 8 0 12 #606060 #dcdcdc 0;
#X text 0 18 Canvas Name;
#X obj 284 2 cnv 5 1 260 empty empty empty 20 12 0 14 #7c7c7c #404040 0;
#X obj 738 322 cnv 2 1400 40 empty \$0-test_canvas tdh.util.antiAliasFilter~ 20 15 0 16 #a0a0a0 #202020 0;
#X obj 415 328 s \$0-test_canvas;
#X obj 210 187 spigot;
#X obj 170 88 tgl 15 0 empty empty empty 17 7 0 10 #fcfcfc #000000 #000000 0 1;
#X obj 249 134 == 1;
#X obj 101 135 == 0;
#X obj 144 134 list append \$0;
#X msg 144 157 symbol \$2-\$1;
#X msg 24 136 symbol \$1;
#X obj 24 167 spigot;
#X obj 170 42 inlet;
#X obj 1279 42 cnv 14 14 14 empty empty 11 0 8 0 12 #606060 #dcdcdc 0;
#X text 136 18 Add "\$0" option;
#X obj 374 2 cnv 5 1 260 empty empty empty 20 12 0 14 #7c7c7c #404040 0;
#X obj 561 2 cnv 5 1 260 empty empty empty 20 12 0 14 #7c7c7c #404040 0;
#X obj 791 2 cnv 5 1 260 empty empty empty 20 12 0 14 #7c7c7c #404040 0;
#X obj 944 2 cnv 5 1 260 empty empty empty 20 12 0 14 #7c7c7c #404040 0;
#X obj 1164 2 cnv 5 1 260 empty empty empty 20 12 0 14 #7c7c7c #404040 0;
#X connect 0 0 1 0;
#X connect 1 0 37 0;
#X connect 1 0 69 0;
#X connect 2 0 6 0;
#X connect 3 0 2 0;
#X connect 3 1 2 1;
#X connect 4 0 3 0;
#X connect 5 0 2 0;
#X connect 6 0 37 0;
#X connect 6 0 69 0;
#X connect 9 0 26 0;
#X connect 10 0 26 0;
#X connect 10 1 26 1;
#X connect 11 0 10 0;
#X connect 12 0 37 0;
#X connect 12 0 69 0;
#X connect 15 0 9 0;
#X connect 19 0 25 0;
#X connect 20 0 25 0;
#X connect 20 1 25 1;
#X connect 21 0 20 0;
#X connect 22 0 37 0;
#X connect 22 0 69 0;
#X connect 25 0 22 0;
#X connect 26 0 12 0;
#X connect 27 0 37 0;
#X connect 27 0 69 0;
#X connect 28 0 32 0;
#X connect 29 0 30 0;
#X connect 30 0 32 0;
#X connect 30 1 32 2;
#X connect 31 0 37 0;
#X connect 31 0 69 0;
#X connect 32 0 31 0;
#X connect 34 0 74 0;
#X connect 34 0 76 0;
#X connect 36 0 37 1;
#X connect 38 0 5 0;
#X connect 39 0 0 0;
#X connect 40 0 4 0;
#X connect 44 0 11 0;
#X connect 45 0 15 0;
#X connect 46 0 19 0;
#X connect 54 0 21 0;
#X connect 56 0 27 0;
#X connect 57 0 27 0;
#X connect 58 0 60 0;
#X connect 60 0 57 0;
#X connect 62 0 28 0;
#X connect 64 0 29 0;
#X connect 70 0 36 0;
#X connect 71 0 72 0;
#X connect 71 0 73 0;
#X connect 72 0 70 1;
#X connect 73 0 77 1;
#X connect 74 0 75 0;
#X connect 75 0 70 0;
#X connect 76 0 77 0;
#X connect 77 0 36 0;
#X connect 78 0 71 0;
#X restore 6 354 pd label-properties;
#X f 45;
#X floatatom 273 219 5 0 29 0 BG-Clr - - 0;
#X floatatom 180 174 5 0 0 0 Vis-Sz-W - - 0;
#X floatatom 181 198 5 0 0 0 Vis-Sz-H - - 0;
#X floatatom 271 150 5 0 0 0 Lbl-X - - 0;
#X floatatom 272 174 5 0 0 0 Lbl-Y - - 0;
#X floatatom 180 150 5 0 0 0 Size - - 0;
#X symbolatom 214 127 10 0 0 0 CnvReceiveSymbol - - 0;
#X floatatom 181 219 5 0 2 0 Lbl-Fon - - 0;
#X symbolatom 274 195 10 0 0 0 Lbl-Txt - - 0;
#X obj 295 128 tgl 15 0 empty empty Append_0 20 7 0 10 #fcfcfc #fc8000 #000000 0 1;
#X text 194 103 Label Properties;
#X obj 28 18 inlet;
#X obj 414 223 cnv 15 500 30 empty \$0-myCanvas This\ is\ my\ label? 9 13 0 18 #e0e0e0 #606060 0;
#X obj 28 54 route doll rec size visw vish lblfon lblsz lblx lbly bgclr lblclr, f 66;
#X obj 56 93 symbol;
#X text 6 4 _;
#X text 479 173 dollarsign0-myCanvas;
#X msg 74 18 doll 1 \, rec myCanvas \, size 15 \, visw 50 \, vish 60 \, lblfon 0 \, lblsz 18 \, lblx 9 \, lbly 13 \, bgclr 10 \, lblclr 21, f 106;
#N canvas 240 66 752 410 \$0-how-to-set-values-externally 0;
#X text 112 49 doll [0/1] - toggle on appending "\$0-" at the start of the recieve symbol, f 85;
#X text 112 102 visw [float] - the visible width of the canvas in pixels, f 85;
#X text 112 85 size [float] - the size of the clickable/dragable portion of the canvas in pixels, f 85;
#X text 112 122 vish [float] - the visible height of the canvas in pixels, f 85;
#X text 111 141 lblfon [0/1/2] - font designation for the canvas' label \, with [0] for Menlo \, [1] for, f 89;
#X text 131 155 Helvetica \, [2] for Times. Note that these fonts may be different on Windows or Linux, f 84;
#X text 111 173 lblsz [float] - font size designation for the canvas' label, f 85;
#X text 111 213 lbly [float] - y offset in pixels from the top left corner of the canvas, f 85;
#X text 111 193 lblx [float] - x offset (horizontal) in pixels from the top left corner of the canvas, f 85;
#X text 4 29 To set the values for your canvas object externally \, send messages with the following signifiers to the 0 (leftmost) inlet:, f 124;
#X msg 31 336 doll 1 \, rec myCanvas \, size 15 \, visw 500 \, vish 30 \, lblfon 0 \, lblsz 18 \, lblx 9 \, lbly 13 \, bgclr 10 \, lblclr 21, f 106;
#X text 111 67 rec [symbol] - receive symbol for the canvas, f 85;
#X obj 90 241 cnv 5 5 5 empty \$0-canvas-format-helper-boldstatement1 Please\ note\ that\ the\ $-0\ designation\ (1\ or\ 0)\ MUST\ be\ sent\ first\,\ followed\ by\ the\ canvas\  1 9 0 12 #fcfcfc #fc0400 0;
#N canvas 2423 143 808 250 init 0;
#X msg 30 102 label \$1;
#X msg 419 120 label \$1;
#X obj 29 147 s \$0-canvas-format-helper-boldstatement1;
#X obj 418 164 s \$0-canvas-format-helper-boldstatement2;
#X obj 233 15 loadbang;
#X msg 420 51 symbol receive\ symbol!\ Failure\ to\ do\ so\ will\ cause\ incorrect\ parameter\ dispatching!;
#X msg 26 43 symbol Please\\\ note\\\ that\\\ the\\\ $-0\\\ designation\\\ (1\\\ or\\\ 0)\\\ MUST\\\ be\\\ sent\\\ first\\\,\\\ followed\\\ by\\\ the\\\ canvas\\\ ;
#X connect 0 0 2 0;
#X connect 1 0 3 0;
#X connect 4 0 5 0;
#X connect 4 0 6 0;
#X connect 5 0 1 0;
#X connect 6 0 0 0;
#X restore 659 9 pd init;
#X obj 90 257 cnv 5 5 5 empty \$0-canvas-format-helper-boldstatement2 receive\ symbol!\ Failure\ to\ do\ so\ will\ cause\ incorrect\ parameter\ dispatching! 1 9 0 12 #fcfcfc #fc0400 0;
#X msg 112 362 symbol this\ is\ my\ label!;
#X text 296 357 The label parameter must be sent separately to Inlet 1 (rightmost inlet). The message must be prepended with the "symbol" identifier \, and the escape character () needs to be set in the message:, f 68;
#X text 102 286 All parameters EXCEPT label can be sent in a single message to Inlet 0 (leftmost inlet) like below (and this can be copied and pasted for easy initializing formatting)., f 89;
#X restore 326 378 pd \$0-how-to-set-values-externally;
#X msg 326 336 vis 1;
#X obj 326 357 s pd-\$0-how-to-set-values-externally;
#X obj 120 263 bng 15 250 50 0 empty empty empty 17 7 0 10 #fcfcfc #000000 #000000;
#X text 141 263 How to set canvas values externally;
#X text 891 18 All left-inlet messages;
#X text 984 47 Label text;
#X msg 636 48 symbol This\ is\ my\ label?;
#X obj 587 47 inlet;
#X obj 632 184 cnv 5 5 5 empty empty ↴ -3 3 0 24 #fcfcfc #606060 0;
#X connect 0 0 2 6;
#X connect 1 0 2 11;
#X connect 3 0 2 10;
#X connect 4 0 2 3;
#X connect 5 0 2 4;
#X connect 6 0 2 7;
#X connect 7 0 2 8;
#X connect 8 0 2 2;
#X connect 9 0 2 0;
#X connect 10 0 2 5;
#X connect 11 0 2 9;
#X connect 12 0 2 1;
#X connect 14 0 16 0;
#X connect 16 0 12 0;
#X connect 16 1 17 0;
#X connect 16 2 8 0;
#X connect 16 3 4 0;
#X connect 16 4 5 0;
#X connect 16 5 10 0;
#X connect 16 6 0 0;
#X connect 16 7 6 0;
#X connect 16 8 7 0;
#X connect 16 9 3 0;
#X connect 16 10 1 0;
#X connect 17 0 9 0;
#X connect 20 0 16 0;
#X connect 22 0 23 0;
#X connect 24 0 22 0;
#X connect 28 0 11 0;
#X connect 29 0 11 0;
#X coords 0 -1 1 1 300 190 2 100 100;
#X restore 25 27 pd graph;
#X obj 25 1 inlet;
#X connect 0 0 1 1;
#X connect 2 0 1 0;
#X restore 343 865 pd canvas-ctrl;
#X obj 451 865 r \$0-width;
#X obj 343 797 loadbang;
#X obj 88 788 cnv 15 1200 1 empty empty Outlets 0 -15 0 18 #606060 #404040 0;
#X text 127 809 \$0-abstrPatchSecLabelArgs;
#X msg 438 702 symbol Inlets;
#X msg 343 679 doll 1 \, rec abstrPatchSecLabelInlets \, size 2 \, visw 501 \, vish 3 \, lblfon 0 \, lblsz 16 \, lblx 20 \, lbly 15 \, bgclr 1 \, lblclr 12, f 123;
#X msg 343 548 doll 1 \, rec abstrPatchSecLabelArgs \, size 2 \, visw 501 \, vish 3 \, lblfon 0 \, lblsz 16 \, lblx 20 \, lbly 15 \, bgclr 1 \, lblclr 12, f 123;
#X msg 438 572 symbol Arguments;
#X msg 343 819 doll 1 \, rec abstrPatchSecLabelOutlets \, size 2 \, visw 501 \, vish 3 \, lblfon 0 \, lblsz 16 \, lblx 20 \, lbly 15 \, bgclr 1 \, lblclr 12, f 123;
#X msg 438 842 symbol Outlets;
#X msg 343 309 doll 1 \, rec abstrPatchTitleBar \, size 15 \, visw 501 \, vish 40 \, lblfon 0 \, lblsz 18 \, lblx 9 \, lbly 20 \, bgclr 18 \, lblclr 1, f 123;
#X msg 343 433 doll 1 \, rec abstrPatchSecDivider \, size 2 \, visw 501 \, vish 2 \, lblfon 0 \, lblsz 18 \, lblx 9 \, lbly 20 \, bgclr 1 \, lblclr 12, f 123;
#X connect 8 0 15 0;
#X connect 9 0 11 0;
#X connect 11 0 12 0;
#X connect 12 0 23 0;
#X connect 15 0 3 1;
#X connect 21 0 65 0;
#X connect 22 0 66 0;
#X connect 24 0 3 0;
#X connect 25 0 4 0;
#X connect 26 0 5 0;
#X connect 27 0 61 0;
#X connect 27 0 62 0;
#X connect 28 0 6 0;
#X connect 29 0 44 0;
#X connect 29 0 48 0;
#X connect 30 0 7 0;
#X connect 31 0 46 0;
#X connect 31 0 47 0;
#X connect 44 0 6 0;
#X connect 46 0 7 0;
#X connect 47 0 7 1;
#X connect 48 0 6 1;
#X connect 50 0 49 0;
#X connect 51 0 60 0;
#X connect 51 0 59 0;
#X connect 55 0 54 0;
#X connect 56 0 63 0;
#X connect 56 0 64 0;
#X connect 59 0 49 1;
#X connect 60 0 49 0;
#X connect 61 0 5 0;
#X connect 62 0 5 1;
#X connect 63 0 54 0;
#X connect 64 0 54 1;
#X connect 65 0 3 0;
#X connect 66 0 4 0;
#X restore 166 244 pd abstr-cnv-set;
#X f 30;
#X obj 147 196 cnv 5 5 5 empty empty ⟶ -3 3 0 30 #fcfcfc #000000 0;
#X obj 414 198 cnv 5 5 5 empty empty ⟵ -3 3 0 30 #fcfcfc #000000 0;
#X text 435 186 EDIT HERE to change patch WIDTH, f 16;
#X text 16 12 This subpatch (and nested subpatches) helps set the uniform titles and graphics for ABSTRACTIONS., f 84;
#X text 10 180 EDIT HERE text after "symbol" to change the abstraction's DISPLAY NAME, f 20;
#X text 13 60 The two most commonly changed fields \, DISPLAY NAME and WIDTH can be changed by editing the [message( boxes below. Text in [message( objects get saved to the patch., f 84;
#X msg 165 194 symbol tdh.util.antiAliasFilter~;
#X msg 373 196 1400;
#X connect 1 0 2 0;
#X connect 2 0 10 0;
#X connect 2 0 11 0;
#X connect 10 0 3 0;
#X connect 11 0 3 1;
#X restore 1313 51 pd abstr-init;
#X obj 19 107 cnv 14 18 14 empty empty 0 2 8 0 12 #606060 #dcdcdc 0;
#X obj 441 107 cnv 14 18 14 empty empty 10 2 8 0 12 #606060 #dcdcdc 0;
#X obj 147 107 cnv 14 18 14 empty empty 1 2 8 0 12 #606060 #dcdcdc 0;
#X obj 291 107 cnv 14 18 14 empty empty 2 2 8 0 12 #606060 #dcdcdc 0;
#X obj 19 745 cnv 14 18 14 empty empty 0 2 8 0 12 #606060 #dcdcdc 0;
#X obj 208 408 cnv 14 14 14 empty empty R 6 8 0 8 #fce0c4 #7c7c7c 0;
#X obj 104 524 cnv 14 14 14 empty empty R 6 8 0 8 #fcc4c4 #7c7c7c 0;
#X obj 320 524 cnv 14 14 14 empty empty R 6 8 0 8 #b8b8b8 #404040 0;
#X obj 315 590 cnv 14 14 14 empty empty R 6 8 0 8 #dcdcdc #7c7c7c 0;
#X obj 185 355 cnv 14 14 14 empty empty R 6 8 0 8 #c4fcc4 #7c7c7c 0;
#X obj 185 478 cnv 14 14 14 empty empty R 6 8 0 8 #fcfcc4 #7c7c7c 0;
#X obj 578 694 cnv 14 14 14 empty empty S 6 8 0 8 #fce0c4 #7c7c7c 0;
#X obj 592 652 cnv 14 14 14 empty empty S 6 8 0 8 #fcc4c4 #7c7c7c 0;
#X obj 614 610 cnv 14 14 14 empty empty S 6 8 0 8 #b8b8b8 #404040 0;
#X obj 629 568 cnv 14 14 14 empty empty S 6 8 0 8 #dcdcdc #7c7c7c 0;
#X obj 148 131 cnv 14 14 14 empty empty S 6 8 0 8 #c4fcfc #7c7c7c 0;
#X obj 547 776 cnv 14 14 14 empty empty S 6 8 0 8 #c4fcc4 #7c7c7c 0;
#X obj 563 736 cnv 14 14 14 empty empty S 6 8 0 8 #fcfcc4 #7c7c7c 0;
#X obj 294 129 cnv 14 14 14 empty empty S 6 8 0 8 #e0c4fc #7c7c7c 0;
#X obj 596 129 cnv 14 14 14 empty empty S 6 8 0 8 #00fc04 #7c7c7c 0;
#X obj 443 128 cnv 14 14 14 empty empty S 6 8 0 8 #fc0400 #404040 0;
#X obj 1315 21 cnv 8 83 16 empty empty tdh.lib 14 8 0 14 #dfdfdf #131255 0;
#X text 509 427 divide by nyquist frequency of this subpatch \, which is sr/2*oversampleFactor, f 21;
#X obj 108 590 cnv 14 14 14 empty empty R 6 8 0 8 #fcc4c4 #7c7c7c 0;
#X obj 165 107 inlet cutoffFreq;
#X obj 38 107 inlet~;
#X obj 309 107 inlet blocksize;
#X obj 460 107 inlet overlap;
#X obj 593 107 cnv 14 18 14 empty empty 10 2 8 0 12 #606060 #dcdcdc 0;
#X obj 612 107 inlet sampleFactor;
#X obj 309 128 s \$0-blockSize;
#X obj 165 128 s \$0-cutoffFreq;
#X obj 460 128 s \$0-overlap;
#X obj 612 128 s \$0-sampleFactor;
#X obj 352 430 r \$0-cutoffFreq;
#X obj 336 432 cnv 14 14 14 empty empty R 6 8 0 8 #c4fcfc #7c7c7c 0;
#X obj 898 385 cnv 14 14 14 empty empty R 6 8 0 8 #e0c4fc #7c7c7c 0;
#X obj 1129 385 cnv 14 14 14 empty empty R 6 8 0 8 #00fc04 #7c7c7c 0;
#X obj 1013 385 cnv 14 14 14 empty empty R 6 8 0 8 #fc0400 #404040 0;
#N canvas 2374 217 719 510 argDefaultF 0;
#X obj 213 103 == 0;
#X obj 264 47 t f f;
#X obj 213 139 sel 1 0;
#X obj 278 176 f;
#X obj 213 222 outlet;
#X obj 211 176 cnv 15 35 20 empty empty empty 0 8 0 14 #c4c4fc #404040 0;
#X text 56 133 Yes \, use the default \, else use the argument, f 21;
#X text 93 177 Set DEFAULT here;
#X obj 249 16 cnv 14 14 14 empty empty 0 4 8 0 12 #606060 #dcdcdc 0;
#X obj 200 222 cnv 14 14 14 empty empty 0 4 8 0 12 #606060 #dcdcdc 0;
#X text 24 83 Check if argument is 0 (if no argument is supplied \, the argument variable will output "0"), f 29;
#X obj 447 14 inlet;
#X obj 432 14 cnv 14 14 14 empty empty 0 4 8 0 12 #606060 #dcdcdc 0;
#X text 36 17 Use [loadbang]-> [f $#] to send the argument value into this subpatch, f 32;
#X obj 264 16 inlet argument;
#X text 338 109 ( <-- Can't use [send] or [receive] because a patch might have multiple versions of this subpatch \, and the unique ID sends/receives are SHARED FOR SUBPATCHES);
#X obj 213 176 f 1024;
#X connect 0 0 2 0;
#X connect 1 0 0 0;
#X connect 1 1 3 1;
#X connect 2 0 16 0;
#X connect 2 1 3 0;
#X connect 3 0 4 0;
#X connect 11 0 16 1;
#X connect 14 0 1 0;
#X connect 16 0 4 0;
#X restore 889 346 pd argDefaultF;
#N canvas 2374 217 719 510 argDefaultF 0;
#X obj 213 103 == 0;
#X obj 264 47 t f f;
#X obj 213 139 sel 1 0;
#X obj 278 176 f;
#X obj 213 222 outlet;
#X obj 211 176 cnv 15 35 20 empty empty empty 0 8 0 14 #c4c4fc #404040 0;
#X text 56 133 Yes \, use the default \, else use the argument, f 21;
#X text 93 177 Set DEFAULT here;
#X obj 249 16 cnv 14 14 14 empty empty 0 4 8 0 12 #606060 #dcdcdc 0;
#X obj 200 222 cnv 14 14 14 empty empty 0 4 8 0 12 #606060 #dcdcdc 0;
#X text 24 83 Check if argument is 0 (if no argument is supplied \, the argument variable will output "0"), f 29;
#X obj 447 14 inlet;
#X obj 432 14 cnv 14 14 14 empty empty 0 4 8 0 12 #606060 #dcdcdc 0;
#X text 36 17 Use [loadbang]-> [f $#] to send the argument value into this subpatch, f 32;
#X obj 264 16 inlet argument;
#X text 338 109 ( <-- Can't use [send] or [receive] because a patch might have multiple versions of this subpatch \, and the unique ID sends/receives are SHARED FOR SUBPATCHES);
#X obj 213 177 f 1;
#X connect 0 0 2 0;
#X connect 1 0 0 0;
#X connect 1 1 3 1;
#X connect 2 0 16 0;
#X connect 2 1 3 0;
#X connect 3 0 4 0;
#X connect 11 0 16 1;
#X connect 14 0 1 0;
#X connect 16 0 4 0;
#X restore 1004 346 pd argDefaultF;
#N canvas 2374 217 719 510 argDefaultF 0;
#X obj 213 103 == 0;
#X obj 264 47 t f f;
#X obj 213 139 sel 1 0;
#X obj 278 176 f;
#X obj 213 222 outlet;
#X obj 211 176 cnv 15 35 20 empty empty empty 0 8 0 14 #c4c4fc #404040 0;
#X text 56 133 Yes \, use the default \, else use the argument, f 21;
#X text 93 177 Set DEFAULT here;
#X obj 249 16 cnv 14 14 14 empty empty 0 4 8 0 12 #606060 #dcdcdc 0;
#X obj 200 222 cnv 14 14 14 empty empty 0 4 8 0 12 #606060 #dcdcdc 0;
#X text 24 83 Check if argument is 0 (if no argument is supplied \, the argument variable will output "0"), f 29;
#X obj 447 14 inlet;
#X obj 432 14 cnv 14 14 14 empty empty 0 4 8 0 12 #606060 #dcdcdc 0;
#X text 36 17 Use [loadbang]-> [f $#] to send the argument value into this subpatch, f 32;
#X obj 264 16 inlet argument;
#X text 338 109 ( <-- Can't use [send] or [receive] because a patch might have multiple versions of this subpatch \, and the unique ID sends/receives are SHARED FOR SUBPATCHES);
#X obj 213 177 f 16;
#X connect 0 0 2 0;
#X connect 1 0 0 0;
#X connect 1 1 3 1;
#X connect 2 0 16 0;
#X connect 2 1 3 0;
#X connect 3 0 4 0;
#X connect 11 0 16 1;
#X connect 14 0 1 0;
#X connect 16 0 4 0;
#X restore 1120 346 pd argDefaultF;
#X obj 889 518 f;
#X obj 1004 518 f;
#X obj 1120 518 f;
#X obj 914 385 r \$0-blockSize;
#X obj 1029 385 r \$0-overlap;
#X obj 1144 385 r \$0-sampleFactor;
#X obj 1144 406 t b b f;
#X obj 1029 406 t b b f;
#X obj 914 406 t f b b;
#X text 1240 347 Defaults: 1024 1 16;
#X text 1238 307 block size \, overlap factor \, and up/down sample factor from ARGUMENTS, f 27;
#X text 1254 382 block size \, overlap factor \, and up/down sample factor from INLETS, f 23;
#X obj 887 272 loadbang;
#X obj 887 293 t b b b, f 38;
#X obj 889 573 pack f f f, f 39;
#X msg 889 594 set \$1 \$2 \$3;
#X text 914 324 block size;
#X text 1031 324 overlap;
#X text 1145 324 sample factor;
#X obj 458 401 f;
#X obj 421 227 cnv 14 14 14 empty empty R 6 8 0 8 #00fc04 #7c7c7c 0;
#X obj 436 227 r \$0-sampleFactor;
#X obj 697 362 + 0;
#X obj 727 361 cnv 10 10 10 empty empty <-\ (Does\ nothing\ -\ for 0 4 0 8 #ffffff #404040 0;
#X obj 436 316 bng 15 250 50 0 empty empty empty 17 7 0 10 #fcfcfc #000000 #000000;
#X obj 745 373 cnv 10 10 10 empty empty patching\ clarity\ only) 0 4 0 8 #ffffff #404040 0;
#N canvas 2374 217 719 510 argDefaultF 0;
#X obj 213 103 == 0;
#X obj 264 47 t f f;
#X obj 213 139 sel 1 0;
#X obj 278 176 f;
#X obj 213 222 outlet;
#X obj 211 176 cnv 15 35 20 empty empty empty 0 8 0 14 #c4c4fc #404040 0;
#X text 56 133 Yes \, use the default \, else use the argument, f 21;
#X text 93 177 Set DEFAULT here;
#X obj 249 16 cnv 14 14 14 empty empty 0 4 8 0 12 #606060 #dcdcdc 0;
#X obj 200 222 cnv 14 14 14 empty empty 0 4 8 0 12 #606060 #dcdcdc 0;
#X text 24 83 Check if argument is 0 (if no argument is supplied \, the argument variable will output "0"), f 29;
#X obj 447 14 inlet;
#X obj 432 14 cnv 14 14 14 empty empty 0 4 8 0 12 #606060 #dcdcdc 0;
#X text 36 17 Use [loadbang]-> [f $#] to send the argument value into this subpatch, f 32;
#X obj 264 16 inlet argument;
#X text 338 109 ( <-- Can't use [send] or [receive] because a patch might have multiple versions of this subpatch \, and the unique ID sends/receives are SHARED FOR SUBPATCHES);
#X obj 213 177 f 16;
#X connect 0 0 2 0;
#X connect 1 0 0 0;
#X connect 1 1 3 1;
#X connect 2 0 16 0;
#X connect 2 1 3 0;
#X connect 3 0 4 0;
#X connect 11 0 16 1;
#X connect 14 0 1 0;
#X connect 16 0 4 0;
#X restore 781 287 pd argDefaultF;
#X obj 812 265 loadbang;
#X obj 697 328 f;
#X obj 436 252 t b b f, f 44;
#X obj 458 312 delay 5;
#X obj 887 322 f \$2;
#X obj 1002 324 f \$3;
#X obj 1116 326 f \$4;
#X obj 779 265 f \$4;
#X obj 458 362 f \$1;
#N canvas 1997 174 1233 572 reference 0;
#X obj 1 362 cnv 2 1400 3 empty \$0-abstrPatchSecLabelNotes Notes 20 15 0 16 #a0a0a0 #202020 0;
#X obj 1 422 cnv 2 1400 3 empty \$0-abstrPatchSecLabelRevHist Revision\ History 20 15 0 16 #a0a0a0 #202020 0;
#X obj 1 272 cnv 2 1400 3 empty \$0-abstrPatchSecLabelArgs Arguments 20 15 0 16 #a0a0a0 #202020 0;
#X obj 1 72 cnv 2 1400 3 empty \$0-abstrPatchSecLabelInlets Inlets 20 15 0 16 #a0a0a0 #202020 0;
#X obj 1 172 cnv 2 1400 3 empty \$0-abstrPatchSecLabelOutlets Outlets 20 15 0 16 #a0a0a0 #202020 0;
#X obj 125 282 cnv 14 18 14 empty empty 1 2 8 0 12 #bbbbbb #ffffff 0;
#X obj 125 81 cnv 14 18 14 empty empty 0 2 8 0 12 #606060 #dcdcdc 0;
#X obj 125 141 cnv 14 18 14 empty empty 10 2 8 0 12 #606060 #dcdcdc 0;
#X obj 125 101 cnv 14 18 14 empty empty 1 2 8 0 12 #606060 #dcdcdc 0;
#X obj 125 121 cnv 14 18 14 empty empty 2 2 8 0 12 #606060 #dcdcdc 0;
#X obj 125 181 cnv 14 18 14 empty empty 0 2 8 0 12 #606060 #dcdcdc 0;
#X obj 125 241 cnv 14 18 14 empty empty 10 2 8 0 12 #606060 #dcdcdc 0;
#X obj 125 201 cnv 14 18 14 empty empty 1 2 8 0 12 #606060 #dcdcdc 0;
#X obj 125 221 cnv 14 18 14 empty empty 2 2 8 0 12 #606060 #dcdcdc 0;
#X text 227 281 Description;
#X text 177 281 (type);
#X text 177 301 (type);
#X text 177 321 (type);
#X text 197 80 Description;
#X text 147 80 (type);
#X text 197 100 Description;
#X text 147 100 (type);
#X text 197 120 Description;
#X text 147 120 (type);
#X text 197 140 Description;
#X text 147 140 (type);
#X text 197 180 Description;
#X text 147 180 (type);
#X text 197 200 Description;
#X text 147 200 (type);
#X text 197 220 Description;
#X text 147 220 (type);
#X text 197 240 Description;
#X text 147 240 (type);
#X text 147 281 \$1 -;
#X text 147 301 \$2 -;
#X text 147 321 \$3 -;
#X obj 125 302 cnv 14 18 14 empty empty 1 2 8 0 12 #bbbbbb #ffffff 0;
#X obj 125 322 cnv 14 18 14 empty empty 1 2 8 0 12 #bbbbbb #ffffff 0;
#X text 227 301 blocksize;
#X text 227 321 overlap;
#X text 177 341 (type);
#X text 147 341 \$3 -;
#X obj 125 342 cnv 14 18 14 empty empty 1 2 8 0 12 #bbbbbb #ffffff 0;
#X text 227 341 Sample Factor;
#X text 125 370 The majority of this code has been adapted from the Anti-Aliasing filter found in Pd Tutorial 3.J.07 \, with some added elements to facilitate flexibility in its implementation, f 174;
#X text 24 453 22/03/16 - ver 0.1, f 21;
#X text 125 389 THIS CODE WILL ONLY WORK IF THE OSCILLATORS ARE PUT *INSIDE* THIS ABSTRACTION!!, f 174;
#X restore 1227 51 pd reference;
#X text 84 211 <-- rest of patch goes here;
#X connect 0 0 1 0;
#X connect 1 0 2 0;
#X connect 2 0 3 0;
#X connect 3 0 5 0;
#X connect 6 0 8 0;
#X connect 7 0 6 0;
#X connect 8 0 21 0;
#X connect 9 0 28 0;
#X connect 10 0 35 0;
#X connect 11 0 36 0;
#X connect 12 0 37 0;
#X connect 13 0 38 0;
#X connect 14 0 41 0;
#X connect 15 0 42 0;
#X connect 21 0 22 0;
#X connect 21 1 22 1;
#X connect 22 0 0 0;
#X connect 25 0 9 0;
#X connect 28 0 10 0;
#X connect 28 1 11 0;
#X connect 28 2 12 0;
#X connect 28 3 13 0;
#X connect 28 4 14 0;
#X connect 28 5 15 0;
#X connect 30 0 32 0;
#X connect 31 0 131 0;
#X connect 32 0 50 0;
#X connect 43 0 7 1;
#X connect 44 0 6 1;
#X connect 45 0 8 1;
#X connect 46 0 21 2;
#X connect 47 0 21 3;
#X connect 48 0 22 2;
#X connect 49 0 22 3;
#X connect 50 0 25 1;
#X connect 51 0 120 0;
#X connect 52 0 136 0;
#X connect 52 1 30 0;
#X connect 83 0 90 0;
#X connect 84 0 7 0;
#X connect 85 0 89 0;
#X connect 86 0 91 0;
#X connect 88 0 92 0;
#X connect 93 0 120 0;
#X connect 98 0 101 0;
#X connect 99 0 102 0;
#X connect 100 0 103 0;
#X connect 101 0 115 0;
#X connect 102 0 115 1;
#X connect 103 0 115 2;
#X connect 104 0 109 0;
#X connect 105 0 108 0;
#X connect 106 0 107 0;
#X connect 107 0 101 0;
#X connect 107 1 102 0;
#X connect 107 2 103 0;
#X connect 108 0 101 0;
#X connect 108 1 103 0;
#X connect 108 2 102 0;
#X connect 109 0 101 0;
#X connect 109 1 102 0;
#X connect 109 2 103 0;
#X connect 113 0 114 0;
#X connect 114 0 132 0;
#X connect 114 1 133 0;
#X connect 114 2 134 0;
#X connect 115 0 116 0;
#X connect 116 0 4 0;
#X connect 120 0 25 0;
#X connect 122 0 130 0;
#X connect 123 0 9 1;
#X connect 125 0 120 0;
#X connect 127 0 129 0;
#X connect 128 0 135 0;
#X connect 129 0 123 0;
#X connect 129 0 32 1;
#X connect 130 0 125 0;
#X connect 130 1 30 0;
#X connect 130 2 129 0;
#X connect 131 0 52 0;
#X connect 132 0 98 0;
#X connect 133 0 99 0;
#X connect 134 0 100 0;
#X connect 135 0 127 0;
#X connect 136 0 51 0;
