#N canvas 39 38 1473 916 10;
#X obj 26 117 cnv 1 598 2 empty \$0-inletBorder-r empty 1 7 0 10 #404040 #404040 0;
#X obj 26 104 cnv 10 598 14 empty \$0-inletBar-r In 0 6 0 8 #dfdfdf #404040 0;
#X obj 593 104 cnv 10 5 12 empty empty Recalc 0 6 0 8 #dfdfdf #404040 0;
#X obj 26 366 cnv 1 598 2 empty \$0-moduleNameBorder-r empty 1 7 0 10 #404040 #404040 0;
#X obj 26 367 cnv 12 598 14 empty \$0-moduleName-r Spectrum 1 7 0 10 #dcdcdc #404040 0;
#X obj 26 381 cnv 1 598 2 empty \$0-outletBorder-r empty 1 7 0 10 #404040 #404040 0;
#X obj 26 382 cnv 10 598 14 empty \$0-outletBar-r Thru 0 6 0 8 #dfdfdf #404040 0;
#X text 18 48 Travis Houldcroft || travishouldcroft.com;
#X obj 1 2 cnv 15 1000 40 empty \$0-abstrPatchTitleBar tdh.util.spectrum.ui 9 20 0 18 #3c50fc #a0a0a0 0;
#X obj 1 75 cnv 2 1000 2 empty \$0-abstrPatchSecDivider empty 9 20 0 18 #a0a0a0 #202020 0;
#N canvas 507 107 770 815 abstr-init 0;
#X obj 3 56 cnv 5 5 5 empty empty | 0 0 0 14 #fcfcfc #404040 0;
#X obj 176 122 loadbang;
#X obj 176 148 del 10;
#N canvas 1280 23 1414 755 abstr-cnv-set 0;
#X text 121 406 \$0-abstrPatchSecDivider;
#X text 120 1003 \$0-abstrPatchSecLabelNotes;
#X text 120 1139 \$0-abstrPatchSecLabelRevHist;
#N canvas 1440 23 349 258 canvas-ctrl 0;
#X obj 291 1 inlet;
#N canvas 1440 270 1089 459 graph 0;
#X floatatom 180 241 5 0 0 0 Lbl-Sz - - 0;
#X floatatom 273 241 5 0 29 0 Lbl-Clr - - 0;
#N canvas 32 23 1408 389 label-properties 0;
#X floatatom 314 72 3 18 100 0 - - - 0;
#X msg 314 99 size \$1;
#X obj 400 121 pack 100 60, f 18;
#X obj 491 93 t b f;
#X floatatom 491 68 4 18 100 0 - - - 0;
#X floatatom 400 68 4 18 100 0 - - - 0;
#X msg 400 148 vis_size \$1 \$2;
#X text 442 41 w/x;
#X text 532 41 h/y;
#X floatatom 589 116 4 0 3 0 - - - 0;
#X obj 721 135 t b f;
#X floatatom 721 116 5 5 50 0 - - - 0;
#X msg 589 185 label_font \$1 \$2;
#X text 632 41 type;
#X text 760 40 size;
#X obj 589 64 vradio 15 1 0 3 empty empty empty 0 -8 0 10 #fcfcfc #000000 #000000 0;
#X text 605 63 DejaVu Sans Mono;
#X text 605 78 Helvetica;
#X text 606 93 Times;
#X floatatom 817 71 4 -100 250 0 - - - 0;
#X obj 889 98 t b f;
#X floatatom 889 71 5 -150 150 0 - - - 0;
#X msg 817 148 label_pos \$1 \$2;
#X text 856 41 x;
#X text 929 41 y;
#X obj 817 126 pack 17 20, f 17;
#X obj 589 164 pack 0 25, f 24;
#X msg 973 129 label \$1;
#X floatatom 1191 70 3 0 29 1 bgColor - - 0;
#X floatatom 1295 70 3 0 29 1 lblColor - - 0;
#X obj 1295 92 t b f;
#X msg 1191 145 color \$1 \$2 \$3;
#X obj 1191 124 pack 1 22 22, f 14;
#X text 1170 18 Color Presets (0-29):;
#X obj 24 42 inlet;
#X obj 8 42 cnv 14 14 14 empty empty 0 4 8 0 12 #606060 #dcdcdc 0;
#X symbolatom 24 210 10 0 0 0 - - - 0;
#X obj 588 330 send, f 13;
#X obj 400 42 inlet;
#X obj 314 42 inlet;
#X obj 491 42 inlet;
#X obj 155 42 cnv 14 14 14 empty empty 1 4 8 0 12 #606060 #dcdcdc 0;
#X obj 297 42 cnv 14 14 14 empty empty 2 4 8 0 12 #606060 #dcdcdc 0;
#X obj 384 42 cnv 14 14 14 empty empty 3 4 8 0 12 #606060 #dcdcdc 0;
#X obj 721 42 inlet;
#X obj 589 42 inlet;
#X obj 817 42 inlet;
#X obj 476 42 cnv 14 14 14 empty empty 4 4 8 0 12 #606060 #dcdcdc 0;
#X obj 573 42 cnv 14 14 14 empty empty 5 4 8 0 12 #606060 #dcdcdc 0;
#X obj 703 42 cnv 14 14 14 empty empty 6 4 8 0 12 #606060 #dcdcdc 0;
#X text 315 18 Size;
#X text 421 18 Visible Size;
#X text 635 18 Label Font;
#X text 824 18 Label Offset;
#X obj 889 42 inlet;
#X obj 800 42 cnv 14 14 14 empty empty 7 4 8 0 12 #606060 #dcdcdc 0;
#X msg 1052 89 symbol my\ label;
#X symbolatom 973 92 10 0 0 0 - - - 0;
#X obj 973 42 inlet;
#X obj 872 42 cnv 14 14 14 empty empty 8 4 8 0 12 #606060 #dcdcdc 0;
#X msg 973 70 symbol \$1;
#X text 1007 18 Label Text;
#X obj 1191 42 inlet;
#X obj 958 42 cnv 14 14 14 empty empty 9 4 8 0 12 #606060 #dcdcdc 0;
#X obj 1295 42 inlet;
#X obj 1174 42 cnv 14 14 14 empty empty 10 0 8 0 12 #606060 #dcdcdc 0;
#X text 0 18 Canvas Name;
#X obj 284 2 cnv 5 1 260 empty empty empty 20 12 0 14 #7c7c7c #404040 0;
#X obj 738 322 cnv 2 1000 40 empty \$0-test_canvas tdh.util.spectrum.ui 20 15 0 16 #a0a0a0 #202020 0;
#X obj 415 328 s \$0-test_canvas;
#X obj 210 187 spigot;
#X obj 170 88 tgl 15 0 empty empty empty 17 7 0 10 #fcfcfc #000000 #000000 0 1;
#X obj 249 134 == 1;
#X obj 101 135 == 0;
#X obj 144 134 list append \$0;
#X msg 144 157 symbol \$2-\$1;
#X msg 24 136 symbol \$1;
#X obj 24 167 spigot;
#X obj 170 42 inlet;
#X obj 1279 42 cnv 14 14 14 empty empty 11 0 8 0 12 #606060 #dcdcdc 0;
#X text 136 18 Add "\$0" option;
#X obj 374 2 cnv 5 1 260 empty empty empty 20 12 0 14 #7c7c7c #404040 0;
#X obj 561 2 cnv 5 1 260 empty empty empty 20 12 0 14 #7c7c7c #404040 0;
#X obj 791 2 cnv 5 1 260 empty empty empty 20 12 0 14 #7c7c7c #404040 0;
#X obj 944 2 cnv 5 1 260 empty empty empty 20 12 0 14 #7c7c7c #404040 0;
#X obj 1164 2 cnv 5 1 260 empty empty empty 20 12 0 14 #7c7c7c #404040 0;
#X connect 0 0 1 0;
#X connect 1 0 37 0;
#X connect 1 0 69 0;
#X connect 2 0 6 0;
#X connect 3 0 2 0;
#X connect 3 1 2 1;
#X connect 4 0 3 0;
#X connect 5 0 2 0;
#X connect 6 0 37 0;
#X connect 6 0 69 0;
#X connect 9 0 26 0;
#X connect 10 0 26 0;
#X connect 10 1 26 1;
#X connect 11 0 10 0;
#X connect 12 0 37 0;
#X connect 12 0 69 0;
#X connect 15 0 9 0;
#X connect 19 0 25 0;
#X connect 20 0 25 0;
#X connect 20 1 25 1;
#X connect 21 0 20 0;
#X connect 22 0 37 0;
#X connect 22 0 69 0;
#X connect 25 0 22 0;
#X connect 26 0 12 0;
#X connect 27 0 37 0;
#X connect 27 0 69 0;
#X connect 28 0 32 0;
#X connect 29 0 30 0;
#X connect 30 0 32 0;
#X connect 30 1 32 2;
#X connect 31 0 37 0;
#X connect 31 0 69 0;
#X connect 32 0 31 0;
#X connect 34 0 74 0;
#X connect 34 0 76 0;
#X connect 36 0 37 1;
#X connect 38 0 5 0;
#X connect 39 0 0 0;
#X connect 40 0 4 0;
#X connect 44 0 11 0;
#X connect 45 0 15 0;
#X connect 46 0 19 0;
#X connect 54 0 21 0;
#X connect 56 0 27 0;
#X connect 57 0 27 0;
#X connect 58 0 60 0;
#X connect 60 0 57 0;
#X connect 62 0 28 0;
#X connect 64 0 29 0;
#X connect 70 0 36 0;
#X connect 71 0 72 0;
#X connect 71 0 73 0;
#X connect 72 0 70 1;
#X connect 73 0 77 1;
#X connect 74 0 75 0;
#X connect 75 0 70 0;
#X connect 76 0 77 0;
#X connect 77 0 36 0;
#X connect 78 0 71 0;
#X restore 6 354 pd label-properties;
#X f 45;
#X floatatom 273 219 5 0 29 0 BG-Clr - - 0;
#X floatatom 180 174 5 0 0 0 Vis-Sz-W - - 0;
#X floatatom 181 198 5 0 0 0 Vis-Sz-H - - 0;
#X floatatom 271 150 5 0 0 0 Lbl-X - - 0;
#X floatatom 272 174 5 0 0 0 Lbl-Y - - 0;
#X floatatom 180 150 5 0 0 0 Size - - 0;
#X symbolatom 214 127 10 0 0 0 CnvReceiveSymbol - - 0;
#X floatatom 181 219 5 0 2 0 Lbl-Fon - - 0;
#X symbolatom 274 195 10 0 0 0 Lbl-Txt - - 0;
#X obj 295 128 tgl 15 0 empty empty Append_0 20 7 0 10 #fcfcfc #fc8000 #000000 0 1;
#X text 194 103 Label Properties;
#X obj 28 18 inlet;
#X obj 414 223 cnv 15 500 30 empty \$0-myCanvas This\ is\ my\ label? 9 13 0 18 #e0e0e0 #606060 0;
#X obj 28 54 route doll rec size visw vish lblfon lblsz lblx lbly bgclr lblclr, f 66;
#X obj 56 93 symbol;
#X text 6 4 _;
#X text 479 173 dollarsign0-myCanvas;
#X msg 74 18 doll 1 \, rec myCanvas \, size 15 \, visw 50 \, vish 60 \, lblfon 0 \, lblsz 18 \, lblx 9 \, lbly 13 \, bgclr 10 \, lblclr 21, f 106;
#N canvas 240 66 752 410 \$0-how-to-set-values-externally 0;
#X text 112 49 doll [0/1] - toggle on appending "\$0-" at the start of the recieve symbol, f 85;
#X text 112 102 visw [float] - the visible width of the canvas in pixels, f 85;
#X text 112 85 size [float] - the size of the clickable/dragable portion of the canvas in pixels, f 85;
#X text 112 122 vish [float] - the visible height of the canvas in pixels, f 85;
#X text 111 141 lblfon [0/1/2] - font designation for the canvas' label \, with [0] for Menlo \, [1] for, f 89;
#X text 131 155 Helvetica \, [2] for Times. Note that these fonts may be different on Windows or Linux, f 84;
#X text 111 173 lblsz [float] - font size designation for the canvas' label, f 85;
#X text 111 213 lbly [float] - y offset in pixels from the top left corner of the canvas, f 85;
#X text 111 193 lblx [float] - x offset (horizontal) in pixels from the top left corner of the canvas, f 85;
#X text 4 29 To set the values for your canvas object externally \, send messages with the following signifiers to the 0 (leftmost) inlet:, f 124;
#X msg 31 336 doll 1 \, rec myCanvas \, size 15 \, visw 500 \, vish 30 \, lblfon 0 \, lblsz 18 \, lblx 9 \, lbly 13 \, bgclr 10 \, lblclr 21, f 106;
#X text 111 67 rec [symbol] - receive symbol for the canvas, f 85;
#X obj 90 241 cnv 5 5 5 empty \$0-canvas-format-helper-boldstatement1 Please\ note\ that\ the\ $-0\ designation\ (1\ or\ 0)\ MUST\ be\ sent\ first\,\ followed\ by\ the\ canvas\  1 9 0 12 #fcfcfc #fc0400 0;
#N canvas 2423 143 808 250 init 0;
#X msg 30 102 label \$1;
#X msg 419 120 label \$1;
#X obj 29 147 s \$0-canvas-format-helper-boldstatement1;
#X obj 418 164 s \$0-canvas-format-helper-boldstatement2;
#X obj 233 15 loadbang;
#X msg 420 51 symbol receive\ symbol!\ Failure\ to\ do\ so\ will\ cause\ incorrect\ parameter\ dispatching!;
#X msg 26 43 symbol Please\\\ note\\\ that\\\ the\\\ $-0\\\ designation\\\ (1\\\ or\\\ 0)\\\ MUST\\\ be\\\ sent\\\ first\\\,\\\ followed\\\ by\\\ the\\\ canvas\\\ ;
#X connect 0 0 2 0;
#X connect 1 0 3 0;
#X connect 4 0 5 0;
#X connect 4 0 6 0;
#X connect 5 0 1 0;
#X connect 6 0 0 0;
#X restore 659 9 pd init;
#X obj 90 257 cnv 5 5 5 empty \$0-canvas-format-helper-boldstatement2 receive\ symbol!\ Failure\ to\ do\ so\ will\ cause\ incorrect\ parameter\ dispatching! 1 9 0 12 #fcfcfc #fc0400 0;
#X msg 112 362 symbol this\ is\ my\ label!;
#X text 296 357 The label parameter must be sent separately to Inlet 1 (rightmost inlet). The message must be prepended with the "symbol" identifier \, and the escape character () needs to be set in the message:, f 68;
#X text 102 286 All parameters EXCEPT label can be sent in a single message to Inlet 0 (leftmost inlet) like below (and this can be copied and pasted for easy initializing formatting)., f 89;
#X restore 326 378 pd \$0-how-to-set-values-externally;
#X msg 326 336 vis 1;
#X obj 326 357 s pd-\$0-how-to-set-values-externally;
#X obj 120 263 bng 15 250 50 0 empty empty empty 17 7 0 10 #fcfcfc #000000 #000000;
#X text 141 263 How to set canvas values externally;
#X text 891 18 All left-inlet messages;
#X text 984 47 Label text;
#X msg 636 48 symbol This\ is\ my\ label?;
#X obj 587 47 inlet;
#X obj 632 184 cnv 5 5 5 empty empty ↴ -3 3 0 24 #fcfcfc #606060 0;
#X connect 0 0 2 6;
#X connect 1 0 2 11;
#X connect 3 0 2 10;
#X connect 4 0 2 3;
#X connect 5 0 2 4;
#X connect 6 0 2 7;
#X connect 7 0 2 8;
#X connect 8 0 2 2;
#X connect 9 0 2 0;
#X connect 10 0 2 5;
#X connect 11 0 2 9;
#X connect 12 0 2 1;
#X connect 14 0 16 0;
#X connect 16 0 12 0;
#X connect 16 1 17 0;
#X connect 16 2 8 0;
#X connect 16 3 4 0;
#X connect 16 4 5 0;
#X connect 16 5 10 0;
#X connect 16 6 0 0;
#X connect 16 7 6 0;
#X connect 16 8 7 0;
#X connect 16 9 3 0;
#X connect 16 10 1 0;
#X connect 17 0 9 0;
#X connect 20 0 16 0;
#X connect 22 0 23 0;
#X connect 24 0 22 0;
#X connect 28 0 11 0;
#X connect 29 0 11 0;
#X coords 0 -1 1 1 300 190 2 100 100;
#X restore 25 27 pd graph;
#X obj 25 1 inlet;
#X connect 0 0 1 1;
#X connect 2 0 1 0;
#X restore 343 345 pd canvas-ctrl;
#N canvas 673 23 349 258 canvas-ctrl 0;
#X obj 291 1 inlet;
#N canvas 248 270 1089 459 graph 0;
#X floatatom 180 241 5 0 0 0 Lbl-Sz - - 0;
#X floatatom 273 241 5 0 29 0 Lbl-Clr - - 0;
#N canvas 32 23 1408 389 label-properties 0;
#X floatatom 314 72 3 18 100 0 - - - 0;
#X msg 314 99 size \$1;
#X obj 400 121 pack 100 60, f 18;
#X obj 491 93 t b f;
#X floatatom 491 68 4 18 100 0 - - - 0;
#X floatatom 400 68 4 18 100 0 - - - 0;
#X msg 400 148 vis_size \$1 \$2;
#X text 442 41 w/x;
#X text 532 41 h/y;
#X floatatom 589 116 4 0 3 0 - - - 0;
#X obj 721 135 t b f;
#X floatatom 721 116 5 5 50 0 - - - 0;
#X msg 589 185 label_font \$1 \$2;
#X text 632 41 type;
#X text 760 40 size;
#X obj 589 64 vradio 15 1 0 3 empty empty empty 0 -8 0 10 #fcfcfc #000000 #000000 0;
#X text 605 63 DejaVu Sans Mono;
#X text 605 78 Helvetica;
#X text 606 93 Times;
#X floatatom 817 71 4 -100 250 0 - - - 0;
#X obj 889 98 t b f;
#X floatatom 889 71 5 -150 150 0 - - - 0;
#X msg 817 148 label_pos \$1 \$2;
#X text 856 41 x;
#X text 929 41 y;
#X obj 817 126 pack 17 20, f 17;
#X obj 589 164 pack 0 25, f 24;
#X msg 973 129 label \$1;
#X floatatom 1191 70 3 0 29 1 bgColor - - 0;
#X floatatom 1295 70 3 0 29 1 lblColor - - 0;
#X obj 1295 92 t b f;
#X msg 1191 145 color \$1 \$2 \$3;
#X obj 1191 124 pack 1 22 22, f 14;
#X text 1170 18 Color Presets (0-29):;
#X obj 24 42 inlet;
#X obj 8 42 cnv 14 14 14 empty empty 0 4 8 0 12 #606060 #dcdcdc 0;
#X symbolatom 24 210 10 0 0 0 - - - 0;
#X obj 588 330 send, f 13;
#X obj 400 42 inlet;
#X obj 314 42 inlet;
#X obj 491 42 inlet;
#X obj 155 42 cnv 14 14 14 empty empty 1 4 8 0 12 #606060 #dcdcdc 0;
#X obj 297 42 cnv 14 14 14 empty empty 2 4 8 0 12 #606060 #dcdcdc 0;
#X obj 384 42 cnv 14 14 14 empty empty 3 4 8 0 12 #606060 #dcdcdc 0;
#X obj 721 42 inlet;
#X obj 589 42 inlet;
#X obj 817 42 inlet;
#X obj 476 42 cnv 14 14 14 empty empty 4 4 8 0 12 #606060 #dcdcdc 0;
#X obj 573 42 cnv 14 14 14 empty empty 5 4 8 0 12 #606060 #dcdcdc 0;
#X obj 703 42 cnv 14 14 14 empty empty 6 4 8 0 12 #606060 #dcdcdc 0;
#X text 315 18 Size;
#X text 421 18 Visible Size;
#X text 635 18 Label Font;
#X text 824 18 Label Offset;
#X obj 889 42 inlet;
#X obj 800 42 cnv 14 14 14 empty empty 7 4 8 0 12 #606060 #dcdcdc 0;
#X msg 1052 89 symbol my\ label;
#X symbolatom 973 92 10 0 0 0 - - - 0;
#X obj 973 42 inlet;
#X obj 872 42 cnv 14 14 14 empty empty 8 4 8 0 12 #606060 #dcdcdc 0;
#X msg 973 70 symbol \$1;
#X text 1007 18 Label Text;
#X obj 1191 42 inlet;
#X obj 958 42 cnv 14 14 14 empty empty 9 4 8 0 12 #606060 #dcdcdc 0;
#X obj 1295 42 inlet;
#X obj 1174 42 cnv 14 14 14 empty empty 10 0 8 0 12 #606060 #dcdcdc 0;
#X text 0 18 Canvas Name;
#X obj 284 2 cnv 5 1 260 empty empty empty 20 12 0 14 #7c7c7c #404040 0;
#X obj 738 322 cnv 2 1000 40 empty \$0-test_canvas tdh.util.spectrum.ui 20 15 0 16 #a0a0a0 #202020 0;
#X obj 415 328 s \$0-test_canvas;
#X obj 210 187 spigot;
#X obj 170 88 tgl 15 0 empty empty empty 17 7 0 10 #fcfcfc #000000 #000000 0 1;
#X obj 249 134 == 1;
#X obj 101 135 == 0;
#X obj 144 134 list append \$0;
#X msg 144 157 symbol \$2-\$1;
#X msg 24 136 symbol \$1;
#X obj 24 167 spigot;
#X obj 170 42 inlet;
#X obj 1279 42 cnv 14 14 14 empty empty 11 0 8 0 12 #606060 #dcdcdc 0;
#X text 136 18 Add "\$0" option;
#X obj 374 2 cnv 5 1 260 empty empty empty 20 12 0 14 #7c7c7c #404040 0;
#X obj 561 2 cnv 5 1 260 empty empty empty 20 12 0 14 #7c7c7c #404040 0;
#X obj 791 2 cnv 5 1 260 empty empty empty 20 12 0 14 #7c7c7c #404040 0;
#X obj 944 2 cnv 5 1 260 empty empty empty 20 12 0 14 #7c7c7c #404040 0;
#X obj 1164 2 cnv 5 1 260 empty empty empty 20 12 0 14 #7c7c7c #404040 0;
#X connect 0 0 1 0;
#X connect 1 0 37 0;
#X connect 1 0 69 0;
#X connect 2 0 6 0;
#X connect 3 0 2 0;
#X connect 3 1 2 1;
#X connect 4 0 3 0;
#X connect 5 0 2 0;
#X connect 6 0 37 0;
#X connect 6 0 69 0;
#X connect 9 0 26 0;
#X connect 10 0 26 0;
#X connect 10 1 26 1;
#X connect 11 0 10 0;
#X connect 12 0 37 0;
#X connect 12 0 69 0;
#X connect 15 0 9 0;
#X connect 19 0 25 0;
#X connect 20 0 25 0;
#X connect 20 1 25 1;
#X connect 21 0 20 0;
#X connect 22 0 37 0;
#X connect 22 0 69 0;
#X connect 25 0 22 0;
#X connect 26 0 12 0;
#X connect 27 0 37 0;
#X connect 27 0 69 0;
#X connect 28 0 32 0;
#X connect 29 0 30 0;
#X connect 30 0 32 0;
#X connect 30 1 32 2;
#X connect 31 0 37 0;
#X connect 31 0 69 0;
#X connect 32 0 31 0;
#X connect 34 0 74 0;
#X connect 34 0 76 0;
#X connect 36 0 37 1;
#X connect 38 0 5 0;
#X connect 39 0 0 0;
#X connect 40 0 4 0;
#X connect 44 0 11 0;
#X connect 45 0 15 0;
#X connect 46 0 19 0;
#X connect 54 0 21 0;
#X connect 56 0 27 0;
#X connect 57 0 27 0;
#X connect 58 0 60 0;
#X connect 60 0 57 0;
#X connect 62 0 28 0;
#X connect 64 0 29 0;
#X connect 70 0 36 0;
#X connect 71 0 72 0;
#X connect 71 0 73 0;
#X connect 72 0 70 1;
#X connect 73 0 77 1;
#X connect 74 0 75 0;
#X connect 75 0 70 0;
#X connect 76 0 77 0;
#X connect 77 0 36 0;
#X connect 78 0 71 0;
#X restore 6 354 pd label-properties;
#X f 45;
#X floatatom 273 219 5 0 29 0 BG-Clr - - 0;
#X floatatom 180 174 5 0 0 0 Vis-Sz-W - - 0;
#X floatatom 181 198 5 0 0 0 Vis-Sz-H - - 0;
#X floatatom 271 150 5 0 0 0 Lbl-X - - 0;
#X floatatom 272 174 5 0 0 0 Lbl-Y - - 0;
#X floatatom 180 150 5 0 0 0 Size - - 0;
#X symbolatom 214 127 10 0 0 0 CnvReceiveSymbol - - 0;
#X floatatom 181 219 5 0 2 0 Lbl-Fon - - 0;
#X symbolatom 274 195 10 0 0 0 Lbl-Txt - - 0;
#X obj 295 128 tgl 15 0 empty empty Append_0 20 7 0 10 #fcfcfc #fc8000 #000000 0 1;
#X text 194 103 Label Properties;
#X obj 28 18 inlet;
#X obj 414 223 cnv 15 500 30 empty \$0-myCanvas This\ is\ my\ label? 9 13 0 18 #e0e0e0 #606060 0;
#X obj 28 54 route doll rec size visw vish lblfon lblsz lblx lbly bgclr lblclr, f 66;
#X obj 56 93 symbol;
#X text 6 4 _;
#X text 479 173 dollarsign0-myCanvas;
#X msg 74 18 doll 1 \, rec myCanvas \, size 15 \, visw 50 \, vish 60 \, lblfon 0 \, lblsz 18 \, lblx 9 \, lbly 13 \, bgclr 10 \, lblclr 21, f 106;
#N canvas 240 66 752 410 \$0-how-to-set-values-externally 0;
#X text 112 49 doll [0/1] - toggle on appending "\$0-" at the start of the recieve symbol, f 85;
#X text 112 102 visw [float] - the visible width of the canvas in pixels, f 85;
#X text 112 85 size [float] - the size of the clickable/dragable portion of the canvas in pixels, f 85;
#X text 112 122 vish [float] - the visible height of the canvas in pixels, f 85;
#X text 111 141 lblfon [0/1/2] - font designation for the canvas' label \, with [0] for Menlo \, [1] for, f 89;
#X text 131 155 Helvetica \, [2] for Times. Note that these fonts may be different on Windows or Linux, f 84;
#X text 111 173 lblsz [float] - font size designation for the canvas' label, f 85;
#X text 111 213 lbly [float] - y offset in pixels from the top left corner of the canvas, f 85;
#X text 111 193 lblx [float] - x offset (horizontal) in pixels from the top left corner of the canvas, f 85;
#X text 4 29 To set the values for your canvas object externally \, send messages with the following signifiers to the 0 (leftmost) inlet:, f 124;
#X msg 31 336 doll 1 \, rec myCanvas \, size 15 \, visw 500 \, vish 30 \, lblfon 0 \, lblsz 18 \, lblx 9 \, lbly 13 \, bgclr 10 \, lblclr 21, f 106;
#X text 111 67 rec [symbol] - receive symbol for the canvas, f 85;
#X obj 90 241 cnv 5 5 5 empty \$0-canvas-format-helper-boldstatement1 Please\ note\ that\ the\ $-0\ designation\ (1\ or\ 0)\ MUST\ be\ sent\ first\,\ followed\ by\ the\ canvas\  1 9 0 12 #fcfcfc #fc0400 0;
#N canvas 2423 143 808 250 init 0;
#X msg 30 102 label \$1;
#X msg 419 120 label \$1;
#X obj 29 147 s \$0-canvas-format-helper-boldstatement1;
#X obj 418 164 s \$0-canvas-format-helper-boldstatement2;
#X obj 233 15 loadbang;
#X msg 420 51 symbol receive\ symbol!\ Failure\ to\ do\ so\ will\ cause\ incorrect\ parameter\ dispatching!;
#X msg 26 43 symbol Please\\\ note\\\ that\\\ the\\\ $-0\\\ designation\\\ (1\\\ or\\\ 0)\\\ MUST\\\ be\\\ sent\\\ first\\\,\\\ followed\\\ by\\\ the\\\ canvas\\\ ;
#X connect 0 0 2 0;
#X connect 1 0 3 0;
#X connect 4 0 5 0;
#X connect 4 0 6 0;
#X connect 5 0 1 0;
#X connect 6 0 0 0;
#X restore 659 9 pd init;
#X obj 90 257 cnv 5 5 5 empty \$0-canvas-format-helper-boldstatement2 receive\ symbol!\ Failure\ to\ do\ so\ will\ cause\ incorrect\ parameter\ dispatching! 1 9 0 12 #fcfcfc #fc0400 0;
#X msg 112 362 symbol this\ is\ my\ label!;
#X text 296 357 The label parameter must be sent separately to Inlet 1 (rightmost inlet). The message must be prepended with the "symbol" identifier \, and the escape character () needs to be set in the message:, f 68;
#X text 102 286 All parameters EXCEPT label can be sent in a single message to Inlet 0 (leftmost inlet) like below (and this can be copied and pasted for easy initializing formatting)., f 89;
#X restore 326 378 pd \$0-how-to-set-values-externally;
#X msg 326 336 vis 1;
#X obj 326 357 s pd-\$0-how-to-set-values-externally;
#X obj 120 263 bng 15 250 50 0 empty empty empty 17 7 0 10 #fcfcfc #000000 #000000;
#X text 141 263 How to set canvas values externally;
#X text 891 18 All left-inlet messages;
#X text 984 47 Label text;
#X msg 636 48 symbol This\ is\ my\ label?;
#X obj 587 47 inlet;
#X obj 632 184 cnv 5 5 5 empty empty ↴ -3 3 0 24 #fcfcfc #606060 0;
#X connect 0 0 2 6;
#X connect 1 0 2 11;
#X connect 3 0 2 10;
#X connect 4 0 2 3;
#X connect 5 0 2 4;
#X connect 6 0 2 7;
#X connect 7 0 2 8;
#X connect 8 0 2 2;
#X connect 9 0 2 0;
#X connect 10 0 2 5;
#X connect 11 0 2 9;
#X connect 12 0 2 1;
#X connect 14 0 16 0;
#X connect 16 0 12 0;
#X connect 16 1 17 0;
#X connect 16 2 8 0;
#X connect 16 3 4 0;
#X connect 16 4 5 0;
#X connect 16 5 10 0;
#X connect 16 6 0 0;
#X connect 16 7 6 0;
#X connect 16 8 7 0;
#X connect 16 9 3 0;
#X connect 16 10 1 0;
#X connect 17 0 9 0;
#X connect 20 0 16 0;
#X connect 22 0 23 0;
#X connect 24 0 22 0;
#X connect 28 0 11 0;
#X connect 29 0 11 0;
#X coords 0 -1 1 1 300 190 2 100 100;
#X restore 25 27 pd graph;
#X obj 25 1 inlet;
#X connect 0 0 1 1;
#X connect 2 0 1 0;
#X restore 343 465 pd canvas-ctrl;
#N canvas 2452 418 349 258 canvas-ctrl 0;
#X obj 291 1 inlet;
#N canvas 1417 303 1089 459 graph 0;
#X floatatom 180 241 5 0 0 0 Lbl-Sz - - 0;
#X floatatom 273 241 5 0 29 0 Lbl-Clr - - 0;
#N canvas 32 23 1408 389 label-properties 0;
#X floatatom 314 72 3 18 100 0 - - - 0;
#X msg 314 99 size \$1;
#X obj 400 121 pack 100 60, f 18;
#X obj 491 93 t b f;
#X floatatom 491 68 4 18 100 0 - - - 0;
#X floatatom 400 68 4 18 100 0 - - - 0;
#X msg 400 148 vis_size \$1 \$2;
#X text 442 41 w/x;
#X text 532 41 h/y;
#X floatatom 589 116 4 0 3 0 - - - 0;
#X obj 721 135 t b f;
#X floatatom 721 116 5 5 50 0 - - - 0;
#X msg 589 185 label_font \$1 \$2;
#X text 632 41 type;
#X text 760 40 size;
#X obj 589 64 vradio 15 1 0 3 empty empty empty 0 -8 0 10 #fcfcfc #000000 #000000 0;
#X text 605 63 DejaVu Sans Mono;
#X text 605 78 Helvetica;
#X text 606 93 Times;
#X floatatom 817 71 4 -100 250 0 - - - 0;
#X obj 889 98 t b f;
#X floatatom 889 71 5 -150 150 0 - - - 0;
#X msg 817 148 label_pos \$1 \$2;
#X text 856 41 x;
#X text 929 41 y;
#X obj 817 126 pack 17 20, f 17;
#X obj 589 164 pack 0 25, f 24;
#X msg 973 129 label \$1;
#X floatatom 1191 70 3 0 29 1 bgColor - - 0;
#X floatatom 1295 70 3 0 29 1 lblColor - - 0;
#X obj 1295 92 t b f;
#X msg 1191 145 color \$1 \$2 \$3;
#X obj 1191 124 pack 1 22 22, f 14;
#X text 1170 18 Color Presets (0-29):;
#X obj 24 42 inlet;
#X obj 8 42 cnv 14 14 14 empty empty 0 4 8 0 12 #606060 #dcdcdc 0;
#X symbolatom 24 210 10 0 0 0 - - - 0;
#X obj 588 330 send, f 13;
#X obj 400 42 inlet;
#X obj 314 42 inlet;
#X obj 491 42 inlet;
#X obj 155 42 cnv 14 14 14 empty empty 1 4 8 0 12 #606060 #dcdcdc 0;
#X obj 297 42 cnv 14 14 14 empty empty 2 4 8 0 12 #606060 #dcdcdc 0;
#X obj 384 42 cnv 14 14 14 empty empty 3 4 8 0 12 #606060 #dcdcdc 0;
#X obj 721 42 inlet;
#X obj 589 42 inlet;
#X obj 817 42 inlet;
#X obj 476 42 cnv 14 14 14 empty empty 4 4 8 0 12 #606060 #dcdcdc 0;
#X obj 573 42 cnv 14 14 14 empty empty 5 4 8 0 12 #606060 #dcdcdc 0;
#X obj 703 42 cnv 14 14 14 empty empty 6 4 8 0 12 #606060 #dcdcdc 0;
#X text 315 18 Size;
#X text 421 18 Visible Size;
#X text 635 18 Label Font;
#X text 824 18 Label Offset;
#X obj 889 42 inlet;
#X obj 800 42 cnv 14 14 14 empty empty 7 4 8 0 12 #606060 #dcdcdc 0;
#X msg 1052 89 symbol my\ label;
#X symbolatom 973 92 10 0 0 0 - - - 0;
#X obj 973 42 inlet;
#X obj 872 42 cnv 14 14 14 empty empty 8 4 8 0 12 #606060 #dcdcdc 0;
#X msg 973 70 symbol \$1;
#X text 1007 18 Label Text;
#X obj 1191 42 inlet;
#X obj 958 42 cnv 14 14 14 empty empty 9 4 8 0 12 #606060 #dcdcdc 0;
#X obj 1295 42 inlet;
#X obj 1174 42 cnv 14 14 14 empty empty 10 0 8 0 12 #606060 #dcdcdc 0;
#X text 0 18 Canvas Name;
#X obj 284 2 cnv 5 1 260 empty empty empty 20 12 0 14 #7c7c7c #404040 0;
#X obj 738 322 cnv 2 1000 40 empty \$0-test_canvas tdh.util.spectrum.ui 20 15 0 16 #a0a0a0 #202020 0;
#X obj 415 328 s \$0-test_canvas;
#X obj 210 187 spigot;
#X obj 170 88 tgl 15 0 empty empty empty 17 7 0 10 #fcfcfc #000000 #000000 0 1;
#X obj 249 134 == 1;
#X obj 101 135 == 0;
#X obj 144 134 list append \$0;
#X msg 144 157 symbol \$2-\$1;
#X msg 24 136 symbol \$1;
#X obj 24 167 spigot;
#X obj 170 42 inlet;
#X obj 1279 42 cnv 14 14 14 empty empty 11 0 8 0 12 #606060 #dcdcdc 0;
#X text 136 18 Add "\$0" option;
#X obj 374 2 cnv 5 1 260 empty empty empty 20 12 0 14 #7c7c7c #404040 0;
#X obj 561 2 cnv 5 1 260 empty empty empty 20 12 0 14 #7c7c7c #404040 0;
#X obj 791 2 cnv 5 1 260 empty empty empty 20 12 0 14 #7c7c7c #404040 0;
#X obj 944 2 cnv 5 1 260 empty empty empty 20 12 0 14 #7c7c7c #404040 0;
#X obj 1164 2 cnv 5 1 260 empty empty empty 20 12 0 14 #7c7c7c #404040 0;
#X connect 0 0 1 0;
#X connect 1 0 37 0;
#X connect 1 0 69 0;
#X connect 2 0 6 0;
#X connect 3 0 2 0;
#X connect 3 1 2 1;
#X connect 4 0 3 0;
#X connect 5 0 2 0;
#X connect 6 0 37 0;
#X connect 6 0 69 0;
#X connect 9 0 26 0;
#X connect 10 0 26 0;
#X connect 10 1 26 1;
#X connect 11 0 10 0;
#X connect 12 0 37 0;
#X connect 12 0 69 0;
#X connect 15 0 9 0;
#X connect 19 0 25 0;
#X connect 20 0 25 0;
#X connect 20 1 25 1;
#X connect 21 0 20 0;
#X connect 22 0 37 0;
#X connect 22 0 69 0;
#X connect 25 0 22 0;
#X connect 26 0 12 0;
#X connect 27 0 37 0;
#X connect 27 0 69 0;
#X connect 28 0 32 0;
#X connect 29 0 30 0;
#X connect 30 0 32 0;
#X connect 30 1 32 2;
#X connect 31 0 37 0;
#X connect 31 0 69 0;
#X connect 32 0 31 0;
#X connect 34 0 74 0;
#X connect 34 0 76 0;
#X connect 36 0 37 1;
#X connect 38 0 5 0;
#X connect 39 0 0 0;
#X connect 40 0 4 0;
#X connect 44 0 11 0;
#X connect 45 0 15 0;
#X connect 46 0 19 0;
#X connect 54 0 21 0;
#X connect 56 0 27 0;
#X connect 57 0 27 0;
#X connect 58 0 60 0;
#X connect 60 0 57 0;
#X connect 62 0 28 0;
#X connect 64 0 29 0;
#X connect 70 0 36 0;
#X connect 71 0 72 0;
#X connect 71 0 73 0;
#X connect 72 0 70 1;
#X connect 73 0 77 1;
#X connect 74 0 75 0;
#X connect 75 0 70 0;
#X connect 76 0 77 0;
#X connect 77 0 36 0;
#X connect 78 0 71 0;
#X restore 6 354 pd label-properties;
#X f 45;
#X floatatom 273 219 5 0 29 0 BG-Clr - - 0;
#X floatatom 180 174 5 0 0 0 Vis-Sz-W - - 0;
#X floatatom 181 198 5 0 0 0 Vis-Sz-H - - 0;
#X floatatom 271 150 5 0 0 0 Lbl-X - - 0;
#X floatatom 272 174 5 0 0 0 Lbl-Y - - 0;
#X floatatom 180 150 5 0 0 0 Size - - 0;
#X symbolatom 214 127 10 0 0 0 CnvReceiveSymbol - - 0;
#X floatatom 181 219 5 0 2 0 Lbl-Fon - - 0;
#X symbolatom 274 195 10 0 0 0 Lbl-Txt - - 0;
#X obj 295 128 tgl 15 0 empty empty Append_0 20 7 0 10 #fcfcfc #fc8000 #000000 0 1;
#X text 194 103 Label Properties;
#X obj 28 18 inlet;
#X obj 414 223 cnv 15 500 30 empty \$0-myCanvas This\ is\ my\ label? 9 13 0 18 #e0e0e0 #606060 0;
#X obj 28 54 route doll rec size visw vish lblfon lblsz lblx lbly bgclr lblclr, f 66;
#X obj 56 93 symbol;
#X text 6 4 _;
#X text 479 173 dollarsign0-myCanvas;
#X msg 74 18 doll 1 \, rec myCanvas \, size 15 \, visw 50 \, vish 60 \, lblfon 0 \, lblsz 18 \, lblx 9 \, lbly 13 \, bgclr 10 \, lblclr 21, f 106;
#N canvas 240 66 752 410 \$0-how-to-set-values-externally 0;
#X text 112 49 doll [0/1] - toggle on appending "\$0-" at the start of the recieve symbol, f 85;
#X text 112 102 visw [float] - the visible width of the canvas in pixels, f 85;
#X text 112 85 size [float] - the size of the clickable/dragable portion of the canvas in pixels, f 85;
#X text 112 122 vish [float] - the visible height of the canvas in pixels, f 85;
#X text 111 141 lblfon [0/1/2] - font designation for the canvas' label \, with [0] for Menlo \, [1] for, f 89;
#X text 131 155 Helvetica \, [2] for Times. Note that these fonts may be different on Windows or Linux, f 84;
#X text 111 173 lblsz [float] - font size designation for the canvas' label, f 85;
#X text 111 213 lbly [float] - y offset in pixels from the top left corner of the canvas, f 85;
#X text 111 193 lblx [float] - x offset (horizontal) in pixels from the top left corner of the canvas, f 85;
#X text 4 29 To set the values for your canvas object externally \, send messages with the following signifiers to the 0 (leftmost) inlet:, f 124;
#X msg 31 336 doll 1 \, rec myCanvas \, size 15 \, visw 500 \, vish 30 \, lblfon 0 \, lblsz 18 \, lblx 9 \, lbly 13 \, bgclr 10 \, lblclr 21, f 106;
#X text 111 67 rec [symbol] - receive symbol for the canvas, f 85;
#X obj 90 241 cnv 5 5 5 empty \$0-canvas-format-helper-boldstatement1 Please\ note\ that\ the\ $-0\ designation\ (1\ or\ 0)\ MUST\ be\ sent\ first\,\ followed\ by\ the\ canvas\  1 9 0 12 #fcfcfc #fc0400 0;
#N canvas 2423 143 808 250 init 0;
#X msg 30 102 label \$1;
#X msg 419 120 label \$1;
#X obj 29 147 s \$0-canvas-format-helper-boldstatement1;
#X obj 418 164 s \$0-canvas-format-helper-boldstatement2;
#X obj 233 15 loadbang;
#X msg 420 51 symbol receive\ symbol!\ Failure\ to\ do\ so\ will\ cause\ incorrect\ parameter\ dispatching!;
#X msg 26 43 symbol Please\\\ note\\\ that\\\ the\\\ $-0\\\ designation\\\ (1\\\ or\\\ 0)\\\ MUST\\\ be\\\ sent\\\ first\\\,\\\ followed\\\ by\\\ the\\\ canvas\\\ ;
#X connect 0 0 2 0;
#X connect 1 0 3 0;
#X connect 4 0 5 0;
#X connect 4 0 6 0;
#X connect 5 0 1 0;
#X connect 6 0 0 0;
#X restore 659 9 pd init;
#X obj 90 257 cnv 5 5 5 empty \$0-canvas-format-helper-boldstatement2 receive\ symbol!\ Failure\ to\ do\ so\ will\ cause\ incorrect\ parameter\ dispatching! 1 9 0 12 #fcfcfc #fc0400 0;
#X msg 112 362 symbol this\ is\ my\ label!;
#X text 296 357 The label parameter must be sent separately to Inlet 1 (rightmost inlet). The message must be prepended with the "symbol" identifier \, and the escape character () needs to be set in the message:, f 68;
#X text 102 286 All parameters EXCEPT label can be sent in a single message to Inlet 0 (leftmost inlet) like below (and this can be copied and pasted for easy initializing formatting)., f 89;
#X restore 326 378 pd \$0-how-to-set-values-externally;
#X msg 326 336 vis 1;
#X obj 326 357 s pd-\$0-how-to-set-values-externally;
#X obj 120 263 bng 15 250 50 0 empty empty empty 17 7 0 10 #fcfcfc #000000 #000000;
#X text 141 263 How to set canvas values externally;
#X text 891 18 All left-inlet messages;
#X text 984 47 Label text;
#X msg 636 48 symbol This\ is\ my\ label?;
#X obj 587 47 inlet;
#X obj 632 184 cnv 5 5 5 empty empty ↴ -3 3 0 24 #fcfcfc #606060 0;
#X connect 0 0 2 6;
#X connect 1 0 2 11;
#X connect 3 0 2 10;
#X connect 4 0 2 3;
#X connect 5 0 2 4;
#X connect 6 0 2 7;
#X connect 7 0 2 8;
#X connect 8 0 2 2;
#X connect 9 0 2 0;
#X connect 10 0 2 5;
#X connect 11 0 2 9;
#X connect 12 0 2 1;
#X connect 14 0 16 0;
#X connect 16 0 12 0;
#X connect 16 1 17 0;
#X connect 16 2 8 0;
#X connect 16 3 4 0;
#X connect 16 4 5 0;
#X connect 16 5 10 0;
#X connect 16 6 0 0;
#X connect 16 7 6 0;
#X connect 16 8 7 0;
#X connect 16 9 3 0;
#X connect 16 10 1 0;
#X connect 17 0 9 0;
#X connect 20 0 16 0;
#X connect 22 0 23 0;
#X connect 24 0 22 0;
#X connect 28 0 11 0;
#X connect 29 0 11 0;
#X coords 0 -1 1 1 300 190 2 100 100;
#X restore 25 27 pd graph;
#X obj 25 1 inlet;
#X connect 0 0 1 1;
#X connect 2 0 1 0;
#X restore 343 595 pd canvas-ctrl;
#N canvas 673 23 349 258 canvas-ctrl 0;
#X obj 291 1 inlet;
#N canvas 248 270 1089 459 graph 0;
#X floatatom 180 241 5 0 0 0 Lbl-Sz - - 0;
#X floatatom 273 241 5 0 29 0 Lbl-Clr - - 0;
#N canvas 32 23 1408 389 label-properties 0;
#X floatatom 314 72 3 18 100 0 - - - 0;
#X msg 314 99 size \$1;
#X obj 400 121 pack 100 60, f 18;
#X obj 491 93 t b f;
#X floatatom 491 68 4 18 100 0 - - - 0;
#X floatatom 400 68 4 18 100 0 - - - 0;
#X msg 400 148 vis_size \$1 \$2;
#X text 442 41 w/x;
#X text 532 41 h/y;
#X floatatom 589 116 4 0 3 0 - - - 0;
#X obj 721 135 t b f;
#X floatatom 721 116 5 5 50 0 - - - 0;
#X msg 589 185 label_font \$1 \$2;
#X text 632 41 type;
#X text 760 40 size;
#X obj 589 64 vradio 15 1 0 3 empty empty empty 0 -8 0 10 #fcfcfc #000000 #000000 0;
#X text 605 63 DejaVu Sans Mono;
#X text 605 78 Helvetica;
#X text 606 93 Times;
#X floatatom 817 71 4 -100 250 0 - - - 0;
#X obj 889 98 t b f;
#X floatatom 889 71 5 -150 150 0 - - - 0;
#X msg 817 148 label_pos \$1 \$2;
#X text 856 41 x;
#X text 929 41 y;
#X obj 817 126 pack 17 20, f 17;
#X obj 589 164 pack 0 25, f 24;
#X msg 973 129 label \$1;
#X floatatom 1191 70 3 0 29 1 bgColor - - 0;
#X floatatom 1295 70 3 0 29 1 lblColor - - 0;
#X obj 1295 92 t b f;
#X msg 1191 145 color \$1 \$2 \$3;
#X obj 1191 124 pack 1 22 22, f 14;
#X text 1170 18 Color Presets (0-29):;
#X obj 24 42 inlet;
#X obj 8 42 cnv 14 14 14 empty empty 0 4 8 0 12 #606060 #dcdcdc 0;
#X symbolatom 24 210 10 0 0 0 - - - 0;
#X obj 588 330 send, f 13;
#X obj 400 42 inlet;
#X obj 314 42 inlet;
#X obj 491 42 inlet;
#X obj 155 42 cnv 14 14 14 empty empty 1 4 8 0 12 #606060 #dcdcdc 0;
#X obj 297 42 cnv 14 14 14 empty empty 2 4 8 0 12 #606060 #dcdcdc 0;
#X obj 384 42 cnv 14 14 14 empty empty 3 4 8 0 12 #606060 #dcdcdc 0;
#X obj 721 42 inlet;
#X obj 589 42 inlet;
#X obj 817 42 inlet;
#X obj 476 42 cnv 14 14 14 empty empty 4 4 8 0 12 #606060 #dcdcdc 0;
#X obj 573 42 cnv 14 14 14 empty empty 5 4 8 0 12 #606060 #dcdcdc 0;
#X obj 703 42 cnv 14 14 14 empty empty 6 4 8 0 12 #606060 #dcdcdc 0;
#X text 315 18 Size;
#X text 421 18 Visible Size;
#X text 635 18 Label Font;
#X text 824 18 Label Offset;
#X obj 889 42 inlet;
#X obj 800 42 cnv 14 14 14 empty empty 7 4 8 0 12 #606060 #dcdcdc 0;
#X msg 1052 89 symbol my\ label;
#X symbolatom 973 92 10 0 0 0 - - - 0;
#X obj 973 42 inlet;
#X obj 872 42 cnv 14 14 14 empty empty 8 4 8 0 12 #606060 #dcdcdc 0;
#X msg 973 70 symbol \$1;
#X text 1007 18 Label Text;
#X obj 1191 42 inlet;
#X obj 958 42 cnv 14 14 14 empty empty 9 4 8 0 12 #606060 #dcdcdc 0;
#X obj 1295 42 inlet;
#X obj 1174 42 cnv 14 14 14 empty empty 10 0 8 0 12 #606060 #dcdcdc 0;
#X text 0 18 Canvas Name;
#X obj 284 2 cnv 5 1 260 empty empty empty 20 12 0 14 #7c7c7c #404040 0;
#X obj 738 322 cnv 2 1000 40 empty \$0-test_canvas tdh.util.spectrum.ui 20 15 0 16 #a0a0a0 #202020 0;
#X obj 415 328 s \$0-test_canvas;
#X obj 210 187 spigot;
#X obj 170 88 tgl 15 0 empty empty empty 17 7 0 10 #fcfcfc #000000 #000000 0 1;
#X obj 249 134 == 1;
#X obj 101 135 == 0;
#X obj 144 134 list append \$0;
#X msg 144 157 symbol \$2-\$1;
#X msg 24 136 symbol \$1;
#X obj 24 167 spigot;
#X obj 170 42 inlet;
#X obj 1279 42 cnv 14 14 14 empty empty 11 0 8 0 12 #606060 #dcdcdc 0;
#X text 136 18 Add "\$0" option;
#X obj 374 2 cnv 5 1 260 empty empty empty 20 12 0 14 #7c7c7c #404040 0;
#X obj 561 2 cnv 5 1 260 empty empty empty 20 12 0 14 #7c7c7c #404040 0;
#X obj 791 2 cnv 5 1 260 empty empty empty 20 12 0 14 #7c7c7c #404040 0;
#X obj 944 2 cnv 5 1 260 empty empty empty 20 12 0 14 #7c7c7c #404040 0;
#X obj 1164 2 cnv 5 1 260 empty empty empty 20 12 0 14 #7c7c7c #404040 0;
#X connect 0 0 1 0;
#X connect 1 0 37 0;
#X connect 1 0 69 0;
#X connect 2 0 6 0;
#X connect 3 0 2 0;
#X connect 3 1 2 1;
#X connect 4 0 3 0;
#X connect 5 0 2 0;
#X connect 6 0 37 0;
#X connect 6 0 69 0;
#X connect 9 0 26 0;
#X connect 10 0 26 0;
#X connect 10 1 26 1;
#X connect 11 0 10 0;
#X connect 12 0 37 0;
#X connect 12 0 69 0;
#X connect 15 0 9 0;
#X connect 19 0 25 0;
#X connect 20 0 25 0;
#X connect 20 1 25 1;
#X connect 21 0 20 0;
#X connect 22 0 37 0;
#X connect 22 0 69 0;
#X connect 25 0 22 0;
#X connect 26 0 12 0;
#X connect 27 0 37 0;
#X connect 27 0 69 0;
#X connect 28 0 32 0;
#X connect 29 0 30 0;
#X connect 30 0 32 0;
#X connect 30 1 32 2;
#X connect 31 0 37 0;
#X connect 31 0 69 0;
#X connect 32 0 31 0;
#X connect 34 0 74 0;
#X connect 34 0 76 0;
#X connect 36 0 37 1;
#X connect 38 0 5 0;
#X connect 39 0 0 0;
#X connect 40 0 4 0;
#X connect 44 0 11 0;
#X connect 45 0 15 0;
#X connect 46 0 19 0;
#X connect 54 0 21 0;
#X connect 56 0 27 0;
#X connect 57 0 27 0;
#X connect 58 0 60 0;
#X connect 60 0 57 0;
#X connect 62 0 28 0;
#X connect 64 0 29 0;
#X connect 70 0 36 0;
#X connect 71 0 72 0;
#X connect 71 0 73 0;
#X connect 72 0 70 1;
#X connect 73 0 77 1;
#X connect 74 0 75 0;
#X connect 75 0 70 0;
#X connect 76 0 77 0;
#X connect 77 0 36 0;
#X connect 78 0 71 0;
#X restore 6 354 pd label-properties;
#X f 45;
#X floatatom 273 219 5 0 29 0 BG-Clr - - 0;
#X floatatom 180 174 5 0 0 0 Vis-Sz-W - - 0;
#X floatatom 181 198 5 0 0 0 Vis-Sz-H - - 0;
#X floatatom 271 150 5 0 0 0 Lbl-X - - 0;
#X floatatom 272 174 5 0 0 0 Lbl-Y - - 0;
#X floatatom 180 150 5 0 0 0 Size - - 0;
#X symbolatom 214 127 10 0 0 0 CnvReceiveSymbol - - 0;
#X floatatom 181 219 5 0 2 0 Lbl-Fon - - 0;
#X symbolatom 274 195 10 0 0 0 Lbl-Txt - - 0;
#X obj 295 128 tgl 15 0 empty empty Append_0 20 7 0 10 #fcfcfc #fc8000 #000000 0 1;
#X text 194 103 Label Properties;
#X obj 28 18 inlet;
#X obj 414 223 cnv 15 500 30 empty \$0-myCanvas This\ is\ my\ label? 9 13 0 18 #e0e0e0 #606060 0;
#X obj 28 54 route doll rec size visw vish lblfon lblsz lblx lbly bgclr lblclr, f 66;
#X obj 56 93 symbol;
#X text 6 4 _;
#X text 479 173 dollarsign0-myCanvas;
#X msg 74 18 doll 1 \, rec myCanvas \, size 15 \, visw 50 \, vish 60 \, lblfon 0 \, lblsz 18 \, lblx 9 \, lbly 13 \, bgclr 10 \, lblclr 21, f 106;
#N canvas 240 66 752 410 \$0-how-to-set-values-externally 0;
#X text 112 49 doll [0/1] - toggle on appending "\$0-" at the start of the recieve symbol, f 85;
#X text 112 102 visw [float] - the visible width of the canvas in pixels, f 85;
#X text 112 85 size [float] - the size of the clickable/dragable portion of the canvas in pixels, f 85;
#X text 112 122 vish [float] - the visible height of the canvas in pixels, f 85;
#X text 111 141 lblfon [0/1/2] - font designation for the canvas' label \, with [0] for Menlo \, [1] for, f 89;
#X text 131 155 Helvetica \, [2] for Times. Note that these fonts may be different on Windows or Linux, f 84;
#X text 111 173 lblsz [float] - font size designation for the canvas' label, f 85;
#X text 111 213 lbly [float] - y offset in pixels from the top left corner of the canvas, f 85;
#X text 111 193 lblx [float] - x offset (horizontal) in pixels from the top left corner of the canvas, f 85;
#X text 4 29 To set the values for your canvas object externally \, send messages with the following signifiers to the 0 (leftmost) inlet:, f 124;
#X msg 31 336 doll 1 \, rec myCanvas \, size 15 \, visw 500 \, vish 30 \, lblfon 0 \, lblsz 18 \, lblx 9 \, lbly 13 \, bgclr 10 \, lblclr 21, f 106;
#X text 111 67 rec [symbol] - receive symbol for the canvas, f 85;
#X obj 90 241 cnv 5 5 5 empty \$0-canvas-format-helper-boldstatement1 Please\ note\ that\ the\ $-0\ designation\ (1\ or\ 0)\ MUST\ be\ sent\ first\,\ followed\ by\ the\ canvas\  1 9 0 12 #fcfcfc #fc0400 0;
#N canvas 2423 143 808 250 init 0;
#X msg 30 102 label \$1;
#X msg 419 120 label \$1;
#X obj 29 147 s \$0-canvas-format-helper-boldstatement1;
#X obj 418 164 s \$0-canvas-format-helper-boldstatement2;
#X obj 233 15 loadbang;
#X msg 420 51 symbol receive\ symbol!\ Failure\ to\ do\ so\ will\ cause\ incorrect\ parameter\ dispatching!;
#X msg 26 43 symbol Please\\\ note\\\ that\\\ the\\\ $-0\\\ designation\\\ (1\\\ or\\\ 0)\\\ MUST\\\ be\\\ sent\\\ first\\\,\\\ followed\\\ by\\\ the\\\ canvas\\\ ;
#X connect 0 0 2 0;
#X connect 1 0 3 0;
#X connect 4 0 5 0;
#X connect 4 0 6 0;
#X connect 5 0 1 0;
#X connect 6 0 0 0;
#X restore 659 9 pd init;
#X obj 90 257 cnv 5 5 5 empty \$0-canvas-format-helper-boldstatement2 receive\ symbol!\ Failure\ to\ do\ so\ will\ cause\ incorrect\ parameter\ dispatching! 1 9 0 12 #fcfcfc #fc0400 0;
#X msg 112 362 symbol this\ is\ my\ label!;
#X text 296 357 The label parameter must be sent separately to Inlet 1 (rightmost inlet). The message must be prepended with the "symbol" identifier \, and the escape character () needs to be set in the message:, f 68;
#X text 102 286 All parameters EXCEPT label can be sent in a single message to Inlet 0 (leftmost inlet) like below (and this can be copied and pasted for easy initializing formatting)., f 89;
#X restore 326 378 pd \$0-how-to-set-values-externally;
#X msg 326 336 vis 1;
#X obj 326 357 s pd-\$0-how-to-set-values-externally;
#X obj 120 263 bng 15 250 50 0 empty empty empty 17 7 0 10 #fcfcfc #000000 #000000;
#X text 141 263 How to set canvas values externally;
#X text 891 18 All left-inlet messages;
#X text 984 47 Label text;
#X msg 636 48 symbol This\ is\ my\ label?;
#X obj 587 47 inlet;
#X obj 632 184 cnv 5 5 5 empty empty ↴ -3 3 0 24 #fcfcfc #606060 0;
#X connect 0 0 2 6;
#X connect 1 0 2 11;
#X connect 3 0 2 10;
#X connect 4 0 2 3;
#X connect 5 0 2 4;
#X connect 6 0 2 7;
#X connect 7 0 2 8;
#X connect 8 0 2 2;
#X connect 9 0 2 0;
#X connect 10 0 2 5;
#X connect 11 0 2 9;
#X connect 12 0 2 1;
#X connect 14 0 16 0;
#X connect 16 0 12 0;
#X connect 16 1 17 0;
#X connect 16 2 8 0;
#X connect 16 3 4 0;
#X connect 16 4 5 0;
#X connect 16 5 10 0;
#X connect 16 6 0 0;
#X connect 16 7 6 0;
#X connect 16 8 7 0;
#X connect 16 9 3 0;
#X connect 16 10 1 0;
#X connect 17 0 9 0;
#X connect 20 0 16 0;
#X connect 22 0 23 0;
#X connect 24 0 22 0;
#X connect 28 0 11 0;
#X connect 29 0 11 0;
#X coords 0 -1 1 1 300 190 2 100 100;
#X restore 25 27 pd graph;
#X obj 25 1 inlet;
#X connect 0 0 1 1;
#X connect 2 0 1 0;
#X restore 343 1075 pd canvas-ctrl;
#N canvas 673 23 349 258 canvas-ctrl 0;
#X obj 291 1 inlet;
#N canvas 248 270 1089 459 graph 0;
#X floatatom 180 241 5 0 0 0 Lbl-Sz - - 0;
#X floatatom 273 241 5 0 29 0 Lbl-Clr - - 0;
#N canvas 32 23 1408 389 label-properties 0;
#X floatatom 314 72 3 18 100 0 - - - 0;
#X msg 314 99 size \$1;
#X obj 400 121 pack 100 60, f 18;
#X obj 491 93 t b f;
#X floatatom 491 68 4 18 100 0 - - - 0;
#X floatatom 400 68 4 18 100 0 - - - 0;
#X msg 400 148 vis_size \$1 \$2;
#X text 442 41 w/x;
#X text 532 41 h/y;
#X floatatom 589 116 4 0 3 0 - - - 0;
#X obj 721 135 t b f;
#X floatatom 721 116 5 5 50 0 - - - 0;
#X msg 589 185 label_font \$1 \$2;
#X text 632 41 type;
#X text 760 40 size;
#X obj 589 64 vradio 15 1 0 3 empty empty empty 0 -8 0 10 #fcfcfc #000000 #000000 0;
#X text 605 63 DejaVu Sans Mono;
#X text 605 78 Helvetica;
#X text 606 93 Times;
#X floatatom 817 71 4 -100 250 0 - - - 0;
#X obj 889 98 t b f;
#X floatatom 889 71 5 -150 150 0 - - - 0;
#X msg 817 148 label_pos \$1 \$2;
#X text 856 41 x;
#X text 929 41 y;
#X obj 817 126 pack 17 20, f 17;
#X obj 589 164 pack 0 25, f 24;
#X msg 973 129 label \$1;
#X floatatom 1191 70 3 0 29 1 bgColor - - 0;
#X floatatom 1295 70 3 0 29 1 lblColor - - 0;
#X obj 1295 92 t b f;
#X msg 1191 145 color \$1 \$2 \$3;
#X obj 1191 124 pack 1 22 22, f 14;
#X text 1170 18 Color Presets (0-29):;
#X obj 24 42 inlet;
#X obj 8 42 cnv 14 14 14 empty empty 0 4 8 0 12 #606060 #dcdcdc 0;
#X symbolatom 24 210 10 0 0 0 - - - 0;
#X obj 588 330 send, f 13;
#X obj 400 42 inlet;
#X obj 314 42 inlet;
#X obj 491 42 inlet;
#X obj 155 42 cnv 14 14 14 empty empty 1 4 8 0 12 #606060 #dcdcdc 0;
#X obj 297 42 cnv 14 14 14 empty empty 2 4 8 0 12 #606060 #dcdcdc 0;
#X obj 384 42 cnv 14 14 14 empty empty 3 4 8 0 12 #606060 #dcdcdc 0;
#X obj 721 42 inlet;
#X obj 589 42 inlet;
#X obj 817 42 inlet;
#X obj 476 42 cnv 14 14 14 empty empty 4 4 8 0 12 #606060 #dcdcdc 0;
#X obj 573 42 cnv 14 14 14 empty empty 5 4 8 0 12 #606060 #dcdcdc 0;
#X obj 703 42 cnv 14 14 14 empty empty 6 4 8 0 12 #606060 #dcdcdc 0;
#X text 315 18 Size;
#X text 421 18 Visible Size;
#X text 635 18 Label Font;
#X text 824 18 Label Offset;
#X obj 889 42 inlet;
#X obj 800 42 cnv 14 14 14 empty empty 7 4 8 0 12 #606060 #dcdcdc 0;
#X msg 1052 89 symbol my\ label;
#X symbolatom 973 92 10 0 0 0 - - - 0;
#X obj 973 42 inlet;
#X obj 872 42 cnv 14 14 14 empty empty 8 4 8 0 12 #606060 #dcdcdc 0;
#X msg 973 70 symbol \$1;
#X text 1007 18 Label Text;
#X obj 1191 42 inlet;
#X obj 958 42 cnv 14 14 14 empty empty 9 4 8 0 12 #606060 #dcdcdc 0;
#X obj 1295 42 inlet;
#X obj 1174 42 cnv 14 14 14 empty empty 10 0 8 0 12 #606060 #dcdcdc 0;
#X text 0 18 Canvas Name;
#X obj 284 2 cnv 5 1 260 empty empty empty 20 12 0 14 #7c7c7c #404040 0;
#X obj 738 322 cnv 2 1000 40 empty \$0-test_canvas tdh.util.spectrum.ui 20 15 0 16 #a0a0a0 #202020 0;
#X obj 415 328 s \$0-test_canvas;
#X obj 210 187 spigot;
#X obj 170 88 tgl 15 0 empty empty empty 17 7 0 10 #fcfcfc #000000 #000000 0 1;
#X obj 249 134 == 1;
#X obj 101 135 == 0;
#X obj 144 134 list append \$0;
#X msg 144 157 symbol \$2-\$1;
#X msg 24 136 symbol \$1;
#X obj 24 167 spigot;
#X obj 170 42 inlet;
#X obj 1279 42 cnv 14 14 14 empty empty 11 0 8 0 12 #606060 #dcdcdc 0;
#X text 136 18 Add "\$0" option;
#X obj 374 2 cnv 5 1 260 empty empty empty 20 12 0 14 #7c7c7c #404040 0;
#X obj 561 2 cnv 5 1 260 empty empty empty 20 12 0 14 #7c7c7c #404040 0;
#X obj 791 2 cnv 5 1 260 empty empty empty 20 12 0 14 #7c7c7c #404040 0;
#X obj 944 2 cnv 5 1 260 empty empty empty 20 12 0 14 #7c7c7c #404040 0;
#X obj 1164 2 cnv 5 1 260 empty empty empty 20 12 0 14 #7c7c7c #404040 0;
#X connect 0 0 1 0;
#X connect 1 0 37 0;
#X connect 1 0 69 0;
#X connect 2 0 6 0;
#X connect 3 0 2 0;
#X connect 3 1 2 1;
#X connect 4 0 3 0;
#X connect 5 0 2 0;
#X connect 6 0 37 0;
#X connect 6 0 69 0;
#X connect 9 0 26 0;
#X connect 10 0 26 0;
#X connect 10 1 26 1;
#X connect 11 0 10 0;
#X connect 12 0 37 0;
#X connect 12 0 69 0;
#X connect 15 0 9 0;
#X connect 19 0 25 0;
#X connect 20 0 25 0;
#X connect 20 1 25 1;
#X connect 21 0 20 0;
#X connect 22 0 37 0;
#X connect 22 0 69 0;
#X connect 25 0 22 0;
#X connect 26 0 12 0;
#X connect 27 0 37 0;
#X connect 27 0 69 0;
#X connect 28 0 32 0;
#X connect 29 0 30 0;
#X connect 30 0 32 0;
#X connect 30 1 32 2;
#X connect 31 0 37 0;
#X connect 31 0 69 0;
#X connect 32 0 31 0;
#X connect 34 0 74 0;
#X connect 34 0 76 0;
#X connect 36 0 37 1;
#X connect 38 0 5 0;
#X connect 39 0 0 0;
#X connect 40 0 4 0;
#X connect 44 0 11 0;
#X connect 45 0 15 0;
#X connect 46 0 19 0;
#X connect 54 0 21 0;
#X connect 56 0 27 0;
#X connect 57 0 27 0;
#X connect 58 0 60 0;
#X connect 60 0 57 0;
#X connect 62 0 28 0;
#X connect 64 0 29 0;
#X connect 70 0 36 0;
#X connect 71 0 72 0;
#X connect 71 0 73 0;
#X connect 72 0 70 1;
#X connect 73 0 77 1;
#X connect 74 0 75 0;
#X connect 75 0 70 0;
#X connect 76 0 77 0;
#X connect 77 0 36 0;
#X connect 78 0 71 0;
#X restore 6 354 pd label-properties;
#X f 45;
#X floatatom 273 219 5 0 29 0 BG-Clr - - 0;
#X floatatom 180 174 5 0 0 0 Vis-Sz-W - - 0;
#X floatatom 181 198 5 0 0 0 Vis-Sz-H - - 0;
#X floatatom 271 150 5 0 0 0 Lbl-X - - 0;
#X floatatom 272 174 5 0 0 0 Lbl-Y - - 0;
#X floatatom 180 150 5 0 0 0 Size - - 0;
#X symbolatom 214 127 10 0 0 0 CnvReceiveSymbol - - 0;
#X floatatom 181 219 5 0 2 0 Lbl-Fon - - 0;
#X symbolatom 274 195 10 0 0 0 Lbl-Txt - - 0;
#X obj 295 128 tgl 15 0 empty empty Append_0 20 7 0 10 #fcfcfc #fc8000 #000000 0 1;
#X text 194 103 Label Properties;
#X obj 28 18 inlet;
#X obj 414 223 cnv 15 500 30 empty \$0-myCanvas This\ is\ my\ label? 9 13 0 18 #e0e0e0 #606060 0;
#X obj 28 54 route doll rec size visw vish lblfon lblsz lblx lbly bgclr lblclr, f 66;
#X obj 56 93 symbol;
#X text 6 4 _;
#X text 479 173 dollarsign0-myCanvas;
#X msg 74 18 doll 1 \, rec myCanvas \, size 15 \, visw 50 \, vish 60 \, lblfon 0 \, lblsz 18 \, lblx 9 \, lbly 13 \, bgclr 10 \, lblclr 21, f 106;
#N canvas 240 66 752 410 \$0-how-to-set-values-externally 0;
#X text 112 49 doll [0/1] - toggle on appending "\$0-" at the start of the recieve symbol, f 85;
#X text 112 102 visw [float] - the visible width of the canvas in pixels, f 85;
#X text 112 85 size [float] - the size of the clickable/dragable portion of the canvas in pixels, f 85;
#X text 112 122 vish [float] - the visible height of the canvas in pixels, f 85;
#X text 111 141 lblfon [0/1/2] - font designation for the canvas' label \, with [0] for Menlo \, [1] for, f 89;
#X text 131 155 Helvetica \, [2] for Times. Note that these fonts may be different on Windows or Linux, f 84;
#X text 111 173 lblsz [float] - font size designation for the canvas' label, f 85;
#X text 111 213 lbly [float] - y offset in pixels from the top left corner of the canvas, f 85;
#X text 111 193 lblx [float] - x offset (horizontal) in pixels from the top left corner of the canvas, f 85;
#X text 4 29 To set the values for your canvas object externally \, send messages with the following signifiers to the 0 (leftmost) inlet:, f 124;
#X msg 31 336 doll 1 \, rec myCanvas \, size 15 \, visw 500 \, vish 30 \, lblfon 0 \, lblsz 18 \, lblx 9 \, lbly 13 \, bgclr 10 \, lblclr 21, f 106;
#X text 111 67 rec [symbol] - receive symbol for the canvas, f 85;
#X obj 90 241 cnv 5 5 5 empty \$0-canvas-format-helper-boldstatement1 Please\ note\ that\ the\ $-0\ designation\ (1\ or\ 0)\ MUST\ be\ sent\ first\,\ followed\ by\ the\ canvas\  1 9 0 12 #fcfcfc #fc0400 0;
#N canvas 2423 143 808 250 init 0;
#X msg 30 102 label \$1;
#X msg 419 120 label \$1;
#X obj 29 147 s \$0-canvas-format-helper-boldstatement1;
#X obj 418 164 s \$0-canvas-format-helper-boldstatement2;
#X obj 233 15 loadbang;
#X msg 420 51 symbol receive\ symbol!\ Failure\ to\ do\ so\ will\ cause\ incorrect\ parameter\ dispatching!;
#X msg 26 43 symbol Please\\\ note\\\ that\\\ the\\\ $-0\\\ designation\\\ (1\\\ or\\\ 0)\\\ MUST\\\ be\\\ sent\\\ first\\\,\\\ followed\\\ by\\\ the\\\ canvas\\\ ;
#X connect 0 0 2 0;
#X connect 1 0 3 0;
#X connect 4 0 5 0;
#X connect 4 0 6 0;
#X connect 5 0 1 0;
#X connect 6 0 0 0;
#X restore 659 9 pd init;
#X obj 90 257 cnv 5 5 5 empty \$0-canvas-format-helper-boldstatement2 receive\ symbol!\ Failure\ to\ do\ so\ will\ cause\ incorrect\ parameter\ dispatching! 1 9 0 12 #fcfcfc #fc0400 0;
#X msg 112 362 symbol this\ is\ my\ label!;
#X text 296 357 The label parameter must be sent separately to Inlet 1 (rightmost inlet). The message must be prepended with the "symbol" identifier \, and the escape character () needs to be set in the message:, f 68;
#X text 102 286 All parameters EXCEPT label can be sent in a single message to Inlet 0 (leftmost inlet) like below (and this can be copied and pasted for easy initializing formatting)., f 89;
#X restore 326 378 pd \$0-how-to-set-values-externally;
#X msg 326 336 vis 1;
#X obj 326 357 s pd-\$0-how-to-set-values-externally;
#X obj 120 263 bng 15 250 50 0 empty empty empty 17 7 0 10 #fcfcfc #000000 #000000;
#X text 141 263 How to set canvas values externally;
#X text 891 18 All left-inlet messages;
#X text 984 47 Label text;
#X msg 636 48 symbol This\ is\ my\ label?;
#X obj 587 47 inlet;
#X obj 632 184 cnv 5 5 5 empty empty ↴ -3 3 0 24 #fcfcfc #606060 0;
#X connect 0 0 2 6;
#X connect 1 0 2 11;
#X connect 3 0 2 10;
#X connect 4 0 2 3;
#X connect 5 0 2 4;
#X connect 6 0 2 7;
#X connect 7 0 2 8;
#X connect 8 0 2 2;
#X connect 9 0 2 0;
#X connect 10 0 2 5;
#X connect 11 0 2 9;
#X connect 12 0 2 1;
#X connect 14 0 16 0;
#X connect 16 0 12 0;
#X connect 16 1 17 0;
#X connect 16 2 8 0;
#X connect 16 3 4 0;
#X connect 16 4 5 0;
#X connect 16 5 10 0;
#X connect 16 6 0 0;
#X connect 16 7 6 0;
#X connect 16 8 7 0;
#X connect 16 9 3 0;
#X connect 16 10 1 0;
#X connect 17 0 9 0;
#X connect 20 0 16 0;
#X connect 22 0 23 0;
#X connect 24 0 22 0;
#X connect 28 0 11 0;
#X connect 29 0 11 0;
#X coords 0 -1 1 1 300 190 2 100 100;
#X restore 25 27 pd graph;
#X obj 25 1 inlet;
#X connect 0 0 1 1;
#X connect 2 0 1 0;
#X restore 343 1251 pd canvas-ctrl;
#X obj 438 191 inlet;
#X obj 692 171 inlet;
#X text 735 170 Width;
#X obj 692 196 f 501;
#X msg 692 219 visw \$1;
#X text 481 189 Abstraction Name;
#X text 459 344 <-- Open to actively control canvas values \, or to see how to set values externally (as is done here), f 103;
#X obj 438 216 symbol;
#X obj 3 15 cnv 5 5 5 empty empty | 0 0 0 14 #fcfcfc #404040 0;
#X text 51 6 This is where the canvases get set. A VERY long list of values get sent to the subpatch [pd canvas-ctrl]. These properties can be addessed singularly through a key symbol (such as "size") and then a value., f 187;
#X text 51 47 [pd canvas-ctrl] also has a GUI which you can access by clicking on the object box. This is a good way to figure out canvas values., f 132;
#X text 51 104 Note that the canvas LABEL cannot be set with this list \, and must be set via the right inlet., f 95;
#X text 51 75 You can also click on the object box [pd how-to-use-canvas-ctrl] to see how to set canvas values with a message (currently the only way to save canvas values), f 160;
#X obj 343 279 loadbang;
#X obj 343 409 loadbang;
#X obj 692 244 s \$0-width;
#X obj 448 369 r \$0-width;
#X obj 450 465 r \$0-width;
#X obj 451 595 r \$0-width;
#X obj 343 527 loadbang;
#X obj 452 1075 r \$0-width;
#X obj 343 999 loadbang;
#X obj 453 1225 r \$0-width;
#X obj 343 1147 loadbang;
#X obj 3 985 cnv 5 5 5 empty empty | 0 0 0 14 #fcfcfc #404040 0;
#X obj 89 269 cnv 15 1200 1 empty empty Title 0 -15 0 18 #606060 #404040 0;
#X text 137 276 Canvas receive name:;
#X obj 88 398 cnv 15 1200 1 empty empty Section-Divider 0 -15 0 18 #606060 #404040 0;
#X obj 88 518 cnv 15 1200 1 empty empty Arguments 0 -15 0 18 #606060 #404040 0;
#X obj 88 987 cnv 15 1200 1 empty empty Notes 0 -15 0 18 #606060 #404040 0;
#X obj 88 1128 cnv 15 1200 1 empty empty Rev-History 0 -15 0 18 #606060 #404040 0;
#X obj 52 139 cnv 15 180 18 empty empty empty 20 12 0 14 #c4c4fc #404040 0;
#N canvas 1440 152 910 549 how-to-use-canvas-ctrl 0;
#X text 112 139 doll [0/1] - toggle on appending "\$0-" at the start of the recieve symbol, f 85;
#X text 112 192 visw [float] - the visible width of the canvas in pixels, f 85;
#X text 112 175 size [float] - the size of the clickable/dragable portion of the canvas in pixels, f 85;
#X text 112 212 vish [float] - the visible height of the canvas in pixels, f 85;
#X text 111 231 lblfon [0/1/2] - font designation for the canvas' label \, with [0] for Menlo \, [1] for, f 89;
#X text 131 245 Helvetica \, [2] for Times. Note that these fonts may be different on Windows or Linux, f 84;
#X text 111 263 lblsz [float] - font size designation for the canvas' label, f 85;
#X text 111 303 lbly [float] - y offset in pixels from the top left corner of the canvas, f 85;
#X text 111 283 lblx [float] - x offset (horizontal) in pixels from the top left corner of the canvas, f 85;
#X text 4 119 To set the values for your canvas object externally \, send messages with the following signifiers to the 0 (leftmost) inlet:, f 124;
#X msg 31 426 doll 1 \, rec myCanvas \, size 15 \, visw 500 \, vish 30 \, lblfon 0 \, lblsz 18 \, lblx 9 \, lbly 13 \, bgclr 10 \, lblclr 21, f 106;
#X text 111 157 rec [symbol] - receive symbol for the canvas, f 85;
#X obj 90 331 cnv 5 5 5 empty \$0-canvas-format-helper-boldstatement1 Please\ note\ that\ the\ $-0\ designation\ (1\ or\ 0)\ MUST\ be\ sent\ first\,\ followed\ by\ the\ canvas\  1 9 0 12 #fcfcfc #fc0400 0;
#N canvas 632 143 808 250 init 0;
#X msg 126 74 label \$1;
#X msg 489 71 label \$1;
#X obj 126 97 s \$0-canvas-format-helper-boldstatement1;
#X obj 489 94 s \$0-canvas-format-helper-boldstatement2;
#X obj 26 17 loadbang;
#X msg 489 41 symbol receive\ symbol!\ Failure\ to\ do\ so\ will\ cause\ incorrect\ parameter\ dispatching!;
#X msg 126 43 symbol Please\\\ note\\\ that\\\ the\\\ $-0\\\ designation\\\ (1\\\ or\\\ 0)\\\ MUST\\\ be\\\ sent\\\ first\\\,\\\ followed\\\ by\\\ the\\\ canvas\\\ ;
#X obj 98 203 s \$0-canvas-format-helper-title;
#X msg 54 180 label \$1;
#X msg 54 148 symbol Using\ [pd\ canvas-ctrl]\ and\ setting\ values\ externally;
#X connect 0 0 2 0;
#X connect 1 0 3 0;
#X connect 4 0 5 0;
#X connect 4 0 6 0;
#X connect 5 0 1 0;
#X connect 6 0 0 0;
#X connect 8 0 7 0;
#X connect 9 0 8 0;
#X restore 704 13 pd init;
#X obj 90 347 cnv 5 5 5 empty \$0-canvas-format-helper-boldstatement2 receive\ symbol!\ Failure\ to\ do\ so\ will\ cause\ incorrect\ parameter\ dispatching! 1 9 0 12 #fcfcfc #fc0400 0;
#X msg 112 452 symbol this\ is\ my\ label!;
#X text 296 447 The label parameter must be sent separately to Inlet 1 (rightmost inlet). The message must be prepended with the "symbol" identifier \, and the escape character () needs to be set in the message:, f 68;
#X text 102 376 All parameters EXCEPT label can be sent in a single message to Inlet 0 (leftmost inlet) like below (and this can be copied and pasted for easy initializing formatting)., f 89;
#X obj 148 18 cnv 5 5 5 empty \$0-canvas-format-helper-title Using\ [pd\ canvas-ctrl]\ and\ setting\ values\ externally 1 9 0 12 #fcfcfc #fc0400 0;
#X text 6 43 By inserting a canvas into your patch \, giving it a RECEIVE NAME (via properties) \, inserting the [canvas-ctrl] object into your patch \, and finally telling [canvas-ctrl] the receive name via the message [rec "receive name"( to the left inlet (type the text between "[(" into a message box \, no quotes \, substituting "receive name" for your name. *IF* your receive name has "\$0-" as a prefix (common practice for [send] and [receive] names) \, you need to FIRST send [canvas-ctrl] the message [doll 1( which tells the object that the canbas name has "\$0-" at the start of its receive name., f 123;
#X restore 52 140 pd how-to-use-canvas-ctrl;
#X text 268 140 Click here to explore how to change the canvas properties with a message, f 72;
#X obj 244 145 cnv 5 5 5 empty empty ⟵ -3 3 0 30 #fcfcfc #9c00fc 0;
#X text 131 301 \$0-abstrPatchTitleBar;
#X msg 343 1028 doll 1 \, rec abstrPatchSecLabelNotes \, size 2 \, visw 501 \, vish 3 \, lblfon 0 \, lblsz 16 \, lblx 20 \, lbly 15 \, bgclr 1 \, lblclr 12, f 123;
#X text 127 539 \$0-abstrPatchSecLabelArgs;
#X msg 343 1179 doll 1 \, rec abstrPatchSecLabelRevHist \, size 2 \, visw 501 \, vish 3 \, lblfon 0 \, lblsz 16 \, lblx 20 \, lbly 15 \, bgclr 1 \, lblclr 12, f 123;
#X msg 438 1202 symbol Revision\ History;
#X msg 438 1052 symbol Notes;
#N canvas 673 23 349 258 canvas-ctrl 0;
#X obj 291 1 inlet;
#N canvas 248 270 1089 459 graph 0;
#X floatatom 180 241 5 0 0 0 Lbl-Sz - - 0;
#X floatatom 273 241 5 0 29 0 Lbl-Clr - - 0;
#N canvas 32 23 1408 389 label-properties 0;
#X floatatom 314 72 3 18 100 0 - - - 0;
#X msg 314 99 size \$1;
#X obj 400 121 pack 100 60, f 18;
#X obj 491 93 t b f;
#X floatatom 491 68 4 18 100 0 - - - 0;
#X floatatom 400 68 4 18 100 0 - - - 0;
#X msg 400 148 vis_size \$1 \$2;
#X text 442 41 w/x;
#X text 532 41 h/y;
#X floatatom 589 116 4 0 3 0 - - - 0;
#X obj 721 135 t b f;
#X floatatom 721 116 5 5 50 0 - - - 0;
#X msg 589 185 label_font \$1 \$2;
#X text 632 41 type;
#X text 760 40 size;
#X obj 589 64 vradio 15 1 0 3 empty empty empty 0 -8 0 10 #fcfcfc #000000 #000000 0;
#X text 605 63 DejaVu Sans Mono;
#X text 605 78 Helvetica;
#X text 606 93 Times;
#X floatatom 817 71 4 -100 250 0 - - - 0;
#X obj 889 98 t b f;
#X floatatom 889 71 5 -150 150 0 - - - 0;
#X msg 817 148 label_pos \$1 \$2;
#X text 856 41 x;
#X text 929 41 y;
#X obj 817 126 pack 17 20, f 17;
#X obj 589 164 pack 0 25, f 24;
#X msg 973 129 label \$1;
#X floatatom 1191 70 3 0 29 1 bgColor - - 0;
#X floatatom 1295 70 3 0 29 1 lblColor - - 0;
#X obj 1295 92 t b f;
#X msg 1191 145 color \$1 \$2 \$3;
#X obj 1191 124 pack 1 22 22, f 14;
#X text 1170 18 Color Presets (0-29):;
#X obj 24 42 inlet;
#X obj 8 42 cnv 14 14 14 empty empty 0 4 8 0 12 #606060 #dcdcdc 0;
#X symbolatom 24 210 10 0 0 0 - - - 0;
#X obj 588 330 send, f 13;
#X obj 400 42 inlet;
#X obj 314 42 inlet;
#X obj 491 42 inlet;
#X obj 155 42 cnv 14 14 14 empty empty 1 4 8 0 12 #606060 #dcdcdc 0;
#X obj 297 42 cnv 14 14 14 empty empty 2 4 8 0 12 #606060 #dcdcdc 0;
#X obj 384 42 cnv 14 14 14 empty empty 3 4 8 0 12 #606060 #dcdcdc 0;
#X obj 721 42 inlet;
#X obj 589 42 inlet;
#X obj 817 42 inlet;
#X obj 476 42 cnv 14 14 14 empty empty 4 4 8 0 12 #606060 #dcdcdc 0;
#X obj 573 42 cnv 14 14 14 empty empty 5 4 8 0 12 #606060 #dcdcdc 0;
#X obj 703 42 cnv 14 14 14 empty empty 6 4 8 0 12 #606060 #dcdcdc 0;
#X text 315 18 Size;
#X text 421 18 Visible Size;
#X text 635 18 Label Font;
#X text 824 18 Label Offset;
#X obj 889 42 inlet;
#X obj 800 42 cnv 14 14 14 empty empty 7 4 8 0 12 #606060 #dcdcdc 0;
#X msg 1052 89 symbol my\ label;
#X symbolatom 973 92 10 0 0 0 - - - 0;
#X obj 973 42 inlet;
#X obj 872 42 cnv 14 14 14 empty empty 8 4 8 0 12 #606060 #dcdcdc 0;
#X msg 973 70 symbol \$1;
#X text 1007 18 Label Text;
#X obj 1191 42 inlet;
#X obj 958 42 cnv 14 14 14 empty empty 9 4 8 0 12 #606060 #dcdcdc 0;
#X obj 1295 42 inlet;
#X obj 1174 42 cnv 14 14 14 empty empty 10 0 8 0 12 #606060 #dcdcdc 0;
#X text 0 18 Canvas Name;
#X obj 284 2 cnv 5 1 260 empty empty empty 20 12 0 14 #7c7c7c #404040 0;
#X obj 738 322 cnv 2 1000 40 empty \$0-test_canvas tdh.util.spectrum.ui 20 15 0 16 #a0a0a0 #202020 0;
#X obj 415 328 s \$0-test_canvas;
#X obj 210 187 spigot;
#X obj 170 88 tgl 15 0 empty empty empty 17 7 0 10 #fcfcfc #000000 #000000 0 1;
#X obj 249 134 == 1;
#X obj 101 135 == 0;
#X obj 144 134 list append \$0;
#X msg 144 157 symbol \$2-\$1;
#X msg 24 136 symbol \$1;
#X obj 24 167 spigot;
#X obj 170 42 inlet;
#X obj 1279 42 cnv 14 14 14 empty empty 11 0 8 0 12 #606060 #dcdcdc 0;
#X text 136 18 Add "\$0" option;
#X obj 374 2 cnv 5 1 260 empty empty empty 20 12 0 14 #7c7c7c #404040 0;
#X obj 561 2 cnv 5 1 260 empty empty empty 20 12 0 14 #7c7c7c #404040 0;
#X obj 791 2 cnv 5 1 260 empty empty empty 20 12 0 14 #7c7c7c #404040 0;
#X obj 944 2 cnv 5 1 260 empty empty empty 20 12 0 14 #7c7c7c #404040 0;
#X obj 1164 2 cnv 5 1 260 empty empty empty 20 12 0 14 #7c7c7c #404040 0;
#X connect 0 0 1 0;
#X connect 1 0 37 0;
#X connect 1 0 69 0;
#X connect 2 0 6 0;
#X connect 3 0 2 0;
#X connect 3 1 2 1;
#X connect 4 0 3 0;
#X connect 5 0 2 0;
#X connect 6 0 37 0;
#X connect 6 0 69 0;
#X connect 9 0 26 0;
#X connect 10 0 26 0;
#X connect 10 1 26 1;
#X connect 11 0 10 0;
#X connect 12 0 37 0;
#X connect 12 0 69 0;
#X connect 15 0 9 0;
#X connect 19 0 25 0;
#X connect 20 0 25 0;
#X connect 20 1 25 1;
#X connect 21 0 20 0;
#X connect 22 0 37 0;
#X connect 22 0 69 0;
#X connect 25 0 22 0;
#X connect 26 0 12 0;
#X connect 27 0 37 0;
#X connect 27 0 69 0;
#X connect 28 0 32 0;
#X connect 29 0 30 0;
#X connect 30 0 32 0;
#X connect 30 1 32 2;
#X connect 31 0 37 0;
#X connect 31 0 69 0;
#X connect 32 0 31 0;
#X connect 34 0 74 0;
#X connect 34 0 76 0;
#X connect 36 0 37 1;
#X connect 38 0 5 0;
#X connect 39 0 0 0;
#X connect 40 0 4 0;
#X connect 44 0 11 0;
#X connect 45 0 15 0;
#X connect 46 0 19 0;
#X connect 54 0 21 0;
#X connect 56 0 27 0;
#X connect 57 0 27 0;
#X connect 58 0 60 0;
#X connect 60 0 57 0;
#X connect 62 0 28 0;
#X connect 64 0 29 0;
#X connect 70 0 36 0;
#X connect 71 0 72 0;
#X connect 71 0 73 0;
#X connect 72 0 70 1;
#X connect 73 0 77 1;
#X connect 74 0 75 0;
#X connect 75 0 70 0;
#X connect 76 0 77 0;
#X connect 77 0 36 0;
#X connect 78 0 71 0;
#X restore 6 354 pd label-properties;
#X f 45;
#X floatatom 273 219 5 0 29 0 BG-Clr - - 0;
#X floatatom 180 174 5 0 0 0 Vis-Sz-W - - 0;
#X floatatom 181 198 5 0 0 0 Vis-Sz-H - - 0;
#X floatatom 271 150 5 0 0 0 Lbl-X - - 0;
#X floatatom 272 174 5 0 0 0 Lbl-Y - - 0;
#X floatatom 180 150 5 0 0 0 Size - - 0;
#X symbolatom 214 127 10 0 0 0 CnvReceiveSymbol - - 0;
#X floatatom 181 219 5 0 2 0 Lbl-Fon - - 0;
#X symbolatom 274 195 10 0 0 0 Lbl-Txt - - 0;
#X obj 295 128 tgl 15 0 empty empty Append_0 20 7 0 10 #fcfcfc #fc8000 #000000 0 1;
#X text 194 103 Label Properties;
#X obj 28 18 inlet;
#X obj 414 223 cnv 15 500 30 empty \$0-myCanvas This\ is\ my\ label? 9 13 0 18 #e0e0e0 #606060 0;
#X obj 28 54 route doll rec size visw vish lblfon lblsz lblx lbly bgclr lblclr, f 66;
#X obj 56 93 symbol;
#X text 6 4 _;
#X text 479 173 dollarsign0-myCanvas;
#X msg 74 18 doll 1 \, rec myCanvas \, size 15 \, visw 50 \, vish 60 \, lblfon 0 \, lblsz 18 \, lblx 9 \, lbly 13 \, bgclr 10 \, lblclr 21, f 106;
#N canvas 240 66 752 410 \$0-how-to-set-values-externally 0;
#X text 112 49 doll [0/1] - toggle on appending "\$0-" at the start of the recieve symbol, f 85;
#X text 112 102 visw [float] - the visible width of the canvas in pixels, f 85;
#X text 112 85 size [float] - the size of the clickable/dragable portion of the canvas in pixels, f 85;
#X text 112 122 vish [float] - the visible height of the canvas in pixels, f 85;
#X text 111 141 lblfon [0/1/2] - font designation for the canvas' label \, with [0] for Menlo \, [1] for, f 89;
#X text 131 155 Helvetica \, [2] for Times. Note that these fonts may be different on Windows or Linux, f 84;
#X text 111 173 lblsz [float] - font size designation for the canvas' label, f 85;
#X text 111 213 lbly [float] - y offset in pixels from the top left corner of the canvas, f 85;
#X text 111 193 lblx [float] - x offset (horizontal) in pixels from the top left corner of the canvas, f 85;
#X text 4 29 To set the values for your canvas object externally \, send messages with the following signifiers to the 0 (leftmost) inlet:, f 124;
#X msg 31 336 doll 1 \, rec myCanvas \, size 15 \, visw 500 \, vish 30 \, lblfon 0 \, lblsz 18 \, lblx 9 \, lbly 13 \, bgclr 10 \, lblclr 21, f 106;
#X text 111 67 rec [symbol] - receive symbol for the canvas, f 85;
#X obj 90 241 cnv 5 5 5 empty \$0-canvas-format-helper-boldstatement1 Please\ note\ that\ the\ $-0\ designation\ (1\ or\ 0)\ MUST\ be\ sent\ first\,\ followed\ by\ the\ canvas\  1 9 0 12 #fcfcfc #fc0400 0;
#N canvas 2423 143 808 250 init 0;
#X msg 30 102 label \$1;
#X msg 419 120 label \$1;
#X obj 29 147 s \$0-canvas-format-helper-boldstatement1;
#X obj 418 164 s \$0-canvas-format-helper-boldstatement2;
#X obj 233 15 loadbang;
#X msg 420 51 symbol receive\ symbol!\ Failure\ to\ do\ so\ will\ cause\ incorrect\ parameter\ dispatching!;
#X msg 26 43 symbol Please\\\ note\\\ that\\\ the\\\ $-0\\\ designation\\\ (1\\\ or\\\ 0)\\\ MUST\\\ be\\\ sent\\\ first\\\,\\\ followed\\\ by\\\ the\\\ canvas\\\ ;
#X connect 0 0 2 0;
#X connect 1 0 3 0;
#X connect 4 0 5 0;
#X connect 4 0 6 0;
#X connect 5 0 1 0;
#X connect 6 0 0 0;
#X restore 659 9 pd init;
#X obj 90 257 cnv 5 5 5 empty \$0-canvas-format-helper-boldstatement2 receive\ symbol!\ Failure\ to\ do\ so\ will\ cause\ incorrect\ parameter\ dispatching! 1 9 0 12 #fcfcfc #fc0400 0;
#X msg 112 362 symbol this\ is\ my\ label!;
#X text 296 357 The label parameter must be sent separately to Inlet 1 (rightmost inlet). The message must be prepended with the "symbol" identifier \, and the escape character () needs to be set in the message:, f 68;
#X text 102 286 All parameters EXCEPT label can be sent in a single message to Inlet 0 (leftmost inlet) like below (and this can be copied and pasted for easy initializing formatting)., f 89;
#X restore 326 378 pd \$0-how-to-set-values-externally;
#X msg 326 336 vis 1;
#X obj 326 357 s pd-\$0-how-to-set-values-externally;
#X obj 120 263 bng 15 250 50 0 empty empty empty 17 7 0 10 #fcfcfc #000000 #000000;
#X text 141 263 How to set canvas values externally;
#X text 891 18 All left-inlet messages;
#X text 984 47 Label text;
#X msg 636 48 symbol This\ is\ my\ label?;
#X obj 587 47 inlet;
#X obj 632 184 cnv 5 5 5 empty empty ↴ -3 3 0 24 #fcfcfc #606060 0;
#X connect 0 0 2 6;
#X connect 1 0 2 11;
#X connect 3 0 2 10;
#X connect 4 0 2 3;
#X connect 5 0 2 4;
#X connect 6 0 2 7;
#X connect 7 0 2 8;
#X connect 8 0 2 2;
#X connect 9 0 2 0;
#X connect 10 0 2 5;
#X connect 11 0 2 9;
#X connect 12 0 2 1;
#X connect 14 0 16 0;
#X connect 16 0 12 0;
#X connect 16 1 17 0;
#X connect 16 2 8 0;
#X connect 16 3 4 0;
#X connect 16 4 5 0;
#X connect 16 5 10 0;
#X connect 16 6 0 0;
#X connect 16 7 6 0;
#X connect 16 8 7 0;
#X connect 16 9 3 0;
#X connect 16 10 1 0;
#X connect 17 0 9 0;
#X connect 20 0 16 0;
#X connect 22 0 23 0;
#X connect 24 0 22 0;
#X connect 28 0 11 0;
#X connect 29 0 11 0;
#X coords 0 -1 1 1 300 190 2 100 100;
#X restore 25 27 pd graph;
#X obj 25 1 inlet;
#X connect 0 0 1 1;
#X connect 2 0 1 0;
#X restore 343 725 pd canvas-ctrl;
#X obj 451 725 r \$0-width;
#X obj 343 657 loadbang;
#X obj 88 648 cnv 15 1200 1 empty empty Inlets 0 -15 0 18 #606060 #404040 0;
#X text 127 669 \$0-abstrPatchSecLabelArgs;
#N canvas 673 23 349 258 canvas-ctrl 0;
#X obj 291 1 inlet;
#N canvas 248 270 1089 459 graph 0;
#X floatatom 180 241 5 0 0 0 Lbl-Sz - - 0;
#X floatatom 273 241 5 0 29 0 Lbl-Clr - - 0;
#N canvas 32 23 1408 389 label-properties 0;
#X floatatom 314 72 3 18 100 0 - - - 0;
#X msg 314 99 size \$1;
#X obj 400 121 pack 100 60, f 18;
#X obj 491 93 t b f;
#X floatatom 491 68 4 18 100 0 - - - 0;
#X floatatom 400 68 4 18 100 0 - - - 0;
#X msg 400 148 vis_size \$1 \$2;
#X text 442 41 w/x;
#X text 532 41 h/y;
#X floatatom 589 116 4 0 3 0 - - - 0;
#X obj 721 135 t b f;
#X floatatom 721 116 5 5 50 0 - - - 0;
#X msg 589 185 label_font \$1 \$2;
#X text 632 41 type;
#X text 760 40 size;
#X obj 589 64 vradio 15 1 0 3 empty empty empty 0 -8 0 10 #fcfcfc #000000 #000000 0;
#X text 605 63 DejaVu Sans Mono;
#X text 605 78 Helvetica;
#X text 606 93 Times;
#X floatatom 817 71 4 -100 250 0 - - - 0;
#X obj 889 98 t b f;
#X floatatom 889 71 5 -150 150 0 - - - 0;
#X msg 817 148 label_pos \$1 \$2;
#X text 856 41 x;
#X text 929 41 y;
#X obj 817 126 pack 17 20, f 17;
#X obj 589 164 pack 0 25, f 24;
#X msg 973 129 label \$1;
#X floatatom 1191 70 3 0 29 1 bgColor - - 0;
#X floatatom 1295 70 3 0 29 1 lblColor - - 0;
#X obj 1295 92 t b f;
#X msg 1191 145 color \$1 \$2 \$3;
#X obj 1191 124 pack 1 22 22, f 14;
#X text 1170 18 Color Presets (0-29):;
#X obj 24 42 inlet;
#X obj 8 42 cnv 14 14 14 empty empty 0 4 8 0 12 #606060 #dcdcdc 0;
#X symbolatom 24 210 10 0 0 0 - - - 0;
#X obj 588 330 send, f 13;
#X obj 400 42 inlet;
#X obj 314 42 inlet;
#X obj 491 42 inlet;
#X obj 155 42 cnv 14 14 14 empty empty 1 4 8 0 12 #606060 #dcdcdc 0;
#X obj 297 42 cnv 14 14 14 empty empty 2 4 8 0 12 #606060 #dcdcdc 0;
#X obj 384 42 cnv 14 14 14 empty empty 3 4 8 0 12 #606060 #dcdcdc 0;
#X obj 721 42 inlet;
#X obj 589 42 inlet;
#X obj 817 42 inlet;
#X obj 476 42 cnv 14 14 14 empty empty 4 4 8 0 12 #606060 #dcdcdc 0;
#X obj 573 42 cnv 14 14 14 empty empty 5 4 8 0 12 #606060 #dcdcdc 0;
#X obj 703 42 cnv 14 14 14 empty empty 6 4 8 0 12 #606060 #dcdcdc 0;
#X text 315 18 Size;
#X text 421 18 Visible Size;
#X text 635 18 Label Font;
#X text 824 18 Label Offset;
#X obj 889 42 inlet;
#X obj 800 42 cnv 14 14 14 empty empty 7 4 8 0 12 #606060 #dcdcdc 0;
#X msg 1052 89 symbol my\ label;
#X symbolatom 973 92 10 0 0 0 - - - 0;
#X obj 973 42 inlet;
#X obj 872 42 cnv 14 14 14 empty empty 8 4 8 0 12 #606060 #dcdcdc 0;
#X msg 973 70 symbol \$1;
#X text 1007 18 Label Text;
#X obj 1191 42 inlet;
#X obj 958 42 cnv 14 14 14 empty empty 9 4 8 0 12 #606060 #dcdcdc 0;
#X obj 1295 42 inlet;
#X obj 1174 42 cnv 14 14 14 empty empty 10 0 8 0 12 #606060 #dcdcdc 0;
#X text 0 18 Canvas Name;
#X obj 284 2 cnv 5 1 260 empty empty empty 20 12 0 14 #7c7c7c #404040 0;
#X obj 738 322 cnv 2 1000 40 empty \$0-test_canvas tdh.util.spectrum.ui 20 15 0 16 #a0a0a0 #202020 0;
#X obj 415 328 s \$0-test_canvas;
#X obj 210 187 spigot;
#X obj 170 88 tgl 15 0 empty empty empty 17 7 0 10 #fcfcfc #000000 #000000 0 1;
#X obj 249 134 == 1;
#X obj 101 135 == 0;
#X obj 144 134 list append \$0;
#X msg 144 157 symbol \$2-\$1;
#X msg 24 136 symbol \$1;
#X obj 24 167 spigot;
#X obj 170 42 inlet;
#X obj 1279 42 cnv 14 14 14 empty empty 11 0 8 0 12 #606060 #dcdcdc 0;
#X text 136 18 Add "\$0" option;
#X obj 374 2 cnv 5 1 260 empty empty empty 20 12 0 14 #7c7c7c #404040 0;
#X obj 561 2 cnv 5 1 260 empty empty empty 20 12 0 14 #7c7c7c #404040 0;
#X obj 791 2 cnv 5 1 260 empty empty empty 20 12 0 14 #7c7c7c #404040 0;
#X obj 944 2 cnv 5 1 260 empty empty empty 20 12 0 14 #7c7c7c #404040 0;
#X obj 1164 2 cnv 5 1 260 empty empty empty 20 12 0 14 #7c7c7c #404040 0;
#X connect 0 0 1 0;
#X connect 1 0 37 0;
#X connect 1 0 69 0;
#X connect 2 0 6 0;
#X connect 3 0 2 0;
#X connect 3 1 2 1;
#X connect 4 0 3 0;
#X connect 5 0 2 0;
#X connect 6 0 37 0;
#X connect 6 0 69 0;
#X connect 9 0 26 0;
#X connect 10 0 26 0;
#X connect 10 1 26 1;
#X connect 11 0 10 0;
#X connect 12 0 37 0;
#X connect 12 0 69 0;
#X connect 15 0 9 0;
#X connect 19 0 25 0;
#X connect 20 0 25 0;
#X connect 20 1 25 1;
#X connect 21 0 20 0;
#X connect 22 0 37 0;
#X connect 22 0 69 0;
#X connect 25 0 22 0;
#X connect 26 0 12 0;
#X connect 27 0 37 0;
#X connect 27 0 69 0;
#X connect 28 0 32 0;
#X connect 29 0 30 0;
#X connect 30 0 32 0;
#X connect 30 1 32 2;
#X connect 31 0 37 0;
#X connect 31 0 69 0;
#X connect 32 0 31 0;
#X connect 34 0 74 0;
#X connect 34 0 76 0;
#X connect 36 0 37 1;
#X connect 38 0 5 0;
#X connect 39 0 0 0;
#X connect 40 0 4 0;
#X connect 44 0 11 0;
#X connect 45 0 15 0;
#X connect 46 0 19 0;
#X connect 54 0 21 0;
#X connect 56 0 27 0;
#X connect 57 0 27 0;
#X connect 58 0 60 0;
#X connect 60 0 57 0;
#X connect 62 0 28 0;
#X connect 64 0 29 0;
#X connect 70 0 36 0;
#X connect 71 0 72 0;
#X connect 71 0 73 0;
#X connect 72 0 70 1;
#X connect 73 0 77 1;
#X connect 74 0 75 0;
#X connect 75 0 70 0;
#X connect 76 0 77 0;
#X connect 77 0 36 0;
#X connect 78 0 71 0;
#X restore 6 354 pd label-properties;
#X f 45;
#X floatatom 273 219 5 0 29 0 BG-Clr - - 0;
#X floatatom 180 174 5 0 0 0 Vis-Sz-W - - 0;
#X floatatom 181 198 5 0 0 0 Vis-Sz-H - - 0;
#X floatatom 271 150 5 0 0 0 Lbl-X - - 0;
#X floatatom 272 174 5 0 0 0 Lbl-Y - - 0;
#X floatatom 180 150 5 0 0 0 Size - - 0;
#X symbolatom 214 127 10 0 0 0 CnvReceiveSymbol - - 0;
#X floatatom 181 219 5 0 2 0 Lbl-Fon - - 0;
#X symbolatom 274 195 10 0 0 0 Lbl-Txt - - 0;
#X obj 295 128 tgl 15 0 empty empty Append_0 20 7 0 10 #fcfcfc #fc8000 #000000 0 1;
#X text 194 103 Label Properties;
#X obj 28 18 inlet;
#X obj 414 223 cnv 15 500 30 empty \$0-myCanvas This\ is\ my\ label? 9 13 0 18 #e0e0e0 #606060 0;
#X obj 28 54 route doll rec size visw vish lblfon lblsz lblx lbly bgclr lblclr, f 66;
#X obj 56 93 symbol;
#X text 6 4 _;
#X text 479 173 dollarsign0-myCanvas;
#X msg 74 18 doll 1 \, rec myCanvas \, size 15 \, visw 50 \, vish 60 \, lblfon 0 \, lblsz 18 \, lblx 9 \, lbly 13 \, bgclr 10 \, lblclr 21, f 106;
#N canvas 240 66 752 410 \$0-how-to-set-values-externally 0;
#X text 112 49 doll [0/1] - toggle on appending "\$0-" at the start of the recieve symbol, f 85;
#X text 112 102 visw [float] - the visible width of the canvas in pixels, f 85;
#X text 112 85 size [float] - the size of the clickable/dragable portion of the canvas in pixels, f 85;
#X text 112 122 vish [float] - the visible height of the canvas in pixels, f 85;
#X text 111 141 lblfon [0/1/2] - font designation for the canvas' label \, with [0] for Menlo \, [1] for, f 89;
#X text 131 155 Helvetica \, [2] for Times. Note that these fonts may be different on Windows or Linux, f 84;
#X text 111 173 lblsz [float] - font size designation for the canvas' label, f 85;
#X text 111 213 lbly [float] - y offset in pixels from the top left corner of the canvas, f 85;
#X text 111 193 lblx [float] - x offset (horizontal) in pixels from the top left corner of the canvas, f 85;
#X text 4 29 To set the values for your canvas object externally \, send messages with the following signifiers to the 0 (leftmost) inlet:, f 124;
#X msg 31 336 doll 1 \, rec myCanvas \, size 15 \, visw 500 \, vish 30 \, lblfon 0 \, lblsz 18 \, lblx 9 \, lbly 13 \, bgclr 10 \, lblclr 21, f 106;
#X text 111 67 rec [symbol] - receive symbol for the canvas, f 85;
#X obj 90 241 cnv 5 5 5 empty \$0-canvas-format-helper-boldstatement1 Please\ note\ that\ the\ $-0\ designation\ (1\ or\ 0)\ MUST\ be\ sent\ first\,\ followed\ by\ the\ canvas\  1 9 0 12 #fcfcfc #fc0400 0;
#N canvas 2423 143 808 250 init 0;
#X msg 30 102 label \$1;
#X msg 419 120 label \$1;
#X obj 29 147 s \$0-canvas-format-helper-boldstatement1;
#X obj 418 164 s \$0-canvas-format-helper-boldstatement2;
#X obj 233 15 loadbang;
#X msg 420 51 symbol receive\ symbol!\ Failure\ to\ do\ so\ will\ cause\ incorrect\ parameter\ dispatching!;
#X msg 26 43 symbol Please\\\ note\\\ that\\\ the\\\ $-0\\\ designation\\\ (1\\\ or\\\ 0)\\\ MUST\\\ be\\\ sent\\\ first\\\,\\\ followed\\\ by\\\ the\\\ canvas\\\ ;
#X connect 0 0 2 0;
#X connect 1 0 3 0;
#X connect 4 0 5 0;
#X connect 4 0 6 0;
#X connect 5 0 1 0;
#X connect 6 0 0 0;
#X restore 659 9 pd init;
#X obj 90 257 cnv 5 5 5 empty \$0-canvas-format-helper-boldstatement2 receive\ symbol!\ Failure\ to\ do\ so\ will\ cause\ incorrect\ parameter\ dispatching! 1 9 0 12 #fcfcfc #fc0400 0;
#X msg 112 362 symbol this\ is\ my\ label!;
#X text 296 357 The label parameter must be sent separately to Inlet 1 (rightmost inlet). The message must be prepended with the "symbol" identifier \, and the escape character () needs to be set in the message:, f 68;
#X text 102 286 All parameters EXCEPT label can be sent in a single message to Inlet 0 (leftmost inlet) like below (and this can be copied and pasted for easy initializing formatting)., f 89;
#X restore 326 378 pd \$0-how-to-set-values-externally;
#X msg 326 336 vis 1;
#X obj 326 357 s pd-\$0-how-to-set-values-externally;
#X obj 120 263 bng 15 250 50 0 empty empty empty 17 7 0 10 #fcfcfc #000000 #000000;
#X text 141 263 How to set canvas values externally;
#X text 891 18 All left-inlet messages;
#X text 984 47 Label text;
#X msg 636 48 symbol This\ is\ my\ label?;
#X obj 587 47 inlet;
#X obj 632 184 cnv 5 5 5 empty empty ↴ -3 3 0 24 #fcfcfc #606060 0;
#X connect 0 0 2 6;
#X connect 1 0 2 11;
#X connect 3 0 2 10;
#X connect 4 0 2 3;
#X connect 5 0 2 4;
#X connect 6 0 2 7;
#X connect 7 0 2 8;
#X connect 8 0 2 2;
#X connect 9 0 2 0;
#X connect 10 0 2 5;
#X connect 11 0 2 9;
#X connect 12 0 2 1;
#X connect 14 0 16 0;
#X connect 16 0 12 0;
#X connect 16 1 17 0;
#X connect 16 2 8 0;
#X connect 16 3 4 0;
#X connect 16 4 5 0;
#X connect 16 5 10 0;
#X connect 16 6 0 0;
#X connect 16 7 6 0;
#X connect 16 8 7 0;
#X connect 16 9 3 0;
#X connect 16 10 1 0;
#X connect 17 0 9 0;
#X connect 20 0 16 0;
#X connect 22 0 23 0;
#X connect 24 0 22 0;
#X connect 28 0 11 0;
#X connect 29 0 11 0;
#X coords 0 -1 1 1 300 190 2 100 100;
#X restore 25 27 pd graph;
#X obj 25 1 inlet;
#X connect 0 0 1 1;
#X connect 2 0 1 0;
#X restore 343 865 pd canvas-ctrl;
#X obj 451 865 r \$0-width;
#X obj 343 797 loadbang;
#X obj 88 788 cnv 15 1200 1 empty empty Outlets 0 -15 0 18 #606060 #404040 0;
#X text 127 809 \$0-abstrPatchSecLabelArgs;
#X msg 438 702 symbol Inlets;
#X msg 343 679 doll 1 \, rec abstrPatchSecLabelInlets \, size 2 \, visw 501 \, vish 3 \, lblfon 0 \, lblsz 16 \, lblx 20 \, lbly 15 \, bgclr 1 \, lblclr 12, f 123;
#X msg 343 548 doll 1 \, rec abstrPatchSecLabelArgs \, size 2 \, visw 501 \, vish 3 \, lblfon 0 \, lblsz 16 \, lblx 20 \, lbly 15 \, bgclr 1 \, lblclr 12, f 123;
#X msg 438 572 symbol Arguments;
#X msg 343 819 doll 1 \, rec abstrPatchSecLabelOutlets \, size 2 \, visw 501 \, vish 3 \, lblfon 0 \, lblsz 16 \, lblx 20 \, lbly 15 \, bgclr 1 \, lblclr 12, f 123;
#X msg 438 842 symbol Outlets;
#X msg 343 309 doll 1 \, rec abstrPatchTitleBar \, size 15 \, visw 501 \, vish 40 \, lblfon 0 \, lblsz 18 \, lblx 9 \, lbly 20 \, bgclr 18 \, lblclr 1, f 123;
#X msg 343 433 doll 1 \, rec abstrPatchSecDivider \, size 2 \, visw 501 \, vish 2 \, lblfon 0 \, lblsz 18 \, lblx 9 \, lbly 20 \, bgclr 1 \, lblclr 12, f 123;
#X connect 8 0 15 0;
#X connect 9 0 11 0;
#X connect 11 0 12 0;
#X connect 12 0 23 0;
#X connect 15 0 3 1;
#X connect 21 0 65 0;
#X connect 22 0 66 0;
#X connect 24 0 3 0;
#X connect 25 0 4 0;
#X connect 26 0 5 0;
#X connect 27 0 61 0;
#X connect 27 0 62 0;
#X connect 28 0 6 0;
#X connect 29 0 44 0;
#X connect 29 0 48 0;
#X connect 30 0 7 0;
#X connect 31 0 46 0;
#X connect 31 0 47 0;
#X connect 44 0 6 0;
#X connect 46 0 7 0;
#X connect 47 0 7 1;
#X connect 48 0 6 1;
#X connect 50 0 49 0;
#X connect 51 0 60 0;
#X connect 51 0 59 0;
#X connect 55 0 54 0;
#X connect 56 0 63 0;
#X connect 56 0 64 0;
#X connect 59 0 49 1;
#X connect 60 0 49 0;
#X connect 61 0 5 0;
#X connect 62 0 5 1;
#X connect 63 0 54 0;
#X connect 64 0 54 1;
#X connect 65 0 3 0;
#X connect 66 0 4 0;
#X restore 176 208 pd abstr-cnv-set;
#X f 32;
#X obj 147 176 cnv 5 5 5 empty empty ⟶ -3 3 0 30 #fcfcfc #000000 0;
#X obj 471 179 cnv 5 5 5 empty empty ⟵ -3 3 0 30 #fcfcfc #000000 0;
#X text 491 168 EDIT HERE to change patch WIDTH, f 16;
#X text 16 47 This subpatch (and nested subpatches) helps set the uniform titles and graphics for ABSTRACTIONS., f 84;
#X text 13 80 The two most commonly changed fields \, DISPLAY NAME and WIDTH can be changed by editing the [message( boxes below. Text in [message( objects get saved to the patch., f 84;
#X obj 21 480 loadbang;
#X obj 21 501 del 10;
#X text 288 504 EDIT HERE text after "label" to change the display name shown on the module, f 20;
#X text 10 161 EDIT HERE text after "symbol" to change the abstraction patch's main display name, f 20;
#X obj 18 259 cnv 5 5 5 empty empty GOP\ Module\ Label\ +\ Width\ --------------------------------- 0 0 0 14 #ffffff #404040 0;
#X obj 40 383 s \$0-inletBorder-r;
#X obj 216 378 s \$0-inletBar-r;
#X obj 41 403 s \$0-moduleNameBorder-r;
#X obj 263 519 cnv 5 5 5 empty empty ⟵ -3 3 0 30 #fcfcfc #000000 0;
#X obj 20 461 cnv 5 5 5 empty empty Module\ Name 0 0 0 12 #ffffff #0400ff 0;
#X obj 42 422 s \$0-outletBorder-r;
#X obj 217 420 s \$0-outletBar-r;
#X obj 17 298 loadbang;
#X msg 203 356 vis_size \$1 14;
#X obj 15 26 cnv 5 5 5 empty empty Object\ Title\ Bar\ ------------------------------------------------ 0 0 0 14 #ffffff #404040 0;
#X obj 50 315 cnv 5 5 5 empty empty ⟵ -3 3 0 30 #fcfcfc #000000 0;
#X obj 16 286 cnv 5 5 5 empty empty Module\ Width 0 0 0 12 #ffffff #0400ff 0;
#X msg 17 358 vis_size \$1 2;
#X obj 217 400 s \$0-moduleName-r;
#X obj 21 542 s \$0-moduleName-r;
#X obj 18 600 loadbang;
#X text 82 316 EDIT HERE to set the GOP label width;
#X obj 17 585 cnv 5 5 5 empty empty Module\ Specific\ Initializations\ --------------------------------- 0 0 0 14 #ffffff #404040 0;
#X obj 17 339 - 2;
#X msg 435 178 1000;
#X msg 176 177 symbol tdh.util.spectrum.ui;
#X msg 21 522 label Spectrum;
#X msg 18 318 600;
#X connect 1 0 2 0;
#X connect 2 0 34 0;
#X connect 2 0 33 0;
#X connect 9 0 10 0;
#X connect 10 0 35 0;
#X connect 21 0 36 0;
#X connect 22 0 15 0;
#X connect 22 0 20 0;
#X connect 22 0 27 0;
#X connect 26 0 14 0;
#X connect 26 0 16 0;
#X connect 26 0 19 0;
#X connect 32 0 26 0;
#X connect 32 0 22 0;
#X connect 33 0 3 1;
#X connect 34 0 3 0;
#X connect 35 0 28 0;
#X connect 36 0 32 0;
#X restore 910 50 pd abstr-init;
#X obj 914 21 cnv 8 83 16 empty empty tdh.lib 14 8 0 14 #dfdfdf #131255 0;
#N canvas 727 144 713 522 reference 0;
#X text 18 48 Travis Houldcroft || travishouldcroft.com;
#X obj 1 2 cnv 15 1000 40 empty \$0-abstrPatchTitleBar tdh.util.spectrum.ui 9 20 0 18 #3c50fc #a0a0a0 0;
#X obj 1 362 cnv 2 1000 3 empty \$0-abstrPatchSecLabelNotes Notes 20 15 0 16 #a0a0a0 #202020 0;
#X obj 1 485 cnv 2 1000 2 empty \$0-abstrPatchSecDivider empty 9 20 0 18 #a0a0a0 #202020 0;
#X obj 1 422 cnv 2 1000 3 empty \$0-abstrPatchSecLabelRevHist Revision\ History 20 15 0 16 #a0a0a0 #202020 0;
#X obj 1 262 cnv 2 1000 3 empty \$0-abstrPatchSecLabelArgs Arguments 20 15 0 16 #a0a0a0 #202020 0;
#X text 24 453 21/09/30 - ver 0.1, f 21;
#X obj 1 72 cnv 2 1000 3 empty \$0-abstrPatchSecLabelInlets Inlets 20 15 0 16 #a0a0a0 #202020 0;
#X obj 1 172 cnv 2 1000 3 empty \$0-abstrPatchSecLabelOutlets Outlets 20 15 0 16 #a0a0a0 #202020 0;
#X obj 125 121 cnv 14 18 14 empty empty 10 2 8 0 12 #606060 #dcdcdc 0;
#X obj 125 81 cnv 14 18 14 empty empty 1 2 8 0 12 #606060 #dcdcdc 0;
#X obj 125 101 cnv 14 18 14 empty empty 2 2 8 0 12 #606060 #dcdcdc 0;
#X text 227 271 Description;
#X text 177 271 (type);
#X text 227 291 Description;
#X text 177 291 (type);
#X text 227 311 Description;
#X text 177 311 (type);
#X text 197 80 Description;
#X text 147 80 (type);
#X text 197 100 Description;
#X text 147 100 (type);
#X text 197 120 Description;
#X text 147 120 (type);
#X text 197 180 Description;
#X text 147 180 (type);
#X text 197 200 Description;
#X text 147 200 (type);
#X text 197 220 Description;
#X text 147 220 (type);
#X text 147 271 \$1 -;
#X text 147 291 \$2 -;
#X text 147 311 \$3 -;
#X obj 125 181 cnv 14 18 14 empty empty 1 2 8 0 12 #9f9f9f #ffffff 0;
#X obj 126 272 cnv 14 18 14 empty empty 1 2 8 0 12 #dfdfdf #606060 0;
#X obj 126 292 cnv 14 18 14 empty empty 2 2 8 0 12 #dfdfdf #606060 0;
#X obj 126 312 cnv 14 18 14 empty empty 3 2 8 0 12 #dfdfdf #606060 0;
#X obj 125 201 cnv 14 18 14 empty empty 1 2 8 0 12 #9f9f9f #ffffff 0;
#X obj 125 221 cnv 14 18 14 empty empty 1 2 8 0 12 #9f9f9f #ffffff 0;
#X restore 826 50 pd reference;
#X obj 727 107 cnv 14 18 14 empty empty 1 2 8 0 12 #606060 #dcdcdc 0;
#X obj 910 107 cnv 14 18 14 empty empty 2 2 8 0 12 #606060 #dcdcdc 0;
#X obj 727 327 cnv 14 18 14 empty empty 1 2 8 0 12 #9f9f9f #ffffff 0;
#N canvas 789 23 651 544 fft-analysis 0;
#X obj 15 164 *~;
#X obj 14 99 inlet~;
#X obj 15 218 rfft~;
#X obj 36 140 tabreceive~ \$0-hann;
#X obj 14 306 *~;
#X obj 56 306 *~;
#X obj 15 356 sqrt~;
#X obj 23 386 loadbang;
#X obj 23 449 tgl 15 0 empty empty empty 0 -6 0 8 #fcfcfc #000000 #000000 0 1;
#X obj 15 8 block~ 512;
#X text 225 131 tabreceive~ outputs array contents \,;
#X text 225 149 constantly \, every block. Here it's;
#X text 223 169 used to get the Hann window to;
#X text 225 187 multiply by the input.;
#X text 120 7 block~ object does no computation but declares this;
#X text 120 24 window to be operating at a different block size from;
#X text 122 58 Fourier transform.;
#X text 121 40 the parent window. This determines the size of the;
#X text 76 99 The inlet~ automatically re-blocks to the new block size.;
#X obj 15 332 +~;
#X text 94 308 Take the magnitude by squaring real and imaginary part \, adding and taking square root.;
#X text 110 424 periodically graph the output. It appears every 512 samples (about 12 milliseconds) but we only update the graph 4 times per second. The graph is back on the main (parent) window.;
#X text 82 215 forward real FFT. Like "fft~" \, but only one inlet (for the real part) and only the first half of the output signals are used. (The others are determined by symmetry: they're complex conjugates of the first half \, in reverse order.) This takes 1/2 the CPU time of "fft".;
#X obj 14 498 tabwrite~ \$0-spectrum;
#X obj 23 470 metro 50;
#X connect 0 0 2 0;
#X connect 1 0 0 0;
#X connect 2 0 4 0;
#X connect 2 0 4 1;
#X connect 2 1 5 0;
#X connect 2 1 5 1;
#X connect 3 0 0 1;
#X connect 4 0 19 0;
#X connect 5 0 19 1;
#X connect 6 0 23 0;
#X connect 7 0 8 0;
#X connect 8 0 24 0;
#X connect 19 0 6 0;
#X connect 24 0 23 0;
#X restore 786 303 pd fft-analysis;
#N canvas 0 22 450 300 (subpatch) 0;
#X array \$0-spectrum 256 float 0;
#X coords 0 128 255 0 500 100 1;
#X restore 85 183 graph;
#N canvas 0 22 450 300 (subpatch) 0;
#X array \$0-hann 512 float 1;
#A 0 0 3.76403e-05 0.000150591 0.000338793 0.000602275 0.000940949 0.00135478 0.00184369 0.00240764 0.00304651 0.00376022 0.00454867 0.00541174 0.0063493 0.00736117 0.00844723 0.00960734 0.0108413 0.0121489 0.01353 0.0149843 0.0165117 0.0181119 0.0197847 0.0215298 0.0233469 0.0252359 0.0271963 0.0292279 0.0313304 0.0335035 0.0357469 0.0380602 0.040443 0.042895 0.0454159 0.0480053 0.0506627 0.0533878 0.0561801 0.0590393 0.0619648 0.0649564 0.0680135 0.0711356 0.0743223 0.0775731 0.0808875 0.0842651 0.0877052 0.0912074 0.0947713 0.0983961 0.102081 0.105827 0.109631 0.113495 0.117416 0.121395 0.125432 0.129524 0.133673 0.137876 0.142134 0.146446 0.150812 0.155229 0.159699 0.16422 0.168792 0.173413 0.178084 0.182803 0.18757 0.192384 0.197244 0.20215 0.207101 0.212096 0.217134 0.222215 0.227337 0.232501 0.237705 0.242948 0.24823 0.253551 0.258908 0.264301 0.26973 0.275194 0.280692 0.286222 0.291785 0.297379 0.303004 0.308658 0.314341 0.320052 0.32579 0.331555 0.337344 0.343159 0.348997 0.354857 0.36074 0.366643 0.372567 0.378509 0.38447 0.390449 0.396444 0.402454 0.40848 0.414518 0.42057 0.426634 0.432709 0.438794 0.444888 0.450991 0.457101 0.463217 0.469339 0.475466 0.481596 0.487729 0.493864 0.499999 0.506135 0.51227 0.518403 0.524533 0.53066 0.536782 0.542898 0.549008 0.55511 0.561205 0.56729 0.573365 0.579428 0.58548 0.591519 0.597544 0.603555 0.60955 0.615528 0.621489 0.627432 0.633356 0.639259 0.645142 0.651002 0.65684 0.662654 0.668444 0.674209 0.679947 0.685658 0.691341 0.696995 0.70262 0.708214 0.713777 0.719307 0.724805 0.730269 0.735698 0.741091 0.746448 0.751768 0.757051 0.762294 0.767498 0.772662 0.777784 0.782865 0.787903 0.792898 0.797849 0.802755 0.807615 0.812429 0.817196 0.821915 0.826586 0.831207 0.835779 0.8403 0.84477 0.849187 0.853553 0.857865 0.862123 0.866327 0.870475 0.874568 0.878604 0.882583 0.886505 0.890368 0.894173 0.897918 0.901603 0.905228 0.908792 0.912294 0.915734 0.919112 0.922426 0.925677 0.928864 0.931986 0.935043 0.938035 0.94096 0.943819 0.946612 0.949337 0.951994 0.954584 0.957104 0.959557 0.961939 0.964253 0.966496 0.968669 0.970772 0.972803 0.974764 0.976653 0.97847 0.980215 0.981888 0.983488 0.985015 0.98647 0.987851 0.989158 0.990392 0.991553 0.992639 0.993651 0.994588 0.995451 0.99624 0.996953 0.997592 0.998156 0.998645 0.999059 0.999398 0.999661 0.999849 0.999962 1 0.999962 0.999849 0.999661 0.999398 0.999059 0.998645 0.998156 0.997593 0.996954 0.99624 0.995451 0.994588 0.993651 0.992639 0.991553 0.990393 0.989159 0.987851 0.98647 0.985016 0.983489 0.981888 0.980216 0.978471 0.976653 0.974765 0.972804 0.970773 0.96867 0.966497 0.964254 0.96194 0.959557 0.957106 0.954585 0.951995 0.949338 0.946613 0.94382 0.940961 0.938036 0.935044 0.931987 0.928865 0.925678 0.922428 0.919113 0.915736 0.912295 0.908793 0.905229 0.901605 0.897919 0.894174 0.89037 0.886506 0.882585 0.878605 0.874569 0.870477 0.866328 0.862125 0.857866 0.853554 0.849189 0.844772 0.840302 0.835781 0.831209 0.826588 0.821917 0.817198 0.812431 0.807617 0.802757 0.797851 0.7929 0.787906 0.782867 0.777787 0.772664 0.7675 0.762296 0.757053 0.751771 0.746451 0.741093 0.7357 0.730271 0.724807 0.71931 0.713779 0.708216 0.702622 0.696998 0.691344 0.68566 0.679949 0.674211 0.668447 0.662657 0.656843 0.651005 0.645144 0.639262 0.633358 0.627435 0.621492 0.615531 0.609553 0.603558 0.597547 0.591522 0.585483 0.579431 0.573367 0.567292 0.561207 0.555113 0.549011 0.542901 0.536785 0.530663 0.524536 0.518406 0.512273 0.506138 0.500002 0.493867 0.487732 0.481599 0.475468 0.469342 0.46322 0.457104 0.450994 0.444891 0.438797 0.432712 0.426637 0.420573 0.414521 0.408482 0.402457 0.396447 0.390452 0.384473 0.378512 0.37257 0.366646 0.360743 0.35486 0.349 0.343162 0.337347 0.331558 0.325793 0.320055 0.314344 0.308661 0.303007 0.297382 0.291788 0.286225 0.280694 0.275197 0.269733 0.264304 0.258911 0.253553 0.248233 0.242951 0.237708 0.232504 0.22734 0.222217 0.217137 0.212098 0.207103 0.202153 0.197247 0.192386 0.187572 0.182806 0.178087 0.173416 0.168794 0.164223 0.159702 0.155232 0.150814 0.146449 0.142137 0.137879 0.133675 0.129527 0.125434 0.121398 0.117418 0.113497 0.109633 0.105829 0.102084 0.0983981 0.0947733 0.0912094 0.0877071 0.0842671 0.0808895 0.077575 0.0743241 0.0711374 0.0680152 0.0649581 0.0619665 0.059041 0.0561818 0.0533894 0.0506643 0.0480068 0.0454174 0.0428965 0.0404444 0.0380616 0.0357483 0.0335049 0.0313317 0.0292291 0.0271975 0.025237 0.023348 0.0215309 0.0197858 0.0181129 0.0165127 0.0149852 0.0135309 0.0121497 0.0108421 0.00960809 0.00844795 0.00736183 0.00634989 0.00541228 0.00454918 0.0037607 0.00304693 0.00240803 0.00184402 0.00135505 0.000941187 0.000602454 0.000338942 0.000150681 3.76999e-05;
#X coords 0 1 511 0 200 120 1;
#X restore 1115 131 graph;
#X msg 1043 209 0;
#X obj 937 258 osc~;
#X obj 937 210 samplerate~;
#X obj 937 281 *~ -0.5;
#X obj 937 303 +~ 0.5;
#X obj 929 327 tabwrite~ \$0-hann;
#X text 1101 123 1;
#X text 1094 241 0;
#X text 1110 254 0;
#X obj 937 234 / 512;
#X obj 930 149 bng 15 250 50 0 empty empty empty 0 -6 0 8 #fcfcfc #000000 #000000;
#X text 1102 103 Hann window;
#X text 985 256 period 512;
#X text 962 143 recalculate Hann;
#X text 986 156 window table;
#X text 1296 257 511;
#X obj 929 107 inlet;
#X obj 746 327 outlet~;
#X obj 746 107 inlet~;
#X text 800 326 Thru;
#X obj 1032 107 loadbang;
#X text 70 297 20;
#X text 89 297 500;
#X text 103 310 1000;
#X text 117 296 2000;
#X text 161 296 4000;
#X text 81 310 250;
#X text 78 281 |;
#X text 87 281 |;
#X text 94 281 |;
#X text 104 281 |;
#X text 126 281 |;
#X text 171 281 |;
#X text 217 281 |;
#X text 208 296 6000;
#X text 266 281 |;
#X text 255 296 8000;
#X text 308 281 |;
#X text 297 296 10000;
#X text 353 281 |;
#X text 342 296 12000;
#X text 399 281 |;
#X text 388 296 14000;
#X text 445 281 |;
#X text 434 296 16000;
#X text 491 281 |;
#X text 480 296 18000;
#X text 534 281 |;
#X text 523 296 20000;
#X text 581 281 |;
#X text 570 296 22000;
#X text 271 314 Frequency in Hz;
#X text 60 226 0.5-;
#X text 71 176 1-;
#X text 71 273 0-;
#X text 46 184 Magnitude, f 1;
#X connect 19 0 20 1;
#X connect 20 0 22 0;
#X connect 21 0 28 0;
#X connect 22 0 23 0;
#X connect 23 0 24 0;
#X connect 28 0 20 0;
#X connect 29 0 21 0;
#X connect 29 0 19 0;
#X connect 29 0 24 0;
#X connect 35 0 29 0;
#X connect 37 0 16 0;
#X connect 37 0 36 0;
#X connect 39 0 29 0;
#X coords 0 -1 1 1 600 300 2 25 100;
