#N canvas 1489 -66 1415 855 10;
#X obj 618 1000 tdh.util.audioOut~;
#X obj 437 716 tdh.util.4chMixer~;
#X obj 133 460 tdh.synth.1oscil~;
#X obj 132 324 tdh.util.counter 0 3;
#X obj 132 345 sel 0 1 2 3;
#X msg 132 404 0;
#X msg 192 380 4;
#X msg 234 380 7;
#X obj 268 380 t b b;
#X msg 296 404 5;
#X msg 264 404 0;
#X obj 132 380 t b b;
#X msg 166 404 4;
#X obj 131 294 metro 250;
#X obj 130 271 tgl 15 0 empty empty empty 17 7 0 10 #fcfcfc #000000
#000000 0 1;
#X obj 472 480 tdh.sigproc.mmfilt~;
#X floatatom 701 299 5 0 0 0 - - - 0;
#X obj 1006 345;
#X obj 772 299 osc~ 1;
#X connect 1 0 0 0;
#X connect 1 1 0 1;
#X connect 2 0 15 0;
#X connect 3 0 4 0;
#X connect 4 0 11 0;
#X connect 4 1 6 0;
#X connect 4 2 7 0;
#X connect 4 3 8 0;
#X connect 5 0 2 2;
#X connect 6 0 2 2;
#X connect 7 0 2 2;
#X connect 8 0 10 0;
#X connect 8 1 9 0;
#X connect 9 0 2 1;
#X connect 10 0 2 2;
#X connect 11 0 5 0;
#X connect 11 1 12 0;
#X connect 12 0 2 1;
#X connect 13 0 3 0;
#X connect 14 0 13 0;
#X connect 15 0 1 0;
