#N canvas 41 23 1415 855 10;
#X obj 256 733 tdh.util.audioOut~;
#X obj 75 449 tdh.util.4chMixer~;
#X obj 67 271 tdh.synth.beep~;
#X obj 242 277 tdh.synth.beep~;
#X obj 414 274 tdh.synth.beep~;
#X obj 578 274 tdh.synth.beep~;
#X obj 66 19 tgl 15 0 empty empty empty 17 7 0 10 #fcfcfc #000000 #000000
0 1;
#X obj 66 39 metro 300;
#X obj 66 60 random 4;
#X obj 66 81 sel 0 1 2 3, f 119;
#X msg 162 202 60;
#X msg 337 182 67;
#X msg 507 182 69;
#X msg 641 182 72;
#X obj 82 129 random 150;
#X obj 67 100 t b b b, f 13;
#X obj 67 157 del;
#X obj 257 129 random 150;
#X obj 242 100 t b b b, f 13;
#X obj 242 157 del;
#X obj 429 129 random 150;
#X obj 414 100 t b b b, f 13;
#X obj 414 157 del;
#X obj 593 129 random 150;
#X obj 578 100 t b b b, f 13;
#X obj 578 157 del;
#X connect 1 0 0 0;
#X connect 1 1 0 1;
#X connect 2 0 1 0;
#X connect 3 0 1 1;
#X connect 4 0 1 2;
#X connect 5 0 1 3;
#X connect 6 0 7 0;
#X connect 7 0 8 0;
#X connect 8 0 9 0;
#X connect 9 0 15 0;
#X connect 9 1 18 0;
#X connect 9 2 21 0;
#X connect 9 3 24 0;
#X connect 10 0 2 2;
#X connect 11 0 3 2;
#X connect 12 0 4 2;
#X connect 13 0 5 2;
#X connect 14 0 16 1;
#X connect 15 0 16 0;
#X connect 15 1 14 0;
#X connect 15 2 10 0;
#X connect 16 0 2 0;
#X connect 17 0 19 1;
#X connect 18 0 19 0;
#X connect 18 1 17 0;
#X connect 18 2 11 0;
#X connect 19 0 3 0;
#X connect 20 0 22 1;
#X connect 21 0 22 0;
#X connect 21 1 20 0;
#X connect 21 2 12 0;
#X connect 22 0 4 0;
#X connect 23 0 25 1;
#X connect 24 0 25 0;
#X connect 24 1 23 0;
#X connect 24 2 13 0;
#X connect 25 0 5 0;
