#N canvas 1964 88 912 563 12;
#X floatatom 106 148 5 0 0 0 - - -;
#X text 101 169 Default is 55;
#X obj 348 191 f \$1;
#X obj 297 270 == 0;
#X text 386 189 Argument 1;
#X obj 348 214 t f f;
#X obj 297 306 sel 1 0;
#X text 105 271 Does the argument equal 0?;
#X obj 297 342 f 55;
#X text 145 340 Yes \, use the default;
#X obj 362 341 f;
#X text 393 341 No \, use the argument;
#X obj 348 157 loadbang;
#X obj 297 395 s \$0-arg;
#X obj 106 69 r \$0-arg;
#X connect 2 0 5 0;
#X connect 3 0 6 0;
#X connect 5 0 3 0;
#X connect 5 1 10 1;
#X connect 6 0 8 0;
#X connect 6 1 10 0;
#X connect 8 0 13 0;
#X connect 10 0 13 0;
#X connect 12 0 2 0;
#X connect 14 0 0 0;
#X coords 0 -1 1 1 100 100 1 100 100;
