#N canvas 827 239 527 327 12;
#X obj 50 199 osc~;
#X msg 981 248 0;
#X msg 949 248 1;
#N canvas 1440 218 450 300 on-off 0;
#X obj 124 63 inlet~;
#X obj 237 61 inlet onOff;
#X obj 130 170 *~;
#X obj 240 140 vline~;
#X msg 239 103 \$1 25;
#X obj 130 195 outlet~;
#X connect 0 0 2 0;
#X connect 1 0 4 0;
#X connect 2 0 5 0;
#X connect 3 0 2 1;
#X connect 4 0 3 0;
#X restore 50 249 pd on-off;
#N canvas 0 22 450 300 on-off 0;
#X obj 124 63 inlet~;
#X obj 237 61 inlet onOff;
#X obj 130 170 *~;
#X obj 240 140 vline~;
#X msg 239 103 \$1 25;
#X obj 130 195 outlet~;
#X connect 0 0 2 0;
#X connect 1 0 4 0;
#X connect 2 0 5 0;
#X connect 3 0 2 1;
#X connect 4 0 3 0;
#X restore 179 249 pd on-off;
#N canvas 0 22 450 300 on-off 0;
#X obj 124 63 inlet~;
#X obj 237 61 inlet onOff;
#X obj 130 170 *~;
#X obj 240 140 vline~;
#X msg 239 103 \$1 25;
#X obj 130 195 outlet~;
#X connect 0 0 2 0;
#X connect 1 0 4 0;
#X connect 2 0 5 0;
#X connect 3 0 2 1;
#X connect 4 0 3 0;
#X restore 350 249 pd on-off;
#N canvas 0 22 450 300 on-off 0;
#X obj 124 63 inlet~;
#X obj 237 61 inlet onOff;
#X obj 130 170 *~;
#X obj 240 140 vline~;
#X msg 239 103 \$1 25;
#X obj 130 195 outlet~;
#X connect 0 0 2 0;
#X connect 1 0 4 0;
#X connect 2 0 5 0;
#X connect 3 0 2 1;
#X connect 4 0 3 0;
#X restore 530 249 pd on-off;
#X obj 689 140 loadbang;
#X text 540 139 Set the pulsewidth of the pulse oscil, f 20;
#X msg 1063 248 0;
#X msg 1029 248 1;
#X msg 1138 248 0;
#X msg 1108 248 1;
#X msg 1238 248 0;
#X msg 1208 248 1;
#X obj 39 399 *~;
#X text 989 158 All oscillators are live \, so this code handles the radio button input and turns on output for the oscillator that corresponds with the radio button input \, and silences all other oscillators;
#X obj 39 429 outlet~;
#X obj 946 298 s \$0-sin1;
#X obj 1026 298 s \$0-tri1;
#X obj 1106 298 s \$0-saw1;
#X obj 1206 298 s \$0-sqr1a;
#X obj 101 219 r \$0-sin1;
#X obj 230 219 r \$0-tri1;
#X obj 401 219 r \$0-saw1;
#X obj 581 219 r \$0-sqr1a;
#X msg 689 170 0.5;
#X obj 530 199 tdh.lib/tdh.synth.oscilaPulse~;
#X obj 350 199 tdh.lib/tdh.synth.oscilaSaw~;
#X obj 179 199 tdh.lib/tdh.synth.oscilaTri~;
#X obj 50 270 throw~ \$0-oscilOut;
#X obj 180 270 throw~ \$0-oscilOut;
#X obj 350 270 throw~ \$0-oscilOut;
#X obj 530 270 throw~ \$0-oscilOut;
#X obj 39 342 catch~ \$0-oscilOut;
#X obj 790 360 send~ \$0-oscilGain;
#X obj 54 367 receive~ \$0-oscilGain;
#X obj 946 218 sel 0 1 2 3, f 48;
#X obj 790 170 / 127;
#X msg 790 302 \$1 \$2;
#X obj 790 270 pack f f, f 11;
#X obj 790 328 line~;
#X obj 39 9 inlet;
#X obj 44 40 unpack f f f f, f 50;
#X obj 149 69 s \$0-vel;
#X obj 239 69 s \$0-env;
#X obj 351 70 s \$0-shape;
#X obj 820 240 cnv 14 14 14 empty empty R 6 8 0 8 #b8b8b8 #404040 0;
#X obj 129 69 cnv 14 14 14 empty empty S 6 8 0 8 #fce0c4 #7c7c7c 0;
#X obj 19 69 cnv 14 14 14 empty empty S 6 8 0 8 #fcc4c4 #7c7c7c 0;
#X obj 231 70 cnv 14 14 14 empty empty S 6 8 0 8 #b8b8b8 #404040 0;
#X obj 331 70 cnv 14 14 14 empty empty S 6 8 0 8 #dcdcdc #7c7c7c 0;
#X obj 19 9 cnv 14 18 14 empty empty 1 2 8 0 12 #606060 #dcdcdc 0;
#X obj 19 429 cnv 14 18 14 empty empty 1 2 8 0 12 #9f9f9f #ffffff 0;
#X obj 840 240 r \$0-env;
#X obj 770 140 cnv 14 14 14 empty empty R 6 8 0 8 #fce0c4 #7c7c7c 0;
#X obj 790 140 r \$0-vel;
#X obj 929 139 cnv 14 14 14 empty empty R 6 8 0 8 #dcdcdc #7c7c7c 0;
#X obj 945 139 r \$0-shape;
#X obj 30 130 cnv 14 14 14 empty empty R 6 8 0 8 #fcc4c4 #7c7c7c 0;
#X obj 790 196 pipe 1;
#X obj 39 69 s \$0-pitch;
#X obj 50 130 r \$0-pitch;
#X obj 50 156 mtof;
#X floatatom 70 99 5 0 0 0 - - - 12;
#X floatatom 164 100 5 0 0 0 - - - 12;
#X floatatom 238 105 5 0 0 0 - - - 12;
#X floatatom 372 100 5 0 0 0 - - - 12;
#X floatatom 79 -171 5 0 0 0 - - - 12;
#X floatatom 69 -71 5 0 0 0 - - - 12;
#X floatatom 163 -70 5 0 0 0 - - - 12;
#X floatatom 237 -65 5 0 0 0 - - - 12;
#X floatatom 371 -70 5 0 0 0 - - - 12;
#X floatatom 877 284 5 0 0 0 - - - 12;
#X floatatom 1029 79 5 0 0 0 - - - 12;
#X floatatom 119 249 5 0 0 0 - - - 12;
#X floatatom 249 249 5 0 0 0 - - - 12;
#X floatatom 429 249 5 0 0 0 - - - 12;
#X floatatom 609 249 5 0 0 0 - - - 12;
#X obj 68 -268 tgl 25 0 empty empty empty 17 7 0 10 #e4e4e4 #4d4d4d #373737 0 1;
#X obj 68 -210 random 127;
#X obj 69 -231 metro 500;
#X obj 79 -141 makenote 64 400;
#X connect 0 0 3 0;
#X connect 1 0 19 0;
#X connect 1 0 20 0;
#X connect 1 0 21 0;
#X connect 2 0 18 0;
#X connect 3 0 30 0;
#X connect 4 0 31 0;
#X connect 5 0 32 0;
#X connect 6 0 33 0;
#X connect 7 0 26 0;
#X connect 9 0 18 0;
#X connect 9 0 20 0;
#X connect 9 0 21 0;
#X connect 10 0 19 0;
#X connect 11 0 18 0;
#X connect 11 0 19 0;
#X connect 11 0 21 0;
#X connect 12 0 20 0;
#X connect 13 0 18 0;
#X connect 13 0 19 0;
#X connect 13 0 20 0;
#X connect 14 0 21 0;
#X connect 15 0 17 0;
#X connect 22 0 3 1;
#X connect 22 0 75 0;
#X connect 23 0 4 1;
#X connect 23 0 76 0;
#X connect 24 0 5 1;
#X connect 24 0 77 0;
#X connect 25 0 6 1;
#X connect 25 0 78 0;
#X connect 26 0 27 2;
#X connect 27 0 6 0;
#X connect 28 0 5 0;
#X connect 29 0 4 0;
#X connect 34 0 15 0;
#X connect 36 0 15 1;
#X connect 37 0 2 0;
#X connect 37 0 1 0;
#X connect 37 1 10 0;
#X connect 37 1 9 0;
#X connect 37 2 12 0;
#X connect 37 2 11 0;
#X connect 37 3 14 0;
#X connect 37 3 13 0;
#X connect 38 0 60 0;
#X connect 39 0 41 0;
#X connect 40 0 39 0;
#X connect 41 0 35 0;
#X connect 42 0 43 0;
#X connect 43 0 61 0;
#X connect 43 0 64 0;
#X connect 43 1 44 0;
#X connect 43 1 65 0;
#X connect 43 2 45 0;
#X connect 43 2 66 0;
#X connect 43 3 46 0;
#X connect 43 3 67 0;
#X connect 54 0 40 1;
#X connect 54 0 73 0;
#X connect 56 0 38 0;
#X connect 58 0 37 0;
#X connect 58 0 74 0;
#X connect 60 0 40 0;
#X connect 62 0 63 0;
#X connect 63 0 0 0;
#X connect 63 0 29 0;
#X connect 63 0 28 0;
#X connect 63 0 27 0;
#X connect 68 0 82 0;
#X connect 69 0 61 0;
#X connect 70 0 44 0;
#X connect 71 0 45 0;
#X connect 72 0 46 0;
#X connect 79 0 81 0;
#X connect 80 0 68 0;
#X connect 81 0 80 0;
#X connect 82 0 69 0;
#X connect 82 1 70 0;
